<svg width="95" height="28" viewBox="0 0 95 28" fill="none" xmlns="http://www.w3.org/2000/svg">
<path d="M0.6875 27V0.818181H19.0966V6.54545H7.79545V11.0455H17.9716V16.7727H7.79545V27H0.6875ZM28.8189 0.818181V27H21.7109V0.818181H28.8189ZM54.8409 0.818181V27H48.9091L39.4489 13.2443H39.2955V27H32.1875V0.818181H38.2216L47.5284 14.5227H47.733V0.818181H54.8409ZM65.3111 0.818181V27H58.2031V0.818181H65.3111ZM94.0433 13.9091C94.0433 16.8239 93.4766 19.2827 92.343 21.2855C91.2095 23.2798 89.6797 24.7926 87.7536 25.8239C85.8274 26.8466 83.6797 27.358 81.3104 27.358C78.924 27.358 76.7678 26.8423 74.8416 25.8111C72.924 24.7713 71.3984 23.2543 70.2649 21.2599C69.1399 19.2571 68.5774 16.8068 68.5774 13.9091C68.5774 10.9943 69.1399 8.53977 70.2649 6.54545C71.3984 4.54261 72.924 3.02983 74.8416 2.0071C76.7678 0.975851 78.924 0.460226 81.3104 0.460226C83.6797 0.460226 85.8274 0.975851 87.7536 2.0071C89.6797 3.02983 91.2095 4.54261 92.343 6.54545C93.4766 8.53977 94.0433 10.9943 94.0433 13.9091ZM86.7308 13.9091C86.7308 12.3409 86.522 11.0199 86.1044 9.94602C85.6953 8.86364 85.0859 8.04545 84.2763 7.49148C83.4751 6.92898 82.4865 6.64773 81.3104 6.64773C80.1342 6.64773 79.1413 6.92898 78.3317 7.49148C77.5305 8.04545 76.9212 8.86364 76.5036 9.94602C76.0945 11.0199 75.8899 12.3409 75.8899 13.9091C75.8899 15.4773 76.0945 16.8026 76.5036 17.8849C76.9212 18.9588 77.5305 19.777 78.3317 20.3395C79.1413 20.8935 80.1342 21.1705 81.3104 21.1705C82.4865 21.1705 83.4751 20.8935 84.2763 20.3395C85.0859 19.777 85.6953 18.9588 86.1044 17.8849C86.522 16.8026 86.7308 15.4773 86.7308 13.9091Z" fill="white"/>
</svg>
