<svg width="334" height="85" viewBox="0 0 334 85" fill="none" xmlns="http://www.w3.org/2000/svg">
<path d="M6.36095 23.5611L0.0820312 0.414141H4.20081L9.02512 18.1922L14.1955 0.412598L18.0349 0.414141L23.2233 18.2867L28.0694 0.418513L32.188 0.412598L25.9065 23.557L21.1323 23.5521L16.1168 6.26628L11.0965 23.5566L6.36095 23.5611Z" fill="white"/>
<path d="M35.0273 0.426514H38.948V23.5465H35.0273V0.426514Z" fill="white"/>
<path d="M47.3318 19.9198H56.8766V23.5465H43.4922V0.426514H47.3318V19.9198Z" fill="white"/>
<path d="M68.9353 0.45317C72.1529 0.45317 74.8299 1.5732 76.939 3.78651C79.075 5.99983 80.1567 8.74654 80.1567 11.9998C80.1567 15.2265 79.075 17.9732 76.939 20.2131C74.8299 22.4265 72.1529 23.5465 68.9353 23.5465H59.7148V0.426514H68.9353V0.45317ZM68.9353 19.9465C71.1525 19.9465 72.9641 19.1998 74.3161 17.7065C75.7222 16.2132 76.4252 14.2932 76.4252 12.0265C76.4252 9.70654 75.7222 7.83986 74.3161 6.34654C72.9371 4.85314 71.1255 4.10649 68.9353 4.10649H63.5815V19.9465H68.9353Z" fill="white"/>
<path d="M100.843 16.9418C100.843 18.8361 100.167 20.4102 98.788 21.6642C97.4089 22.9182 95.7863 23.5585 93.7857 23.5585H83.7539V0.426514H93.0554C94.9754 0.426514 96.5972 1.06689 97.9223 2.26749C99.2749 3.49474 99.9237 5.01557 99.9237 6.8298C99.9237 8.85754 99.112 10.405 97.5443 11.5523C99.5989 12.6195 100.843 14.5405 100.843 16.9418ZM87.6203 4.00174V10.0849H93.082C94.786 10.0849 96.0837 8.75083 96.0837 7.04331C96.0837 5.33571 94.786 4.00174 93.082 4.00174H87.6203ZM93.8123 19.9833C95.5969 19.9833 97.0034 18.5692 97.0034 16.755C97.0034 14.9407 95.5969 13.5267 93.8123 13.5267H87.6203V20.01H93.8123V19.9833Z" fill="white"/>
<path d="M108.331 19.9299H118.715V23.5585H104.492V0.426514H118.553V4.05506H108.331V10.0581H117.714V13.66H108.331V19.9299Z" fill="white"/>
<path d="M135.533 23.5585L130.558 15.1275H126.015V23.5585H122.176V0.426514H131.558C133.667 0.426514 135.452 1.14686 136.885 2.61429C138.345 4.0284 139.103 5.78931 139.103 7.87037C139.103 10.8052 137.237 13.4999 134.452 14.5671L139.778 23.5585H135.533ZM126.015 4.00166V11.739H131.531C133.586 11.739 135.209 10.0315 135.209 7.87037C135.209 5.73591 133.559 4.00166 131.531 4.00166H126.015Z" fill="white"/>
<path d="M156.057 23.558L151.109 15.1226H146.566V23.558H142.727V0.414062H152.109C154.218 0.414062 156.003 1.13483 157.436 2.60303C158.896 4.01783 159.653 5.7796 159.653 7.86178C159.653 10.7982 157.787 13.4943 155.003 14.5621L160.329 23.558H156.057ZM146.566 3.99109V11.7325H152.082C154.137 11.7325 155.759 10.024 155.759 7.86178C155.759 5.72629 154.11 3.99109 152.082 3.99109H146.566Z" fill="white"/>
<path d="M163.141 0.417236H166.981V23.5586H163.141V0.417236Z" fill="white"/>
<path d="M175.363 19.9299H185.747V23.5584H171.523V0.426514H185.584V4.05506H175.363V10.0581H184.746V13.66H175.363V19.9299Z" fill="white"/>
<path d="M188.422 18.2933L191.748 16.3733C192.694 18.9867 194.614 20.2666 197.561 20.2666C200.481 20.2666 201.914 19.04 201.914 17.2267C201.914 16.2667 201.509 15.5733 200.752 15.0933C199.994 14.5867 198.588 14.0266 196.588 13.44C194.343 12.7733 193.235 12.3466 191.666 11.3333C190.152 10.2667 189.395 8.74663 189.395 6.66669C189.395 4.61331 190.125 3.01337 191.612 1.81337C193.073 0.586629 194.857 0 196.939 0C200.698 0 203.591 1.92 205.105 5.09331L201.86 6.93334C200.886 4.8 199.237 3.70663 196.939 3.70663C194.694 3.70663 193.261 4.82666 193.261 6.58663C193.261 8.29337 194.397 9.09334 197.994 10.1866C198.886 10.48 199.535 10.6934 199.94 10.8533C200.373 10.9867 200.94 11.2267 201.671 11.52C202.428 11.8133 203.023 12.16 203.375 12.4533C204.618 13.4133 205.943 14.9866 205.781 17.2C205.781 19.28 205.024 20.96 203.483 22.1866C201.968 23.4134 199.968 24 197.48 24C192.937 23.9733 189.638 21.84 188.422 18.2933Z" fill="white"/>
<path d="M239.394 19.0016C242.088 18.66 244.264 16.4836 244.608 13.7874C244.728 12.8671 244.635 11.9315 244.336 11.0529C244.037 10.1743 243.541 9.37607 242.884 8.71983C242.228 8.06359 241.43 7.56689 240.551 7.26804C239.673 6.96919 238.737 6.87618 237.817 6.9962C235.121 7.33994 232.944 9.51629 232.603 12.2104C232.483 13.1307 232.576 14.0662 232.874 14.9448C233.173 15.8235 233.67 16.6217 234.326 17.2779C234.982 17.9342 235.781 18.4309 236.659 18.7297C237.538 19.0286 238.473 19.1216 239.394 19.0016ZM239.761 1.71108C242.355 1.98414 244.776 3.13935 246.621 4.98358C248.465 6.8278 249.62 9.24924 249.893 11.843C250.604 19.0188 244.623 25 237.445 24.2888C234.852 24.0153 232.431 22.8599 230.587 21.0157C228.743 19.1715 227.588 16.7503 227.315 14.1569C226.604 6.98116 232.585 0.999956 239.761 1.71108ZM255.982 2.1601H272.591C273.223 2.1601 273.579 2.88197 273.199 3.3847L261.707 18.5461H270.711C272.353 18.5461 273.644 20.0393 273.304 21.7408C273.055 22.989 271.884 23.8398 270.612 23.8398H252.574C251.949 23.8398 251.595 23.1244 251.971 22.6281L263.471 7.45381H256.081C254.809 7.45381 253.638 6.60089 253.389 5.3548C253.047 3.65326 254.34 2.1601 255.982 2.1601ZM328.063 2.22026C329.778 1.85932 331.286 3.15697 331.286 4.80696V23.075C331.286 23.7131 330.549 24.0675 330.051 23.6722L315.723 12.3049V21.1973C315.723 22.8472 314.215 24.1449 312.5 23.784C311.271 23.5261 310.429 22.381 310.429 21.1264V2.92279C310.429 2.28471 311.166 1.93022 311.664 2.32553L325.994 13.6928V4.87786C325.994 3.62318 326.839 2.48022 328.065 2.22026H328.063ZM290.756 1.65308C299.528 1.65308 306.639 6.73194 306.639 12.9967C306.639 19.2615 299.528 24.3404 290.756 24.3404C281.984 24.3404 274.873 19.2615 274.873 12.9967C274.873 6.73194 281.984 1.65308 290.756 1.65308ZM290.756 6.94678C284.695 6.94678 280.166 10.1415 280.166 12.9967C280.166 15.852 284.695 19.0467 290.756 19.0467C296.817 19.0467 301.346 15.8541 301.346 12.9967C301.346 10.1393 296.817 6.94678 290.756 6.94678Z" fill="white"/>
<path fill-rule="evenodd" clip-rule="evenodd" d="M32.6838 70.1411C30.0069 76.0752 24.0456 80.1901 17.0958 80.1901C11.2178 80.1901 5.98694 77.2198 2.90442 72.6872L8.82545 64.8453L7.67441 72.9452L13.9412 75.1193L21.5722 62.9269C21.2311 65.1863 20.6769 70.4299 25.6647 72.0499C28.1294 72.8 30.4973 71.9213 32.6838 70.1411ZM33.8798 59.8215C31.4242 63.527 29.0577 66.1473 27.7963 65.8258C25.6595 65.2811 27.5169 58.5598 28.755 54.0795C28.7767 54.0011 28.7982 53.9234 28.8194 53.8464V53.7185L21.8706 51.3312L13.5575 64.8879L14.7085 57.4701L8.69756 55.3811L0.292274 66.3818C0.0912143 65.3186 -0.00943655 64.2198 0.000696068 63.0951C0.000696068 53.631 7.63167 46 17.0958 46C25.4398 46 32.359 51.9316 33.8798 59.8215Z" fill="white"/>
<path d="M52.3936 75.6296H56.1451L61.3888 56.1471V75.6296H65.6092V49.8804H59.8114L54.5678 68.766L49.3242 49.8804H43.3984V75.6296H47.0221V56.1471L52.3936 75.6296ZM83.2585 62.8829C83.2585 58.3213 80.9991 56.6161 76.3097 56.6161C73.3681 56.6161 71.066 57.5113 69.7018 58.3213V61.945C70.8529 61.0497 73.4534 60.1118 75.7554 60.1118C77.9296 60.1118 78.8249 60.9218 78.8249 62.8402V63.8634H78.1428C71.4071 63.8634 68.3376 66.1228 68.3376 69.917C68.3376 73.7112 70.5971 75.8427 74.0502 75.8427C76.6507 75.8427 77.8017 75.0327 78.6117 74.1375H78.8249C78.8249 74.6064 79.038 75.2885 79.1659 75.6296H83.5143C83.3864 74.1375 83.3012 72.5601 83.3012 71.068C83.2585 71.068 83.2585 62.8829 83.2585 62.8829ZM78.8249 71.1959C78.2707 72.0059 77.2475 72.688 75.6276 72.688C73.7944 72.688 72.8992 71.537 72.8992 69.9596C72.8992 67.7854 74.3912 67.0181 78.2707 67.0181H78.9528V71.2386H78.8249V71.1959ZM90.8895 56.9571H86.7969V81.0011H91.2305V73.498C92.3816 75.2033 93.9589 76.0132 95.92 76.0132C100.268 76.0132 103.21 72.6028 103.21 66.336C103.21 60.0692 100.354 56.6587 96.1331 56.6587C94.0868 56.6587 92.3816 57.554 91.1026 59.3871C91.1453 59.3445 90.8895 56.9571 90.8895 56.9571ZM94.6836 72.5601C92.4242 72.5601 91.1453 70.6417 91.1453 66.4212C91.1453 62.0729 92.3816 60.1545 94.8968 60.1545C97.2841 60.1545 98.5204 62.0729 98.5204 66.2933C98.5204 70.6417 97.2841 72.5601 94.6836 72.5601ZM116.98 75.6296H122.01L114.933 65.6113L121.2 56.9571H116.767L110.5 65.6113V56.9571H106.066V75.6296H110.5V66.5065L116.98 75.6296ZM136.803 74.3933V70.7696C135.439 71.6649 133.18 72.4749 131.005 72.4749C127.808 72.4749 126.572 70.9828 126.316 67.7854H136.888V65.3981C136.888 58.9182 134.032 56.5308 129.599 56.5308C124.227 56.5308 121.627 60.6234 121.627 66.336C121.627 72.8159 124.824 76.0132 130.409 76.0132C133.521 75.9706 135.567 75.2885 136.803 74.3933ZM129.641 60.1545C131.815 60.1545 132.497 61.9876 132.497 64.2471V64.5881H126.316C126.444 61.6466 127.595 60.1545 129.641 60.1545ZM152.747 60.4955V56.9571H137.954V60.4955H143.198V75.6296H147.631V60.4955H152.747Z" fill="white"/>
<path d="M216.707 75.5682V51.0723H231.185V54.1434H219.705V61.675H230.015V64.7461H219.705V72.424H231.99V75.4951H216.707V75.5682Z" fill="white"/>
<path d="M247.199 75.5669L242.227 69.059L237.254 75.5669H233.745L240.545 66.8654L233.379 57.8713H237.328L242.227 64.5986L247.199 57.8713H251.074L244.274 66.8654L250.709 75.5669H247.199Z" fill="white"/>
<path d="M255.537 72.9355V85.0007H252.539V66.9395C252.539 62.3328 256.049 57.4336 261.533 57.4336C267.09 57.4336 271.258 60.9435 271.258 66.7201C271.258 72.3505 267.017 76.226 262.191 76.226C259.851 76.226 256.707 75.2023 255.537 72.9355ZM268.114 66.7201C268.114 62.7715 265.555 60.4316 261.021 60.651C258.828 60.7241 255.464 62.3328 255.756 67.9632C255.83 69.7913 257.731 73.228 261.899 73.228C265.482 73.228 268.114 71.1806 268.114 66.7201Z" fill="white"/>
<path d="M273.816 75.567V57.8715H276.814V59.7726C278.277 58.0908 280.544 57.5059 282.957 57.5059V60.7232C282.591 60.6501 279.008 60.2114 276.814 64.8912V75.6402H273.816V75.567Z" fill="white"/>
<path d="M283.762 66.7201C283.762 61.6016 287.418 57.4336 292.463 57.4336C298.752 57.4336 301.092 61.6016 301.092 66.9395V68.4019H287.052C287.272 71.7656 290.27 73.5205 293.048 73.4474C295.096 73.3742 296.485 72.7893 297.947 71.3268L299.922 73.3742C298.094 75.1292 295.754 76.2991 292.902 76.2991C287.564 76.226 283.762 72.2774 283.762 66.7201ZM292.244 60.4316C289.392 60.4316 287.198 62.9178 287.052 65.6233H297.947C297.947 62.9909 296.046 60.4316 292.244 60.4316Z" fill="white"/>
<path d="M302.625 73.0837L304.819 71.1094C304.746 71.1094 305.916 72.2794 306.062 72.3525C306.574 72.7912 307.085 73.0837 307.744 73.23C309.645 73.7418 313.081 73.5956 313.374 70.9632C313.52 69.5007 312.423 68.6964 311.18 68.1845C309.572 67.5995 307.817 67.3802 306.208 66.649C304.38 65.8446 303.21 64.4553 303.21 62.4079C303.21 57.0699 310.815 56.1925 314.251 58.6786C314.398 58.8249 316.079 60.3604 316.006 60.3604L313.813 62.1154C312.716 60.7992 311.692 60.1411 309.352 60.1411C308.182 60.1411 306.574 60.6529 306.281 61.896C305.842 63.6509 307.817 64.309 309.133 64.6746C310.888 65.1134 312.789 65.4059 314.325 66.3565C316.445 67.6727 316.957 70.5244 316.153 72.7181C315.275 75.1311 312.643 76.0817 310.303 76.1549C307.524 76.3011 305.111 75.4236 303.137 73.4493C302.991 73.4493 302.625 73.0837 302.625 73.0837Z" fill="white"/>
<path d="M318.055 73.0837L320.248 71.1094C320.175 71.1094 321.345 72.2794 321.491 72.3525C322.003 72.7912 322.515 73.0837 323.173 73.23C325.074 73.7418 328.511 73.5956 328.804 70.9632C328.95 69.5007 327.853 68.6964 326.61 68.1845C325.001 67.5995 323.246 67.3802 321.638 66.649C319.81 65.8446 318.64 64.4553 318.64 62.4079C318.64 57.0699 326.244 56.1925 329.681 58.6786C329.827 58.8249 331.509 60.3604 331.436 60.3604L329.242 62.1154C328.146 60.7992 327.122 60.1411 324.782 60.1411C323.612 60.1411 322.003 60.6529 321.711 61.896C321.272 63.6509 323.246 64.309 324.563 64.6746C326.317 65.1134 328.219 65.4059 329.754 66.3565C331.875 67.6727 332.387 70.5244 331.582 72.7181C330.705 75.1311 328.072 76.0817 325.733 76.1549C322.954 76.3011 320.541 75.4236 318.567 73.4493C318.42 73.4493 318.055 73.0837 318.055 73.0837Z" fill="white"/>
<path d="M196.377 75.5672L194.184 69.7175H182.338L180.144 75.5672H177L186.506 51.0713H189.943L199.375 75.5672H196.377ZM188.115 54.5812L183.654 66.7194H192.941L188.115 54.5812Z" fill="white"/>
<path d="M201.348 75.5672V51.0713H204.419V75.5672H201.348Z" fill="white"/>
<path d="M209.027 75.5675V58.2375H212.098V75.5675H209.027Z" fill="white"/>
<path d="M215.024 52.6067V52.3142C212.684 52.2411 210.783 50.3399 210.71 48H210.271C210.198 50.3399 208.297 52.2411 205.957 52.3142V52.6067C208.297 52.6798 210.198 54.581 210.271 56.9209H210.71C210.783 54.581 212.684 52.6798 215.024 52.6067Z" fill="white"/>
</svg>
