<svg width="32" height="23" viewBox="0 0 32 23" fill="none" xmlns="http://www.w3.org/2000/svg">
<g clip-path="url(#clip0_3725_1699)">
<path d="M0 2.4937L0.257957 1.68066L9.92508 11.4712L0.250443 21.2659C0.185328 21.0675 0.0934989 20.7866 0 20.5057V2.4937Z" fill="white"/>
<path d="M1.68693 0.183891C2.10434 0.123445 2.52174 0.0136216 2.93414 0.0136216C5.29833 -0.00340539 7.66251 0.00595943 10.03 0.00595943C16.349 0.00198648 22.6694 0 28.9911 0C29.4511 0 29.8969 0.0485268 30.3661 0.290309C29.9161 0.742375 29.4912 1.16379 29.0738 1.59117C24.9949 5.77469 20.9138 9.95821 16.8304 14.1417C16.3295 14.6593 15.675 14.6619 15.1741 14.1485C10.7335 9.59724 6.29231 5.0448 1.85056 0.491227C1.79295 0.431633 1.73786 0.369485 1.68359 0.309039L1.68693 0.183891Z" fill="white"/>
<path d="M30.375 22.7681C30.0019 22.8532 29.683 22.9264 29.3608 22.9877C29.2366 23.0019 29.1115 23.0051 28.9868 22.9971C20.3231 22.9971 11.66 22.9945 2.9974 22.9894C2.56079 22.9894 2.12502 22.8804 1.61328 22.8123L11.3355 12.975L11.2754 12.8848C11.3497 12.9554 11.4265 13.0235 11.4983 13.0968C12.2404 13.8579 13.0143 14.59 13.7181 15.3869C14.9628 16.7967 17.0515 16.7788 18.2962 15.3758C19.0642 14.5117 19.914 13.7225 20.6779 12.9495L30.375 22.7681Z" fill="white"/>
<path d="M31.7847 1.70312C31.8507 2.04366 31.9901 2.43273 31.9909 2.82009C32.0054 8.60925 32.0054 14.3984 31.9909 20.1876C31.9909 20.5741 31.8499 20.9606 31.7739 21.3505L22.0742 11.5251L31.7847 1.70312Z" fill="white"/>
</g>
<defs>
<clipPath id="clip0_3725_1699">
<rect width="32" height="23" fill="white"/>
</clipPath>
</defs>
</svg>
