<svg width="32" height="32" viewBox="0 0 32 32" fill="none" xmlns="http://www.w3.org/2000/svg">
<g clip-path="url(#clip0_3725_1206)">
<path d="M15.0001 0H16.9999C17.0834 0.0175 17.1593 0.04 17.2403 0.0516667C17.9709 0.159167 18.709 0.226667 19.4296 0.3775C26.5711 1.86833 31.9132 8.3775 31.9992 15.6717C32.0376 19.005 31.1909 22.0817 29.3231 24.8442C26.7798 28.6064 23.2677 30.9083 18.7867 31.75C18.1955 31.86 17.5952 31.9167 16.999 32H15.0001C14.932 31.978 14.8622 31.9616 14.7914 31.9508C12.0151 31.74 9.4543 30.8842 7.1523 29.3208C3.39663 26.7708 1.08545 23.2592 0.250489 18.7883C0.140274 18.1967 0.0834964 17.5967 0 17V15C0.0718069 14.455 0.12608 13.9075 0.217926 13.3658C0.779021 10.0575 2.23019 7.19333 4.58145 4.80167C6.97863 2.36333 9.86761 0.833333 13.2434 0.245C13.8253 0.143333 14.414 0.0833333 15.0001 0ZM15.7883 21.0658C17.0784 22.0167 18.3433 22.9508 19.6091 23.8817C20.4441 24.4942 21.0344 24.2658 21.2498 23.2517C22.0586 19.4467 22.8658 15.6411 23.6712 11.835C23.7885 11.3425 23.8548 10.8393 23.8691 10.3333C23.8691 9.82 23.4266 9.54667 22.9248 9.66667C22.794 9.70049 22.6657 9.74309 22.5407 9.79417C18.6113 11.3025 14.6823 12.8156 10.7535 14.3333C9.53111 14.805 8.30873 15.2767 7.09385 15.765C6.81581 15.8767 6.50103 16.0425 6.52524 16.3958C6.54946 16.7492 6.89179 16.8467 7.17819 16.9375C8.38721 17.32 9.59958 17.6875 10.8086 18.0758C10.8994 18.1091 10.997 18.1194 11.0928 18.1057C11.1885 18.092 11.2794 18.0548 11.3572 17.9975C13.4329 16.6836 15.5108 15.3739 17.591 14.0683C18.4627 13.5167 19.3344 12.9661 20.2061 12.4167C20.4057 12.2917 20.6119 12.1667 20.9167 12.345C20.7814 12.4867 20.677 12.61 20.5593 12.7167C18.2576 14.7983 15.9531 16.8775 13.6458 18.9542C13.5381 19.0397 13.4509 19.1483 13.3906 19.2719C13.3304 19.3954 13.2986 19.5309 13.2976 19.6683C13.2718 20.4067 13.1974 21.1433 13.1465 21.8808C13.1139 22.3525 13.0864 22.8258 13.0563 23.2975L13.1465 23.3808C13.3678 23.245 13.6174 23.14 13.8045 22.9642C14.4716 22.3508 15.1128 21.7133 15.7883 21.0658Z" fill="white"/>
</g>
<defs>
<clipPath id="clip0_3725_1206">
<rect width="32" height="32" fill="white"/>
</clipPath>
</defs>
</svg>
