<svg width="32" height="32" viewBox="0 0 32 32" fill="none" xmlns="http://www.w3.org/2000/svg">
<g clip-path="url(#clip0_3725_1202)">
<path d="M0 16.7537V15.0665C0.0195666 14.9554 0.0414812 14.8458 0.0579171 14.7347C0.160446 14.0359 0.219929 13.3261 0.370983 12.639C1.21391 8.77324 3.21362 5.61487 6.37402 3.24844C10.2529 0.345967 14.6155 -0.613438 19.3615 0.378052C23.1888 1.1739 26.3014 3.18036 28.6807 6.27378C31.2502 9.61448 32.3193 13.4185 31.9178 17.6043C31.593 20.9841 30.2844 23.9719 28.0358 26.5254C25.5548 29.3425 22.4609 31.0947 18.7589 31.752C18.157 31.8592 17.5458 31.9195 16.9392 32.0009H15.1892C14.7352 31.95 14.2797 31.9101 13.8273 31.8444C11.5731 31.5427 9.41186 30.7524 7.49479 29.5288C7.40837 29.4657 7.30753 29.4252 7.20146 29.4109C7.09538 29.3967 6.98744 29.4093 6.88744 29.4474C5.05992 30.0429 3.22771 30.6212 1.39706 31.2097C1.29609 31.2418 1.19513 31.2715 1.05268 31.3146C1.69212 29.4122 2.30495 27.5701 2.93108 25.7326C3.01482 25.4854 3.00934 25.3015 2.84733 25.0761C1.52043 23.1908 0.633294 21.032 0.251235 18.7586C0.136966 18.0957 0.0821797 17.422 0 16.7537ZM21.2258 25.0299L21.2438 24.9564C21.4312 24.9543 21.6183 24.9421 21.8042 24.9196C22.0618 24.8836 22.3158 24.8255 22.5634 24.7459C24.8151 23.9516 25.5829 22.8724 25.644 20.7736C25.6534 20.4551 25.5344 20.2391 25.244 20.1014C24.0528 19.5333 22.8679 18.9495 21.672 18.3916C21.0458 18.1012 20.6882 18.221 20.2741 18.7828C19.9712 19.1937 19.673 19.6068 19.3584 20.0083C18.8661 20.6343 18.5233 20.7204 17.7892 20.4207C15.1109 19.329 13.1362 17.447 11.6554 14.9984C11.4559 14.6674 11.4809 14.3677 11.7282 14.0821C12.0147 13.7518 12.298 13.4177 12.5978 13.1C13.0932 12.5764 13.2145 12.0419 12.8842 11.3478C12.3363 10.2045 11.8879 9.01661 11.3752 7.85766C11.297 7.6855 11.1232 7.47812 10.9565 7.43821C10.1167 7.23553 9.24013 7.19014 8.53965 7.76532C6.98449 9.04165 6.50472 10.7476 6.79744 12.6954C6.95397 13.7362 7.37113 14.6956 7.92526 15.583C9.13488 17.5434 10.608 19.3283 12.3035 20.8879C14.2672 22.6815 16.5729 23.8318 19.1033 24.5659C19.8014 24.7607 20.5175 24.8758 21.2258 25.0299Z" fill="white"/>
</g>
<defs>
<clipPath id="clip0_3725_1202">
<rect width="32" height="32" fill="white"/>
</clipPath>
</defs>
</svg>
