<svg width="448" height="225" viewBox="0 0 448 225" fill="none" xmlns="http://www.w3.org/2000/svg">
<path d="M1.51705 23V5.54545H13.2784V8.58807H5.20739V12.7472H12.6733V15.7898H5.20739V19.9574H13.3125V23H1.51705ZM19.1783 9.90909L21.5817 14.4858L24.0447 9.90909H27.7692L23.9766 16.4545L27.8714 23H24.1641L21.5817 18.4744L19.0419 23H15.2919L19.1783 16.4545L15.4283 9.90909H19.1783ZM35.3714 23.2557C34.0305 23.2557 32.8771 22.9716 31.9112 22.4034C30.951 21.8295 30.2124 21.0341 29.6953 20.017C29.1839 19 28.9283 17.8295 28.9283 16.5057C28.9283 15.1648 29.1868 13.9886 29.7038 12.9773C30.2266 11.9602 30.968 11.1676 31.9283 10.5994C32.8885 10.0256 34.0305 9.73864 35.3544 9.73864C36.4964 9.73864 37.4964 9.94602 38.3544 10.3608C39.2124 10.7756 39.8913 11.358 40.3913 12.108C40.8913 12.858 41.1669 13.7386 41.218 14.75H37.7919C37.6953 14.0966 37.4396 13.571 37.0249 13.1733C36.6158 12.7699 36.0788 12.5682 35.4141 12.5682C34.8516 12.5682 34.3601 12.7216 33.9396 13.0284C33.5249 13.3295 33.201 13.7699 32.968 14.3494C32.7351 14.929 32.6186 15.6307 32.6186 16.4545C32.6186 17.2898 32.7322 18 32.9595 18.5852C33.1925 19.1705 33.5192 19.6165 33.9396 19.9233C34.3601 20.2301 34.8516 20.3835 35.4141 20.3835C35.8288 20.3835 36.201 20.2983 36.5305 20.1278C36.8658 19.9574 37.1413 19.7102 37.3572 19.3864C37.5788 19.0568 37.7237 18.6619 37.7919 18.2017H41.218C41.1612 19.2017 40.8885 20.0824 40.3999 20.8438C39.9169 21.5994 39.2493 22.1903 38.397 22.6165C37.5447 23.0426 36.5362 23.2557 35.3714 23.2557ZM49.5085 23.2557C48.1619 23.2557 47.0028 22.983 46.0312 22.4375C45.0653 21.8864 44.321 21.108 43.7983 20.1023C43.2756 19.0909 43.0142 17.8949 43.0142 16.5142C43.0142 15.1676 43.2756 13.9858 43.7983 12.9688C44.321 11.9517 45.0568 11.1591 46.0057 10.5909C46.9602 10.0227 48.0795 9.73864 49.3636 9.73864C50.2273 9.73864 51.0313 9.87784 51.7756 10.1562C52.5256 10.429 53.179 10.8409 53.7358 11.392C54.2983 11.9432 54.7358 12.6364 55.0483 13.4716C55.3608 14.3011 55.517 15.2727 55.517 16.3864V17.3835H44.4631V15.1335H52.0994C52.0994 14.6108 51.9858 14.1477 51.7585 13.7443C51.5313 13.3409 51.2159 13.0256 50.8125 12.7983C50.4148 12.5653 49.9517 12.4489 49.4233 12.4489C48.8722 12.4489 48.3835 12.5767 47.9574 12.8324C47.5369 13.0824 47.2074 13.4205 46.9688 13.8466C46.7301 14.267 46.608 14.7358 46.6023 15.2528V17.392C46.6023 18.0398 46.7216 18.5994 46.9602 19.071C47.2045 19.5426 47.5483 19.9062 47.9915 20.1619C48.4347 20.4176 48.9602 20.5455 49.5682 20.5455C49.9716 20.5455 50.3409 20.4886 50.6761 20.375C51.0114 20.2614 51.2983 20.0909 51.5369 19.8636C51.7756 19.6364 51.9574 19.358 52.0824 19.0284L55.4403 19.25C55.2699 20.0568 54.9205 20.7614 54.392 21.3636C53.8693 21.9602 53.1932 22.4261 52.3636 22.7614C51.5398 23.0909 50.5881 23.2557 49.5085 23.2557ZM61.517 5.54545V23H57.8864V5.54545H61.517Z" fill="white"/>
<path d="M12 55.5C6.486 55.5 2 59.986 2 65.5C2 71.014 6.486 75.5 12 75.5C17.514 75.5 22 71.014 22 65.5C22 59.986 17.514 55.5 12 55.5ZM12 73.5C7.589 73.5 4 69.911 4 65.5C4 61.089 7.589 57.5 12 57.5C16.411 57.5 20 61.089 20 65.5C20 69.911 16.411 73.5 12 73.5ZM13 69.5C13 70.052 12.552 70.5 12 70.5C11.448 70.5 11 70.052 11 69.5C11 68.948 11.448 68.5 12 68.5C12.552 68.5 13 68.948 13 69.5ZM13 61.5V65.5C13 66.053 12.552 66.5 12 66.5C11.448 66.5 11 66.053 11 65.5V61.5C11 60.947 11.448 60.5 12 60.5C12.552 60.5 13 60.947 13 61.5Z" fill="white" fill-opacity="0.8"/>
<path d="M32.4474 75.1641V70.3253H33.3104C33.6044 70.0781 33.8793 69.7266 34.1349 69.2706C34.3906 68.8146 34.608 68.1989 34.7869 67.4233C34.9659 66.6477 35.0895 65.6527 35.1577 64.4382L35.4645 58.9091H43.5376V70.3253H45.0206V75.1449H43.1286V72H34.3395V75.1641H32.4474ZM35.6371 70.3253H41.6456V60.6094H37.2543L37.0497 64.4382C36.9943 65.3629 36.9027 66.1939 36.7749 66.9311C36.6513 67.6683 36.4915 68.3203 36.2955 68.8871C36.1037 69.4496 35.8842 69.929 35.6371 70.3253ZM51.1665 72.1982C50.2461 72.1982 49.4428 71.9872 48.7567 71.5653C48.0707 71.1435 47.538 70.5533 47.1587 69.7947C46.7795 69.0362 46.5898 68.1499 46.5898 67.1357C46.5898 66.1172 46.7795 65.2266 47.1587 64.4638C47.538 63.701 48.0707 63.1087 48.7567 62.6868C49.4428 62.2649 50.2461 62.054 51.1665 62.054C52.087 62.054 52.8903 62.2649 53.5763 62.6868C54.2624 63.1087 54.7951 63.701 55.1744 64.4638C55.5536 65.2266 55.7433 66.1172 55.7433 67.1357C55.7433 68.1499 55.5536 69.0362 55.1744 69.7947C54.7951 70.5533 54.2624 71.1435 53.5763 71.5653C52.8903 71.9872 52.087 72.1982 51.1665 72.1982ZM51.1729 70.5938C51.7695 70.5938 52.2638 70.4361 52.6559 70.1207C53.0479 69.8054 53.3377 69.3857 53.5252 68.8615C53.717 68.3374 53.8129 67.7599 53.8129 67.1293C53.8129 66.5028 53.717 65.9276 53.5252 65.4034C53.3377 64.875 53.0479 64.451 52.6559 64.1314C52.2638 63.8118 51.7695 63.652 51.1729 63.652C50.5721 63.652 50.0735 63.8118 49.6772 64.1314C49.2852 64.451 48.9933 64.875 48.8015 65.4034C48.614 65.9276 48.5202 66.5028 48.5202 67.1293C48.5202 67.7599 48.614 68.3374 48.8015 68.8615C48.9933 69.3857 49.2852 69.8054 49.6772 70.1207C50.0735 70.4361 50.5721 70.5938 51.1729 70.5938ZM57.1032 72L57.0968 70.3445H57.4483C57.7211 70.3445 57.949 70.2869 58.1323 70.1719C58.3198 70.0526 58.4732 69.8523 58.5925 69.571C58.7118 69.2898 58.8034 68.902 58.8674 68.4077C58.9313 67.9091 58.9782 67.2827 59.008 66.5284L59.1806 62.1818H66.0328V72H64.16V63.831H60.9512L60.7978 67.1676C60.7594 67.9773 60.6763 68.6847 60.5485 69.2898C60.4249 69.8949 60.2438 70.3999 60.0051 70.8047C59.7665 71.2053 59.4597 71.5057 59.0847 71.706C58.7097 71.902 58.2537 72 57.7168 72H57.1032ZM74.8587 62.1818V63.831H70.4673V72H68.5817V62.1818H74.8587ZM80.5572 72.1982C79.6367 72.1982 78.8335 71.9872 78.1474 71.5653C77.4613 71.1435 76.9286 70.5533 76.5494 69.7947C76.1701 69.0362 75.9805 68.1499 75.9805 67.1357C75.9805 66.1172 76.1701 65.2266 76.5494 64.4638C76.9286 63.701 77.4613 63.1087 78.1474 62.6868C78.8335 62.2649 79.6367 62.054 80.5572 62.054C81.4776 62.054 82.2809 62.2649 82.967 62.6868C83.6531 63.1087 84.1857 63.701 84.565 64.4638C84.9442 65.2266 85.1339 66.1172 85.1339 67.1357C85.1339 68.1499 84.9442 69.0362 84.565 69.7947C84.1857 70.5533 83.6531 71.1435 82.967 71.5653C82.2809 71.9872 81.4776 72.1982 80.5572 72.1982ZM80.5636 70.5938C81.1602 70.5938 81.6545 70.4361 82.0465 70.1207C82.4386 69.8054 82.7283 69.3857 82.9158 68.8615C83.1076 68.3374 83.2035 67.7599 83.2035 67.1293C83.2035 66.5028 83.1076 65.9276 82.9158 65.4034C82.7283 64.875 82.4386 64.451 82.0465 64.1314C81.6545 63.8118 81.1602 63.652 80.5636 63.652C79.9627 63.652 79.4641 63.8118 79.0678 64.1314C78.6758 64.451 78.3839 64.875 78.1921 65.4034C78.0046 65.9276 77.9109 66.5028 77.9109 67.1293C77.9109 67.7599 78.0046 68.3374 78.1921 68.8615C78.3839 69.3857 78.6758 69.8054 79.0678 70.1207C79.4641 70.4361 79.9627 70.5938 80.5636 70.5938ZM91.4988 72.1982C90.5314 72.1982 89.6983 71.9915 88.9995 71.5781C88.3049 71.1605 87.7679 70.5746 87.3887 69.8203C87.0137 69.0618 86.8262 68.1733 86.8262 67.1548C86.8262 66.1491 87.0137 65.2628 87.3887 64.4957C87.7679 63.7287 88.2963 63.13 88.9739 62.6996C89.6557 62.2692 90.4526 62.054 91.3645 62.054C91.9185 62.054 92.4554 62.1456 92.9753 62.3288C93.4952 62.5121 93.9618 62.7997 94.3752 63.1918C94.7885 63.5838 95.1145 64.093 95.3532 64.7195C95.5918 65.3416 95.7111 66.098 95.7111 66.9886V67.6662H87.9064V66.2344H93.8382C93.8382 65.7315 93.736 65.2862 93.5314 64.8984C93.3269 64.5064 93.0392 64.1974 92.6685 63.9716C92.302 63.7457 91.8716 63.6328 91.3773 63.6328C90.8404 63.6328 90.3716 63.7649 89.9711 64.0291C89.5748 64.2891 89.2679 64.63 89.0506 65.0518C88.8375 65.4695 88.731 65.9233 88.731 66.4134V67.532C88.731 68.1882 88.8461 68.7464 89.0762 69.2067C89.3105 69.6669 89.6365 70.0185 90.0542 70.2614C90.4718 70.5 90.9597 70.6193 91.5179 70.6193C91.8801 70.6193 92.2104 70.5682 92.5087 70.4659C92.807 70.3594 93.0648 70.2017 93.2821 69.9929C93.4995 69.7841 93.6657 69.5263 93.7807 69.2195L95.5897 69.5455C95.4448 70.0781 95.1848 70.5447 94.8098 70.9453C94.4391 71.3416 93.9725 71.6506 93.41 71.8722C92.8517 72.0895 92.2147 72.1982 91.4988 72.1982ZM102.595 72V62.1818H106.667C107.775 62.1818 108.653 62.4183 109.301 62.8913C109.948 63.3601 110.272 63.9972 110.272 64.8026C110.272 65.3778 110.089 65.8338 109.722 66.1705C109.356 66.5071 108.87 66.733 108.265 66.848C108.704 66.8991 109.107 67.0312 109.473 67.2443C109.84 67.4531 110.134 67.7344 110.355 68.0881C110.581 68.4418 110.694 68.8636 110.694 69.3537C110.694 69.8736 110.56 70.3338 110.291 70.7344C110.023 71.1307 109.633 71.4418 109.122 71.6676C108.615 71.8892 108.003 72 107.287 72H102.595ZM104.392 70.402H107.287C107.76 70.402 108.131 70.2891 108.399 70.0632C108.668 69.8374 108.802 69.5305 108.802 69.1428C108.802 68.6868 108.668 68.3288 108.399 68.0689C108.131 67.8047 107.76 67.6726 107.287 67.6726H104.392V70.402ZM104.392 66.2727H106.686C107.044 66.2727 107.351 66.2216 107.607 66.1193C107.867 66.017 108.065 65.8722 108.201 65.6847C108.342 65.4929 108.412 65.267 108.412 65.0071C108.412 64.6278 108.257 64.3317 107.945 64.1186C107.634 63.9055 107.208 63.799 106.667 63.799H104.392V66.2727ZM119.445 66.2663V67.9219H114.127V66.2663H119.445ZM114.664 62.1818V72H112.791V62.1818H114.664ZM120.781 62.1818V72H118.914V62.1818H120.781ZM127.569 72.1982C126.602 72.1982 125.769 71.9915 125.07 71.5781C124.375 71.1605 123.838 70.5746 123.459 69.8203C123.084 69.0618 122.896 68.1733 122.896 67.1548C122.896 66.1491 123.084 65.2628 123.459 64.4957C123.838 63.7287 124.367 63.13 125.044 62.6996C125.726 62.2692 126.523 62.054 127.435 62.054C127.989 62.054 128.526 62.1456 129.046 62.3288C129.566 62.5121 130.032 62.7997 130.445 63.1918C130.859 63.5838 131.185 64.093 131.423 64.7195C131.662 65.3416 131.781 66.098 131.781 66.9886V67.6662H123.977V66.2344H129.909C129.909 65.7315 129.806 65.2862 129.602 64.8984C129.397 64.5064 129.11 64.1974 128.739 63.9716C128.372 63.7457 127.942 63.6328 127.448 63.6328C126.911 63.6328 126.442 63.7649 126.041 64.0291C125.645 64.2891 125.338 64.63 125.121 65.0518C124.908 65.4695 124.801 65.9233 124.801 66.4134V67.532C124.801 68.1882 124.916 68.7464 125.146 69.2067C125.381 69.6669 125.707 70.0185 126.124 70.2614C126.542 70.5 127.03 70.6193 127.588 70.6193C127.95 70.6193 128.281 70.5682 128.579 70.4659C128.877 70.3594 129.135 70.2017 129.352 69.9929C129.57 69.7841 129.736 69.5263 129.851 69.2195L131.66 69.5455C131.515 70.0781 131.255 70.5447 130.88 70.9453C130.509 71.3416 130.043 71.6506 129.48 71.8722C128.922 72.0895 128.285 72.1982 127.569 72.1982ZM138.038 72.1982C137.087 72.1982 136.269 71.983 135.583 71.5526C134.901 71.1179 134.377 70.5192 134.011 69.7564C133.644 68.9936 133.461 68.12 133.461 67.1357C133.461 66.1385 133.648 65.2585 134.023 64.4957C134.398 63.7287 134.927 63.13 135.609 62.6996C136.29 62.2692 137.094 62.054 138.018 62.054C138.764 62.054 139.429 62.1925 140.013 62.4695C140.597 62.7422 141.067 63.1257 141.425 63.62C141.788 64.1143 142.003 64.6918 142.071 65.3523H140.211C140.109 64.892 139.874 64.4957 139.508 64.1634C139.146 63.831 138.66 63.6648 138.05 63.6648C137.518 63.6648 137.051 63.8054 136.651 64.0866C136.254 64.3636 135.945 64.7599 135.724 65.2756C135.502 65.7869 135.391 66.392 135.391 67.0909C135.391 67.8068 135.5 68.4247 135.717 68.9446C135.935 69.4645 136.241 69.8672 136.638 70.1527C137.038 70.4382 137.509 70.581 138.05 70.581C138.413 70.581 138.741 70.5149 139.035 70.3828C139.333 70.2464 139.582 70.0526 139.783 69.8011C139.987 69.5497 140.13 69.2472 140.211 68.8935H142.071C142.003 69.5284 141.796 70.0952 141.451 70.5938C141.106 71.0923 140.643 71.4844 140.064 71.7699C139.489 72.0554 138.813 72.1982 138.038 72.1982ZM148.346 72.1982C147.379 72.1982 146.546 71.9915 145.847 71.5781C145.153 71.1605 144.616 70.5746 144.236 69.8203C143.861 69.0618 143.674 68.1733 143.674 67.1548C143.674 66.1491 143.861 65.2628 144.236 64.4957C144.616 63.7287 145.144 63.13 145.822 62.6996C146.503 62.2692 147.3 62.054 148.212 62.054C148.766 62.054 149.303 62.1456 149.823 62.3288C150.343 62.5121 150.809 62.7997 151.223 63.1918C151.636 63.5838 151.962 64.093 152.201 64.7195C152.439 65.3416 152.559 66.098 152.559 66.9886V67.6662H144.754V66.2344H150.686C150.686 65.7315 150.584 65.2862 150.379 64.8984C150.175 64.5064 149.887 64.1974 149.516 63.9716C149.15 63.7457 148.719 63.6328 148.225 63.6328C147.688 63.6328 147.219 63.7649 146.819 64.0291C146.422 64.2891 146.116 64.63 145.898 65.0518C145.685 65.4695 145.579 65.9233 145.579 66.4134V67.532C145.579 68.1882 145.694 68.7464 145.924 69.2067C146.158 69.6669 146.484 70.0185 146.902 70.2614C147.319 70.5 147.807 70.6193 148.366 70.6193C148.728 70.6193 149.058 70.5682 149.356 70.4659C149.655 70.3594 149.912 70.2017 150.13 69.9929C150.347 69.7841 150.513 69.5263 150.628 69.2195L152.437 69.5455C152.292 70.0781 152.032 70.5447 151.657 70.9453C151.287 71.3416 150.82 71.6506 150.258 71.8722C149.699 72.0895 149.062 72.1982 148.346 72.1982ZM161.333 66.2663V67.9219H156.015V66.2663H161.333ZM156.552 62.1818V72H154.679V62.1818H156.552ZM162.669 62.1818V72H160.803V62.1818H162.669ZM167.099 69.3217L171.426 62.1818H173.485V72H171.612V64.8537L167.304 72H165.226V62.1818H167.099V69.3217ZM180.286 72.1982C179.319 72.1982 178.485 71.9915 177.787 71.5781C177.092 71.1605 176.555 70.5746 176.176 69.8203C175.801 69.0618 175.613 68.1733 175.613 67.1548C175.613 66.1491 175.801 65.2628 176.176 64.4957C176.555 63.7287 177.083 63.13 177.761 62.6996C178.443 62.2692 179.24 62.054 180.152 62.054C180.706 62.054 181.243 62.1456 181.762 62.3288C182.282 62.5121 182.749 62.7997 183.162 63.1918C183.576 63.5838 183.902 64.093 184.14 64.7195C184.379 65.3416 184.498 66.098 184.498 66.9886V67.6662H176.694V66.2344H182.625C182.625 65.7315 182.523 65.2862 182.319 64.8984C182.114 64.5064 181.826 64.1974 181.456 63.9716C181.089 63.7457 180.659 63.6328 180.164 63.6328C179.627 63.6328 179.159 63.7649 178.758 64.0291C178.362 64.2891 178.055 64.63 177.838 65.0518C177.625 65.4695 177.518 65.9233 177.518 66.4134V67.532C177.518 68.1882 177.633 68.7464 177.863 69.2067C178.098 69.6669 178.424 70.0185 178.841 70.2614C179.259 70.5 179.747 70.6193 180.305 70.6193C180.667 70.6193 180.998 70.5682 181.296 70.4659C181.594 70.3594 181.852 70.2017 182.069 69.9929C182.287 69.7841 182.453 69.5263 182.568 69.2195L184.377 69.5455C184.232 70.0781 183.972 70.5447 183.597 70.9453C183.226 71.3416 182.76 71.6506 182.197 71.8722C181.639 72.0895 181.002 72.1982 180.286 72.1982ZM190.424 74.8317V70.3445H191.223C191.427 70.157 191.6 69.9332 191.74 69.6733C191.885 69.4134 192.007 69.1044 192.105 68.7464C192.207 68.3885 192.292 67.9709 192.36 67.4936C192.429 67.0121 192.488 66.4624 192.539 65.8445L192.846 62.1818H199.52V70.3445H201.028V74.8317H199.162V72H192.316V74.8317H190.424ZM193.268 70.3445H197.653V63.8182H194.559L194.355 65.8445C194.257 66.8757 194.133 67.7706 193.984 68.5291C193.835 69.2834 193.596 69.8885 193.268 70.3445ZM205.753 72.2173C205.131 72.2173 204.569 72.1023 204.066 71.8722C203.563 71.6378 203.165 71.299 202.871 70.8558C202.581 70.4126 202.436 69.8693 202.436 69.2259C202.436 68.6719 202.542 68.2159 202.756 67.858C202.969 67.5 203.256 67.2166 203.618 67.0078C203.981 66.799 204.385 66.6413 204.833 66.5348C205.28 66.4283 205.736 66.3473 206.201 66.2919C206.789 66.2237 207.266 66.1683 207.633 66.1257C207.999 66.0788 208.265 66.0043 208.432 65.902C208.598 65.7997 208.681 65.6335 208.681 65.4034V65.3587C208.681 64.8004 208.523 64.3679 208.208 64.0611C207.897 63.7543 207.432 63.6009 206.814 63.6009C206.171 63.6009 205.664 63.7436 205.293 64.0291C204.927 64.3104 204.673 64.6236 204.532 64.9688L202.736 64.5597C202.949 63.9631 203.26 63.4815 203.67 63.1151C204.083 62.7443 204.558 62.4759 205.095 62.3097C205.632 62.1392 206.197 62.054 206.789 62.054C207.181 62.054 207.596 62.1009 208.035 62.1946C208.479 62.2841 208.892 62.4503 209.275 62.6932C209.663 62.9361 209.981 63.2834 210.228 63.7351C210.475 64.1825 210.599 64.7642 210.599 65.4801V72H208.732V70.6577H208.655C208.532 70.9048 208.346 71.1477 208.099 71.3864C207.852 71.625 207.535 71.8232 207.147 71.9808C206.759 72.1385 206.295 72.2173 205.753 72.2173ZM206.169 70.6832C206.697 70.6832 207.149 70.5788 207.524 70.37C207.903 70.1612 208.191 69.8885 208.387 69.5518C208.587 69.2109 208.687 68.8466 208.687 68.4588V67.1932C208.619 67.2614 208.487 67.3253 208.291 67.3849C208.099 67.4403 207.88 67.4893 207.633 67.532C207.385 67.5703 207.145 67.6065 206.91 67.6406C206.676 67.6705 206.48 67.696 206.322 67.7173C205.952 67.7642 205.613 67.843 205.306 67.9538C205.003 68.0646 204.76 68.2244 204.577 68.4332C204.398 68.6378 204.309 68.9105 204.309 69.2514C204.309 69.7244 204.483 70.0824 204.833 70.3253C205.182 70.5639 205.628 70.6832 206.169 70.6832ZM219.798 66.2663V67.9219H214.48V66.2663H219.798ZM215.017 62.1818V72H213.144V62.1818H215.017ZM221.134 62.1818V72H219.268V62.1818H221.134ZM230.345 66.2663V67.9219H225.027V66.2663H230.345ZM225.564 62.1818V72H223.691V62.1818H225.564ZM231.681 62.1818V72H229.815V62.1818H231.681ZM235.676 65.5568H238.527C239.729 65.5568 240.653 65.8551 241.301 66.4517C241.949 67.0483 242.273 67.8175 242.273 68.7592C242.273 69.3729 242.128 69.9247 241.838 70.4148C241.548 70.9048 241.124 71.2926 240.566 71.5781C240.008 71.8594 239.328 72 238.527 72H234.238V62.1818H236.111V70.3509H238.527C239.077 70.3509 239.528 70.2081 239.882 69.9226C240.236 69.6328 240.413 69.2642 240.413 68.8168C240.413 68.3437 240.236 67.9581 239.882 67.6598C239.528 67.3572 239.077 67.206 238.527 67.206H235.676V65.5568ZM243.666 72V62.1818H245.577V72H243.666ZM249.651 62.1818L251.818 66.0043L254.004 62.1818H256.094L253.032 67.0909L256.119 72H254.029L251.818 68.331L249.612 72H247.516L250.571 67.0909L247.554 62.1818H249.651Z" fill="white" fill-opacity="0.8"/>
<path d="M12 104.5C6.486 104.5 2 108.986 2 114.5C2 120.014 6.486 124.5 12 124.5C17.514 124.5 22 120.014 22 114.5C22 108.986 17.514 104.5 12 104.5ZM12 122.5C7.589 122.5 4 118.911 4 114.5C4 110.089 7.589 106.5 12 106.5C16.411 106.5 20 110.089 20 114.5C20 118.911 16.411 122.5 12 122.5ZM13 118.5C13 119.052 12.552 119.5 12 119.5C11.448 119.5 11 119.052 11 118.5C11 117.948 11.448 117.5 12 117.5C12.552 117.5 13 117.948 13 118.5ZM13 110.5V114.5C13 115.053 12.552 115.5 12 115.5C11.448 115.5 11 115.053 11 114.5V110.5C11 109.947 11.448 109.5 12 109.5C12.552 109.5 13 109.947 13 110.5Z" fill="white" fill-opacity="0.8"/>
<path d="M33.4382 121V107.909H38.1044C39.1229 107.909 39.9666 108.094 40.6357 108.465C41.3047 108.836 41.8054 109.343 42.1378 109.987C42.4702 110.626 42.6364 111.346 42.6364 112.147C42.6364 112.952 42.468 113.677 42.1314 114.32C41.799 114.96 41.2962 115.467 40.6229 115.842C39.9538 116.212 39.1122 116.398 38.098 116.398H34.8892V114.723H37.919C38.5625 114.723 39.0845 114.612 39.4851 114.391C39.8857 114.165 40.1797 113.858 40.3672 113.47C40.5547 113.082 40.6484 112.641 40.6484 112.147C40.6484 111.653 40.5547 111.214 40.3672 110.83C40.1797 110.447 39.8835 110.146 39.4787 109.929C39.0781 109.712 38.5497 109.603 37.8935 109.603H35.4134V121H33.4382ZM46.0066 124.682C45.7211 124.682 45.4611 124.658 45.2267 124.612C44.9924 124.569 44.8176 124.522 44.7026 124.471L45.1628 122.905C45.5123 122.999 45.8233 123.039 46.0961 123.026C46.3688 123.013 46.6096 122.911 46.8184 122.719C47.0314 122.528 47.2189 122.214 47.3809 121.78L47.6174 121.128L44.025 111.182H46.0705L48.557 118.801H48.6593L51.1458 111.182H53.1976L49.1515 122.31C48.964 122.822 48.7253 123.254 48.4355 123.608C48.1458 123.966 47.8006 124.234 47.4 124.413C46.9995 124.592 46.535 124.682 46.0066 124.682ZM62.5939 111.182V121H60.7275V111.182H62.5939ZM61.7821 115.739V117.388C61.4881 117.508 61.177 117.614 60.8489 117.708C60.5208 117.798 60.1756 117.868 59.8134 117.919C59.4512 117.97 59.074 117.996 58.682 117.996C57.4675 117.996 56.5023 117.7 55.7864 117.107C55.0705 116.511 54.7125 115.599 54.7125 114.371V111.163H56.5726V114.371C56.5726 114.836 56.6578 115.213 56.8283 115.503C56.9988 115.793 57.2417 116.006 57.557 116.142C57.8723 116.278 58.2473 116.347 58.682 116.347C59.2573 116.347 59.7878 116.293 60.2736 116.187C60.7637 116.076 61.2665 115.927 61.7821 115.739ZM71.7905 115.266V116.922H66.4723V115.266H71.7905ZM67.0092 111.182V121H65.1364V111.182H67.0092ZM73.1264 111.182V121H71.2599V111.182H73.1264ZM79.8189 121.198C78.8984 121.198 78.0952 120.987 77.4091 120.565C76.723 120.143 76.1903 119.553 75.8111 118.795C75.4318 118.036 75.2422 117.15 75.2422 116.136C75.2422 115.117 75.4318 114.227 75.8111 113.464C76.1903 112.701 76.723 112.109 77.4091 111.687C78.0952 111.265 78.8984 111.054 79.8189 111.054C80.7393 111.054 81.5426 111.265 82.2287 111.687C82.9148 112.109 83.4474 112.701 83.8267 113.464C84.206 114.227 84.3956 115.117 84.3956 116.136C84.3956 117.15 84.206 118.036 83.8267 118.795C83.4474 119.553 82.9148 120.143 82.2287 120.565C81.5426 120.987 80.7393 121.198 79.8189 121.198ZM79.8253 119.594C80.4219 119.594 80.9162 119.436 81.3082 119.121C81.7003 118.805 81.9901 118.386 82.1776 117.862C82.3693 117.337 82.4652 116.76 82.4652 116.129C82.4652 115.503 82.3693 114.928 82.1776 114.403C81.9901 113.875 81.7003 113.451 81.3082 113.131C80.9162 112.812 80.4219 112.652 79.8253 112.652C79.2244 112.652 78.7259 112.812 78.3295 113.131C77.9375 113.451 77.6456 113.875 77.4538 114.403C77.2663 114.928 77.1726 115.503 77.1726 116.129C77.1726 116.76 77.2663 117.337 77.4538 117.862C77.6456 118.386 77.9375 118.805 78.3295 119.121C78.7259 119.436 79.2244 119.594 79.8253 119.594ZM88.4018 118.322L92.7292 111.182H94.7875V121H92.9146V113.854L88.6064 121H86.5289V111.182H88.4018V118.322ZM91.911 107.858H93.4835C93.4835 108.578 93.2278 109.164 92.7164 109.616C92.2093 110.063 91.5233 110.287 90.6582 110.287C89.7974 110.287 89.1135 110.063 88.6064 109.616C88.0993 109.164 87.8457 108.578 87.8457 107.858H89.4118C89.4118 108.178 89.5055 108.461 89.693 108.708C89.8805 108.951 90.2022 109.072 90.6582 109.072C91.1056 109.072 91.4252 108.951 91.617 108.708C91.813 108.465 91.911 108.182 91.911 107.858ZM102.121 121V111.182H106.192C107.3 111.182 108.178 111.418 108.826 111.891C109.474 112.36 109.798 112.997 109.798 113.803C109.798 114.378 109.614 114.834 109.248 115.17C108.881 115.507 108.396 115.733 107.79 115.848C108.229 115.899 108.632 116.031 108.999 116.244C109.365 116.453 109.659 116.734 109.881 117.088C110.107 117.442 110.219 117.864 110.219 118.354C110.219 118.874 110.085 119.334 109.817 119.734C109.548 120.131 109.158 120.442 108.647 120.668C108.14 120.889 107.528 121 106.812 121H102.121ZM103.917 119.402H106.812C107.286 119.402 107.656 119.289 107.925 119.063C108.193 118.837 108.327 118.531 108.327 118.143C108.327 117.687 108.193 117.329 107.925 117.069C107.656 116.805 107.286 116.673 106.812 116.673H103.917V119.402ZM103.917 115.273H106.212C106.57 115.273 106.876 115.222 107.132 115.119C107.392 115.017 107.59 114.872 107.727 114.685C107.867 114.493 107.938 114.267 107.938 114.007C107.938 113.628 107.782 113.332 107.471 113.119C107.16 112.906 106.734 112.799 106.192 112.799H103.917V115.273ZM112.316 121V111.182H116.388C117.496 111.182 118.374 111.418 119.021 111.891C119.669 112.36 119.993 112.997 119.993 113.803C119.993 114.378 119.81 114.834 119.443 115.17C119.077 115.507 118.591 115.733 117.986 115.848C118.425 115.899 118.827 116.031 119.194 116.244C119.56 116.453 119.854 116.734 120.076 117.088C120.302 117.442 120.415 117.864 120.415 118.354C120.415 118.874 120.281 119.334 120.012 119.734C119.744 120.131 119.354 120.442 118.842 120.668C118.335 120.889 117.724 121 117.008 121H112.316ZM114.112 119.402H117.008C117.481 119.402 117.852 119.289 118.12 119.063C118.388 118.837 118.523 118.531 118.523 118.143C118.523 117.687 118.388 117.329 118.12 117.069C117.852 116.805 117.481 116.673 117.008 116.673H114.112V119.402ZM114.112 115.273H116.407C116.765 115.273 117.072 115.222 117.327 115.119C117.587 115.017 117.786 114.872 117.922 114.685C118.062 114.493 118.133 114.267 118.133 114.007C118.133 113.628 117.977 113.332 117.666 113.119C117.355 112.906 116.929 112.799 116.388 112.799H114.112V115.273ZM126.647 121.198C125.727 121.198 124.923 120.987 124.237 120.565C123.551 120.143 123.018 119.553 122.639 118.795C122.26 118.036 122.07 117.15 122.07 116.136C122.07 115.117 122.26 114.227 122.639 113.464C123.018 112.701 123.551 112.109 124.237 111.687C124.923 111.265 125.727 111.054 126.647 111.054C127.567 111.054 128.371 111.265 129.057 111.687C129.743 112.109 130.276 112.701 130.655 113.464C131.034 114.227 131.224 115.117 131.224 116.136C131.224 117.15 131.034 118.036 130.655 118.795C130.276 119.553 129.743 120.143 129.057 120.565C128.371 120.987 127.567 121.198 126.647 121.198ZM126.653 119.594C127.25 119.594 127.744 119.436 128.136 119.121C128.528 118.805 128.818 118.386 129.006 117.862C129.197 117.337 129.293 116.76 129.293 116.129C129.293 115.503 129.197 114.928 129.006 114.403C128.818 113.875 128.528 113.451 128.136 113.131C127.744 112.812 127.25 112.652 126.653 112.652C126.053 112.652 125.554 112.812 125.158 113.131C124.766 113.451 124.474 113.875 124.282 114.403C124.094 114.928 124.001 115.503 124.001 116.129C124.001 116.76 124.094 117.337 124.282 117.862C124.474 118.386 124.766 118.805 125.158 119.121C125.554 119.436 126.053 119.594 126.653 119.594ZM132.398 123.832V119.344H133.197C133.402 119.157 133.574 118.933 133.715 118.673C133.86 118.413 133.981 118.104 134.079 117.746C134.182 117.388 134.267 116.971 134.335 116.494C134.403 116.012 134.463 115.462 134.514 114.844L134.821 111.182H141.494V119.344H143.003V123.832H141.136V121H134.29V123.832H132.398ZM135.243 119.344H139.628V112.818H136.534L136.329 114.844C136.231 115.876 136.108 116.771 135.959 117.529C135.809 118.283 135.571 118.888 135.243 119.344ZM148.676 123.832V119.344H149.475C149.679 119.157 149.852 118.933 149.992 118.673C150.137 118.413 150.259 118.104 150.357 117.746C150.459 117.388 150.544 116.971 150.612 116.494C150.681 116.012 150.74 115.462 150.791 114.844L151.098 111.182H157.771V119.344H159.28V123.832H157.414V121H150.568V123.832H148.676ZM151.52 119.344H155.905V112.818H152.811L152.607 114.844C152.509 115.876 152.385 116.771 152.236 117.529C152.087 118.283 151.848 118.888 151.52 119.344ZM164.005 121.217C163.383 121.217 162.821 121.102 162.318 120.872C161.815 120.638 161.417 120.299 161.123 119.856C160.833 119.413 160.688 118.869 160.688 118.226C160.688 117.672 160.794 117.216 161.007 116.858C161.221 116.5 161.508 116.217 161.87 116.008C162.233 115.799 162.637 115.641 163.085 115.535C163.532 115.428 163.988 115.347 164.453 115.292C165.041 115.224 165.518 115.168 165.885 115.126C166.251 115.079 166.517 115.004 166.684 114.902C166.85 114.8 166.933 114.634 166.933 114.403V114.359C166.933 113.8 166.775 113.368 166.46 113.061C166.149 112.754 165.684 112.601 165.066 112.601C164.423 112.601 163.916 112.744 163.545 113.029C163.179 113.31 162.925 113.624 162.784 113.969L160.988 113.56C161.201 112.963 161.512 112.482 161.922 112.115C162.335 111.744 162.81 111.476 163.347 111.31C163.884 111.139 164.449 111.054 165.041 111.054C165.433 111.054 165.848 111.101 166.287 111.195C166.73 111.284 167.144 111.45 167.527 111.693C167.915 111.936 168.233 112.283 168.48 112.735C168.727 113.183 168.85 113.764 168.85 114.48V121H166.984V119.658H166.907C166.784 119.905 166.598 120.148 166.351 120.386C166.104 120.625 165.787 120.823 165.399 120.981C165.011 121.138 164.547 121.217 164.005 121.217ZM164.421 119.683C164.949 119.683 165.401 119.579 165.776 119.37C166.155 119.161 166.443 118.888 166.639 118.552C166.839 118.211 166.939 117.847 166.939 117.459V116.193C166.871 116.261 166.739 116.325 166.543 116.385C166.351 116.44 166.132 116.489 165.885 116.532C165.637 116.57 165.397 116.607 165.162 116.641C164.928 116.67 164.732 116.696 164.574 116.717C164.203 116.764 163.865 116.843 163.558 116.954C163.255 117.065 163.012 117.224 162.829 117.433C162.65 117.638 162.561 117.911 162.561 118.251C162.561 118.724 162.735 119.082 163.085 119.325C163.434 119.564 163.88 119.683 164.421 119.683ZM178.05 115.266V116.922H172.732V115.266H178.05ZM173.269 111.182V121H171.396V111.182H173.269ZM179.386 111.182V121H177.52V111.182H179.386ZM188.597 115.266V116.922H183.279V115.266H188.597ZM183.816 111.182V121H181.943V111.182H183.816ZM189.933 111.182V121H188.067V111.182H189.933ZM193.928 114.557H196.779C197.981 114.557 198.905 114.855 199.553 115.452C200.201 116.048 200.525 116.817 200.525 117.759C200.525 118.373 200.38 118.925 200.09 119.415C199.8 119.905 199.376 120.293 198.818 120.578C198.26 120.859 197.58 121 196.779 121H192.49V111.182H194.363V119.351H196.779C197.329 119.351 197.78 119.208 198.134 118.923C198.488 118.633 198.665 118.264 198.665 117.817C198.665 117.344 198.488 116.958 198.134 116.66C197.78 116.357 197.329 116.206 196.779 116.206H193.928V114.557ZM201.918 121V111.182H203.829V121H201.918ZM207.903 111.182L210.07 115.004L212.256 111.182H214.346L211.284 116.091L214.371 121H212.281L210.07 117.331L207.864 121H205.768L208.823 116.091L205.806 111.182H207.903ZM225.208 121.198C224.257 121.198 223.439 120.983 222.753 120.553C222.071 120.118 221.547 119.519 221.181 118.756C220.814 117.994 220.631 117.12 220.631 116.136C220.631 115.138 220.818 114.259 221.193 113.496C221.568 112.729 222.097 112.13 222.779 111.7C223.46 111.269 224.264 111.054 225.188 111.054C225.934 111.054 226.599 111.192 227.183 111.469C227.767 111.742 228.237 112.126 228.595 112.62C228.958 113.114 229.173 113.692 229.241 114.352H227.381C227.279 113.892 227.044 113.496 226.678 113.163C226.316 112.831 225.83 112.665 225.22 112.665C224.688 112.665 224.221 112.805 223.82 113.087C223.424 113.364 223.115 113.76 222.894 114.276C222.672 114.787 222.561 115.392 222.561 116.091C222.561 116.807 222.67 117.425 222.887 117.945C223.105 118.464 223.411 118.867 223.808 119.153C224.208 119.438 224.679 119.581 225.22 119.581C225.583 119.581 225.911 119.515 226.205 119.383C226.503 119.246 226.752 119.053 226.953 118.801C227.157 118.55 227.3 118.247 227.381 117.893H229.241C229.173 118.528 228.966 119.095 228.621 119.594C228.276 120.092 227.813 120.484 227.234 120.77C226.659 121.055 225.983 121.198 225.208 121.198ZM241.558 118.635L244.729 111.182H246.378L242.268 121H240.849L236.822 111.182H238.452L241.558 118.635ZM237.921 111.182V121H236.048V111.182H237.921ZM245.247 121V111.182H247.107V121H245.247ZM252.511 121.217C251.889 121.217 251.327 121.102 250.824 120.872C250.321 120.638 249.922 120.299 249.628 119.856C249.339 119.413 249.194 118.869 249.194 118.226C249.194 117.672 249.3 117.216 249.513 116.858C249.726 116.5 250.014 116.217 250.376 116.008C250.738 115.799 251.143 115.641 251.591 115.535C252.038 115.428 252.494 115.347 252.959 115.292C253.547 115.224 254.024 115.168 254.39 115.126C254.757 115.079 255.023 115.004 255.189 114.902C255.356 114.8 255.439 114.634 255.439 114.403V114.359C255.439 113.8 255.281 113.368 254.966 113.061C254.655 112.754 254.19 112.601 253.572 112.601C252.929 112.601 252.422 112.744 252.051 113.029C251.684 113.31 251.431 113.624 251.29 113.969L249.494 113.56C249.707 112.963 250.018 112.482 250.427 112.115C250.841 111.744 251.316 111.476 251.853 111.31C252.39 111.139 252.954 111.054 253.547 111.054C253.939 111.054 254.354 111.101 254.793 111.195C255.236 111.284 255.65 111.45 256.033 111.693C256.421 111.936 256.738 112.283 256.986 112.735C257.233 113.183 257.356 113.764 257.356 114.48V121H255.49V119.658H255.413C255.29 119.905 255.104 120.148 254.857 120.386C254.61 120.625 254.292 120.823 253.905 120.981C253.517 121.138 253.052 121.217 252.511 121.217ZM252.927 119.683C253.455 119.683 253.907 119.579 254.282 119.37C254.661 119.161 254.949 118.888 255.145 118.552C255.345 118.211 255.445 117.847 255.445 117.459V116.193C255.377 116.261 255.245 116.325 255.049 116.385C254.857 116.44 254.638 116.489 254.39 116.532C254.143 116.57 253.903 116.607 253.668 116.641C253.434 116.67 253.238 116.696 253.08 116.717C252.709 116.764 252.371 116.843 252.064 116.954C251.761 117.065 251.518 117.224 251.335 117.433C251.156 117.638 251.067 117.911 251.067 118.251C251.067 118.724 251.241 119.082 251.591 119.325C251.94 119.564 252.385 119.683 252.927 119.683ZM259.902 124.682V111.182H261.768V112.773H261.928C262.039 112.569 262.199 112.332 262.408 112.064C262.616 111.795 262.906 111.561 263.277 111.361C263.648 111.156 264.138 111.054 264.747 111.054C265.54 111.054 266.247 111.254 266.869 111.655C267.491 112.055 267.979 112.633 268.333 113.387C268.691 114.141 268.87 115.049 268.87 116.11C268.87 117.171 268.693 118.081 268.339 118.839C267.986 119.594 267.5 120.175 266.882 120.585C266.264 120.989 265.559 121.192 264.766 121.192C264.17 121.192 263.682 121.092 263.303 120.891C262.928 120.691 262.634 120.457 262.42 120.188C262.207 119.92 262.043 119.681 261.928 119.472H261.813V124.682H259.902ZM261.775 116.091C261.775 116.781 261.875 117.386 262.075 117.906C262.276 118.426 262.565 118.833 262.945 119.127C263.324 119.417 263.788 119.562 264.338 119.562C264.909 119.562 265.386 119.411 265.77 119.108C266.153 118.801 266.443 118.386 266.639 117.862C266.839 117.337 266.94 116.747 266.94 116.091C266.94 115.443 266.842 114.862 266.646 114.346C266.454 113.83 266.164 113.423 265.776 113.125C265.393 112.827 264.913 112.678 264.338 112.678C263.784 112.678 263.315 112.82 262.932 113.106C262.553 113.391 262.265 113.79 262.069 114.301C261.873 114.812 261.775 115.409 261.775 116.091ZM271.011 121V111.182H272.923V115.298H273.843L277.084 111.182H279.449L275.646 115.957L279.494 121H277.122L274.163 117.075H272.923V121H271.011ZM284.805 121.198C283.838 121.198 283.005 120.991 282.306 120.578C281.612 120.161 281.075 119.575 280.695 118.82C280.32 118.062 280.133 117.173 280.133 116.155C280.133 115.149 280.32 114.263 280.695 113.496C281.075 112.729 281.603 112.13 282.281 111.7C282.962 111.269 283.759 111.054 284.671 111.054C285.225 111.054 285.762 111.146 286.282 111.329C286.802 111.512 287.268 111.8 287.682 112.192C288.095 112.584 288.421 113.093 288.66 113.719C288.898 114.342 289.018 115.098 289.018 115.989V116.666H281.213V115.234H287.145C287.145 114.732 287.043 114.286 286.838 113.898C286.634 113.506 286.346 113.197 285.975 112.972C285.609 112.746 285.178 112.633 284.684 112.633C284.147 112.633 283.678 112.765 283.278 113.029C282.881 113.289 282.575 113.63 282.357 114.052C282.144 114.469 282.038 114.923 282.038 115.413V116.532C282.038 117.188 282.153 117.746 282.383 118.207C282.617 118.667 282.943 119.018 283.361 119.261C283.778 119.5 284.266 119.619 284.825 119.619C285.187 119.619 285.517 119.568 285.815 119.466C286.114 119.359 286.371 119.202 286.589 118.993C286.806 118.784 286.972 118.526 287.087 118.219L288.896 118.545C288.751 119.078 288.491 119.545 288.116 119.945C287.746 120.342 287.279 120.651 286.717 120.872C286.158 121.089 285.521 121.198 284.805 121.198ZM290.272 112.831V111.182H298.556V112.831H295.354V121H293.487V112.831H290.272ZM300.578 121V111.182H308.587V121H306.714V112.831H302.438V121H300.578ZM310.369 121L310.362 119.344H310.714C310.987 119.344 311.215 119.287 311.398 119.172C311.585 119.053 311.739 118.852 311.858 118.571C311.977 118.29 312.069 117.902 312.133 117.408C312.197 116.909 312.244 116.283 312.274 115.528L312.446 111.182H319.298V121H317.426V112.831H314.217L314.063 116.168C314.025 116.977 313.942 117.685 313.814 118.29C313.691 118.895 313.509 119.4 313.271 119.805C313.032 120.205 312.725 120.506 312.35 120.706C311.975 120.902 311.519 121 310.982 121H310.369ZM326.079 121.198C325.112 121.198 324.278 120.991 323.58 120.578C322.885 120.161 322.348 119.575 321.969 118.82C321.594 118.062 321.406 117.173 321.406 116.155C321.406 115.149 321.594 114.263 321.969 113.496C322.348 112.729 322.876 112.13 323.554 111.7C324.236 111.269 325.033 111.054 325.945 111.054C326.499 111.054 327.036 111.146 327.555 111.329C328.075 111.512 328.542 111.8 328.955 112.192C329.369 112.584 329.695 113.093 329.933 113.719C330.172 114.342 330.291 115.098 330.291 115.989V116.666H322.487V115.234H328.418C328.418 114.732 328.316 114.286 328.112 113.898C327.907 113.506 327.619 113.197 327.249 112.972C326.882 112.746 326.452 112.633 325.957 112.633C325.42 112.633 324.952 112.765 324.551 113.029C324.155 113.289 323.848 113.63 323.631 114.052C323.418 114.469 323.311 114.923 323.311 115.413V116.532C323.311 117.188 323.426 117.746 323.656 118.207C323.891 118.667 324.217 119.018 324.634 119.261C325.052 119.5 325.54 119.619 326.098 119.619C326.46 119.619 326.79 119.568 327.089 119.466C327.387 119.359 327.645 119.202 327.862 118.993C328.08 118.784 328.246 118.526 328.361 118.219L330.17 118.545C330.025 119.078 329.765 119.545 329.39 119.945C329.019 120.342 328.553 120.651 327.99 120.872C327.432 121.089 326.795 121.198 326.079 121.198ZM334.285 118.322L338.612 111.182H340.67V121H338.797V113.854L334.489 121H332.412V111.182H334.285V118.322ZM337.794 107.858H339.366C339.366 108.578 339.111 109.164 338.599 109.616C338.092 110.063 337.406 110.287 336.541 110.287C335.68 110.287 334.996 110.063 334.489 109.616C333.982 109.164 333.729 108.578 333.729 107.858H335.295C335.295 108.178 335.388 108.461 335.576 108.708C335.763 108.951 336.085 109.072 336.541 109.072C336.988 109.072 337.308 108.951 337.5 108.708C337.696 108.465 337.794 108.182 337.794 107.858ZM347.376 121.198C346.425 121.198 345.607 120.983 344.921 120.553C344.239 120.118 343.715 119.519 343.349 118.756C342.982 117.994 342.799 117.12 342.799 116.136C342.799 115.138 342.986 114.259 343.361 113.496C343.736 112.729 344.265 112.13 344.947 111.7C345.628 111.269 346.432 111.054 347.356 111.054C348.102 111.054 348.767 111.192 349.351 111.469C349.934 111.742 350.405 112.126 350.763 112.62C351.126 113.114 351.341 113.692 351.409 114.352H349.549C349.447 113.892 349.212 113.496 348.846 113.163C348.483 112.831 347.998 112.665 347.388 112.665C346.856 112.665 346.389 112.805 345.988 113.087C345.592 113.364 345.283 113.76 345.062 114.276C344.84 114.787 344.729 115.392 344.729 116.091C344.729 116.807 344.838 117.425 345.055 117.945C345.273 118.464 345.579 118.867 345.976 119.153C346.376 119.438 346.847 119.581 347.388 119.581C347.751 119.581 348.079 119.515 348.373 119.383C348.671 119.246 348.92 119.053 349.121 118.801C349.325 118.55 349.468 118.247 349.549 117.893H351.409C351.341 118.528 351.134 119.095 350.789 119.594C350.444 120.092 349.981 120.484 349.402 120.77C348.827 121.055 348.151 121.198 347.376 121.198ZM357.588 121.198C356.668 121.198 355.865 120.987 355.179 120.565C354.493 120.143 353.96 119.553 353.581 118.795C353.201 118.036 353.012 117.15 353.012 116.136C353.012 115.117 353.201 114.227 353.581 113.464C353.96 112.701 354.493 112.109 355.179 111.687C355.865 111.265 356.668 111.054 357.588 111.054C358.509 111.054 359.312 111.265 359.998 111.687C360.684 112.109 361.217 112.701 361.596 113.464C361.975 114.227 362.165 115.117 362.165 116.136C362.165 117.15 361.975 118.036 361.596 118.795C361.217 119.553 360.684 120.143 359.998 120.565C359.312 120.987 358.509 121.198 357.588 121.198ZM357.595 119.594C358.191 119.594 358.686 119.436 359.078 119.121C359.47 118.805 359.76 118.386 359.947 117.862C360.139 117.337 360.235 116.76 360.235 116.129C360.235 115.503 360.139 114.928 359.947 114.403C359.76 113.875 359.47 113.451 359.078 113.131C358.686 112.812 358.191 112.652 357.595 112.652C356.994 112.652 356.495 112.812 356.099 113.131C355.707 113.451 355.415 113.875 355.223 114.403C355.036 114.928 354.942 115.503 354.942 116.129C354.942 116.76 355.036 117.337 355.223 117.862C355.415 118.386 355.707 118.805 356.099 119.121C356.495 119.436 356.994 119.594 357.595 119.594ZM364.298 121V111.182H368.37C369.478 111.182 370.356 111.418 371.004 111.891C371.651 112.36 371.975 112.997 371.975 113.803C371.975 114.378 371.792 114.834 371.426 115.17C371.059 115.507 370.573 115.733 369.968 115.848C370.407 115.899 370.81 116.031 371.176 116.244C371.543 116.453 371.837 116.734 372.058 117.088C372.284 117.442 372.397 117.864 372.397 118.354C372.397 118.874 372.263 119.334 371.994 119.734C371.726 120.131 371.336 120.442 370.825 120.668C370.318 120.889 369.706 121 368.99 121H364.298ZM366.095 119.402H368.99C369.463 119.402 369.834 119.289 370.102 119.063C370.371 118.837 370.505 118.531 370.505 118.143C370.505 117.687 370.371 117.329 370.102 117.069C369.834 116.805 369.463 116.673 368.99 116.673H366.095V119.402ZM366.095 115.273H368.389C368.747 115.273 369.054 115.222 369.31 115.119C369.57 115.017 369.768 114.872 369.904 114.685C370.045 114.493 370.115 114.267 370.115 114.007C370.115 113.628 369.96 113.332 369.649 113.119C369.338 112.906 368.911 112.799 368.37 112.799H366.095V115.273Z" fill="white" fill-opacity="0.8"/>
<path d="M12 153.5C6.486 153.5 2 157.986 2 163.5C2 169.014 6.486 173.5 12 173.5C17.514 173.5 22 169.014 22 163.5C22 157.986 17.514 153.5 12 153.5ZM12 171.5C7.589 171.5 4 167.911 4 163.5C4 159.089 7.589 155.5 12 155.5C16.411 155.5 20 159.089 20 163.5C20 167.911 16.411 171.5 12 171.5ZM13 167.5C13 168.052 12.552 168.5 12 168.5C11.448 168.5 11 168.052 11 167.5C11 166.948 11.448 166.5 12 166.5C12.552 166.5 13 166.948 13 167.5ZM13 159.5V163.5C13 164.053 12.552 164.5 12 164.5C11.448 164.5 11 164.053 11 163.5V159.5C11 158.947 11.448 158.5 12 158.5C12.552 158.5 13 158.947 13 159.5Z" fill="white" fill-opacity="0.8"/>
<path d="M33.4382 170V156.909H35.4134V162.598H41.9396V156.909H43.9212V170H41.9396V164.292H35.4134V170H33.4382ZM50.8757 170.198C49.9084 170.198 49.0753 169.991 48.3764 169.578C47.6818 169.161 47.1449 168.575 46.7656 167.82C46.3906 167.062 46.2031 166.173 46.2031 165.155C46.2031 164.149 46.3906 163.263 46.7656 162.496C47.1449 161.729 47.6733 161.13 48.3509 160.7C49.0327 160.269 49.8295 160.054 50.7415 160.054C51.2955 160.054 51.8324 160.146 52.3523 160.329C52.8722 160.512 53.3388 160.8 53.7521 161.192C54.1655 161.584 54.4915 162.093 54.7301 162.719C54.9688 163.342 55.0881 164.098 55.0881 164.989V165.666H47.2834V164.234H53.2152C53.2152 163.732 53.1129 163.286 52.9084 162.898C52.7038 162.506 52.4162 162.197 52.0455 161.972C51.679 161.746 51.2486 161.633 50.7543 161.633C50.2173 161.633 49.7486 161.765 49.348 162.029C48.9517 162.289 48.6449 162.63 48.4276 163.052C48.2145 163.469 48.108 163.923 48.108 164.413V165.532C48.108 166.188 48.223 166.746 48.4531 167.207C48.6875 167.667 49.0135 168.018 49.4311 168.261C49.8487 168.5 50.3366 168.619 50.8949 168.619C51.2571 168.619 51.5874 168.568 51.8857 168.466C52.1839 168.359 52.4418 168.202 52.6591 167.993C52.8764 167.784 53.0426 167.526 53.1577 167.219L54.9666 167.545C54.8217 168.078 54.5618 168.545 54.1868 168.945C53.8161 169.342 53.3494 169.651 52.7869 169.872C52.2287 170.089 51.5916 170.198 50.8757 170.198ZM63.1804 173.682C62.8949 173.682 62.6349 173.658 62.4006 173.612C62.1662 173.569 61.9915 173.522 61.8764 173.471L62.3366 171.905C62.6861 171.999 62.9972 172.039 63.2699 172.026C63.5426 172.013 63.7834 171.911 63.9922 171.719C64.2053 171.528 64.3928 171.214 64.5547 170.78L64.7912 170.128L61.1989 160.182H63.2443L65.7308 167.801H65.8331L68.3196 160.182H70.3714L66.3253 171.31C66.1378 171.822 65.8991 172.254 65.6094 172.608C65.3196 172.966 64.9744 173.234 64.5739 173.413C64.1733 173.592 63.7088 173.682 63.1804 173.682ZM70.4002 172.832V168.344H71.1992C71.4038 168.157 71.5763 167.933 71.717 167.673C71.8619 167.413 71.9833 167.104 72.0813 166.746C72.1836 166.388 72.2688 165.971 72.337 165.494C72.4052 165.012 72.4648 164.462 72.516 163.844L72.8228 160.182H79.4961V168.344H81.0046V172.832H79.1381V170H72.2923V172.832H70.4002ZM73.2447 168.344H77.6296V161.818H74.5359L74.3313 163.844C74.2333 164.876 74.1097 165.771 73.9606 166.529C73.8114 167.283 73.5728 167.888 73.2447 168.344ZM87.0083 170.198C86.0879 170.198 85.2846 169.987 84.5985 169.565C83.9125 169.143 83.3798 168.553 83.0005 167.795C82.6213 167.036 82.4316 166.15 82.4316 165.136C82.4316 164.117 82.6213 163.227 83.0005 162.464C83.3798 161.701 83.9125 161.109 84.5985 160.687C85.2846 160.265 86.0879 160.054 87.0083 160.054C87.9288 160.054 88.7321 160.265 89.4181 160.687C90.1042 161.109 90.6369 161.701 91.0162 162.464C91.3954 163.227 91.5851 164.117 91.5851 165.136C91.5851 166.15 91.3954 167.036 91.0162 167.795C90.6369 168.553 90.1042 169.143 89.4181 169.565C88.7321 169.987 87.9288 170.198 87.0083 170.198ZM87.0147 168.594C87.6113 168.594 88.1056 168.436 88.4977 168.121C88.8897 167.805 89.1795 167.386 89.367 166.862C89.5588 166.337 89.6547 165.76 89.6547 165.129C89.6547 164.503 89.5588 163.928 89.367 163.403C89.1795 162.875 88.8897 162.451 88.4977 162.131C88.1056 161.812 87.6113 161.652 87.0147 161.652C86.4139 161.652 85.9153 161.812 85.519 162.131C85.127 162.451 84.835 162.875 84.6433 163.403C84.4558 163.928 84.362 164.503 84.362 165.129C84.362 165.76 84.4558 166.337 84.6433 166.862C84.835 167.386 85.127 167.805 85.519 168.121C85.9153 168.436 86.4139 168.594 87.0147 168.594ZM101.293 156.526L102.086 157.734C101.792 158.002 101.457 158.194 101.082 158.309C100.711 158.42 100.283 158.49 99.7972 158.52C99.3114 158.545 98.7553 158.569 98.1289 158.59C97.4215 158.612 96.8398 158.765 96.3839 159.05C95.9279 159.332 95.5763 159.749 95.3292 160.303C95.0863 160.853 94.9286 161.543 94.8562 162.374H94.9776C95.2972 161.765 95.7404 161.309 96.3072 161.006C96.8782 160.704 97.5195 160.553 98.2312 160.553C99.0238 160.553 99.729 160.734 100.347 161.096C100.965 161.458 101.451 161.989 101.804 162.688C102.162 163.382 102.341 164.232 102.341 165.238C102.341 166.256 102.154 167.136 101.779 167.878C101.408 168.619 100.884 169.192 100.206 169.597C99.533 169.998 98.7383 170.198 97.8221 170.198C96.9059 170.198 96.1069 169.991 95.4251 169.578C94.7475 169.161 94.2212 168.543 93.8462 167.724C93.4755 166.906 93.2901 165.896 93.2901 164.695V163.723C93.2901 161.477 93.6907 159.788 94.4918 158.654C95.293 157.521 96.4904 156.939 98.0842 156.909C98.5998 156.896 99.06 156.894 99.4648 156.903C99.8697 156.907 100.223 156.888 100.526 156.845C100.833 156.798 101.088 156.692 101.293 156.526ZM97.8285 168.594C98.3612 168.594 98.8192 168.46 99.2028 168.191C99.5906 167.918 99.8888 167.533 100.098 167.034C100.306 166.536 100.411 165.947 100.411 165.27C100.411 164.605 100.306 164.04 100.098 163.576C99.8888 163.112 99.5906 162.758 99.2028 162.515C98.815 162.268 98.3505 162.144 97.8093 162.144C97.4087 162.144 97.0508 162.214 96.7354 162.355C96.4201 162.491 96.1495 162.694 95.9237 162.962C95.7021 163.231 95.5295 163.559 95.4059 163.947C95.2866 164.33 95.2227 164.771 95.2141 165.27C95.2141 166.284 95.4464 167.092 95.9109 167.692C96.3796 168.293 97.0188 168.594 97.8285 168.594ZM111.13 164.266V165.922H105.812V164.266H111.13ZM106.349 160.182V170H104.476V160.182H106.349ZM112.466 160.182V170H110.6V160.182H112.466ZM117.88 170.217C117.258 170.217 116.696 170.102 116.193 169.872C115.69 169.638 115.292 169.299 114.998 168.856C114.708 168.413 114.563 167.869 114.563 167.226C114.563 166.672 114.669 166.216 114.882 165.858C115.096 165.5 115.383 165.217 115.745 165.008C116.108 164.799 116.512 164.641 116.96 164.535C117.407 164.428 117.863 164.347 118.328 164.292C118.916 164.224 119.393 164.168 119.76 164.126C120.126 164.079 120.392 164.004 120.559 163.902C120.725 163.8 120.808 163.634 120.808 163.403V163.359C120.808 162.8 120.65 162.368 120.335 162.061C120.024 161.754 119.559 161.601 118.941 161.601C118.298 161.601 117.791 161.744 117.42 162.029C117.054 162.31 116.8 162.624 116.659 162.969L114.863 162.56C115.076 161.963 115.387 161.482 115.797 161.115C116.21 160.744 116.685 160.476 117.222 160.31C117.759 160.139 118.324 160.054 118.916 160.054C119.308 160.054 119.723 160.101 120.162 160.195C120.605 160.284 121.019 160.45 121.402 160.693C121.79 160.936 122.108 161.283 122.355 161.735C122.602 162.183 122.725 162.764 122.725 163.48V170H120.859V168.658H120.782C120.659 168.905 120.473 169.148 120.226 169.386C119.979 169.625 119.662 169.823 119.274 169.981C118.886 170.138 118.422 170.217 117.88 170.217ZM118.296 168.683C118.824 168.683 119.276 168.579 119.651 168.37C120.03 168.161 120.318 167.888 120.514 167.552C120.714 167.211 120.814 166.847 120.814 166.459V165.193C120.746 165.261 120.614 165.325 120.418 165.385C120.226 165.44 120.007 165.489 119.76 165.532C119.512 165.57 119.272 165.607 119.037 165.641C118.803 165.67 118.607 165.696 118.449 165.717C118.078 165.764 117.74 165.843 117.433 165.954C117.13 166.065 116.887 166.224 116.704 166.433C116.525 166.638 116.436 166.911 116.436 167.251C116.436 167.724 116.61 168.082 116.96 168.325C117.309 168.564 117.755 168.683 118.296 168.683ZM131.126 170V161.812H128.774C128.216 161.812 127.781 161.942 127.47 162.202C127.159 162.462 127.003 162.803 127.003 163.224C127.003 163.642 127.146 163.979 127.432 164.234C127.721 164.486 128.126 164.612 128.646 164.612H131.682V166.158H128.646C127.922 166.158 127.295 166.039 126.767 165.8C126.243 165.558 125.838 165.214 125.552 164.771C125.271 164.328 125.131 163.804 125.131 163.199C125.131 162.581 125.275 162.048 125.565 161.601C125.859 161.149 126.279 160.8 126.824 160.553C127.374 160.305 128.024 160.182 128.774 160.182H132.922V170H131.126ZM124.683 170L127.451 165.04H129.407L126.639 170H124.683ZM140.23 173.682V160.182H142.097V161.773H142.256C142.367 161.569 142.527 161.332 142.736 161.064C142.945 160.795 143.234 160.561 143.605 160.361C143.976 160.156 144.466 160.054 145.075 160.054C145.868 160.054 146.575 160.254 147.197 160.655C147.82 161.055 148.308 161.633 148.661 162.387C149.019 163.141 149.198 164.049 149.198 165.11C149.198 166.171 149.021 167.081 148.668 167.839C148.314 168.594 147.828 169.175 147.21 169.585C146.592 169.989 145.887 170.192 145.094 170.192C144.498 170.192 144.01 170.092 143.631 169.891C143.256 169.691 142.962 169.457 142.749 169.188C142.536 168.92 142.371 168.681 142.256 168.472H142.141V173.682H140.23ZM142.103 165.091C142.103 165.781 142.203 166.386 142.403 166.906C142.604 167.426 142.893 167.833 143.273 168.127C143.652 168.417 144.116 168.562 144.666 168.562C145.237 168.562 145.714 168.411 146.098 168.108C146.482 167.801 146.771 167.386 146.967 166.862C147.168 166.337 147.268 165.747 147.268 165.091C147.268 164.443 147.17 163.862 146.974 163.346C146.782 162.83 146.492 162.423 146.104 162.125C145.721 161.827 145.241 161.678 144.666 161.678C144.112 161.678 143.643 161.82 143.26 162.106C142.881 162.391 142.593 162.79 142.397 163.301C142.201 163.812 142.103 164.409 142.103 165.091ZM154.197 170.217C153.575 170.217 153.012 170.102 152.509 169.872C152.006 169.638 151.608 169.299 151.314 168.856C151.024 168.413 150.879 167.869 150.879 167.226C150.879 166.672 150.986 166.216 151.199 165.858C151.412 165.5 151.7 165.217 152.062 165.008C152.424 164.799 152.829 164.641 153.276 164.535C153.724 164.428 154.18 164.347 154.644 164.292C155.232 164.224 155.71 164.168 156.076 164.126C156.442 164.079 156.709 164.004 156.875 163.902C157.041 163.8 157.124 163.634 157.124 163.403V163.359C157.124 162.8 156.967 162.368 156.651 162.061C156.34 161.754 155.876 161.601 155.258 161.601C154.614 161.601 154.107 161.744 153.737 162.029C153.37 162.31 153.116 162.624 152.976 162.969L151.18 162.56C151.393 161.963 151.704 161.482 152.113 161.115C152.526 160.744 153.001 160.476 153.538 160.31C154.075 160.139 154.64 160.054 155.232 160.054C155.624 160.054 156.04 160.101 156.479 160.195C156.922 160.284 157.335 160.45 157.719 160.693C158.107 160.936 158.424 161.283 158.671 161.735C158.918 162.183 159.042 162.764 159.042 163.48V170H157.175V168.658H157.099C156.975 168.905 156.79 169.148 156.543 169.386C156.295 169.625 155.978 169.823 155.59 169.981C155.202 170.138 154.738 170.217 154.197 170.217ZM154.612 168.683C155.141 168.683 155.592 168.579 155.967 168.37C156.347 168.161 156.634 167.888 156.83 167.552C157.031 167.211 157.131 166.847 157.131 166.459V165.193C157.063 165.261 156.93 165.325 156.734 165.385C156.543 165.44 156.323 165.489 156.076 165.532C155.829 165.57 155.588 165.607 155.354 165.641C155.119 165.67 154.923 165.696 154.766 165.717C154.395 165.764 154.056 165.843 153.749 165.954C153.447 166.065 153.204 166.224 153.021 166.433C152.842 166.638 152.752 166.911 152.752 167.251C152.752 167.724 152.927 168.082 153.276 168.325C153.626 168.564 154.071 168.683 154.612 168.683ZM169.162 156.526L169.955 157.734C169.661 158.002 169.326 158.194 168.951 158.309C168.58 158.42 168.152 158.49 167.666 158.52C167.181 158.545 166.624 158.569 165.998 158.59C165.291 158.612 164.709 158.765 164.253 159.05C163.797 159.332 163.445 159.749 163.198 160.303C162.955 160.853 162.798 161.543 162.725 162.374H162.847C163.166 161.765 163.61 161.309 164.176 161.006C164.747 160.704 165.389 160.553 166.1 160.553C166.893 160.553 167.598 160.734 168.216 161.096C168.834 161.458 169.32 161.989 169.673 162.688C170.031 163.382 170.21 164.232 170.21 165.238C170.21 166.256 170.023 167.136 169.648 167.878C169.277 168.619 168.753 169.192 168.075 169.597C167.402 169.998 166.607 170.198 165.691 170.198C164.775 170.198 163.976 169.991 163.294 169.578C162.617 169.161 162.09 168.543 161.715 167.724C161.345 166.906 161.159 165.896 161.159 164.695V163.723C161.159 161.477 161.56 159.788 162.361 158.654C163.162 157.521 164.36 156.939 165.953 156.909C166.469 156.896 166.929 156.894 167.334 156.903C167.739 156.907 168.093 156.888 168.395 156.845C168.702 156.798 168.958 156.692 169.162 156.526ZM165.698 168.594C166.23 168.594 166.688 168.46 167.072 168.191C167.46 167.918 167.758 167.533 167.967 167.034C168.176 166.536 168.28 165.947 168.28 165.27C168.28 164.605 168.176 164.04 167.967 163.576C167.758 163.112 167.46 162.758 167.072 162.515C166.684 162.268 166.22 162.144 165.678 162.144C165.278 162.144 164.92 162.214 164.605 162.355C164.289 162.491 164.019 162.694 163.793 162.962C163.571 163.231 163.399 163.559 163.275 163.947C163.156 164.33 163.092 164.771 163.083 165.27C163.083 166.284 163.316 167.092 163.78 167.692C164.249 168.293 164.888 168.594 165.698 168.594ZM176.481 170.198C175.561 170.198 174.757 169.987 174.071 169.565C173.385 169.143 172.852 168.553 172.473 167.795C172.094 167.036 171.904 166.15 171.904 165.136C171.904 164.117 172.094 163.227 172.473 162.464C172.852 161.701 173.385 161.109 174.071 160.687C174.757 160.265 175.561 160.054 176.481 160.054C177.401 160.054 178.205 160.265 178.891 160.687C179.577 161.109 180.11 161.701 180.489 162.464C180.868 163.227 181.058 164.117 181.058 165.136C181.058 166.15 180.868 167.036 180.489 167.795C180.11 168.553 179.577 169.143 178.891 169.565C178.205 169.987 177.401 170.198 176.481 170.198ZM176.487 168.594C177.084 168.594 177.578 168.436 177.97 168.121C178.362 167.805 178.652 167.386 178.84 166.862C179.031 166.337 179.127 165.76 179.127 165.129C179.127 164.503 179.031 163.928 178.84 163.403C178.652 162.875 178.362 162.451 177.97 162.131C177.578 161.812 177.084 161.652 176.487 161.652C175.887 161.652 175.388 161.812 174.992 162.131C174.6 162.451 174.308 162.875 174.116 163.403C173.928 163.928 173.835 164.503 173.835 165.129C173.835 165.76 173.928 166.337 174.116 166.862C174.308 167.386 174.6 167.805 174.992 168.121C175.388 168.436 175.887 168.594 176.487 168.594ZM182.009 161.831V160.182H190.293V161.831H187.09V170H185.224V161.831H182.009ZM194.714 170.217C194.092 170.217 193.53 170.102 193.027 169.872C192.524 169.638 192.126 169.299 191.831 168.856C191.542 168.413 191.397 167.869 191.397 167.226C191.397 166.672 191.503 166.216 191.716 165.858C191.93 165.5 192.217 165.217 192.579 165.008C192.942 164.799 193.346 164.641 193.794 164.535C194.241 164.428 194.697 164.347 195.162 164.292C195.75 164.224 196.227 164.168 196.594 164.126C196.96 164.079 197.226 164.004 197.393 163.902C197.559 163.8 197.642 163.634 197.642 163.403V163.359C197.642 162.8 197.484 162.368 197.169 162.061C196.858 161.754 196.393 161.601 195.775 161.601C195.132 161.601 194.625 161.744 194.254 162.029C193.888 162.31 193.634 162.624 193.493 162.969L191.697 162.56C191.91 161.963 192.221 161.482 192.631 161.115C193.044 160.744 193.519 160.476 194.056 160.31C194.593 160.139 195.157 160.054 195.75 160.054C196.142 160.054 196.557 160.101 196.996 160.195C197.439 160.284 197.853 160.45 198.236 160.693C198.624 160.936 198.942 161.283 199.189 161.735C199.436 162.183 199.559 162.764 199.559 163.48V170H197.693V168.658H197.616C197.493 168.905 197.307 169.148 197.06 169.386C196.813 169.625 196.496 169.823 196.108 169.981C195.72 170.138 195.256 170.217 194.714 170.217ZM195.13 168.683C195.658 168.683 196.11 168.579 196.485 168.37C196.864 168.161 197.152 167.888 197.348 167.552C197.548 167.211 197.648 166.847 197.648 166.459V165.193C197.58 165.261 197.448 165.325 197.252 165.385C197.06 165.44 196.841 165.489 196.594 165.532C196.346 165.57 196.106 165.607 195.871 165.641C195.637 165.67 195.441 165.696 195.283 165.717C194.912 165.764 194.574 165.843 194.267 165.954C193.964 166.065 193.721 166.224 193.538 166.433C193.359 166.638 193.27 166.911 193.27 167.251C193.27 167.724 193.444 168.082 193.794 168.325C194.143 168.564 194.589 168.683 195.13 168.683ZM211.004 170.198C210.054 170.198 209.236 169.983 208.55 169.553C207.868 169.118 207.344 168.519 206.977 167.756C206.611 166.994 206.428 166.12 206.428 165.136C206.428 164.138 206.615 163.259 206.99 162.496C207.365 161.729 207.894 161.13 208.575 160.7C209.257 160.269 210.061 160.054 210.985 160.054C211.731 160.054 212.396 160.192 212.98 160.469C213.563 160.742 214.034 161.126 214.392 161.62C214.754 162.114 214.97 162.692 215.038 163.352H213.178C213.075 162.892 212.841 162.496 212.475 162.163C212.112 161.831 211.627 161.665 211.017 161.665C210.485 161.665 210.018 161.805 209.617 162.087C209.221 162.364 208.912 162.76 208.691 163.276C208.469 163.787 208.358 164.392 208.358 165.091C208.358 165.807 208.467 166.425 208.684 166.945C208.901 167.464 209.208 167.867 209.605 168.153C210.005 168.438 210.476 168.581 211.017 168.581C211.379 168.581 211.708 168.515 212.002 168.383C212.3 168.246 212.549 168.053 212.749 167.801C212.954 167.55 213.097 167.247 213.178 166.893H215.038C214.97 167.528 214.763 168.095 214.418 168.594C214.073 169.092 213.61 169.484 213.031 169.77C212.455 170.055 211.78 170.198 211.004 170.198ZM221.296 161.831V160.182H229.58V161.831H226.377V170H224.511V161.831H221.296ZM235.376 170.198C234.408 170.198 233.575 169.991 232.876 169.578C232.182 169.161 231.645 168.575 231.266 167.82C230.891 167.062 230.703 166.173 230.703 165.155C230.703 164.149 230.891 163.263 231.266 162.496C231.645 161.729 232.173 161.13 232.851 160.7C233.533 160.269 234.33 160.054 235.241 160.054C235.795 160.054 236.332 160.146 236.852 160.329C237.372 160.512 237.839 160.8 238.252 161.192C238.665 161.584 238.991 162.093 239.23 162.719C239.469 163.342 239.588 164.098 239.588 164.989V165.666H231.783V164.234H237.715C237.715 163.732 237.613 163.286 237.408 162.898C237.204 162.506 236.916 162.197 236.545 161.972C236.179 161.746 235.749 161.633 235.254 161.633C234.717 161.633 234.249 161.765 233.848 162.029C233.452 162.289 233.145 162.63 232.928 163.052C232.714 163.469 232.608 163.923 232.608 164.413V165.532C232.608 166.188 232.723 166.746 232.953 167.207C233.188 167.667 233.513 168.018 233.931 168.261C234.349 168.5 234.837 168.619 235.395 168.619C235.757 168.619 236.087 168.568 236.386 168.466C236.684 168.359 236.942 168.202 237.159 167.993C237.376 167.784 237.543 167.526 237.658 167.219L239.467 167.545C239.322 168.078 239.062 168.545 238.687 168.945C238.316 169.342 237.849 169.651 237.287 169.872C236.729 170.089 236.092 170.198 235.376 170.198ZM240.935 170L240.929 168.344H241.28C241.553 168.344 241.781 168.287 241.964 168.172C242.152 168.053 242.305 167.852 242.425 167.571C242.544 167.29 242.635 166.902 242.699 166.408C242.763 165.909 242.81 165.283 242.84 164.528L243.013 160.182H249.865V170H247.992V161.831H244.783L244.63 165.168C244.591 165.977 244.508 166.685 244.381 167.29C244.257 167.895 244.076 168.4 243.837 168.805C243.599 169.205 243.292 169.506 242.917 169.706C242.542 169.902 242.086 170 241.549 170H240.935ZM256.645 170.198C255.678 170.198 254.845 169.991 254.146 169.578C253.451 169.161 252.914 168.575 252.535 167.82C252.16 167.062 251.973 166.173 251.973 165.155C251.973 164.149 252.16 163.263 252.535 162.496C252.914 161.729 253.443 161.13 254.12 160.7C254.802 160.269 255.599 160.054 256.511 160.054C257.065 160.054 257.602 160.146 258.122 160.329C258.642 160.512 259.108 160.8 259.522 161.192C259.935 161.584 260.261 162.093 260.5 162.719C260.738 163.342 260.858 164.098 260.858 164.989V165.666H253.053V164.234H258.985C258.985 163.732 258.882 163.286 258.678 162.898C258.473 162.506 258.186 162.197 257.815 161.972C257.449 161.746 257.018 161.633 256.524 161.633C255.987 161.633 255.518 161.765 255.118 162.029C254.721 162.289 254.414 162.63 254.197 163.052C253.984 163.469 253.877 163.923 253.877 164.413V165.532C253.877 166.188 253.993 166.746 254.223 167.207C254.457 167.667 254.783 168.018 255.201 168.261C255.618 168.5 256.106 168.619 256.664 168.619C257.027 168.619 257.357 168.568 257.655 168.466C257.953 168.359 258.211 168.202 258.429 167.993C258.646 167.784 258.812 167.526 258.927 167.219L260.736 167.545C260.591 168.078 260.331 168.545 259.956 168.945C259.586 169.342 259.119 169.651 258.556 169.872C257.998 170.089 257.361 170.198 256.645 170.198ZM267.203 173.343V156.909H269.115V173.343H267.203ZM267.203 170.198C266.509 170.198 265.876 170.079 265.305 169.84C264.734 169.597 264.242 169.252 263.828 168.805C263.415 168.357 263.095 167.822 262.869 167.2C262.648 166.578 262.537 165.89 262.537 165.136C262.537 164.373 262.648 163.68 262.869 163.058C263.095 162.436 263.415 161.901 263.828 161.454C264.242 161.006 264.734 160.661 265.305 160.418C265.876 160.175 266.509 160.054 267.203 160.054H267.676V170.198H267.203ZM267.203 168.587H267.472V161.665H267.203C266.743 161.665 266.343 161.759 266.002 161.946C265.661 162.129 265.377 162.383 265.151 162.707C264.926 163.026 264.755 163.395 264.64 163.812C264.529 164.23 264.474 164.671 264.474 165.136C264.474 165.758 264.574 166.331 264.774 166.855C264.975 167.375 265.277 167.795 265.682 168.114C266.087 168.43 266.594 168.587 267.203 168.587ZM269.115 170.198H268.635V160.054H269.115C269.809 160.054 270.442 160.175 271.013 160.418C271.584 160.661 272.074 161.006 272.483 161.454C272.896 161.901 273.214 162.436 273.436 163.058C273.661 163.68 273.774 164.373 273.774 165.136C273.774 165.89 273.661 166.578 273.436 167.2C273.214 167.822 272.896 168.357 272.483 168.805C272.074 169.252 271.584 169.597 271.013 169.84C270.442 170.079 269.809 170.198 269.115 170.198ZM269.115 168.587C269.575 168.587 269.975 168.498 270.316 168.319C270.657 168.136 270.941 167.884 271.166 167.565C271.392 167.241 271.561 166.872 271.671 166.459C271.782 166.041 271.838 165.6 271.838 165.136C271.838 164.518 271.737 163.947 271.537 163.423C271.341 162.894 271.041 162.47 270.636 162.151C270.231 161.827 269.724 161.665 269.115 161.665H268.84V168.587H269.115ZM280.034 170.198C279.113 170.198 278.31 169.987 277.624 169.565C276.938 169.143 276.405 168.553 276.026 167.795C275.647 167.036 275.457 166.15 275.457 165.136C275.457 164.117 275.647 163.227 276.026 162.464C276.405 161.701 276.938 161.109 277.624 160.687C278.31 160.265 279.113 160.054 280.034 160.054C280.954 160.054 281.757 160.265 282.444 160.687C283.13 161.109 283.662 161.701 284.042 162.464C284.421 163.227 284.61 164.117 284.61 165.136C284.61 166.15 284.421 167.036 284.042 167.795C283.662 168.553 283.13 169.143 282.444 169.565C281.757 169.987 280.954 170.198 280.034 170.198ZM280.04 168.594C280.637 168.594 281.131 168.436 281.523 168.121C281.915 167.805 282.205 167.386 282.392 166.862C282.584 166.337 282.68 165.76 282.68 165.129C282.68 164.503 282.584 163.928 282.392 163.403C282.205 162.875 281.915 162.451 281.523 162.131C281.131 161.812 280.637 161.652 280.04 161.652C279.439 161.652 278.941 161.812 278.544 162.131C278.152 162.451 277.86 162.875 277.669 163.403C277.481 163.928 277.387 164.503 277.387 165.129C277.387 165.76 277.481 166.337 277.669 166.862C277.86 167.386 278.152 167.805 278.544 168.121C278.941 168.436 279.439 168.594 280.04 168.594ZM293.398 164.266V165.922H288.08V164.266H293.398ZM288.617 160.182V170H286.744V160.182H288.617ZM294.734 160.182V170H292.867V160.182H294.734ZM300.148 170.217C299.526 170.217 298.963 170.102 298.46 169.872C297.958 169.638 297.559 169.299 297.265 168.856C296.975 168.413 296.83 167.869 296.83 167.226C296.83 166.672 296.937 166.216 297.15 165.858C297.363 165.5 297.651 165.217 298.013 165.008C298.375 164.799 298.78 164.641 299.227 164.535C299.675 164.428 300.131 164.347 300.595 164.292C301.183 164.224 301.661 164.168 302.027 164.126C302.394 164.079 302.66 164.004 302.826 163.902C302.992 163.8 303.075 163.634 303.075 163.403V163.359C303.075 162.8 302.918 162.368 302.602 162.061C302.291 161.754 301.827 161.601 301.209 161.601C300.566 161.601 300.058 161.744 299.688 162.029C299.321 162.31 299.068 162.624 298.927 162.969L297.131 162.56C297.344 161.963 297.655 161.482 298.064 161.115C298.477 160.744 298.953 160.476 299.49 160.31C300.026 160.139 300.591 160.054 301.183 160.054C301.575 160.054 301.991 160.101 302.43 160.195C302.873 160.284 303.286 160.45 303.67 160.693C304.058 160.936 304.375 161.283 304.622 161.735C304.869 162.183 304.993 162.764 304.993 163.48V170H303.127V168.658H303.05C302.926 168.905 302.741 169.148 302.494 169.386C302.247 169.625 301.929 169.823 301.541 169.981C301.154 170.138 300.689 170.217 300.148 170.217ZM300.563 168.683C301.092 168.683 301.544 168.579 301.919 168.37C302.298 168.161 302.585 167.888 302.781 167.552C302.982 167.211 303.082 166.847 303.082 166.459V165.193C303.014 165.261 302.882 165.325 302.686 165.385C302.494 165.44 302.274 165.489 302.027 165.532C301.78 165.57 301.539 165.607 301.305 165.641C301.07 165.67 300.874 165.696 300.717 165.717C300.346 165.764 300.007 165.843 299.7 165.954C299.398 166.065 299.155 166.224 298.972 166.433C298.793 166.638 298.703 166.911 298.703 167.251C298.703 167.724 298.878 168.082 299.227 168.325C299.577 168.564 300.022 168.683 300.563 168.683Z" fill="white" fill-opacity="0.8"/>
<path d="M12 202.5C6.486 202.5 2 206.986 2 212.5C2 218.014 6.486 222.5 12 222.5C17.514 222.5 22 218.014 22 212.5C22 206.986 17.514 202.5 12 202.5ZM12 220.5C7.589 220.5 4 216.911 4 212.5C4 208.089 7.589 204.5 12 204.5C16.411 204.5 20 208.089 20 212.5C20 216.911 16.411 220.5 12 220.5ZM13 216.5C13 217.052 12.552 217.5 12 217.5C11.448 217.5 11 217.052 11 216.5C11 215.948 11.448 215.5 12 215.5C12.552 215.5 13 215.948 13 216.5ZM13 208.5V212.5C13 213.053 12.552 213.5 12 213.5C11.448 213.5 11 213.053 11 212.5V208.5C11 207.947 11.448 207.5 12 207.5C12.552 207.5 13 207.947 13 208.5Z" fill="white" fill-opacity="0.8"/>
<path d="M44.3111 210.166H42.3168C42.2401 209.74 42.0973 209.365 41.8885 209.041C41.6797 208.717 41.424 208.442 41.1214 208.217C40.8189 207.991 40.4801 207.82 40.1051 207.705C39.7344 207.59 39.3402 207.533 38.9226 207.533C38.1683 207.533 37.4929 207.722 36.8963 208.102C36.304 208.481 35.8352 209.037 35.4901 209.77C35.1491 210.503 34.9787 211.398 34.9787 212.455C34.9787 213.52 35.1491 214.419 35.4901 215.152C35.8352 215.885 36.3061 216.439 36.9027 216.814C37.4993 217.189 38.1705 217.376 38.9162 217.376C39.3295 217.376 39.7216 217.321 40.0923 217.21C40.4673 217.095 40.8061 216.927 41.1087 216.705C41.4112 216.484 41.6669 216.213 41.8757 215.893C42.0888 215.57 42.2358 215.199 42.3168 214.781L44.3111 214.788C44.2045 215.431 43.9979 216.023 43.6911 216.565C43.3885 217.102 42.9986 217.566 42.5213 217.958C42.0483 218.346 41.5071 218.646 40.8977 218.859C40.2884 219.072 39.6236 219.179 38.9034 219.179C37.7699 219.179 36.7599 218.911 35.8736 218.374C34.9872 217.832 34.2884 217.059 33.777 216.053C33.2699 215.048 33.0163 213.848 33.0163 212.455C33.0163 211.057 33.272 209.857 33.7834 208.856C34.2947 207.85 34.9936 207.079 35.88 206.542C36.7663 206.001 37.7741 205.73 38.9034 205.73C39.598 205.73 40.2457 205.83 40.8466 206.031C41.4517 206.227 41.995 206.516 42.4766 206.9C42.9581 207.279 43.3565 207.744 43.6719 208.293C43.9872 208.839 44.2003 209.463 44.3111 210.166ZM45.7477 219L45.7413 217.344H46.0929C46.3656 217.344 46.5936 217.287 46.7768 217.172C46.9643 217.053 47.1177 216.852 47.237 216.571C47.3564 216.29 47.448 215.902 47.5119 215.408C47.5758 214.909 47.6227 214.283 47.6525 213.528L47.8251 209.182H54.6774V219H52.8045V210.831H49.5957L49.4423 214.168C49.4039 214.977 49.3208 215.685 49.193 216.29C49.0694 216.895 48.8883 217.4 48.6497 217.805C48.411 218.205 48.1042 218.506 47.7292 218.706C47.3542 218.902 46.8983 219 46.3613 219H45.7477ZM61.3619 219.198C60.4414 219.198 59.6381 218.987 58.9521 218.565C58.266 218.143 57.7333 217.553 57.354 216.795C56.9748 216.036 56.7852 215.15 56.7852 214.136C56.7852 213.117 56.9748 212.227 57.354 211.464C57.7333 210.701 58.266 210.109 58.9521 209.687C59.6381 209.265 60.4414 209.054 61.3619 209.054C62.2823 209.054 63.0856 209.265 63.7717 209.687C64.4577 210.109 64.9904 210.701 65.3697 211.464C65.7489 212.227 65.9386 213.117 65.9386 214.136C65.9386 215.15 65.7489 216.036 65.3697 216.795C64.9904 217.553 64.4577 218.143 63.7717 218.565C63.0856 218.987 62.2823 219.198 61.3619 219.198ZM61.3683 217.594C61.9648 217.594 62.4592 217.436 62.8512 217.121C63.2433 216.805 63.533 216.386 63.7205 215.862C63.9123 215.337 64.0082 214.76 64.0082 214.129C64.0082 213.503 63.9123 212.928 63.7205 212.403C63.533 211.875 63.2433 211.451 62.8512 211.131C62.4592 210.812 61.9648 210.652 61.3683 210.652C60.7674 210.652 60.2688 210.812 59.8725 211.131C59.4805 211.451 59.1886 211.875 58.9968 212.403C58.8093 212.928 58.7156 213.503 58.7156 214.129C58.7156 214.76 58.8093 215.337 58.9968 215.862C59.1886 216.386 59.4805 216.805 59.8725 217.121C60.2688 217.436 60.7674 217.594 61.3683 217.594ZM67.0588 219L70.862 213.976L67.1035 209.182H69.3279L72.3642 213.26H73.0481V209.182H74.9593V213.26H75.6241L78.6603 209.182H80.8848L77.1454 213.976L80.9295 219H78.6603L75.5985 214.909H74.9593V219H73.0481V214.909H72.4089L69.3279 219H67.0588ZM89.5268 213.266V214.922H84.2086V213.266H89.5268ZM84.7456 209.182V219H82.8727V209.182H84.7456ZM90.8627 209.182V219H88.9963V209.182H90.8627ZM97.5552 219.198C96.6348 219.198 95.8315 218.987 95.1454 218.565C94.4593 218.143 93.9267 217.553 93.5474 216.795C93.1681 216.036 92.9785 215.15 92.9785 214.136C92.9785 213.117 93.1681 212.227 93.5474 211.464C93.9267 210.701 94.4593 210.109 95.1454 209.687C95.8315 209.265 96.6348 209.054 97.5552 209.054C98.4757 209.054 99.2789 209.265 99.965 209.687C100.651 210.109 101.184 210.701 101.563 211.464C101.942 212.227 102.132 213.117 102.132 214.136C102.132 215.15 101.942 216.036 101.563 216.795C101.184 217.553 100.651 218.143 99.965 218.565C99.2789 218.987 98.4757 219.198 97.5552 219.198ZM97.5616 217.594C98.1582 217.594 98.6525 217.436 99.0446 217.121C99.4366 216.805 99.7264 216.386 99.9139 215.862C100.106 215.337 100.202 214.76 100.202 214.129C100.202 213.503 100.106 212.928 99.9139 212.403C99.7264 211.875 99.4366 211.451 99.0446 211.131C98.6525 210.812 98.1582 210.652 97.5616 210.652C96.9608 210.652 96.4622 210.812 96.0659 211.131C95.6738 211.451 95.3819 211.875 95.1902 212.403C95.0027 212.928 94.9089 213.503 94.9089 214.129C94.9089 214.76 95.0027 215.337 95.1902 215.862C95.3819 216.386 95.6738 216.805 96.0659 217.121C96.4622 217.436 96.9608 217.594 97.5616 217.594ZM108.401 219.198C107.451 219.198 106.632 218.983 105.946 218.553C105.265 218.118 104.74 217.519 104.374 216.756C104.007 215.994 103.824 215.12 103.824 214.136C103.824 213.138 104.012 212.259 104.387 211.496C104.762 210.729 105.29 210.13 105.972 209.7C106.654 209.269 107.457 209.054 108.382 209.054C109.127 209.054 109.792 209.192 110.376 209.469C110.96 209.742 111.431 210.126 111.789 210.62C112.151 211.114 112.366 211.692 112.434 212.352H110.574C110.472 211.892 110.238 211.496 109.871 211.163C109.509 210.831 109.023 210.665 108.414 210.665C107.881 210.665 107.414 210.805 107.014 211.087C106.618 211.364 106.309 211.76 106.087 212.276C105.865 212.787 105.755 213.392 105.755 214.091C105.755 214.807 105.863 215.425 106.081 215.945C106.298 216.464 106.605 216.867 107.001 217.153C107.402 217.438 107.873 217.581 108.414 217.581C108.776 217.581 109.104 217.515 109.398 217.383C109.696 217.246 109.946 217.053 110.146 216.801C110.35 216.55 110.493 216.247 110.574 215.893H112.434C112.366 216.528 112.159 217.095 111.814 217.594C111.469 218.092 111.007 218.484 110.427 218.77C109.852 219.055 109.176 219.198 108.401 219.198ZM113.735 210.831V209.182H122.019V210.831H118.817V219H116.95V210.831H113.735ZM125.479 212.557H128.33C129.531 212.557 130.456 212.855 131.104 213.452C131.752 214.048 132.075 214.817 132.075 215.759C132.075 216.373 131.931 216.925 131.641 217.415C131.351 217.905 130.927 218.293 130.369 218.578C129.811 218.859 129.131 219 128.33 219H124.041V209.182H125.914V217.351H128.33C128.879 217.351 129.331 217.208 129.685 216.923C130.039 216.633 130.215 216.264 130.215 215.817C130.215 215.344 130.039 214.958 129.685 214.66C129.331 214.357 128.879 214.206 128.33 214.206H125.479V212.557ZM138.982 219V209.182H143.054C144.162 209.182 145.04 209.418 145.687 209.891C146.335 210.36 146.659 210.997 146.659 211.803C146.659 212.378 146.476 212.834 146.109 213.17C145.743 213.507 145.257 213.733 144.652 213.848C145.091 213.899 145.493 214.031 145.86 214.244C146.226 214.453 146.52 214.734 146.742 215.088C146.968 215.442 147.081 215.864 147.081 216.354C147.081 216.874 146.947 217.334 146.678 217.734C146.41 218.131 146.02 218.442 145.508 218.668C145.001 218.889 144.39 219 143.674 219H138.982ZM140.778 217.402H143.674C144.147 217.402 144.518 217.289 144.786 217.063C145.055 216.837 145.189 216.531 145.189 216.143C145.189 215.687 145.055 215.329 144.786 215.069C144.518 214.805 144.147 214.673 143.674 214.673H140.778V217.402ZM140.778 213.273H143.073C143.431 213.273 143.738 213.222 143.993 213.119C144.253 213.017 144.452 212.872 144.588 212.685C144.729 212.493 144.799 212.267 144.799 212.007C144.799 211.628 144.643 211.332 144.332 211.119C144.021 210.906 143.595 210.799 143.054 210.799H140.778V213.273ZM153.313 219.198C152.393 219.198 151.589 218.987 150.903 218.565C150.217 218.143 149.684 217.553 149.305 216.795C148.926 216.036 148.736 215.15 148.736 214.136C148.736 213.117 148.926 212.227 149.305 211.464C149.684 210.701 150.217 210.109 150.903 209.687C151.589 209.265 152.393 209.054 153.313 209.054C154.233 209.054 155.037 209.265 155.723 209.687C156.409 210.109 156.942 210.701 157.321 211.464C157.7 212.227 157.89 213.117 157.89 214.136C157.89 215.15 157.7 216.036 157.321 216.795C156.942 217.553 156.409 218.143 155.723 218.565C155.037 218.987 154.233 219.198 153.313 219.198ZM153.319 217.594C153.916 217.594 154.41 217.436 154.802 217.121C155.194 216.805 155.484 216.386 155.672 215.862C155.863 215.337 155.959 214.76 155.959 214.129C155.959 213.503 155.863 212.928 155.672 212.403C155.484 211.875 155.194 211.451 154.802 211.131C154.41 210.812 153.916 210.652 153.319 210.652C152.719 210.652 152.22 210.812 151.824 211.131C151.432 211.451 151.14 211.875 150.948 212.403C150.76 212.928 150.667 213.503 150.667 214.129C150.667 214.76 150.76 215.337 150.948 215.862C151.14 216.386 151.432 216.805 151.824 217.121C152.22 217.436 152.719 217.594 153.319 217.594ZM164.159 219.198C163.208 219.198 162.39 218.983 161.704 218.553C161.022 218.118 160.498 217.519 160.132 216.756C159.765 215.994 159.582 215.12 159.582 214.136C159.582 213.138 159.77 212.259 160.145 211.496C160.52 210.729 161.048 210.13 161.73 209.7C162.412 209.269 163.215 209.054 164.14 209.054C164.885 209.054 165.55 209.192 166.134 209.469C166.718 209.742 167.189 210.126 167.547 210.62C167.909 211.114 168.124 211.692 168.192 212.352H166.332C166.23 211.892 165.995 211.496 165.629 211.163C165.267 210.831 164.781 210.665 164.172 210.665C163.639 210.665 163.172 210.805 162.772 211.087C162.375 211.364 162.066 211.76 161.845 212.276C161.623 212.787 161.512 213.392 161.512 214.091C161.512 214.807 161.621 215.425 161.838 215.945C162.056 216.464 162.363 216.867 162.759 217.153C163.159 217.438 163.63 217.581 164.172 217.581C164.534 217.581 164.862 217.515 165.156 217.383C165.454 217.246 165.703 217.053 165.904 216.801C166.108 216.55 166.251 216.247 166.332 215.893H168.192C168.124 216.528 167.917 217.095 167.572 217.594C167.227 218.092 166.765 218.484 166.185 218.77C165.61 219.055 164.934 219.198 164.159 219.198ZM170.236 219V209.182H178.245V219H176.372V210.831H172.096V219H170.236ZM180.8 222.682V209.182H182.667V210.773H182.827C182.938 210.569 183.097 210.332 183.306 210.064C183.515 209.795 183.805 209.561 184.175 209.361C184.546 209.156 185.036 209.054 185.646 209.054C186.438 209.054 187.146 209.254 187.768 209.655C188.39 210.055 188.878 210.633 189.232 211.387C189.589 212.141 189.768 213.049 189.768 214.11C189.768 215.171 189.592 216.081 189.238 216.839C188.884 217.594 188.398 218.175 187.781 218.585C187.163 218.989 186.457 219.192 185.665 219.192C185.068 219.192 184.58 219.092 184.201 218.891C183.826 218.691 183.532 218.457 183.319 218.188C183.106 217.92 182.942 217.681 182.827 217.472H182.712V222.682H180.8ZM182.673 214.091C182.673 214.781 182.773 215.386 182.974 215.906C183.174 216.426 183.464 216.833 183.843 217.127C184.222 217.417 184.687 217.562 185.237 217.562C185.808 217.562 186.285 217.411 186.668 217.108C187.052 216.801 187.342 216.386 187.538 215.862C187.738 215.337 187.838 214.747 187.838 214.091C187.838 213.443 187.74 212.862 187.544 212.346C187.352 211.83 187.063 211.423 186.675 211.125C186.291 210.827 185.812 210.678 185.237 210.678C184.683 210.678 184.214 210.82 183.83 211.106C183.451 211.391 183.163 211.79 182.967 212.301C182.771 212.812 182.673 213.409 182.673 214.091ZM193.783 216.322L198.11 209.182H200.168V219H198.295V211.854L193.987 219H191.91V209.182H193.783V216.322ZM208.593 219V210.812H206.241C205.683 210.812 205.248 210.942 204.937 211.202C204.626 211.462 204.47 211.803 204.47 212.224C204.47 212.642 204.613 212.979 204.898 213.234C205.188 213.486 205.593 213.612 206.113 213.612H209.149V215.158H206.113C205.388 215.158 204.762 215.039 204.234 214.8C203.71 214.558 203.305 214.214 203.019 213.771C202.738 213.328 202.597 212.804 202.597 212.199C202.597 211.581 202.742 211.048 203.032 210.601C203.326 210.149 203.746 209.8 204.291 209.553C204.841 209.305 205.491 209.182 206.241 209.182H210.389V219H208.593ZM202.15 219L204.918 214.04H206.874L204.106 219H202.15ZM211.716 210.831V209.182H220V210.831H216.797V219H214.931V210.831H211.716ZM223.894 216.322L228.221 209.182H230.28V219H228.407V211.854L224.099 219H222.021V209.182H223.894V216.322ZM238.704 219V210.812H236.352C235.794 210.812 235.359 210.942 235.048 211.202C234.737 211.462 234.581 211.803 234.581 212.224C234.581 212.642 234.724 212.979 235.01 213.234C235.3 213.486 235.704 213.612 236.224 213.612H239.26V215.158H236.224C235.5 215.158 234.873 215.039 234.345 214.8C233.821 214.558 233.416 214.214 233.131 213.771C232.849 213.328 232.709 212.804 232.709 212.199C232.709 211.581 232.854 211.048 233.143 210.601C233.437 210.149 233.857 209.8 234.403 209.553C234.952 209.305 235.602 209.182 236.352 209.182H240.501V219H238.704ZM232.261 219L235.029 214.04H236.985L234.217 219H232.261ZM249.681 216.322L254.009 209.182H256.067V219H254.194V211.854L249.886 219H247.808V209.182H249.681V216.322ZM257.419 210.831V209.182H265.703V210.831H262.5V219H260.634V210.831H257.419ZM271.403 219.198C270.482 219.198 269.679 218.987 268.993 218.565C268.307 218.143 267.774 217.553 267.395 216.795C267.016 216.036 266.826 215.15 266.826 214.136C266.826 213.117 267.016 212.227 267.395 211.464C267.774 210.701 268.307 210.109 268.993 209.687C269.679 209.265 270.482 209.054 271.403 209.054C272.323 209.054 273.127 209.265 273.813 209.687C274.499 210.109 275.031 210.701 275.411 211.464C275.79 212.227 275.98 213.117 275.98 214.136C275.98 215.15 275.79 216.036 275.411 216.795C275.031 217.553 274.499 218.143 273.813 218.565C273.127 218.987 272.323 219.198 271.403 219.198ZM271.409 217.594C272.006 217.594 272.5 217.436 272.892 217.121C273.284 216.805 273.574 216.386 273.762 215.862C273.953 215.337 274.049 214.76 274.049 214.129C274.049 213.503 273.953 212.928 273.762 212.403C273.574 211.875 273.284 211.451 272.892 211.131C272.5 210.812 272.006 210.652 271.409 210.652C270.808 210.652 270.31 210.812 269.914 211.131C269.521 211.451 269.23 211.875 269.038 212.403C268.85 212.928 268.757 213.503 268.757 214.129C268.757 214.76 268.85 215.337 269.038 215.862C269.23 216.386 269.521 216.805 269.914 217.121C270.31 217.436 270.808 217.594 271.409 217.594ZM284.39 209.182V210.831H279.999V219H278.113V209.182H284.39ZM290.088 219.198C289.168 219.198 288.365 218.987 287.679 218.565C286.993 218.143 286.46 217.553 286.081 216.795C285.701 216.036 285.512 215.15 285.512 214.136C285.512 213.117 285.701 212.227 286.081 211.464C286.46 210.701 286.993 210.109 287.679 209.687C288.365 209.265 289.168 209.054 290.088 209.054C291.009 209.054 291.812 209.265 292.498 209.687C293.184 210.109 293.717 210.701 294.096 211.464C294.475 212.227 294.665 213.117 294.665 214.136C294.665 215.15 294.475 216.036 294.096 216.795C293.717 217.553 293.184 218.143 292.498 218.565C291.812 218.987 291.009 219.198 290.088 219.198ZM290.095 217.594C290.691 217.594 291.186 217.436 291.578 217.121C291.97 216.805 292.26 216.386 292.447 215.862C292.639 215.337 292.735 214.76 292.735 214.129C292.735 213.503 292.639 212.928 292.447 212.403C292.26 211.875 291.97 211.451 291.578 211.131C291.186 210.812 290.691 210.652 290.095 210.652C289.494 210.652 288.995 210.812 288.599 211.131C288.207 211.451 287.915 211.875 287.723 212.403C287.536 212.928 287.442 213.503 287.442 214.129C287.442 214.76 287.536 215.337 287.723 215.862C287.915 216.386 288.207 216.805 288.599 217.121C288.995 217.436 289.494 217.594 290.095 217.594ZM296.798 219V209.182H300.87C301.978 209.182 302.856 209.418 303.504 209.891C304.151 210.36 304.475 210.997 304.475 211.803C304.475 212.378 304.292 212.834 303.926 213.17C303.559 213.507 303.073 213.733 302.468 213.848C302.907 213.899 303.31 214.031 303.676 214.244C304.043 214.453 304.337 214.734 304.558 215.088C304.784 215.442 304.897 215.864 304.897 216.354C304.897 216.874 304.763 217.334 304.494 217.734C304.226 218.131 303.836 218.442 303.325 218.668C302.818 218.889 302.206 219 301.49 219H296.798ZM298.595 217.402H301.49C301.963 217.402 302.334 217.289 302.602 217.063C302.871 216.837 303.005 216.531 303.005 216.143C303.005 215.687 302.871 215.329 302.602 215.069C302.334 214.805 301.963 214.673 301.49 214.673H298.595V217.402ZM298.595 213.273H300.889C301.247 213.273 301.554 213.222 301.81 213.119C302.07 213.017 302.268 212.872 302.404 212.685C302.545 212.493 302.615 212.267 302.615 212.007C302.615 211.628 302.46 211.332 302.149 211.119C301.838 210.906 301.411 210.799 300.87 210.799H298.595V213.273ZM308.432 212.557H311.283C312.485 212.557 313.409 212.855 314.057 213.452C314.705 214.048 315.029 214.817 315.029 215.759C315.029 216.373 314.884 216.925 314.594 217.415C314.304 217.905 313.88 218.293 313.322 218.578C312.764 218.859 312.084 219 311.283 219H306.994V209.182H308.867V217.351H311.283C311.833 217.351 312.284 217.208 312.638 216.923C312.992 216.633 313.169 216.264 313.169 215.817C313.169 215.344 312.992 214.958 312.638 214.66C312.284 214.357 311.833 214.206 311.283 214.206H308.432V212.557ZM316.422 219V209.182H318.333V219H316.422ZM322.407 209.182L324.574 213.004L326.76 209.182H328.85L325.788 214.091L328.875 219H326.785L324.574 215.331L322.368 219H320.272L323.327 214.091L320.31 209.182H322.407ZM334.617 221.832V217.344H335.416C335.621 217.157 335.793 216.933 335.934 216.673C336.079 216.413 336.2 216.104 336.298 215.746C336.4 215.388 336.486 214.971 336.554 214.494C336.622 214.012 336.682 213.462 336.733 212.844L337.04 209.182H343.713V217.344H345.221V221.832H343.355V219H336.509V221.832H334.617ZM337.461 217.344H341.846V210.818H338.753L338.548 212.844C338.45 213.876 338.327 214.771 338.177 215.529C338.028 216.283 337.79 216.888 337.461 217.344ZM349.947 219.217C349.325 219.217 348.762 219.102 348.259 218.872C347.756 218.638 347.358 218.299 347.064 217.856C346.774 217.413 346.629 216.869 346.629 216.226C346.629 215.672 346.736 215.216 346.949 214.858C347.162 214.5 347.45 214.217 347.812 214.008C348.174 213.799 348.579 213.641 349.026 213.535C349.474 213.428 349.93 213.347 350.394 213.292C350.982 213.224 351.46 213.168 351.826 213.126C352.192 213.079 352.459 213.004 352.625 212.902C352.791 212.8 352.874 212.634 352.874 212.403V212.359C352.874 211.8 352.717 211.368 352.401 211.061C352.09 210.754 351.626 210.601 351.008 210.601C350.364 210.601 349.857 210.744 349.487 211.029C349.12 211.31 348.866 211.624 348.726 211.969L346.93 211.56C347.143 210.963 347.454 210.482 347.863 210.115C348.276 209.744 348.751 209.476 349.288 209.31C349.825 209.139 350.39 209.054 350.982 209.054C351.374 209.054 351.79 209.101 352.229 209.195C352.672 209.284 353.085 209.45 353.469 209.693C353.857 209.936 354.174 210.283 354.421 210.735C354.668 211.183 354.792 211.764 354.792 212.48V219H352.925V217.658H352.849C352.725 217.905 352.54 218.148 352.293 218.386C352.045 218.625 351.728 218.823 351.34 218.981C350.952 219.138 350.488 219.217 349.947 219.217ZM350.362 217.683C350.891 217.683 351.342 217.579 351.717 217.37C352.097 217.161 352.384 216.888 352.58 216.552C352.781 216.211 352.881 215.847 352.881 215.459V214.193C352.813 214.261 352.68 214.325 352.484 214.385C352.293 214.44 352.073 214.489 351.826 214.532C351.579 214.57 351.338 214.607 351.104 214.641C350.869 214.67 350.673 214.696 350.516 214.717C350.145 214.764 349.806 214.843 349.499 214.954C349.197 215.065 348.954 215.224 348.771 215.433C348.592 215.638 348.502 215.911 348.502 216.251C348.502 216.724 348.677 217.082 349.026 217.325C349.376 217.564 349.821 217.683 350.362 217.683ZM363.992 213.266V214.922H358.673V213.266H363.992ZM359.21 209.182V219H357.338V209.182H359.21ZM365.328 209.182V219H363.461V209.182H365.328ZM374.539 213.266V214.922H369.22V213.266H374.539ZM369.757 209.182V219H367.884V209.182H369.757ZM375.874 209.182V219H374.008V209.182H375.874ZM379.869 212.557H382.72C383.922 212.557 384.847 212.855 385.494 213.452C386.142 214.048 386.466 214.817 386.466 215.759C386.466 216.373 386.321 216.925 386.031 217.415C385.742 217.905 385.318 218.293 384.759 218.578C384.201 218.859 383.521 219 382.72 219H378.431V209.182H380.304V217.351H382.72C383.27 217.351 383.722 217.208 384.075 216.923C384.429 216.633 384.606 216.264 384.606 215.817C384.606 215.344 384.429 214.958 384.075 214.66C383.722 214.357 383.27 214.206 382.72 214.206H379.869V212.557ZM387.86 219V209.182H389.771V219H387.86ZM393.844 209.182L396.011 213.004L398.197 209.182H400.287L397.225 214.091L400.313 219H398.223L396.011 215.331L393.806 219H391.709L394.765 214.091L391.748 209.182H393.844Z" fill="white" fill-opacity="0.8"/>
</svg>
