<svg width="448" height="225" viewBox="0 0 448 225" fill="none" xmlns="http://www.w3.org/2000/svg">
<path d="M1.51705 23V5.54545H13.0739V8.58807H5.20739V12.7472H12.3068V15.7898H5.20739V23H1.51705ZM19.2464 5.54545V23H15.5561V5.54545H19.2464ZM36.8821 5.54545V23H33.6946L26.1009 12.0142H25.973V23H22.2827V5.54545H25.5213L33.0554 16.5227H33.2088V5.54545H36.8821ZM43.6214 5.54545V23H39.9311V5.54545H43.6214ZM62.6974 14.2727C62.6974 16.1761 62.3366 17.7955 61.6151 19.1307C60.8991 20.4659 59.9219 21.4858 58.6832 22.1903C57.4503 22.8892 56.0639 23.2386 54.5241 23.2386C52.973 23.2386 51.581 22.8864 50.348 22.1818C49.1151 21.4773 48.1406 20.4574 47.4247 19.1222C46.7088 17.7869 46.3509 16.1705 46.3509 14.2727C46.3509 12.3693 46.7088 10.75 47.4247 9.41477C48.1406 8.07955 49.1151 7.0625 50.348 6.36364C51.581 5.65909 52.973 5.30682 54.5241 5.30682C56.0639 5.30682 57.4503 5.65909 58.6832 6.36364C59.9219 7.0625 60.8991 8.07955 61.6151 9.41477C62.3366 10.75 62.6974 12.3693 62.6974 14.2727ZM58.956 14.2727C58.956 13.0398 58.7713 12 58.402 11.1534C58.0384 10.3068 57.5241 9.66477 56.8594 9.22727C56.1946 8.78977 55.4162 8.57102 54.5241 8.57102C53.6321 8.57102 52.8537 8.78977 52.1889 9.22727C51.5241 9.66477 51.0071 10.3068 50.6378 11.1534C50.2741 12 50.0923 13.0398 50.0923 14.2727C50.0923 15.5057 50.2741 16.5455 50.6378 17.392C51.0071 18.2386 51.5241 18.8807 52.1889 19.3182C52.8537 19.7557 53.6321 19.9744 54.5241 19.9744C55.4162 19.9744 56.1946 19.7557 56.8594 19.3182C57.5241 18.8807 58.0384 18.2386 58.402 17.392C58.7713 16.5455 58.956 15.5057 58.956 14.2727Z" fill="white"/>
<path d="M16.707 62.793C17.098 63.184 17.098 63.816 16.707 64.207L11.707 69.207C11.512 69.402 11.256 69.5 11 69.5C10.744 69.5 10.488 69.402 10.293 69.207L7.293 66.207C6.902 65.816 6.902 65.184 7.293 64.793C7.684 64.402 8.316 64.402 8.707 64.793L11 67.0861L15.293 62.793C15.684 62.402 16.316 62.402 16.707 62.793ZM22 65.5C22 71.014 17.514 75.5 12 75.5C6.486 75.5 2 71.014 2 65.5C2 59.986 6.486 55.5 12 55.5C17.514 55.5 22 59.986 22 65.5ZM20 65.5C20 61.089 16.411 57.5 12 57.5C7.589 57.5 4 61.089 4 65.5C4 69.911 7.589 73.5 12 73.5C16.411 73.5 20 69.911 20 65.5Z" fill="white" fill-opacity="0.8"/>
<path d="M33.4382 72V58.9091H38.2322C39.1612 58.9091 39.9304 59.0625 40.5398 59.3693C41.1491 59.6719 41.6051 60.0831 41.9077 60.603C42.2102 61.1186 42.3615 61.7003 42.3615 62.348C42.3615 62.8935 42.2614 63.3537 42.0611 63.7287C41.8608 64.0994 41.5923 64.3977 41.2557 64.6236C40.9233 64.8452 40.5568 65.0071 40.1562 65.1094V65.2372C40.5909 65.2585 41.0149 65.3991 41.4283 65.6591C41.8459 65.9148 42.1911 66.2791 42.4638 66.7521C42.7365 67.2251 42.8729 67.8004 42.8729 68.478C42.8729 69.147 42.7152 69.7479 42.3999 70.2805C42.0888 70.8089 41.6072 71.2287 40.9553 71.5398C40.3033 71.8466 39.4702 72 38.456 72H33.4382ZM35.4134 70.3061H38.2642C39.2102 70.3061 39.8878 70.1229 40.2969 69.7564C40.706 69.3899 40.9105 68.9318 40.9105 68.3821C40.9105 67.9687 40.8061 67.5895 40.5973 67.2443C40.3885 66.8991 40.0902 66.6243 39.7024 66.4197C39.3189 66.2152 38.8629 66.1129 38.3345 66.1129H35.4134V70.3061ZM35.4134 64.5724H38.0597C38.5028 64.5724 38.9013 64.4872 39.255 64.3168C39.6129 64.1463 39.8963 63.9077 40.1051 63.6009C40.3182 63.2898 40.4247 62.9233 40.4247 62.5014C40.4247 61.9602 40.2351 61.5064 39.8558 61.1399C39.4766 60.7734 38.8949 60.5902 38.1108 60.5902H35.4134V64.5724ZM51.7163 66.2663V67.9219H46.3981V66.2663H51.7163ZM46.935 62.1818V72H45.0621V62.1818H46.935ZM53.0522 62.1818V72H51.1857V62.1818H53.0522ZM59.8406 72.1982C58.8732 72.1982 58.0401 71.9915 57.3413 71.5781C56.6467 71.1605 56.1097 70.5746 55.7305 69.8203C55.3555 69.0618 55.168 68.1733 55.168 67.1548C55.168 66.1491 55.3555 65.2628 55.7305 64.4957C56.1097 63.7287 56.6381 63.13 57.3157 62.6996C57.9975 62.2692 58.7944 62.054 59.7063 62.054C60.2603 62.054 60.7972 62.1456 61.3171 62.3288C61.837 62.5121 62.3036 62.7997 62.717 63.1918C63.1303 63.5838 63.4563 64.093 63.695 64.7195C63.9336 65.3416 64.0529 66.098 64.0529 66.9886V67.6662H56.2482V66.2344H62.18C62.18 65.7315 62.0778 65.2862 61.8732 64.8984C61.6687 64.5064 61.381 64.1974 61.0103 63.9716C60.6438 63.7457 60.2134 63.6328 59.7191 63.6328C59.1822 63.6328 58.7134 63.7649 58.3129 64.0291C57.9165 64.2891 57.6097 64.63 57.3924 65.0518C57.1793 65.4695 57.0728 65.9233 57.0728 66.4134V67.532C57.0728 68.1882 57.1879 68.7464 57.418 69.2067C57.6523 69.6669 57.9783 70.0185 58.396 70.2614C58.8136 70.5 59.3015 70.6193 59.8597 70.6193C60.2219 70.6193 60.5522 70.5682 60.8505 70.4659C61.1488 70.3594 61.4066 70.2017 61.6239 69.9929C61.8413 69.7841 62.0075 69.5263 62.1225 69.2195L63.9315 69.5455C63.7866 70.0781 63.5266 70.5447 63.1516 70.9453C62.7809 71.3416 62.3143 71.6506 61.7518 71.8722C61.1935 72.0895 60.5565 72.1982 59.8406 72.1982ZM70.3091 72.1982C69.3588 72.1982 68.5407 71.983 67.8546 71.5526C67.1728 71.1179 66.6486 70.5192 66.2821 69.7564C65.9157 68.9936 65.7324 68.12 65.7324 67.1357C65.7324 66.1385 65.9199 65.2585 66.2949 64.4957C66.6699 63.7287 67.1983 63.13 67.8801 62.6996C68.562 62.2692 69.3652 62.054 70.29 62.054C71.0357 62.054 71.7005 62.1925 72.2843 62.4695C72.8681 62.7422 73.339 63.1257 73.6969 63.62C74.0591 64.1143 74.2743 64.6918 74.3425 65.3523H72.4824C72.3801 64.892 72.1458 64.4957 71.7793 64.1634C71.4171 63.831 70.9313 63.6648 70.3219 63.6648C69.7892 63.6648 69.3226 63.8054 68.9221 64.0866C68.5257 64.3636 68.2168 64.7599 67.9952 65.2756C67.7736 65.7869 67.6628 66.392 67.6628 67.0909C67.6628 67.8068 67.7715 68.4247 67.9888 68.9446C68.2061 69.4645 68.513 69.8672 68.9093 70.1527C69.3098 70.4382 69.7807 70.581 70.3219 70.581C70.6841 70.581 71.0123 70.5149 71.3063 70.3828C71.6046 70.2464 71.8539 70.0526 72.0542 69.8011C72.2587 69.5497 72.4015 69.2472 72.4824 68.8935H74.3425C74.2743 69.5284 74.0676 70.0952 73.7225 70.5938C73.3773 71.0923 72.915 71.4844 72.3354 71.7699C71.7601 72.0554 71.0847 72.1982 70.3091 72.1982ZM80.6179 72.1982C79.6506 72.1982 78.8175 71.9915 78.1186 71.5781C77.424 71.1605 76.8871 70.5746 76.5078 69.8203C76.1328 69.0618 75.9453 68.1733 75.9453 67.1548C75.9453 66.1491 76.1328 65.2628 76.5078 64.4957C76.8871 63.7287 77.4155 63.13 78.093 62.6996C78.7749 62.2692 79.5717 62.054 80.4837 62.054C81.0376 62.054 81.5746 62.1456 82.0945 62.3288C82.6143 62.5121 83.081 62.7997 83.4943 63.1918C83.9077 63.5838 84.2337 64.093 84.4723 64.7195C84.7109 65.3416 84.8303 66.098 84.8303 66.9886V67.6662H77.0256V66.2344H82.9574C82.9574 65.7315 82.8551 65.2862 82.6506 64.8984C82.446 64.5064 82.1584 64.1974 81.7876 63.9716C81.4212 63.7457 80.9908 63.6328 80.4964 63.6328C79.9595 63.6328 79.4908 63.7649 79.0902 64.0291C78.6939 64.2891 78.3871 64.63 78.1697 65.0518C77.9567 65.4695 77.8501 65.9233 77.8501 66.4134V67.532C77.8501 68.1882 77.9652 68.7464 78.1953 69.2067C78.4297 69.6669 78.7557 70.0185 79.1733 70.2614C79.5909 70.5 80.0788 70.6193 80.6371 70.6193C80.9993 70.6193 81.3295 70.5682 81.6278 70.4659C81.9261 70.3594 82.1839 70.2017 82.4013 69.9929C82.6186 69.7841 82.7848 69.5263 82.8999 69.2195L84.7088 69.5455C84.5639 70.0781 84.304 70.5447 83.929 70.9453C83.5582 71.3416 83.0916 71.6506 82.5291 71.8722C81.9709 72.0895 81.3338 72.1982 80.6179 72.1982ZM93.6049 66.2663V67.9219H88.2868V66.2663H93.6049ZM88.8237 62.1818V72H86.9508V62.1818H88.8237ZM94.9409 62.1818V72H93.0744V62.1818H94.9409ZM99.3706 69.3217L103.698 62.1818H105.756V72H103.883V64.8537L99.5751 72H97.4977V62.1818H99.3706V69.3217ZM112.557 72.1982C111.59 72.1982 110.757 71.9915 110.058 71.5781C109.363 71.1605 108.827 70.5746 108.447 69.8203C108.072 69.0618 107.885 68.1733 107.885 67.1548C107.885 66.1491 108.072 65.2628 108.447 64.4957C108.827 63.7287 109.355 63.13 110.032 62.6996C110.714 62.2692 111.511 62.054 112.423 62.054C112.977 62.054 113.514 62.1456 114.034 62.3288C114.554 62.5121 115.02 62.7997 115.434 63.1918C115.847 63.5838 116.173 64.093 116.412 64.7195C116.65 65.3416 116.77 66.098 116.77 66.9886V67.6662H108.965V66.2344H114.897C114.897 65.7315 114.795 65.2862 114.59 64.8984C114.385 64.5064 114.098 64.1974 113.727 63.9716C113.361 63.7457 112.93 63.6328 112.436 63.6328C111.899 63.6328 111.43 63.7649 111.03 64.0291C110.633 64.2891 110.327 64.63 110.109 65.0518C109.896 65.4695 109.79 65.9233 109.79 66.4134V67.532C109.79 68.1882 109.905 68.7464 110.135 69.2067C110.369 69.6669 110.695 70.0185 111.113 70.2614C111.53 70.5 112.018 70.6193 112.577 70.6193C112.939 70.6193 113.269 70.5682 113.567 70.4659C113.866 70.3594 114.123 70.2017 114.341 69.9929C114.558 69.7841 114.724 69.5263 114.839 69.2195L116.648 69.5455C116.503 70.0781 116.243 70.5447 115.868 70.9453C115.498 71.3416 115.031 71.6506 114.469 71.8722C113.91 72.0895 113.273 72.1982 112.557 72.1982ZM122.695 74.8317V70.3445H123.494C123.699 70.157 123.871 69.9332 124.012 69.6733C124.157 69.4134 124.278 69.1044 124.376 68.7464C124.479 68.3885 124.564 67.9709 124.632 67.4936C124.7 67.0121 124.76 66.4624 124.811 65.8445L125.118 62.1818H131.791V70.3445H133.3V74.8317H131.433V72H124.587V74.8317H122.695ZM125.54 70.3445H129.925V63.8182H126.831L126.626 65.8445C126.528 66.8757 126.405 67.7706 126.256 68.5291C126.106 69.2834 125.868 69.8885 125.54 70.3445ZM138.025 72.2173C137.403 72.2173 136.84 72.1023 136.337 71.8722C135.835 71.6378 135.436 71.299 135.142 70.8558C134.852 70.4126 134.707 69.8693 134.707 69.2259C134.707 68.6719 134.814 68.2159 135.027 67.858C135.24 67.5 135.528 67.2166 135.89 67.0078C136.252 66.799 136.657 66.6413 137.104 66.5348C137.552 66.4283 138.008 66.3473 138.472 66.2919C139.06 66.2237 139.538 66.1683 139.904 66.1257C140.271 66.0788 140.537 66.0043 140.703 65.902C140.869 65.7997 140.952 65.6335 140.952 65.4034V65.3587C140.952 64.8004 140.795 64.3679 140.479 64.0611C140.168 63.7543 139.704 63.6009 139.086 63.6009C138.442 63.6009 137.935 63.7436 137.565 64.0291C137.198 64.3104 136.945 64.6236 136.804 64.9688L135.008 64.5597C135.221 63.9631 135.532 63.4815 135.941 63.1151C136.354 62.7443 136.83 62.4759 137.366 62.3097C137.903 62.1392 138.468 62.054 139.06 62.054C139.452 62.054 139.868 62.1009 140.307 62.1946C140.75 62.2841 141.163 62.4503 141.547 62.6932C141.935 62.9361 142.252 63.2834 142.499 63.7351C142.746 64.1825 142.87 64.7642 142.87 65.4801V72H141.004V70.6577H140.927C140.803 70.9048 140.618 71.1477 140.371 71.3864C140.124 71.625 139.806 71.8232 139.418 71.9808C139.031 72.1385 138.566 72.2173 138.025 72.2173ZM138.44 70.6832C138.969 70.6832 139.42 70.5788 139.795 70.37C140.175 70.1612 140.462 69.8885 140.658 69.5518C140.859 69.2109 140.959 68.8466 140.959 68.4588V67.1932C140.891 67.2614 140.759 67.3253 140.562 67.3849C140.371 67.4403 140.151 67.4893 139.904 67.532C139.657 67.5703 139.416 67.6065 139.182 67.6406C138.947 67.6705 138.751 67.696 138.594 67.7173C138.223 67.7642 137.884 67.843 137.577 67.9538C137.275 68.0646 137.032 68.2244 136.849 68.4332C136.67 68.6378 136.58 68.9105 136.58 69.2514C136.58 69.7244 136.755 70.0824 137.104 70.3253C137.454 70.5639 137.899 70.6832 138.44 70.6832ZM152.07 66.2663V67.9219H146.752V66.2663H152.07ZM147.289 62.1818V72H145.416V62.1818H147.289ZM153.406 62.1818V72H151.539V62.1818H153.406ZM162.617 66.2663V67.9219H157.298V66.2663H162.617ZM157.835 62.1818V72H155.963V62.1818H157.835ZM163.953 62.1818V72H162.086V62.1818H163.953ZM167.948 65.5568H170.798C172 65.5568 172.925 65.8551 173.573 66.4517C174.22 67.0483 174.544 67.8175 174.544 68.7592C174.544 69.3729 174.399 69.9247 174.11 70.4148C173.82 70.9048 173.396 71.2926 172.838 71.5781C172.279 71.8594 171.6 72 170.798 72H166.509V62.1818H168.382V70.3509H170.798C171.348 70.3509 171.8 70.2081 172.154 69.9226C172.507 69.6328 172.684 69.2642 172.684 68.8168C172.684 68.3437 172.507 67.9581 172.154 67.6598C171.8 67.3572 171.348 67.206 170.798 67.206H167.948V65.5568ZM175.938 72V62.1818H177.849V72H175.938ZM181.922 62.1818L184.089 66.0043L186.275 62.1818H188.365L185.304 67.0909L188.391 72H186.301L184.089 68.331L181.884 72H179.787L182.843 67.0909L179.826 62.1818H181.922ZM194.51 69.4048H196.466C196.491 69.8054 196.672 70.1143 197.009 70.3317C197.35 70.549 197.791 70.6577 198.332 70.6577C198.882 70.6577 199.351 70.5405 199.738 70.3061C200.126 70.0675 200.32 69.6989 200.32 69.2003C200.32 68.902 200.246 68.642 200.096 68.4205C199.952 68.1946 199.745 68.0199 199.476 67.8963C199.212 67.7727 198.899 67.7109 198.537 67.7109H196.939V66.2088H198.537C199.078 66.2088 199.483 66.0852 199.751 65.8381C200.02 65.5909 200.154 65.282 200.154 64.9112C200.154 64.5107 200.009 64.1889 199.719 63.946C199.434 63.6989 199.035 63.5753 198.524 63.5753C198.004 63.5753 197.572 63.6925 197.226 63.9268C196.881 64.157 196.7 64.4553 196.683 64.8217H194.753C194.765 64.272 194.932 63.7905 195.251 63.3771C195.575 62.9595 196.01 62.6357 196.555 62.4055C197.105 62.1712 197.729 62.054 198.428 62.054C199.157 62.054 199.787 62.1712 200.32 62.4055C200.853 62.6399 201.264 62.9638 201.554 63.3771C201.848 63.7905 201.995 64.2656 201.995 64.8026C201.995 65.3437 201.833 65.7869 201.509 66.1321C201.189 66.473 200.772 66.718 200.256 66.8672V66.9695C200.635 66.995 200.972 67.1101 201.266 67.3146C201.56 67.5192 201.79 67.7898 201.956 68.1264C202.123 68.4631 202.206 68.8445 202.206 69.2706C202.206 69.8714 202.04 70.3913 201.707 70.8303C201.379 71.2692 200.923 71.608 200.339 71.8466C199.76 72.081 199.097 72.1982 198.351 72.1982C197.627 72.1982 196.977 72.0852 196.402 71.8594C195.831 71.6293 195.377 71.3054 195.04 70.8878C194.708 70.4702 194.531 69.9759 194.51 69.4048ZM207.037 72.2173C206.414 72.2173 205.852 72.1023 205.349 71.8722C204.846 71.6378 204.448 71.299 204.154 70.8558C203.864 70.4126 203.719 69.8693 203.719 69.2259C203.719 68.6719 203.826 68.2159 204.039 67.858C204.252 67.5 204.539 67.2166 204.902 67.0078C205.264 66.799 205.669 66.6413 206.116 66.5348C206.564 66.4283 207.02 66.3473 207.484 66.2919C208.072 66.2237 208.549 66.1683 208.916 66.1257C209.282 66.0788 209.549 66.0043 209.715 65.902C209.881 65.7997 209.964 65.6335 209.964 65.4034V65.3587C209.964 64.8004 209.806 64.3679 209.491 64.0611C209.18 63.7543 208.716 63.6009 208.098 63.6009C207.454 63.6009 206.947 63.7436 206.576 64.0291C206.21 64.3104 205.956 64.6236 205.816 64.9688L204.02 64.5597C204.233 63.9631 204.544 63.4815 204.953 63.1151C205.366 62.7443 205.841 62.4759 206.378 62.3097C206.915 62.1392 207.48 62.054 208.072 62.054C208.464 62.054 208.88 62.1009 209.319 62.1946C209.762 62.2841 210.175 62.4503 210.559 62.6932C210.946 62.9361 211.264 63.2834 211.511 63.7351C211.758 64.1825 211.882 64.7642 211.882 65.4801V72H210.015V70.6577H209.939C209.815 70.9048 209.63 71.1477 209.382 71.3864C209.135 71.625 208.818 71.8232 208.43 71.9808C208.042 72.1385 207.578 72.2173 207.037 72.2173ZM207.452 70.6832C207.98 70.6832 208.432 70.5788 208.807 70.37C209.186 70.1612 209.474 69.8885 209.67 69.5518C209.87 69.2109 209.971 68.8466 209.971 68.4588V67.1932C209.902 67.2614 209.77 67.3253 209.574 67.3849C209.382 67.4403 209.163 67.4893 208.916 67.532C208.669 67.5703 208.428 67.6065 208.194 67.6406C207.959 67.6705 207.763 67.696 207.605 67.7173C207.235 67.7642 206.896 67.843 206.589 67.9538C206.287 68.0646 206.044 68.2244 205.86 68.4332C205.681 68.6378 205.592 68.9105 205.592 69.2514C205.592 69.7244 205.767 70.0824 206.116 70.3253C206.466 70.5639 206.911 70.6832 207.452 70.6832ZM219.191 72V62.1818H227.2V72H225.327V63.831H221.051V72H219.191ZM232.613 72.2173C231.991 72.2173 231.428 72.1023 230.925 71.8722C230.422 71.6378 230.024 71.299 229.73 70.8558C229.44 70.4126 229.295 69.8693 229.295 69.2259C229.295 68.6719 229.402 68.2159 229.615 67.858C229.828 67.5 230.116 67.2166 230.478 67.0078C230.84 66.799 231.245 66.6413 231.692 66.5348C232.14 66.4283 232.596 66.3473 233.06 66.2919C233.648 66.2237 234.126 66.1683 234.492 66.1257C234.858 66.0788 235.125 66.0043 235.291 65.902C235.457 65.7997 235.54 65.6335 235.54 65.4034V65.3587C235.54 64.8004 235.383 64.3679 235.067 64.0611C234.756 63.7543 234.292 63.6009 233.674 63.6009C233.03 63.6009 232.523 63.7436 232.153 64.0291C231.786 64.3104 231.532 64.6236 231.392 64.9688L229.596 64.5597C229.809 63.9631 230.12 63.4815 230.529 63.1151C230.942 62.7443 231.417 62.4759 231.954 62.3097C232.491 62.1392 233.056 62.054 233.648 62.054C234.04 62.054 234.456 62.1009 234.895 62.1946C235.338 62.2841 235.751 62.4503 236.135 62.6932C236.523 62.9361 236.84 63.2834 237.087 63.7351C237.334 64.1825 237.458 64.7642 237.458 65.4801V72H235.591V70.6577H235.515C235.391 70.9048 235.206 71.1477 234.959 71.3864C234.711 71.625 234.394 71.8232 234.006 71.9808C233.618 72.1385 233.154 72.2173 232.613 72.2173ZM233.028 70.6832C233.557 70.6832 234.008 70.5788 234.383 70.37C234.763 70.1612 235.05 69.8885 235.246 69.5518C235.447 69.2109 235.547 68.8466 235.547 68.4588V67.1932C235.479 67.2614 235.346 67.3253 235.15 67.3849C234.959 67.4403 234.739 67.4893 234.492 67.532C234.245 67.5703 234.004 67.6065 233.77 67.6406C233.535 67.6705 233.339 67.696 233.182 67.7173C232.811 67.7642 232.472 67.843 232.165 67.9538C231.863 68.0646 231.62 68.2244 231.437 68.4332C231.258 68.6378 231.168 68.9105 231.168 69.2514C231.168 69.7244 231.343 70.0824 231.692 70.3253C232.042 70.5639 232.487 70.6832 233.028 70.6832ZM240.004 75.6818V62.1818H241.87V63.7734H242.03C242.141 63.5689 242.3 63.3324 242.509 63.0639C242.718 62.7955 243.008 62.5611 243.379 62.3608C243.749 62.1562 244.239 62.054 244.849 62.054C245.641 62.054 246.349 62.2543 246.971 62.6548C247.593 63.0554 248.081 63.6328 248.435 64.3871C248.793 65.1413 248.972 66.049 248.972 67.1101C248.972 68.1712 248.795 69.081 248.441 69.8395C248.087 70.5937 247.602 71.1754 246.984 71.5845C246.366 71.9893 245.661 72.1918 244.868 72.1918C244.271 72.1918 243.783 72.0916 243.404 71.8913C243.029 71.6911 242.735 71.4567 242.522 71.1882C242.309 70.9197 242.145 70.6811 242.03 70.4723H241.915V75.6818H240.004ZM241.876 67.0909C241.876 67.7812 241.977 68.3864 242.177 68.9062C242.377 69.4261 242.667 69.8331 243.046 70.1271C243.425 70.4169 243.89 70.5618 244.44 70.5618C245.011 70.5618 245.488 70.4105 245.871 70.108C246.255 69.8011 246.545 69.3857 246.741 68.8615C246.941 68.3374 247.041 67.7472 247.041 67.0909C247.041 66.4432 246.943 65.8615 246.747 65.3459C246.555 64.8303 246.266 64.4233 245.878 64.125C245.494 63.8267 245.015 63.6776 244.44 63.6776C243.886 63.6776 243.417 63.8203 243.033 64.1058C242.654 64.3913 242.366 64.7898 242.17 65.3011C241.974 65.8125 241.876 66.4091 241.876 67.0909ZM251.987 75.6818C251.702 75.6818 251.442 75.6584 251.207 75.6115C250.973 75.5689 250.798 75.522 250.683 75.4709L251.143 73.9048C251.493 73.9986 251.804 74.0391 252.077 74.0263C252.349 74.0135 252.59 73.9112 252.799 73.7195C253.012 73.5277 253.199 73.2145 253.361 72.7798L253.598 72.1278L250.006 62.1818H252.051L254.537 69.8011H254.64L257.126 62.1818H259.178L255.132 73.3104C254.944 73.8217 254.706 74.2543 254.416 74.608C254.126 74.9659 253.781 75.2344 253.381 75.4134C252.98 75.5923 252.515 75.6818 251.987 75.6818ZM265.738 72V62.1818H267.649V66.2983H268.57L271.81 62.1818H274.175L270.372 66.9567L274.22 72H271.849L268.889 68.0753H267.649V72H265.738ZM274.931 72L274.925 70.3445H275.276C275.549 70.3445 275.777 70.2869 275.96 70.1719C276.148 70.0526 276.301 69.8523 276.421 69.571C276.54 69.2898 276.632 68.902 276.695 68.4077C276.759 67.9091 276.806 67.2827 276.836 66.5284L277.009 62.1818H283.861V72H281.988V63.831H278.779L278.626 67.1676C278.588 67.9773 278.504 68.6847 278.377 69.2898C278.253 69.8949 278.072 70.3999 277.833 70.8047C277.595 71.2053 277.288 71.5057 276.913 71.706C276.538 71.902 276.082 72 275.545 72H274.931ZM288.283 69.3217L292.61 62.1818H294.668V72H292.795V64.8537L288.487 72H286.41V62.1818H288.283V69.3217ZM297.238 72V62.1818H299.149V66.2983H300.07L303.31 62.1818H305.675L301.872 66.9567L305.72 72H303.349L300.389 68.0753H299.149V72H297.238ZM310.936 72.1982C310.016 72.1982 309.212 71.9872 308.526 71.5653C307.84 71.1435 307.308 70.5533 306.928 69.7947C306.549 69.0362 306.359 68.1499 306.359 67.1357C306.359 66.1172 306.549 65.2266 306.928 64.4638C307.308 63.701 307.84 63.1087 308.526 62.6868C309.212 62.2649 310.016 62.054 310.936 62.054C311.857 62.054 312.66 62.2649 313.346 62.6868C314.032 63.1087 314.565 63.701 314.944 64.4638C315.323 65.2266 315.513 66.1172 315.513 67.1357C315.513 68.1499 315.323 69.0362 314.944 69.7947C314.565 70.5533 314.032 71.1435 313.346 71.5653C312.66 71.9872 311.857 72.1982 310.936 72.1982ZM310.942 70.5938C311.539 70.5938 312.033 70.4361 312.425 70.1207C312.817 69.8054 313.107 69.3857 313.295 68.8615C313.487 68.3374 313.582 67.7599 313.582 67.1293C313.582 66.5028 313.487 65.9276 313.295 65.4034C313.107 64.875 312.817 64.451 312.425 64.1314C312.033 63.8118 311.539 63.652 310.942 63.652C310.342 63.652 309.843 63.8118 309.447 64.1314C309.055 64.451 308.763 64.875 308.571 65.4034C308.384 65.9276 308.29 66.5028 308.29 67.1293C308.29 67.7599 308.384 68.3374 308.571 68.8615C308.763 69.3857 309.055 69.8054 309.447 70.1207C309.843 70.4361 310.342 70.5938 310.942 70.5938ZM317.646 72V62.1818H321.718C322.826 62.1818 323.704 62.4183 324.351 62.8913C324.999 63.3601 325.323 63.9972 325.323 64.8026C325.323 65.3778 325.14 65.8338 324.773 66.1705C324.407 66.5071 323.921 66.733 323.316 66.848C323.755 66.8991 324.157 67.0312 324.524 67.2443C324.89 67.4531 325.184 67.7344 325.406 68.0881C325.632 68.4418 325.745 68.8636 325.745 69.3537C325.745 69.8736 325.611 70.3338 325.342 70.7344C325.074 71.1307 324.684 71.4418 324.172 71.6676C323.665 71.8892 323.054 72 322.338 72H317.646ZM319.442 70.402H322.338C322.811 70.402 323.182 70.2891 323.45 70.0632C323.719 69.8374 323.853 69.5305 323.853 69.1428C323.853 68.6868 323.719 68.3288 323.45 68.0689C323.182 67.8047 322.811 67.6726 322.338 67.6726H319.442V70.402ZM319.442 66.2727H321.737C322.095 66.2727 322.402 66.2216 322.657 66.1193C322.917 66.017 323.116 65.8722 323.252 65.6847C323.393 65.4929 323.463 65.267 323.463 65.0071C323.463 64.6278 323.307 64.3317 322.996 64.1186C322.685 63.9055 322.259 63.799 321.718 63.799H319.442V66.2727Z" fill="white" fill-opacity="0.8"/>
<path d="M16.707 111.793C17.098 112.184 17.098 112.816 16.707 113.207L11.707 118.207C11.512 118.402 11.256 118.5 11 118.5C10.744 118.5 10.488 118.402 10.293 118.207L7.293 115.207C6.902 114.816 6.902 114.184 7.293 113.793C7.684 113.402 8.316 113.402 8.707 113.793L11 116.086L15.293 111.793C15.684 111.402 16.316 111.402 16.707 111.793ZM22 114.5C22 120.014 17.514 124.5 12 124.5C6.486 124.5 2 120.014 2 114.5C2 108.986 6.486 104.5 12 104.5C17.514 104.5 22 108.986 22 114.5ZM20 114.5C20 110.089 16.411 106.5 12 106.5C7.589 106.5 4 110.089 4 114.5C4 118.911 7.589 122.5 12 122.5C16.411 122.5 20 118.911 20 114.5Z" fill="white" fill-opacity="0.8"/>
<path d="M34.544 121H32.4474L37.1584 107.909H39.4403L44.1513 121H42.0547L38.3537 110.287H38.2514L34.544 121ZM34.8956 115.874H41.6967V117.536H34.8956V115.874ZM45.8883 121V111.182H49.9601C51.068 111.182 51.9458 111.418 52.5936 111.891C53.2413 112.36 53.5652 112.997 53.5652 113.803C53.5652 114.378 53.3819 114.834 53.0154 115.17C52.649 115.507 52.1632 115.733 51.5581 115.848C51.997 115.899 52.3997 116.031 52.7662 116.244C53.1326 116.453 53.4267 116.734 53.6483 117.088C53.8741 117.442 53.987 117.864 53.987 118.354C53.987 118.874 53.8528 119.334 53.5843 119.734C53.3159 120.131 52.926 120.442 52.4146 120.668C51.9075 120.889 51.296 121 50.5801 121H45.8883ZM47.6845 119.402H50.5801C51.0531 119.402 51.4238 119.289 51.6923 119.063C51.9608 118.837 52.095 118.531 52.095 118.143C52.095 117.687 51.9608 117.329 51.6923 117.069C51.4238 116.805 51.0531 116.673 50.5801 116.673H47.6845V119.402ZM47.6845 115.273H49.9792C50.3372 115.273 50.644 115.222 50.8997 115.119C51.1596 115.017 51.3578 114.872 51.4941 114.685C51.6348 114.493 51.7051 114.267 51.7051 114.007C51.7051 113.628 51.5495 113.332 51.2385 113.119C50.9274 112.906 50.5012 112.799 49.9601 112.799H47.6845V115.273ZM55.5339 112.831V111.182H63.818V112.831H60.6156V121H58.7491V112.831H55.5339ZM69.5181 121.198C68.5977 121.198 67.7944 120.987 67.1083 120.565C66.4222 120.143 65.8896 119.553 65.5103 118.795C65.131 118.036 64.9414 117.15 64.9414 116.136C64.9414 115.117 65.131 114.227 65.5103 113.464C65.8896 112.701 66.4222 112.109 67.1083 111.687C67.7944 111.265 68.5977 111.054 69.5181 111.054C70.4386 111.054 71.2418 111.265 71.9279 111.687C72.614 112.109 73.1467 112.701 73.5259 113.464C73.9052 114.227 74.0948 115.117 74.0948 116.136C74.0948 117.15 73.9052 118.036 73.5259 118.795C73.1467 119.553 72.614 120.143 71.9279 120.565C71.2418 120.987 70.4386 121.198 69.5181 121.198ZM69.5245 119.594C70.1211 119.594 70.6154 119.436 71.0075 119.121C71.3995 118.805 71.6893 118.386 71.8768 117.862C72.0685 117.337 72.1644 116.76 72.1644 116.129C72.1644 115.503 72.0685 114.928 71.8768 114.403C71.6893 113.875 71.3995 113.451 71.0075 113.131C70.6154 112.812 70.1211 112.652 69.5245 112.652C68.9237 112.652 68.4251 112.812 68.0288 113.131C67.6367 113.451 67.3448 113.875 67.1531 114.403C66.9656 114.928 66.8718 115.503 66.8718 116.129C66.8718 116.76 66.9656 117.337 67.1531 117.862C67.3448 118.386 67.6367 118.805 68.0288 119.121C68.4251 119.436 68.9237 119.594 69.5245 119.594ZM81.7381 118.635L84.9086 111.182H86.5577L82.4476 121H81.0286L77.0016 111.182H78.6316L81.7381 118.635ZM78.101 111.182V121H76.2282V111.182H78.101ZM85.4263 121V111.182H87.2864V121H85.4263ZM92.6909 121.217C92.0687 121.217 91.5062 121.102 91.0034 120.872C90.5005 120.638 90.1021 120.299 89.8081 119.856C89.5183 119.413 89.3734 118.869 89.3734 118.226C89.3734 117.672 89.4799 117.216 89.693 116.858C89.9061 116.5 90.1937 116.217 90.5559 116.008C90.9181 115.799 91.323 115.641 91.7704 115.535C92.2179 115.428 92.6738 115.347 93.1383 115.292C93.7264 115.224 94.2037 115.168 94.5701 115.126C94.9366 115.079 95.2029 115.004 95.3691 114.902C95.5353 114.8 95.6184 114.634 95.6184 114.403V114.359C95.6184 113.8 95.4608 113.368 95.1454 113.061C94.8343 112.754 94.3699 112.601 93.752 112.601C93.1085 112.601 92.6014 112.744 92.2306 113.029C91.8642 113.31 91.6106 113.624 91.47 113.969L89.6738 113.56C89.8869 112.963 90.198 112.482 90.6071 112.115C91.0204 111.744 91.4956 111.476 92.0325 111.31C92.5694 111.139 93.1341 111.054 93.7264 111.054C94.1184 111.054 94.5339 111.101 94.9728 111.195C95.416 111.284 95.8294 111.45 96.2129 111.693C96.6007 111.936 96.9181 112.283 97.1653 112.735C97.4125 113.183 97.536 113.764 97.536 114.48V121H95.6696V119.658H95.5929C95.4693 119.905 95.2839 120.148 95.0368 120.386C94.7896 120.625 94.4721 120.823 94.0843 120.981C93.6966 121.138 93.2321 121.217 92.6909 121.217ZM93.1064 119.683C93.6348 119.683 94.0865 119.579 94.4615 119.37C94.8407 119.161 95.1284 118.888 95.3244 118.552C95.5247 118.211 95.6248 117.847 95.6248 117.459V116.193C95.5566 116.261 95.4245 116.325 95.2285 116.385C95.0368 116.44 94.8173 116.489 94.5701 116.532C94.323 116.57 94.0822 116.607 93.8478 116.641C93.6135 116.67 93.4174 116.696 93.2598 116.717C92.889 116.764 92.5502 116.843 92.2434 116.954C91.9409 117.065 91.698 117.224 91.5147 117.433C91.3358 117.638 91.2463 117.911 91.2463 118.251C91.2463 118.724 91.421 119.082 91.7704 119.325C92.1199 119.564 92.5652 119.683 93.1064 119.683ZM98.864 112.831V111.182H107.148V112.831H103.946V121H102.079V112.831H98.864ZM111.042 118.322L115.37 111.182H117.428V121H115.555V113.854L111.247 121H109.17V111.182H111.042V118.322ZM127.879 111.182V121H126.013V111.182H127.879ZM127.067 115.739V117.388C126.773 117.508 126.462 117.614 126.134 117.708C125.806 117.798 125.461 117.868 125.099 117.919C124.736 117.97 124.359 117.996 123.967 117.996C122.753 117.996 121.787 117.7 121.072 117.107C120.356 116.511 119.998 115.599 119.998 114.371V111.163H121.858V114.371C121.858 114.836 121.943 115.213 122.113 115.503C122.284 115.793 122.527 116.006 122.842 116.142C123.157 116.278 123.532 116.347 123.967 116.347C124.542 116.347 125.073 116.293 125.559 116.187C126.049 116.076 126.552 115.927 127.067 115.739ZM134.653 121.198C133.686 121.198 132.853 120.991 132.154 120.578C131.459 120.161 130.922 119.575 130.543 118.82C130.168 118.062 129.98 117.173 129.98 116.155C129.98 115.149 130.168 114.263 130.543 113.496C130.922 112.729 131.451 112.13 132.128 111.7C132.81 111.269 133.607 111.054 134.519 111.054C135.073 111.054 135.61 111.146 136.13 111.329C136.65 111.512 137.116 111.8 137.529 112.192C137.943 112.584 138.269 113.093 138.507 113.719C138.746 114.342 138.865 115.098 138.865 115.989V116.666H131.061V115.234H136.993C136.993 114.732 136.89 114.286 136.686 113.898C136.481 113.506 136.194 113.197 135.823 112.972C135.456 112.746 135.026 112.633 134.532 112.633C133.995 112.633 133.526 112.765 133.125 113.029C132.729 113.289 132.422 113.63 132.205 114.052C131.992 114.469 131.885 114.923 131.885 115.413V116.532C131.885 117.188 132 117.746 132.23 118.207C132.465 118.667 132.791 119.018 133.208 119.261C133.626 119.5 134.114 119.619 134.672 119.619C135.034 119.619 135.365 119.568 135.663 119.466C135.961 119.359 136.219 119.202 136.436 118.993C136.654 118.784 136.82 118.526 136.935 118.219L138.744 118.545C138.599 119.078 138.339 119.545 137.964 119.945C137.593 120.342 137.127 120.651 136.564 120.872C136.006 121.089 135.369 121.198 134.653 121.198ZM145.122 121.198C144.171 121.198 143.353 120.983 142.667 120.553C141.985 120.118 141.461 119.519 141.095 118.756C140.728 117.994 140.545 117.12 140.545 116.136C140.545 115.138 140.732 114.259 141.107 113.496C141.482 112.729 142.011 112.13 142.693 111.7C143.374 111.269 144.178 111.054 145.102 111.054C145.848 111.054 146.513 111.192 147.097 111.469C147.681 111.742 148.151 112.126 148.509 112.62C148.872 113.114 149.087 113.692 149.155 114.352H147.295C147.193 113.892 146.958 113.496 146.592 113.163C146.23 112.831 145.744 112.665 145.134 112.665C144.602 112.665 144.135 112.805 143.735 113.087C143.338 113.364 143.029 113.76 142.808 114.276C142.586 114.787 142.475 115.392 142.475 116.091C142.475 116.807 142.584 117.425 142.801 117.945C143.019 118.464 143.325 118.867 143.722 119.153C144.122 119.438 144.593 119.581 145.134 119.581C145.497 119.581 145.825 119.515 146.119 119.383C146.417 119.246 146.666 119.053 146.867 118.801C147.071 118.55 147.214 118.247 147.295 117.893H149.155C149.087 118.528 148.88 119.095 148.535 119.594C148.19 120.092 147.727 120.484 147.148 120.77C146.573 121.055 145.897 121.198 145.122 121.198ZM151.199 121V111.182H153.11V115.298H154.031L157.271 111.182H159.636L155.833 115.957L159.681 121H157.31L154.35 117.075H153.11V121H151.199ZM164.897 121.198C163.977 121.198 163.173 120.987 162.487 120.565C161.801 120.143 161.268 119.553 160.889 118.795C160.51 118.036 160.32 117.15 160.32 116.136C160.32 115.117 160.51 114.227 160.889 113.464C161.268 112.701 161.801 112.109 162.487 111.687C163.173 111.265 163.977 111.054 164.897 111.054C165.817 111.054 166.621 111.265 167.307 111.687C167.993 112.109 168.526 112.701 168.905 113.464C169.284 114.227 169.474 115.117 169.474 116.136C169.474 117.15 169.284 118.036 168.905 118.795C168.526 119.553 167.993 120.143 167.307 120.565C166.621 120.987 165.817 121.198 164.897 121.198ZM164.903 119.594C165.5 119.594 165.994 119.436 166.386 119.121C166.778 118.805 167.068 118.386 167.256 117.862C167.447 117.337 167.543 116.76 167.543 116.129C167.543 115.503 167.447 114.928 167.256 114.403C167.068 113.875 166.778 113.451 166.386 113.131C165.994 112.812 165.5 112.652 164.903 112.652C164.303 112.652 163.804 112.812 163.408 113.131C163.016 113.451 162.724 113.875 162.532 114.403C162.344 114.928 162.251 115.503 162.251 116.129C162.251 116.76 162.344 117.337 162.532 117.862C162.724 118.386 163.016 118.805 163.408 119.121C163.804 119.436 164.303 119.594 164.903 119.594ZM175.839 121.198C174.871 121.198 174.038 120.991 173.339 120.578C172.645 120.161 172.108 119.575 171.729 118.82C171.354 118.062 171.166 117.173 171.166 116.155C171.166 115.149 171.354 114.263 171.729 113.496C172.108 112.729 172.636 112.13 173.314 111.7C173.996 111.269 174.792 111.054 175.704 111.054C176.258 111.054 176.795 111.146 177.315 111.329C177.835 111.512 178.302 111.8 178.715 112.192C179.128 112.584 179.454 113.093 179.693 113.719C179.932 114.342 180.051 115.098 180.051 115.989V116.666H172.246V115.234H178.178C178.178 114.732 178.076 114.286 177.871 113.898C177.667 113.506 177.379 113.197 177.008 112.972C176.642 112.746 176.211 112.633 175.717 112.633C175.18 112.633 174.711 112.765 174.311 113.029C173.915 113.289 173.608 113.63 173.39 114.052C173.177 114.469 173.071 114.923 173.071 115.413V116.532C173.071 117.188 173.186 117.746 173.416 118.207C173.65 118.667 173.976 119.018 174.394 119.261C174.812 119.5 175.3 119.619 175.858 119.619C176.22 119.619 176.55 119.568 176.849 119.466C177.147 119.359 177.405 119.202 177.622 118.993C177.839 118.784 178.006 118.526 178.121 118.219L179.93 118.545C179.785 119.078 179.525 119.545 179.15 119.945C178.779 120.342 178.312 120.651 177.75 120.872C177.192 121.089 176.555 121.198 175.839 121.198ZM186.935 121V111.182H194.944V121H193.072V112.831H188.795V121H186.935ZM201.635 121.198C200.715 121.198 199.912 120.987 199.225 120.565C198.539 120.143 198.007 119.553 197.627 118.795C197.248 118.036 197.059 117.15 197.059 116.136C197.059 115.117 197.248 114.227 197.627 113.464C198.007 112.701 198.539 112.109 199.225 111.687C199.912 111.265 200.715 111.054 201.635 111.054C202.556 111.054 203.359 111.265 204.045 111.687C204.731 112.109 205.264 112.701 205.643 113.464C206.022 114.227 206.212 115.117 206.212 116.136C206.212 117.15 206.022 118.036 205.643 118.795C205.264 119.553 204.731 120.143 204.045 120.565C203.359 120.987 202.556 121.198 201.635 121.198ZM201.642 119.594C202.238 119.594 202.733 119.436 203.125 119.121C203.517 118.805 203.806 118.386 203.994 117.862C204.186 117.337 204.282 116.76 204.282 116.129C204.282 115.503 204.186 114.928 203.994 114.403C203.806 113.875 203.517 113.451 203.125 113.131C202.733 112.812 202.238 112.652 201.642 112.652C201.041 112.652 200.542 112.812 200.146 113.131C199.754 113.451 199.462 113.875 199.27 114.403C199.083 114.928 198.989 115.503 198.989 116.129C198.989 116.76 199.083 117.337 199.27 117.862C199.462 118.386 199.754 118.805 200.146 119.121C200.542 119.436 201.041 119.594 201.642 119.594ZM207.572 121L207.566 119.344H207.917C208.19 119.344 208.418 119.287 208.601 119.172C208.789 119.053 208.942 118.852 209.061 118.571C209.181 118.29 209.272 117.902 209.336 117.408C209.4 116.909 209.447 116.283 209.477 115.528L209.649 111.182H216.502V121H214.629V112.831H211.42L211.267 116.168C211.228 116.977 211.145 117.685 211.017 118.29C210.894 118.895 210.713 119.4 210.474 119.805C210.235 120.205 209.928 120.506 209.553 120.706C209.178 120.902 208.722 121 208.186 121H207.572ZM219.907 124.682C219.621 124.682 219.362 124.658 219.127 124.612C218.893 124.569 218.718 124.522 218.603 124.471L219.063 122.905C219.413 122.999 219.724 123.039 219.996 123.026C220.269 123.013 220.51 122.911 220.719 122.719C220.932 122.528 221.119 122.214 221.281 121.78L221.518 121.128L217.925 111.182H219.971L222.457 118.801H222.56L225.046 111.182H227.098L223.052 122.31C222.864 122.822 222.626 123.254 222.336 123.608C222.046 123.966 221.701 124.234 221.3 124.413C220.9 124.592 220.435 124.682 219.907 124.682ZM236.494 111.182V121H234.628V111.182H236.494ZM235.683 115.739V117.388C235.388 117.508 235.077 117.614 234.749 117.708C234.421 117.798 234.076 117.868 233.714 117.919C233.352 117.97 232.974 117.996 232.582 117.996C231.368 117.996 230.403 117.7 229.687 117.107C228.971 116.511 228.613 115.599 228.613 114.371V111.163H230.473V114.371C230.473 114.836 230.558 115.213 230.729 115.503C230.899 115.793 231.142 116.006 231.457 116.142C231.773 116.278 232.148 116.347 232.582 116.347C233.158 116.347 233.688 116.293 234.174 116.187C234.664 116.076 235.167 115.927 235.683 115.739ZM243.268 121.198C242.301 121.198 241.468 120.991 240.769 120.578C240.074 120.161 239.537 119.575 239.158 118.82C238.783 118.062 238.596 117.173 238.596 116.155C238.596 115.149 238.783 114.263 239.158 113.496C239.537 112.729 240.066 112.13 240.743 111.7C241.425 111.269 242.222 111.054 243.134 111.054C243.688 111.054 244.225 111.146 244.745 111.329C245.265 111.512 245.731 111.8 246.145 112.192C246.558 112.584 246.884 113.093 247.123 113.719C247.361 114.342 247.481 115.098 247.481 115.989V116.666H239.676V115.234H245.608C245.608 114.732 245.506 114.286 245.301 113.898C245.096 113.506 244.809 113.197 244.438 112.972C244.072 112.746 243.641 112.633 243.147 112.633C242.61 112.633 242.141 112.765 241.741 113.029C241.344 113.289 241.037 113.63 240.82 114.052C240.607 114.469 240.501 114.923 240.501 115.413V116.532C240.501 117.188 240.616 117.746 240.846 118.207C241.08 118.667 241.406 119.018 241.824 119.261C242.241 119.5 242.729 119.619 243.287 119.619C243.65 119.619 243.98 119.568 244.278 119.466C244.577 119.359 244.834 119.202 245.052 118.993C245.269 118.784 245.435 118.526 245.55 118.219L247.359 118.545C247.214 119.078 246.954 119.545 246.579 119.945C246.209 120.342 245.742 120.651 245.18 120.872C244.621 121.089 243.984 121.198 243.268 121.198ZM256.255 115.266V116.922H250.937V115.266H256.255ZM251.474 111.182V121H249.601V111.182H251.474ZM257.591 111.182V121H255.725V111.182H257.591ZM262.021 118.322L266.348 111.182H268.407V121H266.534V113.854L262.225 121H260.148V111.182H262.021V118.322ZM275.208 121.198C274.24 121.198 273.407 120.991 272.708 120.578C272.014 120.161 271.477 119.575 271.098 118.82C270.723 118.062 270.535 117.173 270.535 116.155C270.535 115.149 270.723 114.263 271.098 113.496C271.477 112.729 272.005 112.13 272.683 111.7C273.365 111.269 274.162 111.054 275.074 111.054C275.627 111.054 276.164 111.146 276.684 111.329C277.204 111.512 277.671 111.8 278.084 112.192C278.498 112.584 278.824 113.093 279.062 113.719C279.301 114.342 279.42 115.098 279.42 115.989V116.666H271.615V115.234H277.547C277.547 114.732 277.445 114.286 277.24 113.898C277.036 113.506 276.748 113.197 276.377 112.972C276.011 112.746 275.581 112.633 275.086 112.633C274.549 112.633 274.081 112.765 273.68 113.029C273.284 113.289 272.977 113.63 272.76 114.052C272.547 114.469 272.44 114.923 272.44 115.413V116.532C272.44 117.188 272.555 117.746 272.785 118.207C273.02 118.667 273.346 119.018 273.763 119.261C274.181 119.5 274.669 119.619 275.227 119.619C275.589 119.619 275.919 119.568 276.218 119.466C276.516 119.359 276.774 119.202 276.991 118.993C277.208 118.784 277.375 118.526 277.49 118.219L279.299 118.545C279.154 119.078 278.894 119.545 278.519 119.945C278.148 120.342 277.681 120.651 277.119 120.872C276.561 121.089 275.924 121.198 275.208 121.198ZM285.346 123.832V119.344H286.145C286.349 119.157 286.522 118.933 286.662 118.673C286.807 118.413 286.929 118.104 287.027 117.746C287.129 117.388 287.214 116.971 287.282 116.494C287.35 116.012 287.41 115.462 287.461 114.844L287.768 111.182H294.441V119.344H295.95V123.832H294.083V121H287.238V123.832H285.346ZM288.19 119.344H292.575V112.818H289.481L289.277 114.844C289.179 115.876 289.055 116.771 288.906 117.529C288.757 118.283 288.518 118.888 288.19 119.344ZM300.675 121.217C300.053 121.217 299.491 121.102 298.988 120.872C298.485 120.638 298.086 120.299 297.792 119.856C297.503 119.413 297.358 118.869 297.358 118.226C297.358 117.672 297.464 117.216 297.677 116.858C297.89 116.5 298.178 116.217 298.54 116.008C298.903 115.799 299.307 115.641 299.755 115.535C300.202 115.428 300.658 115.347 301.123 115.292C301.711 115.224 302.188 115.168 302.555 115.126C302.921 115.079 303.187 115.004 303.354 114.902C303.52 114.8 303.603 114.634 303.603 114.403V114.359C303.603 113.8 303.445 113.368 303.13 113.061C302.819 112.754 302.354 112.601 301.736 112.601C301.093 112.601 300.586 112.744 300.215 113.029C299.849 113.31 299.595 113.624 299.454 113.969L297.658 113.56C297.871 112.963 298.182 112.482 298.591 112.115C299.005 111.744 299.48 111.476 300.017 111.31C300.554 111.139 301.118 111.054 301.711 111.054C302.103 111.054 302.518 111.101 302.957 111.195C303.4 111.284 303.814 111.45 304.197 111.693C304.585 111.936 304.903 112.283 305.15 112.735C305.397 113.183 305.52 113.764 305.52 114.48V121H303.654V119.658H303.577C303.454 119.905 303.268 120.148 303.021 120.386C302.774 120.625 302.456 120.823 302.069 120.981C301.681 121.138 301.216 121.217 300.675 121.217ZM301.091 119.683C301.619 119.683 302.071 119.579 302.446 119.37C302.825 119.161 303.113 118.888 303.309 118.552C303.509 118.211 303.609 117.847 303.609 117.459V116.193C303.541 116.261 303.409 116.325 303.213 116.385C303.021 116.44 302.802 116.489 302.555 116.532C302.307 116.57 302.067 116.607 301.832 116.641C301.598 116.67 301.402 116.696 301.244 116.717C300.873 116.764 300.535 116.843 300.228 116.954C299.925 117.065 299.682 117.224 299.499 117.433C299.32 117.638 299.231 117.911 299.231 118.251C299.231 118.724 299.405 119.082 299.755 119.325C300.104 119.564 300.55 119.683 301.091 119.683ZM314.72 115.266V116.922H309.402V115.266H314.72ZM309.939 111.182V121H308.066V111.182H309.939ZM316.056 111.182V121H314.19V111.182H316.056ZM325.267 115.266V116.922H319.949V115.266H325.267ZM320.486 111.182V121H318.613V111.182H320.486ZM326.603 111.182V121H324.737V111.182H326.603ZM330.598 114.557H333.449C334.651 114.557 335.575 114.855 336.223 115.452C336.871 116.048 337.195 116.817 337.195 117.759C337.195 118.373 337.05 118.925 336.76 119.415C336.47 119.905 336.046 120.293 335.488 120.578C334.93 120.859 334.25 121 333.449 121H329.16V111.182H331.033V119.351H333.449C333.999 119.351 334.45 119.208 334.804 118.923C335.158 118.633 335.335 118.264 335.335 117.817C335.335 117.344 335.158 116.958 334.804 116.66C334.45 116.357 333.999 116.206 333.449 116.206H330.598V114.557ZM338.588 121V111.182H340.499V121H338.588ZM344.573 111.182L346.74 115.004L348.926 111.182H351.016L347.954 116.091L351.041 121H348.951L346.74 117.331L344.534 121H342.438L345.493 116.091L342.476 111.182H344.573ZM357.742 121V111.182H365.751V121H363.878V112.831H359.602V121H357.742ZM372.442 121.198C371.521 121.198 370.718 120.987 370.032 120.565C369.346 120.143 368.813 119.553 368.434 118.795C368.055 118.036 367.865 117.15 367.865 116.136C367.865 115.117 368.055 114.227 368.434 113.464C368.813 112.701 369.346 112.109 370.032 111.687C370.718 111.265 371.521 111.054 372.442 111.054C373.362 111.054 374.166 111.265 374.852 111.687C375.538 112.109 376.07 112.701 376.45 113.464C376.829 114.227 377.019 115.117 377.019 116.136C377.019 117.15 376.829 118.036 376.45 118.795C376.07 119.553 375.538 120.143 374.852 120.565C374.166 120.987 373.362 121.198 372.442 121.198ZM372.448 119.594C373.045 119.594 373.539 119.436 373.931 119.121C374.323 118.805 374.613 118.386 374.801 117.862C374.992 117.337 375.088 116.76 375.088 116.129C375.088 115.503 374.992 114.928 374.801 114.403C374.613 113.875 374.323 113.451 373.931 113.131C373.539 112.812 373.045 112.652 372.448 112.652C371.847 112.652 371.349 112.812 370.953 113.131C370.561 113.451 370.269 113.875 370.077 114.403C369.889 114.928 369.796 115.503 369.796 116.129C369.796 116.76 369.889 117.337 370.077 117.862C370.269 118.386 370.561 118.805 370.953 119.121C371.349 119.436 371.847 119.594 372.448 119.594ZM385.175 121H383.078L387.789 107.909H390.071L394.782 121H392.686L388.985 110.287H388.882L385.175 121ZM385.526 115.874H392.328V117.536H385.526V115.874ZM396.673 121V107.909H401.339C402.357 107.909 403.201 108.094 403.87 108.465C404.539 108.836 405.04 109.343 405.372 109.987C405.705 110.626 405.871 111.346 405.871 112.147C405.871 112.952 405.702 113.677 405.366 114.32C405.033 114.96 404.531 115.467 403.857 115.842C403.188 116.212 402.347 116.398 401.332 116.398H398.124V114.723H401.153C401.797 114.723 402.319 114.612 402.719 114.391C403.12 114.165 403.414 113.858 403.602 113.47C403.789 113.082 403.883 112.641 403.883 112.147C403.883 111.653 403.789 111.214 403.602 110.83C403.414 110.447 403.118 110.146 402.713 109.929C402.313 109.712 401.784 109.603 401.128 109.603H398.648V121H396.673ZM410.161 107.909V121H408.186V107.909H410.161Z" fill="white" fill-opacity="0.8"/>
<path d="M16.707 160.793C17.098 161.184 17.098 161.816 16.707 162.207L11.707 167.207C11.512 167.402 11.256 167.5 11 167.5C10.744 167.5 10.488 167.402 10.293 167.207L7.293 164.207C6.902 163.816 6.902 163.184 7.293 162.793C7.684 162.402 8.316 162.402 8.707 162.793L11 165.086L15.293 160.793C15.684 160.402 16.316 160.402 16.707 160.793ZM22 163.5C22 169.014 17.514 173.5 12 173.5C6.486 173.5 2 169.014 2 163.5C2 157.986 6.486 153.5 12 153.5C17.514 153.5 22 157.986 22 163.5ZM20 163.5C20 159.089 16.411 155.5 12 155.5C7.589 155.5 4 159.089 4 163.5C4 167.911 7.589 171.5 12 171.5C16.411 171.5 20 167.911 20 163.5Z" fill="white" fill-opacity="0.8"/>
<path d="M34.3651 170.179V168.44H35.1513C35.4794 168.44 35.75 168.385 35.9631 168.274C36.1804 168.163 36.3572 168.014 36.4936 167.827C36.6342 167.635 36.7514 167.426 36.8452 167.2L37.0305 166.734L32.4283 156.909H34.5249L37.9574 164.477L41.0128 156.909H43.0838L38.5582 167.731C38.3665 168.165 38.1449 168.568 37.8935 168.939C37.6463 169.31 37.3161 169.61 36.9027 169.84C36.4893 170.066 35.9418 170.179 35.2599 170.179H34.3651ZM43.8397 172.832V168.344H44.6387C44.8432 168.157 45.0158 167.933 45.1564 167.673C45.3013 167.413 45.4228 167.104 45.5208 166.746C45.623 166.388 45.7083 165.971 45.7765 165.494C45.8446 165.012 45.9043 164.462 45.9554 163.844L46.2623 160.182H52.9355V168.344H54.4441V172.832H52.5776V170H45.7317V172.832H43.8397ZM46.6841 168.344H51.0691V161.818H47.9753L47.7708 163.844C47.6728 164.876 47.5492 165.771 47.4 166.529C47.2509 167.283 47.0123 167.888 46.6841 168.344ZM60.4478 170.198C59.5273 170.198 58.7241 169.987 58.038 169.565C57.3519 169.143 56.8192 168.553 56.44 167.795C56.0607 167.036 55.8711 166.15 55.8711 165.136C55.8711 164.117 56.0607 163.227 56.44 162.464C56.8192 161.701 57.3519 161.109 58.038 160.687C58.7241 160.265 59.5273 160.054 60.4478 160.054C61.3683 160.054 62.1715 160.265 62.8576 160.687C63.5437 161.109 64.0763 161.701 64.4556 162.464C64.8349 163.227 65.0245 164.117 65.0245 165.136C65.0245 166.15 64.8349 167.036 64.4556 167.795C64.0763 168.553 63.5437 169.143 62.8576 169.565C62.1715 169.987 61.3683 170.198 60.4478 170.198ZM60.4542 168.594C61.0508 168.594 61.5451 168.436 61.9371 168.121C62.3292 167.805 62.619 167.386 62.8065 166.862C62.9982 166.337 63.0941 165.76 63.0941 165.129C63.0941 164.503 62.9982 163.928 62.8065 163.403C62.619 162.875 62.3292 162.451 61.9371 162.131C61.5451 161.812 61.0508 161.652 60.4542 161.652C59.8533 161.652 59.3548 161.812 58.9585 162.131C58.5664 162.451 58.2745 162.875 58.0827 163.403C57.8952 163.928 57.8015 164.503 57.8015 165.129C57.8015 165.76 57.8952 166.337 58.0827 166.862C58.2745 167.386 58.5664 167.805 58.9585 168.121C59.3548 168.436 59.8533 168.594 60.4542 168.594ZM74.7324 156.526L75.525 157.734C75.231 158.002 74.8965 158.194 74.5215 158.309C74.1507 158.42 73.7225 158.49 73.2367 158.52C72.7509 158.545 72.1948 158.569 71.5684 158.59C70.861 158.612 70.2793 158.765 69.8233 159.05C69.3674 159.332 69.0158 159.749 68.7686 160.303C68.5257 160.853 68.3681 161.543 68.2956 162.374H68.4171C68.7367 161.765 69.1799 161.309 69.7466 161.006C70.3176 160.704 70.959 160.553 71.6706 160.553C72.4632 160.553 73.1685 160.734 73.7864 161.096C74.4043 161.458 74.8901 161.989 75.2438 162.688C75.6017 163.382 75.7807 164.232 75.7807 165.238C75.7807 166.256 75.5932 167.136 75.2182 167.878C74.8475 168.619 74.3233 169.192 73.6458 169.597C72.9725 169.998 72.1777 170.198 71.2615 170.198C70.3453 170.198 69.5463 169.991 68.8645 169.578C68.187 169.161 67.6607 168.543 67.2857 167.724C66.915 166.906 66.7296 165.896 66.7296 164.695V163.723C66.7296 161.477 67.1301 159.788 67.9313 158.654C68.7324 157.521 69.9299 156.939 71.5236 156.909C72.0392 156.896 72.4995 156.894 72.9043 156.903C73.3091 156.907 73.6628 156.888 73.9654 156.845C74.2722 156.798 74.5279 156.692 74.7324 156.526ZM71.2679 168.594C71.8006 168.594 72.2587 168.46 72.6422 168.191C73.03 167.918 73.3283 167.533 73.5371 167.034C73.7459 166.536 73.8503 165.947 73.8503 165.27C73.8503 164.605 73.7459 164.04 73.5371 163.576C73.3283 163.112 73.03 162.758 72.6422 162.515C72.2544 162.268 71.79 162.144 71.2488 162.144C70.8482 162.144 70.4902 162.214 70.1749 162.355C69.8596 162.491 69.589 162.694 69.3631 162.962C69.1415 163.231 68.9689 163.559 68.8453 163.947C68.726 164.33 68.6621 164.771 68.6536 165.27C68.6536 166.284 68.8858 167.092 69.3503 167.692C69.8191 168.293 70.4583 168.594 71.2679 168.594ZM84.5698 164.266V165.922H79.2516V164.266H84.5698ZM79.7885 160.182V170H77.9157V160.182H79.7885ZM85.9057 160.182V170H84.0392V160.182H85.9057ZM91.3198 170.217C90.6976 170.217 90.1351 170.102 89.6323 169.872C89.1294 169.638 88.731 169.299 88.437 168.856C88.1472 168.413 88.0023 167.869 88.0023 167.226C88.0023 166.672 88.1088 166.216 88.3219 165.858C88.535 165.5 88.8226 165.217 89.1848 165.008C89.5471 164.799 89.9519 164.641 90.3993 164.535C90.8468 164.428 91.3027 164.347 91.7672 164.292C92.3553 164.224 92.8326 164.168 93.199 164.126C93.5655 164.079 93.8319 164.004 93.998 163.902C94.1642 163.8 94.2473 163.634 94.2473 163.403V163.359C94.2473 162.8 94.0897 162.368 93.7743 162.061C93.4632 161.754 92.9988 161.601 92.3809 161.601C91.7374 161.601 91.2303 161.744 90.8596 162.029C90.4931 162.31 90.2395 162.624 90.0989 162.969L88.3027 162.56C88.5158 161.963 88.8269 161.482 89.236 161.115C89.6493 160.744 90.1245 160.476 90.6614 160.31C91.1983 160.139 91.763 160.054 92.3553 160.054C92.7473 160.054 93.1628 160.101 93.6017 160.195C94.0449 160.284 94.4583 160.45 94.8418 160.693C95.2296 160.936 95.5471 161.283 95.7942 161.735C96.0414 162.183 96.165 162.764 96.165 163.48V170H94.2985V168.658H94.2218C94.0982 168.905 93.9128 169.148 93.6657 169.386C93.4185 169.625 93.101 169.823 92.7132 169.981C92.3255 170.138 91.861 170.217 91.3198 170.217ZM91.7353 168.683C92.2637 168.683 92.7154 168.579 93.0904 168.37C93.4696 168.161 93.7573 167.888 93.9533 167.552C94.1536 167.211 94.2537 166.847 94.2537 166.459V165.193C94.1855 165.261 94.0534 165.325 93.8574 165.385C93.6657 165.44 93.4462 165.489 93.199 165.532C92.9519 165.57 92.7111 165.607 92.4767 165.641C92.2424 165.67 92.0463 165.696 91.8887 165.717C91.5179 165.764 91.1792 165.843 90.8723 165.954C90.5698 166.065 90.3269 166.224 90.1436 166.433C89.9647 166.638 89.8752 166.911 89.8752 167.251C89.8752 167.724 90.0499 168.082 90.3993 168.325C90.7488 168.564 91.1941 168.683 91.7353 168.683ZM104.566 170V161.812H102.213C101.655 161.812 101.221 161.942 100.909 162.202C100.598 162.462 100.443 162.803 100.443 163.224C100.443 163.642 100.586 163.979 100.871 164.234C101.161 164.486 101.566 164.612 102.086 164.612H105.122V166.158H102.086C101.361 166.158 100.735 166.039 100.206 165.8C99.6822 165.558 99.2773 165.214 98.9918 164.771C98.7106 164.328 98.57 163.804 98.57 163.199C98.57 162.581 98.7148 162.048 99.0046 161.601C99.2987 161.149 99.7184 160.8 100.264 160.553C100.814 160.305 101.463 160.182 102.213 160.182H106.362V170H104.566ZM98.1225 170L100.89 165.04H102.846L100.078 170H98.1225ZM119.18 167.635L122.35 160.182H123.999L119.889 170H118.47L114.443 160.182H116.073L119.18 167.635ZM115.542 160.182V170H113.67V160.182H115.542ZM122.868 170V160.182H124.728V170H122.868ZM131.411 170.198C130.49 170.198 129.687 169.987 129.001 169.565C128.315 169.143 127.782 168.553 127.403 167.795C127.024 167.036 126.834 166.15 126.834 165.136C126.834 164.117 127.024 163.227 127.403 162.464C127.782 161.701 128.315 161.109 129.001 160.687C129.687 160.265 130.49 160.054 131.411 160.054C132.331 160.054 133.134 160.265 133.82 160.687C134.507 161.109 135.039 161.701 135.419 162.464C135.798 163.227 135.987 164.117 135.987 165.136C135.987 166.15 135.798 167.036 135.419 167.795C135.039 168.553 134.507 169.143 133.82 169.565C133.134 169.987 132.331 170.198 131.411 170.198ZM131.417 168.594C132.014 168.594 132.508 168.436 132.9 168.121C133.292 167.805 133.582 167.386 133.769 166.862C133.961 166.337 134.057 165.76 134.057 165.129C134.057 164.503 133.961 163.928 133.769 163.403C133.582 162.875 133.292 162.451 132.9 162.131C132.508 161.812 132.014 161.652 131.417 161.652C130.816 161.652 130.318 161.812 129.921 162.131C129.529 162.451 129.237 162.875 129.046 163.403C128.858 163.928 128.764 164.503 128.764 165.129C128.764 165.76 128.858 166.337 129.046 166.862C129.237 167.386 129.529 167.805 129.921 168.121C130.318 168.436 130.816 168.594 131.417 168.594ZM145.695 156.526L146.488 157.734C146.194 158.002 145.859 158.194 145.484 158.309C145.114 158.42 144.685 158.49 144.2 158.52C143.714 158.545 143.158 158.569 142.531 158.59C141.824 158.612 141.242 158.765 140.786 159.05C140.33 159.332 139.979 159.749 139.732 160.303C139.489 160.853 139.331 161.543 139.259 162.374H139.38C139.7 161.765 140.143 161.309 140.71 161.006C141.281 160.704 141.922 160.553 142.634 160.553C143.426 160.553 144.131 160.734 144.749 161.096C145.367 161.458 145.853 161.989 146.207 162.688C146.565 163.382 146.744 164.232 146.744 165.238C146.744 166.256 146.556 167.136 146.181 167.878C145.81 168.619 145.286 169.192 144.609 169.597C143.935 169.998 143.141 170.198 142.224 170.198C141.308 170.198 140.509 169.991 139.827 169.578C139.15 169.161 138.624 168.543 138.249 167.724C137.878 166.906 137.692 165.896 137.692 164.695V163.723C137.692 161.477 138.093 159.788 138.894 158.654C139.695 157.521 140.893 156.939 142.487 156.909C143.002 156.896 143.462 156.894 143.867 156.903C144.272 156.907 144.626 156.888 144.928 156.845C145.235 156.798 145.491 156.692 145.695 156.526ZM142.231 168.594C142.763 168.594 143.222 168.46 143.605 168.191C143.993 167.918 144.291 167.533 144.5 167.034C144.709 166.536 144.813 165.947 144.813 165.27C144.813 164.605 144.709 164.04 144.5 163.576C144.291 163.112 143.993 162.758 143.605 162.515C143.217 162.268 142.753 162.144 142.212 162.144C141.811 162.144 141.453 162.214 141.138 162.355C140.822 162.491 140.552 162.694 140.326 162.962C140.104 163.231 139.932 163.559 139.808 163.947C139.689 164.33 139.625 164.771 139.616 165.27C139.616 166.284 139.849 167.092 140.313 167.692C140.782 168.293 141.421 168.594 142.231 168.594ZM150.751 167.322L155.079 160.182H157.137V170H155.264V162.854L150.956 170H148.879V160.182H150.751V167.322ZM158.933 170L158.927 168.344H159.278C159.551 168.344 159.779 168.287 159.962 168.172C160.15 168.053 160.303 167.852 160.423 167.571C160.542 167.29 160.634 166.902 160.697 166.408C160.761 165.909 160.808 165.283 160.838 164.528L161.011 160.182H167.863V170H165.99V161.831H162.781L162.628 165.168C162.589 165.977 162.506 166.685 162.379 167.29C162.255 167.895 162.074 168.4 161.835 168.805C161.597 169.205 161.29 169.506 160.915 169.706C160.54 169.902 160.084 170 159.547 170H158.933ZM171.85 163.557H174.701C175.903 163.557 176.827 163.855 177.475 164.452C178.123 165.048 178.447 165.817 178.447 166.759C178.447 167.373 178.302 167.925 178.012 168.415C177.722 168.905 177.298 169.293 176.74 169.578C176.182 169.859 175.502 170 174.701 170H170.412V160.182H172.285V168.351H174.701C175.251 168.351 175.702 168.208 176.056 167.923C176.41 167.633 176.586 167.264 176.586 166.817C176.586 166.344 176.41 165.958 176.056 165.66C175.702 165.357 175.251 165.206 174.701 165.206H171.85V163.557ZM187.244 164.266V165.922H181.925V164.266H187.244ZM182.462 160.182V170H180.589V160.182H182.462ZM188.58 160.182V170H186.713V160.182H188.58ZM193.994 170.217C193.371 170.217 192.809 170.102 192.306 169.872C191.803 169.638 191.405 169.299 191.111 168.856C190.821 168.413 190.676 167.869 190.676 167.226C190.676 166.672 190.783 166.216 190.996 165.858C191.209 165.5 191.496 165.217 191.859 165.008C192.221 164.799 192.626 164.641 193.073 164.535C193.521 164.428 193.977 164.347 194.441 164.292C195.029 164.224 195.506 164.168 195.873 164.126C196.239 164.079 196.506 164.004 196.672 163.902C196.838 163.8 196.921 163.634 196.921 163.403V163.359C196.921 162.8 196.763 162.368 196.448 162.061C196.137 161.754 195.673 161.601 195.055 161.601C194.411 161.601 193.904 161.744 193.533 162.029C193.167 162.31 192.913 162.624 192.773 162.969L190.977 162.56C191.19 161.963 191.501 161.482 191.91 161.115C192.323 160.744 192.798 160.476 193.335 160.31C193.872 160.139 194.437 160.054 195.029 160.054C195.421 160.054 195.837 160.101 196.276 160.195C196.719 160.284 197.132 160.45 197.516 160.693C197.903 160.936 198.221 161.283 198.468 161.735C198.715 162.183 198.839 162.764 198.839 163.48V170H196.972V168.658H196.896C196.772 168.905 196.587 169.148 196.339 169.386C196.092 169.625 195.775 169.823 195.387 169.981C194.999 170.138 194.535 170.217 193.994 170.217ZM194.409 168.683C194.938 168.683 195.389 168.579 195.764 168.37C196.143 168.161 196.431 167.888 196.627 167.552C196.827 167.211 196.928 166.847 196.928 166.459V165.193C196.859 165.261 196.727 165.325 196.531 165.385C196.339 165.44 196.12 165.489 195.873 165.532C195.626 165.57 195.385 165.607 195.151 165.641C194.916 165.67 194.72 165.696 194.562 165.717C194.192 165.764 193.853 165.843 193.546 165.954C193.244 166.065 193.001 166.224 192.817 166.433C192.638 166.638 192.549 166.911 192.549 167.251C192.549 167.724 192.724 168.082 193.073 168.325C193.423 168.564 193.868 168.683 194.409 168.683ZM207.24 170V161.812H204.887C204.329 161.812 203.894 161.942 203.583 162.202C203.272 162.462 203.117 162.803 203.117 163.224C203.117 163.642 203.259 163.979 203.545 164.234C203.835 164.486 204.24 164.612 204.759 164.612H207.796V166.158H204.759C204.035 166.158 203.409 166.039 202.88 165.8C202.356 165.558 201.951 165.214 201.666 164.771C201.384 164.328 201.244 163.804 201.244 163.199C201.244 162.581 201.389 162.048 201.678 161.601C201.972 161.149 202.392 160.8 202.938 160.553C203.487 160.305 204.137 160.182 204.887 160.182H209.036V170H207.24ZM200.796 170L203.564 165.04H205.52L202.752 170H200.796ZM216.343 170V160.182H220.415C221.523 160.182 222.401 160.418 223.049 160.891C223.696 161.36 224.02 161.997 224.02 162.803C224.02 163.378 223.837 163.834 223.471 164.17C223.104 164.507 222.618 164.733 222.013 164.848C222.452 164.899 222.855 165.031 223.221 165.244C223.588 165.453 223.882 165.734 224.103 166.088C224.329 166.442 224.442 166.864 224.442 167.354C224.442 167.874 224.308 168.334 224.039 168.734C223.771 169.131 223.381 169.442 222.87 169.668C222.363 169.889 221.751 170 221.035 170H216.343ZM218.14 168.402H221.035C221.508 168.402 221.879 168.289 222.147 168.063C222.416 167.837 222.55 167.531 222.55 167.143C222.55 166.687 222.416 166.329 222.147 166.069C221.879 165.805 221.508 165.673 221.035 165.673H218.14V168.402ZM218.14 164.273H220.434C220.792 164.273 221.099 164.222 221.355 164.119C221.615 164.017 221.813 163.872 221.949 163.685C222.09 163.493 222.16 163.267 222.16 163.007C222.16 162.628 222.005 162.332 221.694 162.119C221.382 161.906 220.956 161.799 220.415 161.799H218.14V164.273ZM230.77 170.198C229.803 170.198 228.97 169.991 228.271 169.578C227.576 169.161 227.039 168.575 226.66 167.82C226.285 167.062 226.098 166.173 226.098 165.155C226.098 164.149 226.285 163.263 226.66 162.496C227.039 161.729 227.568 161.13 228.245 160.7C228.927 160.269 229.724 160.054 230.636 160.054C231.19 160.054 231.727 160.146 232.247 160.329C232.767 160.512 233.233 160.8 233.647 161.192C234.06 161.584 234.386 162.093 234.625 162.719C234.863 163.342 234.983 164.098 234.983 164.989V165.666H227.178V164.234H233.11C233.11 163.732 233.007 163.286 232.803 162.898C232.598 162.506 232.311 162.197 231.94 161.972C231.574 161.746 231.143 161.633 230.649 161.633C230.112 161.633 229.643 161.765 229.243 162.029C228.846 162.289 228.539 162.63 228.322 163.052C228.109 163.469 228.002 163.923 228.002 164.413V165.532C228.002 166.188 228.118 166.746 228.348 167.207C228.582 167.667 228.908 168.018 229.326 168.261C229.743 168.5 230.231 168.619 230.789 168.619C231.152 168.619 231.482 168.568 231.78 168.466C232.078 168.359 232.336 168.202 232.554 167.993C232.771 167.784 232.937 167.526 233.052 167.219L234.861 167.545C234.716 168.078 234.456 168.545 234.081 168.945C233.711 169.342 233.244 169.651 232.681 169.872C232.123 170.089 231.486 170.198 230.77 170.198ZM237.103 173.682V160.182H238.97V161.773H239.129C239.24 161.569 239.4 161.332 239.609 161.064C239.818 160.795 240.107 160.561 240.478 160.361C240.849 160.156 241.339 160.054 241.948 160.054C242.741 160.054 243.448 160.254 244.07 160.655C244.693 161.055 245.181 161.633 245.534 162.387C245.892 163.141 246.071 164.049 246.071 165.11C246.071 166.171 245.894 167.081 245.541 167.839C245.187 168.594 244.701 169.175 244.083 169.585C243.465 169.989 242.76 170.192 241.968 170.192C241.371 170.192 240.883 170.092 240.504 169.891C240.129 169.691 239.835 169.457 239.622 169.188C239.409 168.92 239.244 168.681 239.129 168.472H239.014V173.682H237.103ZM238.976 165.091C238.976 165.781 239.076 166.386 239.276 166.906C239.477 167.426 239.767 167.833 240.146 168.127C240.525 168.417 240.99 168.562 241.539 168.562C242.11 168.562 242.588 168.411 242.971 168.108C243.355 167.801 243.644 167.386 243.84 166.862C244.041 166.337 244.141 165.747 244.141 165.091C244.141 164.443 244.043 163.862 243.847 163.346C243.655 162.83 243.365 162.423 242.977 162.125C242.594 161.827 242.115 161.678 241.539 161.678C240.985 161.678 240.517 161.82 240.133 162.106C239.754 162.391 239.466 162.79 239.27 163.301C239.074 163.812 238.976 164.409 238.976 165.091ZM252.348 170.198C251.398 170.198 250.58 169.983 249.894 169.553C249.212 169.118 248.688 168.519 248.321 167.756C247.955 166.994 247.771 166.12 247.771 165.136C247.771 164.138 247.959 163.259 248.334 162.496C248.709 161.729 249.237 161.13 249.919 160.7C250.601 160.269 251.404 160.054 252.329 160.054C253.075 160.054 253.74 160.192 254.323 160.469C254.907 160.742 255.378 161.126 255.736 161.62C256.098 162.114 256.313 162.692 256.382 163.352H254.521C254.419 162.892 254.185 162.496 253.818 162.163C253.456 161.831 252.97 161.665 252.361 161.665C251.828 161.665 251.362 161.805 250.961 162.087C250.565 162.364 250.256 162.76 250.034 163.276C249.813 163.787 249.702 164.392 249.702 165.091C249.702 165.807 249.811 166.425 250.028 166.945C250.245 167.464 250.552 167.867 250.948 168.153C251.349 168.438 251.82 168.581 252.361 168.581C252.723 168.581 253.051 168.515 253.345 168.383C253.644 168.246 253.893 168.053 254.093 167.801C254.298 167.55 254.441 167.247 254.521 166.893H256.382C256.313 167.528 256.107 168.095 255.762 168.594C255.416 169.092 254.954 169.484 254.374 169.77C253.799 170.055 253.124 170.198 252.348 170.198ZM260.298 167.322L264.626 160.182H266.684V170H264.811V162.854L260.503 170H258.425V160.182H260.298V167.322ZM275.109 170V161.812H272.756C272.198 161.812 271.763 161.942 271.452 162.202C271.141 162.462 270.986 162.803 270.986 163.224C270.986 163.642 271.129 163.979 271.414 164.234C271.704 164.486 272.109 164.612 272.629 164.612H275.665V166.158H272.629C271.904 166.158 271.278 166.039 270.749 165.8C270.225 165.558 269.82 165.214 269.535 164.771C269.254 164.328 269.113 163.804 269.113 163.199C269.113 162.581 269.258 162.048 269.548 161.601C269.842 161.149 270.261 160.8 270.807 160.553C271.357 160.305 272.006 160.182 272.756 160.182H276.905V170H275.109ZM268.665 170L271.433 165.04H273.389L270.621 170H268.665Z" fill="white" fill-opacity="0.8"/>
<path d="M16.707 209.793C17.098 210.184 17.098 210.816 16.707 211.207L11.707 216.207C11.512 216.402 11.256 216.5 11 216.5C10.744 216.5 10.488 216.402 10.293 216.207L7.293 213.207C6.902 212.816 6.902 212.184 7.293 211.793C7.684 211.402 8.316 211.402 8.707 211.793L11 214.086L15.293 209.793C15.684 209.402 16.316 209.402 16.707 209.793ZM22 212.5C22 218.014 17.514 222.5 12 222.5C6.486 222.5 2 218.014 2 212.5C2 206.986 6.486 202.5 12 202.5C17.514 202.5 22 206.986 22 212.5ZM20 212.5C20 208.089 16.411 204.5 12 204.5C7.589 204.5 4 208.089 4 212.5C4 216.911 7.589 220.5 12 220.5C16.411 220.5 20 216.911 20 212.5Z" fill="white" fill-opacity="0.8"/>
<path d="M33.4382 219V205.909H35.4134V211.598H41.9396V205.909H43.9212V219H41.9396V213.292H35.4134V219H33.4382ZM49.5014 219.217C48.8793 219.217 48.3168 219.102 47.8139 218.872C47.3111 218.638 46.9126 218.299 46.6186 217.856C46.3288 217.413 46.1839 216.869 46.1839 216.226C46.1839 215.672 46.2905 215.216 46.5036 214.858C46.7166 214.5 47.0043 214.217 47.3665 214.008C47.7287 213.799 48.1335 213.641 48.581 213.535C49.0284 213.428 49.4844 213.347 49.9489 213.292C50.5369 213.224 51.0142 213.168 51.3807 213.126C51.7472 213.079 52.0135 213.004 52.1797 212.902C52.3459 212.8 52.429 212.634 52.429 212.403V212.359C52.429 211.8 52.2713 211.368 51.956 211.061C51.6449 210.754 51.1804 210.601 50.5625 210.601C49.919 210.601 49.4119 210.744 49.0412 211.029C48.6747 211.31 48.4212 211.624 48.2805 211.969L46.4844 211.56C46.6974 210.963 47.0085 210.482 47.4176 210.115C47.831 209.744 48.3061 209.476 48.843 209.31C49.38 209.139 49.9446 209.054 50.5369 209.054C50.929 209.054 51.3445 209.101 51.7834 209.195C52.2266 209.284 52.6399 209.45 53.0234 209.693C53.4112 209.936 53.7287 210.283 53.9759 210.735C54.223 211.183 54.3466 211.764 54.3466 212.48V219H52.4801V217.658H52.4034C52.2798 217.905 52.0945 218.148 51.8473 218.386C51.6001 218.625 51.2827 218.823 50.8949 218.981C50.5071 219.138 50.0426 219.217 49.5014 219.217ZM49.9169 217.683C50.4453 217.683 50.897 217.579 51.272 217.37C51.6513 217.161 51.9389 216.888 52.1349 216.552C52.3352 216.211 52.4354 215.847 52.4354 215.459V214.193C52.3672 214.261 52.2351 214.325 52.0391 214.385C51.8473 214.44 51.6278 214.489 51.3807 214.532C51.1335 214.57 50.8928 214.607 50.6584 214.641C50.424 214.67 50.228 214.696 50.0703 214.717C49.6996 214.764 49.3608 214.843 49.054 214.954C48.7514 215.065 48.5085 215.224 48.3253 215.433C48.1463 215.638 48.0568 215.911 48.0568 216.251C48.0568 216.724 48.2315 217.082 48.581 217.325C48.9304 217.564 49.3757 217.683 49.9169 217.683ZM63.1692 209.182V210.831H58.7779V219H56.8922V209.182H63.1692ZM63.6071 219L63.6007 217.344H63.9522C64.225 217.344 64.4529 217.287 64.6362 217.172C64.8237 217.053 64.9771 216.852 65.0964 216.571C65.2157 216.29 65.3074 215.902 65.3713 215.408C65.4352 214.909 65.4821 214.283 65.5119 213.528L65.6845 209.182H72.5368V219H70.6639V210.831H67.4551L67.3017 214.168C67.2633 214.977 67.1802 215.685 67.0524 216.29C66.9288 216.895 66.7477 217.4 66.5091 217.805C66.2704 218.205 65.9636 218.506 65.5886 218.706C65.2136 218.902 64.7576 219 64.2207 219H63.6071ZM80.9407 219V210.812H78.5884C78.0302 210.812 77.5955 210.942 77.2844 211.202C76.9734 211.462 76.8178 211.803 76.8178 212.224C76.8178 212.642 76.9606 212.979 77.2461 213.234C77.5359 213.486 77.9407 213.612 78.4606 213.612H81.4968V215.158H78.4606C77.7362 215.158 77.1097 215.039 76.5813 214.8C76.0572 214.558 75.6523 214.214 75.3668 213.771C75.0856 213.328 74.945 212.804 74.945 212.199C74.945 211.581 75.0898 211.048 75.3796 210.601C75.6737 210.149 76.0934 209.8 76.6388 209.553C77.1886 209.305 77.8384 209.182 78.5884 209.182H82.7369V219H80.9407ZM74.4975 219L77.2653 214.04H79.2212L76.4535 219H74.4975ZM84.3221 221.832V217.344H85.1211C85.3256 217.157 85.4982 216.933 85.6388 216.673C85.7837 216.413 85.9052 216.104 86.0032 215.746C86.1055 215.388 86.1907 214.971 86.2589 214.494C86.3271 214.012 86.3867 213.462 86.4379 212.844L86.7447 209.182H93.418V217.344H94.9265V221.832H93.06V219H86.2141V221.832H84.3221ZM87.1665 217.344H91.5515V210.818H88.4577L88.2532 212.844C88.1552 213.876 88.0316 214.771 87.8825 215.529C87.7333 216.283 87.4947 216.888 87.1665 217.344ZM103.449 213.266V214.922H98.1305V213.266H103.449ZM98.6674 209.182V219H96.7946V209.182H98.6674ZM104.785 209.182V219H102.918V209.182H104.785ZM108.78 212.557H111.631C112.832 212.557 113.757 212.855 114.405 213.452C115.052 214.048 115.376 214.817 115.376 215.759C115.376 216.373 115.231 216.925 114.942 217.415C114.652 217.905 114.228 218.293 113.67 218.578C113.111 218.859 112.432 219 111.631 219H107.341V209.182H109.214V217.351H111.631C112.18 217.351 112.632 217.208 112.986 216.923C113.339 216.633 113.516 216.264 113.516 215.817C113.516 215.344 113.339 214.958 112.986 214.66C112.632 214.357 112.18 214.206 111.631 214.206H108.78V212.557ZM116.77 219V209.182H118.681V219H116.77ZM125.477 219.198C124.51 219.198 123.677 218.991 122.978 218.578C122.283 218.161 121.746 217.575 121.367 216.82C120.992 216.062 120.805 215.173 120.805 214.155C120.805 213.149 120.992 212.263 121.367 211.496C121.746 210.729 122.275 210.13 122.952 209.7C123.634 209.269 124.431 209.054 125.343 209.054C125.897 209.054 126.434 209.146 126.954 209.329C127.474 209.512 127.94 209.8 128.354 210.192C128.767 210.584 129.093 211.093 129.332 211.719C129.57 212.342 129.69 213.098 129.69 213.989V214.666H121.885V213.234H127.817C127.817 212.732 127.714 212.286 127.51 211.898C127.305 211.506 127.018 211.197 126.647 210.972C126.281 210.746 125.85 210.633 125.356 210.633C124.819 210.633 124.35 210.765 123.95 211.029C123.553 211.289 123.246 211.63 123.029 212.052C122.816 212.469 122.71 212.923 122.71 213.413V214.532C122.71 215.188 122.825 215.746 123.055 216.207C123.289 216.667 123.615 217.018 124.033 217.261C124.45 217.5 124.938 217.619 125.496 217.619C125.859 217.619 126.189 217.568 126.487 217.466C126.786 217.359 127.043 217.202 127.261 216.993C127.478 216.784 127.644 216.526 127.759 216.219L129.568 216.545C129.423 217.078 129.163 217.545 128.788 217.945C128.418 218.342 127.951 218.651 127.388 218.872C126.83 219.089 126.193 219.198 125.477 219.198ZM140.71 219.198C139.789 219.198 138.986 218.987 138.3 218.565C137.614 218.143 137.081 217.553 136.702 216.795C136.322 216.036 136.133 215.15 136.133 214.136C136.133 213.117 136.322 212.227 136.702 211.464C137.081 210.701 137.614 210.109 138.3 209.687C138.986 209.265 139.789 209.054 140.71 209.054C141.63 209.054 142.433 209.265 143.119 209.687C143.805 210.109 144.338 210.701 144.717 211.464C145.097 212.227 145.286 213.117 145.286 214.136C145.286 215.15 145.097 216.036 144.717 216.795C144.338 217.553 143.805 218.143 143.119 218.565C142.433 218.987 141.63 219.198 140.71 219.198ZM140.716 217.594C141.313 217.594 141.807 217.436 142.199 217.121C142.591 216.805 142.881 216.386 143.068 215.862C143.26 215.337 143.356 214.76 143.356 214.129C143.356 213.503 143.26 212.928 143.068 212.403C142.881 211.875 142.591 211.451 142.199 211.131C141.807 210.812 141.313 210.652 140.716 210.652C140.115 210.652 139.616 210.812 139.22 211.131C138.828 211.451 138.536 211.875 138.344 212.403C138.157 212.928 138.063 213.503 138.063 214.129C138.063 214.76 138.157 215.337 138.344 215.862C138.536 216.386 138.828 216.805 139.22 217.121C139.616 217.436 140.115 217.594 140.716 217.594ZM146.237 210.831V209.182H154.521V210.831H151.319V219H149.452V210.831H146.237ZM163.967 209.182V219H162.1V209.182H163.967ZM163.155 213.739V215.388C162.861 215.508 162.55 215.614 162.222 215.708C161.894 215.798 161.549 215.868 161.186 215.919C160.824 215.97 160.447 215.996 160.055 215.996C158.841 215.996 157.875 215.7 157.159 215.107C156.444 214.511 156.086 213.599 156.086 212.371V209.163H157.946V212.371C157.946 212.836 158.031 213.213 158.201 213.503C158.372 213.793 158.615 214.006 158.93 214.142C159.245 214.278 159.62 214.347 160.055 214.347C160.63 214.347 161.161 214.293 161.647 214.187C162.137 214.076 162.64 213.927 163.155 213.739ZM170.741 219.198C169.774 219.198 168.941 218.991 168.242 218.578C167.547 218.161 167.01 217.575 166.631 216.82C166.256 216.062 166.068 215.173 166.068 214.155C166.068 213.149 166.256 212.263 166.631 211.496C167.01 210.729 167.539 210.13 168.216 209.7C168.898 209.269 169.695 209.054 170.607 209.054C171.161 209.054 171.698 209.146 172.218 209.329C172.737 209.512 173.204 209.8 173.617 210.192C174.031 210.584 174.357 211.093 174.595 211.719C174.834 212.342 174.953 213.098 174.953 213.989V214.666H167.149V213.234H173.08C173.08 212.732 172.978 212.286 172.774 211.898C172.569 211.506 172.281 211.197 171.911 210.972C171.544 210.746 171.114 210.633 170.619 210.633C170.083 210.633 169.614 210.765 169.213 211.029C168.817 211.289 168.51 211.63 168.293 212.052C168.08 212.469 167.973 212.923 167.973 213.413V214.532C167.973 215.188 168.088 215.746 168.318 216.207C168.553 216.667 168.879 217.018 169.296 217.261C169.714 217.5 170.202 217.619 170.76 217.619C171.122 217.619 171.453 217.568 171.751 217.466C172.049 217.359 172.307 217.202 172.524 216.993C172.742 216.784 172.908 216.526 173.023 216.219L174.832 216.545C174.687 217.078 174.427 217.545 174.052 217.945C173.681 218.342 173.215 218.651 172.652 218.872C172.094 219.089 171.457 219.198 170.741 219.198ZM176.208 210.831V209.182H184.492V210.831H181.289V219H179.423V210.831H176.208ZM187.952 212.557H190.802C192.004 212.557 192.929 212.855 193.577 213.452C194.224 214.048 194.548 214.817 194.548 215.759C194.548 216.373 194.403 216.925 194.113 217.415C193.824 217.905 193.4 218.293 192.841 218.578C192.283 218.859 191.604 219 190.802 219H186.513V209.182H188.386V217.351H190.802C191.352 217.351 191.804 217.208 192.157 216.923C192.511 216.633 192.688 216.264 192.688 215.817C192.688 215.344 192.511 214.958 192.157 214.66C191.804 214.357 191.352 214.206 190.802 214.206H187.952V212.557ZM195.942 219V209.182H197.853V219H195.942ZM202.904 217.21L202.808 217.907C202.744 218.418 202.636 218.951 202.482 219.505C202.333 220.063 202.178 220.581 202.016 221.058C201.858 221.536 201.728 221.915 201.626 222.196H200.271C200.326 221.932 200.403 221.574 200.501 221.122C200.599 220.675 200.695 220.174 200.788 219.62C200.882 219.066 200.952 218.501 200.999 217.926L201.063 217.21H202.904ZM216.433 209.182V210.831H212.042V219H210.156V209.182H216.433ZM218.453 222.682V209.182H220.319V210.773H220.479C220.59 210.569 220.75 210.332 220.958 210.064C221.167 209.795 221.457 209.561 221.828 209.361C222.199 209.156 222.689 209.054 223.298 209.054C224.091 209.054 224.798 209.254 225.42 209.655C226.042 210.055 226.53 210.633 226.884 211.387C227.242 212.141 227.421 213.049 227.421 214.11C227.421 215.171 227.244 216.081 226.89 216.839C226.537 217.594 226.051 218.175 225.433 218.585C224.815 218.989 224.11 219.192 223.317 219.192C222.721 219.192 222.233 219.092 221.853 218.891C221.478 218.691 221.184 218.457 220.971 218.188C220.758 217.92 220.594 217.681 220.479 217.472H220.364V222.682H218.453ZM220.326 214.091C220.326 214.781 220.426 215.386 220.626 215.906C220.826 216.426 221.116 216.833 221.495 217.127C221.875 217.417 222.339 217.562 222.889 217.562C223.46 217.562 223.937 217.411 224.321 217.108C224.704 216.801 224.994 216.386 225.19 215.862C225.39 215.337 225.49 214.747 225.49 214.091C225.49 213.443 225.392 212.862 225.196 212.346C225.005 211.83 224.715 211.423 224.327 211.125C223.944 210.827 223.464 210.678 222.889 210.678C222.335 210.678 221.866 210.82 221.483 211.106C221.103 211.391 220.816 211.79 220.62 212.301C220.424 212.812 220.326 213.409 220.326 214.091ZM232.419 219.217C231.797 219.217 231.235 219.102 230.732 218.872C230.229 218.638 229.831 218.299 229.537 217.856C229.247 217.413 229.102 216.869 229.102 216.226C229.102 215.672 229.208 215.216 229.422 214.858C229.635 214.5 229.922 214.217 230.284 214.008C230.647 213.799 231.051 213.641 231.499 213.535C231.946 213.428 232.402 213.347 232.867 213.292C233.455 213.224 233.932 213.168 234.299 213.126C234.665 213.079 234.931 213.004 235.098 212.902C235.264 212.8 235.347 212.634 235.347 212.403V212.359C235.347 211.8 235.189 211.368 234.874 211.061C234.563 210.754 234.098 210.601 233.48 210.601C232.837 210.601 232.33 210.744 231.959 211.029C231.593 211.31 231.339 211.624 231.199 211.969L229.402 211.56C229.615 210.963 229.926 210.482 230.336 210.115C230.749 209.744 231.224 209.476 231.761 209.31C232.298 209.139 232.863 209.054 233.455 209.054C233.847 209.054 234.262 209.101 234.701 209.195C235.145 209.284 235.558 209.45 235.941 209.693C236.329 209.936 236.647 210.283 236.894 210.735C237.141 211.183 237.265 211.764 237.265 212.48V219H235.398V217.658H235.321C235.198 217.905 235.012 218.148 234.765 218.386C234.518 218.625 234.201 218.823 233.813 218.981C233.425 219.138 232.961 219.217 232.419 219.217ZM232.835 217.683C233.363 217.683 233.815 217.579 234.19 217.37C234.569 217.161 234.857 216.888 235.053 216.552C235.253 216.211 235.353 215.847 235.353 215.459V214.193C235.285 214.261 235.153 214.325 234.957 214.385C234.765 214.44 234.546 214.489 234.299 214.532C234.051 214.57 233.811 214.607 233.576 214.641C233.342 214.67 233.146 214.696 232.988 214.717C232.618 214.764 232.279 214.843 231.972 214.954C231.669 215.065 231.426 215.224 231.243 215.433C231.064 215.638 230.975 215.911 230.975 216.251C230.975 216.724 231.15 217.082 231.499 217.325C231.848 217.564 232.294 217.683 232.835 217.683ZM244.035 222.343V205.909H245.947V222.343H244.035ZM244.035 219.198C243.341 219.198 242.708 219.079 242.137 218.84C241.566 218.597 241.074 218.252 240.66 217.805C240.247 217.357 239.927 216.822 239.702 216.2C239.48 215.578 239.369 214.89 239.369 214.136C239.369 213.373 239.48 212.68 239.702 212.058C239.927 211.436 240.247 210.901 240.66 210.454C241.074 210.006 241.566 209.661 242.137 209.418C242.708 209.175 243.341 209.054 244.035 209.054H244.508V219.198H244.035ZM244.035 217.587H244.304V210.665H244.035C243.575 210.665 243.175 210.759 242.834 210.946C242.493 211.129 242.209 211.383 241.983 211.707C241.758 212.026 241.587 212.395 241.472 212.812C241.361 213.23 241.306 213.671 241.306 214.136C241.306 214.758 241.406 215.331 241.606 215.855C241.807 216.375 242.109 216.795 242.514 217.114C242.919 217.43 243.426 217.587 244.035 217.587ZM245.947 219.198H245.467V209.054H245.947C246.641 209.054 247.274 209.175 247.845 209.418C248.416 209.661 248.906 210.006 249.315 210.454C249.729 210.901 250.046 211.436 250.268 212.058C250.493 212.68 250.606 213.373 250.606 214.136C250.606 214.89 250.493 215.578 250.268 216.2C250.046 216.822 249.729 217.357 249.315 217.805C248.906 218.252 248.416 218.597 247.845 218.84C247.274 219.079 246.641 219.198 245.947 219.198ZM245.947 217.587C246.407 217.587 246.807 217.498 247.148 217.319C247.489 217.136 247.773 216.884 247.998 216.565C248.224 216.241 248.393 215.872 248.503 215.459C248.614 215.041 248.67 214.6 248.67 214.136C248.67 213.518 248.569 212.947 248.369 212.423C248.173 211.894 247.873 211.47 247.468 211.151C247.063 210.827 246.556 210.665 245.947 210.665H245.672V217.587H245.947ZM254.603 216.322L258.93 209.182H260.989V219H259.116V211.854L254.808 219H252.73V209.182H254.603V216.322ZM263.558 219V209.182H265.469V213.298H266.39L269.631 209.182H271.996L268.192 213.957L272.04 219H269.669L266.71 215.075H265.469V219H263.558ZM275.398 216.322L279.725 209.182H281.784V219H279.911V211.854L275.602 219H273.525V209.182H275.398V216.322ZM290.99 216.322L295.317 209.182H297.375V219H295.502V211.854L291.194 219H289.117V209.182H290.99V216.322ZM304.159 210.831V209.182H312.443V210.831H309.241V219H307.374V210.831H304.159ZM316.865 219.217C316.243 219.217 315.68 219.102 315.177 218.872C314.674 218.638 314.276 218.299 313.982 217.856C313.692 217.413 313.547 216.869 313.547 216.226C313.547 215.672 313.654 215.216 313.867 214.858C314.08 214.5 314.368 214.217 314.73 214.008C315.092 213.799 315.497 213.641 315.944 213.535C316.392 213.428 316.848 213.347 317.312 213.292C317.9 213.224 318.377 213.168 318.744 213.126C319.11 213.079 319.377 213.004 319.543 212.902C319.709 212.8 319.792 212.634 319.792 212.403V212.359C319.792 211.8 319.635 211.368 319.319 211.061C319.008 210.754 318.544 210.601 317.926 210.601C317.282 210.601 316.775 210.744 316.404 211.029C316.038 211.31 315.784 211.624 315.644 211.969L313.848 211.56C314.061 210.963 314.372 210.482 314.781 210.115C315.194 209.744 315.669 209.476 316.206 209.31C316.743 209.139 317.308 209.054 317.9 209.054C318.292 209.054 318.708 209.101 319.147 209.195C319.59 209.284 320.003 209.45 320.387 209.693C320.775 209.936 321.092 210.283 321.339 210.735C321.586 211.183 321.71 211.764 321.71 212.48V219H319.843V217.658H319.767C319.643 217.905 319.458 218.148 319.211 218.386C318.963 218.625 318.646 218.823 318.258 218.981C317.87 219.138 317.406 219.217 316.865 219.217ZM317.28 217.683C317.809 217.683 318.26 217.579 318.635 217.37C319.015 217.161 319.302 216.888 319.498 216.552C319.699 216.211 319.799 215.847 319.799 215.459V214.193C319.73 214.261 319.598 214.325 319.402 214.385C319.211 214.44 318.991 214.489 318.744 214.532C318.497 214.57 318.256 214.607 318.022 214.641C317.787 214.67 317.591 214.696 317.434 214.717C317.063 214.764 316.724 214.843 316.417 214.954C316.115 215.065 315.872 215.224 315.689 215.433C315.51 215.638 315.42 215.911 315.42 216.251C315.42 216.724 315.595 217.082 315.944 217.325C316.294 217.564 316.739 217.683 317.28 217.683ZM331.83 205.526L332.623 206.734C332.329 207.002 331.994 207.194 331.619 207.309C331.248 207.42 330.82 207.49 330.334 207.52C329.849 207.545 329.292 207.569 328.666 207.59C327.959 207.612 327.377 207.765 326.921 208.05C326.465 208.332 326.113 208.749 325.866 209.303C325.623 209.853 325.466 210.543 325.393 211.374H325.515C325.834 210.765 326.278 210.309 326.844 210.006C327.415 209.704 328.057 209.553 328.768 209.553C329.561 209.553 330.266 209.734 330.884 210.096C331.502 210.458 331.988 210.989 332.341 211.688C332.699 212.382 332.878 213.232 332.878 214.238C332.878 215.256 332.691 216.136 332.316 216.878C331.945 217.619 331.421 218.192 330.743 218.597C330.07 218.998 329.275 219.198 328.359 219.198C327.443 219.198 326.644 218.991 325.962 218.578C325.285 218.161 324.758 217.543 324.383 216.724C324.013 215.906 323.827 214.896 323.827 213.695V212.723C323.827 210.477 324.228 208.788 325.029 207.654C325.83 206.521 327.028 205.939 328.621 205.909C329.137 205.896 329.597 205.894 330.002 205.903C330.407 205.907 330.76 205.888 331.063 205.845C331.37 205.798 331.626 205.692 331.83 205.526ZM328.366 217.594C328.898 217.594 329.356 217.46 329.74 217.191C330.128 216.918 330.426 216.533 330.635 216.034C330.844 215.536 330.948 214.947 330.948 214.27C330.948 213.605 330.844 213.04 330.635 212.576C330.426 212.112 330.128 211.758 329.74 211.515C329.352 211.268 328.888 211.144 328.346 211.144C327.946 211.144 327.588 211.214 327.273 211.355C326.957 211.491 326.687 211.694 326.461 211.962C326.239 212.231 326.067 212.559 325.943 212.947C325.824 213.33 325.76 213.771 325.751 214.27C325.751 215.284 325.983 216.092 326.448 216.692C326.917 217.293 327.556 217.594 328.366 217.594ZM334.24 219L334.233 217.344H334.585C334.858 217.344 335.086 217.287 335.269 217.172C335.456 217.053 335.61 216.852 335.729 216.571C335.849 216.29 335.94 215.902 336.004 215.408C336.068 214.909 336.115 214.283 336.145 213.528L336.317 209.182H343.17V219H341.297V210.831H338.088L337.934 214.168C337.896 214.977 337.813 215.685 337.685 216.29C337.562 216.895 337.381 217.4 337.142 217.805C336.903 218.205 336.596 218.506 336.221 218.706C335.846 218.902 335.39 219 334.854 219H334.24ZM347.591 216.322L351.919 209.182H353.977V219H352.104V211.854L347.796 219H345.718V209.182H347.591V216.322ZM364.556 209.182V217.434H365.994V222.164H364.108V219H356.547V209.182H358.419V217.351H362.689V209.182H364.556ZM369.551 212.557H372.402C373.604 212.557 374.528 212.855 375.176 213.452C375.824 214.048 376.148 214.817 376.148 215.759C376.148 216.373 376.003 216.925 375.713 217.415C375.423 217.905 374.999 218.293 374.441 218.578C373.883 218.859 373.203 219 372.402 219H368.113V209.182H369.986V217.351H372.402C372.952 217.351 373.403 217.208 373.757 216.923C374.111 216.633 374.288 216.264 374.288 215.817C374.288 215.344 374.111 214.958 373.757 214.66C373.403 214.357 372.952 214.206 372.402 214.206H369.551V212.557ZM377.541 219V209.182H379.452V219H377.541Z" fill="white" fill-opacity="0.8"/>
</svg>
