<svg width="254" height="37" viewBox="0 0 254 37" fill="none" xmlns="http://www.w3.org/2000/svg">
<path opacity="0.5" d="M52.0792 6.22363C46.5029 6.22363 41.5174 9.09103 41.5174 14.3776C41.5174 20.44 50.3556 20.8612 50.3556 23.905C50.3556 25.1902 48.8702 26.335 46.3374 26.335C42.7374 26.335 40.0465 24.7294 40.0465 24.7294L38.892 30.07C38.892 30.07 41.9902 31.4254 46.1029 31.4254C52.2047 31.4254 57.0011 28.4194 57.0011 23.041C57.0011 16.633 48.1229 16.2298 48.1229 13.3948C48.1229 12.3904 49.3411 11.2852 51.8738 11.2852C54.7283 11.2852 57.0556 12.4534 57.0556 12.4534L58.1829 7.30003C58.1829 7.30723 55.6502 6.22543 52.0811 6.22543L52.0792 6.22363ZM1.04288 6.61603L0.910156 7.39363C0.910156 7.39363 3.25379 7.82203 5.36834 8.66983C8.09016 9.64183 8.28652 10.2106 8.74288 11.971L13.7356 31.0276H20.4265L30.7465 6.61423H24.0702L17.4411 23.212L14.7356 9.14503C14.492 7.53403 13.232 6.61423 11.692 6.61423H1.0447L1.04288 6.61603ZM33.4338 6.61603L28.1974 31.0222H34.5665L39.7792 6.61423H33.4338V6.61603ZM68.9538 6.61603C67.4211 6.61603 66.6029 7.43323 66.0047 8.84983L56.6774 31.0222H63.3556L64.6465 27.325H72.7829L73.5702 31.0222H79.4683L74.3247 6.61423H68.9538V6.61603ZM69.8265 13.2094L71.8083 22.3714H66.4992L69.8265 13.2094Z" fill="white"/>
<g clip-path="url(#clip0_3725_1609)">
<g opacity="0.5">
<path opacity="0.5" d="M114.267 34.9384C114.268 34.7582 114.308 34.5803 114.387 34.4175C114.465 34.2547 114.579 34.1111 114.72 33.997C114.862 33.8829 115.027 33.8012 115.204 33.7577C115.381 33.7142 115.566 33.71 115.745 33.7455C115.924 33.7811 116.093 33.8557 116.24 33.9639C116.386 34.0721 116.506 34.2111 116.591 34.3709C116.676 34.5307 116.724 34.7072 116.732 34.8875C116.739 35.0679 116.705 35.2476 116.633 35.4134C116.537 35.6352 116.377 35.824 116.172 35.9557C115.968 36.0875 115.728 36.1563 115.484 36.1534C114.734 36.2422 114.269 35.6946 114.269 34.9384H114.267ZM117.375 32.9803H116.625V33.5427C116.472 33.3406 116.272 33.1766 116.043 33.0635C115.814 32.9505 115.562 32.8916 115.305 32.8915C114.784 32.9346 114.297 33.1699 113.943 33.5505C113.589 33.931 113.393 34.4291 113.394 34.9458C113.395 35.4616 113.591 35.9586 113.945 36.3388C114.298 36.719 114.783 36.9549 115.304 37C115.54 37.0158 115.777 36.9725 115.992 36.8742C116.207 36.7759 116.393 36.6258 116.534 36.4376V36.8964H117.375V32.9803ZM146.489 34.9384C146.49 34.6986 146.562 34.4645 146.697 34.2653C146.833 34.066 147.024 33.9107 147.249 33.8186C147.473 33.7266 147.72 33.7021 147.958 33.748C148.197 33.794 148.416 33.9084 148.589 34.077C148.762 34.247 148.879 34.4637 148.927 34.6997C148.975 34.9357 148.951 35.1804 148.858 35.4029C148.765 35.6253 148.607 35.8155 148.404 35.9494C148.201 36.0832 147.963 36.1548 147.719 36.1549C146.864 36.2437 146.489 35.6946 146.489 34.9384ZM149.61 34.9384V31.3908H148.755V33.5412C148.619 33.3425 148.436 33.1795 148.222 33.066C148.008 32.9526 147.769 32.8922 147.525 32.89C147.259 32.8954 146.996 32.9527 146.752 33.0586C146.508 33.1645 146.287 33.3169 146.103 33.507C145.919 33.6972 145.774 33.9214 145.678 34.1668C145.582 34.4122 145.536 34.6739 145.542 34.9369C145.526 35.2042 145.566 35.472 145.659 35.7235C145.752 35.975 145.897 36.2048 146.084 36.3985C146.272 36.5922 146.498 36.7456 146.748 36.8491C146.998 36.9526 147.268 37.004 147.539 37C147.776 37.0162 148.013 36.9731 148.228 36.8748C148.443 36.7765 148.63 36.6261 148.77 36.4376V36.8964H149.625L149.61 34.9384ZM128.021 33.7218C128.282 33.7205 128.535 33.8156 128.729 33.9883C128.923 34.161 129.045 34.399 129.071 34.6557H127.016C127.041 34.4067 127.157 34.1751 127.342 34.0036C127.526 33.832 127.768 33.7319 128.021 33.7218ZM128.126 32.89C127.604 32.9335 127.118 33.1691 126.764 33.55C126.411 33.9309 126.215 34.4291 126.216 34.9458C126.217 35.4616 126.413 35.9586 126.767 36.3388C127.12 36.719 127.605 36.9549 128.126 37C128.71 36.9964 129.276 36.7982 129.732 36.4376L129.357 35.7834C129.03 36.0287 128.629 36.1589 128.217 36.1534C128.081 36.166 127.944 36.1518 127.813 36.1117C127.682 36.0715 127.561 36.0062 127.456 35.9195C127.351 35.8328 127.265 35.7264 127.202 35.6065C127.139 35.4866 127.101 35.3556 127.089 35.221H130.092V34.9384C130.109 34.4142 129.915 33.9049 129.552 33.5214C129.19 33.1378 128.689 32.9109 128.157 32.89H128.127H128.126ZM138.531 34.9384C138.532 34.6986 138.605 34.4645 138.74 34.2653C138.875 34.066 139.067 33.9107 139.291 33.8186C139.516 33.7266 139.762 33.7021 140.001 33.748C140.239 33.794 140.459 33.9084 140.631 34.077C140.803 34.2472 140.921 34.4639 140.968 34.6997C141.015 34.9354 140.991 35.1798 140.898 35.4019C140.805 35.6241 140.648 35.8142 140.445 35.9481C140.243 36.0821 140.005 36.1541 139.761 36.1549C138.921 36.2437 138.531 35.6946 138.531 34.9384ZM141.744 34.9384V32.9803H140.889V33.5427C140.753 33.3436 140.569 33.1803 140.355 33.0668C140.14 32.9534 139.9 32.8932 139.656 32.8915C139.135 32.935 138.649 33.1704 138.295 33.5509C137.942 33.9315 137.746 34.4294 137.747 34.9458C137.747 35.4617 137.943 35.9589 138.297 36.3392C138.65 36.7194 139.136 36.9552 139.656 37C139.893 37.016 140.13 36.9729 140.345 36.8746C140.561 36.7763 140.747 36.626 140.888 36.4376V36.8964H141.743V34.9384H141.744ZM133.712 34.9384C133.69 35.3498 133.8 35.7577 134.026 36.1041C134.252 36.4505 134.583 36.7178 134.972 36.8683C135.23 36.9674 135.506 37.0133 135.782 37C136.302 37.0277 136.813 36.8583 137.21 36.5264L136.835 35.8722C136.527 36.0942 136.163 36.2215 135.783 36.2422C135.621 36.2486 135.46 36.222 135.308 36.1641C135.157 36.1062 135.02 36.0182 134.904 35.9057C134.789 35.7931 134.698 35.6584 134.638 35.5098C134.578 35.3612 134.549 35.202 134.553 35.042C134.54 34.8791 134.563 34.7154 134.62 34.562C134.677 34.4087 134.767 34.2693 134.884 34.1537C135.001 34.038 135.142 33.9488 135.297 33.8921C135.453 33.8354 135.618 33.8127 135.783 33.8254C136.169 33.811 136.545 33.9435 136.833 34.1954L137.208 33.5442C137.049 33.3228 136.833 33.1461 136.584 33.0315C136.334 32.9168 136.058 32.8681 135.783 32.89C135.503 32.8733 135.222 32.9143 134.959 33.0104C134.696 33.1065 134.455 33.2556 134.253 33.4482C134.052 33.6408 133.893 33.8728 133.786 34.1293C133.68 34.3859 133.629 34.6614 133.637 34.9384H133.712ZM144.761 32.89C144.552 32.8746 144.342 32.9197 144.158 33.0198C143.975 33.12 143.824 33.2708 143.726 33.4539V32.9803H142.871V36.8964H143.726V34.7593C143.726 34.1081 144.011 33.7218 144.581 33.7218C144.772 33.7057 144.964 33.7415 145.136 33.8254L145.421 33.0691C145.187 32.9727 144.939 32.9128 144.686 32.8915H144.761V32.89ZM121.805 33.3503C121.323 33.0639 120.761 32.9345 120.2 32.9803C119.163 32.9803 118.592 33.4539 118.592 34.1954C118.592 34.9384 119.057 35.2196 119.912 35.3084L120.288 35.412C120.768 35.5008 120.948 35.5896 120.948 35.7834C120.948 35.9758 120.663 36.2422 120.003 36.2422C119.536 36.2492 119.077 36.1205 118.683 35.8722L118.307 36.5249C118.799 36.8757 119.399 37.0429 120.003 37C121.143 37 121.805 36.4376 121.805 35.6946C121.805 34.9532 121.325 34.6557 120.305 34.5669L119.928 34.4781C119.553 34.3745 119.268 34.3745 119.268 34.1081C119.268 33.8402 119.553 33.6315 120.018 33.6315C120.455 33.6448 120.881 33.7721 121.248 34.003L121.805 33.3518V33.3503ZM132.855 32.8915C132.646 32.8757 132.437 32.9205 132.253 33.0204C132.069 33.1203 131.919 33.271 131.82 33.4539V32.9803H130.964V36.8964H131.819V34.7593C131.819 34.1081 132.104 33.7218 132.674 33.7218C132.866 33.7054 133.058 33.7412 133.23 33.8254L133.515 32.9788C133.155 32.9788 132.975 32.89 132.78 32.89H132.855V32.8915ZM125.483 32.9803H124.073V31.7638H123.216V32.9803H122.466V33.8239H123.216V35.6058C123.216 36.5397 123.591 37.0888 124.641 37.0888C125.007 37.0918 125.366 36.9941 125.679 36.8076L125.394 36.0498C125.171 36.1914 124.908 36.2588 124.643 36.2422C124.163 36.2422 124.073 35.961 124.073 35.591V33.8254H125.483V32.9788V32.9803ZM112.661 36.8964V34.4781C112.675 34.275 112.647 34.0713 112.578 33.8794C112.509 33.6876 112.401 33.5118 112.26 33.3629C112.12 33.214 111.949 33.0952 111.76 33.0138C111.571 32.9325 111.367 32.8904 111.161 32.89C110.889 32.8863 110.619 32.9431 110.372 33.056C110.125 33.169 109.907 33.3354 109.734 33.5427C109.581 33.3396 109.382 33.1749 109.152 33.0618C108.923 32.9487 108.67 32.8904 108.413 32.8915C108.191 32.8747 107.969 32.9183 107.771 33.0174C107.572 33.1166 107.405 33.2676 107.288 33.4539V32.9803H106.416V36.8964H107.271V34.7593C107.254 34.6279 107.266 34.4945 107.306 34.3681C107.346 34.2417 107.413 34.1253 107.503 34.0268C107.593 33.9283 107.703 33.8501 107.826 33.7975C107.949 33.7448 108.082 33.719 108.216 33.7218C108.773 33.7218 109.058 34.1066 109.058 34.7593V36.8964H109.913V34.7593C109.896 34.6278 109.908 34.4943 109.948 34.3678C109.988 34.2412 110.055 34.1248 110.145 34.0262C110.235 33.9277 110.345 33.8495 110.469 33.797C110.592 33.7445 110.725 33.7188 110.859 33.7218C111.429 33.7218 111.714 34.1066 111.714 34.7593V36.8964H112.661ZM122.331 14.8355C122.327 12.5943 122.836 10.381 123.822 8.36159C124.807 6.34215 126.243 4.56888 128.021 3.1746C126.158 1.73044 123.971 0.747061 121.644 0.306585C119.317 -0.133892 116.917 -0.0186865 114.645 0.642581C112.372 1.30385 110.293 2.49199 108.58 4.10779C106.868 5.72359 105.572 7.72017 104.801 9.9308C104.027 12.1422 103.799 14.5038 104.135 16.8196C104.472 19.1355 105.363 21.3387 106.736 23.2464C108.108 25.1518 109.921 26.7063 112.025 27.7803C114.129 28.8543 116.463 29.4168 118.832 29.4209C122.16 29.4451 125.399 28.3575 128.021 26.3351C126.227 24.991 124.778 23.2506 123.79 21.2537C122.802 19.2568 122.303 17.059 122.331 14.837V14.8355ZM152.043 14.8355C152.057 17.5928 151.28 20.2976 149.802 22.6381C148.7 24.3878 147.234 25.887 145.502 27.0369C143.769 28.1867 141.809 28.961 139.751 29.3087C137.693 29.6564 135.583 29.5695 133.562 29.0539C131.54 28.5383 129.652 27.6056 128.022 26.3174C129.804 24.9449 131.242 23.1858 132.223 21.1767C133.205 19.1675 133.704 16.9622 133.682 14.7319C133.7 12.5062 133.198 10.3063 132.217 8.30224C131.235 6.29821 129.8 4.54378 128.021 3.1746C130.629 1.14705 133.845 0.0305213 137.165 0C141.114 0.0699096 144.878 1.6595 147.656 4.42964C150.436 7.20252 152.01 10.9356 152.043 14.8355Z" fill="white"/>
<path opacity="0.5" d="M128.02 4.86621C126.63 6.14477 125.515 7.68631 124.741 9.39902C123.967 11.1117 123.55 12.9606 123.516 14.8355C123.564 16.7124 123.987 18.5615 124.759 20.2772C125.532 21.9929 126.64 23.5414 128.02 24.8344C129.403 23.5435 130.512 21.9954 131.285 20.2792C132.059 18.5631 132.48 16.713 132.525 14.8355C132.494 12.9599 132.08 11.1097 131.306 9.39641C130.531 7.6831 129.414 6.1421 128.02 4.86621Z" fill="white"/>
</g>
</g>
<g opacity="0.5">
<path opacity="0.5" d="M219.444 10.3077L214.583 20.808H214.091V8.0445H207.147V29.5112H212.906C214.467 29.5112 215.857 28.6111 216.521 27.2188L221.412 16.7462H221.903V29.5112H228.848V8.0445H223.003C221.499 8.0445 220.082 8.94304 219.444 10.3077ZM193.635 10.8582L190.77 20.8095H190.278L187.384 10.8582C187.146 10.0438 186.65 9.32905 185.972 8.82159C185.293 8.31413 184.469 8.04141 183.622 8.0445H176.766V29.5112H183.709V16.7477H184.202L188.195 29.5112H192.824L196.816 16.7477H197.309V29.5112H204.254V8.0445H197.396C195.66 8.0445 194.097 9.1761 193.634 10.8582H193.635ZM231.742 17.6171V29.5112H238.685V22.5498H246.152C247.685 22.5543 249.181 22.0823 250.435 21.1989C251.689 20.3155 252.638 19.0642 253.154 17.6171H231.742ZM245.949 8.04297H230.497C231.453 13.149 235.908 16.7477 241.261 16.7477H253.27C253.364 16.2502 253.412 15.7452 253.414 15.2389C253.414 11.0897 250.087 8.0445 245.95 8.0445L245.949 8.04297Z" fill="white"/>
</g>
<defs>
<clipPath id="clip0_3725_1609">
<rect width="48" height="37" fill="white" transform="translate(104)"/>
</clipPath>
</defs>
</svg>
