<svg width="641" height="417" viewBox="0 0 641 417" fill="none" xmlns="http://www.w3.org/2000/svg">
<path d="M466.039 347.545H467.77L470.78 354.895H470.891L473.901 347.545H475.632V357H474.275V350.158H474.187L471.398 356.986H470.272L467.484 350.154H467.396V357H466.039V347.545ZM479.658 357.157C479.209 357.157 478.803 357.074 478.44 356.908C478.077 356.738 477.789 356.494 477.576 356.174C477.367 355.854 477.263 355.461 477.263 354.996C477.263 354.596 477.339 354.267 477.493 354.009C477.647 353.75 477.855 353.545 478.117 353.395C478.378 353.244 478.671 353.13 478.994 353.053C479.317 352.976 479.646 352.917 479.982 352.877C480.406 352.828 480.751 352.788 481.016 352.757C481.28 352.724 481.473 352.67 481.593 352.596C481.713 352.522 481.773 352.402 481.773 352.236V352.203C481.773 351.8 481.659 351.488 481.431 351.266C481.207 351.045 480.871 350.934 480.425 350.934C479.96 350.934 479.594 351.037 479.326 351.243C479.061 351.446 478.878 351.673 478.777 351.922L477.479 351.626C477.633 351.196 477.858 350.848 478.153 350.583C478.452 350.315 478.795 350.121 479.183 350.001C479.571 349.878 479.979 349.817 480.406 349.817C480.689 349.817 480.99 349.851 481.307 349.918C481.627 349.983 481.925 350.103 482.202 350.278C482.482 350.454 482.711 350.705 482.89 351.031C483.069 351.354 483.158 351.774 483.158 352.291V357H481.81V356.031H481.754C481.665 356.209 481.531 356.384 481.353 356.557C481.174 356.729 480.945 356.872 480.665 356.986C480.385 357.1 480.049 357.157 479.658 357.157ZM479.959 356.049C480.34 356.049 480.666 355.974 480.937 355.823C481.211 355.672 481.419 355.475 481.56 355.232C481.705 354.986 481.777 354.723 481.777 354.442V353.528C481.728 353.578 481.633 353.624 481.491 353.667C481.353 353.707 481.194 353.742 481.016 353.773C480.837 353.801 480.663 353.827 480.494 353.852C480.325 353.873 480.183 353.892 480.069 353.907C479.802 353.941 479.557 353.998 479.335 354.078C479.117 354.158 478.941 354.273 478.809 354.424C478.68 354.572 478.615 354.769 478.615 355.015C478.615 355.357 478.741 355.615 478.994 355.79C479.246 355.963 479.568 356.049 479.959 356.049ZM484.996 359.659V349.909H486.344V351.059H486.46C486.54 350.911 486.655 350.74 486.806 350.546C486.957 350.352 487.166 350.183 487.434 350.038C487.702 349.891 488.055 349.817 488.496 349.817C489.068 349.817 489.579 349.961 490.028 350.251C490.478 350.54 490.83 350.957 491.085 351.502C491.344 352.047 491.473 352.702 491.473 353.468C491.473 354.235 491.345 354.892 491.09 355.44C490.835 355.984 490.484 356.404 490.037 356.7C489.591 356.992 489.082 357.138 488.509 357.138C488.079 357.138 487.726 357.066 487.452 356.922C487.181 356.777 486.969 356.608 486.815 356.414C486.661 356.22 486.543 356.047 486.46 355.897H486.377V359.659H484.996ZM486.349 353.455C486.349 353.953 486.421 354.39 486.566 354.766C486.711 355.141 486.92 355.435 487.194 355.647C487.468 355.857 487.803 355.961 488.2 355.961C488.613 355.961 488.957 355.852 489.234 355.634C489.511 355.412 489.72 355.112 489.862 354.733C490.007 354.355 490.079 353.929 490.079 353.455C490.079 352.987 490.008 352.567 489.867 352.194C489.728 351.822 489.519 351.528 489.239 351.312C488.962 351.097 488.616 350.989 488.2 350.989C487.8 350.989 487.461 351.092 487.184 351.299C486.911 351.505 486.703 351.793 486.561 352.162C486.42 352.531 486.349 352.962 486.349 353.455ZM493.02 357V349.909H494.4V352.882H495.065L497.405 349.909H499.113L496.367 353.358L499.146 357H497.433L495.296 354.165H494.4V357H493.02ZM502.982 357.143C502.283 357.143 501.682 356.994 501.177 356.695C500.675 356.394 500.288 355.971 500.014 355.426C499.743 354.878 499.607 354.236 499.607 353.501C499.607 352.774 499.743 352.134 500.014 351.58C500.288 351.026 500.669 350.594 501.159 350.283C501.651 349.972 502.227 349.817 502.885 349.817C503.285 349.817 503.673 349.883 504.048 350.015C504.424 350.148 504.761 350.355 505.059 350.638C505.358 350.922 505.593 351.289 505.766 351.742C505.938 352.191 506.024 352.737 506.024 353.381V353.87H500.388V352.836H504.672C504.672 352.473 504.598 352.151 504.45 351.871C504.302 351.588 504.095 351.365 503.827 351.202C503.562 351.039 503.251 350.957 502.894 350.957C502.507 350.957 502.168 351.052 501.879 351.243C501.593 351.431 501.371 351.677 501.214 351.982C501.06 352.283 500.983 352.611 500.983 352.965V353.773C500.983 354.247 501.066 354.65 501.232 354.983C501.402 355.315 501.637 355.569 501.939 355.744C502.24 355.917 502.593 356.003 502.996 356.003C503.258 356.003 503.496 355.966 503.711 355.892C503.927 355.815 504.113 355.701 504.27 355.55C504.427 355.4 504.547 355.213 504.63 354.992L505.937 355.227C505.832 355.612 505.644 355.949 505.373 356.238C505.106 356.525 504.769 356.748 504.362 356.908C503.959 357.065 503.499 357.143 502.982 357.143ZM506.93 351.1V349.909H512.913V351.1H510.6V357H509.252V351.1H506.93ZM514.373 357V349.909H520.158V357H518.805V351.1H515.717V357H514.373ZM521.445 357L521.44 355.804H521.694C521.891 355.804 522.055 355.763 522.188 355.68C522.323 355.594 522.434 355.449 522.52 355.246C522.606 355.043 522.672 354.763 522.719 354.406C522.765 354.045 522.799 353.593 522.82 353.048L522.945 349.909H527.894V357H526.541V351.1H524.224L524.113 353.51C524.085 354.095 524.025 354.606 523.933 355.043C523.844 355.48 523.713 355.844 523.54 356.137C523.368 356.426 523.146 356.643 522.876 356.788C522.605 356.929 522.275 357 521.888 357H521.445ZM532.791 357.143C532.092 357.143 531.49 356.994 530.986 356.695C530.484 356.394 530.096 355.971 529.822 355.426C529.551 354.878 529.416 354.236 529.416 353.501C529.416 352.774 529.551 352.134 529.822 351.58C530.096 351.026 530.478 350.594 530.967 350.283C531.46 349.972 532.035 349.817 532.694 349.817C533.094 349.817 533.482 349.883 533.857 350.015C534.233 350.148 534.57 350.355 534.868 350.638C535.167 350.922 535.402 351.289 535.574 351.742C535.747 352.191 535.833 352.737 535.833 353.381V353.87H530.196V352.836H534.48C534.48 352.473 534.406 352.151 534.259 351.871C534.111 351.588 533.903 351.365 533.635 351.202C533.371 351.039 533.06 350.957 532.703 350.957C532.315 350.957 531.977 351.052 531.687 351.243C531.401 351.431 531.18 351.677 531.023 351.982C530.869 352.283 530.792 352.611 530.792 352.965V353.773C530.792 354.247 530.875 354.65 531.041 354.983C531.21 355.315 531.446 355.569 531.747 355.744C532.049 355.917 532.401 356.003 532.805 356.003C533.066 356.003 533.305 355.966 533.52 355.892C533.735 355.815 533.922 355.701 534.079 355.55C534.236 355.4 534.356 355.213 534.439 354.992L535.745 355.227C535.641 355.612 535.453 355.949 535.182 356.238C534.914 356.525 534.577 356.748 534.171 356.908C533.768 357.065 533.308 357.143 532.791 357.143ZM538.717 355.066L541.842 349.909H543.329V357H541.976V351.839L538.865 357H537.364V349.909H538.717V355.066ZM541.252 347.509H542.387C542.387 348.029 542.203 348.452 541.833 348.778C541.467 349.101 540.971 349.263 540.347 349.263C539.725 349.263 539.231 349.101 538.865 348.778C538.499 348.452 538.315 348.029 538.315 347.509H539.446C539.446 347.739 539.514 347.944 539.65 348.123C539.785 348.298 540.017 348.386 540.347 348.386C540.67 348.386 540.901 348.298 541.039 348.123C541.181 347.947 541.252 347.742 541.252 347.509ZM548.172 357.143C547.485 357.143 546.894 356.988 546.399 356.677C545.906 356.363 545.528 355.931 545.263 355.38C544.999 354.829 544.866 354.198 544.866 353.487C544.866 352.767 545.002 352.131 545.272 351.58C545.543 351.026 545.925 350.594 546.417 350.283C546.91 349.972 547.49 349.817 548.158 349.817C548.696 349.817 549.176 349.917 549.598 350.117C550.02 350.314 550.36 350.591 550.618 350.948C550.88 351.305 551.035 351.722 551.085 352.199H549.741C549.667 351.866 549.498 351.58 549.233 351.34C548.972 351.1 548.621 350.98 548.181 350.98C547.796 350.98 547.459 351.082 547.17 351.285C546.884 351.485 546.66 351.771 546.5 352.143C546.34 352.513 546.26 352.95 546.26 353.455C546.26 353.972 546.339 354.418 546.496 354.793C546.653 355.169 546.874 355.46 547.161 355.666C547.45 355.872 547.79 355.975 548.181 355.975C548.442 355.975 548.679 355.927 548.892 355.832C549.107 355.734 549.287 355.594 549.432 355.412C549.58 355.23 549.683 355.012 549.741 354.756H551.085C551.035 355.215 550.886 355.624 550.637 355.984C550.388 356.344 550.054 356.628 549.635 356.834C549.22 357.04 548.732 357.143 548.172 357.143ZM559.002 355.984H557.769L555.904 353.214V353.122H557.229L559.002 355.984ZM559.002 350.315L557.229 353.178H555.904V353.085L557.769 350.315H559.002ZM561.592 355.984H560.359L558.494 353.214V353.122H559.819L561.592 355.984ZM561.592 350.315L559.819 353.178H558.494V353.085L560.359 350.315H561.592ZM565.352 357L562.73 347.545H564.23L566.072 354.867H566.16L568.076 347.545H569.562L571.478 354.872H571.566L573.403 347.545H574.908L572.281 357H570.845L568.856 349.918H568.782L566.792 357H565.352ZM576.098 357V349.909H577.478V357H576.098ZM576.795 348.815C576.555 348.815 576.349 348.735 576.176 348.575C576.007 348.412 575.922 348.218 575.922 347.993C575.922 347.766 576.007 347.572 576.176 347.412C576.349 347.248 576.555 347.167 576.795 347.167C577.035 347.167 577.24 347.248 577.409 347.412C577.581 347.572 577.667 347.766 577.667 347.993C577.667 348.218 577.581 348.412 577.409 348.575C577.24 348.735 577.035 348.815 576.795 348.815ZM580.715 347.545V357H579.335V347.545H580.715ZM585.227 357.138C584.654 357.138 584.144 356.992 583.694 356.7C583.248 356.404 582.897 355.984 582.642 355.44C582.389 354.892 582.263 354.235 582.263 353.468C582.263 352.702 582.391 352.047 582.646 351.502C582.905 350.957 583.259 350.54 583.708 350.251C584.157 349.961 584.667 349.817 585.236 349.817C585.676 349.817 586.03 349.891 586.298 350.038C586.569 350.183 586.778 350.352 586.926 350.546C587.077 350.74 587.194 350.911 587.277 351.059H587.36V347.545H588.74V357H587.392V355.897H587.277C587.194 356.047 587.074 356.22 586.917 356.414C586.763 356.608 586.55 356.777 586.279 356.922C586.009 357.066 585.658 357.138 585.227 357.138ZM585.532 355.961C585.929 355.961 586.264 355.857 586.538 355.647C586.815 355.435 587.024 355.141 587.166 354.766C587.31 354.39 587.383 353.953 587.383 353.455C587.383 352.962 587.312 352.531 587.17 352.162C587.029 351.793 586.821 351.505 586.547 351.299C586.273 351.092 585.935 350.989 585.532 350.989C585.116 350.989 584.77 351.097 584.493 351.312C584.216 351.528 584.007 351.822 583.865 352.194C583.727 352.567 583.657 352.987 583.657 353.455C583.657 353.929 583.728 354.355 583.87 354.733C584.011 355.112 584.221 355.412 584.498 355.634C584.778 355.852 585.122 355.961 585.532 355.961ZM590.821 357V347.545H592.201V351.059H592.284C592.364 350.911 592.48 350.74 592.631 350.546C592.781 350.352 592.991 350.183 593.258 350.038C593.526 349.891 593.88 349.817 594.32 349.817C594.893 349.817 595.404 349.961 595.853 350.251C596.302 350.54 596.655 350.957 596.91 351.502C597.169 352.047 597.298 352.702 597.298 353.468C597.298 354.235 597.17 354.892 596.915 355.44C596.659 355.984 596.308 356.404 595.862 356.7C595.416 356.992 594.907 357.138 594.334 357.138C593.903 357.138 593.551 357.066 593.277 356.922C593.006 356.777 592.794 356.608 592.64 356.414C592.486 356.22 592.367 356.047 592.284 355.897H592.169V357H590.821ZM592.174 353.455C592.174 353.953 592.246 354.39 592.391 354.766C592.535 355.141 592.744 355.435 593.018 355.647C593.292 355.857 593.628 355.961 594.025 355.961C594.437 355.961 594.782 355.852 595.059 355.634C595.336 355.412 595.545 355.112 595.687 354.733C595.831 354.355 595.904 353.929 595.904 353.455C595.904 352.987 595.833 352.567 595.691 352.194C595.553 351.822 595.344 351.528 595.063 351.312C594.786 351.097 594.44 350.989 594.025 350.989C593.625 350.989 593.286 351.092 593.009 351.299C592.735 351.505 592.527 351.793 592.386 352.162C592.244 352.531 592.174 352.962 592.174 353.455ZM601.904 357.143C601.205 357.143 600.604 356.994 600.099 356.695C599.597 356.394 599.209 355.971 598.936 355.426C598.665 354.878 598.529 354.236 598.529 353.501C598.529 352.774 598.665 352.134 598.936 351.58C599.209 351.026 599.591 350.594 600.08 350.283C600.573 349.972 601.148 349.817 601.807 349.817C602.207 349.817 602.595 349.883 602.97 350.015C603.346 350.148 603.683 350.355 603.981 350.638C604.28 350.922 604.515 351.289 604.688 351.742C604.86 352.191 604.946 352.737 604.946 353.381V353.87H599.309V352.836H603.594C603.594 352.473 603.52 352.151 603.372 351.871C603.224 351.588 603.017 351.365 602.749 351.202C602.484 351.039 602.173 350.957 601.816 350.957C601.428 350.957 601.09 351.052 600.801 351.243C600.514 351.431 600.293 351.677 600.136 351.982C599.982 352.283 599.905 352.611 599.905 352.965V353.773C599.905 354.247 599.988 354.65 600.154 354.983C600.324 355.315 600.559 355.569 600.861 355.744C601.162 355.917 601.515 356.003 601.918 356.003C602.179 356.003 602.418 355.966 602.633 355.892C602.849 355.815 603.035 355.701 603.192 355.55C603.349 355.4 603.469 355.213 603.552 354.992L604.858 355.227C604.754 355.612 604.566 355.949 604.295 356.238C604.028 356.525 603.691 356.748 603.284 356.908C602.881 357.065 602.421 357.143 601.904 357.143ZM606.478 357V349.909H607.812V351.036H607.886C608.015 350.654 608.243 350.354 608.569 350.135C608.898 349.914 609.271 349.803 609.686 349.803C609.772 349.803 609.874 349.806 609.991 349.812C610.111 349.818 610.205 349.826 610.272 349.835V351.156C610.217 351.14 610.119 351.123 609.977 351.105C609.835 351.083 609.694 351.072 609.552 351.072C609.226 351.072 608.935 351.142 608.68 351.28C608.427 351.416 608.227 351.605 608.08 351.848C607.932 352.088 607.858 352.362 607.858 352.67V357H606.478ZM611.467 357V349.909H612.801V351.036H612.875C613.004 350.654 613.232 350.354 613.558 350.135C613.888 349.914 614.26 349.803 614.675 349.803C614.762 349.803 614.863 349.806 614.98 349.812C615.1 349.818 615.194 349.826 615.262 349.835V351.156C615.206 351.14 615.108 351.123 614.966 351.105C614.825 351.083 614.683 351.072 614.542 351.072C614.215 351.072 613.924 351.142 613.669 351.28C613.417 351.416 613.217 351.605 613.069 351.848C612.921 352.088 612.847 352.362 612.847 352.67V357H611.467ZM616.456 357V349.909H617.837V357H616.456ZM617.153 348.815C616.913 348.815 616.707 348.735 616.535 348.575C616.365 348.412 616.281 348.218 616.281 347.993C616.281 347.766 616.365 347.572 616.535 347.412C616.707 347.248 616.913 347.167 617.153 347.167C617.393 347.167 617.598 347.248 617.767 347.412C617.94 347.572 618.026 347.766 618.026 347.993C618.026 348.218 617.94 348.412 617.767 348.575C617.598 348.735 617.393 348.815 617.153 348.815ZM622.75 357.143C622.051 357.143 621.449 356.994 620.945 356.695C620.443 356.394 620.055 355.971 619.781 355.426C619.51 354.878 619.375 354.236 619.375 353.501C619.375 352.774 619.51 352.134 619.781 351.58C620.055 351.026 620.437 350.594 620.926 350.283C621.419 349.972 621.994 349.817 622.653 349.817C623.053 349.817 623.441 349.883 623.816 350.015C624.192 350.148 624.529 350.355 624.827 350.638C625.126 350.922 625.361 351.289 625.533 351.742C625.706 352.191 625.792 352.737 625.792 353.381V353.87H620.155V352.836H624.439C624.439 352.473 624.365 352.151 624.218 351.871C624.07 351.588 623.862 351.365 623.594 351.202C623.33 351.039 623.019 350.957 622.662 350.957C622.274 350.957 621.936 351.052 621.646 351.243C621.36 351.431 621.138 351.677 620.982 351.982C620.828 352.283 620.751 352.611 620.751 352.965V353.773C620.751 354.247 620.834 354.65 621 354.983C621.169 355.315 621.405 355.569 621.706 355.744C622.008 355.917 622.36 356.003 622.763 356.003C623.025 356.003 623.264 355.966 623.479 355.892C623.694 355.815 623.881 355.701 624.038 355.55C624.195 355.4 624.315 355.213 624.398 354.992L625.704 355.227C625.6 355.612 625.412 355.949 625.141 356.238C624.873 356.525 624.536 356.748 624.13 356.908C623.727 357.065 623.267 357.143 622.75 357.143ZM632.637 351.64L631.386 351.862C631.334 351.702 631.251 351.549 631.137 351.405C631.026 351.26 630.875 351.142 630.684 351.049C630.493 350.957 630.255 350.911 629.969 350.911C629.578 350.911 629.252 350.999 628.99 351.174C628.728 351.346 628.598 351.569 628.598 351.843C628.598 352.08 628.685 352.271 628.861 352.416C629.036 352.56 629.319 352.679 629.71 352.771L630.837 353.03C631.489 353.181 631.975 353.413 632.295 353.727C632.615 354.041 632.775 354.449 632.775 354.95C632.775 355.375 632.652 355.754 632.406 356.086C632.163 356.415 631.823 356.674 631.386 356.862C630.952 357.049 630.449 357.143 629.876 357.143C629.082 357.143 628.434 356.974 627.933 356.635C627.431 356.294 627.123 355.809 627.009 355.181L628.344 354.978C628.427 355.326 628.598 355.589 628.856 355.767C629.115 355.943 629.452 356.031 629.867 356.031C630.32 356.031 630.681 355.937 630.952 355.749C631.223 355.558 631.358 355.326 631.358 355.052C631.358 354.83 631.275 354.644 631.109 354.493C630.946 354.342 630.695 354.229 630.356 354.152L629.156 353.888C628.494 353.738 628.005 353.498 627.688 353.168C627.374 352.839 627.217 352.422 627.217 351.917C627.217 351.499 627.334 351.132 627.568 350.819C627.802 350.505 628.125 350.26 628.538 350.085C628.95 349.906 629.422 349.817 629.955 349.817C630.721 349.817 631.324 349.983 631.764 350.315C632.205 350.645 632.495 351.086 632.637 351.64ZM634.164 355.984L635.937 353.122H637.262V353.214L635.396 355.984H634.164ZM634.164 350.315H635.396L637.262 353.085V353.178H635.937L634.164 350.315ZM636.768 355.984L638.54 353.122H639.865V353.214L638 355.984H636.768ZM636.768 350.315H638L639.865 353.085V353.178H638.54L636.768 350.315Z" fill="#4E5D7C" fill-opacity="0.5"/>
<path d="M11.2514 28.2727C11.2514 29.2822 11.0668 30.1501 10.6974 30.8764C10.3281 31.5997 9.82185 32.1567 9.17862 32.5476C8.53847 32.9354 7.81061 33.1293 6.99503 33.1293C6.17637 33.1293 5.44543 32.9354 4.8022 32.5476C4.16205 32.1567 3.65732 31.5981 3.288 30.8718C2.91868 30.1455 2.73402 29.2791 2.73402 28.2727C2.73402 27.2633 2.91868 26.3969 3.288 25.6737C3.65732 24.9473 4.16205 24.3903 4.8022 24.0025C5.44543 23.6116 6.17637 23.4162 6.99503 23.4162C7.81061 23.4162 8.53847 23.6116 9.17862 24.0025C9.82185 24.3903 10.3281 24.9473 10.6974 25.6737C11.0668 26.3969 11.2514 27.2633 11.2514 28.2727ZM9.83878 28.2727C9.83878 27.5033 9.71413 26.8555 9.46484 26.3292C9.21863 25.7998 8.88009 25.3997 8.44922 25.1289C8.02143 24.855 7.5367 24.718 6.99503 24.718C6.45028 24.718 5.96402 24.855 5.53622 25.1289C5.10843 25.3997 4.76989 25.7998 4.5206 26.3292C4.27438 26.8555 4.15128 27.5033 4.15128 28.2727C4.15128 29.0421 4.27438 29.6915 4.5206 30.2209C4.76989 30.7472 5.10843 31.1473 5.53622 31.4212C5.96402 31.692 6.45028 31.8274 6.99503 31.8274C7.5367 31.8274 8.02143 31.692 8.44922 31.4212C8.88009 31.1473 9.21863 30.7472 9.46484 30.2209C9.71413 29.6915 9.83878 29.0421 9.83878 28.2727ZM12.9191 33V25.9091H18.7036V33H17.3509V27.1001H14.2625V33H12.9191ZM19.6696 27.1001V25.9091H25.6525V27.1001H23.3397V33H21.9917V27.1001H19.6696ZM29.7693 33.1431C29.1045 33.1431 28.5244 32.9908 28.0289 32.6861C27.5334 32.3814 27.1486 31.9551 26.8747 31.4073C26.6008 30.8595 26.4639 30.2193 26.4639 29.4869C26.4639 28.7513 26.6008 28.1081 26.8747 27.5572C27.1486 27.0063 27.5334 26.5785 28.0289 26.2738C28.5244 25.9691 29.1045 25.8168 29.7693 25.8168C30.434 25.8168 31.0142 25.9691 31.5097 26.2738C32.0052 26.5785 32.3899 27.0063 32.6638 27.5572C32.9377 28.1081 33.0747 28.7513 33.0747 29.4869C33.0747 30.2193 32.9377 30.8595 32.6638 31.4073C32.3899 31.9551 32.0052 32.3814 31.5097 32.6861C31.0142 32.9908 30.434 33.1431 29.7693 33.1431ZM29.7739 31.9844C30.2048 31.9844 30.5618 31.8705 30.8449 31.6428C31.128 31.415 31.3373 31.1119 31.4727 30.7333C31.6112 30.3548 31.6805 29.9377 31.6805 29.4822C31.6805 29.0298 31.6112 28.6143 31.4727 28.2358C31.3373 27.8542 31.128 27.5479 30.8449 27.3171C30.5618 27.0863 30.2048 26.9709 29.7739 26.9709C29.3399 26.9709 28.9798 27.0863 28.6936 27.3171C28.4105 27.5479 28.1997 27.8542 28.0612 28.2358C27.9258 28.6143 27.858 29.0298 27.858 29.4822C27.858 29.9377 27.9258 30.3548 28.0612 30.7333C28.1997 31.1119 28.4105 31.415 28.6936 31.6428C28.9798 31.8705 29.3399 31.9844 29.7739 31.9844ZM34.6154 33V25.9091H37.5561C38.3563 25.9091 38.9903 26.0799 39.4581 26.4215C39.9259 26.7601 40.1598 27.2202 40.1598 27.8018C40.1598 28.2173 40.0275 28.5466 39.7628 28.7898C39.4981 29.0329 39.1473 29.196 38.7102 29.2791C39.0272 29.3161 39.3181 29.4115 39.5827 29.5653C39.8474 29.7161 40.0598 29.9193 40.2198 30.1747C40.3829 30.4302 40.4645 30.7348 40.4645 31.0888C40.4645 31.4643 40.3675 31.7966 40.1737 32.0859C39.9798 32.3722 39.6982 32.5968 39.3288 32.7599C38.9626 32.92 38.521 33 38.0039 33H34.6154ZM35.9126 31.8459H38.0039C38.3455 31.8459 38.6133 31.7643 38.8072 31.6012C39.0011 31.4381 39.098 31.2165 39.098 30.9364C39.098 30.6071 39.0011 30.3486 38.8072 30.1609C38.6133 29.9701 38.3455 29.8746 38.0039 29.8746H35.9126V31.8459ZM35.9126 28.8636H37.57C37.8285 28.8636 38.0501 28.8267 38.2347 28.7528C38.4225 28.679 38.5656 28.5743 38.6641 28.4389C38.7656 28.3004 38.8164 28.1373 38.8164 27.9496C38.8164 27.6757 38.7041 27.4618 38.4794 27.3079C38.2547 27.154 37.947 27.0771 37.5561 27.0771H35.9126V28.8636ZM43.0174 28.3466H45.0763C45.9442 28.3466 46.6121 28.562 47.0799 28.9929C47.5477 29.4238 47.7816 29.9793 47.7816 30.6594C47.7816 31.1026 47.677 31.5012 47.4677 31.8551C47.2584 32.209 46.9522 32.4891 46.549 32.6953C46.1458 32.8984 45.6549 33 45.0763 33H41.9787V25.9091H43.3313V31.8089H45.0763C45.4734 31.8089 45.7996 31.7058 46.055 31.4996C46.3105 31.2904 46.4382 31.0241 46.4382 30.701C46.4382 30.3594 46.3105 30.0808 46.055 29.8654C45.7996 29.6469 45.4734 29.5376 45.0763 29.5376H43.0174V28.3466ZM48.788 33V25.9091H50.1683V33H48.788ZM55.0768 33.1431C54.3782 33.1431 53.7765 32.9938 53.2718 32.6953C52.7701 32.3937 52.3823 31.9705 52.1084 31.4258C51.8376 30.878 51.7021 30.2363 51.7021 29.5007C51.7021 28.7744 51.8376 28.1342 52.1084 27.5803C52.3823 27.0263 52.7639 26.5939 53.2533 26.283C53.7457 25.9722 54.3212 25.8168 54.9798 25.8168C55.3799 25.8168 55.7677 25.8829 56.1432 26.0153C56.5187 26.1476 56.8557 26.3554 57.1542 26.6385C57.4527 26.9216 57.6882 27.2894 57.8605 27.7418C58.0329 28.1912 58.1191 28.7375 58.1191 29.3807V29.87H52.4823V28.8359H56.7664C56.7664 28.4728 56.6926 28.1512 56.5448 27.8711C56.3971 27.5879 56.1894 27.3648 55.9216 27.2017C55.6569 27.0386 55.3461 26.957 54.9891 26.957C54.6013 26.957 54.2628 27.0524 53.9735 27.2433C53.6872 27.431 53.4656 27.6772 53.3087 27.9819C53.1548 28.2835 53.0779 28.6113 53.0779 28.9652V29.7731C53.0779 30.247 53.161 30.6502 53.3271 30.9826C53.4964 31.315 53.7319 31.5689 54.0335 31.7443C54.3351 31.9167 54.6875 32.0028 55.0906 32.0028C55.3522 32.0028 55.5908 31.9659 55.8062 31.892C56.0216 31.8151 56.2078 31.7012 56.3648 31.5504C56.5218 31.3996 56.6418 31.2134 56.7249 30.9918L58.0313 31.2273C57.9267 31.612 57.739 31.949 57.4681 32.2383C57.2004 32.5245 56.8634 32.7476 56.4571 32.9077C56.0539 33.0646 55.5938 33.1431 55.0768 33.1431ZM63.091 33V25.9091H68.8754V33H67.5228V27.1001H64.4344V33H63.091ZM70.7209 35.6591V25.9091H72.0689V27.0586H72.1843C72.2643 26.9109 72.3797 26.7401 72.5305 26.5462C72.6813 26.3523 72.8906 26.183 73.1584 26.0384C73.4261 25.8906 73.7801 25.8168 74.2202 25.8168C74.7926 25.8168 75.3035 25.9614 75.7528 26.2507C76.2022 26.54 76.5546 26.957 76.81 27.5018C77.0685 28.0465 77.1978 28.7021 77.1978 29.4684C77.1978 30.2347 77.0701 30.8918 76.8146 31.4396C76.5592 31.9844 76.2083 32.4045 75.7621 32.6999C75.3158 32.9923 74.8065 33.1385 74.234 33.1385C73.8031 33.1385 73.4508 33.0662 73.1768 32.9215C72.906 32.7769 72.6937 32.6076 72.5398 32.4137C72.3859 32.2198 72.2674 32.0475 72.1843 31.8967H72.1012V35.6591H70.7209ZM72.0735 29.4545C72.0735 29.9531 72.1458 30.3902 72.2905 30.7656C72.4351 31.1411 72.6444 31.435 72.9183 31.6474C73.1922 31.8567 73.5277 31.9613 73.9247 31.9613C74.3371 31.9613 74.6818 31.852 74.9588 31.6335C75.2358 31.4119 75.4451 31.1119 75.5866 30.7333C75.7313 30.3548 75.8036 29.9285 75.8036 29.4545C75.8036 28.9867 75.7328 28.5666 75.5913 28.1942C75.4528 27.8219 75.2435 27.5279 74.9634 27.3125C74.6864 27.0971 74.3402 26.9893 73.9247 26.9893C73.5246 26.9893 73.1861 27.0924 72.9091 27.2987C72.6352 27.5049 72.4274 27.7926 72.2859 28.1619C72.1443 28.5312 72.0735 28.9621 72.0735 29.4545ZM81.7312 33.1431C81.0664 33.1431 80.4863 32.9908 79.9908 32.6861C79.4953 32.3814 79.1106 31.9551 78.8366 31.4073C78.5627 30.8595 78.4258 30.2193 78.4258 29.4869C78.4258 28.7513 78.5627 28.1081 78.8366 27.5572C79.1106 27.0063 79.4953 26.5785 79.9908 26.2738C80.4863 25.9691 81.0664 25.8168 81.7312 25.8168C82.396 25.8168 82.9761 25.9691 83.4716 26.2738C83.9671 26.5785 84.3518 27.0063 84.6257 27.5572C84.8996 28.1081 85.0366 28.7513 85.0366 29.4869C85.0366 30.2193 84.8996 30.8595 84.6257 31.4073C84.3518 31.9551 83.9671 32.3814 83.4716 32.6861C82.9761 32.9908 82.396 33.1431 81.7312 33.1431ZM81.7358 31.9844C82.1667 31.9844 82.5237 31.8705 82.8068 31.6428C83.09 31.415 83.2992 31.1119 83.4347 30.7333C83.5732 30.3548 83.6424 29.9377 83.6424 29.4822C83.6424 29.0298 83.5732 28.6143 83.4347 28.2358C83.2992 27.8542 83.09 27.5479 82.8068 27.3171C82.5237 27.0863 82.1667 26.9709 81.7358 26.9709C81.3018 26.9709 80.9418 27.0863 80.6555 27.3171C80.3724 27.5479 80.1616 27.8542 80.0231 28.2358C79.8877 28.6143 79.82 29.0298 79.82 29.4822C79.82 29.9377 79.8877 30.3548 80.0231 30.7333C80.1616 31.1119 80.3724 31.415 80.6555 31.6428C80.9418 31.8705 81.3018 31.9844 81.7358 31.9844ZM85.8849 35.0451V31.8043H86.4619C86.6096 31.6689 86.7343 31.5073 86.8358 31.3196C86.9405 31.1319 87.0282 30.9087 87.099 30.6502C87.1729 30.3917 87.2344 30.0901 87.2836 29.7454C87.3329 29.3976 87.376 29.0006 87.4129 28.5543L87.6345 25.9091H92.4541V31.8043H93.5436V35.0451H92.1956V33H87.2513V35.0451H85.8849ZM87.9392 31.8043H91.1061V27.0909H88.8717L88.724 28.5543C88.6532 29.2991 88.564 29.9454 88.4562 30.4933C88.3485 31.038 88.1762 31.475 87.9392 31.8043ZM96.9563 33.157C96.507 33.157 96.1007 33.0739 95.7376 32.9077C95.3744 32.7384 95.0866 32.4937 94.8743 32.1737C94.665 31.8536 94.5604 31.4612 94.5604 30.9964C94.5604 30.5964 94.6373 30.267 94.7912 30.0085C94.9451 29.75 95.1528 29.5453 95.4144 29.3945C95.676 29.2437 95.9684 29.1299 96.2915 29.0529C96.6147 28.976 96.944 28.9175 97.2795 28.8775C97.7042 28.8282 98.0489 28.7882 98.3136 28.7575C98.5782 28.7236 98.7706 28.6697 98.8906 28.5959C99.0107 28.522 99.0707 28.402 99.0707 28.2358V28.2035C99.0707 27.8003 98.9568 27.4879 98.729 27.2663C98.5044 27.0447 98.1689 26.9339 97.7227 26.9339C97.2579 26.9339 96.8917 27.037 96.6239 27.2433C96.3593 27.4464 96.1761 27.6726 96.0746 27.9219L94.7773 27.6264C94.9312 27.1955 95.1559 26.8478 95.4513 26.5831C95.7499 26.3153 96.093 26.1214 96.4808 26.0014C96.8686 25.8783 97.2764 25.8168 97.7042 25.8168C97.9873 25.8168 98.2874 25.8506 98.6044 25.9183C98.9245 25.983 99.223 26.103 99.5 26.2784C99.7801 26.4538 100.009 26.7047 100.188 27.0309C100.366 27.354 100.456 27.7741 100.456 28.2912V33H99.1076V32.0305H99.0522C98.9629 32.209 98.8291 32.3845 98.6506 32.5568C98.4721 32.7292 98.2428 32.8723 97.9627 32.9862C97.6826 33.1 97.3472 33.157 96.9563 33.157ZM97.2564 32.049C97.638 32.049 97.9643 31.9736 98.2351 31.8228C98.509 31.672 98.7167 31.475 98.8583 31.2319C99.003 30.9857 99.0753 30.7225 99.0753 30.4425V29.5284C99.026 29.5777 98.9306 29.6238 98.7891 29.6669C98.6506 29.7069 98.4921 29.7423 98.3136 29.7731C98.1351 29.8008 97.9612 29.8269 97.7919 29.8516C97.6226 29.8731 97.4811 29.8916 97.3672 29.907C97.0994 29.9408 96.8548 29.9978 96.6332 30.0778C96.4147 30.1578 96.2392 30.2732 96.1069 30.424C95.9776 30.5717 95.913 30.7687 95.913 31.0149C95.913 31.3565 96.0392 31.6151 96.2915 31.7905C96.5439 31.9628 96.8655 32.049 97.2564 32.049ZM101.842 33L104.589 29.3714L101.874 25.9091H103.481L105.673 28.8544H106.167V25.9091H107.548V28.8544H108.028L110.221 25.9091H111.827L109.127 29.3714L111.859 33H110.221L108.009 30.0455H107.548V33H106.167V30.0455H105.706L103.481 33H101.842ZM114.616 31.0657L117.741 25.9091H119.227V33H117.875V27.8388L114.763 33H113.263V25.9091H114.616V31.0657Z" fill="#4E5D7C" fill-opacity="0.5"/>
<path d="M1.03871 373.545H2.45135V380.489H2.53906L7.34943 373.545H8.66974V383H7.24325V376.066H7.15554L2.3544 383H1.03871V373.545ZM15.4456 378.859V380.055H11.6047V378.859H15.4456ZM11.9925 375.909V383H10.6398V375.909H11.9925ZM16.4104 375.909V383H15.0624V375.909H16.4104ZM17.3776 377.1V375.909H23.3605V377.1H21.0477V383H19.6997V377.1H17.3776ZM27.5465 383.143C26.8479 383.143 26.2462 382.994 25.7415 382.695C25.2398 382.394 24.852 381.971 24.5781 381.426C24.3073 380.878 24.1719 380.236 24.1719 379.501C24.1719 378.774 24.3073 378.134 24.5781 377.58C24.852 377.026 25.2337 376.594 25.723 376.283C26.2154 375.972 26.791 375.817 27.4496 375.817C27.8497 375.817 28.2375 375.883 28.6129 376.015C28.9884 376.148 29.3254 376.355 29.6239 376.638C29.9225 376.922 30.1579 377.289 30.3303 377.742C30.5026 378.191 30.5888 378.737 30.5888 379.381V379.87H24.9521V378.836H29.2362C29.2362 378.473 29.1623 378.151 29.0146 377.871C28.8668 377.588 28.6591 377.365 28.3913 377.202C28.1267 377.039 27.8158 376.957 27.4588 376.957C27.071 376.957 26.7325 377.052 26.4432 377.243C26.157 377.431 25.9354 377.677 25.7784 377.982C25.6245 378.283 25.5476 378.611 25.5476 378.965V379.773C25.5476 380.247 25.6307 380.65 25.7969 380.983C25.9661 381.315 26.2016 381.569 26.5032 381.744C26.8048 381.917 27.1572 382.003 27.5604 382.003C27.822 382.003 28.0605 381.966 28.2759 381.892C28.4914 381.815 28.6776 381.701 28.8345 381.55C28.9915 381.4 29.1115 381.213 29.1946 380.992L30.5011 381.227C30.3964 381.612 30.2087 381.949 29.9379 382.238C29.6701 382.525 29.3331 382.748 28.9268 382.908C28.5237 383.065 28.0636 383.143 27.5465 383.143ZM32.1203 385.659V375.909H33.4683V377.059H33.5837C33.6637 376.911 33.7791 376.74 33.93 376.546C34.0808 376.352 34.29 376.183 34.5578 376.038C34.8256 375.891 35.1795 375.817 35.6196 375.817C36.192 375.817 36.7029 375.961 37.1523 376.251C37.6016 376.54 37.954 376.957 38.2094 377.502C38.468 378.047 38.5972 378.702 38.5972 379.468C38.5972 380.235 38.4695 380.892 38.214 381.44C37.9586 381.984 37.6077 382.404 37.1615 382.7C36.7152 382.992 36.2059 383.138 35.6334 383.138C35.2026 383.138 34.8502 383.066 34.5763 382.922C34.3054 382.777 34.0931 382.608 33.9392 382.414C33.7853 382.22 33.6668 382.047 33.5837 381.897H33.5006V385.659H32.1203ZM33.4729 379.455C33.4729 379.953 33.5452 380.39 33.6899 380.766C33.8345 381.141 34.0438 381.435 34.3177 381.647C34.5916 381.857 34.9271 381.961 35.3241 381.961C35.7365 381.961 36.0812 381.852 36.3582 381.634C36.6352 381.412 36.8445 381.112 36.9861 380.733C37.1307 380.355 37.203 379.929 37.203 379.455C37.203 378.987 37.1323 378.567 36.9907 378.194C36.8522 377.822 36.6429 377.528 36.3628 377.312C36.0858 377.097 35.7396 376.989 35.3241 376.989C34.924 376.989 34.5855 377.092 34.3085 377.299C34.0346 377.505 33.8269 377.793 33.6853 378.162C33.5437 378.531 33.4729 378.962 33.4729 379.455ZM44.9495 378.859V380.055H41.1086V378.859H44.9495ZM41.4964 375.909V383H40.1437V375.909H41.4964ZM45.9143 375.909V383H44.5663V375.909H45.9143ZM50.817 383.143C50.1184 383.143 49.5167 382.994 49.012 382.695C48.5103 382.394 48.1225 381.971 47.8486 381.426C47.5778 380.878 47.4424 380.236 47.4424 379.501C47.4424 378.774 47.5778 378.134 47.8486 377.58C48.1225 377.026 48.5042 376.594 48.9935 376.283C49.4859 375.972 50.0615 375.817 50.7201 375.817C51.1202 375.817 51.508 375.883 51.8834 376.015C52.2589 376.148 52.5959 376.355 52.8944 376.638C53.193 376.922 53.4284 377.289 53.6008 377.742C53.7731 378.191 53.8593 378.737 53.8593 379.381V379.87H48.2226V378.836H52.5067C52.5067 378.473 52.4328 378.151 52.2851 377.871C52.1373 377.588 51.9296 377.365 51.6618 377.202C51.3972 377.039 51.0863 376.957 50.7293 376.957C50.3415 376.957 50.003 377.052 49.7137 377.243C49.4275 377.431 49.2059 377.677 49.0489 377.982C48.895 378.283 48.8181 378.611 48.8181 378.965V379.773C48.8181 380.247 48.9012 380.65 49.0674 380.983C49.2367 381.315 49.4721 381.569 49.7737 381.744C50.0753 381.917 50.4277 382.003 50.8309 382.003C51.0925 382.003 51.331 381.966 51.5464 381.892C51.7619 381.815 51.9481 381.701 52.105 381.55C52.262 381.4 52.382 381.213 52.4651 380.992L53.7716 381.227C53.6669 381.612 53.4792 381.949 53.2084 382.238C52.9406 382.525 52.6036 382.748 52.1974 382.908C51.7942 383.065 51.3341 383.143 50.817 383.143ZM54.7653 377.1V375.909H60.7482V377.1H58.4354V383H57.0874V377.1H54.7653ZM66.0941 378.407V379.602H61.9023V378.407H66.0941ZM71.9132 381.292L74.2029 375.909H75.394L72.4256 383H71.4007L68.4924 375.909H69.6696L71.9132 381.292ZM69.2864 375.909V383H67.9338V375.909H69.2864ZM74.5769 383V375.909H75.9203V383H74.5769ZM79.8235 383.157C79.3742 383.157 78.9679 383.074 78.6048 382.908C78.2416 382.738 77.9538 382.494 77.7415 382.174C77.5322 381.854 77.4276 381.461 77.4276 380.996C77.4276 380.596 77.5045 380.267 77.6584 380.009C77.8123 379.75 78.02 379.545 78.2816 379.395C78.5432 379.244 78.8356 379.13 79.1587 379.053C79.4819 378.976 79.8112 378.917 80.1467 378.877C80.5714 378.828 80.9161 378.788 81.1808 378.757C81.4454 378.724 81.6378 378.67 81.7578 378.596C81.8778 378.522 81.9379 378.402 81.9379 378.236V378.203C81.9379 377.8 81.824 377.488 81.5962 377.266C81.3716 377.045 81.0361 376.934 80.5898 376.934C80.1251 376.934 79.7589 377.037 79.4911 377.243C79.2264 377.446 79.0433 377.673 78.9418 377.922L77.6445 377.626C77.7984 377.196 78.0231 376.848 78.3185 376.583C78.6171 376.315 78.9602 376.121 79.348 376.001C79.7358 375.878 80.1436 375.817 80.5714 375.817C80.8545 375.817 81.1546 375.851 81.4716 375.918C81.7917 375.983 82.0902 376.103 82.3672 376.278C82.6473 376.454 82.8765 376.705 83.055 377.031C83.2335 377.354 83.3228 377.774 83.3228 378.291V383H81.9748V382.031H81.9194C81.8301 382.209 81.6963 382.384 81.5178 382.557C81.3393 382.729 81.11 382.872 80.8299 382.986C80.5498 383.1 80.2144 383.157 79.8235 383.157ZM80.1236 382.049C80.5052 382.049 80.8314 381.974 81.1023 381.823C81.3762 381.672 81.5839 381.475 81.7255 381.232C81.8701 380.986 81.9425 380.723 81.9425 380.442V379.528C81.8932 379.578 81.7978 379.624 81.6562 379.667C81.5178 379.707 81.3593 379.742 81.1808 379.773C81.0022 379.801 80.8284 379.827 80.6591 379.852C80.4898 379.873 80.3482 379.892 80.2344 379.907C79.9666 379.941 79.7219 379.998 79.5004 380.078C79.2818 380.158 79.1064 380.273 78.9741 380.424C78.8448 380.572 78.7802 380.769 78.7802 381.015C78.7802 381.357 78.9064 381.615 79.1587 381.79C79.4111 381.963 79.7327 382.049 80.1236 382.049ZM89.6947 375.909V377.1H86.5232V383H85.1613V375.909H89.6947ZM92.887 383.157C92.4376 383.157 92.0314 383.074 91.6682 382.908C91.3051 382.738 91.0173 382.494 90.805 382.174C90.5957 381.854 90.491 381.461 90.491 380.996C90.491 380.596 90.568 380.267 90.7219 380.009C90.8757 379.75 91.0835 379.545 91.3451 379.395C91.6067 379.244 91.8991 379.13 92.2222 379.053C92.5454 378.976 92.8747 378.917 93.2101 378.877C93.6349 378.828 93.9796 378.788 94.2442 378.757C94.5089 378.724 94.7013 378.67 94.8213 378.596C94.9413 378.522 95.0013 378.402 95.0013 378.236V378.203C95.0013 377.8 94.8875 377.488 94.6597 377.266C94.435 377.045 94.0996 376.934 93.6533 376.934C93.1886 376.934 92.8224 377.037 92.5546 377.243C92.2899 377.446 92.1068 377.673 92.0052 377.922L90.708 377.626C90.8619 377.196 91.0866 376.848 91.382 376.583C91.6805 376.315 92.0237 376.121 92.4115 376.001C92.7993 375.878 93.2071 375.817 93.6349 375.817C93.918 375.817 94.2181 375.851 94.5351 375.918C94.8551 375.983 95.1537 376.103 95.4307 376.278C95.7107 376.454 95.94 376.705 96.1185 377.031C96.297 377.354 96.3863 377.774 96.3863 378.291V383H95.0383V382.031H94.9829C94.8936 382.209 94.7597 382.384 94.5812 382.557C94.4027 382.729 94.1734 382.872 93.8934 382.986C93.6133 383.1 93.2778 383.157 92.887 383.157ZM93.1871 382.049C93.5687 382.049 93.8949 381.974 94.1657 381.823C94.4397 381.672 94.6474 381.475 94.789 381.232C94.9336 380.986 95.0059 380.723 95.0059 380.442V379.528C94.9567 379.578 94.8613 379.624 94.7197 379.667C94.5812 379.707 94.4227 379.742 94.2442 379.773C94.0657 379.801 93.8918 379.827 93.7226 379.852C93.5533 379.873 93.4117 379.892 93.2979 379.907C93.0301 379.941 92.7854 379.998 92.5638 380.078C92.3453 380.158 92.1699 380.273 92.0376 380.424C91.9083 380.572 91.8437 380.769 91.8437 381.015C91.8437 381.357 91.9698 381.615 92.2222 381.79C92.4746 381.963 92.7962 382.049 93.1871 382.049ZM97.8047 381.126H99.2173C99.2358 381.415 99.3666 381.638 99.6097 381.795C99.8559 381.952 100.174 382.031 100.565 382.031C100.962 382.031 101.301 381.946 101.581 381.777C101.861 381.604 102.001 381.338 102.001 380.978C102.001 380.763 101.947 380.575 101.839 380.415C101.735 380.252 101.586 380.125 101.392 380.036C101.201 379.947 100.975 379.902 100.713 379.902H99.5589V378.817H100.713C101.104 378.817 101.396 378.728 101.59 378.55C101.784 378.371 101.881 378.148 101.881 377.88C101.881 377.591 101.776 377.359 101.567 377.183C101.361 377.005 101.073 376.915 100.704 376.915C100.328 376.915 100.016 377 99.7667 377.169C99.5174 377.336 99.3866 377.551 99.3743 377.816H97.9801C97.9893 377.419 98.1094 377.071 98.3402 376.772C98.5741 376.471 98.888 376.237 99.282 376.071C99.679 375.901 100.13 375.817 100.635 375.817C101.161 375.817 101.616 375.901 102.001 376.071C102.386 376.24 102.683 376.474 102.892 376.772C103.104 377.071 103.211 377.414 103.211 377.802C103.211 378.193 103.094 378.513 102.86 378.762C102.629 379.008 102.327 379.185 101.955 379.293V379.367C102.229 379.385 102.472 379.468 102.684 379.616C102.897 379.764 103.063 379.959 103.183 380.202C103.303 380.446 103.363 380.721 103.363 381.029C103.363 381.463 103.243 381.838 103.003 382.155C102.766 382.472 102.437 382.717 102.015 382.889C101.596 383.058 101.118 383.143 100.579 383.143C100.056 383.143 99.5866 383.062 99.1712 382.898C98.7588 382.732 98.431 382.498 98.1879 382.197C97.9478 381.895 97.8201 381.538 97.8047 381.126ZM106.141 381.066L109.266 375.909H110.753V383H109.4V377.839L106.289 383H104.788V375.909H106.141V381.066ZM117.414 378.859V380.055H113.573V378.859H117.414ZM113.961 375.909V383H112.609V375.909H113.961ZM118.379 375.909V383H117.031V375.909H118.379Z" fill="#4E5D7C" fill-opacity="0.5"/>
<path d="M439.039 34.5455H440.77L443.78 41.8949H443.891L446.901 34.5455H448.632V44H447.275V37.1584H447.187L444.398 43.9862H443.272L440.484 37.1538H440.396V44H439.039V34.5455ZM452.658 44.157C452.209 44.157 451.803 44.0739 451.44 43.9077C451.077 43.7384 450.789 43.4937 450.576 43.1737C450.367 42.8536 450.263 42.4612 450.263 41.9964C450.263 41.5964 450.339 41.267 450.493 41.0085C450.647 40.75 450.855 40.5453 451.117 40.3945C451.378 40.2437 451.671 40.1299 451.994 40.0529C452.317 39.976 452.646 39.9175 452.982 39.8775C453.406 39.8282 453.751 39.7882 454.016 39.7575C454.28 39.7236 454.473 39.6697 454.593 39.5959C454.713 39.522 454.773 39.402 454.773 39.2358V39.2035C454.773 38.8003 454.659 38.4879 454.431 38.2663C454.207 38.0447 453.871 37.9339 453.425 37.9339C452.96 37.9339 452.594 38.037 452.326 38.2433C452.061 38.4464 451.878 38.6726 451.777 38.9219L450.479 38.6264C450.633 38.1955 450.858 37.8478 451.153 37.5831C451.452 37.3153 451.795 37.1214 452.183 37.0014C452.571 36.8783 452.979 36.8168 453.406 36.8168C453.689 36.8168 453.99 36.8506 454.307 36.9183C454.627 36.983 454.925 37.103 455.202 37.2784C455.482 37.4538 455.711 37.7047 455.89 38.0309C456.069 38.354 456.158 38.7741 456.158 39.2912V44H454.81V43.0305H454.754C454.665 43.209 454.531 43.3845 454.353 43.5568C454.174 43.7292 453.945 43.8723 453.665 43.9862C453.385 44.1 453.049 44.157 452.658 44.157ZM452.959 43.049C453.34 43.049 453.666 42.9736 453.937 42.8228C454.211 42.672 454.419 42.475 454.56 42.2319C454.705 41.9857 454.777 41.7225 454.777 41.4425V40.5284C454.728 40.5777 454.633 40.6238 454.491 40.6669C454.353 40.7069 454.194 40.7423 454.016 40.7731C453.837 40.8008 453.663 40.8269 453.494 40.8516C453.325 40.8731 453.183 40.8916 453.069 40.907C452.802 40.9408 452.557 40.9978 452.335 41.0778C452.117 41.1578 451.941 41.2732 451.809 41.424C451.68 41.5717 451.615 41.7687 451.615 42.0149C451.615 42.3565 451.741 42.6151 451.994 42.7905C452.246 42.9628 452.568 43.049 452.959 43.049ZM457.996 46.6591V36.9091H459.344V38.0586H459.46C459.54 37.9109 459.655 37.7401 459.806 37.5462C459.957 37.3523 460.166 37.183 460.434 37.0384C460.702 36.8906 461.055 36.8168 461.496 36.8168C462.068 36.8168 462.579 36.9614 463.028 37.2507C463.478 37.54 463.83 37.957 464.085 38.5018C464.344 39.0465 464.473 39.7021 464.473 40.4684C464.473 41.2347 464.345 41.8918 464.09 42.4396C463.835 42.9844 463.484 43.4045 463.037 43.6999C462.591 43.9923 462.082 44.1385 461.509 44.1385C461.079 44.1385 460.726 44.0662 460.452 43.9215C460.181 43.7769 459.969 43.6076 459.815 43.4137C459.661 43.2198 459.543 43.0475 459.46 42.8967H459.377V46.6591H457.996ZM459.349 40.4545C459.349 40.9531 459.421 41.3902 459.566 41.7656C459.711 42.1411 459.92 42.435 460.194 42.6474C460.468 42.8567 460.803 42.9613 461.2 42.9613C461.613 42.9613 461.957 42.852 462.234 42.6335C462.511 42.4119 462.72 42.1119 462.862 41.7333C463.007 41.3548 463.079 40.9285 463.079 40.4545C463.079 39.9867 463.008 39.5666 462.867 39.1942C462.728 38.8219 462.519 38.5279 462.239 38.3125C461.962 38.0971 461.616 37.9893 461.2 37.9893C460.8 37.9893 460.461 38.0924 460.184 38.2987C459.911 38.5049 459.703 38.7926 459.561 39.1619C459.42 39.5312 459.349 39.9621 459.349 40.4545ZM466.02 44V36.9091H467.4V39.8821H468.065L470.405 36.9091H472.113L469.367 40.3576L472.146 44H470.433L468.296 41.1655H467.4V44H466.02ZM475.982 44.1431C475.283 44.1431 474.682 43.9938 474.177 43.6953C473.675 43.3937 473.288 42.9705 473.014 42.4258C472.743 41.878 472.607 41.2363 472.607 40.5007C472.607 39.7744 472.743 39.1342 473.014 38.5803C473.288 38.0263 473.669 37.5939 474.159 37.283C474.651 36.9722 475.227 36.8168 475.885 36.8168C476.285 36.8168 476.673 36.8829 477.048 37.0153C477.424 37.1476 477.761 37.3554 478.059 37.6385C478.358 37.9216 478.593 38.2894 478.766 38.7418C478.938 39.1912 479.024 39.7375 479.024 40.3807V40.87H473.388V39.8359H477.672C477.672 39.4728 477.598 39.1512 477.45 38.8711C477.302 38.5879 477.095 38.3648 476.827 38.2017C476.562 38.0386 476.251 37.957 475.894 37.957C475.507 37.957 475.168 38.0524 474.879 38.2433C474.593 38.431 474.371 38.6772 474.214 38.9819C474.06 39.2835 473.983 39.6113 473.983 39.9652V40.7731C473.983 41.247 474.066 41.6502 474.232 41.9826C474.402 42.315 474.637 42.5689 474.939 42.7443C475.24 42.9167 475.593 43.0028 475.996 43.0028C476.258 43.0028 476.496 42.9659 476.711 42.892C476.927 42.8151 477.113 42.7012 477.27 42.5504C477.427 42.3996 477.547 42.2134 477.63 41.9918L478.937 42.2273C478.832 42.612 478.644 42.949 478.373 43.2383C478.106 43.5245 477.769 43.7476 477.362 43.9077C476.959 44.0646 476.499 44.1431 475.982 44.1431ZM479.93 38.1001V36.9091H485.913V38.1001H483.6V44H482.252V38.1001H479.93ZM487.373 44V36.9091H493.158V44H491.805V38.1001H488.717V44H487.373ZM494.445 44L494.44 42.8043H494.694C494.891 42.8043 495.055 42.7628 495.188 42.6797C495.323 42.5935 495.434 42.4489 495.52 42.2457C495.606 42.0426 495.672 41.7625 495.719 41.4055C495.765 41.0455 495.799 40.593 495.82 40.0483L495.945 36.9091H500.894V44H499.541V38.1001H497.224L497.113 40.5099C497.085 41.0947 497.025 41.6056 496.933 42.0426C496.844 42.4796 496.713 42.8443 496.54 43.1367C496.368 43.426 496.146 43.643 495.876 43.7876C495.605 43.9292 495.275 44 494.888 44H494.445ZM505.791 44.1431C505.092 44.1431 504.49 43.9938 503.986 43.6953C503.484 43.3937 503.096 42.9705 502.822 42.4258C502.551 41.878 502.416 41.2363 502.416 40.5007C502.416 39.7744 502.551 39.1342 502.822 38.5803C503.096 38.0263 503.478 37.5939 503.967 37.283C504.46 36.9722 505.035 36.8168 505.694 36.8168C506.094 36.8168 506.482 36.8829 506.857 37.0153C507.233 37.1476 507.57 37.3554 507.868 37.6385C508.167 37.9216 508.402 38.2894 508.574 38.7418C508.747 39.1912 508.833 39.7375 508.833 40.3807V40.87H503.196V39.8359H507.48C507.48 39.4728 507.406 39.1512 507.259 38.8711C507.111 38.5879 506.903 38.3648 506.635 38.2017C506.371 38.0386 506.06 37.957 505.703 37.957C505.315 37.957 504.977 38.0524 504.687 38.2433C504.401 38.431 504.18 38.6772 504.023 38.9819C503.869 39.2835 503.792 39.6113 503.792 39.9652V40.7731C503.792 41.247 503.875 41.6502 504.041 41.9826C504.21 42.315 504.446 42.5689 504.747 42.7443C505.049 42.9167 505.401 43.0028 505.805 43.0028C506.066 43.0028 506.305 42.9659 506.52 42.892C506.735 42.8151 506.922 42.7012 507.079 42.5504C507.236 42.3996 507.356 42.2134 507.439 41.9918L508.745 42.2273C508.641 42.612 508.453 42.949 508.182 43.2383C507.914 43.5245 507.577 43.7476 507.171 43.9077C506.768 44.0646 506.308 44.1431 505.791 44.1431ZM511.717 42.0657L514.842 36.9091H516.329V44H514.976V38.8388L511.865 44H510.364V36.9091H511.717V42.0657ZM514.252 34.5085H515.387C515.387 35.0286 515.203 35.4518 514.833 35.7781C514.467 36.1012 513.971 36.2628 513.347 36.2628C512.725 36.2628 512.231 36.1012 511.865 35.7781C511.499 35.4518 511.315 35.0286 511.315 34.5085H512.446C512.446 34.7393 512.514 34.944 512.65 35.1225C512.785 35.2979 513.017 35.3857 513.347 35.3857C513.67 35.3857 513.901 35.2979 514.039 35.1225C514.181 34.9471 514.252 34.7424 514.252 34.5085ZM521.172 44.1431C520.485 44.1431 519.894 43.9877 519.399 43.6768C518.906 43.3629 518.528 42.9305 518.263 42.3796C517.999 41.8287 517.866 41.1978 517.866 40.4869C517.866 39.7667 518.002 39.1312 518.272 38.5803C518.543 38.0263 518.925 37.5939 519.417 37.283C519.91 36.9722 520.49 36.8168 521.158 36.8168C521.696 36.8168 522.176 36.9168 522.598 37.1168C523.02 37.3138 523.36 37.5908 523.618 37.9478C523.88 38.3048 524.035 38.7218 524.085 39.1989H522.741C522.667 38.8665 522.498 38.5803 522.233 38.3402C521.972 38.1001 521.621 37.9801 521.181 37.9801C520.796 37.9801 520.459 38.0817 520.17 38.2848C519.884 38.4848 519.66 38.7711 519.5 39.1435C519.34 39.5128 519.26 39.9498 519.26 40.4545C519.26 40.9716 519.339 41.4179 519.496 41.7933C519.653 42.1688 519.874 42.4596 520.161 42.6658C520.45 42.872 520.79 42.9751 521.181 42.9751C521.442 42.9751 521.679 42.9274 521.892 42.832C522.107 42.7335 522.287 42.5935 522.432 42.4119C522.58 42.2304 522.683 42.0118 522.741 41.7564H524.085C524.035 42.215 523.886 42.6243 523.637 42.9844C523.388 43.3445 523.054 43.6276 522.635 43.8338C522.22 44.04 521.732 44.1431 521.172 44.1431ZM532.002 42.9844H530.769L528.904 40.2145V40.1222H530.229L532.002 42.9844ZM532.002 37.3153L530.229 40.1776H528.904V40.0852L530.769 37.3153H532.002ZM534.592 42.9844H533.359L531.494 40.2145V40.1222H532.819L534.592 42.9844ZM534.592 37.3153L532.819 40.1776H531.494V40.0852L533.359 37.3153H534.592ZM544.713 39.2727C544.713 40.2822 544.529 41.1501 544.159 41.8764C543.79 42.5997 543.284 43.1567 542.641 43.5476C542 43.9354 541.273 44.1293 540.457 44.1293C539.638 44.1293 538.907 43.9354 538.264 43.5476C537.624 43.1567 537.119 42.5981 536.75 41.8718C536.381 41.1455 536.196 40.2791 536.196 39.2727C536.196 38.2633 536.381 37.3969 536.75 36.6737C537.119 35.9473 537.624 35.3903 538.264 35.0025C538.907 34.6116 539.638 34.4162 540.457 34.4162C541.273 34.4162 542 34.6116 542.641 35.0025C543.284 35.3903 543.79 35.9473 544.159 36.6737C544.529 37.3969 544.713 38.2633 544.713 39.2727ZM543.301 39.2727C543.301 38.5033 543.176 37.8555 542.927 37.3292C542.681 36.7998 542.342 36.3997 541.911 36.1289C541.483 35.855 540.999 35.718 540.457 35.718C539.912 35.718 539.426 35.855 538.998 36.1289C538.57 36.3997 538.232 36.7998 537.983 37.3292C537.736 37.8555 537.613 38.5033 537.613 39.2727C537.613 40.0421 537.736 40.6915 537.983 41.2209C538.232 41.7472 538.57 42.1473 538.998 42.4212C539.426 42.692 539.912 42.8274 540.457 42.8274C540.999 42.8274 541.483 42.692 541.911 42.4212C542.342 42.1473 542.681 41.7472 542.927 41.2209C543.176 40.6915 543.301 40.0421 543.301 39.2727ZM546.233 44V43.0536L550.074 38.174V38.1094H546.358V36.9091H551.796V37.9155L548.103 42.7351V42.7997H551.925V44H546.233ZM556.338 44.1431C555.673 44.1431 555.093 43.9908 554.597 43.6861C554.102 43.3814 553.717 42.9551 553.443 42.4073C553.169 41.8595 553.032 41.2193 553.032 40.4869C553.032 39.7513 553.169 39.1081 553.443 38.5572C553.717 38.0063 554.102 37.5785 554.597 37.2738C555.093 36.9691 555.673 36.8168 556.338 36.8168C557.002 36.8168 557.583 36.9691 558.078 37.2738C558.574 37.5785 558.958 38.0063 559.232 38.5572C559.506 39.1081 559.643 39.7513 559.643 40.4869C559.643 41.2193 559.506 41.8595 559.232 42.4073C558.958 42.9551 558.574 43.3814 558.078 43.6861C557.583 43.9908 557.002 44.1431 556.338 44.1431ZM556.342 42.9844C556.773 42.9844 557.13 42.8705 557.413 42.6428C557.696 42.415 557.906 42.1119 558.041 41.7333C558.18 41.3548 558.249 40.9377 558.249 40.4822C558.249 40.0298 558.18 39.6143 558.041 39.2358C557.906 38.8542 557.696 38.5479 557.413 38.3171C557.13 38.0863 556.773 37.9709 556.342 37.9709C555.908 37.9709 555.548 38.0863 555.262 38.3171C554.979 38.5479 554.768 38.8542 554.63 39.2358C554.494 39.6143 554.426 40.0298 554.426 40.4822C554.426 40.9377 554.494 41.3548 554.63 41.7333C554.768 42.1119 554.979 42.415 555.262 42.6428C555.548 42.8705 555.908 42.9844 556.342 42.9844ZM562.564 39.7898V44H561.184V36.9091H562.509V38.0632H562.596C562.76 37.6877 563.015 37.3861 563.363 37.1584C563.714 36.9306 564.155 36.8168 564.688 36.8168C565.171 36.8168 565.594 36.9183 565.957 37.1214C566.32 37.3215 566.602 37.62 566.802 38.017C567.002 38.4141 567.102 38.9049 567.102 39.4897V44H565.722V39.6559C565.722 39.1419 565.588 38.7403 565.32 38.451C565.052 38.1586 564.685 38.0124 564.217 38.0124C563.897 38.0124 563.612 38.0817 563.363 38.2202C563.117 38.3587 562.921 38.5618 562.776 38.8295C562.635 39.0942 562.564 39.4143 562.564 39.7898ZM568.824 42.9844L570.597 40.1222H571.922V40.2145L570.057 42.9844H568.824ZM568.824 37.3153H570.057L571.922 40.0852V40.1776H570.597L568.824 37.3153ZM571.428 42.9844L573.2 40.1222H574.525V40.2145L572.66 42.9844H571.428ZM571.428 37.3153H572.66L574.525 40.0852V40.1776H573.2L571.428 37.3153Z" fill="#4E5D7C" fill-opacity="0.5"/>
<path d="M297.766 378.332C326.624 377.253 354.731 368.841 379.437 353.889C404.142 338.936 424.631 317.937 438.972 292.871C453.312 267.806 461.031 239.5 461.4 210.625C461.769 181.749 454.776 153.255 441.082 127.831L291.414 208.451L297.766 378.332Z" fill="#9B59B6"/>
<path d="M441.071 127.99C422.887 94.0342 393.711 67.2605 358.322 52.0539C322.933 36.8473 283.429 34.1093 246.281 44.2885L291.207 208.245L441.071 127.99Z" fill="#3498DB"/>
<path d="M247.208 44.0373C224.534 50.1128 203.364 60.8182 185.031 75.4791C166.699 90.14 151.601 108.439 140.69 129.222C129.778 150.006 123.289 172.824 121.631 196.24C119.974 219.655 123.183 243.16 131.058 265.273L291.207 208.245L247.208 44.0373Z" fill="#2ECC71"/>
<path d="M127 252.244C137.005 289.583 159.437 322.397 190.596 345.275C221.755 368.153 259.781 379.729 298.403 378.092L291.207 208.245L127 252.244Z" fill="#F1C40F"/>
<circle cx="291.207" cy="208.245" r="100" transform="rotate(-105 291.207 208.245)" fill="#F2F7FB"/>
<path d="M169.069 132.546V142H166.788V134.679H166.733L164.618 135.971V133.996L166.95 132.546H169.069ZM174.755 142.13C174.035 142.13 173.396 142.007 172.839 141.76C172.285 141.511 171.848 141.168 171.528 140.731C171.208 140.294 171.045 139.791 171.039 139.221H173.338C173.347 139.428 173.413 139.611 173.536 139.771C173.659 139.928 173.827 140.051 174.039 140.14C174.252 140.229 174.493 140.274 174.764 140.274C175.035 140.274 175.274 140.226 175.48 140.131C175.689 140.032 175.852 139.898 175.969 139.729C176.086 139.557 176.143 139.36 176.14 139.138C176.143 138.917 176.08 138.72 175.951 138.547C175.821 138.375 175.638 138.241 175.401 138.146C175.167 138.05 174.89 138.003 174.57 138.003H173.652V136.378H174.57C174.85 136.378 175.097 136.331 175.309 136.239C175.524 136.147 175.692 136.018 175.812 135.851C175.932 135.682 175.991 135.488 175.988 135.27C175.991 135.057 175.94 134.871 175.835 134.711C175.734 134.548 175.591 134.422 175.406 134.333C175.224 134.243 175.014 134.199 174.773 134.199C174.521 134.199 174.292 134.243 174.086 134.333C173.882 134.422 173.721 134.548 173.601 134.711C173.481 134.874 173.418 135.063 173.412 135.279H171.228C171.234 134.716 171.391 134.22 171.699 133.792C172.007 133.362 172.425 133.025 172.955 132.781C173.487 132.538 174.093 132.417 174.773 132.417C175.451 132.417 176.046 132.535 176.56 132.772C177.074 133.009 177.474 133.332 177.76 133.742C178.047 134.148 178.19 134.608 178.19 135.122C178.193 135.654 178.019 136.093 177.668 136.438C177.32 136.782 176.872 136.995 176.325 137.075V137.149C177.057 137.235 177.61 137.472 177.982 137.86C178.357 138.247 178.544 138.732 178.541 139.314C178.541 139.862 178.379 140.348 178.056 140.773C177.736 141.194 177.289 141.527 176.717 141.77C176.148 142.01 175.494 142.13 174.755 142.13ZM185.125 140.228V139.729C185.125 139.341 185.208 138.983 185.374 138.654C185.543 138.324 185.788 138.06 186.108 137.86C186.428 137.659 186.819 137.559 187.281 137.559C187.752 137.559 188.147 137.659 188.467 137.86C188.79 138.056 189.033 138.32 189.196 138.649C189.363 138.975 189.446 139.335 189.446 139.729V140.228C189.446 140.616 189.363 140.974 189.196 141.303C189.03 141.633 188.786 141.897 188.462 142.097C188.139 142.297 187.745 142.398 187.281 142.398C186.813 142.398 186.419 142.297 186.099 142.097C185.779 141.897 185.536 141.633 185.369 141.303C185.206 140.974 185.125 140.616 185.125 140.228ZM186.597 139.729V140.228C186.597 140.425 186.645 140.614 186.741 140.796C186.839 140.977 187.019 141.068 187.281 141.068C187.548 141.068 187.728 140.98 187.821 140.805C187.913 140.626 187.959 140.434 187.959 140.228V139.729C187.959 139.523 187.915 139.329 187.825 139.148C187.739 138.963 187.558 138.871 187.281 138.871C187.022 138.871 186.844 138.963 186.745 139.148C186.647 139.329 186.597 139.523 186.597 139.729ZM180.222 134.817V134.319C180.222 133.925 180.307 133.565 180.476 133.238C180.648 132.909 180.895 132.646 181.215 132.449C181.535 132.249 181.922 132.149 182.378 132.149C182.849 132.149 183.244 132.249 183.564 132.449C183.888 132.646 184.132 132.909 184.298 133.238C184.465 133.565 184.548 133.925 184.548 134.319V134.817C184.548 135.211 184.463 135.571 184.294 135.898C184.128 136.224 183.883 136.484 183.56 136.678C183.237 136.872 182.843 136.969 182.378 136.969C181.913 136.969 181.519 136.87 181.196 136.673C180.876 136.476 180.633 136.215 180.467 135.888C180.304 135.562 180.222 135.205 180.222 134.817ZM181.709 134.319V134.817C181.709 135.023 181.756 135.216 181.852 135.394C181.95 135.57 182.126 135.657 182.378 135.657C182.649 135.657 182.829 135.57 182.918 135.394C183.01 135.216 183.057 135.023 183.057 134.817V134.319C183.057 134.112 183.013 133.919 182.927 133.737C182.841 133.552 182.658 133.46 182.378 133.46C182.119 133.46 181.942 133.554 181.847 133.742C181.755 133.929 181.709 134.122 181.709 134.319ZM180.919 142L187.419 132.546H188.679L182.179 142H180.919Z" fill="white"/>
<path d="M208.069 309.546V319H205.788V311.679H205.733L203.618 312.971V310.996L205.95 309.546H208.069ZM214.531 309.546V319H212.25V311.679H212.195L210.08 312.971V310.996L212.412 309.546H214.531ZM221.916 317.228V316.729C221.916 316.341 221.999 315.983 222.165 315.654C222.334 315.324 222.579 315.06 222.899 314.86C223.219 314.659 223.61 314.559 224.072 314.559C224.543 314.559 224.938 314.659 225.258 314.86C225.581 315.056 225.824 315.32 225.988 315.649C226.154 315.975 226.237 316.335 226.237 316.729V317.228C226.237 317.616 226.154 317.974 225.988 318.303C225.821 318.633 225.577 318.897 225.253 319.097C224.93 319.297 224.536 319.398 224.072 319.398C223.604 319.398 223.21 319.297 222.89 319.097C222.57 318.897 222.327 318.633 222.16 318.303C221.997 317.974 221.916 317.616 221.916 317.228ZM223.388 316.729V317.228C223.388 317.425 223.436 317.614 223.532 317.796C223.63 317.977 223.81 318.068 224.072 318.068C224.339 318.068 224.519 317.98 224.612 317.805C224.704 317.626 224.75 317.434 224.75 317.228V316.729C224.75 316.523 224.706 316.329 224.616 316.148C224.53 315.963 224.349 315.871 224.072 315.871C223.813 315.871 223.635 315.963 223.536 316.148C223.438 316.329 223.388 316.523 223.388 316.729ZM217.013 311.817V311.319C217.013 310.925 217.098 310.565 217.267 310.238C217.439 309.909 217.686 309.646 218.006 309.449C218.326 309.249 218.713 309.149 219.169 309.149C219.64 309.149 220.035 309.249 220.355 309.449C220.679 309.646 220.923 309.909 221.089 310.238C221.256 310.565 221.339 310.925 221.339 311.319V311.817C221.339 312.211 221.254 312.571 221.085 312.898C220.919 313.224 220.674 313.484 220.351 313.678C220.028 313.872 219.634 313.969 219.169 313.969C218.704 313.969 218.31 313.87 217.987 313.673C217.667 313.476 217.424 313.215 217.258 312.888C217.095 312.562 217.013 312.205 217.013 311.817ZM218.5 311.319V311.817C218.5 312.023 218.547 312.216 218.643 312.394C218.741 312.57 218.917 312.657 219.169 312.657C219.44 312.657 219.62 312.57 219.709 312.394C219.801 312.216 219.848 312.023 219.848 311.817V311.319C219.848 311.112 219.805 310.919 219.718 310.737C219.632 310.552 219.449 310.46 219.169 310.46C218.91 310.46 218.733 310.554 218.638 310.742C218.546 310.929 218.5 311.122 218.5 311.319ZM217.71 319L224.21 309.546H225.47L218.97 319H217.71Z" fill="white"/>
<path d="M348.069 82.5459V92.0005H345.788V84.6788H345.733L343.618 85.9714V83.9955L345.95 82.5459H348.069ZM354.531 82.5459V92.0005H352.25V84.6788H352.195L350.08 85.9714V83.9955L352.412 82.5459H354.531ZM361.916 90.2278V89.7292C361.916 89.3414 361.999 88.9829 362.165 88.6535C362.334 88.3242 362.579 88.0596 362.899 87.8595C363.219 87.6595 363.61 87.5594 364.072 87.5594C364.543 87.5594 364.938 87.6595 365.258 87.8595C365.581 88.0565 365.824 88.3196 365.988 88.6489C366.154 88.9752 366.237 89.3352 366.237 89.7292V90.2278C366.237 90.6155 366.154 90.9741 365.988 91.3034C365.821 91.6327 365.577 91.8974 365.253 92.0974C364.93 92.2975 364.536 92.3975 364.072 92.3975C363.604 92.3975 363.21 92.2975 362.89 92.0974C362.57 91.8974 362.327 91.6327 362.16 91.3034C361.997 90.9741 361.916 90.6155 361.916 90.2278ZM363.388 89.7292V90.2278C363.388 90.4247 363.436 90.614 363.532 90.7956C363.63 90.9772 363.81 91.068 364.072 91.068C364.339 91.068 364.519 90.9802 364.612 90.8048C364.704 90.6263 364.75 90.434 364.75 90.2278V89.7292C364.75 89.523 364.706 89.3291 364.616 89.1475C364.53 88.9628 364.349 88.8705 364.072 88.8705C363.813 88.8705 363.635 88.9628 363.536 89.1475C363.438 89.3291 363.388 89.523 363.388 89.7292ZM357.013 84.8172V84.3187C357.013 83.9247 357.098 83.5646 357.267 83.2384C357.439 82.9091 357.686 82.646 358.006 82.449C358.326 82.2489 358.713 82.1489 359.169 82.1489C359.64 82.1489 360.035 82.2489 360.355 82.449C360.679 82.646 360.923 82.9091 361.089 83.2384C361.256 83.5646 361.339 83.9247 361.339 84.3187V84.8172C361.339 85.2112 361.254 85.5713 361.085 85.8975C360.919 86.2237 360.674 86.4838 360.351 86.6777C360.028 86.8716 359.634 86.9685 359.169 86.9685C358.704 86.9685 358.31 86.87 357.987 86.6731C357.667 86.4761 357.424 86.2145 357.258 85.8883C357.095 85.562 357.013 85.205 357.013 84.8172ZM358.5 84.3187V84.8172C358.5 85.0235 358.547 85.2158 358.643 85.3943C358.741 85.5697 358.917 85.6574 359.169 85.6574C359.44 85.6574 359.62 85.5697 359.709 85.3943C359.801 85.2158 359.848 85.0235 359.848 84.8172V84.3187C359.848 84.1125 359.805 83.9186 359.718 83.737C359.632 83.5523 359.449 83.46 359.169 83.46C358.91 83.46 358.733 83.5539 358.638 83.7416C358.546 83.9293 358.5 84.1217 358.5 84.3187ZM357.71 92.0005L364.21 82.5459H365.47L358.97 92.0005H357.71Z" fill="white"/>
<path d="M399.069 270.546V280H396.788V272.679H396.733L394.618 273.971V271.996L396.95 270.546H399.069ZM401.159 280V278.357L404.607 275.338C404.866 275.104 405.086 274.89 405.267 274.696C405.449 274.499 405.588 274.302 405.683 274.105C405.778 273.905 405.826 273.688 405.826 273.454C405.826 273.193 405.769 272.97 405.655 272.785C405.541 272.597 405.384 272.453 405.184 272.351C404.984 272.249 404.755 272.199 404.496 272.199C404.235 272.199 404.006 272.253 403.809 272.36C403.612 272.465 403.458 272.617 403.347 272.817C403.239 273.017 403.185 273.26 403.185 273.547H401.02C401.02 272.903 401.165 272.348 401.454 271.88C401.744 271.412 402.15 271.052 402.673 270.8C403.199 270.544 403.81 270.417 404.506 270.417C405.223 270.417 405.846 270.537 406.375 270.777C406.905 271.017 407.314 271.352 407.603 271.783C407.896 272.211 408.042 272.708 408.042 273.274C408.042 273.634 407.97 273.991 407.825 274.345C407.68 274.699 407.42 275.09 407.045 275.518C406.672 275.946 406.143 276.458 405.457 277.055L404.326 278.098V278.159H408.157V280H401.159ZM414.744 278.228V277.729C414.744 277.341 414.827 276.983 414.993 276.654C415.162 276.324 415.407 276.06 415.727 275.86C416.047 275.659 416.438 275.559 416.9 275.559C417.371 275.559 417.766 275.659 418.086 275.86C418.409 276.056 418.653 276.32 418.816 276.649C418.982 276.975 419.065 277.335 419.065 277.729V278.228C419.065 278.616 418.982 278.974 418.816 279.303C418.649 279.633 418.405 279.897 418.082 280.097C417.758 280.297 417.365 280.398 416.9 280.398C416.432 280.398 416.038 280.297 415.718 280.097C415.398 279.897 415.155 279.633 414.989 279.303C414.825 278.974 414.744 278.616 414.744 278.228ZM416.217 277.729V278.228C416.217 278.425 416.264 278.614 416.36 278.796C416.458 278.977 416.638 279.068 416.9 279.068C417.168 279.068 417.348 278.98 417.44 278.805C417.532 278.626 417.578 278.434 417.578 278.228V277.729C417.578 277.523 417.534 277.329 417.445 277.148C417.358 276.963 417.177 276.871 416.9 276.871C416.641 276.871 416.463 276.963 416.364 277.148C416.266 277.329 416.217 277.523 416.217 277.729ZM409.841 272.817V272.319C409.841 271.925 409.926 271.565 410.095 271.238C410.267 270.909 410.514 270.646 410.834 270.449C411.154 270.249 411.542 270.149 411.997 270.149C412.468 270.149 412.863 270.249 413.184 270.449C413.507 270.646 413.751 270.909 413.918 271.238C414.084 271.565 414.167 271.925 414.167 272.319V272.817C414.167 273.211 414.082 273.571 413.913 273.898C413.747 274.224 413.502 274.484 413.179 274.678C412.856 274.872 412.462 274.969 411.997 274.969C411.532 274.969 411.138 274.87 410.815 274.673C410.495 274.476 410.252 274.215 410.086 273.888C409.923 273.562 409.841 273.205 409.841 272.817ZM411.328 272.319V272.817C411.328 273.023 411.375 273.216 411.471 273.394C411.569 273.57 411.745 273.657 411.997 273.657C412.268 273.657 412.448 273.57 412.537 273.394C412.63 273.216 412.676 273.023 412.676 272.817V272.319C412.676 272.112 412.633 271.919 412.546 271.737C412.46 271.552 412.277 271.46 411.997 271.46C411.739 271.46 411.562 271.554 411.466 271.742C411.374 271.929 411.328 272.122 411.328 272.319ZM410.538 280L417.038 270.546H418.299L411.799 280H410.538Z" fill="white"/>
</svg>
