<svg width="394" height="273" viewBox="0 0 394 273" fill="none" xmlns="http://www.w3.org/2000/svg">
<path d="M2.29545 135V111.727H6.51136V121.58H17.2955V111.727H21.5227V135H17.2955V125.114H6.51136V135H2.29545ZM30.9489 135.352C29.8428 135.352 28.8466 135.155 27.9602 134.761C27.0814 134.36 26.3845 133.769 25.8693 132.989C25.3617 132.208 25.108 131.246 25.108 130.102C25.108 129.117 25.2898 128.303 25.6534 127.659C26.017 127.015 26.5133 126.5 27.142 126.114C27.7708 125.727 28.4792 125.436 29.267 125.239C30.0625 125.034 30.8845 124.886 31.733 124.795C32.7557 124.689 33.5852 124.595 34.2216 124.511C34.858 124.42 35.3201 124.284 35.608 124.102C35.9034 123.913 36.0511 123.621 36.0511 123.227V123.159C36.0511 122.303 35.7973 121.64 35.2898 121.17C34.7822 120.701 34.0511 120.466 33.0966 120.466C32.089 120.466 31.2898 120.686 30.6989 121.125C30.1155 121.564 29.7216 122.083 29.517 122.682L25.6761 122.136C25.9792 121.076 26.4792 120.189 27.1761 119.477C27.8731 118.758 28.7254 118.22 29.733 117.864C30.7405 117.5 31.8542 117.318 33.0739 117.318C33.9148 117.318 34.7519 117.417 35.5852 117.614C36.4186 117.811 37.1799 118.136 37.8693 118.591C38.5587 119.038 39.1117 119.648 39.5284 120.42C39.9527 121.193 40.1648 122.159 40.1648 123.318V135H36.2102V132.602H36.0739C35.8239 133.087 35.4716 133.542 35.017 133.966C34.5701 134.383 34.0057 134.72 33.3239 134.977C32.6496 135.227 31.858 135.352 30.9489 135.352ZM32.017 132.33C32.8428 132.33 33.5587 132.167 34.1648 131.841C34.7708 131.508 35.2367 131.068 35.5625 130.523C35.8958 129.977 36.0625 129.383 36.0625 128.739V126.682C35.9337 126.788 35.714 126.886 35.4034 126.977C35.1004 127.068 34.7595 127.148 34.3807 127.216C34.0019 127.284 33.6269 127.345 33.2557 127.398C32.8845 127.451 32.5625 127.496 32.2898 127.534C31.6761 127.617 31.1269 127.754 30.642 127.943C30.1572 128.133 29.7746 128.398 29.4943 128.739C29.214 129.072 29.0739 129.504 29.0739 130.034C29.0739 130.792 29.3504 131.364 29.9034 131.75C30.4564 132.136 31.161 132.33 32.017 132.33ZM42.7557 140.068V131.614H44.142C44.5133 131.326 44.8239 130.936 45.0739 130.443C45.3239 129.943 45.5284 129.356 45.6875 128.682C45.8542 128 45.9905 127.239 46.0966 126.398C46.2027 125.549 46.2973 124.636 46.3807 123.659L46.8807 117.545H59.4943V131.614H62.1989V140.068H58.2216V135H46.8011V140.068H42.7557ZM48.3693 131.614H55.5625V120.864H50.4489L50.1761 123.659C50.0246 125.508 49.8239 127.091 49.5739 128.409C49.3239 129.727 48.9223 130.795 48.3693 131.614ZM72.9972 135.341C71.2472 135.341 69.7358 134.977 68.4631 134.25C67.1979 133.515 66.2244 132.477 65.5426 131.136C64.8608 129.788 64.5199 128.201 64.5199 126.375C64.5199 124.58 64.8608 123.004 65.5426 121.648C66.232 120.284 67.1941 119.223 68.429 118.466C69.6638 117.701 71.1146 117.318 72.7812 117.318C73.857 117.318 74.8722 117.492 75.8267 117.841C76.7888 118.182 77.6373 118.712 78.3722 119.432C79.1146 120.152 79.6979 121.068 80.1222 122.182C80.5464 123.288 80.7585 124.606 80.7585 126.136V127.398H66.4517V124.625H76.8153C76.8078 123.837 76.6373 123.136 76.304 122.523C75.9706 121.902 75.5047 121.413 74.9062 121.057C74.3153 120.701 73.6259 120.523 72.8381 120.523C71.9972 120.523 71.2585 120.727 70.6222 121.136C69.9858 121.538 69.4896 122.068 69.1335 122.727C68.785 123.379 68.607 124.095 68.5994 124.875V127.295C68.5994 128.311 68.785 129.182 69.1562 129.909C69.5275 130.629 70.0464 131.182 70.7131 131.568C71.3797 131.947 72.16 132.136 73.054 132.136C73.6525 132.136 74.1941 132.053 74.679 131.886C75.1638 131.712 75.5843 131.458 75.9403 131.125C76.2964 130.792 76.5653 130.379 76.7472 129.886L80.5881 130.318C80.3456 131.333 79.8835 132.22 79.2017 132.977C78.5275 133.727 77.6638 134.311 76.6108 134.727C75.5578 135.136 74.3532 135.341 72.9972 135.341ZM69.2699 114.977C68.6714 114.977 68.1525 114.765 67.7131 114.341C67.2813 113.917 67.0653 113.417 67.0653 112.841C67.0653 112.235 67.2813 111.727 67.7131 111.318C68.1525 110.902 68.6714 110.693 69.2699 110.693C69.8835 110.693 70.3987 110.902 70.8153 111.318C71.2396 111.727 71.4517 112.235 71.4517 112.841C71.4517 113.417 71.2396 113.917 70.8153 114.341C70.3987 114.765 69.8835 114.977 69.2699 114.977ZM76.0881 114.977C75.4896 114.977 74.9706 114.765 74.5312 114.341C74.0994 113.917 73.8835 113.417 73.8835 112.841C73.8835 112.235 74.0994 111.727 74.5312 111.318C74.9706 110.902 75.4896 110.693 76.0881 110.693C76.7017 110.693 77.2169 110.902 77.6335 111.318C78.0578 111.727 78.2699 112.235 78.2699 112.841C78.2699 113.417 78.0578 113.917 77.6335 114.341C77.2169 114.765 76.7017 114.977 76.0881 114.977ZM82.7273 135L89.1705 125.989L82.7841 117.545H87.5341L92.5 124.58H93.4773V117.545H97.5909V124.58H98.5455L103.511 117.545H108.261L101.909 125.989L108.318 135H103.466L98.5 127.955H97.5909V135H93.4773V127.955H92.5682L87.5795 135H82.7273ZM123.384 124.568V127.943H114.088V124.568H123.384ZM115.361 117.545V135H111.395V117.545H115.361ZM126.077 117.545V135H122.122V117.545H126.077ZM133.023 123.227H138.17C140.398 123.227 142.121 123.769 143.341 124.852C144.561 125.936 145.174 127.356 145.182 129.114C145.174 130.258 144.894 131.273 144.341 132.159C143.795 133.045 143 133.742 141.955 134.25C140.917 134.75 139.655 135 138.17 135H130.239V117.545H134.205V131.625H138.17C139.064 131.625 139.799 131.398 140.375 130.943C140.951 130.481 141.239 129.89 141.239 129.17C141.239 128.413 140.951 127.795 140.375 127.318C139.799 126.841 139.064 126.602 138.17 126.602H133.023V123.227ZM147.352 135V117.545H151.466V135H147.352ZM163.435 135.341C161.685 135.341 160.173 134.977 158.901 134.25C157.635 133.515 156.662 132.477 155.98 131.136C155.298 129.788 154.957 128.201 154.957 126.375C154.957 124.58 155.298 123.004 155.98 121.648C156.67 120.284 157.632 119.223 158.866 118.466C160.101 117.701 161.552 117.318 163.219 117.318C164.295 117.318 165.31 117.492 166.264 117.841C167.226 118.182 168.075 118.712 168.81 119.432C169.552 120.152 170.135 121.068 170.56 122.182C170.984 123.288 171.196 124.606 171.196 126.136V127.398H156.889V124.625H167.253C167.245 123.837 167.075 123.136 166.741 122.523C166.408 121.902 165.942 121.413 165.344 121.057C164.753 120.701 164.063 120.523 163.276 120.523C162.435 120.523 161.696 120.727 161.06 121.136C160.423 121.538 159.927 122.068 159.571 122.727C159.223 123.379 159.045 124.095 159.037 124.875V127.295C159.037 128.311 159.223 129.182 159.594 129.909C159.965 130.629 160.484 131.182 161.151 131.568C161.817 131.947 162.598 132.136 163.491 132.136C164.09 132.136 164.632 132.053 165.116 131.886C165.601 131.712 166.022 131.458 166.378 131.125C166.734 130.792 167.003 130.379 167.185 129.886L171.026 130.318C170.783 131.333 170.321 132.22 169.639 132.977C168.965 133.727 168.101 134.311 167.048 134.727C165.995 135.136 164.791 135.341 163.435 135.341ZM190.227 135.341C188.485 135.341 186.989 134.958 185.739 134.193C184.496 133.428 183.538 132.371 182.864 131.023C182.197 129.667 181.864 128.106 181.864 126.341C181.864 124.568 182.205 123.004 182.886 121.648C183.568 120.284 184.53 119.223 185.773 118.466C187.023 117.701 188.5 117.318 190.205 117.318C191.621 117.318 192.875 117.58 193.966 118.102C195.064 118.617 195.939 119.348 196.591 120.295C197.242 121.235 197.614 122.333 197.705 123.591H193.773C193.614 122.75 193.235 122.049 192.636 121.489C192.045 120.92 191.254 120.636 190.261 120.636C189.42 120.636 188.682 120.864 188.045 121.318C187.409 121.765 186.913 122.409 186.557 123.25C186.208 124.091 186.034 125.098 186.034 126.273C186.034 127.462 186.208 128.485 186.557 129.341C186.905 130.189 187.394 130.845 188.023 131.307C188.659 131.761 189.405 131.989 190.261 131.989C190.867 131.989 191.409 131.875 191.886 131.648C192.371 131.413 192.777 131.076 193.102 130.636C193.428 130.197 193.652 129.663 193.773 129.034H197.705C197.606 130.269 197.242 131.364 196.614 132.318C195.985 133.265 195.129 134.008 194.045 134.545C192.962 135.076 191.689 135.341 190.227 135.341ZM208.81 135.341C207.06 135.341 205.548 134.977 204.276 134.25C203.01 133.515 202.037 132.477 201.355 131.136C200.673 129.788 200.332 128.201 200.332 126.375C200.332 124.58 200.673 123.004 201.355 121.648C202.045 120.284 203.007 119.223 204.241 118.466C205.476 117.701 206.927 117.318 208.594 117.318C209.67 117.318 210.685 117.492 211.639 117.841C212.601 118.182 213.45 118.712 214.185 119.432C214.927 120.152 215.51 121.068 215.935 122.182C216.359 123.288 216.571 124.606 216.571 126.136V127.398H202.264V124.625H212.628C212.62 123.837 212.45 123.136 212.116 122.523C211.783 121.902 211.317 121.413 210.719 121.057C210.128 120.701 209.438 120.523 208.651 120.523C207.81 120.523 207.071 120.727 206.435 121.136C205.798 121.538 205.302 122.068 204.946 122.727C204.598 123.379 204.42 124.095 204.412 124.875V127.295C204.412 128.311 204.598 129.182 204.969 129.909C205.34 130.629 205.859 131.182 206.526 131.568C207.192 131.947 207.973 132.136 208.866 132.136C209.465 132.136 210.007 132.053 210.491 131.886C210.976 131.712 211.397 131.458 211.753 131.125C212.109 130.792 212.378 130.379 212.56 129.886L216.401 130.318C216.158 131.333 215.696 132.22 215.014 132.977C214.34 133.727 213.476 134.311 212.423 134.727C211.37 135.136 210.166 135.341 208.81 135.341ZM220.051 141.545V117.545H224.097V120.432H224.335C224.547 120.008 224.847 119.557 225.233 119.08C225.619 118.595 226.142 118.182 226.801 117.841C227.46 117.492 228.301 117.318 229.324 117.318C230.672 117.318 231.888 117.663 232.972 118.352C234.063 119.034 234.926 120.045 235.562 121.386C236.206 122.72 236.528 124.356 236.528 126.295C236.528 128.212 236.214 129.841 235.585 131.182C234.956 132.523 234.1 133.545 233.017 134.25C231.934 134.955 230.706 135.307 229.335 135.307C228.335 135.307 227.506 135.14 226.847 134.807C226.188 134.473 225.657 134.072 225.256 133.602C224.862 133.125 224.555 132.674 224.335 132.25H224.165V141.545H220.051ZM224.085 126.273C224.085 127.402 224.244 128.39 224.562 129.239C224.888 130.087 225.354 130.75 225.96 131.227C226.574 131.697 227.316 131.932 228.188 131.932C229.097 131.932 229.858 131.689 230.472 131.205C231.085 130.712 231.547 130.042 231.858 129.193C232.176 128.337 232.335 127.364 232.335 126.273C232.335 125.189 232.18 124.227 231.869 123.386C231.559 122.545 231.097 121.886 230.483 121.409C229.869 120.932 229.104 120.693 228.188 120.693C227.309 120.693 226.562 120.924 225.949 121.386C225.335 121.848 224.869 122.496 224.551 123.33C224.241 124.163 224.085 125.144 224.085 126.273ZM240.051 135V117.545H247.381C249.449 117.545 251.081 117.958 252.278 118.784C253.483 119.61 254.085 120.761 254.085 122.239C254.085 123.216 253.744 124.015 253.062 124.636C252.388 125.25 251.468 125.663 250.301 125.875C251.218 125.951 252.021 126.182 252.71 126.568C253.407 126.955 253.953 127.462 254.347 128.091C254.741 128.72 254.938 129.443 254.938 130.261C254.938 131.223 254.684 132.061 254.176 132.773C253.676 133.477 252.945 134.027 251.983 134.42C251.028 134.807 249.869 135 248.506 135H240.051ZM243.903 131.761H248.506C249.263 131.761 249.858 131.583 250.29 131.227C250.722 130.864 250.938 130.371 250.938 129.75C250.938 129.03 250.722 128.466 250.29 128.057C249.858 127.64 249.263 127.432 248.506 127.432H243.903V131.761ZM243.903 124.773H247.46C248.021 124.773 248.502 124.693 248.903 124.534C249.305 124.367 249.612 124.136 249.824 123.841C250.036 123.538 250.142 123.178 250.142 122.761C250.142 122.163 249.896 121.693 249.403 121.352C248.919 121.011 248.244 120.841 247.381 120.841H243.903V124.773ZM266.06 135.341C264.31 135.341 262.798 134.977 261.526 134.25C260.26 133.515 259.287 132.477 258.605 131.136C257.923 129.788 257.582 128.201 257.582 126.375C257.582 124.58 257.923 123.004 258.605 121.648C259.295 120.284 260.257 119.223 261.491 118.466C262.726 117.701 264.177 117.318 265.844 117.318C266.92 117.318 267.935 117.492 268.889 117.841C269.851 118.182 270.7 118.712 271.435 119.432C272.177 120.152 272.76 121.068 273.185 122.182C273.609 123.288 273.821 124.606 273.821 126.136V127.398H259.514V124.625H269.878C269.87 123.837 269.7 123.136 269.366 122.523C269.033 121.902 268.567 121.413 267.969 121.057C267.378 120.701 266.688 120.523 265.901 120.523C265.06 120.523 264.321 120.727 263.685 121.136C263.048 121.538 262.552 122.068 262.196 122.727C261.848 123.379 261.67 124.095 261.662 124.875V127.295C261.662 128.311 261.848 129.182 262.219 129.909C262.59 130.629 263.109 131.182 263.776 131.568C264.442 131.947 265.223 132.136 266.116 132.136C266.715 132.136 267.257 132.053 267.741 131.886C268.226 131.712 268.647 131.458 269.003 131.125C269.359 130.792 269.628 130.379 269.81 129.886L273.651 130.318C273.408 131.333 272.946 132.22 272.264 132.977C271.59 133.727 270.726 134.311 269.673 134.727C268.62 135.136 267.416 135.341 266.06 135.341ZM277.301 141.545V117.545H281.347V120.432H281.585C281.797 120.008 282.097 119.557 282.483 119.08C282.869 118.595 283.392 118.182 284.051 117.841C284.71 117.492 285.551 117.318 286.574 117.318C287.922 117.318 289.138 117.663 290.222 118.352C291.313 119.034 292.176 120.045 292.812 121.386C293.456 122.72 293.778 124.356 293.778 126.295C293.778 128.212 293.464 129.841 292.835 131.182C292.206 132.523 291.35 133.545 290.267 134.25C289.184 134.955 287.956 135.307 286.585 135.307C285.585 135.307 284.756 135.14 284.097 134.807C283.438 134.473 282.907 134.072 282.506 133.602C282.112 133.125 281.805 132.674 281.585 132.25H281.415V141.545H277.301ZM281.335 126.273C281.335 127.402 281.494 128.39 281.812 129.239C282.138 130.087 282.604 130.75 283.21 131.227C283.824 131.697 284.566 131.932 285.438 131.932C286.347 131.932 287.108 131.689 287.722 131.205C288.335 130.712 288.797 130.042 289.108 129.193C289.426 128.337 289.585 127.364 289.585 126.273C289.585 125.189 289.43 124.227 289.119 123.386C288.809 122.545 288.347 121.886 287.733 121.409C287.119 120.932 286.354 120.693 285.438 120.693C284.559 120.693 283.812 120.924 283.199 121.386C282.585 121.848 282.119 122.496 281.801 123.33C281.491 124.163 281.335 125.144 281.335 126.273ZM302.324 135.352C301.218 135.352 300.222 135.155 299.335 134.761C298.456 134.36 297.759 133.769 297.244 132.989C296.737 132.208 296.483 131.246 296.483 130.102C296.483 129.117 296.665 128.303 297.028 127.659C297.392 127.015 297.888 126.5 298.517 126.114C299.146 125.727 299.854 125.436 300.642 125.239C301.438 125.034 302.259 124.886 303.108 124.795C304.131 124.689 304.96 124.595 305.597 124.511C306.233 124.42 306.695 124.284 306.983 124.102C307.278 123.913 307.426 123.621 307.426 123.227V123.159C307.426 122.303 307.172 121.64 306.665 121.17C306.157 120.701 305.426 120.466 304.472 120.466C303.464 120.466 302.665 120.686 302.074 121.125C301.491 121.564 301.097 122.083 300.892 122.682L297.051 122.136C297.354 121.076 297.854 120.189 298.551 119.477C299.248 118.758 300.1 118.22 301.108 117.864C302.116 117.5 303.229 117.318 304.449 117.318C305.29 117.318 306.127 117.417 306.96 117.614C307.794 117.811 308.555 118.136 309.244 118.591C309.934 119.038 310.487 119.648 310.903 120.42C311.328 121.193 311.54 122.159 311.54 123.318V135H307.585V132.602H307.449C307.199 133.087 306.847 133.542 306.392 133.966C305.945 134.383 305.381 134.72 304.699 134.977C304.025 135.227 303.233 135.352 302.324 135.352ZM303.392 132.33C304.218 132.33 304.934 132.167 305.54 131.841C306.146 131.508 306.612 131.068 306.938 130.523C307.271 129.977 307.438 129.383 307.438 128.739V126.682C307.309 126.788 307.089 126.886 306.778 126.977C306.475 127.068 306.134 127.148 305.756 127.216C305.377 127.284 305.002 127.345 304.631 127.398C304.259 127.451 303.938 127.496 303.665 127.534C303.051 127.617 302.502 127.754 302.017 127.943C301.532 128.133 301.15 128.398 300.869 128.739C300.589 129.072 300.449 129.504 300.449 130.034C300.449 130.792 300.725 131.364 301.278 131.75C301.831 132.136 302.536 132.33 303.392 132.33ZM335.602 124.568V127.943H326.307V124.568H335.602ZM327.58 117.545V135H323.614V117.545H327.58ZM338.295 117.545V135H334.341V117.545H338.295ZM347.48 135.352C346.374 135.352 345.378 135.155 344.491 134.761C343.613 134.36 342.916 133.769 342.401 132.989C341.893 132.208 341.639 131.246 341.639 130.102C341.639 129.117 341.821 128.303 342.185 127.659C342.548 127.015 343.045 126.5 343.673 126.114C344.302 125.727 345.01 125.436 345.798 125.239C346.594 125.034 347.416 124.886 348.264 124.795C349.287 124.689 350.116 124.595 350.753 124.511C351.389 124.42 351.851 124.284 352.139 124.102C352.435 123.913 352.582 123.621 352.582 123.227V123.159C352.582 122.303 352.329 121.64 351.821 121.17C351.313 120.701 350.582 120.466 349.628 120.466C348.62 120.466 347.821 120.686 347.23 121.125C346.647 121.564 346.253 122.083 346.048 122.682L342.207 122.136C342.51 121.076 343.01 120.189 343.707 119.477C344.404 118.758 345.257 118.22 346.264 117.864C347.272 117.5 348.385 117.318 349.605 117.318C350.446 117.318 351.283 117.417 352.116 117.614C352.95 117.811 353.711 118.136 354.401 118.591C355.09 119.038 355.643 119.648 356.06 120.42C356.484 121.193 356.696 122.159 356.696 123.318V135H352.741V132.602H352.605C352.355 133.087 352.003 133.542 351.548 133.966C351.101 134.383 350.537 134.72 349.855 134.977C349.181 135.227 348.389 135.352 347.48 135.352ZM348.548 132.33C349.374 132.33 350.09 132.167 350.696 131.841C351.302 131.508 351.768 131.068 352.094 130.523C352.427 129.977 352.594 129.383 352.594 128.739V126.682C352.465 126.788 352.245 126.886 351.935 126.977C351.632 127.068 351.291 127.148 350.912 127.216C350.533 127.284 350.158 127.345 349.787 127.398C349.416 127.451 349.094 127.496 348.821 127.534C348.207 127.617 347.658 127.754 347.173 127.943C346.688 128.133 346.306 128.398 346.026 128.739C345.745 129.072 345.605 129.504 345.605 130.034C345.605 130.792 345.882 131.364 346.435 131.75C346.988 132.136 347.692 132.33 348.548 132.33ZM1.15909 158.92V155.545H16.4318V158.92H10.7841V173H6.80682V158.92H1.15909ZM26.7159 173.341C24.9659 173.341 23.4545 172.977 22.1818 172.25C20.9167 171.515 19.9432 170.477 19.2614 169.136C18.5795 167.788 18.2386 166.201 18.2386 164.375C18.2386 162.58 18.5795 161.004 19.2614 159.648C19.9508 158.284 20.9129 157.223 22.1477 156.466C23.3826 155.701 24.8333 155.318 26.5 155.318C27.5758 155.318 28.5909 155.492 29.5455 155.841C30.5076 156.182 31.3561 156.712 32.0909 157.432C32.8333 158.152 33.4167 159.068 33.8409 160.182C34.2652 161.288 34.4773 162.606 34.4773 164.136V165.398H20.1705V162.625H30.5341C30.5265 161.837 30.3561 161.136 30.0227 160.523C29.6894 159.902 29.2235 159.413 28.625 159.057C28.0341 158.701 27.3447 158.523 26.5568 158.523C25.7159 158.523 24.9773 158.727 24.3409 159.136C23.7045 159.538 23.2083 160.068 22.8523 160.727C22.5038 161.379 22.3258 162.095 22.3182 162.875V165.295C22.3182 166.311 22.5038 167.182 22.875 167.909C23.2462 168.629 23.7652 169.182 24.4318 169.568C25.0985 169.947 25.8788 170.136 26.7727 170.136C27.3712 170.136 27.9129 170.053 28.3977 169.886C28.8826 169.712 29.303 169.458 29.6591 169.125C30.0152 168.792 30.2841 168.379 30.4659 167.886L34.3068 168.318C34.0644 169.333 33.6023 170.22 32.9205 170.977C32.2462 171.727 31.3826 172.311 30.3295 172.727C29.2765 173.136 28.072 173.341 26.7159 173.341ZM37.9574 179.545V155.545H42.0028V158.432H42.2415C42.4536 158.008 42.7528 157.557 43.1392 157.08C43.5256 156.595 44.0483 156.182 44.7074 155.841C45.3665 155.492 46.2074 155.318 47.2301 155.318C48.5786 155.318 49.7945 155.663 50.8778 156.352C51.9688 157.034 52.8324 158.045 53.4688 159.386C54.1127 160.72 54.4347 162.356 54.4347 164.295C54.4347 166.212 54.1203 167.841 53.4915 169.182C52.8627 170.523 52.0066 171.545 50.9233 172.25C49.84 172.955 48.6127 173.307 47.2415 173.307C46.2415 173.307 45.4119 173.14 44.7528 172.807C44.0938 172.473 43.5634 172.072 43.1619 171.602C42.768 171.125 42.4612 170.674 42.2415 170.25H42.071V179.545H37.9574ZM41.9915 164.273C41.9915 165.402 42.1506 166.39 42.4688 167.239C42.7945 168.087 43.2604 168.75 43.8665 169.227C44.4801 169.697 45.2225 169.932 46.0938 169.932C47.0028 169.932 47.7642 169.689 48.3778 169.205C48.9915 168.712 49.4536 168.042 49.7642 167.193C50.0824 166.337 50.2415 165.364 50.2415 164.273C50.2415 163.189 50.0862 162.227 49.7756 161.386C49.465 160.545 49.0028 159.886 48.3892 159.409C47.7756 158.932 47.0104 158.693 46.0938 158.693C45.215 158.693 44.4688 158.924 43.8551 159.386C43.2415 159.848 42.7756 160.496 42.4574 161.33C42.1468 162.163 41.9915 163.144 41.9915 164.273ZM57.9574 179.545V155.545H62.0028V158.432H62.2415C62.4536 158.008 62.7528 157.557 63.1392 157.08C63.5256 156.595 64.0483 156.182 64.7074 155.841C65.3665 155.492 66.2074 155.318 67.2301 155.318C68.5786 155.318 69.7945 155.663 70.8778 156.352C71.9688 157.034 72.8324 158.045 73.4688 159.386C74.1127 160.72 74.4347 162.356 74.4347 164.295C74.4347 166.212 74.1203 167.841 73.4915 169.182C72.8627 170.523 72.0066 171.545 70.9233 172.25C69.84 172.955 68.6127 173.307 67.2415 173.307C66.2415 173.307 65.4119 173.14 64.7528 172.807C64.0938 172.473 63.5634 172.072 63.1619 171.602C62.768 171.125 62.4612 170.674 62.2415 170.25H62.071V179.545H57.9574ZM61.9915 164.273C61.9915 165.402 62.1506 166.39 62.4688 167.239C62.7945 168.087 63.2604 168.75 63.8665 169.227C64.4801 169.697 65.2225 169.932 66.0938 169.932C67.0028 169.932 67.7642 169.689 68.3778 169.205C68.9915 168.712 69.4536 168.042 69.7642 167.193C70.0824 166.337 70.2415 165.364 70.2415 164.273C70.2415 163.189 70.0862 162.227 69.7756 161.386C69.465 160.545 69.0028 159.886 68.3892 159.409C67.7756 158.932 67.0104 158.693 66.0938 158.693C65.215 158.693 64.4688 158.924 63.8551 159.386C63.2415 159.848 62.7756 160.496 62.4574 161.33C62.1468 162.163 61.9915 163.144 61.9915 164.273ZM81.9233 167.432L88.9119 155.545H93.1392V173H89.1619V161.102L82.196 173H77.9574V155.545H81.9233V167.432ZM95.4091 158.92V155.545H110.682V158.92H105.034V173H101.057V158.92H95.4091ZM120.852 173.341C119.148 173.341 117.67 172.966 116.42 172.216C115.17 171.466 114.201 170.417 113.511 169.068C112.83 167.72 112.489 166.144 112.489 164.341C112.489 162.538 112.83 160.958 113.511 159.602C114.201 158.246 115.17 157.193 116.42 156.443C117.67 155.693 119.148 155.318 120.852 155.318C122.557 155.318 124.034 155.693 125.284 156.443C126.534 157.193 127.5 158.246 128.182 159.602C128.871 160.958 129.216 162.538 129.216 164.341C129.216 166.144 128.871 167.72 128.182 169.068C127.5 170.417 126.534 171.466 125.284 172.216C124.034 172.966 122.557 173.341 120.852 173.341ZM120.875 170.045C121.799 170.045 122.572 169.792 123.193 169.284C123.814 168.769 124.277 168.08 124.58 167.216C124.89 166.352 125.045 165.39 125.045 164.33C125.045 163.261 124.89 162.295 124.58 161.432C124.277 160.561 123.814 159.867 123.193 159.352C122.572 158.837 121.799 158.58 120.875 158.58C119.928 158.58 119.14 158.837 118.511 159.352C117.89 159.867 117.424 160.561 117.114 161.432C116.811 162.295 116.659 163.261 116.659 164.33C116.659 165.39 116.811 166.352 117.114 167.216C117.424 168.08 117.89 168.769 118.511 169.284C119.14 169.792 119.928 170.045 120.875 170.045ZM132.707 179.545V155.545H136.753V158.432H136.991C137.204 158.008 137.503 157.557 137.889 157.08C138.276 156.595 138.798 156.182 139.457 155.841C140.116 155.492 140.957 155.318 141.98 155.318C143.329 155.318 144.545 155.663 145.628 156.352C146.719 157.034 147.582 158.045 148.219 159.386C148.863 160.72 149.185 162.356 149.185 164.295C149.185 166.212 148.87 167.841 148.241 169.182C147.613 170.523 146.757 171.545 145.673 172.25C144.59 172.955 143.363 173.307 141.991 173.307C140.991 173.307 140.162 173.14 139.503 172.807C138.844 172.473 138.313 172.072 137.912 171.602C137.518 171.125 137.211 170.674 136.991 170.25H136.821V179.545H132.707ZM136.741 164.273C136.741 165.402 136.901 166.39 137.219 167.239C137.545 168.087 138.01 168.75 138.616 169.227C139.23 169.697 139.973 169.932 140.844 169.932C141.753 169.932 142.514 169.689 143.128 169.205C143.741 168.712 144.204 168.042 144.514 167.193C144.832 166.337 144.991 165.364 144.991 164.273C144.991 163.189 144.836 162.227 144.526 161.386C144.215 160.545 143.753 159.886 143.139 159.409C142.526 158.932 141.76 158.693 140.844 158.693C139.965 158.693 139.219 158.924 138.605 159.386C137.991 159.848 137.526 160.496 137.207 161.33C136.897 162.163 136.741 163.144 136.741 164.273ZM156.673 167.432L163.662 155.545H167.889V173H163.912V161.102L156.946 173H152.707V155.545H156.673V167.432ZM176.08 167.432L183.068 155.545H187.295V173H183.318V161.102L176.352 173H172.114V155.545H176.08V167.432ZM199.639 173V149.727H208.366C210.154 149.727 211.654 150.061 212.866 150.727C214.086 151.394 215.007 152.311 215.628 153.477C216.257 154.636 216.571 155.955 216.571 157.432C216.571 158.924 216.257 160.25 215.628 161.409C214.999 162.568 214.071 163.481 212.844 164.148C211.616 164.807 210.105 165.136 208.31 165.136H202.526V161.67H207.741C208.787 161.67 209.643 161.489 210.31 161.125C210.976 160.761 211.469 160.261 211.787 159.625C212.113 158.989 212.276 158.258 212.276 157.432C212.276 156.606 212.113 155.879 211.787 155.25C211.469 154.621 210.973 154.133 210.298 153.784C209.632 153.428 208.772 153.25 207.719 153.25H203.855V173H199.639ZM227.415 173.341C225.71 173.341 224.233 172.966 222.983 172.216C221.733 171.466 220.763 170.417 220.074 169.068C219.392 167.72 219.051 166.144 219.051 164.341C219.051 162.538 219.392 160.958 220.074 159.602C220.763 158.246 221.733 157.193 222.983 156.443C224.233 155.693 225.71 155.318 227.415 155.318C229.119 155.318 230.597 155.693 231.847 156.443C233.097 157.193 234.063 158.246 234.744 159.602C235.434 160.958 235.778 162.538 235.778 164.341C235.778 166.144 235.434 167.72 234.744 169.068C234.063 170.417 233.097 171.466 231.847 172.216C230.597 172.966 229.119 173.341 227.415 173.341ZM227.438 170.045C228.362 170.045 229.134 169.792 229.756 169.284C230.377 168.769 230.839 168.08 231.142 167.216C231.453 166.352 231.608 165.39 231.608 164.33C231.608 163.261 231.453 162.295 231.142 161.432C230.839 160.561 230.377 159.867 229.756 159.352C229.134 158.837 228.362 158.58 227.438 158.58C226.491 158.58 225.703 158.837 225.074 159.352C224.453 159.867 223.987 160.561 223.676 161.432C223.373 162.295 223.222 163.261 223.222 164.33C223.222 165.39 223.373 166.352 223.676 167.216C223.987 168.08 224.453 168.769 225.074 169.284C225.703 169.792 226.491 170.045 227.438 170.045ZM246.884 173.341C245.141 173.341 243.645 172.958 242.395 172.193C241.152 171.428 240.194 170.371 239.52 169.023C238.853 167.667 238.52 166.106 238.52 164.341C238.52 162.568 238.861 161.004 239.543 159.648C240.224 158.284 241.187 157.223 242.429 156.466C243.679 155.701 245.156 155.318 246.861 155.318C248.277 155.318 249.531 155.58 250.622 156.102C251.721 156.617 252.596 157.348 253.247 158.295C253.899 159.235 254.27 160.333 254.361 161.591H250.429C250.27 160.75 249.891 160.049 249.293 159.489C248.702 158.92 247.91 158.636 246.918 158.636C246.077 158.636 245.338 158.864 244.702 159.318C244.065 159.765 243.569 160.409 243.213 161.25C242.865 162.091 242.69 163.098 242.69 164.273C242.69 165.462 242.865 166.485 243.213 167.341C243.562 168.189 244.05 168.845 244.679 169.307C245.315 169.761 246.062 169.989 246.918 169.989C247.524 169.989 248.065 169.875 248.543 169.648C249.027 169.413 249.433 169.076 249.759 168.636C250.084 168.197 250.308 167.663 250.429 167.034H254.361C254.262 168.269 253.899 169.364 253.27 170.318C252.641 171.265 251.785 172.008 250.702 172.545C249.618 173.076 248.346 173.341 246.884 173.341ZM265.352 173.341C263.61 173.341 262.114 172.958 260.864 172.193C259.621 171.428 258.663 170.371 257.989 169.023C257.322 167.667 256.989 166.106 256.989 164.341C256.989 162.568 257.33 161.004 258.011 159.648C258.693 158.284 259.655 157.223 260.898 156.466C262.148 155.701 263.625 155.318 265.33 155.318C266.746 155.318 268 155.58 269.091 156.102C270.189 156.617 271.064 157.348 271.716 158.295C272.367 159.235 272.739 160.333 272.83 161.591H268.898C268.739 160.75 268.36 160.049 267.761 159.489C267.17 158.92 266.379 158.636 265.386 158.636C264.545 158.636 263.807 158.864 263.17 159.318C262.534 159.765 262.038 160.409 261.682 161.25C261.333 162.091 261.159 163.098 261.159 164.273C261.159 165.462 261.333 166.485 261.682 167.341C262.03 168.189 262.519 168.845 263.148 169.307C263.784 169.761 264.53 169.989 265.386 169.989C265.992 169.989 266.534 169.875 267.011 169.648C267.496 169.413 267.902 169.076 268.227 168.636C268.553 168.197 268.777 167.663 268.898 167.034H272.83C272.731 168.269 272.367 169.364 271.739 170.318C271.11 171.265 270.254 172.008 269.17 172.545C268.087 173.076 266.814 173.341 265.352 173.341ZM280.173 167.432L287.162 155.545H291.389V173H287.412V161.102L280.446 173H276.207V155.545H280.173V167.432ZM299.58 167.432L306.568 155.545H310.795V173H306.818V161.102L299.852 173H295.614V155.545H299.58V167.432Z" fill="black"/>
<path d="M1.35831 218V205.636H3.22372V211.009H9.38743V205.636H11.2589V218H9.38743V212.609H3.22372V218H1.35831ZM15.5994 215.471L19.6864 208.727H21.6303V218H19.8615V211.251L15.7926 218H13.8306V208.727H15.5994V215.471ZM24.0572 218V208.727H25.8622V212.615H26.7315L29.7923 208.727H32.0259L28.4339 213.237L32.0682 218H29.8285L27.0334 214.293H25.8622V218H24.0572ZM36.1688 218.205C35.5812 218.205 35.0499 218.097 34.575 217.879C34.1001 217.658 33.7238 217.338 33.4461 216.919C33.1724 216.501 33.0356 215.988 33.0356 215.38C33.0356 214.857 33.1362 214.426 33.3374 214.088C33.5387 213.75 33.8103 213.482 34.1524 213.285C34.4945 213.088 34.8769 212.939 35.2994 212.838C35.722 212.738 36.1527 212.661 36.5914 212.609C37.1468 212.545 37.5975 212.492 37.9436 212.452C38.2897 212.408 38.5413 212.337 38.6982 212.241C38.8552 212.144 38.9337 211.987 38.9337 211.77V211.728C38.9337 211.2 38.7848 210.792 38.4869 210.502C38.1932 210.212 37.7545 210.067 37.1709 210.067C36.5632 210.067 36.0843 210.202 35.7341 210.472C35.388 210.738 35.1485 211.033 35.0157 211.359L33.3193 210.973C33.5206 210.41 33.8144 209.955 34.2007 209.609C34.5911 209.259 35.0399 209.005 35.547 208.848C36.0541 208.687 36.5873 208.607 37.1468 208.607C37.517 208.607 37.9094 208.651 38.324 208.739C38.7425 208.824 39.1329 208.981 39.4951 209.21C39.8614 209.44 40.1612 209.768 40.3946 210.194C40.628 210.617 40.7448 211.166 40.7448 211.842V218H38.982V216.732H38.9095C38.7928 216.966 38.6177 217.195 38.3843 217.42C38.1509 217.646 37.8511 217.833 37.4848 217.982C37.1186 218.131 36.6799 218.205 36.1688 218.205ZM36.5612 216.756C37.0602 216.756 37.4868 216.658 37.841 216.461C38.1992 216.263 38.4709 216.006 38.656 215.688C38.8451 215.366 38.9397 215.022 38.9397 214.656V213.46C38.8753 213.525 38.7506 213.585 38.5654 213.641C38.3843 213.694 38.1771 213.74 37.9436 213.78C37.7102 213.816 37.4828 213.851 37.2615 213.883C37.0401 213.911 36.855 213.935 36.7061 213.955C36.3559 214 36.036 214.074 35.7462 214.179C35.4604 214.283 35.231 214.434 35.058 214.631C34.8889 214.825 34.8044 215.082 34.8044 215.404C34.8044 215.851 34.9694 216.189 35.2994 216.418C35.6295 216.644 36.05 216.756 36.5612 216.756ZM43.149 218V208.727H44.954V212.615H45.8233L48.8841 208.727H51.1177L47.5257 213.237L51.16 218H48.9203L46.1252 214.293H44.954V218H43.149ZM54.3309 215.471L58.4179 208.727H60.3618V218H58.593V211.251L54.5241 218H52.5621V208.727H54.3309V215.471ZM66.7851 218.187C65.8715 218.187 65.0847 217.992 64.4246 217.602C63.7686 217.207 63.2615 216.654 62.9033 215.941C62.5492 215.225 62.3721 214.386 62.3721 213.424C62.3721 212.474 62.5492 211.637 62.9033 210.913C63.2615 210.188 63.7606 209.623 64.4005 209.216C65.0444 208.81 65.797 208.607 66.6583 208.607C67.1815 208.607 67.6886 208.693 68.1796 208.866C68.6706 209.039 69.1113 209.311 69.5017 209.681C69.8921 210.051 70.2 210.532 70.4253 211.124C70.6507 211.712 70.7634 212.426 70.7634 213.267V213.907H63.3923V212.555H68.9946C68.9946 212.08 68.898 211.659 68.7048 211.293C68.5116 210.923 68.24 210.631 67.8898 210.418C67.5437 210.204 67.1372 210.098 66.6704 210.098C66.1633 210.098 65.7206 210.222 65.3422 210.472C64.968 210.717 64.6782 211.039 64.4729 211.438C64.2717 211.832 64.1711 212.261 64.1711 212.724V213.78C64.1711 214.4 64.2797 214.927 64.4971 215.362C64.7184 215.797 65.0263 216.129 65.4207 216.358C65.8151 216.583 66.276 216.696 66.8032 216.696C67.1453 216.696 67.4572 216.648 67.7389 216.551C68.0206 216.451 68.2641 216.302 68.4694 216.104C68.6746 215.907 68.8316 215.664 68.9403 215.374L70.6487 215.682C70.5119 216.185 70.2664 216.626 69.9122 217.004C69.5621 217.378 69.1214 217.67 68.5901 217.879C68.0629 218.085 67.4612 218.187 66.7851 218.187ZM81.1711 218.187C80.2736 218.187 79.5009 217.984 78.8529 217.577C78.209 217.167 77.7139 216.601 77.3678 215.881C77.0217 215.161 76.8486 214.336 76.8486 213.406C76.8486 212.464 77.0257 211.633 77.3799 210.913C77.734 210.188 78.2331 209.623 78.877 209.216C79.521 208.81 80.2796 208.607 81.153 208.607C81.8573 208.607 82.4851 208.737 83.0365 208.999C83.5879 209.257 84.0326 209.619 84.3706 210.086C84.7127 210.552 84.916 211.098 84.9804 211.722H83.2236C83.127 211.287 82.9057 210.913 82.5596 210.599C82.2175 210.285 81.7587 210.128 81.1831 210.128C80.6801 210.128 80.2394 210.261 79.8611 210.526C79.4868 210.788 79.195 211.162 78.9857 211.649C78.7764 212.132 78.6718 212.704 78.6718 213.364C78.6718 214.04 78.7744 214.623 78.9797 215.114C79.1849 215.605 79.4747 215.986 79.849 216.255C80.2273 216.525 80.672 216.66 81.1831 216.66C81.5252 216.66 81.8351 216.597 82.1128 216.473C82.3946 216.344 82.63 216.161 82.8192 215.923C83.0123 215.686 83.1472 215.4 83.2236 215.066H84.9804C84.916 215.666 84.7208 216.201 84.3948 216.672C84.0688 217.143 83.6321 217.513 83.0848 217.783C82.5415 218.052 81.9036 218.187 81.1711 218.187ZM90.8166 218.187C89.9473 218.187 89.1886 217.988 88.5407 217.589C87.8927 217.191 87.3896 216.634 87.0314 215.917C86.6732 215.201 86.4941 214.364 86.4941 213.406C86.4941 212.444 86.6732 211.603 87.0314 210.882C87.3896 210.162 87.8927 209.603 88.5407 209.204C89.1886 208.806 89.9473 208.607 90.8166 208.607C91.6859 208.607 92.4445 208.806 93.0925 209.204C93.7405 209.603 94.2435 210.162 94.6017 210.882C94.9599 211.603 95.139 212.444 95.139 213.406C95.139 214.364 94.9599 215.201 94.6017 215.917C94.2435 216.634 93.7405 217.191 93.0925 217.589C92.4445 217.988 91.6859 218.187 90.8166 218.187ZM90.8226 216.672C91.3861 216.672 91.8529 216.523 92.2232 216.225C92.5935 215.927 92.8671 215.531 93.0442 215.036C93.2253 214.541 93.3159 213.996 93.3159 213.4C93.3159 212.808 93.2253 212.265 93.0442 211.77C92.8671 211.271 92.5935 210.87 92.2232 210.569C91.8529 210.267 91.3861 210.116 90.8226 210.116C90.2551 210.116 89.7843 210.267 89.41 210.569C89.0397 210.87 88.764 211.271 88.5829 211.77C88.4058 212.265 88.3173 212.808 88.3173 213.4C88.3173 213.996 88.4058 214.541 88.5829 215.036C88.764 215.531 89.0397 215.927 89.41 216.225C89.7843 216.523 90.2551 216.672 90.8226 216.672ZM104.308 205.274L105.056 206.415C104.778 206.669 104.463 206.85 104.108 206.958C103.758 207.063 103.354 207.129 102.895 207.158C102.436 207.182 101.911 207.204 101.319 207.224C100.651 207.244 100.102 207.389 99.6713 207.659C99.2406 207.924 98.9086 208.319 98.6752 208.842C98.4458 209.361 98.2968 210.013 98.2284 210.798H98.3431C98.645 210.222 99.0635 209.792 99.5988 209.506C100.138 209.22 100.744 209.077 101.416 209.077C102.165 209.077 102.831 209.248 103.414 209.591C103.998 209.933 104.457 210.434 104.791 211.094C105.129 211.75 105.298 212.553 105.298 213.502C105.298 214.464 105.121 215.295 104.766 215.996C104.416 216.696 103.921 217.237 103.281 217.62C102.645 217.998 101.895 218.187 101.03 218.187C100.164 218.187 99.4097 217.992 98.7657 217.602C98.1258 217.207 97.6288 216.624 97.2746 215.851C96.9244 215.078 96.7494 214.124 96.7494 212.989V212.072C96.7494 209.951 97.1277 208.355 97.8843 207.284C98.641 206.214 99.7719 205.665 101.277 205.636C101.764 205.624 102.199 205.622 102.581 205.63C102.963 205.634 103.297 205.616 103.583 205.576C103.873 205.532 104.114 205.431 104.308 205.274ZM101.036 216.672C101.539 216.672 101.971 216.545 102.334 216.292C102.7 216.034 102.982 215.67 103.179 215.199C103.376 214.728 103.475 214.173 103.475 213.533C103.475 212.905 103.376 212.372 103.179 211.933C102.982 211.494 102.7 211.16 102.334 210.931C101.967 210.697 101.529 210.581 101.017 210.581C100.639 210.581 100.301 210.647 100.003 210.78C99.7055 210.909 99.4499 211.1 99.2366 211.353C99.0273 211.607 98.8643 211.917 98.7476 212.283C98.6349 212.645 98.5745 213.062 98.5665 213.533C98.5665 214.491 98.7858 215.253 99.2245 215.821C99.6672 216.388 100.271 216.672 101.036 216.672ZM108.672 211.915H111.365C112.5 211.915 113.373 212.196 113.985 212.76C114.597 213.323 114.902 214.05 114.902 214.939C114.902 215.519 114.766 216.04 114.492 216.503C114.218 216.966 113.818 217.332 113.291 217.602C112.763 217.867 112.121 218 111.365 218H107.314V208.727H109.083V216.442H111.365C111.884 216.442 112.311 216.308 112.645 216.038C112.979 215.764 113.146 215.416 113.146 214.994C113.146 214.547 112.979 214.183 112.645 213.901C112.311 213.615 111.884 213.472 111.365 213.472H108.672V211.915ZM116.218 218V208.727H118.024V218H116.218ZM119.927 210.285V208.727H127.751V210.285H124.726V218H122.963V210.285H119.927ZM131.429 215.471L135.516 208.727H137.459V218H135.691V211.251L131.622 218H129.66V208.727H131.429V215.471ZM145.416 218V210.267H143.195C142.667 210.267 142.257 210.389 141.963 210.635C141.669 210.88 141.522 211.202 141.522 211.601C141.522 211.995 141.657 212.313 141.927 212.555C142.2 212.792 142.583 212.911 143.074 212.911H145.941V214.372H143.074C142.39 214.372 141.798 214.259 141.299 214.034C140.804 213.804 140.422 213.48 140.152 213.062C139.886 212.643 139.753 212.148 139.753 211.577C139.753 210.993 139.89 210.49 140.164 210.067C140.442 209.641 140.838 209.311 141.353 209.077C141.872 208.844 142.486 208.727 143.195 208.727H147.112V218H145.416ZM139.331 218L141.945 213.315H143.792L141.178 218H139.331ZM160.299 212.585V214.148H155.276V212.585H160.299ZM155.783 208.727V218H154.014V208.727H155.783ZM161.56 208.727V218H159.798V208.727H161.56ZM167.972 218.187C167.058 218.187 166.271 217.992 165.611 217.602C164.955 217.207 164.448 216.654 164.09 215.941C163.736 215.225 163.559 214.386 163.559 213.424C163.559 212.474 163.736 211.637 164.09 210.913C164.448 210.188 164.947 209.623 165.587 209.216C166.231 208.81 166.984 208.607 167.845 208.607C168.368 208.607 168.875 208.693 169.366 208.866C169.857 209.039 170.298 209.311 170.688 209.681C171.079 210.051 171.386 210.532 171.612 211.124C171.837 211.712 171.95 212.426 171.95 213.267V213.907H164.579V212.555H170.181C170.181 212.08 170.085 211.659 169.891 211.293C169.698 210.923 169.426 210.631 169.076 210.418C168.73 210.204 168.324 210.098 167.857 210.098C167.35 210.098 166.907 210.222 166.529 210.472C166.154 210.717 165.865 211.039 165.659 211.438C165.458 211.832 165.358 212.261 165.358 212.724V213.78C165.358 214.4 165.466 214.927 165.684 215.362C165.905 215.797 166.213 216.129 166.607 216.358C167.002 216.583 167.462 216.696 167.99 216.696C168.332 216.696 168.644 216.648 168.925 216.551C169.207 216.451 169.451 216.302 169.656 216.104C169.861 215.907 170.018 215.664 170.127 215.374L171.835 215.682C171.698 216.185 171.453 216.626 171.099 217.004C170.749 217.378 170.308 217.67 169.777 217.879C169.249 218.085 168.648 218.187 167.972 218.187ZM182.358 218.187C181.46 218.187 180.687 217.984 180.039 217.577C179.395 217.167 178.9 216.601 178.554 215.881C178.208 215.161 178.035 214.336 178.035 213.406C178.035 212.464 178.212 211.633 178.566 210.913C178.921 210.188 179.42 209.623 180.064 209.216C180.708 208.81 181.466 208.607 182.339 208.607C183.044 208.607 183.672 208.737 184.223 208.999C184.774 209.257 185.219 209.619 185.557 210.086C185.899 210.552 186.103 211.098 186.167 211.722H184.41C184.314 211.287 184.092 210.913 183.746 210.599C183.404 210.285 182.945 210.128 182.37 210.128C181.867 210.128 181.426 210.261 181.048 210.526C180.673 210.788 180.382 211.162 180.172 211.649C179.963 212.132 179.858 212.704 179.858 213.364C179.858 214.04 179.961 214.623 180.166 215.114C180.371 215.605 180.661 215.986 181.036 216.255C181.414 216.525 181.859 216.66 182.37 216.66C182.712 216.66 183.022 216.597 183.299 216.473C183.581 216.344 183.817 216.161 184.006 215.923C184.199 215.686 184.334 215.4 184.41 215.066H186.167C186.103 215.666 185.907 216.201 185.581 216.672C185.255 217.143 184.819 217.513 184.271 217.783C183.728 218.052 183.09 218.187 182.358 218.187ZM188.097 218V208.727H189.902V212.615H190.772L193.832 208.727H196.066L192.474 213.237L196.108 218H193.869L191.073 214.293H189.902V218H188.097ZM200.209 218.205C199.621 218.205 199.09 218.097 198.615 217.879C198.14 217.658 197.764 217.338 197.486 216.919C197.212 216.501 197.076 215.988 197.076 215.38C197.076 214.857 197.176 214.426 197.377 214.088C197.579 213.75 197.85 213.482 198.192 213.285C198.535 213.088 198.917 212.939 199.339 212.838C199.762 212.738 200.193 212.661 200.631 212.609C201.187 212.545 201.638 212.492 201.984 212.452C202.33 212.408 202.581 212.337 202.738 212.241C202.895 212.144 202.974 211.987 202.974 211.77V211.728C202.974 211.2 202.825 210.792 202.527 210.502C202.233 210.212 201.795 210.067 201.211 210.067C200.603 210.067 200.124 210.202 199.774 210.472C199.428 210.738 199.189 211.033 199.056 211.359L197.359 210.973C197.561 210.41 197.854 209.955 198.241 209.609C198.631 209.259 199.08 209.005 199.587 208.848C200.094 208.687 200.627 208.607 201.187 208.607C201.557 208.607 201.949 208.651 202.364 208.739C202.783 208.824 203.173 208.981 203.535 209.21C203.901 209.44 204.201 209.768 204.435 210.194C204.668 210.617 204.785 211.166 204.785 211.842V218H203.022V216.732H202.95C202.833 216.966 202.658 217.195 202.424 217.42C202.191 217.646 201.891 217.833 201.525 217.982C201.159 218.131 200.72 218.205 200.209 218.205ZM200.601 216.756C201.1 216.756 201.527 216.658 201.881 216.461C202.239 216.263 202.511 216.006 202.696 215.688C202.885 215.366 202.98 215.022 202.98 214.656V213.46C202.915 213.525 202.791 213.585 202.605 213.641C202.424 213.694 202.217 213.74 201.984 213.78C201.75 213.816 201.523 213.851 201.301 213.883C201.08 213.911 200.895 213.935 200.746 213.955C200.396 214 200.076 214.074 199.786 214.179C199.5 214.283 199.271 214.434 199.098 214.631C198.929 214.825 198.844 215.082 198.844 215.404C198.844 215.851 199.009 216.189 199.339 216.418C199.67 216.644 200.09 216.756 200.601 216.756ZM206.597 218L210.189 213.255L206.64 208.727H208.741L211.608 212.579H212.254V208.727H214.059V212.579H214.687L217.554 208.727H219.655L216.124 213.255L219.698 218H217.554L214.663 214.136H214.059V218H212.254V214.136H211.65L208.741 218H206.597ZM222.674 221.477C222.404 221.477 222.159 221.455 221.937 221.411C221.716 221.371 221.551 221.326 221.442 221.278L221.877 219.799C222.207 219.888 222.501 219.926 222.758 219.914C223.016 219.902 223.243 219.805 223.44 219.624C223.642 219.443 223.819 219.147 223.972 218.737L224.195 218.121L220.802 208.727H222.734L225.082 215.923H225.179L227.527 208.727H229.465L225.644 219.238C225.467 219.721 225.241 220.129 224.968 220.463C224.694 220.801 224.368 221.055 223.99 221.224C223.611 221.393 223.173 221.477 222.674 221.477ZM230.642 210.285V208.727H238.466V210.285H235.442V218H233.679V210.285H230.642ZM243.85 218.187C242.952 218.187 242.18 217.984 241.532 217.577C240.888 217.167 240.393 216.601 240.047 215.881C239.7 215.161 239.527 214.336 239.527 213.406C239.527 212.464 239.704 211.633 240.059 210.913C240.413 210.188 240.912 209.623 241.556 209.216C242.2 208.81 242.958 208.607 243.832 208.607C244.536 208.607 245.164 208.737 245.715 208.999C246.267 209.257 246.711 209.619 247.049 210.086C247.391 210.552 247.595 211.098 247.659 211.722H245.902C245.806 211.287 245.584 210.913 245.238 210.599C244.896 210.285 244.437 210.128 243.862 210.128C243.359 210.128 242.918 210.261 242.54 210.526C242.165 210.788 241.874 211.162 241.664 211.649C241.455 212.132 241.35 212.704 241.35 213.364C241.35 214.04 241.453 214.623 241.658 215.114C241.864 215.605 242.153 215.986 242.528 216.255C242.906 216.525 243.351 216.66 243.862 216.66C244.204 216.66 244.514 216.597 244.792 216.473C245.073 216.344 245.309 216.161 245.498 215.923C245.691 215.686 245.826 215.4 245.902 215.066H247.659C247.595 215.666 247.4 216.201 247.074 216.672C246.748 217.143 246.311 217.513 245.763 217.783C245.22 218.052 244.582 218.187 243.85 218.187ZM255.119 218V210.267H252.898C252.37 210.267 251.96 210.389 251.666 210.635C251.372 210.88 251.225 211.202 251.225 211.601C251.225 211.995 251.36 212.313 251.63 212.555C251.904 212.792 252.286 212.911 252.777 212.911H255.644V214.372H252.777C252.093 214.372 251.501 214.259 251.002 214.034C250.507 213.804 250.125 213.48 249.855 213.062C249.589 212.643 249.457 212.148 249.457 211.577C249.457 210.993 249.593 210.49 249.867 210.067C250.145 209.641 250.541 209.311 251.056 209.077C251.576 208.844 252.189 208.727 252.898 208.727H256.816V218H255.119ZM249.034 218L251.648 213.315H253.495L250.881 218H249.034ZM270.002 212.585V214.148H264.979V212.585H270.002ZM265.486 208.727V218H263.717V208.727H265.486ZM271.263 208.727V218H269.501V208.727H271.263ZM276.377 218.205C275.789 218.205 275.258 218.097 274.783 217.879C274.308 217.658 273.932 217.338 273.654 216.919C273.38 216.501 273.244 215.988 273.244 215.38C273.244 214.857 273.344 214.426 273.545 214.088C273.747 213.75 274.018 213.482 274.36 213.285C274.703 213.088 275.085 212.939 275.507 212.838C275.93 212.738 276.361 212.661 276.799 212.609C277.355 212.545 277.806 212.492 278.152 212.452C278.498 212.408 278.749 212.337 278.906 212.241C279.063 212.144 279.142 211.987 279.142 211.77V211.728C279.142 211.2 278.993 210.792 278.695 210.502C278.401 210.212 277.962 210.067 277.379 210.067C276.771 210.067 276.292 210.202 275.942 210.472C275.596 210.738 275.357 211.033 275.224 211.359L273.527 210.973C273.729 210.41 274.022 209.955 274.409 209.609C274.799 209.259 275.248 209.005 275.755 208.848C276.262 208.687 276.795 208.607 277.355 208.607C277.725 208.607 278.117 208.651 278.532 208.739C278.951 208.824 279.341 208.981 279.703 209.21C280.069 209.44 280.369 209.768 280.603 210.194C280.836 210.617 280.953 211.166 280.953 211.842V218H279.19V216.732H279.118C279.001 216.966 278.826 217.195 278.592 217.42C278.359 217.646 278.059 217.833 277.693 217.982C277.327 218.131 276.888 218.205 276.377 218.205ZM276.769 216.756C277.268 216.756 277.695 216.658 278.049 216.461C278.407 216.263 278.679 216.006 278.864 215.688C279.053 215.366 279.148 215.022 279.148 214.656V213.46C279.083 213.525 278.959 213.585 278.773 213.641C278.592 213.694 278.385 213.74 278.152 213.78C277.918 213.816 277.691 213.851 277.469 213.883C277.248 213.911 277.063 213.935 276.914 213.955C276.564 214 276.244 214.074 275.954 214.179C275.668 214.283 275.439 214.434 275.266 214.631C275.097 214.825 275.012 215.082 275.012 215.404C275.012 215.851 275.177 216.189 275.507 216.418C275.837 216.644 276.258 216.756 276.769 216.756ZM8.36719 229.274L9.11577 230.415C8.83807 230.669 8.52214 230.85 8.16797 230.958C7.81783 231.063 7.41335 231.129 6.95455 231.158C6.49574 231.182 5.97053 231.204 5.37891 231.224C4.71082 231.244 4.16146 231.389 3.73082 231.659C3.30019 231.924 2.96816 232.319 2.73473 232.842C2.50533 233.361 2.35642 234.013 2.288 234.798H2.4027C2.70455 234.222 3.12311 233.792 3.65838 233.506C4.19768 233.22 4.80339 233.077 5.4755 233.077C6.22408 233.077 6.89015 233.248 7.47372 233.591C8.05729 233.933 8.5161 234.434 8.85014 235.094C9.18821 235.75 9.35724 236.553 9.35724 237.502C9.35724 238.464 9.18016 239.295 8.82599 239.996C8.47585 240.696 7.98082 241.237 7.34091 241.62C6.70502 241.998 5.95443 242.187 5.08913 242.187C4.22384 242.187 3.46922 241.992 2.82528 241.602C2.18537 241.207 1.68833 240.624 1.33416 239.851C0.98402 239.078 0.808949 238.124 0.808949 236.989V236.072C0.808949 233.951 1.18726 232.355 1.94389 231.284C2.70052 230.214 3.83144 229.665 5.33665 229.636C5.82363 229.624 6.25829 229.622 6.64062 229.63C7.02296 229.634 7.35701 229.616 7.64276 229.576C7.93253 229.532 8.17401 229.431 8.36719 229.274ZM5.09517 240.672C5.59825 240.672 6.0309 240.545 6.39311 240.292C6.75935 240.034 7.04107 239.67 7.23828 239.199C7.43549 238.728 7.53409 238.173 7.53409 237.533C7.53409 236.905 7.43549 236.372 7.23828 235.933C7.04107 235.494 6.75935 235.16 6.39311 234.931C6.02687 234.697 5.58819 234.581 5.07706 234.581C4.69875 234.581 4.36068 234.647 4.06286 234.78C3.76503 234.909 3.50947 235.1 3.29616 235.353C3.08688 235.607 2.92389 235.917 2.80717 236.283C2.69448 236.645 2.63411 237.062 2.62607 237.533C2.62607 238.491 2.84541 239.253 3.28409 239.821C3.7268 240.388 4.33049 240.672 5.09517 240.672ZM15.37 242.187C14.4564 242.187 13.6696 241.992 13.0096 241.602C12.3536 241.207 11.8465 240.654 11.4883 239.941C11.1341 239.225 10.957 238.386 10.957 237.424C10.957 236.474 11.1341 235.637 11.4883 234.913C11.8465 234.188 12.3455 233.623 12.9854 233.216C13.6294 232.81 14.382 232.607 15.2433 232.607C15.7665 232.607 16.2736 232.693 16.7646 232.866C17.2556 233.039 17.6963 233.311 18.0866 233.681C18.477 234.051 18.7849 234.532 19.0103 235.124C19.2357 235.712 19.3484 236.426 19.3484 237.267V237.907H11.9773V236.555H17.5795C17.5795 236.08 17.483 235.659 17.2898 235.293C17.0966 234.923 16.8249 234.631 16.4748 234.418C16.1287 234.204 15.7222 234.098 15.2553 234.098C14.7482 234.098 14.3055 234.222 13.9272 234.472C13.5529 234.717 13.2631 235.039 13.0579 235.438C12.8567 235.832 12.756 236.261 12.756 236.724V237.78C12.756 238.4 12.8647 238.927 13.082 239.362C13.3034 239.797 13.6113 240.129 14.0057 240.358C14.4001 240.583 14.8609 240.696 15.3881 240.696C15.7302 240.696 16.0421 240.648 16.3239 240.551C16.6056 240.451 16.8491 240.302 17.0543 240.104C17.2596 239.907 17.4165 239.664 17.5252 239.374L19.2337 239.682C19.0968 240.185 18.8513 240.626 18.4972 241.004C18.147 241.378 17.7063 241.67 17.1751 241.879C16.6478 242.085 16.0462 242.187 15.37 242.187ZM25.257 242.187C24.3595 242.187 23.5868 241.984 22.9388 241.577C22.2949 241.167 21.7999 240.601 21.4537 239.881C21.1076 239.161 20.9346 238.336 20.9346 237.406C20.9346 236.464 21.1117 235.633 21.4658 234.913C21.82 234.188 22.319 233.623 22.963 233.216C23.6069 232.81 24.3656 232.607 25.2389 232.607C25.9432 232.607 26.5711 232.737 27.1224 232.999C27.6738 233.257 28.1185 233.619 28.4566 234.086C28.7987 234.552 29.0019 235.098 29.0663 235.722H27.3096C27.213 235.287 26.9916 234.913 26.6455 234.599C26.3034 234.285 25.8446 234.128 25.2691 234.128C24.766 234.128 24.3253 234.261 23.947 234.526C23.5727 234.788 23.2809 235.162 23.0716 235.649C22.8624 236.132 22.7577 236.704 22.7577 237.364C22.7577 238.04 22.8604 238.623 23.0656 239.114C23.2709 239.605 23.5606 239.986 23.9349 240.255C24.3132 240.525 24.758 240.66 25.2691 240.66C25.6112 240.66 25.9211 240.597 26.1988 240.473C26.4805 240.344 26.7159 240.161 26.9051 239.923C27.0983 239.686 27.2331 239.4 27.3096 239.066H29.0663C29.0019 239.666 28.8067 240.201 28.4807 240.672C28.1547 241.143 27.7181 241.513 27.1707 241.783C26.6274 242.052 25.9895 242.187 25.257 242.187ZM30.9966 242V232.727H38.5609V242H36.7921V234.285H32.7534V242H30.9966ZM44.9706 242.187C44.057 242.187 43.2702 241.992 42.6102 241.602C41.9542 241.207 41.4471 240.654 41.0889 239.941C40.7347 239.225 40.5576 238.386 40.5576 237.424C40.5576 236.474 40.7347 235.637 41.0889 234.913C41.4471 234.188 41.9461 233.623 42.586 233.216C43.23 232.81 43.9826 232.607 44.8438 232.607C45.367 232.607 45.8741 232.693 46.3651 232.866C46.8561 233.039 47.2968 233.311 47.6872 233.681C48.0776 234.051 48.3855 234.532 48.6109 235.124C48.8363 235.712 48.949 236.426 48.949 237.267V237.907H41.5779V236.555H47.1801C47.1801 236.08 47.0835 235.659 46.8904 235.293C46.6972 234.923 46.4255 234.631 46.0754 234.418C45.7293 234.204 45.3228 234.098 44.8559 234.098C44.3488 234.098 43.9061 234.222 43.5278 234.472C43.1535 234.717 42.8637 235.039 42.6585 235.438C42.4572 235.832 42.3566 236.261 42.3566 236.724V237.78C42.3566 238.4 42.4653 238.927 42.6826 239.362C42.904 239.797 43.2119 240.129 43.6063 240.358C44.0007 240.583 44.4615 240.696 44.9887 240.696C45.3308 240.696 45.6427 240.648 45.9244 240.551C46.2062 240.451 46.4497 240.302 46.6549 240.104C46.8602 239.907 47.0171 239.664 47.1258 239.374L48.8343 239.682C48.6974 240.185 48.4519 240.626 48.0977 241.004C47.7476 241.378 47.3069 241.67 46.7757 241.879C46.2484 242.085 45.6468 242.187 44.9706 242.187ZM50.9517 245.477V232.727H52.7145V234.23H52.8654C52.9701 234.037 53.121 233.814 53.3182 233.56C53.5154 233.307 53.7891 233.085 54.1392 232.896C54.4893 232.703 54.9522 232.607 55.5277 232.607C56.2763 232.607 56.9444 232.796 57.532 233.174C58.1196 233.552 58.5804 234.098 58.9144 234.81C59.2525 235.522 59.4215 236.38 59.4215 237.382C59.4215 238.384 59.2545 239.243 58.9205 239.96C58.5864 240.672 58.1276 241.221 57.544 241.608C56.9605 241.99 56.2944 242.181 55.5458 242.181C54.9824 242.181 54.5215 242.087 54.1634 241.897C53.8092 241.708 53.5315 241.487 53.3303 241.233C53.129 240.98 52.9741 240.754 52.8654 240.557H52.7567V245.477H50.9517ZM52.7205 237.364C52.7205 238.016 52.8151 238.587 53.0043 239.078C53.1934 239.569 53.4671 239.953 53.8253 240.231C54.1835 240.505 54.6222 240.642 55.1413 240.642C55.6806 240.642 56.1314 240.499 56.4936 240.213C56.8558 239.923 57.1295 239.531 57.3146 239.036C57.5038 238.541 57.5984 237.983 57.5984 237.364C57.5984 236.752 57.5058 236.203 57.3207 235.716C57.1396 235.229 56.8659 234.844 56.4996 234.562C56.1374 234.281 55.6847 234.14 55.1413 234.14C54.6181 234.14 54.1754 234.275 53.8132 234.544C53.455 234.814 53.1834 235.19 52.9982 235.673C52.8131 236.156 52.7205 236.72 52.7205 237.364ZM65.4403 242.187C64.5268 242.187 63.7399 241.992 63.0799 241.602C62.4239 241.207 61.9168 240.654 61.5586 239.941C61.2044 239.225 61.0273 238.386 61.0273 237.424C61.0273 236.474 61.2044 235.637 61.5586 234.913C61.9168 234.188 62.4158 233.623 63.0558 233.216C63.6997 232.81 64.4523 232.607 65.3136 232.607C65.8368 232.607 66.3439 232.693 66.8349 232.866C67.3259 233.039 67.7666 233.311 68.157 233.681C68.5473 234.051 68.8552 234.532 69.0806 235.124C69.306 235.712 69.4187 236.426 69.4187 237.267V237.907H62.0476V236.555H67.6499C67.6499 236.08 67.5533 235.659 67.3601 235.293C67.1669 234.923 66.8952 234.631 66.5451 234.418C66.199 234.204 65.7925 234.098 65.3256 234.098C64.8185 234.098 64.3758 234.222 63.9975 234.472C63.6232 234.717 63.3335 235.039 63.1282 235.438C62.927 235.832 62.8263 236.261 62.8263 236.724V237.78C62.8263 238.4 62.935 238.927 63.1523 239.362C63.3737 239.797 63.6816 240.129 64.076 240.358C64.4704 240.583 64.9312 240.696 65.4585 240.696C65.8005 240.696 66.1125 240.648 66.3942 240.551C66.6759 240.451 66.9194 240.302 67.1246 240.104C67.3299 239.907 67.4869 239.664 67.5955 239.374L69.304 239.682C69.1671 240.185 68.9216 240.626 68.5675 241.004C68.2173 241.378 67.7766 241.67 67.2454 241.879C66.7182 242.085 66.1165 242.187 65.4403 242.187ZM78.5752 229.274L79.3238 230.415C79.0461 230.669 78.7301 230.85 78.376 230.958C78.0258 231.063 77.6214 231.129 77.1626 231.158C76.7037 231.182 76.1785 231.204 75.5869 231.224C74.9188 231.244 74.3695 231.389 73.9388 231.659C73.5082 231.924 73.1762 232.319 72.9427 232.842C72.7133 233.361 72.5644 234.013 72.496 234.798H72.6107C72.9126 234.222 73.3311 233.792 73.8664 233.506C74.4057 233.22 75.0114 233.077 75.6835 233.077C76.4321 233.077 77.0982 233.248 77.6817 233.591C78.2653 233.933 78.7241 234.434 79.0582 235.094C79.3962 235.75 79.5653 236.553 79.5653 237.502C79.5653 238.464 79.3882 239.295 79.034 239.996C78.6839 240.696 78.1888 241.237 77.5489 241.62C76.913 241.998 76.1624 242.187 75.2971 242.187C74.4318 242.187 73.6772 241.992 73.0333 241.602C72.3934 241.207 71.8963 240.624 71.5422 239.851C71.192 239.078 71.017 238.124 71.017 236.989V236.072C71.017 233.951 71.3953 232.355 72.1519 231.284C72.9085 230.214 74.0394 229.665 75.5447 229.636C76.0316 229.624 76.4663 229.622 76.8486 229.63C77.231 229.634 77.565 229.616 77.8508 229.576C78.1405 229.532 78.382 229.431 78.5752 229.274ZM75.3032 240.672C75.8063 240.672 76.2389 240.545 76.6011 240.292C76.9674 240.034 77.2491 239.67 77.4463 239.199C77.6435 238.728 77.7421 238.173 77.7421 237.533C77.7421 236.905 77.6435 236.372 77.4463 235.933C77.2491 235.494 76.9674 235.16 76.6011 234.931C76.2349 234.697 75.7962 234.581 75.2851 234.581C74.9068 234.581 74.5687 234.647 74.2709 234.78C73.973 234.909 73.7175 235.1 73.5042 235.353C73.2949 235.607 73.1319 235.917 73.0152 236.283C72.9025 236.645 72.8421 237.062 72.8341 237.533C72.8341 238.491 73.0534 239.253 73.4921 239.821C73.9348 240.388 74.5385 240.672 75.3032 240.672ZM85.4875 242.187C84.6182 242.187 83.8595 241.988 83.2116 241.589C82.5636 241.191 82.0605 240.634 81.7023 239.917C81.3441 239.201 81.165 238.364 81.165 237.406C81.165 236.444 81.3441 235.603 81.7023 234.882C82.0605 234.162 82.5636 233.603 83.2116 233.204C83.8595 232.806 84.6182 232.607 85.4875 232.607C86.3568 232.607 87.1154 232.806 87.7634 233.204C88.4114 233.603 88.9144 234.162 89.2726 234.882C89.6308 235.603 89.8099 236.444 89.8099 237.406C89.8099 238.364 89.6308 239.201 89.2726 239.917C88.9144 240.634 88.4114 241.191 87.7634 241.589C87.1154 241.988 86.3568 242.187 85.4875 242.187ZM85.4935 240.672C86.057 240.672 86.5238 240.523 86.8941 240.225C87.2644 239.927 87.538 239.531 87.7151 239.036C87.8962 238.541 87.9868 237.996 87.9868 237.4C87.9868 236.808 87.8962 236.265 87.7151 235.77C87.538 235.271 87.2644 234.87 86.8941 234.569C86.5238 234.267 86.057 234.116 85.4935 234.116C84.926 234.116 84.4552 234.267 84.0809 234.569C83.7106 234.87 83.4349 235.271 83.2538 235.77C83.0767 236.265 82.9882 236.808 82.9882 237.4C82.9882 237.996 83.0767 238.541 83.2538 239.036C83.4349 239.531 83.7106 239.927 84.0809 240.225C84.4552 240.523 84.926 240.672 85.4935 240.672ZM93.5936 239.471L97.6806 232.727H99.6245V242H97.8556V235.251L93.7868 242H91.8248V232.727H93.5936V239.471ZM96.9078 229.588H98.3929C98.3929 230.268 98.1515 230.822 97.6685 231.248C97.1896 231.671 96.5416 231.882 95.7246 231.882C94.9116 231.882 94.2657 231.671 93.7868 231.248C93.3078 230.822 93.0684 230.268 93.0684 229.588H94.5474C94.5474 229.89 94.6359 230.158 94.813 230.391C94.9901 230.62 95.294 230.735 95.7246 230.735C96.1472 230.735 96.449 230.62 96.6301 230.391C96.8153 230.162 96.9078 229.894 96.9078 229.588ZM108.336 236.585V238.148H103.313V236.585H108.336ZM103.82 232.727V242H102.051V232.727H103.82ZM109.597 232.727V242H107.835V232.727H109.597ZM115.918 242.187C115.049 242.187 114.29 241.988 113.642 241.589C112.994 241.191 112.491 240.634 112.133 239.917C111.775 239.201 111.596 238.364 111.596 237.406C111.596 236.444 111.775 235.603 112.133 234.882C112.491 234.162 112.994 233.603 113.642 233.204C114.29 232.806 115.049 232.607 115.918 232.607C116.787 232.607 117.546 232.806 118.194 233.204C118.842 233.603 119.345 234.162 119.703 234.882C120.061 235.603 120.241 236.444 120.241 237.406C120.241 238.364 120.061 239.201 119.703 239.917C119.345 240.634 118.842 241.191 118.194 241.589C117.546 241.988 116.787 242.187 115.918 242.187ZM115.924 240.672C116.488 240.672 116.954 240.523 117.325 240.225C117.695 239.927 117.969 239.531 118.146 239.036C118.327 238.541 118.417 237.996 118.417 237.4C118.417 236.808 118.327 236.265 118.146 235.77C117.969 235.271 117.695 234.87 117.325 234.569C116.954 234.267 116.488 234.116 115.924 234.116C115.357 234.116 114.886 234.267 114.512 234.569C114.141 234.87 113.866 235.271 113.684 235.77C113.507 236.265 113.419 236.808 113.419 237.4C113.419 237.996 113.507 238.541 113.684 239.036C113.866 239.531 114.141 239.927 114.512 240.225C114.886 240.523 115.357 240.672 115.924 240.672ZM124.024 239.471L128.111 232.727H130.055V242H128.286V235.251L124.217 242H122.255V232.727H124.024V239.471ZM127.339 229.588H128.824C128.824 230.268 128.582 230.822 128.099 231.248C127.62 231.671 126.972 231.882 126.155 231.882C125.342 231.882 124.696 231.671 124.217 231.248C123.738 230.822 123.499 230.268 123.499 229.588H124.978C124.978 229.89 125.067 230.158 125.244 230.391C125.421 230.62 125.725 230.735 126.155 230.735C126.578 230.735 126.88 230.62 127.061 230.391C127.246 230.162 127.339 229.894 127.339 229.588ZM136.981 245.477V232.727H138.744V234.23H138.895C138.999 234.037 139.15 233.814 139.347 233.56C139.545 233.307 139.818 233.085 140.169 232.896C140.519 232.703 140.981 232.607 141.557 232.607C142.306 232.607 142.974 232.796 143.561 233.174C144.149 233.552 144.61 234.098 144.944 234.81C145.282 235.522 145.451 236.38 145.451 237.382C145.451 238.384 145.284 239.243 144.95 239.96C144.616 240.672 144.157 241.221 143.573 241.608C142.99 241.99 142.324 242.181 141.575 242.181C141.012 242.181 140.551 242.087 140.193 241.897C139.838 241.708 139.561 241.487 139.36 241.233C139.158 240.98 139.003 240.754 138.895 240.557H138.786V245.477H136.981ZM138.75 237.364C138.75 238.016 138.844 238.587 139.034 239.078C139.223 239.569 139.496 239.953 139.855 240.231C140.213 240.505 140.651 240.642 141.171 240.642C141.71 240.642 142.161 240.499 142.523 240.213C142.885 239.923 143.159 239.531 143.344 239.036C143.533 238.541 143.628 237.983 143.628 237.364C143.628 236.752 143.535 236.203 143.35 235.716C143.169 235.229 142.895 234.844 142.529 234.562C142.167 234.281 141.714 234.14 141.171 234.14C140.647 234.14 140.205 234.275 139.843 234.544C139.484 234.814 139.213 235.19 139.028 235.673C138.842 236.156 138.75 236.72 138.75 237.364ZM150.172 242.205C149.584 242.205 149.053 242.097 148.578 241.879C148.103 241.658 147.727 241.338 147.449 240.919C147.175 240.501 147.039 239.988 147.039 239.38C147.039 238.857 147.139 238.426 147.34 238.088C147.542 237.75 147.813 237.482 148.155 237.285C148.497 237.088 148.88 236.939 149.302 236.838C149.725 236.738 150.156 236.661 150.594 236.609C151.15 236.545 151.6 236.492 151.947 236.452C152.293 236.408 152.544 236.337 152.701 236.241C152.858 236.144 152.937 235.987 152.937 235.77V235.728C152.937 235.2 152.788 234.792 152.49 234.502C152.196 234.212 151.757 234.067 151.174 234.067C150.566 234.067 150.087 234.202 149.737 234.472C149.391 234.738 149.151 235.033 149.019 235.359L147.322 234.973C147.523 234.41 147.817 233.955 148.204 233.609C148.594 233.259 149.043 233.005 149.55 232.848C150.057 232.687 150.59 232.607 151.15 232.607C151.52 232.607 151.912 232.651 152.327 232.739C152.745 232.824 153.136 232.981 153.498 233.21C153.864 233.44 154.164 233.768 154.398 234.194C154.631 234.617 154.748 235.166 154.748 235.842V242H152.985V240.732H152.912C152.796 240.966 152.621 241.195 152.387 241.42C152.154 241.646 151.854 241.833 151.488 241.982C151.122 242.131 150.683 242.205 150.172 242.205ZM150.564 240.756C151.063 240.756 151.49 240.658 151.844 240.461C152.202 240.263 152.474 240.006 152.659 239.688C152.848 239.366 152.943 239.022 152.943 238.656V237.46C152.878 237.525 152.753 237.585 152.568 237.641C152.387 237.694 152.18 237.74 151.947 237.78C151.713 237.816 151.486 237.851 151.264 237.883C151.043 237.911 150.858 237.935 150.709 237.955C150.359 238 150.039 238.074 149.749 238.179C149.463 238.283 149.234 238.434 149.061 238.631C148.892 238.825 148.807 239.082 148.807 239.404C148.807 239.851 148.972 240.189 149.302 240.418C149.632 240.644 150.053 240.756 150.564 240.756ZM164.306 229.274L165.054 230.415C164.777 230.669 164.461 230.85 164.106 230.958C163.756 231.063 163.352 231.129 162.893 231.158C162.434 231.182 161.909 231.204 161.317 231.224C160.649 231.244 160.1 231.389 159.669 231.659C159.239 231.924 158.907 232.319 158.673 232.842C158.444 233.361 158.295 234.013 158.226 234.798H158.341C158.643 234.222 159.062 233.792 159.597 233.506C160.136 233.22 160.742 233.077 161.414 233.077C162.163 233.077 162.829 233.248 163.412 233.591C163.996 233.933 164.455 234.434 164.789 235.094C165.127 235.75 165.296 236.553 165.296 237.502C165.296 238.464 165.119 239.295 164.764 239.996C164.414 240.696 163.919 241.237 163.279 241.62C162.643 241.998 161.893 242.187 161.028 242.187C160.162 242.187 159.408 241.992 158.764 241.602C158.124 241.207 157.627 240.624 157.273 239.851C156.922 239.078 156.747 238.124 156.747 236.989V236.072C156.747 233.951 157.126 232.355 157.882 231.284C158.639 230.214 159.77 229.665 161.275 229.636C161.762 229.624 162.197 229.622 162.579 229.63C162.961 229.634 163.295 229.616 163.581 229.576C163.871 229.532 164.112 229.431 164.306 229.274ZM161.034 240.672C161.537 240.672 161.969 240.545 162.332 240.292C162.698 240.034 162.98 239.67 163.177 239.199C163.374 238.728 163.473 238.173 163.473 237.533C163.473 236.905 163.374 236.372 163.177 235.933C162.98 235.494 162.698 235.16 162.332 234.931C161.965 234.697 161.527 234.581 161.016 234.581C160.637 234.581 160.299 234.647 160.001 234.78C159.704 234.909 159.448 235.1 159.235 235.353C159.025 235.607 158.862 235.917 158.746 236.283C158.633 236.645 158.573 237.062 158.565 237.533C158.565 238.491 158.784 239.253 159.223 239.821C159.665 240.388 160.269 240.672 161.034 240.672ZM171.218 242.187C170.349 242.187 169.59 241.988 168.942 241.589C168.294 241.191 167.791 240.634 167.433 239.917C167.075 239.201 166.896 238.364 166.896 237.406C166.896 236.444 167.075 235.603 167.433 234.882C167.791 234.162 168.294 233.603 168.942 233.204C169.59 232.806 170.349 232.607 171.218 232.607C172.087 232.607 172.846 232.806 173.494 233.204C174.142 233.603 174.645 234.162 175.003 234.882C175.361 235.603 175.54 236.444 175.54 237.406C175.54 238.364 175.361 239.201 175.003 239.917C174.645 240.634 174.142 241.191 173.494 241.589C172.846 241.988 172.087 242.187 171.218 242.187ZM171.224 240.672C171.787 240.672 172.254 240.523 172.625 240.225C172.995 239.927 173.268 239.531 173.446 239.036C173.627 238.541 173.717 237.996 173.717 237.4C173.717 236.808 173.627 236.265 173.446 235.77C173.268 235.271 172.995 234.87 172.625 234.569C172.254 234.267 171.787 234.116 171.224 234.116C170.657 234.116 170.186 234.267 169.811 234.569C169.441 234.87 169.165 235.271 168.984 235.77C168.807 236.265 168.719 236.808 168.719 237.4C168.719 237.996 168.807 238.541 168.984 239.036C169.165 239.531 169.441 239.927 169.811 240.225C170.186 240.523 170.657 240.672 171.224 240.672ZM176.438 234.285V232.727H184.262V234.285H181.238V242H179.475V234.285H176.438ZM189.736 242.187C188.823 242.187 188.036 241.992 187.376 241.602C186.72 241.207 186.213 240.654 185.854 239.941C185.5 239.225 185.323 238.386 185.323 237.424C185.323 236.474 185.5 235.637 185.854 234.913C186.213 234.188 186.712 233.623 187.352 233.216C187.996 232.81 188.748 232.607 189.609 232.607C190.133 232.607 190.64 232.693 191.131 232.866C191.622 233.039 192.062 233.311 192.453 233.681C192.843 234.051 193.151 234.532 193.377 235.124C193.602 235.712 193.715 236.426 193.715 237.267V237.907H186.343V236.555H191.946C191.946 236.08 191.849 235.659 191.656 235.293C191.463 234.923 191.191 234.631 190.841 234.418C190.495 234.204 190.088 234.098 189.622 234.098C189.114 234.098 188.672 234.222 188.293 234.472C187.919 234.717 187.629 235.039 187.424 235.438C187.223 235.832 187.122 236.261 187.122 236.724V237.78C187.122 238.4 187.231 238.927 187.448 239.362C187.67 239.797 187.977 240.129 188.372 240.358C188.766 240.583 189.227 240.696 189.754 240.696C190.096 240.696 190.408 240.648 190.69 240.551C190.972 240.451 191.215 240.302 191.421 240.104C191.626 239.907 191.783 239.664 191.891 239.374L193.6 239.682C193.463 240.185 193.218 240.626 192.863 241.004C192.513 241.378 192.073 241.67 191.541 241.879C191.014 242.085 190.412 242.187 189.736 242.187ZM204.122 242.187C203.225 242.187 202.452 241.984 201.804 241.577C201.16 241.167 200.665 240.601 200.319 239.881C199.973 239.161 199.8 238.336 199.8 237.406C199.8 236.464 199.977 235.633 200.331 234.913C200.685 234.188 201.184 233.623 201.828 233.216C202.472 232.81 203.231 232.607 204.104 232.607C204.808 232.607 205.436 232.737 205.988 232.999C206.539 233.257 206.984 233.619 207.322 234.086C207.664 234.552 207.867 235.098 207.932 235.722H206.175C206.078 235.287 205.857 234.913 205.511 234.599C205.169 234.285 204.71 234.128 204.134 234.128C203.631 234.128 203.191 234.261 202.812 234.526C202.438 234.788 202.146 235.162 201.937 235.649C201.728 236.132 201.623 236.704 201.623 237.364C201.623 238.04 201.726 238.623 201.931 239.114C202.136 239.605 202.426 239.986 202.8 240.255C203.178 240.525 203.623 240.66 204.134 240.66C204.476 240.66 204.786 240.597 205.064 240.473C205.346 240.344 205.581 240.161 205.77 239.923C205.964 239.686 206.098 239.4 206.175 239.066H207.932C207.867 239.666 207.672 240.201 207.346 240.672C207.02 241.143 206.583 241.513 206.036 241.783C205.493 242.052 204.855 242.187 204.122 242.187ZM213.858 242.187C212.945 242.187 212.158 241.992 211.498 241.602C210.842 241.207 210.335 240.654 209.977 239.941C209.622 239.225 209.445 238.386 209.445 237.424C209.445 236.474 209.622 235.637 209.977 234.913C210.335 234.188 210.834 233.623 211.474 233.216C212.118 232.81 212.87 232.607 213.732 232.607C214.255 232.607 214.762 232.693 215.253 232.866C215.744 233.039 216.185 233.311 216.575 233.681C216.965 234.051 217.273 234.532 217.499 235.124C217.724 235.712 217.837 236.426 217.837 237.267V237.907H210.466V236.555H216.068C216.068 236.08 215.971 235.659 215.778 235.293C215.585 234.923 215.313 234.631 214.963 234.418C214.617 234.204 214.21 234.098 213.744 234.098C213.237 234.098 212.794 234.222 212.415 234.472C212.041 234.717 211.751 235.039 211.546 235.438C211.345 235.832 211.244 236.261 211.244 236.724V237.78C211.244 238.4 211.353 238.927 211.57 239.362C211.792 239.797 212.1 240.129 212.494 240.358C212.888 240.583 213.349 240.696 213.876 240.696C214.219 240.696 214.53 240.648 214.812 240.551C215.094 240.451 215.337 240.302 215.543 240.104C215.748 239.907 215.905 239.664 216.013 239.374L217.722 239.682C217.585 240.185 217.34 240.626 216.985 241.004C216.635 241.378 216.195 241.67 215.663 241.879C215.136 242.085 214.534 242.187 213.858 242.187ZM219.839 245.477V232.727H221.602V234.23H221.753C221.858 234.037 222.009 233.814 222.206 233.56C222.403 233.307 222.677 233.085 223.027 232.896C223.377 232.703 223.84 232.607 224.415 232.607C225.164 232.607 225.832 232.796 226.42 233.174C227.007 233.552 227.468 234.098 227.802 234.81C228.14 235.522 228.309 236.38 228.309 237.382C228.309 238.384 228.142 239.243 227.808 239.96C227.474 240.672 227.015 241.221 226.432 241.608C225.848 241.99 225.182 242.181 224.434 242.181C223.87 242.181 223.409 242.087 223.051 241.897C222.697 241.708 222.419 241.487 222.218 241.233C222.017 240.98 221.862 240.754 221.753 240.557H221.644V245.477H219.839ZM221.608 237.364C221.608 238.016 221.703 238.587 221.892 239.078C222.081 239.569 222.355 239.953 222.713 240.231C223.071 240.505 223.51 240.642 224.029 240.642C224.568 240.642 225.019 240.499 225.381 240.213C225.744 239.923 226.017 239.531 226.202 239.036C226.391 238.541 226.486 237.983 226.486 237.364C226.486 236.752 226.393 236.203 226.208 235.716C226.027 235.229 225.754 234.844 225.387 234.562C225.025 234.281 224.572 234.14 224.029 234.14C223.506 234.14 223.063 234.275 222.701 234.544C222.343 234.814 222.071 235.19 221.886 235.673C221.701 236.156 221.608 236.72 221.608 237.364ZM230.332 242V232.727H234.177C235.224 232.727 236.053 232.951 236.664 233.397C237.276 233.84 237.582 234.442 237.582 235.202C237.582 235.746 237.409 236.176 237.063 236.494C236.717 236.812 236.258 237.026 235.686 237.134C236.101 237.183 236.481 237.307 236.827 237.509C237.173 237.706 237.451 237.971 237.66 238.305C237.874 238.639 237.98 239.038 237.98 239.501C237.98 239.992 237.854 240.426 237.6 240.805C237.347 241.179 236.978 241.473 236.495 241.686C236.016 241.895 235.439 242 234.763 242H230.332ZM232.028 240.491H234.763C235.209 240.491 235.56 240.384 235.813 240.171C236.067 239.958 236.193 239.668 236.193 239.301C236.193 238.871 236.067 238.533 235.813 238.287C235.56 238.038 235.209 237.913 234.763 237.913H232.028V240.491ZM232.028 236.591H234.195C234.533 236.591 234.823 236.543 235.065 236.446C235.31 236.349 235.497 236.213 235.626 236.036C235.759 235.854 235.825 235.641 235.825 235.396C235.825 235.037 235.678 234.758 235.384 234.556C235.091 234.355 234.688 234.255 234.177 234.255H232.028V236.591ZM241.729 239.471L245.816 232.727H247.76V242H245.991V235.251L241.922 242H239.96V232.727H241.729V239.471ZM254.093 242.187C253.195 242.187 252.423 241.984 251.775 241.577C251.131 241.167 250.636 240.601 250.29 239.881C249.944 239.161 249.771 238.336 249.771 237.406C249.771 236.464 249.948 235.633 250.302 234.913C250.656 234.188 251.155 233.623 251.799 233.216C252.443 232.81 253.201 232.607 254.075 232.607C254.779 232.607 255.407 232.737 255.958 232.999C256.51 233.257 256.954 233.619 257.293 234.086C257.635 234.552 257.838 235.098 257.902 235.722H256.146C256.049 235.287 255.828 234.913 255.481 234.599C255.139 234.285 254.681 234.128 254.105 234.128C253.602 234.128 253.161 234.261 252.783 234.526C252.409 234.788 252.117 235.162 251.908 235.649C251.698 236.132 251.594 236.704 251.594 237.364C251.594 238.04 251.696 238.623 251.902 239.114C252.107 239.605 252.397 239.986 252.771 240.255C253.149 240.525 253.594 240.66 254.105 240.66C254.447 240.66 254.757 240.597 255.035 240.473C255.316 240.344 255.552 240.161 255.741 239.923C255.934 239.686 256.069 239.4 256.146 239.066H257.902C257.838 239.666 257.643 240.201 257.317 240.672C256.991 241.143 256.554 241.513 256.007 241.783C255.463 242.052 254.825 242.187 254.093 242.187ZM262.531 242.205C261.943 242.205 261.412 242.097 260.937 241.879C260.462 241.658 260.086 241.338 259.808 240.919C259.535 240.501 259.398 239.988 259.398 239.38C259.398 238.857 259.499 238.426 259.7 238.088C259.901 237.75 260.173 237.482 260.515 237.285C260.857 237.088 261.239 236.939 261.662 236.838C262.084 236.738 262.515 236.661 262.954 236.609C263.509 236.545 263.96 236.492 264.306 236.452C264.652 236.408 264.904 236.337 265.061 236.241C265.218 236.144 265.296 235.987 265.296 235.77V235.728C265.296 235.2 265.147 234.792 264.849 234.502C264.555 234.212 264.117 234.067 263.533 234.067C262.925 234.067 262.447 234.202 262.096 234.472C261.75 234.738 261.511 235.033 261.378 235.359L259.682 234.973C259.883 234.41 260.177 233.955 260.563 233.609C260.953 233.259 261.402 233.005 261.909 232.848C262.416 232.687 262.95 232.607 263.509 232.607C263.879 232.607 264.272 232.651 264.686 232.739C265.105 232.824 265.495 232.981 265.857 233.21C266.224 233.44 266.523 233.768 266.757 234.194C266.99 234.617 267.107 235.166 267.107 235.842V242H265.344V240.732H265.272C265.155 240.966 264.98 241.195 264.747 241.42C264.513 241.646 264.213 241.833 263.847 241.982C263.481 242.131 263.042 242.205 262.531 242.205ZM262.923 240.756C263.423 240.756 263.849 240.658 264.203 240.461C264.561 240.263 264.833 240.006 265.018 239.688C265.207 239.366 265.302 239.022 265.302 238.656V237.46C265.238 237.525 265.113 237.585 264.928 237.641C264.747 237.694 264.539 237.74 264.306 237.78C264.073 237.816 263.845 237.851 263.624 237.883C263.402 237.911 263.217 237.935 263.068 237.955C262.718 238 262.398 238.074 262.108 238.179C261.823 238.283 261.593 238.434 261.42 238.631C261.251 238.825 261.167 239.082 261.167 239.404C261.167 239.851 261.332 240.189 261.662 240.418C261.992 240.644 262.412 240.756 262.923 240.756ZM270.701 242.115C270.371 242.115 270.087 241.998 269.849 241.765C269.612 241.527 269.493 241.241 269.493 240.907C269.493 240.577 269.612 240.296 269.849 240.062C270.087 239.825 270.371 239.706 270.701 239.706C271.031 239.706 271.314 239.825 271.552 240.062C271.789 240.296 271.908 240.577 271.908 240.907C271.908 241.129 271.852 241.332 271.739 241.517C271.63 241.698 271.485 241.843 271.304 241.952C271.123 242.06 270.922 242.115 270.701 242.115Z" fill="#4E5D7C" fill-opacity="0.5"/>
<g clip-path="url(#clip0_3725_1217)">
<path d="M0 23.9151C0.498619 21.5418 1.88106 19.6087 3.12663 17.6052C5.85828 13.2088 8.62122 8.83001 11.3216 4.416C13.1577 1.41658 15.7759 -0.00583762 19.2878 3.2072e-05C33.0809 0.027424 46.8741 0.027424 60.6673 3.2072e-05C64.1791 -0.00779418 66.7973 1.41658 68.6374 4.41208C71.7796 9.53241 74.9551 14.6332 78.16 19.7163C79.3919 21.669 80.0743 23.7214 79.9707 26.0517C79.8964 27.7402 79.9316 29.4365 79.9609 31.127C80.0117 33.9601 79.0164 36.306 76.8264 38.1276C76.7697 38.1746 76.7287 38.245 76.7228 38.2509C77.4443 39.1548 78.3164 39.9531 78.8092 40.9431C79.3645 42.0564 79.8084 43.3242 79.8885 44.553C80.0508 47.0671 80.0137 49.6028 79.9022 52.1229C79.8573 53.1579 79.4877 54.2066 79.1142 55.1908C78.7642 56.1123 77.8354 56.4352 76.9946 56.1065C76.1557 55.7797 75.7119 54.9247 76.0775 53.9953C76.6192 52.6199 76.6583 51.2111 76.6368 49.777C76.6094 48.0337 76.6896 46.2826 76.5429 44.551C76.318 41.8979 74.3236 40.1194 71.6604 40.0098C71.4785 40.002 71.2967 40.0059 71.1148 40.0059C50.3468 40.0059 29.5789 40.0059 8.81285 40.0059C6.09293 40.0059 4.17862 41.3579 3.51771 43.7351C3.47665 43.8838 3.42972 44.0384 3.42776 44.191C3.40039 46.7658 3.24005 49.3485 3.39648 51.9135C3.57832 54.9286 5.67448 56.67 8.78547 56.6778C13.4177 56.6895 18.05 56.6817 22.6823 56.6817C26.9508 56.6817 31.2175 56.6817 35.486 56.6837C35.8243 56.6837 36.1665 56.6837 36.497 56.7365C37.2302 56.8539 37.7484 57.4389 37.8129 58.1726C37.8833 58.9611 37.4785 59.6439 36.7355 59.867C36.3699 59.9766 35.969 60 35.5818 60C26.6302 60.0079 17.6765 60.002 8.72485 60.0079C6.07729 60.0079 4.16298 61.3872 3.51184 63.741C3.47078 63.8897 3.42581 64.0442 3.42385 64.1988C3.39452 66.7482 3.23614 69.3055 3.38083 71.8451C3.55486 74.9051 5.6471 76.6739 8.78938 76.6797C15.6332 76.6895 22.4789 76.6836 29.3227 76.6836C29.5828 76.6836 29.8428 76.6758 30.1029 76.6934C31.0102 76.7482 31.5499 77.1689 31.7532 77.9652C31.9468 78.7243 31.634 79.3759 30.8557 79.8415C30.7697 79.8924 30.6915 79.9531 30.6093 80.0079H7.18402C7.01977 79.9531 6.85748 79.8846 6.68932 79.8455C3.57441 79.1059 1.48999 77.2158 0.410627 74.2125C0.248332 73.7586 0.136876 73.2851 0.00195537 72.8214V63.9171C0.50644 61.7179 1.46262 59.7868 3.43363 58.3291C2.86853 57.8028 2.32689 57.3606 1.86151 56.85C0.821255 55.7015 0.416494 54.2536 0 52.8175V43.9132C0.504485 41.714 1.46066 39.7829 3.43167 38.3252C2.86657 37.7989 2.32493 37.3567 1.85956 36.8461C0.821255 35.7054 0.416494 34.2556 0 32.8194V23.9151ZM39.9775 20.0098C29.6473 20.0098 19.319 20.0098 8.98883 20.0137C8.5215 20.0137 8.0483 20.0216 7.58879 20.092C5.30296 20.4442 3.55682 22.1738 3.4219 24.4845C3.28111 26.9224 3.32217 29.3739 3.36519 31.8177C3.37692 32.4966 3.5705 33.2225 3.86772 33.8349C4.89624 35.9539 6.72256 36.6934 8.98687 36.6915C29.6453 36.6797 50.3058 36.6856 70.9642 36.6856C71.1461 36.6856 71.3279 36.6915 71.5098 36.6817C74.1593 36.5545 76.3454 34.8562 76.494 32.5142C76.6602 29.8983 76.5644 27.2648 76.5683 24.639C76.5683 24.3319 76.5058 24.0169 76.4236 23.7195C75.7784 21.3931 73.8738 20.0137 71.2771 20.0118C60.8433 20.0059 50.4094 20.0098 39.9756 20.0098H39.9775ZM7.63376 16.666H72.2998C72.1296 16.3784 72.0045 16.1573 71.8696 15.9402C69.8516 12.6923 67.7985 9.46785 65.8275 6.19256C64.6367 4.21251 62.9648 3.31054 60.6692 3.32228C54.0601 3.35554 47.4509 3.33402 40.8418 3.33402C33.6089 3.33402 26.374 3.3438 19.1411 3.32815C16.9746 3.32228 15.3555 4.19099 14.2194 6.05364C12.4205 9.00805 10.5746 11.9331 8.74832 14.8699C8.39244 15.4412 8.04048 16.0126 7.63376 16.668V16.666Z" fill="#357EFE"/>
<path d="M40.6038 80.0001C38.9965 79.6284 37.5143 79.0453 36.216 77.9536C32.3092 74.6685 32.3815 68.2549 36.4721 65.1987C37.3677 64.5296 38.4666 64.1167 39.5049 63.6608C39.8784 63.4965 40.0857 63.3693 40.1502 62.9311C41.3723 54.6724 48.7655 49.0434 56.9879 50.1703C61.0042 50.7201 64.2755 52.665 66.7588 55.8855C67.1519 56.3961 67.4901 56.7248 68.2527 56.717C74.33 56.6446 79.412 61.3228 79.9224 67.3803C80.4327 73.4339 76.1035 78.9162 70.0751 79.8514C69.9285 79.8749 69.7916 79.9492 69.6489 80.0001H40.6038ZM55.1635 76.6779C59.4047 76.6779 63.6459 76.6779 67.8871 76.6779C67.9399 76.6779 67.9907 76.6779 68.0435 76.6779C73.4208 76.6231 77.1986 72.346 76.524 67.0751C76.0019 62.9937 71.8291 59.5384 67.8656 60.0725C66.2974 60.2838 65.3647 59.8612 64.5258 58.519C62.1461 54.7096 57.3848 52.7139 52.9735 53.52C47.6217 54.5002 43.7735 58.7851 43.3609 64.2283C43.2084 66.2435 42.9503 66.5116 40.9519 66.7307C38.1479 67.0398 36.0869 70.0432 36.7928 72.7941C37.4205 75.2378 39.3328 76.6661 42.0508 76.674C46.4211 76.6877 50.7933 76.6779 55.1635 76.6779Z" fill="#357EFE"/>
<path d="M55.0179 43.3281C59.2298 43.3281 63.4416 43.3281 67.6535 43.3281C69.1357 43.3281 69.9256 43.8975 69.9511 44.9736C69.9784 46.0693 69.1513 46.6836 67.6398 46.6836C59.1907 46.6836 50.7396 46.6836 42.2904 46.6836C40.8082 46.6836 40.0183 46.1143 39.9928 45.0382C39.9655 43.9425 40.7926 43.3281 42.3041 43.3281C46.5414 43.3281 50.7806 43.3281 55.0179 43.3281Z" fill="#357EFE"/>
<path d="M11.6835 53.3146C8.91469 53.3303 6.67579 51.0939 6.68361 48.3235C6.69144 45.596 8.90491 43.3675 11.6346 43.3401C14.3487 43.3127 16.6697 45.6312 16.656 48.3528C16.6404 51.0763 14.4132 53.299 11.6854 53.3146H11.6835ZM13.2967 48.345C13.3006 47.4371 12.5927 46.7152 11.6854 46.7034C10.7645 46.6897 9.98232 47.4665 10.0038 48.3704C10.0253 49.2372 10.8114 50.0022 11.6698 49.9924C12.5517 49.9826 13.2908 49.2333 13.2947 48.345H13.2967Z" fill="#357EFE"/>
<path d="M11.6486 73.3145C8.87976 73.3086 6.65846 71.0547 6.68779 68.2842C6.71712 65.5548 8.96775 63.3223 11.674 63.3399C14.39 63.3576 16.623 65.5861 16.6543 68.3096C16.6875 71.0351 14.4017 73.3204 11.6486 73.3126V73.3145ZM13.2969 68.3272C13.293 67.4213 12.5754 66.7052 11.672 66.7013C10.7823 66.6955 10.0295 67.4233 10.008 68.3096C9.98845 69.2018 10.798 70.0118 11.6896 69.9923C12.5754 69.9727 13.3028 69.2194 13.2969 68.3292V68.3272Z" fill="#357EFE"/>
<path d="M54.9625 23.3301C59.1744 23.3301 63.3863 23.3301 67.5981 23.3301C69.137 23.3301 69.9426 23.9053 69.9504 24.999C69.9583 26.0927 69.1409 26.6856 67.6157 26.6856C59.192 26.6856 50.7683 26.6856 42.3446 26.6856C40.8057 26.6856 40.0001 26.1104 39.9922 25.0166C39.9844 23.9229 40.8018 23.3301 42.327 23.3301C46.5388 23.3301 50.7507 23.3301 54.9625 23.3301Z" fill="#357EFE"/>
<path d="M54.9294 33.3298C50.7664 33.3298 46.6015 33.3298 42.4385 33.3298C42.2039 33.3298 41.9692 33.3357 41.7365 33.322C40.706 33.2633 40.0041 32.602 39.9923 31.6902C39.9806 30.7765 40.6806 30.0878 41.7033 30.0135C41.8851 29.9998 42.067 30.0076 42.2488 30.0076C50.7312 30.0076 59.2156 30.0076 67.698 30.0135C68.0832 30.0135 68.486 30.0389 68.8497 30.1504C69.5399 30.3578 69.9975 31.0876 69.9447 31.7744C69.888 32.5237 69.3287 33.1616 68.5857 33.277C68.2533 33.3298 67.9111 33.3259 67.5748 33.3279C63.359 33.3318 59.1432 33.3298 54.9274 33.3298H54.9294Z" fill="#357EFE"/>
<path d="M11.6796 33.3184C8.91079 33.3321 6.67385 31.0977 6.68363 28.3252C6.6934 25.5997 8.92057 23.3575 11.6366 23.3438C14.3643 23.3301 16.6619 25.6271 16.6541 28.3604C16.6462 31.0722 14.4054 33.3066 11.6796 33.3184ZM11.664 26.7052C10.7743 26.7013 10.0214 27.433 10.0038 28.3174C9.98624 29.2076 10.8016 30.0177 11.6894 29.9961C12.5752 29.9746 13.2986 29.2194 13.2928 28.3291C13.2869 27.4232 12.5693 26.7091 11.664 26.7052Z" fill="#357EFE"/>
</g>
<defs>
<clipPath id="clip0_3725_1217">
<rect width="80" height="80" fill="white"/>
</clipPath>
</defs>
</svg>
