<svg width="1352" height="64" viewBox="0 0 1352 64" fill="none" xmlns="http://www.w3.org/2000/svg">
<path d="M84.5256 26H80.571L86.5966 8.54545H91.3523L97.3693 26H93.4148L89.0426 12.5341H88.9062L84.5256 26ZM84.2784 19.1392H93.6193V22.0199H84.2784V19.1392ZM108.513 18.0057V20.8608H101.678V18.0057H108.513ZM102.871 12.9091V26H99.402V12.9091H102.871ZM110.788 12.9091V26H107.345V12.9091H110.788ZM117.338 26.2472C116.503 26.2472 115.759 26.1023 115.105 25.8125C114.452 25.517 113.935 25.0824 113.554 24.5085C113.179 23.929 112.991 23.2074 112.991 22.3438C112.991 21.6165 113.125 21.0057 113.392 20.5114C113.659 20.017 114.023 19.6193 114.483 19.3182C114.943 19.017 115.466 18.7898 116.051 18.6364C116.642 18.483 117.261 18.375 117.909 18.3125C118.67 18.233 119.284 18.1591 119.75 18.0909C120.216 18.017 120.554 17.9091 120.764 17.767C120.974 17.625 121.08 17.4148 121.08 17.1364V17.0852C121.08 16.5455 120.909 16.1278 120.568 15.8324C120.233 15.5369 119.756 15.3892 119.136 15.3892C118.483 15.3892 117.963 15.5341 117.577 15.8239C117.19 16.108 116.935 16.4659 116.81 16.8977L113.452 16.625C113.622 15.8295 113.957 15.142 114.457 14.5625C114.957 13.9773 115.602 13.5284 116.392 13.2159C117.188 12.8977 118.108 12.7386 119.153 12.7386C119.881 12.7386 120.577 12.8239 121.241 12.9943C121.912 13.1648 122.506 13.429 123.023 13.7869C123.545 14.1449 123.957 14.6051 124.259 15.1676C124.56 15.7244 124.71 16.392 124.71 17.1705V26H121.267V24.1847H121.165C120.955 24.5938 120.673 24.9545 120.321 25.267C119.969 25.5739 119.545 25.8153 119.051 25.9915C118.557 26.1619 117.986 26.2472 117.338 26.2472ZM118.378 23.7415C118.912 23.7415 119.384 23.6364 119.793 23.4261C120.202 23.2102 120.523 22.9205 120.756 22.5568C120.989 22.1932 121.105 21.7812 121.105 21.321V19.9318C120.991 20.0057 120.835 20.0739 120.636 20.1364C120.443 20.1932 120.224 20.2472 119.98 20.2983C119.736 20.3437 119.491 20.3864 119.247 20.4261C119.003 20.4602 118.781 20.4915 118.582 20.5199C118.156 20.5824 117.784 20.6818 117.466 20.8182C117.148 20.9545 116.901 21.1392 116.724 21.3722C116.548 21.5994 116.46 21.8835 116.46 22.2244C116.46 22.7188 116.639 23.0966 116.997 23.358C117.361 23.6136 117.821 23.7415 118.378 23.7415ZM126.76 26L126.743 23.1193H127.178C127.484 23.1193 127.749 23.0455 127.97 22.8977C128.197 22.7443 128.385 22.4972 128.533 22.1562C128.68 21.8153 128.797 21.3636 128.882 20.8011C128.967 20.233 129.024 19.5341 129.053 18.7045L129.266 12.9091H139.22V26H135.76V15.7642H132.53L132.325 19.7614C132.274 20.858 132.141 21.8011 131.925 22.5909C131.714 23.3807 131.422 24.0284 131.047 24.5341C130.672 25.0341 130.22 25.4034 129.692 25.642C129.163 25.8807 128.55 26 127.851 26H126.76ZM145.504 21.2102L150.217 12.9091H153.796V26H150.336V17.6733L145.64 26H142.035V12.9091H145.504V21.2102ZM156.033 22.2926H159.553C159.57 22.7244 159.763 23.0653 160.133 23.3153C160.502 23.5653 160.979 23.6903 161.565 23.6903C162.156 23.6903 162.653 23.554 163.056 23.2812C163.46 23.0028 163.661 22.6051 163.661 22.0881C163.661 21.7699 163.582 21.4943 163.423 21.2614C163.263 21.0227 163.042 20.8352 162.758 20.6989C162.474 20.5625 162.144 20.4943 161.769 20.4943H159.886V18.1165H161.769C162.332 18.1165 162.763 17.9858 163.065 17.7244C163.371 17.4631 163.525 17.1364 163.525 16.7443C163.525 16.3011 163.366 15.946 163.048 15.679C162.735 15.4062 162.312 15.2699 161.778 15.2699C161.238 15.2699 160.789 15.392 160.431 15.6364C160.079 15.875 159.897 16.1875 159.886 16.5739H156.383C156.394 15.7898 156.63 15.1108 157.09 14.5369C157.556 13.9631 158.181 13.5199 158.965 13.2074C159.755 12.8949 160.638 12.7386 161.616 12.7386C162.684 12.7386 163.604 12.8892 164.377 13.1903C165.156 13.4858 165.752 13.9091 166.167 14.4602C166.587 15.0114 166.798 15.6676 166.798 16.429C166.798 17.1222 166.57 17.7017 166.116 18.1676C165.661 18.6335 165.025 18.9659 164.207 19.1648V19.3011C164.746 19.3352 165.235 19.4801 165.673 19.7358C166.11 19.9915 166.46 20.3437 166.721 20.7926C166.982 21.2358 167.113 21.7614 167.113 22.3693C167.113 23.1818 166.874 23.8778 166.397 24.4574C165.925 25.0369 165.272 25.483 164.437 25.7955C163.607 26.1023 162.656 26.2557 161.582 26.2557C160.536 26.2557 159.599 26.1051 158.769 25.804C157.945 25.4972 157.289 25.0483 156.8 24.4574C156.317 23.8665 156.062 23.1449 156.033 22.2926ZM174.894 26V12.9091H186.34V26H182.871V15.7642H178.32V26H174.894ZM189.238 30.9091V12.9091H192.817V15.108H192.979C193.138 14.7557 193.369 14.3977 193.67 14.0341C193.977 13.6648 194.374 13.358 194.863 13.1136C195.357 12.8636 195.971 12.7386 196.704 12.7386C197.658 12.7386 198.539 12.9886 199.346 13.4886C200.153 13.983 200.798 14.7301 201.281 15.7301C201.763 16.7244 202.005 17.9716 202.005 19.4716C202.005 20.9318 201.769 22.1648 201.298 23.1705C200.832 24.1705 200.195 24.929 199.388 25.446C198.587 25.9574 197.69 26.2131 196.695 26.2131C195.991 26.2131 195.391 26.0966 194.897 25.8636C194.408 25.6307 194.008 25.3381 193.695 24.9858C193.383 24.6278 193.144 24.267 192.979 23.9034H192.869V30.9091H189.238ZM192.792 19.4545C192.792 20.233 192.9 20.9119 193.116 21.4915C193.332 22.071 193.644 22.5227 194.053 22.8466C194.462 23.1648 194.96 23.3239 195.545 23.3239C196.136 23.3239 196.636 23.1619 197.045 22.8381C197.454 22.5085 197.763 22.054 197.974 21.4744C198.19 20.8892 198.298 20.2159 198.298 19.4545C198.298 18.6989 198.192 18.0341 197.982 17.4602C197.772 16.8864 197.462 16.4375 197.053 16.1136C196.644 15.7898 196.141 15.6278 195.545 15.6278C194.954 15.6278 194.454 15.7841 194.045 16.0966C193.641 16.4091 193.332 16.8523 193.116 17.4261C192.9 18 192.792 18.6761 192.792 19.4545ZM207.894 21.2102L212.607 12.9091H216.187V26H212.727V17.6733L208.031 26H204.425V12.9091H207.894V21.2102ZM229.981 8.10227L231.089 10.4716C230.719 10.7784 230.31 11.0057 229.862 11.1534C229.413 11.2955 228.876 11.3892 228.251 11.4347C227.631 11.4801 226.876 11.5114 225.984 11.5284C224.972 11.5398 224.148 11.7017 223.512 12.0142C222.876 12.3267 222.393 12.8182 222.063 13.4886C221.734 14.1534 221.518 15.0227 221.415 16.0966H221.543C221.935 15.2955 222.487 14.6761 223.197 14.2386C223.913 13.8011 224.796 13.5824 225.847 13.5824C226.961 13.5824 227.935 13.8267 228.771 14.3153C229.612 14.804 230.265 15.5057 230.731 16.4205C231.197 17.3352 231.43 18.4318 231.43 19.7102C231.43 21.0398 231.168 22.196 230.646 23.179C230.129 24.1562 229.393 24.9148 228.438 25.4545C227.484 25.9886 226.347 26.2557 225.029 26.2557C223.705 26.2557 222.563 25.9773 221.603 25.4205C220.648 24.8636 219.91 24.0426 219.387 22.9574C218.87 21.8722 218.612 20.5369 218.612 18.9517V17.8778C218.612 14.7244 219.225 12.3864 220.452 10.8636C221.68 9.34091 223.484 8.56818 225.864 8.54545C226.512 8.53409 227.097 8.53125 227.62 8.53693C228.143 8.54261 228.6 8.51705 228.992 8.46023C229.39 8.40341 229.719 8.28409 229.981 8.10227ZM225.046 23.4432C225.603 23.4432 226.08 23.2983 226.478 23.0085C226.881 22.7187 227.191 22.304 227.407 21.7642C227.629 21.2244 227.739 20.5795 227.739 19.8295C227.739 19.0852 227.629 18.4545 227.407 17.9375C227.191 17.4148 226.881 17.017 226.478 16.7443C226.075 16.4716 225.592 16.3352 225.029 16.3352C224.609 16.3352 224.231 16.4119 223.896 16.5653C223.56 16.7187 223.273 16.946 223.035 17.2472C222.802 17.5426 222.62 17.9091 222.489 18.3466C222.364 18.7784 222.302 19.2727 222.302 19.8295C222.302 20.9489 222.543 21.8324 223.026 22.4801C223.515 23.1222 224.188 23.4432 225.046 23.4432ZM236.115 16.9318H240.027C241.76 16.9318 243.112 17.3466 244.084 18.1761C245.055 19 245.541 20.1023 245.541 21.483C245.541 22.3807 245.322 23.1705 244.885 23.8523C244.447 24.5284 243.817 25.0568 242.993 25.4375C242.169 25.8125 241.18 26 240.027 26H233.839V12.9091H237.308V23.1449H240.027C240.635 23.1449 241.135 22.9915 241.527 22.6847C241.919 22.3778 242.118 21.9858 242.124 21.5085C242.118 21.0028 241.919 20.5909 241.527 20.2727C241.135 19.9489 240.635 19.7869 240.027 19.7869H236.115V16.9318ZM246.947 26V12.9091H250.578V26H246.947ZM252.713 26L252.696 23.1193H253.131C253.438 23.1193 253.702 23.0455 253.923 22.8977C254.151 22.7443 254.338 22.4972 254.486 22.1562C254.634 21.8153 254.75 21.3636 254.835 20.8011C254.92 20.233 254.977 19.5341 255.006 18.7045L255.219 12.9091H265.173V26H261.713V15.7642H258.483L258.278 19.7614C258.227 20.858 258.094 21.8011 257.878 22.5909C257.668 23.3807 257.375 24.0284 257 24.5341C256.625 25.0341 256.173 25.4034 255.645 25.642C255.116 25.8807 254.503 26 253.804 26H252.713ZM271.457 21.2102L276.17 12.9091H279.749V26H276.289V17.6733L271.593 26H267.988V12.9091H271.457V21.2102ZM288.214 26V12.9091H299.661V26H296.192V15.7642H291.641V26H288.214ZM308.473 26.2557C307.149 26.2557 306.004 25.9744 305.038 25.4119C304.078 24.8437 303.337 24.054 302.814 23.0426C302.291 22.0256 302.03 20.8466 302.03 19.5057C302.03 18.1534 302.291 16.9716 302.814 15.9602C303.337 14.9432 304.078 14.1534 305.038 13.5909C306.004 13.0227 307.149 12.7386 308.473 12.7386C309.797 12.7386 310.939 13.0227 311.899 13.5909C312.865 14.1534 313.609 14.9432 314.132 15.9602C314.655 16.9716 314.916 18.1534 314.916 19.5057C314.916 20.8466 314.655 22.0256 314.132 23.0426C313.609 24.054 312.865 24.8437 311.899 25.4119C310.939 25.9744 309.797 26.2557 308.473 26.2557ZM308.49 23.4432C309.092 23.4432 309.595 23.2727 309.999 22.9318C310.402 22.5852 310.706 22.1136 310.911 21.517C311.121 20.9205 311.226 20.2415 311.226 19.4801C311.226 18.7188 311.121 18.0398 310.911 17.4432C310.706 16.8466 310.402 16.375 309.999 16.0284C309.595 15.6818 309.092 15.5085 308.49 15.5085C307.882 15.5085 307.371 15.6818 306.956 16.0284C306.547 16.375 306.237 16.8466 306.027 17.4432C305.822 18.0398 305.72 18.7188 305.72 19.4801C305.72 20.2415 305.822 20.9205 306.027 21.517C306.237 22.1136 306.547 22.5852 306.956 22.9318C307.371 23.2727 307.882 23.4432 308.49 23.4432ZM80.767 44.7642V41.9091H92.6307V44.7642H88.4119V55H84.9517V44.7642H80.767ZM100.278 55.2557C98.9538 55.2557 97.8089 54.9744 96.843 54.4119C95.8828 53.8437 95.1413 53.054 94.6186 52.0426C94.0959 51.0256 93.8345 49.8466 93.8345 48.5057C93.8345 47.1534 94.0959 45.9716 94.6186 44.9602C95.1413 43.9432 95.8828 43.1534 96.843 42.5909C97.8089 42.0227 98.9538 41.7386 100.278 41.7386C101.602 41.7386 102.744 42.0227 103.704 42.5909C104.67 43.1534 105.414 43.9432 105.937 44.9602C106.46 45.9716 106.721 47.1534 106.721 48.5057C106.721 49.8466 106.46 51.0256 105.937 52.0426C105.414 53.054 104.67 53.8437 103.704 54.4119C102.744 54.9744 101.602 55.2557 100.278 55.2557ZM100.295 52.4432C100.897 52.4432 101.4 52.2727 101.803 51.9318C102.207 51.5852 102.511 51.1136 102.715 50.517C102.925 49.9205 103.031 49.2415 103.031 48.4801C103.031 47.7188 102.925 47.0398 102.715 46.4432C102.511 45.8466 102.207 45.375 101.803 45.0284C101.4 44.6818 100.897 44.5085 100.295 44.5085C99.6868 44.5085 99.1754 44.6818 98.7607 45.0284C98.3516 45.375 98.0419 45.8466 97.8317 46.4432C97.6271 47.0398 97.5249 47.7188 97.5249 48.4801C97.5249 49.2415 97.6271 49.9205 97.8317 50.517C98.0419 51.1136 98.3516 51.5852 98.7607 51.9318C99.1754 52.2727 99.6868 52.4432 100.295 52.4432ZM109.082 55V41.9091H114.664C116.278 41.9091 117.553 42.2159 118.491 42.8295C119.428 43.4432 119.897 44.3153 119.897 45.446C119.897 46.1562 119.633 46.7472 119.104 47.2188C118.576 47.6903 117.843 48.0085 116.906 48.1733C117.69 48.2301 118.357 48.4091 118.908 48.7102C119.465 49.0057 119.888 49.3892 120.178 49.8608C120.474 50.3324 120.621 50.8551 120.621 51.429C120.621 52.1733 120.423 52.8125 120.025 53.3466C119.633 53.8807 119.056 54.2898 118.295 54.5739C117.539 54.858 116.616 55 115.525 55H109.082ZM112.465 52.2812H115.525C116.031 52.2812 116.425 52.1619 116.71 51.9233C116.999 51.679 117.144 51.3466 117.144 50.9261C117.144 50.4602 116.999 50.0937 116.71 49.8267C116.425 49.5597 116.031 49.4261 115.525 49.4261H112.465V52.2812ZM112.465 47.2955H114.741C115.104 47.2955 115.414 47.2443 115.67 47.142C115.931 47.0341 116.13 46.8807 116.266 46.6818C116.408 46.483 116.479 46.2472 116.479 45.9744C116.479 45.571 116.317 45.2557 115.994 45.0284C115.67 44.8011 115.227 44.6875 114.664 44.6875H112.465V47.2955ZM126.643 55.2472C125.808 55.2472 125.063 55.1023 124.41 54.8125C123.756 54.517 123.239 54.0824 122.859 53.5085C122.484 52.929 122.296 52.2074 122.296 51.3438C122.296 50.6165 122.43 50.0057 122.697 49.5114C122.964 49.017 123.327 48.6193 123.788 48.3182C124.248 48.017 124.771 47.7898 125.356 47.6364C125.947 47.483 126.566 47.375 127.214 47.3125C127.975 47.233 128.589 47.1591 129.055 47.0909C129.521 47.017 129.859 46.9091 130.069 46.767C130.279 46.625 130.384 46.4148 130.384 46.1364V46.0852C130.384 45.5455 130.214 45.1278 129.873 44.8324C129.538 44.5369 129.06 44.3892 128.441 44.3892C127.788 44.3892 127.268 44.5341 126.881 44.8239C126.495 45.108 126.239 45.4659 126.114 45.8977L122.756 45.625C122.927 44.8295 123.262 44.142 123.762 43.5625C124.262 42.9773 124.907 42.5284 125.697 42.2159C126.492 41.8977 127.413 41.7386 128.458 41.7386C129.185 41.7386 129.881 41.8239 130.546 41.9943C131.217 42.1648 131.81 42.429 132.327 42.7869C132.85 43.1449 133.262 43.6051 133.563 44.1676C133.864 44.7244 134.015 45.392 134.015 46.1705V55H130.572V53.1847H130.469C130.259 53.5938 129.978 53.9545 129.626 54.267C129.273 54.5739 128.85 54.8153 128.356 54.9915C127.862 55.1619 127.29 55.2472 126.643 55.2472ZM127.683 52.7415C128.217 52.7415 128.688 52.6364 129.097 52.4261C129.506 52.2102 129.827 51.9205 130.06 51.5568C130.293 51.1932 130.41 50.7812 130.41 50.321V48.9318C130.296 49.0057 130.14 49.0739 129.941 49.1364C129.748 49.1932 129.529 49.2472 129.285 49.2983C129.04 49.3437 128.796 49.3864 128.552 49.4261C128.308 49.4602 128.086 49.4915 127.887 49.5199C127.461 49.5824 127.089 49.6818 126.771 49.8182C126.452 49.9545 126.205 50.1392 126.029 50.3722C125.853 50.5994 125.765 50.8835 125.765 51.2244C125.765 51.7188 125.944 52.0966 126.302 52.358C126.665 52.6136 127.126 52.7415 127.683 52.7415ZM136.832 59.9091V41.9091H140.411V44.108H140.573C140.732 43.7557 140.962 43.3977 141.263 43.0341C141.57 42.6648 141.968 42.358 142.457 42.1136C142.951 41.8636 143.565 41.7386 144.298 41.7386C145.252 41.7386 146.133 41.9886 146.94 42.4886C147.746 42.983 148.391 43.7301 148.874 44.7301C149.357 45.7244 149.599 46.9716 149.599 48.4716C149.599 49.9318 149.363 51.1648 148.891 52.1705C148.425 53.1705 147.789 53.929 146.982 54.446C146.181 54.9574 145.283 55.2131 144.289 55.2131C143.585 55.2131 142.985 55.0966 142.491 54.8636C142.002 54.6307 141.602 54.3381 141.289 53.9858C140.977 53.6278 140.738 53.267 140.573 52.9034H140.462V59.9091H136.832ZM140.386 48.4545C140.386 49.233 140.494 49.9119 140.71 50.4915C140.925 51.071 141.238 51.5227 141.647 51.8466C142.056 52.1648 142.553 52.3239 143.138 52.3239C143.729 52.3239 144.229 52.1619 144.638 51.8381C145.048 51.5085 145.357 51.054 145.567 50.4744C145.783 49.8892 145.891 49.2159 145.891 48.4545C145.891 47.6989 145.786 47.0341 145.576 46.4602C145.366 45.8864 145.056 45.4375 144.647 45.1136C144.238 44.7898 143.735 44.6278 143.138 44.6278C142.548 44.6278 142.048 44.7841 141.638 45.0966C141.235 45.4091 140.925 45.8523 140.71 46.4261C140.494 47 140.386 47.6761 140.386 48.4545ZM155.752 55.2472C154.917 55.2472 154.173 55.1023 153.519 54.8125C152.866 54.517 152.349 54.0824 151.968 53.5085C151.593 52.929 151.406 52.2074 151.406 51.3438C151.406 50.6165 151.539 50.0057 151.806 49.5114C152.073 49.017 152.437 48.6193 152.897 48.3182C153.357 48.017 153.88 47.7898 154.465 47.6364C155.056 47.483 155.675 47.375 156.323 47.3125C157.085 47.233 157.698 47.1591 158.164 47.0909C158.63 47.017 158.968 46.9091 159.178 46.767C159.388 46.625 159.494 46.4148 159.494 46.1364V46.0852C159.494 45.5455 159.323 45.1278 158.982 44.8324C158.647 44.5369 158.17 44.3892 157.55 44.3892C156.897 44.3892 156.377 44.5341 155.991 44.8239C155.604 45.108 155.349 45.4659 155.224 45.8977L151.866 45.625C152.036 44.8295 152.371 44.142 152.871 43.5625C153.371 42.9773 154.016 42.5284 154.806 42.2159C155.602 41.8977 156.522 41.7386 157.567 41.7386C158.295 41.7386 158.991 41.8239 159.656 41.9943C160.326 42.1648 160.92 42.429 161.437 42.7869C161.96 43.1449 162.371 43.6051 162.673 44.1676C162.974 44.7244 163.124 45.392 163.124 46.1705V55H159.681V53.1847H159.579C159.369 53.5938 159.087 53.9545 158.735 54.267C158.383 54.5739 157.96 54.8153 157.465 54.9915C156.971 55.1619 156.4 55.2472 155.752 55.2472ZM156.792 52.7415C157.326 52.7415 157.798 52.6364 158.207 52.4261C158.616 52.2102 158.937 51.9205 159.17 51.5568C159.403 51.1932 159.519 50.7812 159.519 50.321V48.9318C159.406 49.0057 159.249 49.0739 159.05 49.1364C158.857 49.1932 158.638 49.2472 158.394 49.2983C158.15 49.3437 157.906 49.3864 157.661 49.4261C157.417 49.4602 157.195 49.4915 156.996 49.5199C156.57 49.5824 156.198 49.6818 155.88 49.8182C155.562 49.9545 155.315 50.1392 155.138 50.3722C154.962 50.5994 154.874 50.8835 154.874 51.2244C154.874 51.7188 155.053 52.0966 155.411 52.358C155.775 52.6136 156.235 52.7415 156.792 52.7415ZM173.68 50.9858L177.225 41.9091H179.987L174.881 55H172.469L167.484 41.9091H170.237L173.68 50.9858ZM169.41 41.9091V55H165.941V41.9091H169.41ZM178.129 55V41.9091H181.555V55H178.129ZM193.386 50.2102L198.099 41.9091H201.679V55H198.219V46.6733L193.523 55H189.918V41.9091H193.386V50.2102ZM221.028 37.1023L222.136 39.4716C221.766 39.7784 221.357 40.0057 220.908 40.1534C220.46 40.2955 219.923 40.3892 219.298 40.4347C218.678 40.4801 217.923 40.5114 217.031 40.5284C216.019 40.5398 215.195 40.7017 214.559 41.0142C213.923 41.3267 213.44 41.8182 213.11 42.4886C212.781 43.1534 212.565 44.0227 212.462 45.0966H212.59C212.982 44.2955 213.533 43.6761 214.244 43.2386C214.96 42.8011 215.843 42.5824 216.894 42.5824C218.008 42.5824 218.982 42.8267 219.817 43.3153C220.658 43.804 221.312 44.5057 221.778 45.4205C222.244 46.3352 222.477 47.4318 222.477 48.7102C222.477 50.0398 222.215 51.196 221.692 52.179C221.175 53.1562 220.44 53.9148 219.485 54.4545C218.531 54.9886 217.394 55.2557 216.076 55.2557C214.752 55.2557 213.61 54.9773 212.65 54.4205C211.695 53.8636 210.957 53.0426 210.434 51.9574C209.917 50.8722 209.658 49.5369 209.658 47.9517V46.8778C209.658 43.7244 210.272 41.3864 211.499 39.8636C212.727 38.3409 214.531 37.5682 216.911 37.5455C217.559 37.5341 218.144 37.5312 218.667 37.5369C219.19 37.5426 219.647 37.517 220.039 37.4602C220.437 37.4034 220.766 37.2841 221.028 37.1023ZM216.093 52.4432C216.65 52.4432 217.127 52.2983 217.525 52.0085C217.928 51.7187 218.238 51.304 218.454 50.7642C218.675 50.2244 218.786 49.5795 218.786 48.8295C218.786 48.0852 218.675 47.4545 218.454 46.9375C218.238 46.4148 217.928 46.017 217.525 45.7443C217.121 45.4716 216.638 45.3352 216.076 45.3352C215.656 45.3352 215.278 45.4119 214.942 45.5653C214.607 45.7187 214.32 45.946 214.082 46.2472C213.849 46.5426 213.667 46.9091 213.536 47.3466C213.411 47.7784 213.349 48.2727 213.349 48.8295C213.349 49.9489 213.59 50.8324 214.073 51.4801C214.562 52.1222 215.235 52.4432 216.093 52.4432ZM224.886 59.9091V41.9091H228.466V44.108H228.628C228.787 43.7557 229.017 43.3977 229.318 43.0341C229.625 42.6648 230.023 42.358 230.511 42.1136C231.006 41.8636 231.619 41.7386 232.352 41.7386C233.307 41.7386 234.188 41.9886 234.994 42.4886C235.801 42.983 236.446 43.7301 236.929 44.7301C237.412 45.7244 237.653 46.9716 237.653 48.4716C237.653 49.9318 237.418 51.1648 236.946 52.1705C236.48 53.1705 235.844 53.929 235.037 54.446C234.236 54.9574 233.338 55.2131 232.344 55.2131C231.639 55.2131 231.04 55.0966 230.545 54.8636C230.057 54.6307 229.656 54.3381 229.344 53.9858C229.031 53.6278 228.793 53.267 228.628 52.9034H228.517V59.9091H224.886ZM228.44 48.4545C228.44 49.233 228.548 49.9119 228.764 50.4915C228.98 51.071 229.293 51.5227 229.702 51.8466C230.111 52.1648 230.608 52.3239 231.193 52.3239C231.784 52.3239 232.284 52.1619 232.693 51.8381C233.102 51.5085 233.412 51.054 233.622 50.4744C233.838 49.8892 233.946 49.2159 233.946 48.4545C233.946 47.6989 233.841 47.0341 233.631 46.4602C233.42 45.8864 233.111 45.4375 232.702 45.1136C232.293 44.7898 231.79 44.6278 231.193 44.6278C230.602 44.6278 230.102 44.7841 229.693 45.0966C229.29 45.4091 228.98 45.8523 228.764 46.4261C228.548 47 228.44 47.6761 228.44 48.4545ZM246.04 55.2557C244.693 55.2557 243.534 54.983 242.562 54.4375C241.597 53.8864 240.852 53.108 240.33 52.1023C239.807 51.0909 239.545 49.8949 239.545 48.5142C239.545 47.1676 239.807 45.9858 240.33 44.9688C240.852 43.9517 241.588 43.1591 242.537 42.5909C243.491 42.0227 244.611 41.7386 245.895 41.7386C246.759 41.7386 247.563 41.8778 248.307 42.1562C249.057 42.429 249.71 42.8409 250.267 43.392C250.83 43.9432 251.267 44.6364 251.58 45.4716C251.892 46.3011 252.048 47.2727 252.048 48.3864V49.3835H240.994V47.1335H248.631C248.631 46.6108 248.517 46.1477 248.29 45.7443C248.063 45.3409 247.747 45.0256 247.344 44.7983C246.946 44.5653 246.483 44.4489 245.955 44.4489C245.403 44.4489 244.915 44.5767 244.489 44.8324C244.068 45.0824 243.739 45.4205 243.5 45.8466C243.261 46.267 243.139 46.7358 243.134 47.2528V49.392C243.134 50.0398 243.253 50.5994 243.491 51.071C243.736 51.5426 244.08 51.9062 244.523 52.1619C244.966 52.4176 245.491 52.5455 246.099 52.5455C246.503 52.5455 246.872 52.4886 247.207 52.375C247.543 52.2614 247.83 52.0909 248.068 51.8636C248.307 51.6364 248.489 51.358 248.614 51.0284L251.972 51.25C251.801 52.0568 251.452 52.7614 250.923 53.3636C250.401 53.9602 249.724 54.4261 248.895 54.7614C248.071 55.0909 247.119 55.2557 246.04 55.2557ZM263.528 47.0057V49.8608H256.693V47.0057H263.528ZM257.886 41.9091V55H254.418V41.9091H257.886ZM265.804 41.9091V55H262.361V41.9091H265.804ZM267.598 58.8352V52.1193H268.604C268.893 51.9375 269.126 51.6477 269.303 51.25C269.484 50.8523 269.632 50.3835 269.746 49.8438C269.865 49.304 269.956 48.7216 270.018 48.0966C270.087 47.4659 270.146 46.8295 270.197 46.1875L270.538 41.9091H280.578V52.1193H282.607V58.8352H279.146V55H271.143V58.8352H267.598ZM272.217 52.1193H277.152V44.7045H273.624L273.487 46.1875C273.391 47.5852 273.251 48.7727 273.07 49.75C272.888 50.7216 272.604 51.5114 272.217 52.1193ZM288.455 55.2472C287.62 55.2472 286.876 55.1023 286.222 54.8125C285.569 54.517 285.052 54.0824 284.671 53.5085C284.296 52.929 284.109 52.2074 284.109 51.3438C284.109 50.6165 284.242 50.0057 284.509 49.5114C284.776 49.017 285.14 48.6193 285.6 48.3182C286.06 48.017 286.583 47.7898 287.168 47.6364C287.759 47.483 288.379 47.375 289.026 47.3125C289.788 47.233 290.401 47.1591 290.867 47.0909C291.333 47.017 291.671 46.9091 291.881 46.767C292.092 46.625 292.197 46.4148 292.197 46.1364V46.0852C292.197 45.5455 292.026 45.1278 291.685 44.8324C291.35 44.5369 290.873 44.3892 290.254 44.3892C289.6 44.3892 289.08 44.5341 288.694 44.8239C288.308 45.108 288.052 45.4659 287.927 45.8977L284.569 45.625C284.739 44.8295 285.075 44.142 285.575 43.5625C286.075 42.9773 286.719 42.5284 287.509 42.2159C288.305 41.8977 289.225 41.7386 290.271 41.7386C290.998 41.7386 291.694 41.8239 292.359 41.9943C293.029 42.1648 293.623 42.429 294.14 42.7869C294.663 43.1449 295.075 43.6051 295.376 44.1676C295.677 44.7244 295.827 45.392 295.827 46.1705V55H292.384V53.1847H292.282C292.072 53.5938 291.79 53.9545 291.438 54.267C291.086 54.5739 290.663 54.8153 290.168 54.9915C289.674 55.1619 289.103 55.2472 288.455 55.2472ZM289.495 52.7415C290.029 52.7415 290.501 52.6364 290.91 52.4261C291.319 52.2102 291.64 51.9205 291.873 51.5568C292.106 51.1932 292.222 50.7812 292.222 50.321V48.9318C292.109 49.0057 291.952 49.0739 291.754 49.1364C291.56 49.1932 291.342 49.2472 291.097 49.2983C290.853 49.3437 290.609 49.3864 290.364 49.4261C290.12 49.4602 289.898 49.4915 289.7 49.5199C289.273 49.5824 288.901 49.6818 288.583 49.8182C288.265 49.9545 288.018 50.1392 287.842 50.3722C287.665 50.5994 287.577 50.8835 287.577 51.2244C287.577 51.7188 287.756 52.0966 288.114 52.358C288.478 52.6136 288.938 52.7415 289.495 52.7415ZM306.383 50.9858L309.928 41.9091H312.69L307.585 55H305.173L300.187 41.9091H302.94L306.383 50.9858ZM302.113 41.9091V55H298.644V41.9091H302.113ZM310.832 55V41.9091H314.258V55H310.832Z" fill="black"/>
<g clip-path="url(#clip0_3725_1238)">
<path d="M31.9994 0C14.3267 0 0 14.3267 0 31.9994C0 49.6722 14.3267 63.9989 31.9994 63.9989C49.6722 63.9989 63.9989 49.6722 63.9989 31.9994C63.9989 14.3267 49.6733 0 31.9994 0ZM21.8315 50.6317C19.2114 50.6351 16.5913 50.6351 13.9722 50.6317C13.0567 50.6306 12.5058 50.0741 12.5047 49.1506C12.5013 46.9346 12.5047 44.7186 12.5047 42.5026C12.5047 40.3001 12.5036 38.0988 12.5047 35.8964C12.5047 34.9086 13.0353 34.3724 14.014 34.3724C16.6195 34.3701 19.2261 34.3701 21.8315 34.3724C22.7764 34.3724 23.3206 34.921 23.3217 35.8738C23.3239 40.2922 23.3239 44.7096 23.3217 49.128C23.3217 50.0797 22.7753 50.6306 21.8327 50.6317H21.8315ZM35.2698 50.6317C32.7061 50.6317 30.1424 50.6328 27.5787 50.6317C26.5503 50.6317 26.0265 50.1011 26.0265 49.0648C26.0265 43.2488 26.0265 37.4339 26.0265 31.6179C26.0265 25.8583 26.0265 20.0998 26.0265 14.3403C26.0265 13.1764 26.5097 12.6887 27.6634 12.6887C30.1989 12.6887 32.7343 12.6887 35.2698 12.6887C36.3298 12.6887 36.8446 13.2069 36.8446 14.2759C36.8446 25.8651 36.8446 37.4542 36.8446 49.0434C36.8446 50.109 36.3265 50.6317 35.271 50.6328L35.2698 50.6317ZM50.3664 49.1168C50.3664 50.0899 49.8212 50.6306 48.8458 50.6317C46.2539 50.634 43.662 50.634 41.0712 50.6317C40.0913 50.6317 39.5506 50.0932 39.5506 49.1179C39.5494 45.1092 39.5506 41.1005 39.5506 37.0918C39.5506 33.1114 39.5506 29.1309 39.5506 25.1505C39.5506 24.0227 40.045 23.5305 41.1773 23.5305C43.7263 23.5305 46.2765 23.5305 48.8255 23.5305C49.8336 23.5305 50.3676 24.0611 50.3687 25.0647C50.3687 33.082 50.3698 41.1005 50.3687 49.1179L50.3664 49.1168Z" fill="#357EFE"/>
</g>
<path d="M556.526 26H552.571L558.597 8.54545H563.352L569.369 26H565.415L561.043 12.5341H560.906L556.526 26ZM556.278 19.1392H565.619V22.0199H556.278V19.1392ZM571.402 26V12.9091H576.984C578.598 12.9091 579.874 13.2159 580.811 13.8295C581.749 14.4432 582.217 15.3153 582.217 16.446C582.217 17.1562 581.953 17.7472 581.425 18.2188C580.896 18.6903 580.163 19.0085 579.226 19.1733C580.01 19.2301 580.678 19.4091 581.229 19.7102C581.786 20.0057 582.209 20.3892 582.499 20.8608C582.794 21.3324 582.942 21.8551 582.942 22.429C582.942 23.1733 582.743 23.8125 582.345 24.3466C581.953 24.8807 581.376 25.2898 580.615 25.5739C579.859 25.858 578.936 26 577.845 26H571.402ZM574.786 23.2812H577.845C578.351 23.2812 578.746 23.1619 579.03 22.9233C579.32 22.679 579.464 22.3466 579.464 21.9261C579.464 21.4602 579.32 21.0937 579.03 20.8267C578.746 20.5597 578.351 20.4261 577.845 20.4261H574.786V23.2812ZM574.786 18.2955H577.061C577.425 18.2955 577.734 18.2443 577.99 18.142C578.251 18.0341 578.45 17.8807 578.587 17.6818C578.729 17.483 578.8 17.2472 578.8 16.9744C578.8 16.571 578.638 16.2557 578.314 16.0284C577.99 15.8011 577.547 15.6875 576.984 15.6875H574.786V18.2955ZM584.548 15.7642V12.9091H596.412V15.7642H592.193V26H588.733V15.7642H584.548ZM604.059 26.2557C602.735 26.2557 601.59 25.9744 600.624 25.4119C599.664 24.8437 598.923 24.054 598.4 23.0426C597.877 22.0256 597.616 20.8466 597.616 19.5057C597.616 18.1534 597.877 16.9716 598.4 15.9602C598.923 14.9432 599.664 14.1534 600.624 13.5909C601.59 13.0227 602.735 12.7386 604.059 12.7386C605.383 12.7386 606.525 13.0227 607.485 13.5909C608.451 14.1534 609.195 14.9432 609.718 15.9602C610.241 16.9716 610.502 18.1534 610.502 19.5057C610.502 20.8466 610.241 22.0256 609.718 23.0426C609.195 24.054 608.451 24.8437 607.485 25.4119C606.525 25.9744 605.383 26.2557 604.059 26.2557ZM604.076 23.4432C604.678 23.4432 605.181 23.2727 605.585 22.9318C605.988 22.5852 606.292 22.1136 606.496 21.517C606.707 20.9205 606.812 20.2415 606.812 19.4801C606.812 18.7188 606.707 18.0398 606.496 17.4432C606.292 16.8466 605.988 16.375 605.585 16.0284C605.181 15.6818 604.678 15.5085 604.076 15.5085C603.468 15.5085 602.957 15.6818 602.542 16.0284C602.133 16.375 601.823 16.8466 601.613 17.4432C601.408 18.0398 601.306 18.7188 601.306 19.4801C601.306 20.2415 601.408 20.9205 601.613 21.517C601.823 22.1136 602.133 22.5852 602.542 22.9318C602.957 23.2727 603.468 23.4432 604.076 23.4432ZM620.602 21.9858L624.147 12.9091H626.908L621.803 26H619.391L614.406 12.9091H617.158L620.602 21.9858ZM616.332 12.9091V26H612.863V12.9091H616.332ZM625.05 26V12.9091H628.477V26H625.05ZM635.018 26.2472C634.183 26.2472 633.438 26.1023 632.785 25.8125C632.131 25.517 631.614 25.0824 631.234 24.5085C630.859 23.929 630.671 23.2074 630.671 22.3438C630.671 21.6165 630.805 21.0057 631.072 20.5114C631.339 20.017 631.702 19.6193 632.163 19.3182C632.623 19.017 633.146 18.7898 633.731 18.6364C634.322 18.483 634.941 18.375 635.589 18.3125C636.35 18.233 636.964 18.1591 637.43 18.0909C637.896 18.017 638.234 17.9091 638.444 17.767C638.654 17.625 638.759 17.4148 638.759 17.1364V17.0852C638.759 16.5455 638.589 16.1278 638.248 15.8324C637.913 15.5369 637.435 15.3892 636.816 15.3892C636.163 15.3892 635.643 15.5341 635.256 15.8239C634.87 16.108 634.614 16.4659 634.489 16.8977L631.131 16.625C631.302 15.8295 631.637 15.142 632.137 14.5625C632.637 13.9773 633.282 13.5284 634.072 13.2159C634.867 12.8977 635.788 12.7386 636.833 12.7386C637.56 12.7386 638.256 12.8239 638.921 12.9943C639.592 13.1648 640.185 13.429 640.702 13.7869C641.225 14.1449 641.637 14.6051 641.938 15.1676C642.239 15.7244 642.39 16.392 642.39 17.1705V26H638.947V24.1847H638.844C638.634 24.5938 638.353 24.9545 638.001 25.267C637.648 25.5739 637.225 25.8153 636.731 25.9915C636.237 26.1619 635.665 26.2472 635.018 26.2472ZM636.058 23.7415C636.592 23.7415 637.063 23.6364 637.472 23.4261C637.881 23.2102 638.202 22.9205 638.435 22.5568C638.668 22.1932 638.785 21.7812 638.785 21.321V19.9318C638.671 20.0057 638.515 20.0739 638.316 20.1364C638.123 20.1932 637.904 20.2472 637.66 20.2983C637.415 20.3437 637.171 20.3864 636.927 20.4261C636.683 20.4602 636.461 20.4915 636.262 20.5199C635.836 20.5824 635.464 20.6818 635.146 20.8182C634.827 20.9545 634.58 21.1392 634.404 21.3722C634.228 21.5994 634.14 21.8835 634.14 22.2244C634.14 22.7188 634.319 23.0966 634.677 23.358C635.04 23.6136 635.501 23.7415 636.058 23.7415ZM643.892 15.7642V12.9091H655.756V15.7642H651.537V26H648.077V15.7642H643.892ZM661.425 21.2102L666.138 12.9091H669.718V26H666.258V17.6733L661.562 26H657.957V12.9091H661.425V21.2102ZM683.989 12.9091V26H680.546V12.9091H683.989ZM682.31 18.6534V21.517C682.032 21.642 681.685 21.7614 681.271 21.875C680.856 21.983 680.421 22.071 679.967 22.1392C679.512 22.2074 679.086 22.2415 678.688 22.2415C676.808 22.2415 675.327 21.8551 674.248 21.0824C673.168 20.304 672.629 19.0625 672.629 17.358V12.892H676.055V17.358C676.055 17.8636 676.14 18.2642 676.31 18.5597C676.487 18.8551 676.765 19.0682 677.146 19.1989C677.532 19.3239 678.046 19.3864 678.688 19.3864C679.285 19.3864 679.87 19.3239 680.444 19.1989C681.018 19.0739 681.64 18.892 682.31 18.6534ZM692.774 26.2557C691.428 26.2557 690.268 25.983 689.297 25.4375C688.331 24.8864 687.587 24.108 687.064 23.1023C686.541 22.0909 686.28 20.8949 686.28 19.5142C686.28 18.1676 686.541 16.9858 687.064 15.9688C687.587 14.9517 688.322 14.1591 689.271 13.5909C690.226 13.0227 691.345 12.7386 692.629 12.7386C693.493 12.7386 694.297 12.8778 695.041 13.1562C695.791 13.429 696.445 13.8409 697.001 14.392C697.564 14.9432 698.001 15.6364 698.314 16.4716C698.626 17.3011 698.783 18.2727 698.783 19.3864V20.3835H687.729V18.1335H695.365C695.365 17.6108 695.251 17.1477 695.024 16.7443C694.797 16.3409 694.482 16.0256 694.078 15.7983C693.68 15.5653 693.217 15.4489 692.689 15.4489C692.138 15.4489 691.649 15.5767 691.223 15.8324C690.803 16.0824 690.473 16.4205 690.234 16.8466C689.996 17.267 689.874 17.7358 689.868 18.2528V20.392C689.868 21.0398 689.987 21.5994 690.226 22.071C690.47 22.5426 690.814 22.9062 691.257 23.1619C691.7 23.4176 692.226 23.5455 692.834 23.5455C693.237 23.5455 693.607 23.4886 693.942 23.375C694.277 23.2614 694.564 23.0909 694.803 22.8636C695.041 22.6364 695.223 22.358 695.348 22.0284L698.706 22.25C698.536 23.0568 698.186 23.7614 697.658 24.3636C697.135 24.9602 696.459 25.4261 695.629 25.7614C694.805 26.0909 693.854 26.2557 692.774 26.2557ZM707.067 26.2557C705.726 26.2557 704.572 25.9716 703.607 25.4034C702.646 24.8295 701.908 24.0341 701.391 23.017C700.879 22 700.624 20.8295 700.624 19.5057C700.624 18.1648 700.882 16.9886 701.399 15.9773C701.922 14.9602 702.663 14.1676 703.624 13.5994C704.584 13.0256 705.726 12.7386 707.05 12.7386C708.192 12.7386 709.192 12.946 710.05 13.3608C710.908 13.7756 711.587 14.358 712.087 15.108C712.587 15.858 712.862 16.7386 712.913 17.75H709.487C709.391 17.0966 709.135 16.571 708.72 16.1733C708.311 15.7699 707.774 15.5682 707.109 15.5682C706.547 15.5682 706.055 15.7216 705.635 16.0284C705.22 16.3295 704.896 16.7699 704.663 17.3494C704.43 17.929 704.314 18.6307 704.314 19.4545C704.314 20.2898 704.428 21 704.655 21.5852C704.888 22.1705 705.214 22.6165 705.635 22.9233C706.055 23.2301 706.547 23.3835 707.109 23.3835C707.524 23.3835 707.896 23.2983 708.226 23.1278C708.561 22.9574 708.837 22.7102 709.053 22.3864C709.274 22.0568 709.419 21.6619 709.487 21.2017H712.913C712.857 22.2017 712.584 23.0824 712.095 23.8438C711.612 24.5994 710.945 25.1903 710.092 25.6165C709.24 26.0426 708.232 26.2557 707.067 26.2557ZM715.238 26V12.9091H718.869V17.9886H719.891L723.454 12.9091H727.715L723.087 19.4034L727.766 26H723.454L720.224 21.3551H718.869V26H715.238ZM732.769 21.2102L737.482 12.9091H741.062V26H737.602V17.6733L732.906 26H729.3V12.9091H732.769V21.2102ZM747.441 21.2102L752.154 12.9091H755.734V26H752.273V17.6733L747.577 26H743.972V12.9091H747.441V21.2102ZM751.532 8.34091H754.063C754.058 9.375 753.674 10.2074 752.913 10.8381C752.157 11.4687 751.134 11.7841 749.844 11.7841C748.549 11.7841 747.523 11.4687 746.768 10.8381C746.012 10.2074 745.634 9.375 745.634 8.34091H748.148C748.143 8.73295 748.268 9.08523 748.523 9.39773C748.785 9.71023 749.225 9.86648 749.844 9.86648C750.447 9.86648 750.879 9.71307 751.14 9.40625C751.401 9.09943 751.532 8.74432 751.532 8.34091ZM766.44 30.9091C765.98 30.9091 765.548 30.8722 765.145 30.7983C764.747 30.7301 764.418 30.642 764.156 30.5341L764.974 27.8239C765.401 27.9545 765.784 28.0256 766.125 28.0369C766.472 28.0483 766.77 27.9688 767.02 27.7983C767.276 27.6278 767.483 27.3381 767.642 26.929L767.855 26.375L763.159 12.9091H766.977L769.688 22.5227H769.824L772.56 12.9091H776.403L771.315 27.4148C771.071 28.1193 770.739 28.733 770.318 29.2557C769.903 29.7841 769.378 30.1903 768.741 30.4744C768.105 30.7642 767.338 30.9091 766.44 30.9091ZM789.271 12.9091V26H785.827V12.9091H789.271ZM787.592 18.6534V21.517C787.313 21.642 786.967 21.7614 786.552 21.875C786.137 21.983 785.702 22.071 785.248 22.1392C784.793 22.2074 784.367 22.2415 783.969 22.2415C782.089 22.2415 780.609 21.8551 779.529 21.0824C778.45 20.304 777.91 19.0625 777.91 17.358V12.892H781.336V17.358C781.336 17.8636 781.421 18.2642 781.592 18.5597C781.768 18.8551 782.046 19.0682 782.427 19.1989C782.813 19.3239 783.327 19.3864 783.969 19.3864C784.566 19.3864 785.151 19.3239 785.725 19.1989C786.299 19.0739 786.921 18.892 787.592 18.6534ZM798.055 26.2557C796.709 26.2557 795.55 25.983 794.578 25.4375C793.612 24.8864 792.868 24.108 792.345 23.1023C791.822 22.0909 791.561 20.8949 791.561 19.5142C791.561 18.1676 791.822 16.9858 792.345 15.9688C792.868 14.9517 793.604 14.1591 794.553 13.5909C795.507 13.0227 796.626 12.7386 797.911 12.7386C798.774 12.7386 799.578 12.8778 800.322 13.1562C801.072 13.429 801.726 13.8409 802.283 14.392C802.845 14.9432 803.283 15.6364 803.595 16.4716C803.908 17.3011 804.064 18.2727 804.064 19.3864V20.3835H793.01V18.1335H800.646C800.646 17.6108 800.533 17.1477 800.305 16.7443C800.078 16.3409 799.763 16.0256 799.359 15.7983C798.962 15.5653 798.499 15.4489 797.97 15.4489C797.419 15.4489 796.93 15.5767 796.504 15.8324C796.084 16.0824 795.754 16.4205 795.516 16.8466C795.277 17.267 795.155 17.7358 795.149 18.2528V20.392C795.149 21.0398 795.268 21.5994 795.507 22.071C795.751 22.5426 796.095 22.9062 796.538 23.1619C796.982 23.4176 797.507 23.5455 798.115 23.5455C798.518 23.5455 798.888 23.4886 799.223 23.375C799.558 23.2614 799.845 23.0909 800.084 22.8636C800.322 22.6364 800.504 22.358 800.629 22.0284L803.987 22.25C803.817 23.0568 803.467 23.7614 802.939 24.3636C802.416 24.9602 801.74 25.4261 800.911 25.7614C800.087 26.0909 799.135 26.2557 798.055 26.2557ZM795.226 11.1193C794.737 11.1193 794.317 10.9489 793.964 10.608C793.612 10.2614 793.436 9.85227 793.436 9.38068C793.436 8.89773 793.612 8.48864 793.964 8.15341C794.317 7.81818 794.737 7.65057 795.226 7.65057C795.72 7.65057 796.138 7.81818 796.479 8.15341C796.825 8.48864 796.999 8.89773 796.999 9.38068C796.999 9.85227 796.825 10.2614 796.479 10.608C796.138 10.9489 795.72 11.1193 795.226 11.1193ZM800.442 11.1193C799.953 11.1193 799.533 10.9489 799.18 10.608C798.828 10.2614 798.652 9.85227 798.652 9.38068C798.652 8.89773 798.828 8.48864 799.18 8.15341C799.533 7.81818 799.953 7.65057 800.442 7.65057C800.936 7.65057 801.354 7.81818 801.695 8.15341C802.041 8.48864 802.214 8.89773 802.214 9.38068C802.214 9.85227 802.041 10.2614 801.695 10.608C801.354 10.9489 800.936 11.1193 800.442 11.1193ZM805.423 15.7642V12.9091H817.287V15.7642H813.068V26H809.608V15.7642H805.423ZM552.426 58.8352V52.1193H553.432C553.722 51.9375 553.955 51.6477 554.131 51.25C554.313 50.8523 554.46 50.3835 554.574 49.8438C554.693 49.304 554.784 48.7216 554.847 48.0966C554.915 47.4659 554.974 46.8295 555.026 46.1875L555.366 41.9091H565.406V52.1193H567.435V58.8352H563.974V55H555.972V58.8352H552.426ZM557.045 52.1193H561.98V44.7045H558.452L558.315 46.1875C558.219 47.5852 558.08 48.7727 557.898 49.75C557.716 50.7216 557.432 51.5114 557.045 52.1193ZM575.465 55.2557C574.141 55.2557 572.996 54.9744 572.031 54.4119C571.07 53.8437 570.329 53.054 569.806 52.0426C569.283 51.0256 569.022 49.8466 569.022 48.5057C569.022 47.1534 569.283 45.9716 569.806 44.9602C570.329 43.9432 571.07 43.1534 572.031 42.5909C572.996 42.0227 574.141 41.7386 575.465 41.7386C576.789 41.7386 577.931 42.0227 578.891 42.5909C579.857 43.1534 580.602 43.9432 581.124 44.9602C581.647 45.9716 581.908 47.1534 581.908 48.5057C581.908 49.8466 581.647 51.0256 581.124 52.0426C580.602 53.054 579.857 53.8437 578.891 54.4119C577.931 54.9744 576.789 55.2557 575.465 55.2557ZM575.482 52.4432C576.085 52.4432 576.587 52.2727 576.991 51.9318C577.394 51.5852 577.698 51.1136 577.903 50.517C578.113 49.9205 578.218 49.2415 578.218 48.4801C578.218 47.7188 578.113 47.0398 577.903 46.4432C577.698 45.8466 577.394 45.375 576.991 45.0284C576.587 44.6818 576.085 44.5085 575.482 44.5085C574.874 44.5085 574.363 44.6818 573.948 45.0284C573.539 45.375 573.229 45.8466 573.019 46.4432C572.815 47.0398 572.712 47.7188 572.712 48.4801C572.712 49.2415 572.815 49.9205 573.019 50.517C573.229 51.1136 573.539 51.5852 573.948 51.9318C574.363 52.2727 574.874 52.4432 575.482 52.4432ZM586.835 41.9091L589.238 46.4858L591.701 41.9091H595.425L591.633 48.4545L595.528 55H591.82L589.238 50.4744L586.698 55H582.948L586.835 48.4545L583.085 41.9091H586.835ZM603.028 55.2557C601.704 55.2557 600.559 54.9744 599.593 54.4119C598.633 53.8437 597.891 53.054 597.369 52.0426C596.846 51.0256 596.585 49.8466 596.585 48.5057C596.585 47.1534 596.846 45.9716 597.369 44.9602C597.891 43.9432 598.633 43.1534 599.593 42.5909C600.559 42.0227 601.704 41.7386 603.028 41.7386C604.352 41.7386 605.494 42.0227 606.454 42.5909C607.42 43.1534 608.164 43.9432 608.687 44.9602C609.21 45.9716 609.471 47.1534 609.471 48.5057C609.471 49.8466 609.21 51.0256 608.687 52.0426C608.164 53.054 607.42 53.8437 606.454 54.4119C605.494 54.9744 604.352 55.2557 603.028 55.2557ZM603.045 52.4432C603.647 52.4432 604.15 52.2727 604.553 51.9318C604.957 51.5852 605.261 51.1136 605.465 50.517C605.675 49.9205 605.781 49.2415 605.781 48.4801C605.781 47.7188 605.675 47.0398 605.465 46.4432C605.261 45.8466 604.957 45.375 604.553 45.0284C604.15 44.6818 603.647 44.5085 603.045 44.5085C602.437 44.5085 601.925 44.6818 601.511 45.0284C601.102 45.375 600.792 45.8466 600.582 46.4432C600.377 47.0398 600.275 47.7188 600.275 48.4801C600.275 49.2415 600.377 49.9205 600.582 50.517C600.792 51.1136 601.102 51.5852 601.511 51.9318C601.925 52.2727 602.437 52.4432 603.045 52.4432ZM610.809 58.8352V52.1193H611.815C612.104 51.9375 612.337 51.6477 612.513 51.25C612.695 50.8523 612.843 50.3835 612.957 49.8438C613.076 49.304 613.167 48.7216 613.229 48.0966C613.298 47.4659 613.357 46.8295 613.408 46.1875L613.749 41.9091H623.789V52.1193H625.817V58.8352H622.357V55H614.354V58.8352H610.809ZM615.428 52.1193H620.363V44.7045H616.835L616.698 46.1875C616.602 47.5852 616.462 48.7727 616.281 49.75C616.099 50.7216 615.815 51.5114 615.428 52.1193ZM633.848 55.2557C632.524 55.2557 631.379 54.9744 630.413 54.4119C629.453 53.8437 628.712 53.054 628.189 52.0426C627.666 51.0256 627.405 49.8466 627.405 48.5057C627.405 47.1534 627.666 45.9716 628.189 44.9602C628.712 43.9432 629.453 43.1534 630.413 42.5909C631.379 42.0227 632.524 41.7386 633.848 41.7386C635.172 41.7386 636.314 42.0227 637.274 42.5909C638.24 43.1534 638.984 43.9432 639.507 44.9602C640.03 45.9716 640.291 47.1534 640.291 48.5057C640.291 49.8466 640.03 51.0256 639.507 52.0426C638.984 53.054 638.24 53.8437 637.274 54.4119C636.314 54.9744 635.172 55.2557 633.848 55.2557ZM633.865 52.4432C634.467 52.4432 634.97 52.2727 635.374 51.9318C635.777 51.5852 636.081 51.1136 636.286 50.517C636.496 49.9205 636.601 49.2415 636.601 48.4801C636.601 47.7188 636.496 47.0398 636.286 46.4432C636.081 45.8466 635.777 45.375 635.374 45.0284C634.97 44.6818 634.467 44.5085 633.865 44.5085C633.257 44.5085 632.746 44.6818 632.331 45.0284C631.922 45.375 631.612 45.8466 631.402 46.4432C631.197 47.0398 631.095 47.7188 631.095 48.4801C631.095 49.2415 631.197 49.9205 631.402 50.517C631.612 51.1136 631.922 51.5852 632.331 51.9318C632.746 52.2727 633.257 52.4432 633.865 52.4432ZM642.652 55V41.9091H648.234C649.848 41.9091 651.124 42.2159 652.061 42.8295C652.999 43.4432 653.467 44.3153 653.467 45.446C653.467 46.1562 653.203 46.7472 652.675 47.2188C652.146 47.6903 651.413 48.0085 650.476 48.1733C651.26 48.2301 651.928 48.4091 652.479 48.7102C653.036 49.0057 653.459 49.3892 653.749 49.8608C654.044 50.3324 654.192 50.8551 654.192 51.429C654.192 52.1733 653.993 52.8125 653.595 53.3466C653.203 53.8807 652.626 54.2898 651.865 54.5739C651.109 54.858 650.186 55 649.095 55H642.652ZM646.036 52.2812H649.095C649.601 52.2812 649.996 52.1619 650.28 51.9233C650.57 51.679 650.714 51.3466 650.714 50.9261C650.714 50.4602 650.57 50.0937 650.28 49.8267C649.996 49.5597 649.601 49.4261 649.095 49.4261H646.036V52.2812ZM646.036 47.2955H648.311C648.675 47.2955 648.984 47.2443 649.24 47.142C649.501 47.0341 649.7 46.8807 649.837 46.6818C649.979 46.483 650.05 46.2472 650.05 45.9744C650.05 45.571 649.888 45.2557 649.564 45.0284C649.24 44.8011 648.797 44.6875 648.234 44.6875H646.036V47.2955ZM666.032 55L661.038 37.5455H665.069L667.958 49.6733H668.103L671.29 37.5455H674.742L677.921 49.6989H678.075L680.964 37.5455H684.995L680.001 55H676.404L673.08 43.5881H672.944L669.629 55H666.032ZM686.902 55V41.9091H690.533V55H686.902ZM688.726 40.2216C688.186 40.2216 687.723 40.0426 687.337 39.6847C686.956 39.321 686.766 38.8864 686.766 38.3807C686.766 37.8807 686.956 37.4517 687.337 37.0938C687.723 36.7301 688.186 36.5483 688.726 36.5483C689.266 36.5483 689.726 36.7301 690.107 37.0938C690.493 37.4517 690.686 37.8807 690.686 38.3807C690.686 38.8864 690.493 39.321 690.107 39.6847C689.726 40.0426 689.266 40.2216 688.726 40.2216ZM697.072 37.5455V55H693.441V37.5455H697.072ZM704.804 55.2131C703.81 55.2131 702.909 54.9574 702.102 54.446C701.301 53.929 700.665 53.1705 700.193 52.1705C699.727 51.1648 699.494 49.9318 699.494 48.4716C699.494 46.9716 699.736 45.7244 700.219 44.7301C700.702 43.7301 701.344 42.983 702.145 42.4886C702.952 41.9886 703.835 41.7386 704.795 41.7386C705.528 41.7386 706.139 41.8636 706.628 42.1136C707.122 42.358 707.52 42.6648 707.821 43.0341C708.128 43.3977 708.361 43.7557 708.52 44.108H708.631V37.5455H712.253V55H708.673V52.9034H708.52C708.349 53.267 708.108 53.6278 707.795 53.9858C707.489 54.3381 707.088 54.6307 706.594 54.8636C706.105 55.0966 705.509 55.2131 704.804 55.2131ZM705.955 52.3239C706.54 52.3239 707.034 52.1648 707.438 51.8466C707.847 51.5227 708.159 51.071 708.375 50.4915C708.597 49.9119 708.707 49.233 708.707 48.4545C708.707 47.6761 708.599 47 708.384 46.4261C708.168 45.8523 707.855 45.4091 707.446 45.0966C707.037 44.7841 706.54 44.6278 705.955 44.6278C705.358 44.6278 704.855 44.7898 704.446 45.1136C704.037 45.4375 703.727 45.8864 703.517 46.4602C703.307 47.0341 703.202 47.6989 703.202 48.4545C703.202 49.2159 703.307 49.8892 703.517 50.4744C703.733 51.054 704.043 51.5085 704.446 51.8381C704.855 52.1619 705.358 52.3239 705.955 52.3239ZM715.306 55V37.5455H718.937V44.108H719.048C719.207 43.7557 719.437 43.3977 719.738 43.0341C720.045 42.6648 720.442 42.358 720.931 42.1136C721.425 41.8636 722.039 41.7386 722.772 41.7386C723.727 41.7386 724.607 41.9886 725.414 42.4886C726.221 42.983 726.866 43.7301 727.349 44.7301C727.832 45.7244 728.073 46.9716 728.073 48.4716C728.073 49.9318 727.837 51.1648 727.366 52.1705C726.9 53.1705 726.263 53.929 725.457 54.446C724.656 54.9574 723.758 55.2131 722.763 55.2131C722.059 55.2131 721.46 55.0966 720.965 54.8636C720.477 54.6307 720.076 54.3381 719.763 53.9858C719.451 53.6278 719.212 53.267 719.048 52.9034H718.886V55H715.306ZM718.86 48.4545C718.86 49.233 718.968 49.9119 719.184 50.4915C719.4 51.071 719.712 51.5227 720.121 51.8466C720.531 52.1648 721.028 52.3239 721.613 52.3239C722.204 52.3239 722.704 52.1619 723.113 51.8381C723.522 51.5085 723.832 51.054 724.042 50.4744C724.258 49.8892 724.366 49.2159 724.366 48.4545C724.366 47.6989 724.261 47.0341 724.05 46.4602C723.84 45.8864 723.531 45.4375 723.121 45.1136C722.712 44.7898 722.21 44.6278 721.613 44.6278C721.022 44.6278 720.522 44.7841 720.113 45.0966C719.71 45.4091 719.4 45.8523 719.184 46.4261C718.968 47 718.86 47.6761 718.86 48.4545ZM736.462 55.2557C735.115 55.2557 733.956 54.983 732.984 54.4375C732.018 53.8864 731.274 53.108 730.751 52.1023C730.229 51.0909 729.967 49.8949 729.967 48.5142C729.967 47.1676 730.229 45.9858 730.751 44.9688C731.274 43.9517 732.01 43.1591 732.959 42.5909C733.913 42.0227 735.033 41.7386 736.317 41.7386C737.18 41.7386 737.984 41.8778 738.729 42.1562C739.479 42.429 740.132 42.8409 740.689 43.392C741.251 43.9432 741.689 44.6364 742.001 45.4716C742.314 46.3011 742.47 47.2727 742.47 48.3864V49.3835H731.416V47.1335H739.053C739.053 46.6108 738.939 46.1477 738.712 45.7443C738.484 45.3409 738.169 45.0256 737.766 44.7983C737.368 44.5653 736.905 44.4489 736.376 44.4489C735.825 44.4489 735.337 44.5767 734.911 44.8324C734.49 45.0824 734.161 45.4205 733.922 45.8466C733.683 46.267 733.561 46.7358 733.555 47.2528V49.392C733.555 50.0398 733.675 50.5994 733.913 51.071C734.158 51.5426 734.501 51.9062 734.945 52.1619C735.388 52.4176 735.913 52.5455 736.521 52.5455C736.925 52.5455 737.294 52.4886 737.629 52.375C737.964 52.2614 738.251 52.0909 738.49 51.8636C738.729 51.6364 738.911 51.358 739.036 51.0284L742.393 51.25C742.223 52.0568 741.874 52.7614 741.345 53.3636C740.822 53.9602 740.146 54.4261 739.317 54.7614C738.493 55.0909 737.541 55.2557 736.462 55.2557ZM744.839 55V41.9091H748.359V44.1932H748.496C748.734 43.3807 749.135 42.767 749.697 42.3523C750.26 41.9318 750.908 41.7216 751.641 41.7216C751.822 41.7216 752.018 41.733 752.229 41.7557C752.439 41.7784 752.624 41.8097 752.783 41.8494V45.071C752.612 45.0199 752.376 44.9744 752.075 44.9347C751.774 44.8949 751.499 44.875 751.249 44.875C750.714 44.875 750.237 44.9915 749.817 45.2244C749.402 45.4517 749.072 45.7699 748.828 46.179C748.589 46.5881 748.47 47.0597 748.47 47.5938V55H744.839ZM754.66 55V41.9091H758.18V44.1932H758.316C758.555 43.3807 758.955 42.767 759.518 42.3523C760.08 41.9318 760.728 41.7216 761.461 41.7216C761.643 41.7216 761.839 41.733 762.049 41.7557C762.259 41.7784 762.444 41.8097 762.603 41.8494V45.071C762.433 45.0199 762.197 44.9744 761.896 44.9347C761.594 44.8949 761.319 44.875 761.069 44.875C760.535 44.875 760.058 44.9915 759.637 45.2244C759.222 45.4517 758.893 45.7699 758.648 46.179C758.41 46.5881 758.29 47.0597 758.29 47.5938V55H754.66ZM764.48 55V41.9091H768.111V55H764.48ZM766.304 40.2216C765.764 40.2216 765.301 40.0426 764.915 39.6847C764.534 39.321 764.344 38.8864 764.344 38.3807C764.344 37.8807 764.534 37.4517 764.915 37.0938C765.301 36.7301 765.764 36.5483 766.304 36.5483C766.844 36.5483 767.304 36.7301 767.685 37.0938C768.071 37.4517 768.264 37.8807 768.264 38.3807C768.264 38.8864 768.071 39.321 767.685 39.6847C767.304 40.0426 766.844 40.2216 766.304 40.2216ZM776.985 55.2557C775.638 55.2557 774.479 54.983 773.508 54.4375C772.542 53.8864 771.798 53.108 771.275 52.1023C770.752 51.0909 770.491 49.8949 770.491 48.5142C770.491 47.1676 770.752 45.9858 771.275 44.9688C771.798 43.9517 772.533 43.1591 773.482 42.5909C774.437 42.0227 775.556 41.7386 776.84 41.7386C777.704 41.7386 778.508 41.8778 779.252 42.1562C780.002 42.429 780.656 42.8409 781.212 43.392C781.775 43.9432 782.212 44.6364 782.525 45.4716C782.837 46.3011 782.994 47.2727 782.994 48.3864V49.3835H771.94V47.1335H779.576C779.576 46.6108 779.462 46.1477 779.235 45.7443C779.008 45.3409 778.692 45.0256 778.289 44.7983C777.891 44.5653 777.428 44.4489 776.9 44.4489C776.349 44.4489 775.86 44.5767 775.434 44.8324C775.013 45.0824 774.684 45.4205 774.445 45.8466C774.207 46.267 774.085 46.7358 774.079 47.2528V49.392C774.079 50.0398 774.198 50.5994 774.437 51.071C774.681 51.5426 775.025 51.9062 775.468 52.1619C775.911 52.4176 776.437 52.5455 777.045 52.5455C777.448 52.5455 777.817 52.4886 778.153 52.375C778.488 52.2614 778.775 52.0909 779.013 51.8636C779.252 51.6364 779.434 51.358 779.559 51.0284L782.917 51.25C782.746 52.0568 782.397 52.7614 781.869 53.3636C781.346 53.9602 780.67 54.4261 779.84 54.7614C779.016 55.0909 778.065 55.2557 776.985 55.2557ZM796.255 45.642L792.931 45.8466C792.874 45.5625 792.752 45.3068 792.565 45.0795C792.377 44.8466 792.13 44.6619 791.823 44.5256C791.522 44.3835 791.161 44.3125 790.741 44.3125C790.178 44.3125 789.704 44.4318 789.317 44.6705C788.931 44.9034 788.738 45.2159 788.738 45.608C788.738 45.9205 788.863 46.1847 789.113 46.4006C789.363 46.6165 789.792 46.7898 790.4 46.9205L792.769 47.3977C794.042 47.6591 794.991 48.0795 795.616 48.6591C796.241 49.2386 796.553 50 796.553 50.9432C796.553 51.8011 796.3 52.554 795.795 53.2017C795.295 53.8494 794.607 54.3551 793.732 54.7188C792.863 55.0767 791.86 55.2557 790.724 55.2557C788.991 55.2557 787.61 54.8949 786.582 54.1733C785.559 53.446 784.96 52.4574 784.783 51.2074L788.354 51.0199C788.462 51.5483 788.724 51.9517 789.138 52.2301C789.553 52.5028 790.085 52.6392 790.732 52.6392C791.369 52.6392 791.88 52.517 792.266 52.2727C792.658 52.0227 792.857 51.7017 792.863 51.3097C792.857 50.9801 792.718 50.7102 792.445 50.5C792.173 50.2841 791.752 50.1193 791.184 50.0057L788.917 49.554C787.638 49.2983 786.687 48.8551 786.062 48.2244C785.442 47.5937 785.133 46.7898 785.133 45.8125C785.133 44.9716 785.36 44.2472 785.815 43.6392C786.275 43.0312 786.92 42.5625 787.749 42.233C788.585 41.9034 789.562 41.7386 790.681 41.7386C792.335 41.7386 793.636 42.0881 794.585 42.7869C795.539 43.4858 796.096 44.4375 796.255 45.642Z" fill="black"/>
<g clip-path="url(#clip1_3725_1238)">
<path d="M512.642 30.9608C512.869 30.8637 513.046 30.7237 513.174 30.5397C513.302 30.3568 513.366 30.1356 513.366 29.8759C513.366 29.5057 513.235 29.2144 512.972 29.0022C512.709 28.79 512.355 28.6838 511.908 28.6838H510.387V31.1064H511.866C512.157 31.1064 512.416 31.0579 512.642 30.9608Z" fill="#357EFE"/>
<path d="M512.965 32.9974C512.72 32.8845 512.428 32.8269 512.086 32.8269H510.387V35.4595H512.037C512.616 35.4595 513.043 35.35 513.318 35.1298C513.594 34.9108 513.732 34.6049 513.732 34.2132C513.732 33.9287 513.665 33.6837 513.532 33.4771C513.399 33.2706 513.21 33.1103 512.965 32.9974Z" fill="#357EFE"/>
<path d="M503.999 0C486.327 0 472 14.3267 472 31.9994C472 49.6722 486.327 63.9989 503.999 63.9989C521.672 63.9989 535.999 49.6722 535.999 31.9994C535.999 14.3267 521.673 0 503.999 0ZM495.684 33.8034L497.588 26.5627H499.995L501.9 33.8192H501.991L503.664 26.5627H506.609L503.399 37.6123H500.825L498.834 30.9112H498.747L496.755 37.6123H494.187L490.971 26.5627H493.922L495.589 33.8034H495.681H495.684ZM508.707 55.2466C507.752 55.3674 506.795 55.4871 505.837 55.6101C505.657 55.6327 505.476 55.6643 505.295 55.6914H502.611C501.927 55.6045 501.24 55.5266 500.557 55.4284C496.44 54.838 492.73 53.2665 489.459 50.7062C485.189 47.3625 482.295 43.067 481.039 37.7816C479.184 29.9821 480.828 22.9356 485.901 16.7098C486.309 16.2097 486.76 15.7446 487.235 15.2129C486.498 14.4802 485.761 13.7465 485.016 13.0059C484.162 12.157 484.763 10.6973 485.968 10.6973H493.12C493.867 10.6973 494.47 11.3013 494.47 12.0475V19.0534C494.47 20.2579 493.013 20.8596 492.163 20.0061L490.705 18.5408C485.995 22.9085 483.281 31.1392 486.418 39.1001C489.521 46.9741 498.453 52.868 508.708 50.363V55.2444L508.707 55.2466ZM507.716 37.6134V26.5638H512.324C513.151 26.5638 513.844 26.6812 514.404 26.9149C514.963 27.1486 515.384 27.476 515.666 27.8971C515.949 28.3181 516.09 28.8058 516.09 29.359C516.09 29.78 516.002 30.1548 515.826 30.4833C515.65 30.813 515.407 31.085 515.098 31.3007C514.788 31.5163 514.43 31.6675 514.024 31.7533V31.8617C514.47 31.8832 514.883 32.004 515.262 32.223C515.642 32.442 515.946 32.7468 516.177 33.1374C516.407 33.528 516.522 33.9885 516.522 34.5214C516.522 35.1152 516.371 35.6446 516.068 36.1108C515.766 36.5771 515.329 36.944 514.758 37.2115C514.185 37.4791 513.491 37.6134 512.675 37.6134H507.717H507.716ZM527.339 36.0228C526.548 40.6806 524.52 44.7288 521.312 48.1911C521.165 48.3491 521.016 48.506 520.871 48.6652C520.851 48.6866 520.846 48.7205 520.807 48.8097C521.518 49.5175 522.231 50.2298 522.956 50.9512C523.828 51.8216 523.213 53.314 521.98 53.314H514.919C514.156 53.314 513.536 52.6953 513.536 51.9311V44.967C513.536 43.7353 515.025 43.119 515.896 43.9893L517.333 45.4242C522.307 40.7302 524.635 32.4566 521.558 24.7983C518.432 17.018 509.548 11.1252 499.291 13.6099V8.67211C500.735 8.54455 502.186 8.29732 503.636 8.30748C512.631 8.3707 519.55 12.2529 524.335 19.8504C526.313 22.9909 527.348 26.4837 527.618 30.1943C527.628 30.3298 527.671 30.4641 527.698 30.5985V33.3767C527.58 34.2583 527.488 35.1456 527.339 36.0228Z" fill="#357EFE"/>
</g>
<path d="M1041.56 17.2727C1041.56 19.1761 1041.2 20.7955 1040.47 22.1307C1039.76 23.4659 1038.78 24.4858 1037.54 25.1903C1036.31 25.8892 1034.92 26.2386 1033.38 26.2386C1031.83 26.2386 1030.44 25.8864 1029.21 25.1818C1027.97 24.4773 1027 23.4574 1026.28 22.1222C1025.57 20.7869 1025.21 19.1705 1025.21 17.2727C1025.21 15.3693 1025.57 13.75 1026.28 12.4148C1027 11.0795 1027.97 10.0625 1029.21 9.36364C1030.44 8.65909 1031.83 8.30682 1033.38 8.30682C1034.92 8.30682 1036.31 8.65909 1037.54 9.36364C1038.78 10.0625 1039.76 11.0795 1040.47 12.4148C1041.2 13.75 1041.56 15.3693 1041.56 17.2727ZM1037.82 17.2727C1037.82 16.0398 1037.63 15 1037.26 14.1534C1036.9 13.3068 1036.38 12.6648 1035.72 12.2273C1035.05 11.7898 1034.28 11.571 1033.38 11.571C1032.49 11.571 1031.71 11.7898 1031.05 12.2273C1030.38 12.6648 1029.87 13.3068 1029.5 14.1534C1029.13 15 1028.95 16.0398 1028.95 17.2727C1028.95 18.5057 1029.13 19.5455 1029.5 20.392C1029.87 21.2386 1030.38 21.8807 1031.05 22.3182C1031.71 22.7557 1032.49 22.9744 1033.38 22.9744C1034.28 22.9744 1035.05 22.7557 1035.72 22.3182C1036.38 21.8807 1036.9 21.2386 1037.26 20.392C1037.63 19.5455 1037.82 18.5057 1037.82 17.2727ZM1043.54 15.7642V12.9091H1055.4V15.7642H1051.19V26H1047.73V15.7642H1043.54ZM1069.44 8.30682C1070.34 8.30682 1071.2 8.45739 1072.03 8.75852C1072.87 9.05966 1073.61 9.53977 1074.26 10.1989C1074.92 10.858 1075.44 11.733 1075.82 12.8239C1076.21 13.9091 1076.41 15.2415 1076.41 16.821C1076.41 18.304 1076.25 19.6278 1075.91 20.7926C1075.58 21.9517 1075.11 22.9375 1074.49 23.75C1073.87 24.5625 1073.12 25.1818 1072.25 25.608C1071.37 26.0284 1070.39 26.2386 1069.31 26.2386C1068.15 26.2386 1067.12 26.0142 1066.23 25.5653C1065.34 25.1108 1064.62 24.4943 1064.07 23.7159C1063.53 22.9318 1063.21 22.0511 1063.09 21.0739H1066.73C1066.87 21.7102 1067.17 22.2045 1067.63 22.5568C1068.08 22.9034 1068.64 23.0767 1069.31 23.0767C1070.45 23.0767 1071.31 22.5824 1071.9 21.5938C1072.5 20.5994 1072.79 19.2386 1072.8 17.5114H1072.68C1072.42 18.0227 1072.07 18.4631 1071.62 18.8324C1071.18 19.196 1070.67 19.4773 1070.1 19.6761C1069.53 19.875 1068.92 19.9744 1068.28 19.9744C1067.25 19.9744 1066.34 19.733 1065.53 19.25C1064.72 18.767 1064.09 18.1023 1063.62 17.2557C1063.15 16.4091 1062.92 15.4432 1062.92 14.358C1062.92 13.1875 1063.19 12.1449 1063.73 11.2301C1064.28 10.3153 1065.04 9.59943 1066.01 9.08239C1067 8.55966 1068.14 8.30114 1069.44 8.30682ZM1069.47 11.2045C1068.89 11.2045 1068.38 11.3409 1067.93 11.6136C1067.49 11.8864 1067.14 12.2528 1066.88 12.7131C1066.62 13.1733 1066.5 13.6875 1066.5 14.2557C1066.5 14.8295 1066.63 15.3466 1066.88 15.8068C1067.13 16.2614 1067.48 16.625 1067.92 16.8977C1068.36 17.1648 1068.86 17.2983 1069.43 17.2983C1069.86 17.2983 1070.25 17.2187 1070.62 17.0597C1070.98 16.9006 1071.3 16.6818 1071.56 16.4034C1071.84 16.1193 1072.05 15.7926 1072.2 15.4233C1072.36 15.054 1072.43 14.6619 1072.43 14.2472C1072.43 13.696 1072.3 13.1903 1072.04 12.7301C1071.78 12.2699 1071.43 11.9006 1070.98 11.6222C1070.53 11.3437 1070.03 11.2045 1069.47 11.2045ZM1085.28 8.30682C1086.18 8.30682 1087.05 8.45739 1087.88 8.75852C1088.71 9.05966 1089.46 9.53977 1090.11 10.1989C1090.77 10.858 1091.29 11.733 1091.67 12.8239C1092.05 13.9091 1092.25 15.2415 1092.26 16.821C1092.26 18.304 1092.09 19.6278 1091.75 20.7926C1091.42 21.9517 1090.95 22.9375 1090.33 23.75C1089.71 24.5625 1088.96 25.1818 1088.09 25.608C1087.21 26.0284 1086.24 26.2386 1085.16 26.2386C1083.99 26.2386 1082.96 26.0142 1082.07 25.5653C1081.18 25.1108 1080.46 24.4943 1079.92 23.7159C1079.38 22.9318 1079.05 22.0511 1078.94 21.0739H1082.57C1082.72 21.7102 1083.01 22.2045 1083.47 22.5568C1083.92 22.9034 1084.49 23.0767 1085.16 23.0767C1086.29 23.0767 1087.16 22.5824 1087.75 21.5938C1088.34 20.5994 1088.64 19.2386 1088.64 17.5114H1088.52C1088.26 18.0227 1087.91 18.4631 1087.47 18.8324C1087.02 19.196 1086.51 19.4773 1085.94 19.6761C1085.37 19.875 1084.77 19.9744 1084.13 19.9744C1083.1 19.9744 1082.18 19.733 1081.37 19.25C1080.57 18.767 1079.93 18.1023 1079.46 17.2557C1079 16.4091 1078.76 15.4432 1078.76 14.358C1078.76 13.1875 1079.03 12.1449 1079.57 11.2301C1080.12 10.3153 1080.88 9.59943 1081.86 9.08239C1082.84 8.55966 1083.98 8.30114 1085.28 8.30682ZM1085.31 11.2045C1084.74 11.2045 1084.23 11.3409 1083.78 11.6136C1083.33 11.8864 1082.98 12.2528 1082.72 12.7131C1082.46 13.1733 1082.34 13.6875 1082.34 14.2557C1082.34 14.8295 1082.47 15.3466 1082.72 15.8068C1082.98 16.2614 1083.32 16.625 1083.76 16.8977C1084.2 17.1648 1084.71 17.2983 1085.28 17.2983C1085.7 17.2983 1086.1 17.2187 1086.46 17.0597C1086.82 16.9006 1087.14 16.6818 1087.41 16.4034C1087.68 16.1193 1087.89 15.7926 1088.05 15.4233C1088.2 15.054 1088.28 14.6619 1088.28 14.2472C1088.27 13.696 1088.14 13.1903 1087.88 12.7301C1087.63 12.2699 1087.28 11.9006 1086.83 11.6222C1086.38 11.3437 1085.87 11.2045 1085.31 11.2045ZM1101.66 26.3835C1100.19 26.3778 1098.93 26.017 1097.87 25.3011C1096.82 24.5852 1096.01 23.5483 1095.44 22.1903C1094.88 20.8324 1094.6 19.1989 1094.61 17.2898C1094.61 15.3864 1094.89 13.7642 1095.45 12.4233C1096.02 11.0824 1096.83 10.0625 1097.88 9.36364C1098.94 8.65909 1100.2 8.30682 1101.66 8.30682C1103.12 8.30682 1104.37 8.65909 1105.42 9.36364C1106.48 10.0682 1107.29 11.0909 1107.86 12.4318C1108.43 13.767 1108.71 15.3864 1108.71 17.2898C1108.71 19.2045 1108.42 20.8409 1107.85 22.1989C1107.29 23.5568 1106.48 24.5937 1105.43 25.3097C1104.38 26.0256 1103.12 26.3835 1101.66 26.3835ZM1101.66 23.3239C1102.66 23.3239 1103.46 22.821 1104.05 21.8153C1104.65 20.8097 1104.94 19.3011 1104.94 17.2898C1104.94 15.9659 1104.8 14.8636 1104.53 13.983C1104.26 13.1023 1103.88 12.4403 1103.39 11.9972C1102.9 11.554 1102.32 11.3324 1101.66 11.3324C1100.66 11.3324 1099.87 11.8295 1099.27 12.8239C1098.67 13.8182 1098.37 15.3068 1098.37 17.2898C1098.37 18.6307 1098.5 19.75 1098.77 20.6477C1099.04 21.5398 1099.42 22.2102 1099.92 22.6591C1100.41 23.1023 1100.99 23.3239 1101.66 23.3239ZM1116.93 30.9091V12.9091H1120.5V15.108H1120.67C1120.83 14.7557 1121.06 14.3977 1121.36 14.0341C1121.66 13.6648 1122.06 13.358 1122.55 13.1136C1123.04 12.8636 1123.66 12.7386 1124.39 12.7386C1125.35 12.7386 1126.23 12.9886 1127.03 13.4886C1127.84 13.983 1128.49 14.7301 1128.97 15.7301C1129.45 16.7244 1129.69 17.9716 1129.69 19.4716C1129.69 20.9318 1129.46 22.1648 1128.99 23.1705C1128.52 24.1705 1127.88 24.929 1127.08 25.446C1126.27 25.9574 1125.38 26.2131 1124.38 26.2131C1123.68 26.2131 1123.08 26.0966 1122.58 25.8636C1122.1 25.6307 1121.7 25.3381 1121.38 24.9858C1121.07 24.6278 1120.83 24.267 1120.67 23.9034H1120.56V30.9091H1116.93ZM1120.48 19.4545C1120.48 20.233 1120.59 20.9119 1120.8 21.4915C1121.02 22.071 1121.33 22.5227 1121.74 22.8466C1122.15 23.1648 1122.65 23.3239 1123.23 23.3239C1123.82 23.3239 1124.32 23.1619 1124.73 22.8381C1125.14 22.5085 1125.45 22.054 1125.66 21.4744C1125.88 20.8892 1125.99 20.2159 1125.99 19.4545C1125.99 18.6989 1125.88 18.0341 1125.67 17.4602C1125.46 16.8864 1125.15 16.4375 1124.74 16.1136C1124.33 15.7898 1123.83 15.6278 1123.23 15.6278C1122.64 15.6278 1122.14 15.7841 1121.73 16.0966C1121.33 16.4091 1121.02 16.8523 1120.8 17.4261C1120.59 18 1120.48 18.6761 1120.48 19.4545ZM1133.93 30.9091C1133.47 30.9091 1133.04 30.8722 1132.64 30.7983C1132.24 30.7301 1131.91 30.642 1131.65 30.5341L1132.47 27.8239C1132.89 27.9545 1133.28 28.0256 1133.62 28.0369C1133.96 28.0483 1134.26 27.9688 1134.51 27.7983C1134.77 27.6278 1134.98 27.3381 1135.13 26.929L1135.35 26.375L1130.65 12.9091H1134.47L1137.18 22.5227H1137.32L1140.05 12.9091H1143.9L1138.81 27.4148C1138.56 28.1193 1138.23 28.733 1137.81 29.2557C1137.4 29.7841 1136.87 30.1903 1136.23 30.4744C1135.6 30.7642 1134.83 30.9091 1133.93 30.9091ZM1156.64 8.10227L1157.75 10.4716C1157.38 10.7784 1156.97 11.0057 1156.52 11.1534C1156.07 11.2955 1155.53 11.3892 1154.91 11.4347C1154.29 11.4801 1153.53 11.5114 1152.64 11.5284C1151.63 11.5398 1150.8 11.7017 1150.17 12.0142C1149.53 12.3267 1149.05 12.8182 1148.72 13.4886C1148.39 14.1534 1148.17 15.0227 1148.07 16.0966H1148.2C1148.59 15.2955 1149.14 14.6761 1149.85 14.2386C1150.57 13.8011 1151.45 13.5824 1152.5 13.5824C1153.62 13.5824 1154.59 13.8267 1155.43 14.3153C1156.27 14.804 1156.92 15.5057 1157.39 16.4205C1157.85 17.3352 1158.09 18.4318 1158.09 19.7102C1158.09 21.0398 1157.82 22.196 1157.3 23.179C1156.78 24.1562 1156.05 24.9148 1155.09 25.4545C1154.14 25.9886 1153 26.2557 1151.69 26.2557C1150.36 26.2557 1149.22 25.9773 1148.26 25.4205C1147.3 24.8636 1146.57 24.0426 1146.04 22.9574C1145.53 21.8722 1145.27 20.5369 1145.27 18.9517V17.8778C1145.27 14.7244 1145.88 12.3864 1147.11 10.8636C1148.34 9.34091 1150.14 8.56818 1152.52 8.54545C1153.17 8.53409 1153.75 8.53125 1154.28 8.53693C1154.8 8.54261 1155.26 8.51705 1155.65 8.46023C1156.05 8.40341 1156.38 8.28409 1156.64 8.10227ZM1151.7 23.4432C1152.26 23.4432 1152.74 23.2983 1153.13 23.0085C1153.54 22.7187 1153.85 22.304 1154.06 21.7642C1154.28 21.2244 1154.4 20.5795 1154.4 19.8295C1154.4 19.0852 1154.28 18.4545 1154.06 17.9375C1153.85 17.4148 1153.54 17.017 1153.13 16.7443C1152.73 16.4716 1152.25 16.3352 1151.69 16.3352C1151.26 16.3352 1150.89 16.4119 1150.55 16.5653C1150.22 16.7187 1149.93 16.946 1149.69 17.2472C1149.46 17.5426 1149.28 17.9091 1149.15 18.3466C1149.02 18.7784 1148.96 19.2727 1148.96 19.8295C1148.96 20.9489 1149.2 21.8324 1149.68 22.4801C1150.17 23.1222 1150.84 23.4432 1151.7 23.4432ZM1159.73 26L1159.71 23.1193H1160.15C1160.45 23.1193 1160.72 23.0455 1160.94 22.8977C1161.17 22.7443 1161.35 22.4972 1161.5 22.1562C1161.65 21.8153 1161.77 21.3636 1161.85 20.8011C1161.94 20.233 1161.99 19.5341 1162.02 18.7045L1162.23 12.9091H1172.19V26H1168.73V15.7642H1165.5L1165.29 19.7614C1165.24 20.858 1165.11 21.8011 1164.89 22.5909C1164.68 23.3807 1164.39 24.0284 1164.02 24.5341C1163.64 25.0341 1163.19 25.4034 1162.66 25.642C1162.13 25.8807 1161.52 26 1160.82 26H1159.73ZM1180.97 26.2557C1179.62 26.2557 1178.46 25.983 1177.49 25.4375C1176.53 24.8864 1175.78 24.108 1175.26 23.1023C1174.74 22.0909 1174.48 20.8949 1174.48 19.5142C1174.48 18.1676 1174.74 16.9858 1175.26 15.9688C1175.78 14.9517 1176.52 14.1591 1177.47 13.5909C1178.42 13.0227 1179.54 12.7386 1180.82 12.7386C1181.69 12.7386 1182.49 12.8778 1183.24 13.1562C1183.99 13.429 1184.64 13.8409 1185.2 14.392C1185.76 14.9432 1186.2 15.6364 1186.51 16.4716C1186.82 17.3011 1186.98 18.2727 1186.98 19.3864V20.3835H1175.92V18.1335H1183.56C1183.56 17.6108 1183.45 17.1477 1183.22 16.7443C1182.99 16.3409 1182.68 16.0256 1182.27 15.7983C1181.88 15.5653 1181.41 15.4489 1180.88 15.4489C1180.33 15.4489 1179.84 15.5767 1179.42 15.8324C1179 16.0824 1178.67 16.4205 1178.43 16.8466C1178.19 17.267 1178.07 17.7358 1178.06 18.2528V20.392C1178.06 21.0398 1178.18 21.5994 1178.42 22.071C1178.67 22.5426 1179.01 22.9062 1179.45 23.1619C1179.9 23.4176 1180.42 23.5455 1181.03 23.5455C1181.43 23.5455 1181.8 23.4886 1182.14 23.375C1182.47 23.2614 1182.76 23.0909 1183 22.8636C1183.24 22.6364 1183.42 22.358 1183.54 22.0284L1186.9 22.25C1186.73 23.0568 1186.38 23.7614 1185.85 24.3636C1185.33 24.9602 1184.65 25.4261 1183.82 25.7614C1183 26.0909 1182.05 26.2557 1180.97 26.2557ZM1192.82 21.2102L1197.53 12.9091H1201.11V26H1197.65V17.6733L1192.95 26H1189.35V12.9091H1192.82V21.2102ZM1196.91 8.34091H1199.44C1199.43 9.375 1199.05 10.2074 1198.29 10.8381C1197.53 11.4687 1196.51 11.7841 1195.22 11.7841C1193.92 11.7841 1192.9 11.4687 1192.14 10.8381C1191.39 10.2074 1191.01 9.375 1191.01 8.34091H1193.52C1193.52 8.73295 1193.64 9.08523 1193.9 9.39773C1194.16 9.71023 1194.6 9.86648 1195.22 9.86648C1195.82 9.86648 1196.25 9.71307 1196.51 9.40625C1196.78 9.09943 1196.91 8.74432 1196.91 8.34091ZM1209.57 26V12.9091H1215.16C1216.77 12.9091 1218.05 13.2159 1218.98 13.8295C1219.92 14.4432 1220.39 15.3153 1220.39 16.446C1220.39 17.1562 1220.13 17.7472 1219.6 18.2188C1219.07 18.6903 1218.34 19.0085 1217.4 19.1733C1218.18 19.2301 1218.85 19.4091 1219.4 19.7102C1219.96 20.0057 1220.38 20.3892 1220.67 20.8608C1220.97 21.3324 1221.11 21.8551 1221.11 22.429C1221.11 23.1733 1220.91 23.8125 1220.52 24.3466C1220.13 24.8807 1219.55 25.2898 1218.79 25.5739C1218.03 25.858 1217.11 26 1216.02 26H1209.57ZM1212.96 23.2812H1216.02C1216.52 23.2812 1216.92 23.1619 1217.2 22.9233C1217.49 22.679 1217.64 22.3466 1217.64 21.9261C1217.64 21.4602 1217.49 21.0937 1217.2 20.8267C1216.92 20.5597 1216.52 20.4261 1216.02 20.4261H1212.96V23.2812ZM1212.96 18.2955H1215.23C1215.6 18.2955 1215.91 18.2443 1216.16 18.142C1216.42 18.0341 1216.62 17.8807 1216.76 17.6818C1216.9 17.483 1216.97 17.2472 1216.97 16.9744C1216.97 16.571 1216.81 16.2557 1216.49 16.0284C1216.16 15.8011 1215.72 15.6875 1215.16 15.6875H1212.96V18.2955ZM1236.7 21.9858L1240.24 12.9091H1243L1237.9 26H1235.49L1230.5 12.9091H1233.25L1236.7 21.9858ZM1232.43 12.9091V26H1228.96V12.9091H1232.43ZM1241.14 26V12.9091H1244.57V26H1241.14ZM1253.34 26.2557C1252 26.2557 1250.84 25.983 1249.87 25.4375C1248.9 24.8864 1248.16 24.108 1247.63 23.1023C1247.11 22.0909 1246.85 20.8949 1246.85 19.5142C1246.85 18.1676 1247.11 16.9858 1247.63 15.9688C1248.16 14.9517 1248.89 14.1591 1249.84 13.5909C1250.8 13.0227 1251.92 12.7386 1253.2 12.7386C1254.06 12.7386 1254.87 12.8778 1255.61 13.1562C1256.36 13.429 1257.01 13.8409 1257.57 14.392C1258.13 14.9432 1258.57 15.6364 1258.88 16.4716C1259.2 17.3011 1259.35 18.2727 1259.35 19.3864V20.3835H1248.3V18.1335H1255.94C1255.94 17.6108 1255.82 17.1477 1255.59 16.7443C1255.37 16.3409 1255.05 16.0256 1254.65 15.7983C1254.25 15.5653 1253.79 15.4489 1253.26 15.4489C1252.71 15.4489 1252.22 15.5767 1251.79 15.8324C1251.37 16.0824 1251.04 16.4205 1250.8 16.8466C1250.57 17.267 1250.44 17.7358 1250.44 18.2528V20.392C1250.44 21.0398 1250.56 21.5994 1250.8 22.071C1251.04 22.5426 1251.38 22.9062 1251.83 23.1619C1252.27 23.4176 1252.8 23.5455 1253.4 23.5455C1253.81 23.5455 1254.18 23.4886 1254.51 23.375C1254.85 23.2614 1255.13 23.0909 1255.37 22.8636C1255.61 22.6364 1255.79 22.358 1255.92 22.0284L1259.28 22.25C1259.11 23.0568 1258.76 23.7614 1258.23 24.3636C1257.71 24.9602 1257.03 25.4261 1256.2 25.7614C1255.38 26.0909 1254.42 26.2557 1253.34 26.2557ZM1267.64 26.2557C1266.3 26.2557 1265.14 25.9716 1264.18 25.4034C1263.22 24.8295 1262.48 24.0341 1261.96 23.017C1261.45 22 1261.19 20.8295 1261.19 19.5057C1261.19 18.1648 1261.45 16.9886 1261.97 15.9773C1262.49 14.9602 1263.23 14.1676 1264.19 13.5994C1265.15 13.0256 1266.3 12.7386 1267.62 12.7386C1268.76 12.7386 1269.76 12.946 1270.62 13.3608C1271.48 13.7756 1272.16 14.358 1272.66 15.108C1273.16 15.858 1273.43 16.7386 1273.48 17.75H1270.06C1269.96 17.0966 1269.71 16.571 1269.29 16.1733C1268.88 15.7699 1268.34 15.5682 1267.68 15.5682C1267.12 15.5682 1266.63 15.7216 1266.21 16.0284C1265.79 16.3295 1265.47 16.7699 1265.23 17.3494C1265 17.929 1264.88 18.6307 1264.88 19.4545C1264.88 20.2898 1265 21 1265.23 21.5852C1265.46 22.1705 1265.78 22.6165 1266.21 22.9233C1266.63 23.2301 1267.12 23.3835 1267.68 23.3835C1268.09 23.3835 1268.47 23.2983 1268.8 23.1278C1269.13 22.9574 1269.41 22.7102 1269.62 22.3864C1269.84 22.0568 1269.99 21.6619 1270.06 21.2017H1273.48C1273.43 22.2017 1273.15 23.0824 1272.67 23.8438C1272.18 24.5994 1271.51 25.1903 1270.66 25.6165C1269.81 26.0426 1268.8 26.2557 1267.64 26.2557ZM1283.48 26V15.7557H1281.02C1280.36 15.7557 1279.85 15.9091 1279.51 16.2159C1279.16 16.5227 1278.99 16.8864 1279 17.3068C1278.99 17.733 1279.15 18.0937 1279.49 18.3892C1279.83 18.679 1280.33 18.8239 1280.99 18.8239H1284.69V21.2784H1280.99C1279.87 21.2784 1278.9 21.108 1278.08 20.767C1277.27 20.4261 1276.63 19.9517 1276.19 19.3438C1275.75 18.7301 1275.53 18.017 1275.54 17.2045C1275.53 16.3523 1275.75 15.6051 1276.19 14.9631C1276.63 14.3153 1277.27 13.8125 1278.09 13.4545C1278.92 13.0909 1279.9 12.9091 1281.02 12.9091H1286.86V26H1283.48ZM1275.16 26L1278.8 19.1818H1282.27L1278.64 26H1275.16ZM1301.13 12.9091V23.4943H1303.22V30.2102H1299.69V26H1289.68V12.9091H1293.15V23.1449H1297.7V12.9091H1301.13ZM1031.36 55.2557C1030.02 55.2557 1028.87 54.9716 1027.9 54.4034C1026.94 53.8295 1026.2 53.0341 1025.69 52.017C1025.18 51 1024.92 49.8295 1024.92 48.5057C1024.92 47.1648 1025.18 45.9886 1025.7 44.9773C1026.22 43.9602 1026.96 43.1676 1027.92 42.5994C1028.88 42.0256 1030.02 41.7386 1031.35 41.7386C1032.49 41.7386 1033.49 41.946 1034.35 42.3608C1035.2 42.7756 1035.88 43.358 1036.38 44.108C1036.88 44.858 1037.16 45.7386 1037.21 46.75H1033.78C1033.69 46.0966 1033.43 45.571 1033.02 45.1733C1032.61 44.7699 1032.07 44.5682 1031.41 44.5682C1030.84 44.5682 1030.35 44.7216 1029.93 45.0284C1029.52 45.3295 1029.19 45.7699 1028.96 46.3494C1028.73 46.929 1028.61 47.6307 1028.61 48.4545C1028.61 49.2898 1028.72 50 1028.95 50.5852C1029.18 51.1705 1029.51 51.6165 1029.93 51.9233C1030.35 52.2301 1030.84 52.3835 1031.41 52.3835C1031.82 52.3835 1032.19 52.2983 1032.52 52.1278C1032.86 51.9574 1033.13 51.7102 1033.35 51.3864C1033.57 51.0568 1033.72 50.6619 1033.78 50.2017H1037.21C1037.15 51.2017 1036.88 52.0824 1036.39 52.8438C1035.91 53.5994 1035.24 54.1903 1034.39 54.6165C1033.54 55.0426 1032.53 55.2557 1031.36 55.2557ZM1045.09 55V41.9091H1056.54V55H1053.07V44.7642H1048.52V55H1045.09ZM1065.35 55.2557C1064.02 55.2557 1062.88 54.9744 1061.91 54.4119C1060.95 53.8437 1060.21 53.054 1059.69 52.0426C1059.17 51.0256 1058.9 49.8466 1058.9 48.5057C1058.9 47.1534 1059.17 45.9716 1059.69 44.9602C1060.21 43.9432 1060.95 43.1534 1061.91 42.5909C1062.88 42.0227 1064.02 41.7386 1065.35 41.7386C1066.67 41.7386 1067.81 42.0227 1068.77 42.5909C1069.74 43.1534 1070.48 43.9432 1071.01 44.9602C1071.53 45.9716 1071.79 47.1534 1071.79 48.5057C1071.79 49.8466 1071.53 51.0256 1071.01 52.0426C1070.48 53.054 1069.74 53.8437 1068.77 54.4119C1067.81 54.9744 1066.67 55.2557 1065.35 55.2557ZM1065.37 52.4432C1065.97 52.4432 1066.47 52.2727 1066.87 51.9318C1067.28 51.5852 1067.58 51.1136 1067.79 50.517C1068 49.9205 1068.1 49.2415 1068.1 48.4801C1068.1 47.7188 1068 47.0398 1067.79 46.4432C1067.58 45.8466 1067.28 45.375 1066.87 45.0284C1066.47 44.6818 1065.97 44.5085 1065.37 44.5085C1064.76 44.5085 1064.25 44.6818 1063.83 45.0284C1063.42 45.375 1063.11 45.8466 1062.9 46.4432C1062.7 47.0398 1062.6 47.7188 1062.6 48.4801C1062.6 49.2415 1062.7 49.9205 1062.9 50.517C1063.11 51.1136 1063.42 51.5852 1063.83 51.9318C1064.25 52.2727 1064.76 52.4432 1065.37 52.4432ZM1073.38 55L1073.37 52.1193H1073.8C1074.11 52.1193 1074.37 52.0455 1074.6 51.8977C1074.82 51.7443 1075.01 51.4972 1075.16 51.1562C1075.31 50.8153 1075.42 50.3636 1075.51 49.8011C1075.59 49.233 1075.65 48.5341 1075.68 47.7045L1075.89 41.9091H1085.85V55H1082.38V44.7642H1079.15L1078.95 48.7614C1078.9 49.858 1078.77 50.8011 1078.55 51.5909C1078.34 52.3807 1078.05 53.0284 1077.67 53.5341C1077.3 54.0341 1076.85 54.4034 1076.32 54.642C1075.79 54.8807 1075.17 55 1074.48 55H1073.38ZM1097.77 47.0057V49.8608H1090.94V47.0057H1097.77ZM1092.13 41.9091V55H1088.66V41.9091H1092.13ZM1100.05 41.9091V55H1096.6V41.9091H1100.05ZM1105.14 45.9318H1109.05C1110.78 45.9318 1112.14 46.3466 1113.11 47.1761C1114.08 48 1114.56 49.1023 1114.56 50.483C1114.56 51.3807 1114.35 52.1705 1113.91 52.8523C1113.47 53.5284 1112.84 54.0568 1112.02 54.4375C1111.19 54.8125 1110.2 55 1109.05 55H1102.86V41.9091H1106.33V52.1449H1109.05C1109.66 52.1449 1110.16 51.9915 1110.55 51.6847C1110.94 51.3778 1111.14 50.9858 1111.15 50.5085C1111.14 50.0028 1110.94 49.5909 1110.55 49.2727C1110.16 48.9489 1109.66 48.7869 1109.05 48.7869H1105.14V45.9318ZM1115.97 55V41.9091H1119.6V55H1115.97ZM1130.24 50.9858L1133.79 41.9091H1136.55L1131.44 55H1129.03L1124.05 41.9091H1126.8L1130.24 50.9858ZM1125.97 41.9091V55H1122.5V41.9091H1125.97ZM1134.69 55V41.9091H1138.12V55H1134.69ZM1152.74 59.4489V37.5455H1156.37V59.4489H1152.74ZM1152.74 55.2557C1151.74 55.2557 1150.82 55.0938 1149.99 54.7699C1149.16 54.4403 1148.45 53.9773 1147.84 53.3807C1147.24 52.7784 1146.78 52.0653 1146.45 51.2415C1146.12 50.4119 1145.95 49.5 1145.95 48.5057C1145.95 47.5 1146.12 46.5852 1146.45 45.7614C1146.78 44.9318 1147.24 44.2187 1147.84 43.6222C1148.45 43.0199 1149.16 42.5568 1149.99 42.233C1150.82 41.9034 1151.74 41.7386 1152.74 41.7386H1153.42V55.2557H1152.74ZM1152.74 52.4261H1153.14V44.5682H1152.74C1152.26 44.5682 1151.82 44.6705 1151.44 44.875C1151.06 45.0795 1150.74 45.3608 1150.48 45.7188C1150.22 46.071 1150.02 46.4858 1149.88 46.9631C1149.75 47.4403 1149.68 47.9545 1149.68 48.5057C1149.68 49.233 1149.8 49.8949 1150.04 50.4915C1150.28 51.0824 1150.63 51.554 1151.09 51.9062C1151.55 52.2528 1152.1 52.4261 1152.74 52.4261ZM1156.37 55.2557H1155.69V41.7386H1156.37C1157.37 41.7386 1158.29 41.9034 1159.12 42.233C1159.95 42.5568 1160.66 43.0199 1161.27 43.6222C1161.87 44.2187 1162.34 44.9318 1162.66 45.7614C1162.99 46.5852 1163.16 47.5 1163.16 48.5057C1163.16 49.5 1162.99 50.4119 1162.66 51.2415C1162.34 52.0653 1161.87 52.7784 1161.27 53.3807C1160.66 53.9773 1159.95 54.4403 1159.12 54.7699C1158.29 55.0938 1157.37 55.2557 1156.37 55.2557ZM1156.37 52.4261C1156.86 52.4261 1157.29 52.3267 1157.67 52.1278C1158.05 51.9233 1158.37 51.642 1158.63 51.2841C1158.89 50.9261 1159.09 50.5114 1159.23 50.0398C1159.37 49.5625 1159.43 49.0511 1159.43 48.5057C1159.43 47.7727 1159.31 47.1108 1159.07 46.5199C1158.83 45.9233 1158.48 45.4489 1158.03 45.0966C1157.57 44.7443 1157.02 44.5682 1156.37 44.5682H1155.97V52.4261H1156.37ZM1167.35 59.9091C1166.89 59.9091 1166.46 59.8722 1166.06 59.7983C1165.66 59.7301 1165.33 59.642 1165.07 59.5341L1165.89 56.8239C1166.31 56.9545 1166.7 57.0256 1167.04 57.0369C1167.39 57.0483 1167.68 56.9688 1167.93 56.7983C1168.19 56.6278 1168.4 56.3381 1168.56 55.929L1168.77 55.375L1164.07 41.9091H1167.89L1170.6 51.5227H1170.74L1173.47 41.9091H1177.32L1172.23 56.4148C1171.99 57.1193 1171.65 57.733 1171.23 58.2557C1170.82 58.7841 1170.29 59.1903 1169.66 59.4744C1169.02 59.7642 1168.25 59.9091 1167.35 59.9091ZM1188.29 47.0057V49.8608H1181.45V47.0057H1188.29ZM1182.64 41.9091V55H1179.18V41.9091H1182.64ZM1190.56 41.9091V55H1187.12V41.9091H1190.56ZM1193.38 55V41.9091H1197.01V46.9886H1198.03L1201.59 41.9091H1205.86L1201.23 48.4034L1205.91 55H1201.59L1198.36 50.3551H1197.01V55H1193.38ZM1218.89 41.9091V52.4943H1220.98V59.2102H1217.45V55H1207.44V41.9091H1210.91V52.1449H1215.46V41.9091H1218.89ZM1226.68 50.2102L1231.4 41.9091H1234.98V55H1231.52V46.6733L1226.82 55H1223.21V41.9091H1226.68V50.2102ZM1243.8 55.2557C1242.48 55.2557 1241.33 54.9744 1240.37 54.4119C1239.41 53.8437 1238.66 53.054 1238.14 52.0426C1237.62 51.0256 1237.36 49.8466 1237.36 48.5057C1237.36 47.1534 1237.62 45.9716 1238.14 44.9602C1238.66 43.9432 1239.41 43.1534 1240.37 42.5909C1241.33 42.0227 1242.48 41.7386 1243.8 41.7386C1245.12 41.7386 1246.27 42.0227 1247.23 42.5909C1248.19 43.1534 1248.94 43.9432 1249.46 44.9602C1249.98 45.9716 1250.24 47.1534 1250.24 48.5057C1250.24 49.8466 1249.98 51.0256 1249.46 52.0426C1248.94 53.054 1248.19 53.8437 1247.23 54.4119C1246.27 54.9744 1245.12 55.2557 1243.8 55.2557ZM1243.82 52.4432C1244.42 52.4432 1244.92 52.2727 1245.33 51.9318C1245.73 51.5852 1246.03 51.1136 1246.24 50.517C1246.45 49.9205 1246.55 49.2415 1246.55 48.4801C1246.55 47.7188 1246.45 47.0398 1246.24 46.4432C1246.03 45.8466 1245.73 45.375 1245.33 45.0284C1244.92 44.6818 1244.42 44.5085 1243.82 44.5085C1243.21 44.5085 1242.7 44.6818 1242.28 45.0284C1241.88 45.375 1241.57 45.8466 1241.36 46.4432C1241.15 47.0398 1241.05 47.7188 1241.05 48.4801C1241.05 49.2415 1241.15 49.9205 1241.36 50.517C1241.57 51.1136 1241.88 51.5852 1242.28 51.9318C1242.7 52.2727 1243.21 52.4432 1243.82 52.4432ZM1261.72 47.0057V49.8608H1254.88V47.0057H1261.72ZM1256.07 41.9091V55H1252.61V41.9091H1256.07ZM1263.99 41.9091V55H1260.55V41.9091H1263.99ZM1270.54 55.2472C1269.71 55.2472 1268.96 55.1023 1268.31 54.8125C1267.65 54.517 1267.14 54.0824 1266.76 53.5085C1266.38 52.929 1266.19 52.2074 1266.19 51.3438C1266.19 50.6165 1266.33 50.0057 1266.6 49.5114C1266.86 49.017 1267.23 48.6193 1267.69 48.3182C1268.15 48.017 1268.67 47.7898 1269.25 47.6364C1269.85 47.483 1270.46 47.375 1271.11 47.3125C1271.87 47.233 1272.49 47.1591 1272.95 47.0909C1273.42 47.017 1273.76 46.9091 1273.97 46.767C1274.18 46.625 1274.28 46.4148 1274.28 46.1364V46.0852C1274.28 45.5455 1274.11 45.1278 1273.77 44.8324C1273.44 44.5369 1272.96 44.3892 1272.34 44.3892C1271.69 44.3892 1271.17 44.5341 1270.78 44.8239C1270.39 45.108 1270.14 45.4659 1270.01 45.8977L1266.65 45.625C1266.83 44.8295 1267.16 44.142 1267.66 43.5625C1268.16 42.9773 1268.81 42.5284 1269.6 42.2159C1270.39 41.8977 1271.31 41.7386 1272.36 41.7386C1273.08 41.7386 1273.78 41.8239 1274.44 41.9943C1275.12 42.1648 1275.71 42.429 1276.23 42.7869C1276.75 43.1449 1277.16 43.6051 1277.46 44.1676C1277.76 44.7244 1277.91 45.392 1277.91 46.1705V55H1274.47V53.1847H1274.37C1274.16 53.5938 1273.88 53.9545 1273.52 54.267C1273.17 54.5739 1272.75 54.8153 1272.25 54.9915C1271.76 55.1619 1271.19 55.2472 1270.54 55.2472ZM1271.58 52.7415C1272.12 52.7415 1272.59 52.6364 1273 52.4261C1273.4 52.2102 1273.73 51.9205 1273.96 51.5568C1274.19 51.1932 1274.31 50.7812 1274.31 50.321V48.9318C1274.19 49.0057 1274.04 49.0739 1273.84 49.1364C1273.65 49.1932 1273.43 49.2472 1273.18 49.2983C1272.94 49.3437 1272.69 49.3864 1272.45 49.4261C1272.21 49.4602 1271.98 49.4915 1271.79 49.5199C1271.36 49.5824 1270.99 49.6818 1270.67 49.8182C1270.35 49.9545 1270.1 50.1392 1269.93 50.3722C1269.75 50.5994 1269.66 50.8835 1269.66 51.2244C1269.66 51.7188 1269.84 52.0966 1270.2 52.358C1270.56 52.6136 1271.02 52.7415 1271.58 52.7415ZM1279.96 55L1279.95 52.1193H1280.38C1280.69 52.1193 1280.95 52.0455 1281.17 51.8977C1281.4 51.7443 1281.59 51.4972 1281.74 51.1562C1281.88 50.8153 1282 50.3636 1282.09 49.8011C1282.17 49.233 1282.23 48.5341 1282.26 47.7045L1282.47 41.9091H1292.42V55H1288.96V44.7642H1285.73L1285.53 48.7614C1285.48 49.858 1285.34 50.8011 1285.13 51.5909C1284.92 52.3807 1284.62 53.0284 1284.25 53.5341C1283.88 54.0341 1283.42 54.4034 1282.89 54.642C1282.37 54.8807 1281.75 55 1281.05 55H1279.96ZM1301.15 55.2557C1299.83 55.2557 1298.68 54.9744 1297.72 54.4119C1296.76 53.8437 1296.02 53.054 1295.49 52.0426C1294.97 51.0256 1294.71 49.8466 1294.71 48.5057C1294.71 47.1534 1294.97 45.9716 1295.49 44.9602C1296.02 43.9432 1296.76 43.1534 1297.72 42.5909C1298.68 42.0227 1299.83 41.7386 1301.15 41.7386C1302.48 41.7386 1303.62 42.0227 1304.58 42.5909C1305.54 43.1534 1306.29 43.9432 1306.81 44.9602C1307.33 45.9716 1307.6 47.1534 1307.6 48.5057C1307.6 49.8466 1307.33 51.0256 1306.81 52.0426C1306.29 53.054 1305.54 53.8437 1304.58 54.4119C1303.62 54.9744 1302.48 55.2557 1301.15 55.2557ZM1301.17 52.4432C1301.77 52.4432 1302.27 52.2727 1302.68 51.9318C1303.08 51.5852 1303.39 51.1136 1303.59 50.517C1303.8 49.9205 1303.91 49.2415 1303.91 48.4801C1303.91 47.7188 1303.8 47.0398 1303.59 46.4432C1303.39 45.8466 1303.08 45.375 1302.68 45.0284C1302.27 44.6818 1301.77 44.5085 1301.17 44.5085C1300.56 44.5085 1300.05 44.6818 1299.64 45.0284C1299.23 45.375 1298.92 45.8466 1298.71 46.4432C1298.5 47.0398 1298.4 47.7188 1298.4 48.4801C1298.4 49.2415 1298.5 49.9205 1298.71 50.517C1298.92 51.1136 1299.23 51.5852 1299.64 51.9318C1300.05 52.2727 1300.56 52.4432 1301.17 52.4432ZM1317.7 50.9858L1321.24 41.9091H1324L1318.9 55H1316.49L1311.5 41.9091H1314.25L1317.7 50.9858ZM1313.43 41.9091V55H1309.96V41.9091H1313.43ZM1322.14 55V41.9091H1325.57V55H1322.14Z" fill="black"/>
<g clip-path="url(#clip2_3725_1238)">
<path d="M979.999 21.4997C979.846 21.4726 979.69 21.4511 979.535 21.4489C977.392 21.4139 975.25 21.3834 973.106 21.3552C973.053 21.3552 973.001 21.3913 972.927 21.4184V30.1966C973.064 30.2101 973.176 30.2293 973.288 30.2293C975.023 30.2271 976.759 30.2553 978.492 30.2045C979.304 30.1808 980.118 30.0363 980.919 29.8884C982.091 29.6739 982.789 28.9085 982.965 27.7684C983.109 26.8325 983.183 25.8662 983.122 24.9236C982.971 22.6082 982.277 21.8959 979.999 21.5008V21.4997Z" fill="#357EFE"/>
<path d="M975.999 0C958.327 0 944 14.3267 944 31.9994C944 49.6722 958.327 63.9989 975.999 63.9989C993.672 63.9989 1008 49.6722 1008 31.9994C1008 14.3267 993.673 0 975.999 0ZM991.359 29.8636C990.796 33.301 988.633 35.2066 985.334 35.9584C982.94 36.5037 980.5 36.5048 978.065 36.5274C976.372 36.5432 974.68 36.5308 972.921 36.5308V39.3745C973.142 39.3745 973.348 39.3745 973.554 39.3745C975.893 39.3745 978.232 39.3722 980.573 39.3756C981.438 39.3767 981.587 39.5336 981.59 40.3984C981.591 41.2563 981.591 42.1143 981.59 42.9711C981.589 43.8392 981.441 43.9984 980.578 44.0006C978.258 44.0063 975.938 44.0029 973.619 44.0029C973.408 44.0029 973.196 44.0029 972.9 44.0029C972.9 44.2546 972.9 44.4601 972.9 44.6667C972.9 46.1478 972.905 47.63 972.896 49.1111C972.892 49.8212 972.766 49.9623 972.095 49.9645C969.814 49.9736 967.533 49.9612 965.252 49.9725C964.682 49.9747 964.455 49.7399 964.464 49.1642C964.487 47.6831 964.471 46.2008 964.471 44.7197C964.471 44.5086 964.471 44.2987 964.471 43.9927C963.532 43.9927 962.645 43.9927 961.757 43.9927C960.771 43.9927 960.279 43.4975 960.279 42.5071C960.279 41.7474 960.274 40.9865 960.281 40.2268C960.286 39.5765 960.461 39.3869 961.109 39.379C962.199 39.3654 963.289 39.3756 964.423 39.3756V34.7867C963.391 34.7867 962.365 34.7867 961.34 34.7867C960.377 34.7867 960.28 34.6873 960.279 33.7086C960.279 32.8506 960.275 31.9927 960.279 31.1358C960.282 30.3953 960.434 30.2384 961.164 30.235C962.235 30.2293 963.305 30.2339 964.467 30.2339V29.5238C964.467 24.8841 964.467 20.2443 964.467 15.6057C964.467 14.7026 964.569 14.5852 965.453 14.5502C969.932 14.3707 974.409 14.1506 978.888 14.0388C981.208 13.9813 983.511 14.2398 985.767 14.8753C988.695 15.7006 990.47 17.5926 991.155 20.5187C991.882 23.6163 991.87 26.7433 991.359 29.867V29.8636Z" fill="#357EFE"/>
</g>
<defs>
<clipPath id="clip0_3725_1238">
<rect width="64" height="64" fill="white"/>
</clipPath>
<clipPath id="clip1_3725_1238">
<rect width="64" height="64" fill="white" transform="translate(472)"/>
</clipPath>
<clipPath id="clip2_3725_1238">
<rect width="64" height="64" fill="white" transform="translate(944)"/>
</clipPath>
</defs>
</svg>
