<svg width="408" height="64" viewBox="0 0 408 64" fill="none" xmlns="http://www.w3.org/2000/svg">
<path d="M84.5256 26H80.571L86.5966 8.54545H91.3523L97.3693 26H93.4148L89.0426 12.5341H88.9062L84.5256 26ZM84.2784 19.1392H93.6193V22.0199H84.2784V19.1392ZM108.513 18.0057V20.8608H101.678V18.0057H108.513ZM102.871 12.9091V26H99.402V12.9091H102.871ZM110.788 12.9091V26H107.345V12.9091H110.788ZM117.338 26.2472C116.503 26.2472 115.759 26.1023 115.105 25.8125C114.452 25.517 113.935 25.0824 113.554 24.5085C113.179 23.929 112.991 23.2074 112.991 22.3438C112.991 21.6165 113.125 21.0057 113.392 20.5114C113.659 20.017 114.023 19.6193 114.483 19.3182C114.943 19.017 115.466 18.7898 116.051 18.6364C116.642 18.483 117.261 18.375 117.909 18.3125C118.67 18.233 119.284 18.1591 119.75 18.0909C120.216 18.017 120.554 17.9091 120.764 17.767C120.974 17.625 121.08 17.4148 121.08 17.1364V17.0852C121.08 16.5455 120.909 16.1278 120.568 15.8324C120.233 15.5369 119.756 15.3892 119.136 15.3892C118.483 15.3892 117.963 15.5341 117.577 15.8239C117.19 16.108 116.935 16.4659 116.81 16.8977L113.452 16.625C113.622 15.8295 113.957 15.142 114.457 14.5625C114.957 13.9773 115.602 13.5284 116.392 13.2159C117.188 12.8977 118.108 12.7386 119.153 12.7386C119.881 12.7386 120.577 12.8239 121.241 12.9943C121.912 13.1648 122.506 13.429 123.023 13.7869C123.545 14.1449 123.957 14.6051 124.259 15.1676C124.56 15.7244 124.71 16.392 124.71 17.1705V26H121.267V24.1847H121.165C120.955 24.5938 120.673 24.9545 120.321 25.267C119.969 25.5739 119.545 25.8153 119.051 25.9915C118.557 26.1619 117.986 26.2472 117.338 26.2472ZM118.378 23.7415C118.912 23.7415 119.384 23.6364 119.793 23.4261C120.202 23.2102 120.523 22.9205 120.756 22.5568C120.989 22.1932 121.105 21.7812 121.105 21.321V19.9318C120.991 20.0057 120.835 20.0739 120.636 20.1364C120.443 20.1932 120.224 20.2472 119.98 20.2983C119.736 20.3437 119.491 20.3864 119.247 20.4261C119.003 20.4602 118.781 20.4915 118.582 20.5199C118.156 20.5824 117.784 20.6818 117.466 20.8182C117.148 20.9545 116.901 21.1392 116.724 21.3722C116.548 21.5994 116.46 21.8835 116.46 22.2244C116.46 22.7188 116.639 23.0966 116.997 23.358C117.361 23.6136 117.821 23.7415 118.378 23.7415ZM126.76 26L126.743 23.1193H127.178C127.484 23.1193 127.749 23.0455 127.97 22.8977C128.197 22.7443 128.385 22.4972 128.533 22.1562C128.68 21.8153 128.797 21.3636 128.882 20.8011C128.967 20.233 129.024 19.5341 129.053 18.7045L129.266 12.9091H139.22V26H135.76V15.7642H132.53L132.325 19.7614C132.274 20.858 132.141 21.8011 131.925 22.5909C131.714 23.3807 131.422 24.0284 131.047 24.5341C130.672 25.0341 130.22 25.4034 129.692 25.642C129.163 25.8807 128.55 26 127.851 26H126.76ZM145.504 21.2102L150.217 12.9091H153.796V26H150.336V17.6733L145.64 26H142.035V12.9091H145.504V21.2102ZM156.033 22.2926H159.553C159.57 22.7244 159.763 23.0653 160.133 23.3153C160.502 23.5653 160.979 23.6903 161.565 23.6903C162.156 23.6903 162.653 23.554 163.056 23.2812C163.46 23.0028 163.661 22.6051 163.661 22.0881C163.661 21.7699 163.582 21.4943 163.423 21.2614C163.263 21.0227 163.042 20.8352 162.758 20.6989C162.474 20.5625 162.144 20.4943 161.769 20.4943H159.886V18.1165H161.769C162.332 18.1165 162.763 17.9858 163.065 17.7244C163.371 17.4631 163.525 17.1364 163.525 16.7443C163.525 16.3011 163.366 15.946 163.048 15.679C162.735 15.4062 162.312 15.2699 161.778 15.2699C161.238 15.2699 160.789 15.392 160.431 15.6364C160.079 15.875 159.897 16.1875 159.886 16.5739H156.383C156.394 15.7898 156.63 15.1108 157.09 14.5369C157.556 13.9631 158.181 13.5199 158.965 13.2074C159.755 12.8949 160.638 12.7386 161.616 12.7386C162.684 12.7386 163.604 12.8892 164.377 13.1903C165.156 13.4858 165.752 13.9091 166.167 14.4602C166.587 15.0114 166.798 15.6676 166.798 16.429C166.798 17.1222 166.57 17.7017 166.116 18.1676C165.661 18.6335 165.025 18.9659 164.207 19.1648V19.3011C164.746 19.3352 165.235 19.4801 165.673 19.7358C166.11 19.9915 166.46 20.3437 166.721 20.7926C166.982 21.2358 167.113 21.7614 167.113 22.3693C167.113 23.1818 166.874 23.8778 166.397 24.4574C165.925 25.0369 165.272 25.483 164.437 25.7955C163.607 26.1023 162.656 26.2557 161.582 26.2557C160.536 26.2557 159.599 26.1051 158.769 25.804C157.945 25.4972 157.289 25.0483 156.8 24.4574C156.317 23.8665 156.062 23.1449 156.033 22.2926ZM174.894 26V12.9091H186.34V26H182.871V15.7642H178.32V26H174.894ZM189.238 30.9091V12.9091H192.817V15.108H192.979C193.138 14.7557 193.369 14.3977 193.67 14.0341C193.977 13.6648 194.374 13.358 194.863 13.1136C195.357 12.8636 195.971 12.7386 196.704 12.7386C197.658 12.7386 198.539 12.9886 199.346 13.4886C200.153 13.983 200.798 14.7301 201.281 15.7301C201.763 16.7244 202.005 17.9716 202.005 19.4716C202.005 20.9318 201.769 22.1648 201.298 23.1705C200.832 24.1705 200.195 24.929 199.388 25.446C198.587 25.9574 197.69 26.2131 196.695 26.2131C195.991 26.2131 195.391 26.0966 194.897 25.8636C194.408 25.6307 194.008 25.3381 193.695 24.9858C193.383 24.6278 193.144 24.267 192.979 23.9034H192.869V30.9091H189.238ZM192.792 19.4545C192.792 20.233 192.9 20.9119 193.116 21.4915C193.332 22.071 193.644 22.5227 194.053 22.8466C194.462 23.1648 194.96 23.3239 195.545 23.3239C196.136 23.3239 196.636 23.1619 197.045 22.8381C197.454 22.5085 197.763 22.054 197.974 21.4744C198.19 20.8892 198.298 20.2159 198.298 19.4545C198.298 18.6989 198.192 18.0341 197.982 17.4602C197.772 16.8864 197.462 16.4375 197.053 16.1136C196.644 15.7898 196.141 15.6278 195.545 15.6278C194.954 15.6278 194.454 15.7841 194.045 16.0966C193.641 16.4091 193.332 16.8523 193.116 17.4261C192.9 18 192.792 18.6761 192.792 19.4545ZM207.894 21.2102L212.607 12.9091H216.187V26H212.727V17.6733L208.031 26H204.425V12.9091H207.894V21.2102ZM229.981 8.10227L231.089 10.4716C230.719 10.7784 230.31 11.0057 229.862 11.1534C229.413 11.2955 228.876 11.3892 228.251 11.4347C227.631 11.4801 226.876 11.5114 225.984 11.5284C224.972 11.5398 224.148 11.7017 223.512 12.0142C222.876 12.3267 222.393 12.8182 222.063 13.4886C221.734 14.1534 221.518 15.0227 221.415 16.0966H221.543C221.935 15.2955 222.487 14.6761 223.197 14.2386C223.913 13.8011 224.796 13.5824 225.847 13.5824C226.961 13.5824 227.935 13.8267 228.771 14.3153C229.612 14.804 230.265 15.5057 230.731 16.4205C231.197 17.3352 231.43 18.4318 231.43 19.7102C231.43 21.0398 231.168 22.196 230.646 23.179C230.129 24.1562 229.393 24.9148 228.438 25.4545C227.484 25.9886 226.347 26.2557 225.029 26.2557C223.705 26.2557 222.563 25.9773 221.603 25.4205C220.648 24.8636 219.91 24.0426 219.387 22.9574C218.87 21.8722 218.612 20.5369 218.612 18.9517V17.8778C218.612 14.7244 219.225 12.3864 220.452 10.8636C221.68 9.34091 223.484 8.56818 225.864 8.54545C226.512 8.53409 227.097 8.53125 227.62 8.53693C228.143 8.54261 228.6 8.51705 228.992 8.46023C229.39 8.40341 229.719 8.28409 229.981 8.10227ZM225.046 23.4432C225.603 23.4432 226.08 23.2983 226.478 23.0085C226.881 22.7187 227.191 22.304 227.407 21.7642C227.629 21.2244 227.739 20.5795 227.739 19.8295C227.739 19.0852 227.629 18.4545 227.407 17.9375C227.191 17.4148 226.881 17.017 226.478 16.7443C226.075 16.4716 225.592 16.3352 225.029 16.3352C224.609 16.3352 224.231 16.4119 223.896 16.5653C223.56 16.7187 223.273 16.946 223.035 17.2472C222.802 17.5426 222.62 17.9091 222.489 18.3466C222.364 18.7784 222.302 19.2727 222.302 19.8295C222.302 20.9489 222.543 21.8324 223.026 22.4801C223.515 23.1222 224.188 23.4432 225.046 23.4432ZM236.115 16.9318H240.027C241.76 16.9318 243.112 17.3466 244.084 18.1761C245.055 19 245.541 20.1023 245.541 21.483C245.541 22.3807 245.322 23.1705 244.885 23.8523C244.447 24.5284 243.817 25.0568 242.993 25.4375C242.169 25.8125 241.18 26 240.027 26H233.839V12.9091H237.308V23.1449H240.027C240.635 23.1449 241.135 22.9915 241.527 22.6847C241.919 22.3778 242.118 21.9858 242.124 21.5085C242.118 21.0028 241.919 20.5909 241.527 20.2727C241.135 19.9489 240.635 19.7869 240.027 19.7869H236.115V16.9318ZM246.947 26V12.9091H250.578V26H246.947ZM252.713 26L252.696 23.1193H253.131C253.438 23.1193 253.702 23.0455 253.923 22.8977C254.151 22.7443 254.338 22.4972 254.486 22.1562C254.634 21.8153 254.75 21.3636 254.835 20.8011C254.92 20.233 254.977 19.5341 255.006 18.7045L255.219 12.9091H265.173V26H261.713V15.7642H258.483L258.278 19.7614C258.227 20.858 258.094 21.8011 257.878 22.5909C257.668 23.3807 257.375 24.0284 257 24.5341C256.625 25.0341 256.173 25.4034 255.645 25.642C255.116 25.8807 254.503 26 253.804 26H252.713ZM271.457 21.2102L276.17 12.9091H279.749V26H276.289V17.6733L271.593 26H267.988V12.9091H271.457V21.2102ZM288.214 26V12.9091H299.661V26H296.192V15.7642H291.641V26H288.214ZM308.473 26.2557C307.149 26.2557 306.004 25.9744 305.038 25.4119C304.078 24.8437 303.337 24.054 302.814 23.0426C302.291 22.0256 302.03 20.8466 302.03 19.5057C302.03 18.1534 302.291 16.9716 302.814 15.9602C303.337 14.9432 304.078 14.1534 305.038 13.5909C306.004 13.0227 307.149 12.7386 308.473 12.7386C309.797 12.7386 310.939 13.0227 311.899 13.5909C312.865 14.1534 313.609 14.9432 314.132 15.9602C314.655 16.9716 314.916 18.1534 314.916 19.5057C314.916 20.8466 314.655 22.0256 314.132 23.0426C313.609 24.054 312.865 24.8437 311.899 25.4119C310.939 25.9744 309.797 26.2557 308.473 26.2557ZM308.49 23.4432C309.092 23.4432 309.595 23.2727 309.999 22.9318C310.402 22.5852 310.706 22.1136 310.911 21.517C311.121 20.9205 311.226 20.2415 311.226 19.4801C311.226 18.7188 311.121 18.0398 310.911 17.4432C310.706 16.8466 310.402 16.375 309.999 16.0284C309.595 15.6818 309.092 15.5085 308.49 15.5085C307.882 15.5085 307.371 15.6818 306.956 16.0284C306.547 16.375 306.237 16.8466 306.027 17.4432C305.822 18.0398 305.72 18.7188 305.72 19.4801C305.72 20.2415 305.822 20.9205 306.027 21.517C306.237 22.1136 306.547 22.5852 306.956 22.9318C307.371 23.2727 307.882 23.4432 308.49 23.4432ZM80.767 44.7642V41.9091H92.6307V44.7642H88.4119V55H84.9517V44.7642H80.767ZM100.278 55.2557C98.9538 55.2557 97.8089 54.9744 96.843 54.4119C95.8828 53.8437 95.1413 53.054 94.6186 52.0426C94.0959 51.0256 93.8345 49.8466 93.8345 48.5057C93.8345 47.1534 94.0959 45.9716 94.6186 44.9602C95.1413 43.9432 95.8828 43.1534 96.843 42.5909C97.8089 42.0227 98.9538 41.7386 100.278 41.7386C101.602 41.7386 102.744 42.0227 103.704 42.5909C104.67 43.1534 105.414 43.9432 105.937 44.9602C106.46 45.9716 106.721 47.1534 106.721 48.5057C106.721 49.8466 106.46 51.0256 105.937 52.0426C105.414 53.054 104.67 53.8437 103.704 54.4119C102.744 54.9744 101.602 55.2557 100.278 55.2557ZM100.295 52.4432C100.897 52.4432 101.4 52.2727 101.803 51.9318C102.207 51.5852 102.511 51.1136 102.715 50.517C102.925 49.9205 103.031 49.2415 103.031 48.4801C103.031 47.7188 102.925 47.0398 102.715 46.4432C102.511 45.8466 102.207 45.375 101.803 45.0284C101.4 44.6818 100.897 44.5085 100.295 44.5085C99.6868 44.5085 99.1754 44.6818 98.7607 45.0284C98.3516 45.375 98.0419 45.8466 97.8317 46.4432C97.6271 47.0398 97.5249 47.7188 97.5249 48.4801C97.5249 49.2415 97.6271 49.9205 97.8317 50.517C98.0419 51.1136 98.3516 51.5852 98.7607 51.9318C99.1754 52.2727 99.6868 52.4432 100.295 52.4432ZM109.082 55V41.9091H114.664C116.278 41.9091 117.553 42.2159 118.491 42.8295C119.428 43.4432 119.897 44.3153 119.897 45.446C119.897 46.1562 119.633 46.7472 119.104 47.2188C118.576 47.6903 117.843 48.0085 116.906 48.1733C117.69 48.2301 118.357 48.4091 118.908 48.7102C119.465 49.0057 119.888 49.3892 120.178 49.8608C120.474 50.3324 120.621 50.8551 120.621 51.429C120.621 52.1733 120.423 52.8125 120.025 53.3466C119.633 53.8807 119.056 54.2898 118.295 54.5739C117.539 54.858 116.616 55 115.525 55H109.082ZM112.465 52.2812H115.525C116.031 52.2812 116.425 52.1619 116.71 51.9233C116.999 51.679 117.144 51.3466 117.144 50.9261C117.144 50.4602 116.999 50.0937 116.71 49.8267C116.425 49.5597 116.031 49.4261 115.525 49.4261H112.465V52.2812ZM112.465 47.2955H114.741C115.104 47.2955 115.414 47.2443 115.67 47.142C115.931 47.0341 116.13 46.8807 116.266 46.6818C116.408 46.483 116.479 46.2472 116.479 45.9744C116.479 45.571 116.317 45.2557 115.994 45.0284C115.67 44.8011 115.227 44.6875 114.664 44.6875H112.465V47.2955ZM126.643 55.2472C125.808 55.2472 125.063 55.1023 124.41 54.8125C123.756 54.517 123.239 54.0824 122.859 53.5085C122.484 52.929 122.296 52.2074 122.296 51.3438C122.296 50.6165 122.43 50.0057 122.697 49.5114C122.964 49.017 123.327 48.6193 123.788 48.3182C124.248 48.017 124.771 47.7898 125.356 47.6364C125.947 47.483 126.566 47.375 127.214 47.3125C127.975 47.233 128.589 47.1591 129.055 47.0909C129.521 47.017 129.859 46.9091 130.069 46.767C130.279 46.625 130.384 46.4148 130.384 46.1364V46.0852C130.384 45.5455 130.214 45.1278 129.873 44.8324C129.538 44.5369 129.06 44.3892 128.441 44.3892C127.788 44.3892 127.268 44.5341 126.881 44.8239C126.495 45.108 126.239 45.4659 126.114 45.8977L122.756 45.625C122.927 44.8295 123.262 44.142 123.762 43.5625C124.262 42.9773 124.907 42.5284 125.697 42.2159C126.492 41.8977 127.413 41.7386 128.458 41.7386C129.185 41.7386 129.881 41.8239 130.546 41.9943C131.217 42.1648 131.81 42.429 132.327 42.7869C132.85 43.1449 133.262 43.6051 133.563 44.1676C133.864 44.7244 134.015 45.392 134.015 46.1705V55H130.572V53.1847H130.469C130.259 53.5938 129.978 53.9545 129.626 54.267C129.273 54.5739 128.85 54.8153 128.356 54.9915C127.862 55.1619 127.29 55.2472 126.643 55.2472ZM127.683 52.7415C128.217 52.7415 128.688 52.6364 129.097 52.4261C129.506 52.2102 129.827 51.9205 130.06 51.5568C130.293 51.1932 130.41 50.7812 130.41 50.321V48.9318C130.296 49.0057 130.14 49.0739 129.941 49.1364C129.748 49.1932 129.529 49.2472 129.285 49.2983C129.04 49.3437 128.796 49.3864 128.552 49.4261C128.308 49.4602 128.086 49.4915 127.887 49.5199C127.461 49.5824 127.089 49.6818 126.771 49.8182C126.452 49.9545 126.205 50.1392 126.029 50.3722C125.853 50.5994 125.765 50.8835 125.765 51.2244C125.765 51.7188 125.944 52.0966 126.302 52.358C126.665 52.6136 127.126 52.7415 127.683 52.7415ZM136.832 59.9091V41.9091H140.411V44.108H140.573C140.732 43.7557 140.962 43.3977 141.263 43.0341C141.57 42.6648 141.968 42.358 142.457 42.1136C142.951 41.8636 143.565 41.7386 144.298 41.7386C145.252 41.7386 146.133 41.9886 146.94 42.4886C147.746 42.983 148.391 43.7301 148.874 44.7301C149.357 45.7244 149.599 46.9716 149.599 48.4716C149.599 49.9318 149.363 51.1648 148.891 52.1705C148.425 53.1705 147.789 53.929 146.982 54.446C146.181 54.9574 145.283 55.2131 144.289 55.2131C143.585 55.2131 142.985 55.0966 142.491 54.8636C142.002 54.6307 141.602 54.3381 141.289 53.9858C140.977 53.6278 140.738 53.267 140.573 52.9034H140.462V59.9091H136.832ZM140.386 48.4545C140.386 49.233 140.494 49.9119 140.71 50.4915C140.925 51.071 141.238 51.5227 141.647 51.8466C142.056 52.1648 142.553 52.3239 143.138 52.3239C143.729 52.3239 144.229 52.1619 144.638 51.8381C145.048 51.5085 145.357 51.054 145.567 50.4744C145.783 49.8892 145.891 49.2159 145.891 48.4545C145.891 47.6989 145.786 47.0341 145.576 46.4602C145.366 45.8864 145.056 45.4375 144.647 45.1136C144.238 44.7898 143.735 44.6278 143.138 44.6278C142.548 44.6278 142.048 44.7841 141.638 45.0966C141.235 45.4091 140.925 45.8523 140.71 46.4261C140.494 47 140.386 47.6761 140.386 48.4545ZM155.752 55.2472C154.917 55.2472 154.173 55.1023 153.519 54.8125C152.866 54.517 152.349 54.0824 151.968 53.5085C151.593 52.929 151.406 52.2074 151.406 51.3438C151.406 50.6165 151.539 50.0057 151.806 49.5114C152.073 49.017 152.437 48.6193 152.897 48.3182C153.357 48.017 153.88 47.7898 154.465 47.6364C155.056 47.483 155.675 47.375 156.323 47.3125C157.085 47.233 157.698 47.1591 158.164 47.0909C158.63 47.017 158.968 46.9091 159.178 46.767C159.388 46.625 159.494 46.4148 159.494 46.1364V46.0852C159.494 45.5455 159.323 45.1278 158.982 44.8324C158.647 44.5369 158.17 44.3892 157.55 44.3892C156.897 44.3892 156.377 44.5341 155.991 44.8239C155.604 45.108 155.349 45.4659 155.224 45.8977L151.866 45.625C152.036 44.8295 152.371 44.142 152.871 43.5625C153.371 42.9773 154.016 42.5284 154.806 42.2159C155.602 41.8977 156.522 41.7386 157.567 41.7386C158.295 41.7386 158.991 41.8239 159.656 41.9943C160.326 42.1648 160.92 42.429 161.437 42.7869C161.96 43.1449 162.371 43.6051 162.673 44.1676C162.974 44.7244 163.124 45.392 163.124 46.1705V55H159.681V53.1847H159.579C159.369 53.5938 159.087 53.9545 158.735 54.267C158.383 54.5739 157.96 54.8153 157.465 54.9915C156.971 55.1619 156.4 55.2472 155.752 55.2472ZM156.792 52.7415C157.326 52.7415 157.798 52.6364 158.207 52.4261C158.616 52.2102 158.937 51.9205 159.17 51.5568C159.403 51.1932 159.519 50.7812 159.519 50.321V48.9318C159.406 49.0057 159.249 49.0739 159.05 49.1364C158.857 49.1932 158.638 49.2472 158.394 49.2983C158.15 49.3437 157.906 49.3864 157.661 49.4261C157.417 49.4602 157.195 49.4915 156.996 49.5199C156.57 49.5824 156.198 49.6818 155.88 49.8182C155.562 49.9545 155.315 50.1392 155.138 50.3722C154.962 50.5994 154.874 50.8835 154.874 51.2244C154.874 51.7188 155.053 52.0966 155.411 52.358C155.775 52.6136 156.235 52.7415 156.792 52.7415ZM173.68 50.9858L177.225 41.9091H179.987L174.881 55H172.469L167.484 41.9091H170.237L173.68 50.9858ZM169.41 41.9091V55H165.941V41.9091H169.41ZM178.129 55V41.9091H181.555V55H178.129ZM193.386 50.2102L198.099 41.9091H201.679V55H198.219V46.6733L193.523 55H189.918V41.9091H193.386V50.2102ZM221.028 37.1023L222.136 39.4716C221.766 39.7784 221.357 40.0057 220.908 40.1534C220.46 40.2955 219.923 40.3892 219.298 40.4347C218.678 40.4801 217.923 40.5114 217.031 40.5284C216.019 40.5398 215.195 40.7017 214.559 41.0142C213.923 41.3267 213.44 41.8182 213.11 42.4886C212.781 43.1534 212.565 44.0227 212.462 45.0966H212.59C212.982 44.2955 213.533 43.6761 214.244 43.2386C214.96 42.8011 215.843 42.5824 216.894 42.5824C218.008 42.5824 218.982 42.8267 219.817 43.3153C220.658 43.804 221.312 44.5057 221.778 45.4205C222.244 46.3352 222.477 47.4318 222.477 48.7102C222.477 50.0398 222.215 51.196 221.692 52.179C221.175 53.1562 220.44 53.9148 219.485 54.4545C218.531 54.9886 217.394 55.2557 216.076 55.2557C214.752 55.2557 213.61 54.9773 212.65 54.4205C211.695 53.8636 210.957 53.0426 210.434 51.9574C209.917 50.8722 209.658 49.5369 209.658 47.9517V46.8778C209.658 43.7244 210.272 41.3864 211.499 39.8636C212.727 38.3409 214.531 37.5682 216.911 37.5455C217.559 37.5341 218.144 37.5312 218.667 37.5369C219.19 37.5426 219.647 37.517 220.039 37.4602C220.437 37.4034 220.766 37.2841 221.028 37.1023ZM216.093 52.4432C216.65 52.4432 217.127 52.2983 217.525 52.0085C217.928 51.7187 218.238 51.304 218.454 50.7642C218.675 50.2244 218.786 49.5795 218.786 48.8295C218.786 48.0852 218.675 47.4545 218.454 46.9375C218.238 46.4148 217.928 46.017 217.525 45.7443C217.121 45.4716 216.638 45.3352 216.076 45.3352C215.656 45.3352 215.278 45.4119 214.942 45.5653C214.607 45.7187 214.32 45.946 214.082 46.2472C213.849 46.5426 213.667 46.9091 213.536 47.3466C213.411 47.7784 213.349 48.2727 213.349 48.8295C213.349 49.9489 213.59 50.8324 214.073 51.4801C214.562 52.1222 215.235 52.4432 216.093 52.4432ZM224.886 59.9091V41.9091H228.466V44.108H228.628C228.787 43.7557 229.017 43.3977 229.318 43.0341C229.625 42.6648 230.023 42.358 230.511 42.1136C231.006 41.8636 231.619 41.7386 232.352 41.7386C233.307 41.7386 234.188 41.9886 234.994 42.4886C235.801 42.983 236.446 43.7301 236.929 44.7301C237.412 45.7244 237.653 46.9716 237.653 48.4716C237.653 49.9318 237.418 51.1648 236.946 52.1705C236.48 53.1705 235.844 53.929 235.037 54.446C234.236 54.9574 233.338 55.2131 232.344 55.2131C231.639 55.2131 231.04 55.0966 230.545 54.8636C230.057 54.6307 229.656 54.3381 229.344 53.9858C229.031 53.6278 228.793 53.267 228.628 52.9034H228.517V59.9091H224.886ZM228.44 48.4545C228.44 49.233 228.548 49.9119 228.764 50.4915C228.98 51.071 229.293 51.5227 229.702 51.8466C230.111 52.1648 230.608 52.3239 231.193 52.3239C231.784 52.3239 232.284 52.1619 232.693 51.8381C233.102 51.5085 233.412 51.054 233.622 50.4744C233.838 49.8892 233.946 49.2159 233.946 48.4545C233.946 47.6989 233.841 47.0341 233.631 46.4602C233.42 45.8864 233.111 45.4375 232.702 45.1136C232.293 44.7898 231.79 44.6278 231.193 44.6278C230.602 44.6278 230.102 44.7841 229.693 45.0966C229.29 45.4091 228.98 45.8523 228.764 46.4261C228.548 47 228.44 47.6761 228.44 48.4545ZM246.04 55.2557C244.693 55.2557 243.534 54.983 242.562 54.4375C241.597 53.8864 240.852 53.108 240.33 52.1023C239.807 51.0909 239.545 49.8949 239.545 48.5142C239.545 47.1676 239.807 45.9858 240.33 44.9688C240.852 43.9517 241.588 43.1591 242.537 42.5909C243.491 42.0227 244.611 41.7386 245.895 41.7386C246.759 41.7386 247.563 41.8778 248.307 42.1562C249.057 42.429 249.71 42.8409 250.267 43.392C250.83 43.9432 251.267 44.6364 251.58 45.4716C251.892 46.3011 252.048 47.2727 252.048 48.3864V49.3835H240.994V47.1335H248.631C248.631 46.6108 248.517 46.1477 248.29 45.7443C248.063 45.3409 247.747 45.0256 247.344 44.7983C246.946 44.5653 246.483 44.4489 245.955 44.4489C245.403 44.4489 244.915 44.5767 244.489 44.8324C244.068 45.0824 243.739 45.4205 243.5 45.8466C243.261 46.267 243.139 46.7358 243.134 47.2528V49.392C243.134 50.0398 243.253 50.5994 243.491 51.071C243.736 51.5426 244.08 51.9062 244.523 52.1619C244.966 52.4176 245.491 52.5455 246.099 52.5455C246.503 52.5455 246.872 52.4886 247.207 52.375C247.543 52.2614 247.83 52.0909 248.068 51.8636C248.307 51.6364 248.489 51.358 248.614 51.0284L251.972 51.25C251.801 52.0568 251.452 52.7614 250.923 53.3636C250.401 53.9602 249.724 54.4261 248.895 54.7614C248.071 55.0909 247.119 55.2557 246.04 55.2557ZM263.528 47.0057V49.8608H256.693V47.0057H263.528ZM257.886 41.9091V55H254.418V41.9091H257.886ZM265.804 41.9091V55H262.361V41.9091H265.804ZM267.598 58.8352V52.1193H268.604C268.893 51.9375 269.126 51.6477 269.303 51.25C269.484 50.8523 269.632 50.3835 269.746 49.8438C269.865 49.304 269.956 48.7216 270.018 48.0966C270.087 47.4659 270.146 46.8295 270.197 46.1875L270.538 41.9091H280.578V52.1193H282.607V58.8352H279.146V55H271.143V58.8352H267.598ZM272.217 52.1193H277.152V44.7045H273.624L273.487 46.1875C273.391 47.5852 273.251 48.7727 273.07 49.75C272.888 50.7216 272.604 51.5114 272.217 52.1193ZM288.455 55.2472C287.62 55.2472 286.876 55.1023 286.222 54.8125C285.569 54.517 285.052 54.0824 284.671 53.5085C284.296 52.929 284.109 52.2074 284.109 51.3438C284.109 50.6165 284.242 50.0057 284.509 49.5114C284.776 49.017 285.14 48.6193 285.6 48.3182C286.06 48.017 286.583 47.7898 287.168 47.6364C287.759 47.483 288.379 47.375 289.026 47.3125C289.788 47.233 290.401 47.1591 290.867 47.0909C291.333 47.017 291.671 46.9091 291.881 46.767C292.092 46.625 292.197 46.4148 292.197 46.1364V46.0852C292.197 45.5455 292.026 45.1278 291.685 44.8324C291.35 44.5369 290.873 44.3892 290.254 44.3892C289.6 44.3892 289.08 44.5341 288.694 44.8239C288.308 45.108 288.052 45.4659 287.927 45.8977L284.569 45.625C284.739 44.8295 285.075 44.142 285.575 43.5625C286.075 42.9773 286.719 42.5284 287.509 42.2159C288.305 41.8977 289.225 41.7386 290.271 41.7386C290.998 41.7386 291.694 41.8239 292.359 41.9943C293.029 42.1648 293.623 42.429 294.14 42.7869C294.663 43.1449 295.075 43.6051 295.376 44.1676C295.677 44.7244 295.827 45.392 295.827 46.1705V55H292.384V53.1847H292.282C292.072 53.5938 291.79 53.9545 291.438 54.267C291.086 54.5739 290.663 54.8153 290.168 54.9915C289.674 55.1619 289.103 55.2472 288.455 55.2472ZM289.495 52.7415C290.029 52.7415 290.501 52.6364 290.91 52.4261C291.319 52.2102 291.64 51.9205 291.873 51.5568C292.106 51.1932 292.222 50.7812 292.222 50.321V48.9318C292.109 49.0057 291.952 49.0739 291.754 49.1364C291.56 49.1932 291.342 49.2472 291.097 49.2983C290.853 49.3437 290.609 49.3864 290.364 49.4261C290.12 49.4602 289.898 49.4915 289.7 49.5199C289.273 49.5824 288.901 49.6818 288.583 49.8182C288.265 49.9545 288.018 50.1392 287.842 50.3722C287.665 50.5994 287.577 50.8835 287.577 51.2244C287.577 51.7188 287.756 52.0966 288.114 52.358C288.478 52.6136 288.938 52.7415 289.495 52.7415ZM306.383 50.9858L309.928 41.9091H312.69L307.585 55H305.173L300.187 41.9091H302.94L306.383 50.9858ZM302.113 41.9091V55H298.644V41.9091H302.113ZM310.832 55V41.9091H314.258V55H310.832Z" fill="black"/>
<g clip-path="url(#clip0_1_1031)">
<path d="M31.9994 0C14.3267 0 0 14.3267 0 31.9994C0 49.6722 14.3267 63.9989 31.9994 63.9989C49.6722 63.9989 63.9989 49.6722 63.9989 31.9994C63.9989 14.3267 49.6733 0 31.9994 0ZM21.8315 50.6317C19.2114 50.6351 16.5913 50.6351 13.9722 50.6317C13.0567 50.6306 12.5058 50.0741 12.5047 49.1506C12.5013 46.9346 12.5047 44.7186 12.5047 42.5026C12.5047 40.3001 12.5036 38.0988 12.5047 35.8964C12.5047 34.9086 13.0353 34.3724 14.014 34.3724C16.6195 34.3701 19.2261 34.3701 21.8315 34.3724C22.7764 34.3724 23.3206 34.921 23.3217 35.8738C23.3239 40.2922 23.3239 44.7096 23.3217 49.128C23.3217 50.0797 22.7753 50.6306 21.8327 50.6317H21.8315ZM35.2698 50.6317C32.7061 50.6317 30.1424 50.6328 27.5787 50.6317C26.5503 50.6317 26.0265 50.1011 26.0265 49.0648C26.0265 43.2488 26.0265 37.4339 26.0265 31.6179C26.0265 25.8583 26.0265 20.0998 26.0265 14.3403C26.0265 13.1764 26.5097 12.6887 27.6634 12.6887C30.1989 12.6887 32.7343 12.6887 35.2698 12.6887C36.3298 12.6887 36.8446 13.2069 36.8446 14.2759C36.8446 25.8651 36.8446 37.4542 36.8446 49.0434C36.8446 50.109 36.3265 50.6317 35.271 50.6328L35.2698 50.6317ZM50.3664 49.1168C50.3664 50.0899 49.8212 50.6306 48.8458 50.6317C46.2539 50.634 43.662 50.634 41.0712 50.6317C40.0913 50.6317 39.5506 50.0932 39.5506 49.1179C39.5494 45.1092 39.5506 41.1005 39.5506 37.0918C39.5506 33.1114 39.5506 29.1309 39.5506 25.1505C39.5506 24.0227 40.045 23.5305 41.1773 23.5305C43.7263 23.5305 46.2765 23.5305 48.8255 23.5305C49.8336 23.5305 50.3676 24.0611 50.3687 25.0647C50.3687 33.082 50.3698 41.1005 50.3687 49.1179L50.3664 49.1168Z" fill="#357EFE"/>
</g>
<defs>
<clipPath id="clip0_1_1031">
<rect width="64" height="64" fill="white"/>
</clipPath>
</defs>
</svg>
