<svg width="389" height="278" viewBox="0 0 389 278" fill="none" xmlns="http://www.w3.org/2000/svg">
<path d="M2.29545 141V117.727H6.51136V127.58H17.2955V117.727H21.5227V141H17.2955V131.114H6.51136V141H2.29545ZM33.6534 141.341C31.9034 141.341 30.392 140.977 29.1193 140.25C27.8542 139.515 26.8807 138.477 26.1989 137.136C25.517 135.788 25.1761 134.201 25.1761 132.375C25.1761 130.58 25.517 129.004 26.1989 127.648C26.8883 126.284 27.8504 125.223 29.0852 124.466C30.3201 123.701 31.7708 123.318 33.4375 123.318C34.5133 123.318 35.5284 123.492 36.483 123.841C37.4451 124.182 38.2936 124.712 39.0284 125.432C39.7708 126.152 40.3542 127.068 40.7784 128.182C41.2027 129.288 41.4148 130.606 41.4148 132.136V133.398H27.108V130.625H37.4716C37.464 129.837 37.2936 129.136 36.9602 128.523C36.6269 127.902 36.161 127.413 35.5625 127.057C34.9716 126.701 34.2822 126.523 33.4943 126.523C32.6534 126.523 31.9148 126.727 31.2784 127.136C30.642 127.538 30.1458 128.068 29.7898 128.727C29.4413 129.379 29.2633 130.095 29.2557 130.875V133.295C29.2557 134.311 29.4413 135.182 29.8125 135.909C30.1837 136.629 30.7027 137.182 31.3693 137.568C32.036 137.947 32.8163 138.136 33.7102 138.136C34.3087 138.136 34.8504 138.053 35.3352 137.886C35.8201 137.712 36.2405 137.458 36.5966 137.125C36.9527 136.792 37.2216 136.379 37.4034 135.886L41.2443 136.318C41.0019 137.333 40.5398 138.22 39.858 138.977C39.1837 139.727 38.3201 140.311 37.267 140.727C36.214 141.136 35.0095 141.341 33.6534 141.341ZM52.8324 141V123.545H67.571V141H63.6051V126.92H56.7642V141H52.8324ZM79.5284 141.341C77.7784 141.341 76.267 140.977 74.9943 140.25C73.7292 139.515 72.7557 138.477 72.0739 137.136C71.392 135.788 71.0511 134.201 71.0511 132.375C71.0511 130.58 71.392 129.004 72.0739 127.648C72.7633 126.284 73.7254 125.223 74.9602 124.466C76.1951 123.701 77.6458 123.318 79.3125 123.318C80.3883 123.318 81.4034 123.492 82.358 123.841C83.3201 124.182 84.1686 124.712 84.9034 125.432C85.6458 126.152 86.2292 127.068 86.6534 128.182C87.0777 129.288 87.2898 130.606 87.2898 132.136V133.398H72.983V130.625H83.3466C83.339 129.837 83.1686 129.136 82.8352 128.523C82.5019 127.902 82.036 127.413 81.4375 127.057C80.8466 126.701 80.1572 126.523 79.3693 126.523C78.5284 126.523 77.7898 126.727 77.1534 127.136C76.517 127.538 76.0208 128.068 75.6648 128.727C75.3163 129.379 75.1383 130.095 75.1307 130.875V133.295C75.1307 134.311 75.3163 135.182 75.6875 135.909C76.0587 136.629 76.5777 137.182 77.2443 137.568C77.911 137.947 78.6913 138.136 79.5852 138.136C80.1837 138.136 80.7254 138.053 81.2102 137.886C81.6951 137.712 82.1155 137.458 82.4716 137.125C82.8277 136.792 83.0966 136.379 83.2784 135.886L87.1193 136.318C86.8769 137.333 86.4148 138.22 85.733 138.977C85.0587 139.727 84.1951 140.311 83.142 140.727C82.089 141.136 80.8845 141.341 79.5284 141.341ZM90.7699 147.545V123.545H94.8153V126.432H95.054C95.2661 126.008 95.5653 125.557 95.9517 125.08C96.3381 124.595 96.8608 124.182 97.5199 123.841C98.179 123.492 99.0199 123.318 100.043 123.318C101.391 123.318 102.607 123.663 103.69 124.352C104.781 125.034 105.645 126.045 106.281 127.386C106.925 128.72 107.247 130.356 107.247 132.295C107.247 134.212 106.933 135.841 106.304 137.182C105.675 138.523 104.819 139.545 103.736 140.25C102.652 140.955 101.425 141.307 100.054 141.307C99.054 141.307 98.2244 141.14 97.5653 140.807C96.9063 140.473 96.3759 140.072 95.9744 139.602C95.5805 139.125 95.2737 138.674 95.054 138.25H94.8835V147.545H90.7699ZM94.804 132.273C94.804 133.402 94.9631 134.39 95.2812 135.239C95.607 136.087 96.0729 136.75 96.679 137.227C97.2926 137.697 98.035 137.932 98.9062 137.932C99.8153 137.932 100.577 137.689 101.19 137.205C101.804 136.712 102.266 136.042 102.577 135.193C102.895 134.337 103.054 133.364 103.054 132.273C103.054 131.189 102.899 130.227 102.588 129.386C102.277 128.545 101.815 127.886 101.202 127.409C100.588 126.932 99.8229 126.693 98.9062 126.693C98.0275 126.693 97.2812 126.924 96.6676 127.386C96.054 127.848 95.5881 128.496 95.2699 129.33C94.9593 130.163 94.804 131.144 94.804 132.273ZM118.497 141.341C116.747 141.341 115.236 140.977 113.963 140.25C112.698 139.515 111.724 138.477 111.043 137.136C110.361 135.788 110.02 134.201 110.02 132.375C110.02 130.58 110.361 129.004 111.043 127.648C111.732 126.284 112.694 125.223 113.929 124.466C115.164 123.701 116.615 123.318 118.281 123.318C119.357 123.318 120.372 123.492 121.327 123.841C122.289 124.182 123.137 124.712 123.872 125.432C124.615 126.152 125.198 127.068 125.622 128.182C126.046 129.288 126.259 130.606 126.259 132.136V133.398H111.952V130.625H122.315C122.308 129.837 122.137 129.136 121.804 128.523C121.471 127.902 121.005 127.413 120.406 127.057C119.815 126.701 119.126 126.523 118.338 126.523C117.497 126.523 116.759 126.727 116.122 127.136C115.486 127.538 114.99 128.068 114.634 128.727C114.285 129.379 114.107 130.095 114.099 130.875V133.295C114.099 134.311 114.285 135.182 114.656 135.909C115.027 136.629 115.546 137.182 116.213 137.568C116.88 137.947 117.66 138.136 118.554 138.136C119.152 138.136 119.694 138.053 120.179 137.886C120.664 137.712 121.084 137.458 121.44 137.125C121.796 136.792 122.065 136.379 122.247 135.886L126.088 136.318C125.846 137.333 125.384 138.22 124.702 138.977C124.027 139.727 123.164 140.311 122.111 140.727C121.058 141.136 119.853 141.341 118.497 141.341ZM128.193 146.068V137.614H129.58C129.951 137.326 130.261 136.936 130.511 136.443C130.761 135.943 130.966 135.356 131.125 134.682C131.292 134 131.428 133.239 131.534 132.398C131.64 131.549 131.735 130.636 131.818 129.659L132.318 123.545H144.932V137.614H147.636V146.068H143.659V141H132.239V146.068H128.193ZM133.807 137.614H141V126.864H135.886L135.614 129.659C135.462 131.508 135.261 133.091 135.011 134.409C134.761 135.727 134.36 136.795 133.807 137.614ZM155.73 141.352C154.624 141.352 153.628 141.155 152.741 140.761C151.863 140.36 151.166 139.769 150.651 138.989C150.143 138.208 149.889 137.246 149.889 136.102C149.889 135.117 150.071 134.303 150.435 133.659C150.798 133.015 151.295 132.5 151.923 132.114C152.552 131.727 153.26 131.436 154.048 131.239C154.844 131.034 155.666 130.886 156.514 130.795C157.537 130.689 158.366 130.595 159.003 130.511C159.639 130.42 160.101 130.284 160.389 130.102C160.685 129.913 160.832 129.621 160.832 129.227V129.159C160.832 128.303 160.579 127.64 160.071 127.17C159.563 126.701 158.832 126.466 157.878 126.466C156.87 126.466 156.071 126.686 155.48 127.125C154.897 127.564 154.503 128.083 154.298 128.682L150.457 128.136C150.76 127.076 151.26 126.189 151.957 125.477C152.654 124.758 153.507 124.22 154.514 123.864C155.522 123.5 156.635 123.318 157.855 123.318C158.696 123.318 159.533 123.417 160.366 123.614C161.2 123.811 161.961 124.136 162.651 124.591C163.34 125.038 163.893 125.648 164.31 126.42C164.734 127.193 164.946 128.159 164.946 129.318V141H160.991V138.602H160.855C160.605 139.087 160.253 139.542 159.798 139.966C159.351 140.383 158.787 140.72 158.105 140.977C157.431 141.227 156.639 141.352 155.73 141.352ZM156.798 138.33C157.624 138.33 158.34 138.167 158.946 137.841C159.552 137.508 160.018 137.068 160.344 136.523C160.677 135.977 160.844 135.383 160.844 134.739V132.682C160.715 132.788 160.495 132.886 160.185 132.977C159.882 133.068 159.541 133.148 159.162 133.216C158.783 133.284 158.408 133.345 158.037 133.398C157.666 133.451 157.344 133.496 157.071 133.534C156.457 133.617 155.908 133.754 155.423 133.943C154.938 134.133 154.556 134.398 154.276 134.739C153.995 135.072 153.855 135.504 153.855 136.034C153.855 136.792 154.132 137.364 154.685 137.75C155.238 138.136 155.942 138.33 156.798 138.33ZM176.81 141.341C175.06 141.341 173.548 140.977 172.276 140.25C171.01 139.515 170.037 138.477 169.355 137.136C168.673 135.788 168.332 134.201 168.332 132.375C168.332 130.58 168.673 129.004 169.355 127.648C170.045 126.284 171.007 125.223 172.241 124.466C173.476 123.701 174.927 123.318 176.594 123.318C177.67 123.318 178.685 123.492 179.639 123.841C180.601 124.182 181.45 124.712 182.185 125.432C182.927 126.152 183.51 127.068 183.935 128.182C184.359 129.288 184.571 130.606 184.571 132.136V133.398H170.264V130.625H180.628C180.62 129.837 180.45 129.136 180.116 128.523C179.783 127.902 179.317 127.413 178.719 127.057C178.128 126.701 177.438 126.523 176.651 126.523C175.81 126.523 175.071 126.727 174.435 127.136C173.798 127.538 173.302 128.068 172.946 128.727C172.598 129.379 172.42 130.095 172.412 130.875V133.295C172.412 134.311 172.598 135.182 172.969 135.909C173.34 136.629 173.859 137.182 174.526 137.568C175.192 137.947 175.973 138.136 176.866 138.136C177.465 138.136 178.007 138.053 178.491 137.886C178.976 137.712 179.397 137.458 179.753 137.125C180.109 136.792 180.378 136.379 180.56 135.886L184.401 136.318C184.158 137.333 183.696 138.22 183.014 138.977C182.34 139.727 181.476 140.311 180.423 140.727C179.37 141.136 178.166 141.341 176.81 141.341ZM173.082 120.977C172.484 120.977 171.965 120.765 171.526 120.341C171.094 119.917 170.878 119.417 170.878 118.841C170.878 118.235 171.094 117.727 171.526 117.318C171.965 116.902 172.484 116.693 173.082 116.693C173.696 116.693 174.211 116.902 174.628 117.318C175.052 117.727 175.264 118.235 175.264 118.841C175.264 119.417 175.052 119.917 174.628 120.341C174.211 120.765 173.696 120.977 173.082 120.977ZM179.901 120.977C179.302 120.977 178.783 120.765 178.344 120.341C177.912 119.917 177.696 119.417 177.696 118.841C177.696 118.235 177.912 117.727 178.344 117.318C178.783 116.902 179.302 116.693 179.901 116.693C180.514 116.693 181.029 116.902 181.446 117.318C181.87 117.727 182.082 118.235 182.082 118.841C182.082 119.417 181.87 119.917 181.446 120.341C181.029 120.765 180.514 120.977 179.901 120.977ZM198.097 136.216L203.278 123.545H206.597L199.54 141H196.665L189.767 123.545H193.051L198.097 136.216ZM192.017 123.545V141H188.051V123.545H192.017ZM204.347 141V123.545H208.278V141H204.347ZM220.364 141V123.545H227.693C229.761 123.545 231.394 123.958 232.591 124.784C233.795 125.61 234.398 126.761 234.398 128.239C234.398 129.216 234.057 130.015 233.375 130.636C232.701 131.25 231.78 131.663 230.614 131.875C231.53 131.951 232.333 132.182 233.023 132.568C233.72 132.955 234.265 133.462 234.659 134.091C235.053 134.72 235.25 135.443 235.25 136.261C235.25 137.223 234.996 138.061 234.489 138.773C233.989 139.477 233.258 140.027 232.295 140.42C231.341 140.807 230.182 141 228.818 141H220.364ZM224.216 137.761H228.818C229.576 137.761 230.17 137.583 230.602 137.227C231.034 136.864 231.25 136.371 231.25 135.75C231.25 135.03 231.034 134.466 230.602 134.057C230.17 133.64 229.576 133.432 228.818 133.432H224.216V137.761ZM224.216 130.773H227.773C228.333 130.773 228.814 130.693 229.216 130.534C229.617 130.367 229.924 130.136 230.136 129.841C230.348 129.538 230.455 129.178 230.455 128.761C230.455 128.163 230.208 127.693 229.716 127.352C229.231 127.011 228.557 126.841 227.693 126.841H224.216V130.773ZM243.668 141.352C242.562 141.352 241.565 141.155 240.679 140.761C239.8 140.36 239.103 139.769 238.588 138.989C238.08 138.208 237.827 137.246 237.827 136.102C237.827 135.117 238.009 134.303 238.372 133.659C238.736 133.015 239.232 132.5 239.861 132.114C240.49 131.727 241.198 131.436 241.986 131.239C242.781 131.034 243.603 130.886 244.452 130.795C245.474 130.689 246.304 130.595 246.94 130.511C247.577 130.42 248.039 130.284 248.327 130.102C248.622 129.913 248.77 129.621 248.77 129.227V129.159C248.77 128.303 248.516 127.64 248.009 127.17C247.501 126.701 246.77 126.466 245.815 126.466C244.808 126.466 244.009 126.686 243.418 127.125C242.834 127.564 242.44 128.083 242.236 128.682L238.395 128.136C238.698 127.076 239.198 126.189 239.895 125.477C240.592 124.758 241.444 124.22 242.452 123.864C243.459 123.5 244.573 123.318 245.793 123.318C246.634 123.318 247.471 123.417 248.304 123.614C249.137 123.811 249.899 124.136 250.588 124.591C251.277 125.038 251.83 125.648 252.247 126.42C252.671 127.193 252.884 128.159 252.884 129.318V141H248.929V138.602H248.793C248.543 139.087 248.19 139.542 247.736 139.966C247.289 140.383 246.724 140.72 246.043 140.977C245.368 141.227 244.577 141.352 243.668 141.352ZM244.736 138.33C245.562 138.33 246.277 138.167 246.884 137.841C247.49 137.508 247.955 137.068 248.281 136.523C248.615 135.977 248.781 135.383 248.781 134.739V132.682C248.652 132.788 248.433 132.886 248.122 132.977C247.819 133.068 247.478 133.148 247.099 133.216C246.721 133.284 246.346 133.345 245.974 133.398C245.603 133.451 245.281 133.496 245.009 133.534C244.395 133.617 243.846 133.754 243.361 133.943C242.876 134.133 242.493 134.398 242.213 134.739C241.933 135.072 241.793 135.504 241.793 136.034C241.793 136.792 242.069 137.364 242.622 137.75C243.175 138.136 243.88 138.33 244.736 138.33ZM257.02 123.545H260.986V137.614H266.474V123.545H270.44V137.614H275.929V123.545H279.895V141H257.02V123.545ZM288.017 135.432L295.006 123.545H299.233V141H295.256V129.102L288.29 141H284.051V123.545H288.017V135.432ZM0.568182 184.068V175.614H1.95455C2.32576 175.326 2.63636 174.936 2.88636 174.443C3.13636 173.943 3.34091 173.356 3.5 172.682C3.66667 172 3.80303 171.239 3.90909 170.398C4.01515 169.549 4.10985 168.636 4.19318 167.659L4.69318 161.545H17.3068V175.614H20.0114V184.068H16.0341V179H4.61364V184.068H0.568182ZM6.18182 175.614H13.375V164.864H8.26136L7.98864 167.659C7.83712 169.508 7.63636 171.091 7.38636 172.409C7.13636 173.727 6.73485 174.795 6.18182 175.614ZM28.1051 179.352C26.9991 179.352 26.0028 179.155 25.1165 178.761C24.2377 178.36 23.5407 177.769 23.0256 176.989C22.518 176.208 22.2642 175.246 22.2642 174.102C22.2642 173.117 22.446 172.303 22.8097 171.659C23.1733 171.015 23.6695 170.5 24.2983 170.114C24.9271 169.727 25.6354 169.436 26.4233 169.239C27.2188 169.034 28.0407 168.886 28.8892 168.795C29.9119 168.689 30.7415 168.595 31.3778 168.511C32.0142 168.42 32.4763 168.284 32.7642 168.102C33.0597 167.913 33.2074 167.621 33.2074 167.227V167.159C33.2074 166.303 32.9536 165.64 32.446 165.17C31.9384 164.701 31.2074 164.466 30.2528 164.466C29.2453 164.466 28.446 164.686 27.8551 165.125C27.2718 165.564 26.8778 166.083 26.6733 166.682L22.8324 166.136C23.1354 165.076 23.6354 164.189 24.3324 163.477C25.0294 162.758 25.8816 162.22 26.8892 161.864C27.8968 161.5 29.0104 161.318 30.2301 161.318C31.071 161.318 31.9081 161.417 32.7415 161.614C33.5748 161.811 34.3362 162.136 35.0256 162.591C35.715 163.038 36.268 163.648 36.6847 164.42C37.1089 165.193 37.321 166.159 37.321 167.318V179H33.3665V176.602H33.2301C32.9801 177.087 32.6278 177.542 32.1733 177.966C31.7263 178.383 31.1619 178.72 30.4801 178.977C29.8059 179.227 29.0142 179.352 28.1051 179.352ZM29.1733 176.33C29.9991 176.33 30.715 176.167 31.321 175.841C31.9271 175.508 32.393 175.068 32.7188 174.523C33.0521 173.977 33.2188 173.383 33.2188 172.739V170.682C33.09 170.788 32.8703 170.886 32.5597 170.977C32.2566 171.068 31.9157 171.148 31.5369 171.216C31.1581 171.284 30.7831 171.345 30.4119 171.398C30.0407 171.451 29.7188 171.496 29.446 171.534C28.8324 171.617 28.2831 171.754 27.7983 171.943C27.3134 172.133 26.9309 172.398 26.6506 172.739C26.3703 173.072 26.2301 173.504 26.2301 174.034C26.2301 174.792 26.5066 175.364 27.0597 175.75C27.6127 176.136 28.3172 176.33 29.1733 176.33ZM53.446 168.568V171.943H44.1506V168.568H53.446ZM45.4233 161.545V179H41.4574V161.545H45.4233ZM56.1392 161.545V179H52.1847V161.545H56.1392ZM72.2898 168.568V171.943H62.9943V168.568H72.2898ZM64.267 161.545V179H60.3011V161.545H64.267ZM74.983 161.545V179H71.0284V161.545H74.983ZM81.929 167.227H87.0767C89.304 167.227 91.0275 167.769 92.2472 168.852C93.4669 169.936 94.0805 171.356 94.0881 173.114C94.0805 174.258 93.8002 175.273 93.2472 176.159C92.7017 177.045 91.9063 177.742 90.8608 178.25C89.8229 178.75 88.5616 179 87.0767 179H79.1449V161.545H83.1108V175.625H87.0767C87.9706 175.625 88.7055 175.398 89.2812 174.943C89.857 174.481 90.1449 173.89 90.1449 173.17C90.1449 172.413 89.857 171.795 89.2812 171.318C88.7055 170.841 87.9706 170.602 87.0767 170.602H81.929V167.227ZM96.2585 179V161.545H100.372V179H96.2585ZM112.341 179.341C110.591 179.341 109.08 178.977 107.807 178.25C106.542 177.515 105.568 176.477 104.886 175.136C104.205 173.788 103.864 172.201 103.864 170.375C103.864 168.58 104.205 167.004 104.886 165.648C105.576 164.284 106.538 163.223 107.773 162.466C109.008 161.701 110.458 161.318 112.125 161.318C113.201 161.318 114.216 161.492 115.17 161.841C116.133 162.182 116.981 162.712 117.716 163.432C118.458 164.152 119.042 165.068 119.466 166.182C119.89 167.288 120.102 168.606 120.102 170.136V171.398H105.795V168.625H116.159C116.152 167.837 115.981 167.136 115.648 166.523C115.314 165.902 114.848 165.413 114.25 165.057C113.659 164.701 112.97 164.523 112.182 164.523C111.341 164.523 110.602 164.727 109.966 165.136C109.33 165.538 108.833 166.068 108.477 166.727C108.129 167.379 107.951 168.095 107.943 168.875V171.295C107.943 172.311 108.129 173.182 108.5 173.909C108.871 174.629 109.39 175.182 110.057 175.568C110.723 175.947 111.504 176.136 112.398 176.136C112.996 176.136 113.538 176.053 114.023 175.886C114.508 175.712 114.928 175.458 115.284 175.125C115.64 174.792 115.909 174.379 116.091 173.886L119.932 174.318C119.689 175.333 119.227 176.22 118.545 176.977C117.871 177.727 117.008 178.311 115.955 178.727C114.902 179.136 113.697 179.341 112.341 179.341ZM139.827 179.318C138.19 179.318 136.736 179.038 135.463 178.477C134.198 177.917 133.198 177.136 132.463 176.136C131.728 175.136 131.338 173.981 131.293 172.67H135.565C135.603 173.299 135.812 173.848 136.19 174.318C136.569 174.78 137.073 175.14 137.702 175.398C138.33 175.655 139.035 175.784 139.815 175.784C140.649 175.784 141.387 175.64 142.031 175.352C142.675 175.057 143.179 174.648 143.543 174.125C143.906 173.602 144.084 173 144.077 172.318C144.084 171.614 143.902 170.992 143.531 170.455C143.16 169.917 142.622 169.496 141.918 169.193C141.221 168.89 140.38 168.739 139.395 168.739H137.338V165.489H139.395C140.205 165.489 140.914 165.348 141.52 165.068C142.134 164.788 142.615 164.394 142.963 163.886C143.312 163.371 143.482 162.777 143.474 162.102C143.482 161.443 143.334 160.871 143.031 160.386C142.736 159.894 142.315 159.511 141.77 159.239C141.232 158.966 140.599 158.83 139.872 158.83C139.16 158.83 138.501 158.958 137.895 159.216C137.289 159.473 136.8 159.841 136.429 160.318C136.058 160.788 135.861 161.348 135.838 162H131.781C131.812 160.697 132.187 159.553 132.906 158.568C133.634 157.576 134.603 156.803 135.815 156.25C137.027 155.689 138.387 155.409 139.895 155.409C141.448 155.409 142.796 155.701 143.94 156.284C145.092 156.86 145.982 157.636 146.611 158.614C147.24 159.591 147.554 160.67 147.554 161.852C147.562 163.163 147.175 164.261 146.395 165.148C145.622 166.034 144.607 166.614 143.349 166.886V167.068C144.986 167.295 146.24 167.902 147.111 168.886C147.99 169.864 148.425 171.08 148.418 172.534C148.418 173.837 148.046 175.004 147.304 176.034C146.569 177.057 145.554 177.86 144.259 178.443C142.971 179.027 141.493 179.318 139.827 179.318ZM162.943 167.614V171H152.466V167.614H162.943ZM171.236 173.432L178.224 161.545H182.452V179H178.474V167.102L171.509 179H167.27V161.545H171.236V173.432ZM196.722 174.216L201.903 161.545H205.222L198.165 179H195.29L188.392 161.545H191.676L196.722 174.216ZM190.642 161.545V179H186.676V161.545H190.642ZM202.972 179V161.545H206.903V179H202.972ZM217.784 179L217.761 175.614H218.364C218.818 175.614 219.201 175.511 219.511 175.307C219.822 175.102 220.08 174.761 220.284 174.284C220.489 173.799 220.648 173.148 220.761 172.33C220.875 171.511 220.955 170.492 221 169.273L221.307 161.545H234.034V179H230.057V164.92H225.045L224.773 170.545C224.705 172 224.542 173.261 224.284 174.33C224.034 175.39 223.678 176.265 223.216 176.955C222.761 177.644 222.189 178.159 221.5 178.5C220.811 178.833 219.996 179 219.057 179H217.784ZM242.142 173.432L249.131 161.545H253.358V179H249.381V167.102L242.415 179H238.176V161.545H242.142V173.432ZM272.321 161.545V175.932H274.991V184.614H270.969V179H257.582V161.545H261.548V175.625H268.389V161.545H272.321ZM283.386 179.352C282.28 179.352 281.284 179.155 280.398 178.761C279.519 178.36 278.822 177.769 278.307 176.989C277.799 176.208 277.545 175.246 277.545 174.102C277.545 173.117 277.727 172.303 278.091 171.659C278.455 171.015 278.951 170.5 279.58 170.114C280.208 169.727 280.917 169.436 281.705 169.239C282.5 169.034 283.322 168.886 284.17 168.795C285.193 168.689 286.023 168.595 286.659 168.511C287.295 168.42 287.758 168.284 288.045 168.102C288.341 167.913 288.489 167.621 288.489 167.227V167.159C288.489 166.303 288.235 165.64 287.727 165.17C287.22 164.701 286.489 164.466 285.534 164.466C284.527 164.466 283.727 164.686 283.136 165.125C282.553 165.564 282.159 166.083 281.955 166.682L278.114 166.136C278.417 165.076 278.917 164.189 279.614 163.477C280.311 162.758 281.163 162.22 282.17 161.864C283.178 161.5 284.292 161.318 285.511 161.318C286.352 161.318 287.189 161.417 288.023 161.614C288.856 161.811 289.617 162.136 290.307 162.591C290.996 163.038 291.549 163.648 291.966 164.42C292.39 165.193 292.602 166.159 292.602 167.318V179H288.648V176.602H288.511C288.261 177.087 287.909 177.542 287.455 177.966C287.008 178.383 286.443 178.72 285.761 178.977C285.087 179.227 284.295 179.352 283.386 179.352ZM284.455 176.33C285.28 176.33 285.996 176.167 286.602 175.841C287.208 175.508 287.674 175.068 288 174.523C288.333 173.977 288.5 173.383 288.5 172.739V170.682C288.371 170.788 288.152 170.886 287.841 170.977C287.538 171.068 287.197 171.148 286.818 171.216C286.439 171.284 286.064 171.345 285.693 171.398C285.322 171.451 285 171.496 284.727 171.534C284.114 171.617 283.564 171.754 283.08 171.943C282.595 172.133 282.212 172.398 281.932 172.739C281.652 173.072 281.511 173.504 281.511 174.034C281.511 174.792 281.788 175.364 282.341 175.75C282.894 176.136 283.598 176.33 284.455 176.33ZM306.784 174.216L311.966 161.545H315.284L308.227 179H305.352L298.455 161.545H301.739L306.784 174.216ZM300.705 161.545V179H296.739V161.545H300.705ZM313.034 179V161.545H316.966V179H313.034Z" fill="black"/>
<path d="M1.35831 224V211.636H5.88601C6.76338 211.636 7.48982 211.781 8.06534 212.071C8.64086 212.357 9.0715 212.745 9.35724 213.236C9.64299 213.723 9.78587 214.272 9.78587 214.884C9.78587 215.399 9.69129 215.834 9.50213 216.188C9.31297 216.538 9.05942 216.82 8.74148 217.033C8.42756 217.243 8.08144 217.396 7.70312 217.492V217.613C8.11364 217.633 8.51409 217.766 8.90447 218.011C9.29889 218.253 9.62488 218.597 9.88246 219.044C10.14 219.49 10.2688 220.034 10.2688 220.674C10.2688 221.306 10.1199 221.873 9.82209 222.376C9.52829 222.875 9.07351 223.272 8.45774 223.565C7.84197 223.855 7.05516 224 6.0973 224H1.35831ZM3.22372 222.4H5.91619C6.80966 222.4 7.44957 222.227 7.83594 221.881C8.2223 221.535 8.41548 221.102 8.41548 220.583C8.41548 220.193 8.31688 219.835 8.11967 219.509C7.92247 219.183 7.64074 218.923 7.2745 218.73C6.91229 218.537 6.48165 218.44 5.9826 218.44H3.22372V222.4ZM3.22372 216.985H5.72301C6.14157 216.985 6.51787 216.905 6.85192 216.744C7.18999 216.583 7.45762 216.357 7.65483 216.067C7.85606 215.774 7.95668 215.428 7.95668 215.029C7.95668 214.518 7.77758 214.089 7.41939 213.743C7.0612 213.397 6.51184 213.224 5.77131 213.224H3.22372V216.985ZM16.2424 224.187C15.3449 224.187 14.5721 223.984 13.9242 223.577C13.2802 223.167 12.7852 222.601 12.4391 221.881C12.093 221.161 11.9199 220.336 11.9199 219.406C11.9199 218.464 12.097 217.633 12.4512 216.913C12.8053 216.188 13.3044 215.623 13.9483 215.216C14.5923 214.81 15.3509 214.607 16.2243 214.607C16.9286 214.607 17.5564 214.737 18.1078 214.999C18.6592 215.257 19.1039 215.619 19.4419 216.086C19.784 216.552 19.9873 217.098 20.0517 217.722H18.2949C18.1983 217.287 17.977 216.913 17.6309 216.599C17.2888 216.285 16.83 216.128 16.2544 216.128C15.7514 216.128 15.3107 216.261 14.9324 216.526C14.5581 216.788 14.2663 217.162 14.057 217.649C13.8477 218.132 13.7431 218.704 13.7431 219.364C13.7431 220.04 13.8457 220.623 14.051 221.114C14.2562 221.605 14.546 221.986 14.9203 222.255C15.2986 222.525 15.7433 222.66 16.2544 222.66C16.5965 222.66 16.9064 222.597 17.1841 222.473C17.4659 222.344 17.7013 222.161 17.8904 221.923C18.0836 221.686 18.2185 221.4 18.2949 221.066H20.0517C19.9873 221.666 19.7921 222.201 19.4661 222.672C19.1401 223.143 18.7034 223.513 18.1561 223.783C17.6127 224.052 16.9748 224.187 16.2424 224.187ZM25.9784 224.187C25.0648 224.187 24.278 223.992 23.618 223.602C22.962 223.207 22.4549 222.654 22.0967 221.941C21.7425 221.225 21.5654 220.386 21.5654 219.424C21.5654 218.474 21.7425 217.637 22.0967 216.913C22.4549 216.188 22.9539 215.623 23.5938 215.216C24.2378 214.81 24.9904 214.607 25.8517 214.607C26.3749 214.607 26.882 214.693 27.373 214.866C27.864 215.039 28.3047 215.311 28.695 215.681C29.0854 216.051 29.3933 216.532 29.6187 217.124C29.8441 217.712 29.9568 218.426 29.9568 219.267V219.907H22.5857V218.555H28.1879C28.1879 218.08 28.0914 217.659 27.8982 217.293C27.705 216.923 27.4333 216.631 27.0832 216.418C26.7371 216.204 26.3306 216.098 25.8637 216.098C25.3566 216.098 24.9139 216.222 24.5356 216.472C24.1613 216.717 23.8715 217.039 23.6663 217.438C23.4651 217.832 23.3644 218.261 23.3644 218.724V219.78C23.3644 220.4 23.4731 220.927 23.6904 221.362C23.9118 221.797 24.2197 222.129 24.6141 222.358C25.0085 222.583 25.4693 222.696 25.9965 222.696C26.3386 222.696 26.6505 222.648 26.9323 222.551C27.214 222.451 27.4575 222.302 27.6627 222.104C27.868 221.907 28.0249 221.664 28.1336 221.374L29.8421 221.682C29.7052 222.185 29.4597 222.626 29.1056 223.004C28.7554 223.378 28.3147 223.67 27.7835 223.879C27.2562 224.085 26.6546 224.187 25.9784 224.187ZM35.553 226.674V222.436H36.3076C36.5008 222.259 36.6638 222.048 36.7966 221.803C36.9334 221.557 37.0481 221.265 37.1407 220.927C37.2373 220.589 37.3178 220.195 37.3822 219.744C37.4466 219.289 37.5029 218.77 37.5512 218.186L37.841 214.727H44.1436V222.436H45.5683V226.674H43.8055V224H37.3399V226.674H35.553ZM38.2394 222.436H42.3808V216.273H39.4589L39.2657 218.186C39.1731 219.16 39.0564 220.006 38.9156 220.722C38.7747 221.434 38.5493 222.006 38.2394 222.436ZM50.0311 224.205C49.4435 224.205 48.9122 224.097 48.4373 223.879C47.9624 223.658 47.5861 223.338 47.3084 222.919C47.0347 222.501 46.8979 221.988 46.8979 221.38C46.8979 220.857 46.9985 220.426 47.1998 220.088C47.401 219.75 47.6726 219.482 48.0147 219.285C48.3568 219.088 48.7392 218.939 49.1618 218.838C49.5843 218.738 50.015 218.661 50.4537 218.609C51.0091 218.545 51.4598 218.492 51.8059 218.452C52.152 218.408 52.4036 218.337 52.5605 218.241C52.7175 218.144 52.796 217.987 52.796 217.77V217.728C52.796 217.2 52.6471 216.792 52.3493 216.502C52.0555 216.212 51.6168 216.067 51.0332 216.067C50.4255 216.067 49.9466 216.202 49.5964 216.472C49.2503 216.738 49.0108 217.033 48.878 217.359L47.1816 216.973C47.3829 216.41 47.6767 215.955 48.063 215.609C48.4534 215.259 48.9022 215.005 49.4093 214.848C49.9164 214.687 50.4496 214.607 51.0091 214.607C51.3793 214.607 51.7717 214.651 52.1863 214.739C52.6048 214.824 52.9952 214.981 53.3574 215.21C53.7237 215.44 54.0235 215.768 54.2569 216.194C54.4904 216.617 54.6071 217.166 54.6071 217.842V224H52.8443V222.732H52.7718C52.6551 222.966 52.4801 223.195 52.2466 223.42C52.0132 223.646 51.7134 223.833 51.3471 223.982C50.9809 224.131 50.5422 224.205 50.0311 224.205ZM50.4235 222.756C50.9225 222.756 51.3491 222.658 51.7033 222.461C52.0615 222.263 52.3332 222.006 52.5183 221.688C52.7074 221.366 52.802 221.022 52.802 220.656V219.46C52.7376 219.525 52.6129 219.585 52.4277 219.641C52.2466 219.694 52.0394 219.74 51.8059 219.78C51.5725 219.816 51.3451 219.851 51.1238 219.883C50.9024 219.911 50.7173 219.935 50.5684 219.955C50.2182 220 49.8983 220.074 49.6085 220.179C49.3227 220.283 49.0933 220.434 48.9203 220.631C48.7512 220.825 48.6667 221.082 48.6667 221.404C48.6667 221.851 48.8317 222.189 49.1618 222.418C49.4918 222.644 49.9123 222.756 50.4235 222.756ZM63.2957 218.585V220.148H58.273V218.585H63.2957ZM58.7801 214.727V224H57.0113V214.727H58.7801ZM64.5574 214.727V224H62.7947V214.727H64.5574ZM73.2567 218.585V220.148H68.2339V218.585H73.2567ZM68.741 214.727V224H66.9722V214.727H68.741ZM74.5184 214.727V224H72.7556V214.727H74.5184ZM78.2915 217.915H80.9839C82.1189 217.915 82.9922 218.196 83.604 218.76C84.2157 219.323 84.5216 220.05 84.5216 220.939C84.5216 221.519 84.3847 222.04 84.1111 222.503C83.8374 222.966 83.4369 223.332 82.9097 223.602C82.3825 223.867 81.7406 224 80.9839 224H76.9331V214.727H78.702V222.442H80.9839C81.5031 222.442 81.9297 222.308 82.2638 222.038C82.5978 221.764 82.7648 221.416 82.7648 220.994C82.7648 220.547 82.5978 220.183 82.2638 219.901C81.9297 219.615 81.5031 219.472 80.9839 219.472H78.2915V217.915ZM85.8376 224V214.727H87.6427V224H85.8376ZM94.0614 224.187C93.1478 224.187 92.361 223.992 91.701 223.602C91.045 223.207 90.5379 222.654 90.1797 221.941C89.8255 221.225 89.6484 220.386 89.6484 219.424C89.6484 218.474 89.8255 217.637 90.1797 216.913C90.5379 216.188 91.0369 215.623 91.6768 215.216C92.3208 214.81 93.0734 214.607 93.9347 214.607C94.4579 214.607 94.965 214.693 95.456 214.866C95.947 215.039 96.3877 215.311 96.7781 215.681C97.1684 216.051 97.4763 216.532 97.7017 217.124C97.9271 217.712 98.0398 218.426 98.0398 219.267V219.907H90.6687V218.555H96.271C96.271 218.08 96.1744 217.659 95.9812 217.293C95.788 216.923 95.5163 216.631 95.1662 216.418C94.8201 216.204 94.4136 216.098 93.9467 216.098C93.4396 216.098 92.9969 216.222 92.6186 216.472C92.2443 216.717 91.9545 217.039 91.7493 217.438C91.5481 217.832 91.4474 218.261 91.4474 218.724V219.78C91.4474 220.4 91.5561 220.927 91.7734 221.362C91.9948 221.797 92.3027 222.129 92.6971 222.358C93.0915 222.583 93.5523 222.696 94.0795 222.696C94.4216 222.696 94.7335 222.648 95.0153 222.551C95.297 222.451 95.5405 222.302 95.7457 222.104C95.951 221.907 96.108 221.664 96.2166 221.374L97.9251 221.682C97.7882 222.185 97.5427 222.626 97.1886 223.004C96.8384 223.378 96.3977 223.67 95.8665 223.879C95.3393 224.085 94.7376 224.187 94.0614 224.187ZM108.447 224.187C107.578 224.187 106.819 223.988 106.172 223.589C105.524 223.191 105.02 222.634 104.662 221.917C104.304 221.201 104.125 220.364 104.125 219.406C104.125 218.444 104.304 217.603 104.662 216.882C105.02 216.162 105.524 215.603 106.172 215.204C106.819 214.806 107.578 214.607 108.447 214.607C109.317 214.607 110.075 214.806 110.723 215.204C111.371 215.603 111.874 216.162 112.233 216.882C112.591 217.603 112.77 218.444 112.77 219.406C112.77 220.364 112.591 221.201 112.233 221.917C111.874 222.634 111.371 223.191 110.723 223.589C110.075 223.988 109.317 224.187 108.447 224.187ZM108.453 222.672C109.017 222.672 109.484 222.523 109.854 222.225C110.224 221.927 110.498 221.531 110.675 221.036C110.856 220.541 110.947 219.996 110.947 219.4C110.947 218.808 110.856 218.265 110.675 217.77C110.498 217.271 110.224 216.87 109.854 216.569C109.484 216.267 109.017 216.116 108.453 216.116C107.886 216.116 107.415 216.267 107.041 216.569C106.671 216.87 106.395 217.271 106.214 217.77C106.037 218.265 105.948 218.808 105.948 219.4C105.948 219.996 106.037 220.541 106.214 221.036C106.395 221.531 106.671 221.927 107.041 222.225C107.415 222.523 107.886 222.672 108.453 222.672ZM118.378 226.674V222.436H119.133C119.326 222.259 119.489 222.048 119.622 221.803C119.759 221.557 119.873 221.265 119.966 220.927C120.063 220.589 120.143 220.195 120.207 219.744C120.272 219.289 120.328 218.77 120.376 218.186L120.666 214.727H126.969V222.436H128.393V226.674H126.631V224H120.165V226.674H118.378ZM121.065 222.436H125.206V216.273H122.284L122.091 218.186C121.998 219.16 121.882 220.006 121.741 220.722C121.6 221.434 121.375 222.006 121.065 222.436ZM134.064 224.187C133.194 224.187 132.436 223.988 131.788 223.589C131.14 223.191 130.637 222.634 130.278 221.917C129.92 221.201 129.741 220.364 129.741 219.406C129.741 218.444 129.92 217.603 130.278 216.882C130.637 216.162 131.14 215.603 131.788 215.204C132.436 214.806 133.194 214.607 134.064 214.607C134.933 214.607 135.692 214.806 136.34 215.204C136.988 215.603 137.491 216.162 137.849 216.882C138.207 217.603 138.386 218.444 138.386 219.406C138.386 220.364 138.207 221.201 137.849 221.917C137.491 222.634 136.988 223.191 136.34 223.589C135.692 223.988 134.933 224.187 134.064 224.187ZM134.07 222.672C134.633 222.672 135.1 222.523 135.47 222.225C135.841 221.927 136.114 221.531 136.291 221.036C136.472 220.541 136.563 219.996 136.563 219.4C136.563 218.808 136.472 218.265 136.291 217.77C136.114 217.271 135.841 216.87 135.47 216.569C135.1 216.267 134.633 216.116 134.07 216.116C133.502 216.116 133.031 216.267 132.657 216.569C132.287 216.87 132.011 217.271 131.83 217.77C131.653 218.265 131.564 218.808 131.564 219.4C131.564 219.996 131.653 220.541 131.83 221.036C132.011 221.531 132.287 221.927 132.657 222.225C133.031 222.523 133.502 222.672 134.07 222.672ZM141.46 214.727L143.507 218.337L145.572 214.727H147.546L144.654 219.364L147.57 224H145.596L143.507 220.535L141.424 224H139.444L142.33 219.364L139.48 214.727H141.46ZM152.94 224.187C152.07 224.187 151.312 223.988 150.664 223.589C150.016 223.191 149.513 222.634 149.154 221.917C148.796 221.201 148.617 220.364 148.617 219.406C148.617 218.444 148.796 217.603 149.154 216.882C149.513 216.162 150.016 215.603 150.664 215.204C151.312 214.806 152.07 214.607 152.94 214.607C153.809 214.607 154.568 214.806 155.216 215.204C155.864 215.603 156.367 216.162 156.725 216.882C157.083 217.603 157.262 218.444 157.262 219.406C157.262 220.364 157.083 221.201 156.725 221.917C156.367 222.634 155.864 223.191 155.216 223.589C154.568 223.988 153.809 224.187 152.94 224.187ZM152.946 222.672C153.509 222.672 153.976 222.523 154.346 222.225C154.717 221.927 154.99 221.531 155.167 221.036C155.348 220.541 155.439 219.996 155.439 219.4C155.439 218.808 155.348 218.265 155.167 217.77C154.99 217.271 154.717 216.87 154.346 216.569C153.976 216.267 153.509 216.116 152.946 216.116C152.378 216.116 151.907 216.267 151.533 216.569C151.163 216.87 150.887 217.271 150.706 217.77C150.529 218.265 150.44 218.808 150.44 219.4C150.44 219.996 150.529 220.541 150.706 221.036C150.887 221.531 151.163 221.927 151.533 222.225C151.907 222.523 152.378 222.672 152.946 222.672ZM158.371 226.674V222.436H159.126C159.319 222.259 159.482 222.048 159.615 221.803C159.752 221.557 159.867 221.265 159.959 220.927C160.056 220.589 160.136 220.195 160.201 219.744C160.265 219.289 160.321 218.77 160.37 218.186L160.659 214.727H166.962V222.436H168.387V226.674H166.624V224H160.158V226.674H158.371ZM161.058 222.436H165.199V216.273H162.277L162.084 218.186C161.992 219.16 161.875 220.006 161.734 220.722C161.593 221.434 161.368 222.006 161.058 222.436ZM172.849 224.205C172.262 224.205 171.731 224.097 171.256 223.879C170.781 223.658 170.404 223.338 170.127 222.919C169.853 222.501 169.716 221.988 169.716 221.38C169.716 220.857 169.817 220.426 170.018 220.088C170.219 219.75 170.491 219.482 170.833 219.285C171.175 219.088 171.558 218.939 171.98 218.838C172.403 218.738 172.833 218.661 173.272 218.609C173.827 218.545 174.278 218.492 174.624 218.452C174.97 218.408 175.222 218.337 175.379 218.241C175.536 218.144 175.614 217.987 175.614 217.77V217.728C175.614 217.2 175.465 216.792 175.168 216.502C174.874 216.212 174.435 216.067 173.852 216.067C173.244 216.067 172.765 216.202 172.415 216.472C172.069 216.738 171.829 217.033 171.696 217.359L170 216.973C170.201 216.41 170.495 215.955 170.881 215.609C171.272 215.259 171.721 215.005 172.228 214.848C172.735 214.687 173.268 214.607 173.827 214.607C174.198 214.607 174.59 214.651 175.005 214.739C175.423 214.824 175.814 214.981 176.176 215.21C176.542 215.44 176.842 215.768 177.075 216.194C177.309 216.617 177.425 217.166 177.425 217.842V224H175.663V222.732H175.59C175.473 222.966 175.298 223.195 175.065 223.42C174.832 223.646 174.532 223.833 174.165 223.982C173.799 224.131 173.361 224.205 172.849 224.205ZM173.242 222.756C173.741 222.756 174.167 222.658 174.522 222.461C174.88 222.263 175.152 222.006 175.337 221.688C175.526 221.366 175.62 221.022 175.62 220.656V219.46C175.556 219.525 175.431 219.585 175.246 219.641C175.065 219.694 174.858 219.74 174.624 219.78C174.391 219.816 174.163 219.851 173.942 219.883C173.721 219.911 173.536 219.935 173.387 219.955C173.037 220 172.717 220.074 172.427 220.179C172.141 220.283 171.912 220.434 171.739 220.631C171.57 220.825 171.485 221.082 171.485 221.404C171.485 221.851 171.65 222.189 171.98 222.418C172.31 222.644 172.731 222.756 173.242 222.756ZM181.254 214.727L183.301 218.337L185.366 214.727H187.34L184.448 219.364L187.364 224H185.39L183.301 220.535L181.218 224H179.238L182.124 219.364L179.274 214.727H181.254ZM195.461 221.471L199.548 214.727H201.492V224H199.723V217.251L195.654 224H193.692V214.727H195.461V221.471ZM208.418 227.477V214.727H210.18V216.23H210.331C210.436 216.037 210.587 215.814 210.784 215.56C210.981 215.307 211.255 215.085 211.605 214.896C211.955 214.703 212.418 214.607 212.994 214.607C213.742 214.607 214.41 214.796 214.998 215.174C215.585 215.552 216.046 216.098 216.38 216.81C216.718 217.522 216.887 218.38 216.887 219.382C216.887 220.384 216.72 221.243 216.386 221.96C216.052 222.672 215.593 223.221 215.01 223.608C214.426 223.99 213.76 224.181 213.012 224.181C212.448 224.181 211.987 224.087 211.629 223.897C211.275 223.708 210.997 223.487 210.796 223.233C210.595 222.98 210.44 222.754 210.331 222.557H210.223V227.477H208.418ZM210.186 219.364C210.186 220.016 210.281 220.587 210.47 221.078C210.659 221.569 210.933 221.953 211.291 222.231C211.649 222.505 212.088 222.642 212.607 222.642C213.146 222.642 213.597 222.499 213.959 222.213C214.322 221.923 214.595 221.531 214.78 221.036C214.97 220.541 215.064 219.983 215.064 219.364C215.064 218.752 214.972 218.203 214.786 217.716C214.605 217.229 214.332 216.844 213.965 216.562C213.603 216.281 213.15 216.14 212.607 216.14C212.084 216.14 211.641 216.275 211.279 216.544C210.921 216.814 210.649 217.19 210.464 217.673C210.279 218.156 210.186 218.72 210.186 219.364ZM221.608 224.205C221.021 224.205 220.489 224.097 220.014 223.879C219.54 223.658 219.163 223.338 218.886 222.919C218.612 222.501 218.475 221.988 218.475 221.38C218.475 220.857 218.576 220.426 218.777 220.088C218.978 219.75 219.25 219.482 219.592 219.285C219.934 219.088 220.316 218.939 220.739 218.838C221.161 218.738 221.592 218.661 222.031 218.609C222.586 218.545 223.037 218.492 223.383 218.452C223.729 218.408 223.981 218.337 224.138 218.241C224.295 218.144 224.373 217.987 224.373 217.77V217.728C224.373 217.2 224.224 216.792 223.926 216.502C223.633 216.212 223.194 216.067 222.61 216.067C222.003 216.067 221.524 216.202 221.174 216.472C220.827 216.738 220.588 217.033 220.455 217.359L218.759 216.973C218.96 216.41 219.254 215.955 219.64 215.609C220.031 215.259 220.479 215.005 220.986 214.848C221.494 214.687 222.027 214.607 222.586 214.607C222.956 214.607 223.349 214.651 223.763 214.739C224.182 214.824 224.572 214.981 224.935 215.21C225.301 215.44 225.601 215.768 225.834 216.194C226.068 216.617 226.184 217.166 226.184 217.842V224H224.421V222.732H224.349C224.232 222.966 224.057 223.195 223.824 223.42C223.59 223.646 223.291 223.833 222.924 223.982C222.558 224.131 222.119 224.205 221.608 224.205ZM222.001 222.756C222.5 222.756 222.926 222.658 223.28 222.461C223.639 222.263 223.91 222.006 224.095 221.688C224.285 221.366 224.379 221.022 224.379 220.656V219.46C224.315 219.525 224.19 219.585 224.005 219.641C223.824 219.694 223.617 219.74 223.383 219.78C223.15 219.816 222.922 219.851 222.701 219.883C222.48 219.911 222.294 219.935 222.146 219.955C221.795 220 221.475 220.074 221.186 220.179C220.9 220.283 220.67 220.434 220.497 220.631C220.328 220.825 220.244 221.082 220.244 221.404C220.244 221.851 220.409 222.189 220.739 222.418C221.069 222.644 221.489 222.756 222.001 222.756ZM232.494 224.187C231.597 224.187 230.824 223.984 230.176 223.577C229.532 223.167 229.037 222.601 228.691 221.881C228.345 221.161 228.172 220.336 228.172 219.406C228.172 218.464 228.349 217.633 228.703 216.913C229.057 216.188 229.556 215.623 230.2 215.216C230.844 214.81 231.603 214.607 232.476 214.607C233.181 214.607 233.808 214.737 234.36 214.999C234.911 215.257 235.356 215.619 235.694 216.086C236.036 216.552 236.239 217.098 236.304 217.722H234.547C234.45 217.287 234.229 216.913 233.883 216.599C233.541 216.285 233.082 216.128 232.506 216.128C232.003 216.128 231.563 216.261 231.184 216.526C230.81 216.788 230.518 217.162 230.309 217.649C230.1 218.132 229.995 218.704 229.995 219.364C229.995 220.04 230.098 220.623 230.303 221.114C230.508 221.605 230.798 221.986 231.172 222.255C231.551 222.525 231.995 222.66 232.506 222.66C232.848 222.66 233.158 222.597 233.436 222.473C233.718 222.344 233.953 222.161 234.142 221.923C234.336 221.686 234.47 221.4 234.547 221.066H236.304C236.239 221.666 236.044 222.201 235.718 222.672C235.392 223.143 234.955 223.513 234.408 223.783C233.865 224.052 233.227 224.187 232.494 224.187ZM239.576 214.727L241.622 218.337L243.687 214.727H245.661L242.769 219.364L245.685 224H243.711L241.622 220.535L239.539 224H237.559L240.445 219.364L237.596 214.727H239.576ZM251.055 224.187C250.186 224.187 249.427 223.988 248.779 223.589C248.131 223.191 247.628 222.634 247.27 221.917C246.912 221.201 246.732 220.364 246.732 219.406C246.732 218.444 246.912 217.603 247.27 216.882C247.628 216.162 248.131 215.603 248.779 215.204C249.427 214.806 250.186 214.607 251.055 214.607C251.924 214.607 252.683 214.806 253.331 215.204C253.979 215.603 254.482 216.162 254.84 216.882C255.198 217.603 255.377 218.444 255.377 219.406C255.377 220.364 255.198 221.201 254.84 221.917C254.482 222.634 253.979 223.191 253.331 223.589C252.683 223.988 251.924 224.187 251.055 224.187ZM251.061 222.672C251.624 222.672 252.091 222.523 252.461 222.225C252.832 221.927 253.105 221.531 253.282 221.036C253.464 220.541 253.554 219.996 253.554 219.4C253.554 218.808 253.464 218.265 253.282 217.77C253.105 217.271 252.832 216.87 252.461 216.569C252.091 216.267 251.624 216.116 251.061 216.116C250.493 216.116 250.023 216.267 249.648 216.569C249.278 216.87 249.002 217.271 248.821 217.77C248.644 218.265 248.556 218.808 248.556 219.4C248.556 219.996 248.644 220.541 248.821 221.036C249.002 221.531 249.278 221.927 249.648 222.225C250.023 222.523 250.493 222.672 251.061 222.672ZM256.487 226.674V222.436H257.241C257.434 222.259 257.597 222.048 257.73 221.803C257.867 221.557 257.982 221.265 258.074 220.927C258.171 220.589 258.251 220.195 258.316 219.744C258.38 219.289 258.437 218.77 258.485 218.186L258.775 214.727H265.077V222.436H266.502V226.674H264.739V224H258.274V226.674H256.487ZM259.173 222.436H263.314V216.273H260.392L260.199 218.186C260.107 219.16 259.99 220.006 259.849 220.722C259.708 221.434 259.483 222.006 259.173 222.436ZM270.965 224.205C270.377 224.205 269.846 224.097 269.371 223.879C268.896 223.658 268.52 223.338 268.242 222.919C267.968 222.501 267.831 221.988 267.831 221.38C267.831 220.857 267.932 220.426 268.133 220.088C268.335 219.75 268.606 219.482 268.948 219.285C269.29 219.088 269.673 218.939 270.095 218.838C270.518 218.738 270.949 218.661 271.387 218.609C271.943 218.545 272.393 218.492 272.74 218.452C273.086 218.408 273.337 218.337 273.494 218.241C273.651 218.144 273.73 217.987 273.73 217.77V217.728C273.73 217.2 273.581 216.792 273.283 216.502C272.989 216.212 272.55 216.067 271.967 216.067C271.359 216.067 270.88 216.202 270.53 216.472C270.184 216.738 269.944 217.033 269.812 217.359L268.115 216.973C268.316 216.41 268.61 215.955 268.997 215.609C269.387 215.259 269.836 215.005 270.343 214.848C270.85 214.687 271.383 214.607 271.943 214.607C272.313 214.607 272.705 214.651 273.12 214.739C273.538 214.824 273.929 214.981 274.291 215.21C274.657 215.44 274.957 215.768 275.191 216.194C275.424 216.617 275.541 217.166 275.541 217.842V224H273.778V222.732H273.705C273.589 222.966 273.414 223.195 273.18 223.42C272.947 223.646 272.647 223.833 272.281 223.982C271.914 224.131 271.476 224.205 270.965 224.205ZM271.357 222.756C271.856 222.756 272.283 222.658 272.637 222.461C272.995 222.263 273.267 222.006 273.452 221.688C273.641 221.366 273.736 221.022 273.736 220.656V219.46C273.671 219.525 273.546 219.585 273.361 219.641C273.18 219.694 272.973 219.74 272.74 219.78C272.506 219.816 272.279 219.851 272.057 219.883C271.836 219.911 271.651 219.935 271.502 219.955C271.152 220 270.832 220.074 270.542 220.179C270.256 220.283 270.027 220.434 269.854 220.631C269.685 220.825 269.6 221.082 269.6 221.404C269.6 221.851 269.765 222.189 270.095 222.418C270.425 222.644 270.846 222.756 271.357 222.756ZM279.37 214.727L281.416 218.337L283.481 214.727H285.455L282.563 219.364L285.479 224H283.505L281.416 220.535L279.333 224H277.353L280.239 219.364L277.389 214.727H279.37ZM1.21342 248V238.727H3.01847V242.615H3.88778L6.94851 238.727H9.18217L5.5902 243.237L9.22443 248H6.98473L4.18963 244.293H3.01847V248H1.21342ZM14.1506 248.187C13.2813 248.187 12.5226 247.988 11.8746 247.589C11.2267 247.191 10.7236 246.634 10.3654 245.917C10.0072 245.201 9.82812 244.364 9.82812 243.406C9.82812 242.444 10.0072 241.603 10.3654 240.882C10.7236 240.162 11.2267 239.603 11.8746 239.204C12.5226 238.806 13.2813 238.607 14.1506 238.607C15.0199 238.607 15.7785 238.806 16.4265 239.204C17.0745 239.603 17.5775 240.162 17.9357 240.882C18.2939 241.603 18.473 242.444 18.473 243.406C18.473 244.364 18.2939 245.201 17.9357 245.917C17.5775 246.634 17.0745 247.191 16.4265 247.589C15.7785 247.988 15.0199 248.187 14.1506 248.187ZM14.1566 246.672C14.7201 246.672 15.1869 246.523 15.5572 246.225C15.9274 245.927 16.2011 245.531 16.3782 245.036C16.5593 244.541 16.6499 243.996 16.6499 243.4C16.6499 242.808 16.5593 242.265 16.3782 241.77C16.2011 241.271 15.9274 240.87 15.5572 240.569C15.1869 240.267 14.7201 240.116 14.1566 240.116C13.5891 240.116 13.1183 240.267 12.744 240.569C12.3737 240.87 12.098 241.271 11.9169 241.77C11.7398 242.265 11.6513 242.808 11.6513 243.4C11.6513 243.996 11.7398 244.541 11.9169 245.036C12.098 245.531 12.3737 245.927 12.744 246.225C13.1183 246.523 13.5891 246.672 14.1566 246.672ZM25.6917 245.766L28.686 238.727H30.2435L26.3618 248H25.0216L21.2183 238.727H22.7577L25.6917 245.766ZM22.2567 238.727V248H20.4878V238.727H22.2567ZM29.175 248V238.727H30.9317V248H29.175ZM33.3374 248V238.727H40.9017V248H39.1329V240.285H35.0942V248H33.3374ZM46.0135 248.205C45.4259 248.205 44.8946 248.097 44.4197 247.879C43.9448 247.658 43.5685 247.338 43.2908 246.919C43.0172 246.501 42.8803 245.988 42.8803 245.38C42.8803 244.857 42.9809 244.426 43.1822 244.088C43.3834 243.75 43.6551 243.482 43.9972 243.285C44.3393 243.088 44.7216 242.939 45.1442 242.838C45.5668 242.738 45.9974 242.661 46.4361 242.609C46.9915 242.545 47.4422 242.492 47.7884 242.452C48.1345 242.408 48.386 242.337 48.543 242.241C48.6999 242.144 48.7784 241.987 48.7784 241.77V241.728C48.7784 241.2 48.6295 240.792 48.3317 240.502C48.0379 240.212 47.5992 240.067 47.0156 240.067C46.4079 240.067 45.929 240.202 45.5788 240.472C45.2327 240.738 44.9933 241.033 44.8604 241.359L43.1641 240.973C43.3653 240.41 43.6591 239.955 44.0455 239.609C44.4358 239.259 44.8846 239.005 45.3917 238.848C45.8988 238.687 46.4321 238.607 46.9915 238.607C47.3617 238.607 47.7541 238.651 48.1687 238.739C48.5872 238.824 48.9776 238.981 49.3398 239.21C49.7061 239.44 50.0059 239.768 50.2393 240.194C50.4728 240.617 50.5895 241.166 50.5895 241.842V248H48.8267V246.732H48.7543C48.6375 246.966 48.4625 247.195 48.229 247.42C47.9956 247.646 47.6958 247.833 47.3295 247.982C46.9633 248.131 46.5246 248.205 46.0135 248.205ZM46.4059 246.756C46.9049 246.756 47.3316 246.658 47.6857 246.461C48.0439 246.263 48.3156 246.006 48.5007 245.688C48.6899 245.366 48.7844 245.022 48.7844 244.656V243.46C48.7201 243.525 48.5953 243.585 48.4102 243.641C48.229 243.694 48.0218 243.74 47.7884 243.78C47.5549 243.816 47.3275 243.851 47.1062 243.883C46.8848 243.911 46.6997 243.935 46.5508 243.955C46.2006 244 45.8807 244.074 45.5909 244.179C45.3052 244.283 45.0758 244.434 44.9027 244.631C44.7337 244.825 44.6491 245.082 44.6491 245.404C44.6491 245.851 44.8142 246.189 45.1442 246.418C45.4742 246.644 45.8948 246.756 46.4059 246.756ZM59.2781 242.585V244.148H54.2554V242.585H59.2781ZM54.7625 238.727V248H52.9937V238.727H54.7625ZM60.5399 238.727V248H58.7771V238.727H60.5399ZM64.7235 245.471L68.8105 238.727H70.7544V248H68.9855V241.251L64.9166 248H62.9546V238.727H64.7235V245.471ZM74.95 245.471L79.037 238.727H80.9809V248H79.2121V241.251L75.1432 248H73.1812V238.727H74.95V245.471ZM87.9068 248V238.727H91.7523C92.7987 238.727 93.6278 238.951 94.2395 239.397C94.8513 239.84 95.1571 240.442 95.1571 241.202C95.1571 241.746 94.9841 242.176 94.638 242.494C94.2918 242.812 93.833 243.026 93.2615 243.134C93.6761 243.183 94.0564 243.307 94.4025 243.509C94.7486 243.706 95.0263 243.971 95.2356 244.305C95.4489 244.639 95.5556 245.038 95.5556 245.501C95.5556 245.992 95.4288 246.426 95.1752 246.805C94.9217 247.179 94.5534 247.473 94.0705 247.686C93.5916 247.895 93.014 248 92.3379 248H87.9068ZM89.6032 246.491H92.3379C92.7846 246.491 93.1348 246.384 93.3883 246.171C93.6419 245.958 93.7686 245.668 93.7686 245.301C93.7686 244.871 93.6419 244.533 93.3883 244.287C93.1348 244.038 92.7846 243.913 92.3379 243.913H89.6032V246.491ZM89.6032 242.591H91.7704C92.1085 242.591 92.3983 242.543 92.6397 242.446C92.8852 242.349 93.0724 242.213 93.2012 242.036C93.334 241.854 93.4004 241.641 93.4004 241.396C93.4004 241.037 93.2535 240.758 92.9597 240.556C92.6659 240.355 92.2634 240.255 91.7523 240.255H89.6032V242.591ZM99.3045 245.471L103.392 238.727H105.335V248H103.567V241.251L99.4977 248H97.5357V238.727H99.3045V245.471ZM106.857 250.674V246.436H107.611C107.805 246.259 107.968 246.048 108.1 245.803C108.237 245.557 108.352 245.265 108.444 244.927C108.541 244.589 108.622 244.195 108.686 243.744C108.75 243.289 108.807 242.77 108.855 242.186L109.145 238.727H115.447V246.436H116.872V250.674H115.109V248H108.644V250.674H106.857ZM109.543 246.436H113.684V240.273H110.763L110.569 242.186C110.477 243.16 110.36 244.006 110.219 244.722C110.078 245.434 109.853 246.006 109.543 246.436ZM124.921 242.585V244.148H119.898V242.585H124.921ZM120.405 238.727V248H118.636V238.727H120.405ZM126.182 238.727V248H124.42V238.727H126.182ZM129.956 241.915H132.648C133.783 241.915 134.656 242.196 135.268 242.76C135.88 243.323 136.186 244.05 136.186 244.939C136.186 245.519 136.049 246.04 135.775 246.503C135.501 246.966 135.101 247.332 134.574 247.602C134.047 247.867 133.405 248 132.648 248H128.597V238.727H130.366V246.442H132.648C133.167 246.442 133.594 246.308 133.928 246.038C134.262 245.764 134.429 245.416 134.429 244.994C134.429 244.547 134.262 244.183 133.928 243.901C133.594 243.615 133.167 243.472 132.648 243.472H129.956V241.915ZM137.502 248V238.727H139.307V248H137.502ZM145.709 240.285V238.727H153.533V240.285H150.508V248H148.745V240.285H145.709ZM158.916 248.187C158.047 248.187 157.288 247.988 156.64 247.589C155.992 247.191 155.489 246.634 155.131 245.917C154.773 245.201 154.594 244.364 154.594 243.406C154.594 242.444 154.773 241.603 155.131 240.882C155.489 240.162 155.992 239.603 156.64 239.204C157.288 238.806 158.047 238.607 158.916 238.607C159.786 238.607 160.544 238.806 161.192 239.204C161.84 239.603 162.343 240.162 162.701 240.882C163.06 241.603 163.239 242.444 163.239 243.406C163.239 244.364 163.06 245.201 162.701 245.917C162.343 246.634 161.84 247.191 161.192 247.589C160.544 247.988 159.786 248.187 158.916 248.187ZM158.922 246.672C159.486 246.672 159.953 246.523 160.323 246.225C160.693 245.927 160.967 245.531 161.144 245.036C161.325 244.541 161.415 243.996 161.415 243.4C161.415 242.808 161.325 242.265 161.144 241.77C160.967 241.271 160.693 240.87 160.323 240.569C159.953 240.267 159.486 240.116 158.922 240.116C158.355 240.116 157.884 240.267 157.51 240.569C157.139 240.87 156.864 241.271 156.683 241.77C156.505 242.265 156.417 242.808 156.417 243.4C156.417 243.996 156.505 244.541 156.683 245.036C156.864 245.531 157.139 245.927 157.51 246.225C157.884 246.523 158.355 246.672 158.922 246.672ZM164.523 248L164.517 246.436H164.849C165.107 246.436 165.322 246.382 165.495 246.273C165.672 246.161 165.817 245.972 165.93 245.706C166.042 245.44 166.129 245.074 166.189 244.607C166.25 244.136 166.294 243.545 166.322 242.832L166.485 238.727H172.957V248H171.188V240.285H168.157L168.012 243.436C167.976 244.201 167.898 244.869 167.777 245.44C167.66 246.012 167.489 246.489 167.264 246.871C167.038 247.249 166.749 247.533 166.394 247.722C166.04 247.907 165.61 248 165.103 248H164.523ZM176.722 241.915H179.415C180.55 241.915 181.423 242.196 182.035 242.76C182.646 243.323 182.952 244.05 182.952 244.939C182.952 245.519 182.815 246.04 182.542 246.503C182.268 246.966 181.868 247.332 181.34 247.602C180.813 247.867 180.171 248 179.415 248H175.364V238.727H177.133V246.442H179.415C179.934 246.442 180.36 246.308 180.694 246.038C181.028 245.764 181.195 245.416 181.195 244.994C181.195 244.547 181.028 244.183 180.694 243.901C180.36 243.615 179.934 243.472 179.415 243.472H176.722V241.915ZM184.976 248V238.727H186.781V242.615H187.65L190.711 238.727H192.945L189.353 243.237L192.987 248H190.747L187.952 244.293H186.781V248H184.976ZM197.913 248.187C197.044 248.187 196.285 247.988 195.637 247.589C194.989 247.191 194.486 246.634 194.128 245.917C193.77 245.201 193.591 244.364 193.591 243.406C193.591 242.444 193.77 241.603 194.128 240.882C194.486 240.162 194.989 239.603 195.637 239.204C196.285 238.806 197.044 238.607 197.913 238.607C198.783 238.607 199.541 238.806 200.189 239.204C200.837 239.603 201.34 240.162 201.698 240.882C202.057 241.603 202.236 242.444 202.236 243.406C202.236 244.364 202.057 245.201 201.698 245.917C201.34 246.634 200.837 247.191 200.189 247.589C199.541 247.988 198.783 248.187 197.913 248.187ZM197.919 246.672C198.483 246.672 198.95 246.523 199.32 246.225C199.69 245.927 199.964 245.531 200.141 245.036C200.322 244.541 200.413 243.996 200.413 243.4C200.413 242.808 200.322 242.265 200.141 241.77C199.964 241.271 199.69 240.87 199.32 240.569C198.95 240.267 198.483 240.116 197.919 240.116C197.352 240.116 196.881 240.267 196.507 240.569C196.136 240.87 195.861 241.271 195.68 241.77C195.503 242.265 195.414 242.808 195.414 243.4C195.414 243.996 195.503 244.541 195.68 245.036C195.861 245.531 196.136 245.927 196.507 246.225C196.881 246.523 197.352 246.672 197.919 246.672ZM208.75 248V238.727H212.595C213.641 238.727 214.471 238.951 215.082 239.397C215.694 239.84 216 240.442 216 241.202C216 241.746 215.827 242.176 215.481 242.494C215.135 242.812 214.676 243.026 214.104 243.134C214.519 243.183 214.899 243.307 215.245 243.509C215.591 243.706 215.869 243.971 216.078 244.305C216.292 244.639 216.398 245.038 216.398 245.501C216.398 245.992 216.272 246.426 216.018 246.805C215.764 247.179 215.396 247.473 214.913 247.686C214.434 247.895 213.857 248 213.181 248H208.75ZM210.446 246.491H213.181C213.627 246.491 213.978 246.384 214.231 246.171C214.485 245.958 214.611 245.668 214.611 245.301C214.611 244.871 214.485 244.533 214.231 244.287C213.978 244.038 213.627 243.913 213.181 243.913H210.446V246.491ZM210.446 242.591H212.613C212.951 242.591 213.241 242.543 213.483 242.446C213.728 242.349 213.915 242.213 214.044 242.036C214.177 241.854 214.243 241.641 214.243 241.396C214.243 241.037 214.096 240.758 213.802 240.556C213.509 240.355 213.106 240.255 212.595 240.255H210.446V242.591ZM221.077 248.205C220.489 248.205 219.958 248.097 219.483 247.879C219.008 247.658 218.632 247.338 218.354 246.919C218.081 246.501 217.944 245.988 217.944 245.38C217.944 244.857 218.044 244.426 218.246 244.088C218.447 243.75 218.719 243.482 219.061 243.285C219.403 243.088 219.785 242.939 220.208 242.838C220.63 242.738 221.061 242.661 221.5 242.609C222.055 242.545 222.506 242.492 222.852 242.452C223.198 242.408 223.449 242.337 223.606 242.241C223.763 242.144 223.842 241.987 223.842 241.77V241.728C223.842 241.2 223.693 240.792 223.395 240.502C223.101 240.212 222.663 240.067 222.079 240.067C221.471 240.067 220.992 240.202 220.642 240.472C220.296 240.738 220.057 241.033 219.924 241.359L218.228 240.973C218.429 240.41 218.723 239.955 219.109 239.609C219.499 239.259 219.948 239.005 220.455 238.848C220.962 238.687 221.496 238.607 222.055 238.607C222.425 238.607 222.818 238.651 223.232 238.739C223.651 238.824 224.041 238.981 224.403 239.21C224.77 239.44 225.069 239.768 225.303 240.194C225.536 240.617 225.653 241.166 225.653 241.842V248H223.89V246.732H223.818C223.701 246.966 223.526 247.195 223.293 247.42C223.059 247.646 222.759 247.833 222.393 247.982C222.027 248.131 221.588 248.205 221.077 248.205ZM221.469 246.756C221.968 246.756 222.395 246.658 222.749 246.461C223.107 246.263 223.379 246.006 223.564 245.688C223.753 245.366 223.848 245.022 223.848 244.656V243.46C223.784 243.525 223.659 243.585 223.474 243.641C223.293 243.694 223.085 243.74 222.852 243.78C222.618 243.816 222.391 243.851 222.17 243.883C221.948 243.911 221.763 243.935 221.614 243.955C221.264 244 220.944 244.074 220.654 244.179C220.369 244.283 220.139 244.434 219.966 244.631C219.797 244.825 219.713 245.082 219.713 245.404C219.713 245.851 219.878 246.189 220.208 246.418C220.538 246.644 220.958 246.756 221.469 246.756ZM233.261 245.766L236.255 238.727H237.813L233.931 248H232.591L228.788 238.727H230.327L233.261 245.766ZM229.826 238.727V248H228.057V238.727H229.826ZM236.744 248V238.727H238.501V248H236.744ZM247.175 245.471L251.262 238.727H253.206V248H251.437V241.251L247.368 248H245.406V238.727H247.175V245.471ZM259.612 240.285V238.727H267.436V240.285H264.412V248H262.649V240.285H259.612ZM272.91 248.187C271.996 248.187 271.21 247.992 270.55 247.602C269.894 247.207 269.387 246.654 269.028 245.941C268.674 245.225 268.497 244.386 268.497 243.424C268.497 242.474 268.674 241.637 269.028 240.913C269.387 240.188 269.886 239.623 270.525 239.216C271.169 238.81 271.922 238.607 272.783 238.607C273.306 238.607 273.814 238.693 274.305 238.866C274.796 239.039 275.236 239.311 275.627 239.681C276.017 240.051 276.325 240.532 276.55 241.124C276.776 241.712 276.888 242.426 276.888 243.267V243.907H269.517V242.555H275.12C275.12 242.08 275.023 241.659 274.83 241.293C274.637 240.923 274.365 240.631 274.015 240.418C273.669 240.204 273.262 240.098 272.795 240.098C272.288 240.098 271.846 240.222 271.467 240.472C271.093 240.717 270.803 241.039 270.598 241.438C270.397 241.832 270.296 242.261 270.296 242.724V243.78C270.296 244.4 270.405 244.927 270.622 245.362C270.843 245.797 271.151 246.129 271.546 246.358C271.94 246.583 272.401 246.696 272.928 246.696C273.27 246.696 273.582 246.648 273.864 246.551C274.146 246.451 274.389 246.302 274.594 246.104C274.8 245.907 274.957 245.664 275.065 245.374L276.774 245.682C276.637 246.185 276.391 246.626 276.037 247.004C275.687 247.378 275.246 247.67 274.715 247.879C274.188 248.085 273.586 248.187 272.91 248.187ZM284.095 245.766L287.089 238.727H288.647L284.765 248H283.425L279.622 238.727H281.161L284.095 245.766ZM280.66 238.727V248H278.891V238.727H280.66ZM287.578 248V238.727H289.335V248H287.578ZM294.089 246.31L293.999 246.968C293.938 247.451 293.836 247.954 293.691 248.477C293.55 249.004 293.403 249.493 293.25 249.944C293.101 250.395 292.978 250.753 292.882 251.018H291.602C291.654 250.769 291.727 250.431 291.819 250.004C291.912 249.582 292.002 249.109 292.091 248.586C292.179 248.062 292.246 247.529 292.29 246.986L292.35 246.31H294.089ZM300.938 248V238.727H302.743V242.615H303.612L306.673 238.727H308.907L305.315 243.237L308.949 248H306.709L303.914 244.293H302.743V248H300.938ZM313.875 248.187C313.006 248.187 312.247 247.988 311.599 247.589C310.951 247.191 310.448 246.634 310.09 245.917C309.732 245.201 309.553 244.364 309.553 243.406C309.553 242.444 309.732 241.603 310.09 240.882C310.448 240.162 310.951 239.603 311.599 239.204C312.247 238.806 313.006 238.607 313.875 238.607C314.744 238.607 315.503 238.806 316.151 239.204C316.799 239.603 317.302 240.162 317.66 240.882C318.019 241.603 318.198 242.444 318.198 243.406C318.198 244.364 318.019 245.201 317.66 245.917C317.302 246.634 316.799 247.191 316.151 247.589C315.503 247.988 314.744 248.187 313.875 248.187ZM313.881 246.672C314.445 246.672 314.912 246.523 315.282 246.225C315.652 245.927 315.926 245.531 316.103 245.036C316.284 244.541 316.374 243.996 316.374 243.4C316.374 242.808 316.284 242.265 316.103 241.77C315.926 241.271 315.652 240.87 315.282 240.569C314.912 240.267 314.445 240.116 313.881 240.116C313.314 240.116 312.843 240.267 312.469 240.569C312.098 240.87 311.823 241.271 311.642 241.77C311.464 242.265 311.376 242.808 311.376 243.4C311.376 243.996 311.464 244.541 311.642 245.036C311.823 245.531 312.098 245.927 312.469 246.225C312.843 246.523 313.314 246.672 313.881 246.672ZM325.416 245.766L328.411 238.727H329.968L326.086 248H324.746L320.943 238.727H322.482L325.416 245.766ZM321.981 238.727V248H320.212V238.727H321.981ZM328.9 248V238.727H330.656V248H328.9ZM333.871 251.477C333.601 251.477 333.356 251.455 333.134 251.411C332.913 251.371 332.748 251.326 332.639 251.278L333.074 249.799C333.404 249.888 333.698 249.926 333.956 249.914C334.213 249.902 334.44 249.805 334.638 249.624C334.839 249.443 335.016 249.147 335.169 248.737L335.392 248.121L332 238.727H333.931L336.28 245.923H336.376L338.725 238.727H340.663L336.841 249.238C336.664 249.721 336.439 250.129 336.165 250.463C335.891 250.801 335.565 251.055 335.187 251.224C334.809 251.393 334.37 251.477 333.871 251.477ZM1.21342 272V262.727H5.05895C6.10535 262.727 6.93442 262.951 7.54617 263.397C8.15791 263.84 8.46378 264.442 8.46378 265.202C8.46378 265.746 8.29072 266.176 7.9446 266.494C7.59849 266.812 7.13968 267.026 6.56818 267.134C6.98272 267.183 7.36304 267.307 7.70916 267.509C8.05528 267.706 8.33298 267.971 8.54226 268.305C8.75556 268.639 8.86222 269.038 8.86222 269.501C8.86222 269.992 8.73544 270.426 8.48189 270.805C8.22834 271.179 7.86009 271.473 7.37713 271.686C6.8982 271.895 6.32067 272 5.64453 272H1.21342ZM2.9098 270.491H5.64453C6.09126 270.491 6.44141 270.384 6.69496 270.171C6.94851 269.958 7.07528 269.668 7.07528 269.301C7.07528 268.871 6.94851 268.533 6.69496 268.287C6.44141 268.038 6.09126 267.913 5.64453 267.913H2.9098V270.491ZM2.9098 266.591H5.07706C5.41513 266.591 5.7049 266.543 5.94638 266.446C6.19188 266.349 6.37902 266.213 6.50781 266.036C6.64062 265.854 6.70703 265.641 6.70703 265.396C6.70703 265.037 6.56013 264.758 6.26634 264.556C5.97254 264.355 5.57008 264.255 5.05895 264.255H2.9098V266.591ZM12.2006 265.915H14.8931C16.0281 265.915 16.9014 266.196 17.5131 266.76C18.1249 267.323 18.4308 268.05 18.4308 268.939C18.4308 269.519 18.2939 270.04 18.0202 270.503C17.7466 270.966 17.3461 271.332 16.8189 271.602C16.2917 271.867 15.6497 272 14.8931 272H10.8423V262.727H12.6112V270.442H14.8931C15.4123 270.442 15.8389 270.308 16.1729 270.038C16.507 269.764 16.674 269.416 16.674 268.994C16.674 268.547 16.507 268.183 16.1729 267.901C15.8389 267.615 15.4123 267.472 14.8931 267.472H12.2006V265.915ZM19.7468 272V262.727H21.5518V272H19.7468ZM32.3791 272.187C31.5098 272.187 30.7511 271.988 30.1032 271.589C29.4552 271.191 28.9521 270.634 28.5939 269.917C28.2357 269.201 28.0566 268.364 28.0566 267.406C28.0566 266.444 28.2357 265.603 28.5939 264.882C28.9521 264.162 29.4552 263.603 30.1032 263.204C30.7511 262.806 31.5098 262.607 32.3791 262.607C33.2484 262.607 34.007 262.806 34.655 263.204C35.303 263.603 35.806 264.162 36.1642 264.882C36.5224 265.603 36.7015 266.444 36.7015 267.406C36.7015 268.364 36.5224 269.201 36.1642 269.917C35.806 270.634 35.303 271.191 34.655 271.589C34.007 271.988 33.2484 272.187 32.3791 272.187ZM32.3851 270.672C32.9486 270.672 33.4154 270.523 33.7857 270.225C34.156 269.927 34.4296 269.531 34.6067 269.036C34.7878 268.541 34.8784 267.996 34.8784 267.4C34.8784 266.808 34.7878 266.265 34.6067 265.77C34.4296 265.271 34.156 264.87 33.7857 264.569C33.4154 264.267 32.9486 264.116 32.3851 264.116C31.8176 264.116 31.3468 264.267 30.9725 264.569C30.6022 264.87 30.3265 265.271 30.1454 265.77C29.9683 266.265 29.8798 266.808 29.8798 267.4C29.8798 267.996 29.9683 268.541 30.1454 269.036C30.3265 269.531 30.6022 269.927 30.9725 270.225C31.3468 270.523 31.8176 270.672 32.3851 270.672ZM37.5995 264.285V262.727H45.4234V264.285H42.3989V272H40.6361V264.285H37.5995ZM47.3326 272V262.727H49.1376V266.615H50.0069L53.0676 262.727H55.3013L51.7093 267.237L55.3436 272H53.1039L50.3088 268.293H49.1376V272H47.3326ZM56.7456 275.477V262.727H58.5084V264.23H58.6594C58.764 264.037 58.9149 263.814 59.1121 263.56C59.3093 263.307 59.583 263.085 59.9331 262.896C60.2833 262.703 60.7461 262.607 61.3216 262.607C62.0702 262.607 62.7383 262.796 63.3259 263.174C63.9135 263.552 64.3743 264.098 64.7084 264.81C65.0464 265.522 65.2155 266.38 65.2155 267.382C65.2155 268.384 65.0484 269.243 64.7144 269.96C64.3804 270.672 63.9215 271.221 63.338 271.608C62.7544 271.99 62.0883 272.181 61.3398 272.181C60.7763 272.181 60.3155 272.087 59.9573 271.897C59.6031 271.708 59.3254 271.487 59.1242 271.233C58.923 270.98 58.768 270.754 58.6594 270.557H58.5507V275.477H56.7456ZM58.5145 267.364C58.5145 268.016 58.609 268.587 58.7982 269.078C58.9874 269.569 59.261 269.953 59.6192 270.231C59.9774 270.505 60.4161 270.642 60.9353 270.642C61.4746 270.642 61.9253 270.499 62.2876 270.213C62.6498 269.923 62.9234 269.531 63.1086 269.036C63.2977 268.541 63.3923 267.983 63.3923 267.364C63.3923 266.752 63.2997 266.203 63.1146 265.716C62.9335 265.229 62.6598 264.844 62.2936 264.562C61.9314 264.281 61.4786 264.14 60.9353 264.14C60.4121 264.14 59.9694 264.275 59.6072 264.544C59.249 264.814 58.9773 265.19 58.7922 265.673C58.607 266.156 58.5145 266.72 58.5145 267.364ZM68.5961 265.915H71.2886C72.4236 265.915 73.2969 266.196 73.9086 266.76C74.5204 267.323 74.8263 268.05 74.8263 268.939C74.8263 269.519 74.6894 270.04 74.4157 270.503C74.1421 270.966 73.7416 271.332 73.2144 271.602C72.6872 271.867 72.0452 272 71.2886 272H67.2378V262.727H69.0067V270.442H71.2886C71.8078 270.442 72.2344 270.308 72.5684 270.038C72.9025 269.764 73.0695 269.416 73.0695 268.994C73.0695 268.547 72.9025 268.183 72.5684 267.901C72.2344 267.615 71.8078 267.472 71.2886 267.472H68.5961V265.915ZM76.1423 272V262.727H77.9474V272H76.1423ZM79.6392 272L79.6332 270.436H79.9652C80.2228 270.436 80.4381 270.382 80.6112 270.273C80.7882 270.161 80.9331 269.972 81.0458 269.706C81.1585 269.44 81.245 269.074 81.3054 268.607C81.3658 268.136 81.41 267.545 81.4382 266.832L81.6012 262.727H88.0728V272H86.304V264.285H83.2734L83.1286 267.436C83.0923 268.201 83.0138 268.869 82.8931 269.44C82.7764 270.012 82.6054 270.489 82.38 270.871C82.1546 271.249 81.8648 271.533 81.5107 271.722C81.1565 271.907 80.7259 272 80.2188 272H79.6392ZM92.2488 269.471L96.3358 262.727H98.2797V272H96.5109V265.251L92.442 272H90.48V262.727H92.2488V269.471ZM104.3 274.674V270.436H105.055C105.248 270.259 105.411 270.048 105.544 269.803C105.681 269.557 105.795 269.265 105.888 268.927C105.984 268.589 106.065 268.195 106.129 267.744C106.194 267.289 106.25 266.77 106.298 266.186L106.588 262.727H112.891V270.436H114.315V274.674H112.553V272H106.087V274.674H104.3ZM106.987 270.436H111.128V264.273H108.206L108.013 266.186C107.92 267.16 107.804 268.006 107.663 268.722C107.522 269.434 107.296 270.006 106.987 270.436ZM119.986 272.187C119.116 272.187 118.358 271.988 117.71 271.589C117.062 271.191 116.559 270.634 116.2 269.917C115.842 269.201 115.663 268.364 115.663 267.406C115.663 266.444 115.842 265.603 116.2 264.882C116.559 264.162 117.062 263.603 117.71 263.204C118.358 262.806 119.116 262.607 119.986 262.607C120.855 262.607 121.613 262.806 122.261 263.204C122.909 263.603 123.412 264.162 123.771 264.882C124.129 265.603 124.308 266.444 124.308 267.406C124.308 268.364 124.129 269.201 123.771 269.917C123.412 270.634 122.909 271.191 122.261 271.589C121.613 271.988 120.855 272.187 119.986 272.187ZM119.992 270.672C120.555 270.672 121.022 270.523 121.392 270.225C121.762 269.927 122.036 269.531 122.213 269.036C122.394 268.541 122.485 267.996 122.485 267.4C122.485 266.808 122.394 266.265 122.213 265.77C122.036 265.271 121.762 264.87 121.392 264.569C121.022 264.267 120.555 264.116 119.992 264.116C119.424 264.116 118.953 264.267 118.579 264.569C118.209 264.87 117.933 265.271 117.752 265.77C117.575 266.265 117.486 266.808 117.486 267.4C117.486 267.996 117.575 268.541 117.752 269.036C117.933 269.531 118.209 269.927 118.579 270.225C118.953 270.523 119.424 270.672 119.992 270.672ZM130.229 272.187C129.331 272.187 128.558 271.984 127.911 271.577C127.267 271.167 126.772 270.601 126.425 269.881C126.079 269.161 125.906 268.336 125.906 267.406C125.906 266.464 126.083 265.633 126.438 264.913C126.792 264.188 127.291 263.623 127.935 263.216C128.579 262.81 129.337 262.607 130.211 262.607C130.915 262.607 131.543 262.737 132.094 262.999C132.645 263.257 133.09 263.619 133.428 264.086C133.77 264.552 133.974 265.098 134.038 265.722H132.281C132.185 265.287 131.963 264.913 131.617 264.599C131.275 264.285 130.816 264.128 130.241 264.128C129.738 264.128 129.297 264.261 128.919 264.526C128.544 264.788 128.253 265.162 128.043 265.649C127.834 266.132 127.729 266.704 127.729 267.364C127.729 268.04 127.832 268.623 128.037 269.114C128.243 269.605 128.532 269.986 128.907 270.255C129.285 270.525 129.73 270.66 130.241 270.66C130.583 270.66 130.893 270.597 131.17 270.473C131.452 270.344 131.688 270.161 131.877 269.923C132.07 269.686 132.205 269.4 132.281 269.066H134.038C133.974 269.666 133.778 270.201 133.452 270.672C133.126 271.143 132.69 271.513 132.142 271.783C131.599 272.052 130.961 272.187 130.229 272.187ZM135.267 264.285V262.727H143.09V264.285H140.066V272H138.303V264.285H135.267ZM146.141 275.477C145.871 275.477 145.625 275.455 145.404 275.411C145.183 275.371 145.018 275.326 144.909 275.278L145.344 273.799C145.674 273.888 145.967 273.926 146.225 273.914C146.483 273.902 146.71 273.805 146.907 273.624C147.108 273.443 147.286 273.147 147.438 272.737L147.662 272.121L144.269 262.727H146.201L148.549 269.923H148.646L150.994 262.727H152.932L149.111 273.238C148.934 273.721 148.708 274.129 148.435 274.463C148.161 274.801 147.835 275.055 147.457 275.224C147.078 275.393 146.64 275.477 146.141 275.477ZM154.628 272V262.727H162.193V272H160.424V264.285H156.385V272H154.628Z" fill="#4E5D7C" fill-opacity="0.5"/>
<g clip-path="url(#clip0_3725_1229)">
<path d="M79.3082 59.2668C76.3653 57.8182 73.5247 56.1679 70.5978 54.6879C69.7229 54.2462 69.4229 53.7574 69.432 52.7842C69.4865 47.2456 69.4616 41.7049 69.4502 36.1663C69.4434 33.397 67.4163 30.0268 63.4372 30.2735C63.1668 30.2892 62.8918 30.2735 62.5692 30.2735C62.5692 29.1164 62.6237 28.0805 62.5578 27.0512C62.4374 25.1856 62.4646 23.2729 62.0488 21.4656C59.5672 10.6755 52.9271 3.4799 42.0147 0.863099C31.1159 -1.75146 21.8715 1.64343 14.72 10.1508C10.7591 14.862 8.95025 20.4162 8.92298 26.531C8.91844 27.7531 8.92298 28.9774 8.92298 30.278C8.41395 30.278 7.99581 30.278 7.57768 30.278C5.65971 30.278 4.20079 31.1188 3.13273 32.6526C2.37145 33.7468 2.03285 34.9779 2.02831 36.2941C2.01695 39.1935 2.01013 58.316 2.02376 62.8074C2.00104 66.5768 1.96695 70.3484 2.07376 74.1155C2.17602 77.6987 4.55075 79.7975 8.16625 79.7975C24.9871 79.7975 41.8102 79.802 58.631 79.7841C59.2582 79.7841 59.6513 79.9567 60.049 80.4523C61.951 82.8269 64.2076 84.7889 67.0664 86.002H68.4299C69.4093 85.4549 70.4433 84.984 71.3545 84.345C74.4564 82.1744 76.6516 79.2302 78.456 75.9878C80.5603 72.2095 81.842 68.2047 81.992 63.8591C82.0647 61.7221 81.3057 60.2534 79.3059 59.269L79.3082 59.2668ZM23.4191 6.96671C31.7977 1.87215 40.4967 2.02238 48.7116 7.37706C56.938 12.7407 59.8058 20.7324 59.0332 30.2309H54.3156C54.3156 28.4998 54.4178 26.8203 54.2996 25.1542C53.6429 15.9181 45.9188 8.47132 36.688 8.11254C27.0936 7.74032 18.7855 14.3866 17.3243 23.6295C17.1584 24.6744 17.1448 25.7462 17.1107 26.8068C17.0766 27.9213 17.1039 29.038 17.1039 30.2129H12.4158C11.684 20.414 14.736 12.2474 23.4213 6.96671H23.4191ZM50.791 30.2488H20.6512C19.2127 20.0686 25.2507 12.7026 33.7929 11.6465C42.2601 10.6015 49.4457 16.028 50.7455 24.3291C51.0432 26.2328 50.7887 28.2217 50.7887 30.2466L50.791 30.2488ZM56.4403 76.4183C40.2149 76.4183 23.9895 76.4138 7.76402 76.4296C6.76868 76.4296 6.0983 76.0057 5.78925 75.1469C5.56882 74.5325 5.48246 73.8419 5.48019 73.1827C5.45747 69.6106 5.46883 66.0364 5.46201 62.4621C5.47565 57.5828 5.46201 39.5657 5.46656 36.9466C5.46656 36.5565 5.46428 36.1596 5.51428 35.7739C5.69153 34.3926 6.52325 33.6504 7.88446 33.6504C26.4687 33.6504 45.0507 33.6504 63.6349 33.6504C64.778 33.6504 65.4666 34.0989 65.8029 35.1662C65.9665 35.6887 66.0256 36.265 66.0279 36.8166C66.0438 42.2722 66.0279 47.7277 66.0528 53.1833C66.0551 53.8179 65.8915 54.1677 65.2916 54.4772C62.251 56.0445 59.2786 57.751 56.204 59.2533C54.1224 60.2691 53.3748 61.8141 53.4884 63.9958C53.627 66.6418 54.0906 69.2182 55.0587 71.687C55.6768 73.2656 56.4153 74.7971 57.1289 76.4183H56.4449H56.4403ZM78.5651 63.8703C78.2219 69.4581 76.1244 74.0258 72.9112 78.1517C71.6772 79.737 70.2228 81.0958 68.5071 82.1923C67.9413 82.5533 67.5231 82.5242 66.9732 82.1789C63.9645 80.2863 61.8761 77.5978 60.1649 74.5908C58.2537 71.2296 57.0243 67.6688 56.938 63.7671C56.9221 62.989 57.1698 62.5764 57.872 62.2154C60.9648 60.6234 64.0304 58.9842 67.0868 57.3294C67.5709 57.067 67.9322 57.067 68.4117 57.3249C71.3454 58.9125 74.2769 60.5045 77.2516 62.0159C78.2242 62.5114 78.8718 63.0272 78.5651 63.8703Z" fill="#357EFE"/>
<path d="M29.3801 54.9212C33.5069 51.2079 32.9206 45.6357 29.9118 42.5121C26.7327 39.2114 21.4173 38.9087 17.895 41.8865C16.2134 43.3082 15.184 45.1087 14.9045 47.2771C14.5022 50.3805 15.5885 52.9659 17.945 55.0983C17.6791 55.2598 17.4905 55.3741 17.3042 55.4907C13.6228 57.8272 11.3958 61.0539 11.0549 65.4265C10.8458 68.1061 12.7297 70.2183 15.4294 70.2363C20.8538 70.2699 26.2759 70.2677 31.7003 70.2363C34.2523 70.2228 36.0748 68.346 36.068 65.8436C36.0589 63.1393 35.1658 60.7019 33.4046 58.6726C32.2229 57.3115 30.7595 56.1881 29.3846 54.9212H29.3801ZM23.5807 43.1983C26.5281 43.2095 28.9074 45.6021 28.8779 48.5261C28.8483 51.3873 26.4009 53.735 23.5012 53.6857C20.5538 53.6363 18.2427 51.3065 18.2609 48.405C18.2791 45.5191 20.6629 43.1893 23.5807 43.1983ZM31.3526 66.8705C28.7415 66.8773 26.1304 66.8728 23.5171 66.8728C20.9629 66.8728 18.4063 66.8773 15.8521 66.8728C14.7113 66.8728 14.4522 66.588 14.5136 65.4624C14.7113 61.8724 17.7473 58.3497 21.5037 57.3519C24.9919 56.4258 28.9097 58.0447 31.1367 61.3342C32.0025 62.6146 32.5479 64.0071 32.6274 65.5521C32.6797 66.5521 32.3638 66.8705 31.3526 66.8728V66.8705Z" fill="#357EFE"/>
<path d="M40.1942 48.2304C42.6371 48.2372 45.0777 48.2304 47.5206 48.2304C49.934 48.2304 52.3474 48.2349 54.763 48.2304C56.0447 48.2282 56.8468 47.5532 56.8264 46.515C56.8059 45.5038 56.0265 44.8647 54.7834 44.8647C49.9272 44.8602 45.0709 44.8602 40.2146 44.8647C38.9489 44.8647 38.2194 45.4881 38.2149 46.5375C38.2103 47.5914 38.9421 48.2259 40.1942 48.2304Z" fill="#357EFE"/>
<path d="M50.1161 53.9303C46.8006 53.9236 43.4828 53.9236 40.1672 53.9303C38.9265 53.9326 38.197 54.5851 38.2152 55.6412C38.2311 56.657 38.9537 57.2871 40.1468 57.2938C41.8193 57.305 43.4918 57.2961 45.1644 57.2961C46.8074 57.2961 48.4526 57.3028 50.0956 57.2961C51.3569 57.2893 52.0863 56.6705 52.0909 55.6211C52.0977 54.5694 51.366 53.9326 50.1161 53.9303Z" fill="#357EFE"/>
<path d="M71.4234 65.4761C71.1735 65.7048 70.9508 65.9605 70.7031 66.1914C69.2759 67.5099 67.8443 68.8239 66.3422 70.2052C66.2081 70.0819 65.9604 69.8509 65.7127 69.6222C65.465 69.3935 65.2219 69.1558 64.9651 68.936C64.0947 68.1849 63.0767 68.1871 62.3949 68.936C61.7359 69.6603 61.8063 70.6268 62.6153 71.3981C63.4925 72.2345 64.3856 73.0574 65.2923 73.8624C66.2218 74.6898 67.083 74.654 67.9875 73.7705C68.6533 73.1202 69.3032 72.4565 69.9577 71.7928C71.2644 70.4698 72.5847 69.158 73.8686 67.8126C74.5913 67.057 74.5594 66.0771 73.8686 65.4111C73.1869 64.7563 72.187 64.7788 71.4234 65.4761Z" fill="#357EFE"/>
</g>
<defs>
<clipPath id="clip0_3725_1229">
<rect width="80" height="86" fill="white" transform="translate(2)"/>
</clipPath>
</defs>
</svg>
