<svg width="408" height="64" viewBox="0 0 408 64" fill="none" xmlns="http://www.w3.org/2000/svg">
<path d="M97.5568 17.2727C97.5568 19.1761 97.196 20.7955 96.4744 22.1307C95.7585 23.4659 94.7813 24.4858 93.5426 25.1903C92.3097 25.8892 90.9233 26.2386 89.3835 26.2386C87.8324 26.2386 86.4403 25.8864 85.2074 25.1818C83.9744 24.4773 83 23.4574 82.2841 22.1222C81.5682 20.7869 81.2102 19.1705 81.2102 17.2727C81.2102 15.3693 81.5682 13.75 82.2841 12.4148C83 11.0795 83.9744 10.0625 85.2074 9.36364C86.4403 8.65909 87.8324 8.30682 89.3835 8.30682C90.9233 8.30682 92.3097 8.65909 93.5426 9.36364C94.7813 10.0625 95.7585 11.0795 96.4744 12.4148C97.196 13.75 97.5568 15.3693 97.5568 17.2727ZM93.8153 17.2727C93.8153 16.0398 93.6307 15 93.2614 14.1534C92.8977 13.3068 92.3835 12.6648 91.7188 12.2273C91.054 11.7898 90.2756 11.571 89.3835 11.571C88.4915 11.571 87.7131 11.7898 87.0483 12.2273C86.3835 12.6648 85.8665 13.3068 85.4972 14.1534C85.1335 15 84.9517 16.0398 84.9517 17.2727C84.9517 18.5057 85.1335 19.5455 85.4972 20.392C85.8665 21.2386 86.3835 21.8807 87.0483 22.3182C87.7131 22.7557 88.4915 22.9744 89.3835 22.9744C90.2756 22.9744 91.054 22.7557 91.7188 22.3182C92.3835 21.8807 92.8977 21.2386 93.2614 20.392C93.6307 19.5455 93.8153 18.5057 93.8153 17.2727ZM99.5405 15.7642V12.9091H111.404V15.7642H107.185V26H103.725V15.7642H99.5405ZM125.441 8.30682C126.339 8.30682 127.202 8.45739 128.032 8.75852C128.867 9.05966 129.612 9.53977 130.265 10.1989C130.924 10.858 131.444 11.733 131.825 12.8239C132.211 13.9091 132.407 15.2415 132.413 16.821C132.413 18.304 132.245 19.6278 131.91 20.7926C131.58 21.9517 131.106 22.9375 130.487 23.75C129.867 24.5625 129.12 25.1818 128.245 25.608C127.37 26.0284 126.393 26.2386 125.313 26.2386C124.148 26.2386 123.12 26.0142 122.228 25.5653C121.336 25.1108 120.617 24.4943 120.072 23.7159C119.532 22.9318 119.205 22.0511 119.092 21.0739H122.731C122.873 21.7102 123.171 22.2045 123.626 22.5568C124.08 22.9034 124.643 23.0767 125.313 23.0767C126.45 23.0767 127.313 22.5824 127.904 21.5938C128.495 20.5994 128.793 19.2386 128.799 17.5114H128.68C128.418 18.0227 128.066 18.4631 127.623 18.8324C127.18 19.196 126.671 19.4773 126.097 19.6761C125.529 19.875 124.924 19.9744 124.282 19.9744C123.254 19.9744 122.336 19.733 121.529 19.25C120.722 18.767 120.086 18.1023 119.62 17.2557C119.154 16.4091 118.921 15.4432 118.921 14.358C118.915 13.1875 119.185 12.1449 119.731 11.2301C120.276 10.3153 121.038 9.59943 122.015 9.08239C122.998 8.55966 124.14 8.30114 125.441 8.30682ZM125.467 11.2045C124.893 11.2045 124.381 11.3409 123.933 11.6136C123.489 11.8864 123.137 12.2528 122.876 12.7131C122.62 13.1733 122.495 13.6875 122.501 14.2557C122.501 14.8295 122.626 15.3466 122.876 15.8068C123.131 16.2614 123.478 16.625 123.915 16.8977C124.359 17.1648 124.864 17.2983 125.433 17.2983C125.859 17.2983 126.254 17.2187 126.617 17.0597C126.981 16.9006 127.296 16.6818 127.563 16.4034C127.836 16.1193 128.049 15.7926 128.202 15.4233C128.356 15.054 128.433 14.6619 128.433 14.2472C128.427 13.696 128.296 13.1903 128.04 12.7301C127.785 12.2699 127.433 11.9006 126.984 11.6222C126.535 11.3437 126.029 11.2045 125.467 11.2045ZM141.285 8.30682C142.183 8.30682 143.046 8.45739 143.876 8.75852C144.711 9.05966 145.455 9.53977 146.109 10.1989C146.768 10.858 147.288 11.733 147.668 12.8239C148.055 13.9091 148.251 15.2415 148.256 16.821C148.256 18.304 148.089 19.6278 147.754 20.7926C147.424 21.9517 146.95 22.9375 146.33 23.75C145.711 24.5625 144.964 25.1818 144.089 25.608C143.214 26.0284 142.237 26.2386 141.157 26.2386C139.992 26.2386 138.964 26.0142 138.072 25.5653C137.18 25.1108 136.461 24.4943 135.915 23.7159C135.376 22.9318 135.049 22.0511 134.935 21.0739H138.575C138.717 21.7102 139.015 22.2045 139.469 22.5568C139.924 22.9034 140.487 23.0767 141.157 23.0767C142.293 23.0767 143.157 22.5824 143.748 21.5938C144.339 20.5994 144.637 19.2386 144.643 17.5114H144.523C144.262 18.0227 143.91 18.4631 143.467 18.8324C143.023 19.196 142.515 19.4773 141.941 19.6761C141.373 19.875 140.768 19.9744 140.126 19.9744C139.097 19.9744 138.18 19.733 137.373 19.25C136.566 18.767 135.93 18.1023 135.464 17.2557C134.998 16.4091 134.765 15.4432 134.765 14.358C134.759 13.1875 135.029 12.1449 135.575 11.2301C136.12 10.3153 136.881 9.59943 137.859 9.08239C138.842 8.55966 139.984 8.30114 141.285 8.30682ZM141.31 11.2045C140.737 11.2045 140.225 11.3409 139.776 11.6136C139.333 11.8864 138.981 12.2528 138.719 12.7131C138.464 13.1733 138.339 13.6875 138.344 14.2557C138.344 14.8295 138.469 15.3466 138.719 15.8068C138.975 16.2614 139.322 16.625 139.759 16.8977C140.202 17.1648 140.708 17.2983 141.276 17.2983C141.702 17.2983 142.097 17.2187 142.461 17.0597C142.825 16.9006 143.14 16.6818 143.407 16.4034C143.68 16.1193 143.893 15.7926 144.046 15.4233C144.2 15.054 144.276 14.6619 144.276 14.2472C144.271 13.696 144.14 13.1903 143.884 12.7301C143.629 12.2699 143.276 11.9006 142.827 11.6222C142.379 11.3437 141.873 11.2045 141.31 11.2045ZM157.657 26.3835C156.191 26.3778 154.93 26.017 153.873 25.3011C152.822 24.5852 152.012 23.5483 151.444 22.1903C150.881 20.8324 150.603 19.1989 150.609 17.2898C150.609 15.3864 150.89 13.7642 151.452 12.4233C152.021 11.0824 152.83 10.0625 153.881 9.36364C154.938 8.65909 156.197 8.30682 157.657 8.30682C159.117 8.30682 160.373 8.65909 161.424 9.36364C162.481 10.0682 163.293 11.0909 163.862 12.4318C164.43 13.767 164.711 15.3864 164.705 17.2898C164.705 19.2045 164.421 20.8409 163.853 22.1989C163.29 23.5568 162.484 24.5937 161.433 25.3097C160.381 26.0256 159.123 26.3835 157.657 26.3835ZM157.657 23.3239C158.657 23.3239 159.455 22.821 160.052 21.8153C160.648 20.8097 160.944 19.3011 160.938 17.2898C160.938 15.9659 160.802 14.8636 160.529 13.983C160.262 13.1023 159.881 12.4403 159.387 11.9972C158.898 11.554 158.322 11.3324 157.657 11.3324C156.663 11.3324 155.867 11.8295 155.271 12.8239C154.674 13.8182 154.373 15.3068 154.367 17.2898C154.367 18.6307 154.501 19.75 154.768 20.6477C155.04 21.5398 155.424 22.2102 155.918 22.6591C156.413 23.1023 156.992 23.3239 157.657 23.3239ZM172.925 30.9091V12.9091H176.505V15.108H176.667C176.826 14.7557 177.056 14.3977 177.357 14.0341C177.664 13.6648 178.062 13.358 178.55 13.1136C179.045 12.8636 179.658 12.7386 180.391 12.7386C181.346 12.7386 182.227 12.9886 183.033 13.4886C183.84 13.983 184.485 14.7301 184.968 15.7301C185.451 16.7244 185.692 17.9716 185.692 19.4716C185.692 20.9318 185.457 22.1648 184.985 23.1705C184.519 24.1705 183.883 24.929 183.076 25.446C182.275 25.9574 181.377 26.2131 180.383 26.2131C179.678 26.2131 179.079 26.0966 178.585 25.8636C178.096 25.6307 177.695 25.3381 177.383 24.9858C177.07 24.6278 176.832 24.267 176.667 23.9034H176.556V30.9091H172.925ZM176.479 19.4545C176.479 20.233 176.587 20.9119 176.803 21.4915C177.019 22.071 177.332 22.5227 177.741 22.8466C178.15 23.1648 178.647 23.3239 179.232 23.3239C179.823 23.3239 180.323 23.1619 180.732 22.8381C181.141 22.5085 181.451 22.054 181.661 21.4744C181.877 20.8892 181.985 20.2159 181.985 19.4545C181.985 18.6989 181.88 18.0341 181.67 17.4602C181.46 16.8864 181.15 16.4375 180.741 16.1136C180.332 15.7898 179.829 15.6278 179.232 15.6278C178.641 15.6278 178.141 15.7841 177.732 16.0966C177.329 16.4091 177.019 16.8523 176.803 17.4261C176.587 18 176.479 18.6761 176.479 19.4545ZM189.933 30.9091C189.472 30.9091 189.04 30.8722 188.637 30.7983C188.239 30.7301 187.91 30.642 187.648 30.5341L188.467 27.8239C188.893 27.9545 189.276 28.0256 189.617 28.0369C189.964 28.0483 190.262 27.9688 190.512 27.7983C190.768 27.6278 190.975 27.3381 191.134 26.929L191.347 26.375L186.651 12.9091H190.469L193.18 22.5227H193.316L196.052 12.9091H199.896L194.808 27.4148C194.563 28.1193 194.231 28.733 193.81 29.2557C193.396 29.7841 192.87 30.1903 192.234 30.4744C191.597 30.7642 190.83 30.9091 189.933 30.9091ZM212.637 8.10227L213.745 10.4716C213.376 10.7784 212.967 11.0057 212.518 11.1534C212.069 11.2955 211.532 11.3892 210.907 11.4347C210.288 11.4801 209.532 11.5114 208.64 11.5284C207.629 11.5398 206.805 11.7017 206.168 12.0142C205.532 12.3267 205.049 12.8182 204.719 13.4886C204.39 14.1534 204.174 15.0227 204.072 16.0966H204.2C204.592 15.2955 205.143 14.6761 205.853 14.2386C206.569 13.8011 207.452 13.5824 208.504 13.5824C209.617 13.5824 210.592 13.8267 211.427 14.3153C212.268 14.804 212.921 15.5057 213.387 16.4205C213.853 17.3352 214.086 18.4318 214.086 19.7102C214.086 21.0398 213.825 22.196 213.302 23.179C212.785 24.1562 212.049 24.9148 211.094 25.4545C210.14 25.9886 209.004 26.2557 207.685 26.2557C206.362 26.2557 205.219 25.9773 204.259 25.4205C203.305 24.8636 202.566 24.0426 202.043 22.9574C201.526 21.8722 201.268 20.5369 201.268 18.9517V17.8778C201.268 14.7244 201.881 12.3864 203.109 10.8636C204.336 9.34091 206.14 8.56818 208.521 8.54545C209.168 8.53409 209.754 8.53125 210.276 8.53693C210.799 8.54261 211.256 8.51705 211.648 8.46023C212.046 8.40341 212.376 8.28409 212.637 8.10227ZM207.702 23.4432C208.259 23.4432 208.737 23.2983 209.134 23.0085C209.538 22.7187 209.847 22.304 210.063 21.7642C210.285 21.2244 210.396 20.5795 210.396 19.8295C210.396 19.0852 210.285 18.4545 210.063 17.9375C209.847 17.4148 209.538 17.017 209.134 16.7443C208.731 16.4716 208.248 16.3352 207.685 16.3352C207.265 16.3352 206.887 16.4119 206.552 16.5653C206.217 16.7187 205.93 16.946 205.691 17.2472C205.458 17.5426 205.276 17.9091 205.146 18.3466C205.021 18.7784 204.958 19.2727 204.958 19.8295C204.958 20.9489 205.2 21.8324 205.683 22.4801C206.171 23.1222 206.844 23.4432 207.702 23.4432ZM215.729 26L215.712 23.1193H216.146C216.453 23.1193 216.717 23.0455 216.939 22.8977C217.166 22.7443 217.354 22.4972 217.501 22.1562C217.649 21.8153 217.766 21.3636 217.851 20.8011C217.936 20.233 217.993 19.5341 218.021 18.7045L218.234 12.9091H228.189V26H224.729V15.7642H221.499L221.294 19.7614C221.243 20.858 221.109 21.8011 220.893 22.5909C220.683 23.3807 220.391 24.0284 220.016 24.5341C219.641 25.0341 219.189 25.4034 218.661 25.642C218.132 25.8807 217.518 26 216.82 26H215.729ZM236.969 26.2557C235.623 26.2557 234.464 25.983 233.492 25.4375C232.526 24.8864 231.782 24.108 231.259 23.1023C230.737 22.0909 230.475 20.8949 230.475 19.5142C230.475 18.1676 230.737 16.9858 231.259 15.9688C231.782 14.9517 232.518 14.1591 233.467 13.5909C234.421 13.0227 235.54 12.7386 236.825 12.7386C237.688 12.7386 238.492 12.8778 239.237 13.1562C239.987 13.429 240.64 13.8409 241.197 14.392C241.759 14.9432 242.197 15.6364 242.509 16.4716C242.822 17.3011 242.978 18.2727 242.978 19.3864V20.3835H231.924V18.1335H239.56C239.56 17.6108 239.447 17.1477 239.219 16.7443C238.992 16.3409 238.677 16.0256 238.273 15.7983C237.876 15.5653 237.413 15.4489 236.884 15.4489C236.333 15.4489 235.844 15.5767 235.418 15.8324C234.998 16.0824 234.668 16.4205 234.43 16.8466C234.191 17.267 234.069 17.7358 234.063 18.2528V20.392C234.063 21.0398 234.183 21.5994 234.421 22.071C234.665 22.5426 235.009 22.9062 235.452 23.1619C235.896 23.4176 236.421 23.5455 237.029 23.5455C237.433 23.5455 237.802 23.4886 238.137 23.375C238.472 23.2614 238.759 23.0909 238.998 22.8636C239.237 22.6364 239.418 22.358 239.543 22.0284L242.901 22.25C242.731 23.0568 242.381 23.7614 241.853 24.3636C241.33 24.9602 240.654 25.4261 239.825 25.7614C239.001 26.0909 238.049 26.2557 236.969 26.2557ZM248.816 21.2102L253.529 12.9091H257.109V26H253.648V17.6733L248.952 26H245.347V12.9091H248.816V21.2102ZM252.907 8.34091H255.438C255.433 9.375 255.049 10.2074 254.288 10.8381C253.532 11.4687 252.509 11.7841 251.219 11.7841C249.924 11.7841 248.898 11.4687 248.143 10.8381C247.387 10.2074 247.009 9.375 247.009 8.34091H249.523C249.518 8.73295 249.643 9.08523 249.898 9.39773C250.16 9.71023 250.6 9.86648 251.219 9.86648C251.822 9.86648 252.254 9.71307 252.515 9.40625C252.776 9.09943 252.907 8.74432 252.907 8.34091ZM265.574 26V12.9091H271.156C272.77 12.9091 274.045 13.2159 274.983 13.8295C275.92 14.4432 276.389 15.3153 276.389 16.446C276.389 17.1562 276.125 17.7472 275.597 18.2188C275.068 18.6903 274.335 19.0085 273.398 19.1733C274.182 19.2301 274.849 19.4091 275.401 19.7102C275.957 20.0057 276.381 20.3892 276.67 20.8608C276.966 21.3324 277.114 21.8551 277.114 22.429C277.114 23.1733 276.915 23.8125 276.517 24.3466C276.125 24.8807 275.548 25.2898 274.787 25.5739C274.031 25.858 273.108 26 272.017 26H265.574ZM268.957 23.2812H272.017C272.523 23.2812 272.918 23.1619 273.202 22.9233C273.491 22.679 273.636 22.3466 273.636 21.9261C273.636 21.4602 273.491 21.0937 273.202 20.8267C272.918 20.5597 272.523 20.4261 272.017 20.4261H268.957V23.2812ZM268.957 18.2955H271.233C271.597 18.2955 271.906 18.2443 272.162 18.142C272.423 18.0341 272.622 17.8807 272.759 17.6818C272.901 17.483 272.972 17.2472 272.972 16.9744C272.972 16.571 272.81 16.2557 272.486 16.0284C272.162 15.8011 271.719 15.6875 271.156 15.6875H268.957V18.2955ZM292.695 21.9858L296.241 12.9091H299.002L293.897 26H291.485L286.499 12.9091H289.252L292.695 21.9858ZM288.425 12.9091V26H284.957V12.9091H288.425ZM297.144 26V12.9091H300.57V26H297.144ZM309.344 26.2557C307.998 26.2557 306.839 25.983 305.867 25.4375C304.901 24.8864 304.157 24.108 303.634 23.1023C303.112 22.0909 302.85 20.8949 302.85 19.5142C302.85 18.1676 303.112 16.9858 303.634 15.9688C304.157 14.9517 304.893 14.1591 305.842 13.5909C306.796 13.0227 307.915 12.7386 309.2 12.7386C310.063 12.7386 310.867 12.8778 311.612 13.1562C312.362 13.429 313.015 13.8409 313.572 14.392C314.134 14.9432 314.572 15.6364 314.884 16.4716C315.197 17.3011 315.353 18.2727 315.353 19.3864V20.3835H304.299V18.1335H311.935C311.935 17.6108 311.822 17.1477 311.594 16.7443C311.367 16.3409 311.052 16.0256 310.648 15.7983C310.251 15.5653 309.788 15.4489 309.259 15.4489C308.708 15.4489 308.219 15.5767 307.793 15.8324C307.373 16.0824 307.043 16.4205 306.805 16.8466C306.566 17.267 306.444 17.7358 306.438 18.2528V20.392C306.438 21.0398 306.558 21.5994 306.796 22.071C307.04 22.5426 307.384 22.9062 307.827 23.1619C308.271 23.4176 308.796 23.5455 309.404 23.5455C309.808 23.5455 310.177 23.4886 310.512 23.375C310.847 23.2614 311.134 23.0909 311.373 22.8636C311.612 22.6364 311.793 22.358 311.918 22.0284L315.276 22.25C315.106 23.0568 314.756 23.7614 314.228 24.3636C313.705 24.9602 313.029 25.4261 312.2 25.7614C311.376 26.0909 310.424 26.2557 309.344 26.2557ZM323.637 26.2557C322.296 26.2557 321.143 25.9716 320.177 25.4034C319.217 24.8295 318.478 24.0341 317.961 23.017C317.45 22 317.194 20.8295 317.194 19.5057C317.194 18.1648 317.452 16.9886 317.969 15.9773C318.492 14.9602 319.234 14.1676 320.194 13.5994C321.154 13.0256 322.296 12.7386 323.62 12.7386C324.762 12.7386 325.762 12.946 326.62 13.3608C327.478 13.7756 328.157 14.358 328.657 15.108C329.157 15.858 329.433 16.7386 329.484 17.75H326.058C325.961 17.0966 325.705 16.571 325.29 16.1733C324.881 15.7699 324.344 15.5682 323.68 15.5682C323.117 15.5682 322.626 15.7216 322.205 16.0284C321.79 16.3295 321.467 16.7699 321.234 17.3494C321.001 17.929 320.884 18.6307 320.884 19.4545C320.884 20.2898 320.998 21 321.225 21.5852C321.458 22.1705 321.785 22.6165 322.205 22.9233C322.626 23.2301 323.117 23.3835 323.68 23.3835C324.094 23.3835 324.467 23.2983 324.796 23.1278C325.131 22.9574 325.407 22.7102 325.623 22.3864C325.844 22.0568 325.989 21.6619 326.058 21.2017H329.484C329.427 22.2017 329.154 23.0824 328.665 23.8438C328.183 24.5994 327.515 25.1903 326.663 25.6165C325.81 26.0426 324.802 26.2557 323.637 26.2557ZM339.479 26V15.7557H337.024C336.359 15.7557 335.854 15.9091 335.507 16.2159C335.161 16.5227 334.99 16.8864 334.996 17.3068C334.99 17.733 335.155 18.0937 335.49 18.3892C335.831 18.679 336.331 18.8239 336.99 18.8239H340.689V21.2784H336.99C335.871 21.2784 334.902 21.108 334.084 20.767C333.266 20.4261 332.635 19.9517 332.192 19.3438C331.749 18.7301 331.53 18.017 331.536 17.2045C331.53 16.3523 331.749 15.6051 332.192 14.9631C332.635 14.3153 333.268 13.8125 334.092 13.4545C334.922 13.0909 335.899 12.9091 337.024 12.9091H342.862V26H339.479ZM331.161 26L334.8 19.1818H338.268L334.638 26H331.161ZM357.129 12.9091V23.4943H359.217V30.2102H355.689V26H345.683V12.9091H349.152V23.1449H353.703V12.9091H357.129ZM87.3636 55.2557C86.0227 55.2557 84.8693 54.9716 83.9034 54.4034C82.9432 53.8295 82.2045 53.0341 81.6875 52.017C81.1761 51 80.9205 49.8295 80.9205 48.5057C80.9205 47.1648 81.179 45.9886 81.696 44.9773C82.2188 43.9602 82.9602 43.1676 83.9205 42.5994C84.8807 42.0256 86.0227 41.7386 87.3466 41.7386C88.4886 41.7386 89.4886 41.946 90.3466 42.3608C91.2045 42.7756 91.8835 43.358 92.3835 44.108C92.8835 44.858 93.1591 45.7386 93.2102 46.75H89.7841C89.6875 46.0966 89.4318 45.571 89.017 45.1733C88.608 44.7699 88.071 44.5682 87.4062 44.5682C86.8438 44.5682 86.3523 44.7216 85.9318 45.0284C85.517 45.3295 85.1932 45.7699 84.9602 46.3494C84.7273 46.929 84.6108 47.6307 84.6108 48.4545C84.6108 49.2898 84.7244 50 84.9517 50.5852C85.1847 51.1705 85.5114 51.6165 85.9318 51.9233C86.3523 52.2301 86.8438 52.3835 87.4062 52.3835C87.821 52.3835 88.1932 52.2983 88.5227 52.1278C88.858 51.9574 89.1335 51.7102 89.3494 51.3864C89.571 51.0568 89.7159 50.6619 89.7841 50.2017H93.2102C93.1534 51.2017 92.8807 52.0824 92.392 52.8438C91.9091 53.5994 91.2415 54.1903 90.3892 54.6165C89.5369 55.0426 88.5284 55.2557 87.3636 55.2557ZM101.089 55V41.9091H112.536V55H109.067V44.7642H104.516V55H101.089ZM121.348 55.2557C120.024 55.2557 118.879 54.9744 117.913 54.4119C116.953 53.8437 116.212 53.054 115.689 52.0426C115.166 51.0256 114.905 49.8466 114.905 48.5057C114.905 47.1534 115.166 45.9716 115.689 44.9602C116.212 43.9432 116.953 43.1534 117.913 42.5909C118.879 42.0227 120.024 41.7386 121.348 41.7386C122.672 41.7386 123.814 42.0227 124.774 42.5909C125.74 43.1534 126.484 43.9432 127.007 44.9602C127.53 45.9716 127.791 47.1534 127.791 48.5057C127.791 49.8466 127.53 51.0256 127.007 52.0426C126.484 53.054 125.74 53.8437 124.774 54.4119C123.814 54.9744 122.672 55.2557 121.348 55.2557ZM121.365 52.4432C121.967 52.4432 122.47 52.2727 122.874 51.9318C123.277 51.5852 123.581 51.1136 123.786 50.517C123.996 49.9205 124.101 49.2415 124.101 48.4801C124.101 47.7188 123.996 47.0398 123.786 46.4432C123.581 45.8466 123.277 45.375 122.874 45.0284C122.47 44.6818 121.967 44.5085 121.365 44.5085C120.757 44.5085 120.246 44.6818 119.831 45.0284C119.422 45.375 119.112 45.8466 118.902 46.4432C118.697 47.0398 118.595 47.7188 118.595 48.4801C118.595 49.2415 118.697 49.9205 118.902 50.517C119.112 51.1136 119.422 51.5852 119.831 51.9318C120.246 52.2727 120.757 52.4432 121.365 52.4432ZM129.385 55L129.368 52.1193H129.803C130.109 52.1193 130.374 52.0455 130.595 51.8977C130.822 51.7443 131.01 51.4972 131.158 51.1562C131.305 50.8153 131.422 50.3636 131.507 49.8011C131.592 49.233 131.649 48.5341 131.678 47.7045L131.891 41.9091H141.845V55H138.385V44.7642H135.155L134.95 48.7614C134.899 49.858 134.766 50.8011 134.55 51.5909C134.339 52.3807 134.047 53.0284 133.672 53.5341C133.297 54.0341 132.845 54.4034 132.317 54.642C131.788 54.8807 131.175 55 130.476 55H129.385ZM153.771 47.0057V49.8608H146.935V47.0057H153.771ZM148.129 41.9091V55H144.66V41.9091H148.129ZM156.046 41.9091V55H152.603V41.9091H156.046ZM161.138 45.9318H165.05C166.783 45.9318 168.136 46.3466 169.107 47.1761C170.079 48 170.565 49.1023 170.565 50.483C170.565 51.3807 170.346 52.1705 169.908 52.8523C169.471 53.5284 168.84 54.0568 168.016 54.4375C167.192 54.8125 166.204 55 165.05 55H158.863V41.9091H162.332V52.1449H165.05C165.658 52.1449 166.158 51.9915 166.55 51.6847C166.942 51.3778 167.141 50.9858 167.147 50.5085C167.141 50.0028 166.942 49.5909 166.55 49.2727C166.158 48.9489 165.658 48.7869 165.05 48.7869H161.138V45.9318ZM171.971 55V41.9091H175.602V55H171.971ZM186.242 50.9858L189.788 41.9091H192.549L187.444 55H185.032L180.046 41.9091H182.799L186.242 50.9858ZM181.972 41.9091V55H178.504V41.9091H181.972ZM190.691 55V41.9091H194.117V55H190.691ZM208.744 59.4489V37.5455H212.366V59.4489H208.744ZM208.744 55.2557C207.739 55.2557 206.821 55.0938 205.991 54.7699C205.162 54.4403 204.446 53.9773 203.844 53.3807C203.241 52.7784 202.776 52.0653 202.446 51.2415C202.116 50.4119 201.952 49.5 201.952 48.5057C201.952 47.5 202.116 46.5852 202.446 45.7614C202.776 44.9318 203.241 44.2187 203.844 43.6222C204.446 43.0199 205.162 42.5568 205.991 42.233C206.821 41.9034 207.739 41.7386 208.744 41.7386H209.418V55.2557H208.744ZM208.744 52.4261H209.145V44.5682H208.744C208.256 44.5682 207.821 44.6705 207.44 44.875C207.06 45.0795 206.739 45.3608 206.477 45.7188C206.216 46.071 206.017 46.4858 205.881 46.9631C205.75 47.4403 205.685 47.9545 205.685 48.5057C205.685 49.233 205.804 49.8949 206.043 50.4915C206.281 51.0824 206.631 51.554 207.091 51.9062C207.551 52.2528 208.102 52.4261 208.744 52.4261ZM212.366 55.2557H211.693V41.7386H212.366C213.372 41.7386 214.29 41.9034 215.119 42.233C215.949 42.5568 216.665 43.0199 217.267 43.6222C217.869 44.2187 218.335 44.9318 218.665 45.7614C218.994 46.5852 219.159 47.5 219.159 48.5057C219.159 49.5 218.994 50.4119 218.665 51.2415C218.335 52.0653 217.869 52.7784 217.267 53.3807C216.665 53.9773 215.949 54.4403 215.119 54.7699C214.29 55.0938 213.372 55.2557 212.366 55.2557ZM212.366 52.4261C212.855 52.4261 213.29 52.3267 213.67 52.1278C214.051 51.9233 214.372 51.642 214.634 51.2841C214.895 50.9261 215.094 50.5114 215.23 50.0398C215.366 49.5625 215.435 49.0511 215.435 48.5057C215.435 47.7727 215.313 47.1108 215.068 46.5199C214.83 45.9233 214.483 45.4489 214.028 45.0966C213.574 44.7443 213.02 44.5682 212.366 44.5682H211.966V52.4261H212.366ZM223.354 59.9091C222.894 59.9091 222.462 59.8722 222.059 59.7983C221.661 59.7301 221.332 59.642 221.07 59.5341L221.888 56.8239C222.315 56.9545 222.698 57.0256 223.039 57.0369C223.386 57.0483 223.684 56.9688 223.934 56.7983C224.19 56.6278 224.397 56.3381 224.556 55.929L224.769 55.375L220.073 41.9091H223.891L226.602 51.5227H226.738L229.474 41.9091H233.317L228.229 56.4148C227.985 57.1193 227.653 57.733 227.232 58.2557C226.817 58.7841 226.292 59.1903 225.656 59.4744C225.019 59.7642 224.252 59.9091 223.354 59.9091ZM244.286 47.0057V49.8608H237.451V47.0057H244.286ZM238.644 41.9091V55H235.175V41.9091H238.644ZM246.562 41.9091V55H243.119V41.9091H246.562ZM249.379 55V41.9091H253.009V46.9886H254.032L257.594 41.9091H261.856L257.228 48.4034L261.907 55H257.594L254.364 50.3551H253.009V55H249.379ZM274.887 41.9091V52.4943H276.975V59.2102H273.447V55H263.441V41.9091H266.91V52.1449H271.461V41.9091H274.887ZM282.683 50.2102L287.396 41.9091H290.976V55H287.516V46.6733L282.82 55H279.214V41.9091H282.683V50.2102ZM299.801 55.2557C298.477 55.2557 297.332 54.9744 296.366 54.4119C295.406 53.8437 294.665 53.054 294.142 52.0426C293.619 51.0256 293.358 49.8466 293.358 48.5057C293.358 47.1534 293.619 45.9716 294.142 44.9602C294.665 43.9432 295.406 43.1534 296.366 42.5909C297.332 42.0227 298.477 41.7386 299.801 41.7386C301.125 41.7386 302.267 42.0227 303.227 42.5909C304.193 43.1534 304.938 43.9432 305.46 44.9602C305.983 45.9716 306.244 47.1534 306.244 48.5057C306.244 49.8466 305.983 51.0256 305.46 52.0426C304.938 53.054 304.193 53.8437 303.227 54.4119C302.267 54.9744 301.125 55.2557 299.801 55.2557ZM299.818 52.4432C300.42 52.4432 300.923 52.2727 301.327 51.9318C301.73 51.5852 302.034 51.1136 302.239 50.517C302.449 49.9205 302.554 49.2415 302.554 48.4801C302.554 47.7188 302.449 47.0398 302.239 46.4432C302.034 45.8466 301.73 45.375 301.327 45.0284C300.923 44.6818 300.42 44.5085 299.818 44.5085C299.21 44.5085 298.699 44.6818 298.284 45.0284C297.875 45.375 297.565 45.8466 297.355 46.4432C297.151 47.0398 297.048 47.7188 297.048 48.4801C297.048 49.2415 297.151 49.9205 297.355 50.517C297.565 51.1136 297.875 51.5852 298.284 51.9318C298.699 52.2727 299.21 52.4432 299.818 52.4432ZM317.716 47.0057V49.8608H310.881V47.0057H317.716ZM312.074 41.9091V55H308.605V41.9091H312.074ZM319.991 41.9091V55H316.548V41.9091H319.991ZM326.541 55.2472C325.706 55.2472 324.962 55.1023 324.308 54.8125C323.655 54.517 323.138 54.0824 322.757 53.5085C322.382 52.929 322.195 52.2074 322.195 51.3438C322.195 50.6165 322.328 50.0057 322.595 49.5114C322.862 49.017 323.226 48.6193 323.686 48.3182C324.146 48.017 324.669 47.7898 325.254 47.6364C325.845 47.483 326.464 47.375 327.112 47.3125C327.874 47.233 328.487 47.1591 328.953 47.0909C329.419 47.017 329.757 46.9091 329.967 46.767C330.178 46.625 330.283 46.4148 330.283 46.1364V46.0852C330.283 45.5455 330.112 45.1278 329.771 44.8324C329.436 44.5369 328.959 44.3892 328.339 44.3892C327.686 44.3892 327.166 44.5341 326.78 44.8239C326.393 45.108 326.138 45.4659 326.013 45.8977L322.655 45.625C322.825 44.8295 323.161 44.142 323.661 43.5625C324.161 42.9773 324.805 42.5284 325.595 42.2159C326.391 41.8977 327.311 41.7386 328.357 41.7386C329.084 41.7386 329.78 41.8239 330.445 41.9943C331.115 42.1648 331.709 42.429 332.226 42.7869C332.749 43.1449 333.161 43.6051 333.462 44.1676C333.763 44.7244 333.913 45.392 333.913 46.1705V55H330.47V53.1847H330.368C330.158 53.5938 329.876 53.9545 329.524 54.267C329.172 54.5739 328.749 54.8153 328.254 54.9915C327.76 55.1619 327.189 55.2472 326.541 55.2472ZM327.581 52.7415C328.115 52.7415 328.587 52.6364 328.996 52.4261C329.405 52.2102 329.726 51.9205 329.959 51.5568C330.192 51.1932 330.308 50.7812 330.308 50.321V48.9318C330.195 49.0057 330.038 49.0739 329.839 49.1364C329.646 49.1932 329.428 49.2472 329.183 49.2983C328.939 49.3437 328.695 49.3864 328.45 49.4261C328.206 49.4602 327.984 49.4915 327.786 49.5199C327.359 49.5824 326.987 49.6818 326.669 49.8182C326.351 49.9545 326.104 50.1392 325.928 50.3722C325.751 50.5994 325.663 50.8835 325.663 51.2244C325.663 51.7188 325.842 52.0966 326.2 52.358C326.564 52.6136 327.024 52.7415 327.581 52.7415ZM335.963 55L335.946 52.1193H336.381C336.688 52.1193 336.952 52.0455 337.173 51.8977C337.401 51.7443 337.588 51.4972 337.736 51.1562C337.884 50.8153 338 50.3636 338.085 49.8011C338.17 49.233 338.227 48.5341 338.256 47.7045L338.469 41.9091H348.423V55H344.963V44.7642H341.733L341.528 48.7614C341.477 49.858 341.344 50.8011 341.128 51.5909C340.918 52.3807 340.625 53.0284 340.25 53.5341C339.875 54.0341 339.423 54.4034 338.895 54.642C338.366 54.8807 337.753 55 337.054 55H335.963ZM357.153 55.2557C355.829 55.2557 354.684 54.9744 353.718 54.4119C352.758 53.8437 352.016 53.054 351.494 52.0426C350.971 51.0256 350.71 49.8466 350.71 48.5057C350.71 47.1534 350.971 45.9716 351.494 44.9602C352.016 43.9432 352.758 43.1534 353.718 42.5909C354.684 42.0227 355.829 41.7386 357.153 41.7386C358.477 41.7386 359.619 42.0227 360.579 42.5909C361.545 43.1534 362.289 43.9432 362.812 44.9602C363.335 45.9716 363.596 47.1534 363.596 48.5057C363.596 49.8466 363.335 51.0256 362.812 52.0426C362.289 53.054 361.545 53.8437 360.579 54.4119C359.619 54.9744 358.477 55.2557 357.153 55.2557ZM357.17 52.4432C357.772 52.4432 358.275 52.2727 358.678 51.9318C359.082 51.5852 359.386 51.1136 359.59 50.517C359.8 49.9205 359.906 49.2415 359.906 48.4801C359.906 47.7188 359.8 47.0398 359.59 46.4432C359.386 45.8466 359.082 45.375 358.678 45.0284C358.275 44.6818 357.772 44.5085 357.17 44.5085C356.562 44.5085 356.05 44.6818 355.636 45.0284C355.227 45.375 354.917 45.8466 354.707 46.4432C354.502 47.0398 354.4 47.7188 354.4 48.4801C354.4 49.2415 354.502 49.9205 354.707 50.517C354.917 51.1136 355.227 51.5852 355.636 51.9318C356.05 52.2727 356.562 52.4432 357.17 52.4432ZM373.695 50.9858L377.241 41.9091H380.002L374.897 55H372.485L367.499 41.9091H370.252L373.695 50.9858ZM369.425 41.9091V55H365.957V41.9091H369.425ZM378.144 55V41.9091H381.57V55H378.144Z" fill="black"/>
<g clip-path="url(#clip0_1_1041)">
<path d="M35.9991 21.4997C35.8456 21.4726 35.6898 21.4511 35.5351 21.4489C33.3925 21.4139 31.2499 21.3834 29.1061 21.3552C29.053 21.3552 29.0011 21.3913 28.9266 21.4184V30.1966C29.0643 30.2101 29.1761 30.2293 29.2878 30.2293C31.0229 30.2271 32.7592 30.2553 34.492 30.2045C35.3037 30.1808 36.1176 30.0363 36.9191 29.8884C38.0909 29.6739 38.7886 28.9085 38.9647 27.7684C39.1092 26.8325 39.1825 25.8662 39.1216 24.9236C38.9714 22.6082 38.2772 21.8959 35.9991 21.5008V21.4997Z" fill="#357EFE"/>
<path d="M31.9994 0C14.3267 0 0 14.3267 0 31.9994C0 49.6722 14.3267 63.9989 31.9994 63.9989C49.6722 63.9989 63.9989 49.6722 63.9989 31.9994C63.9989 14.3267 49.6733 0 31.9994 0ZM47.3591 29.8636C46.7958 33.301 44.6328 35.2066 41.3342 35.9584C38.9398 36.5037 36.5003 36.5048 34.0653 36.5274C32.372 36.5432 30.6798 36.5308 28.921 36.5308V39.3745C29.1422 39.3745 29.3477 39.3745 29.5543 39.3745C31.8933 39.3745 34.2324 39.3722 36.5726 39.3756C37.4384 39.3767 37.5874 39.5336 37.5897 40.3984C37.5908 41.2563 37.5908 42.1143 37.5897 42.9711C37.5886 43.8392 37.4407 43.9984 36.5782 44.0006C34.2583 44.0063 31.9385 44.0029 29.6186 44.0029C29.4075 44.0029 29.1964 44.0029 28.8995 44.0029C28.8995 44.2546 28.8995 44.4601 28.8995 44.6667C28.8995 46.1478 28.9052 47.63 28.8961 49.1111C28.8916 49.8212 28.7663 49.9623 28.0946 49.9645C25.8143 49.9736 23.5328 49.9612 21.2524 49.9725C20.6823 49.9747 20.4554 49.7399 20.4645 49.1642C20.487 47.6831 20.4712 46.2008 20.4712 44.7197C20.4712 44.5086 20.4712 44.2987 20.4712 43.9927C19.532 43.9927 18.6447 43.9927 17.7574 43.9927C16.7715 43.9927 16.2786 43.4975 16.2786 42.5071C16.2786 41.7474 16.274 40.9865 16.2808 40.2268C16.2865 39.5765 16.4614 39.3869 17.1094 39.379C18.1988 39.3654 19.2893 39.3756 20.4227 39.3756V34.7867C19.3909 34.7867 18.3647 34.7867 17.3397 34.7867C16.3768 34.7867 16.2797 34.6873 16.2786 33.7086C16.2786 32.8506 16.2752 31.9927 16.2786 31.1358C16.2819 30.3953 16.4343 30.2384 17.1636 30.235C18.2349 30.2293 19.3051 30.2339 20.4667 30.2339V29.5238C20.4667 24.8841 20.4667 20.2443 20.4667 15.6057C20.4667 14.7026 20.5695 14.5852 21.4534 14.5502C25.9317 14.3707 30.4088 14.1506 34.8883 14.0388C37.2081 13.9813 39.5111 14.2398 41.7666 14.8753C44.6949 15.7006 46.4695 17.5926 47.1547 20.5187C47.8817 23.6163 47.8705 26.7433 47.3591 29.867V29.8636Z" fill="#357EFE"/>
</g>
<defs>
<clipPath id="clip0_1_1041">
<rect width="64" height="64" fill="white"/>
</clipPath>
</defs>
</svg>
