<svg width="403" height="280" viewBox="0 0 403 280" fill="none" xmlns="http://www.w3.org/2000/svg">
<path d="M2.29545 117.727H6.47727V133.591H6.69318L17.6364 117.727H21.4205V141H17.2045V125.148H17.0114L6.03409 141H2.29545V117.727ZM33.446 141.341C31.7036 141.341 30.2074 140.958 28.9574 140.193C27.715 139.428 26.7566 138.371 26.0824 137.023C25.4157 135.667 25.0824 134.106 25.0824 132.341C25.0824 130.568 25.4233 129.004 26.1051 127.648C26.7869 126.284 27.7491 125.223 28.9915 124.466C30.2415 123.701 31.7188 123.318 33.4233 123.318C34.84 123.318 36.0938 123.58 37.1847 124.102C38.2831 124.617 39.1581 125.348 39.8097 126.295C40.4612 127.235 40.8324 128.333 40.9233 129.591H36.9915C36.8324 128.75 36.4536 128.049 35.8551 127.489C35.2642 126.92 34.4725 126.636 33.4801 126.636C32.6392 126.636 31.9006 126.864 31.2642 127.318C30.6278 127.765 30.1316 128.409 29.7756 129.25C29.4271 130.091 29.2528 131.098 29.2528 132.273C29.2528 133.462 29.4271 134.485 29.7756 135.341C30.1241 136.189 30.6127 136.845 31.2415 137.307C31.8778 137.761 32.6241 137.989 33.4801 137.989C34.0862 137.989 34.6278 137.875 35.1051 137.648C35.59 137.413 35.9953 137.076 36.321 136.636C36.6468 136.197 36.8703 135.663 36.9915 135.034H40.9233C40.8248 136.269 40.4612 137.364 39.8324 138.318C39.2036 139.265 38.3475 140.008 37.2642 140.545C36.1809 141.076 34.9081 141.341 33.446 141.341ZM44.3011 141V123.545H59.0398V141H55.0739V126.92H48.233V141H44.3011ZM70.8835 141.341C69.179 141.341 67.7017 140.966 66.4517 140.216C65.2017 139.466 64.232 138.417 63.5426 137.068C62.8608 135.72 62.5199 134.144 62.5199 132.341C62.5199 130.538 62.8608 128.958 63.5426 127.602C64.232 126.246 65.2017 125.193 66.4517 124.443C67.7017 123.693 69.179 123.318 70.8835 123.318C72.5881 123.318 74.0653 123.693 75.3153 124.443C76.5653 125.193 77.5313 126.246 78.2131 127.602C78.9025 128.958 79.2472 130.538 79.2472 132.341C79.2472 134.144 78.9025 135.72 78.2131 137.068C77.5313 138.417 76.5653 139.466 75.3153 140.216C74.0653 140.966 72.5881 141.341 70.8835 141.341ZM70.9062 138.045C71.8305 138.045 72.6032 137.792 73.2244 137.284C73.8456 136.769 74.3078 136.08 74.6108 135.216C74.9214 134.352 75.0767 133.39 75.0767 132.33C75.0767 131.261 74.9214 130.295 74.6108 129.432C74.3078 128.561 73.8456 127.867 73.2244 127.352C72.6032 126.837 71.8305 126.58 70.9062 126.58C69.9593 126.58 69.1714 126.837 68.5426 127.352C67.9214 127.867 67.4555 128.561 67.1449 129.432C66.8419 130.295 66.6903 131.261 66.6903 132.33C66.6903 133.39 66.8419 134.352 67.1449 135.216C67.4555 136.08 67.9214 136.769 68.5426 137.284C69.1714 137.792 69.9593 138.045 70.9062 138.045ZM81.5341 141L81.5114 137.614H82.1136C82.5682 137.614 82.9508 137.511 83.2614 137.307C83.572 137.102 83.8295 136.761 84.0341 136.284C84.2386 135.799 84.3977 135.148 84.5114 134.33C84.625 133.511 84.7045 132.492 84.75 131.273L85.0568 123.545H97.7841V141H93.8068V126.92H88.7955L88.5227 132.545C88.4545 134 88.2917 135.261 88.0341 136.33C87.7841 137.39 87.428 138.265 86.9659 138.955C86.5114 139.644 85.9394 140.159 85.25 140.5C84.5606 140.833 83.7462 141 82.8068 141H81.5341ZM104.71 129.227H109.858C112.085 129.227 113.809 129.769 115.028 130.852C116.248 131.936 116.862 133.356 116.869 135.114C116.862 136.258 116.581 137.273 116.028 138.159C115.483 139.045 114.688 139.742 113.642 140.25C112.604 140.75 111.343 141 109.858 141H101.926V123.545H105.892V137.625H109.858C110.752 137.625 111.487 137.398 112.062 136.943C112.638 136.481 112.926 135.89 112.926 135.17C112.926 134.413 112.638 133.795 112.062 133.318C111.487 132.841 110.752 132.602 109.858 132.602H104.71V129.227ZM119.429 136.216H123.509C123.546 136.867 123.838 137.371 124.384 137.727C124.929 138.083 125.637 138.261 126.509 138.261C127.395 138.261 128.141 138.068 128.747 137.682C129.361 137.288 129.668 136.693 129.668 135.898C129.668 135.428 129.55 135.015 129.315 134.659C129.08 134.295 128.751 134.015 128.327 133.818C127.902 133.621 127.402 133.523 126.827 133.523H124.156V130.602H126.827C127.683 130.602 128.33 130.405 128.77 130.011C129.217 129.617 129.44 129.121 129.44 128.523C129.44 127.879 129.205 127.356 128.736 126.955C128.274 126.553 127.634 126.352 126.815 126.352C125.997 126.352 125.315 126.538 124.77 126.909C124.232 127.28 123.952 127.758 123.929 128.341H119.872C119.887 127.326 120.19 126.443 120.781 125.693C121.38 124.943 122.183 124.36 123.19 123.943C124.205 123.527 125.349 123.318 126.622 123.318C127.986 123.318 129.164 123.523 130.156 123.932C131.149 124.341 131.914 124.913 132.452 125.648C132.99 126.375 133.259 127.231 133.259 128.216C133.259 129.163 132.963 129.947 132.372 130.568C131.781 131.182 130.986 131.621 129.986 131.886V132.068C130.675 132.106 131.296 132.303 131.849 132.659C132.402 133.008 132.842 133.481 133.168 134.08C133.493 134.678 133.656 135.371 133.656 136.159C133.656 137.227 133.349 138.152 132.736 138.932C132.122 139.705 131.277 140.299 130.202 140.716C129.134 141.133 127.91 141.341 126.531 141.341C125.19 141.341 123.99 141.14 122.929 140.739C121.876 140.33 121.039 139.742 120.418 138.977C119.796 138.212 119.467 137.292 119.429 136.216ZM139.452 147.545C138.891 147.545 138.372 147.5 137.895 147.409C137.425 147.326 137.05 147.227 136.77 147.114L137.724 143.909C138.323 144.083 138.857 144.167 139.327 144.159C139.796 144.152 140.209 144.004 140.565 143.716C140.929 143.436 141.236 142.966 141.486 142.307L141.838 141.364L135.509 123.545H139.872L143.895 136.727H144.077L148.111 123.545H152.486L145.497 143.114C145.171 144.038 144.74 144.83 144.202 145.489C143.664 146.155 143.005 146.663 142.224 147.011C141.452 147.367 140.527 147.545 139.452 147.545ZM162.466 141.341C160.716 141.341 159.205 140.977 157.932 140.25C156.667 139.515 155.693 138.477 155.011 137.136C154.33 135.788 153.989 134.201 153.989 132.375C153.989 130.58 154.33 129.004 155.011 127.648C155.701 126.284 156.663 125.223 157.898 124.466C159.133 123.701 160.583 123.318 162.25 123.318C163.326 123.318 164.341 123.492 165.295 123.841C166.258 124.182 167.106 124.712 167.841 125.432C168.583 126.152 169.167 127.068 169.591 128.182C170.015 129.288 170.227 130.606 170.227 132.136V133.398H155.92V130.625H166.284C166.277 129.837 166.106 129.136 165.773 128.523C165.439 127.902 164.973 127.413 164.375 127.057C163.784 126.701 163.095 126.523 162.307 126.523C161.466 126.523 160.727 126.727 160.091 127.136C159.455 127.538 158.958 128.068 158.602 128.727C158.254 129.379 158.076 130.095 158.068 130.875V133.295C158.068 134.311 158.254 135.182 158.625 135.909C158.996 136.629 159.515 137.182 160.182 137.568C160.848 137.947 161.629 138.136 162.523 138.136C163.121 138.136 163.663 138.053 164.148 137.886C164.633 137.712 165.053 137.458 165.409 137.125C165.765 136.792 166.034 136.379 166.216 135.886L170.057 136.318C169.814 137.333 169.352 138.22 168.67 138.977C167.996 139.727 167.133 140.311 166.08 140.727C165.027 141.136 163.822 141.341 162.466 141.341ZM183.753 136.216L188.935 123.545H192.253L185.196 141H182.321L175.423 123.545H178.707L183.753 136.216ZM177.673 123.545V141H173.707V123.545H177.673ZM190.003 141V123.545H193.935V141H190.003ZM205.974 141V137.955L214.054 130.034C214.827 129.254 215.471 128.561 215.986 127.955C216.501 127.348 216.887 126.761 217.145 126.193C217.402 125.625 217.531 125.019 217.531 124.375C217.531 123.64 217.365 123.011 217.031 122.489C216.698 121.958 216.24 121.549 215.656 121.261C215.073 120.973 214.41 120.83 213.668 120.83C212.902 120.83 212.232 120.989 211.656 121.307C211.08 121.617 210.634 122.061 210.315 122.636C210.005 123.212 209.849 123.898 209.849 124.693H205.838C205.838 123.216 206.175 121.932 206.849 120.841C207.524 119.75 208.452 118.905 209.634 118.307C210.823 117.708 212.187 117.409 213.724 117.409C215.285 117.409 216.656 117.701 217.838 118.284C219.02 118.867 219.937 119.667 220.588 120.682C221.247 121.697 221.577 122.856 221.577 124.159C221.577 125.03 221.41 125.886 221.077 126.727C220.743 127.568 220.156 128.5 219.315 129.523C218.482 130.545 217.312 131.784 215.804 133.239L211.793 137.318V137.477H221.929V141H205.974ZM233.94 141.318C232.425 141.318 231.069 141.034 229.872 140.466C228.675 139.89 227.724 139.102 227.02 138.102C226.323 137.102 225.952 135.958 225.906 134.67H229.997C230.073 135.625 230.486 136.405 231.236 137.011C231.986 137.61 232.887 137.909 233.94 137.909C234.766 137.909 235.501 137.72 236.145 137.341C236.789 136.962 237.296 136.436 237.668 135.761C238.039 135.087 238.221 134.318 238.213 133.455C238.221 132.576 238.035 131.795 237.656 131.114C237.277 130.432 236.759 129.898 236.099 129.511C235.44 129.117 234.683 128.92 233.827 128.92C233.13 128.913 232.444 129.042 231.77 129.307C231.096 129.572 230.562 129.92 230.168 130.352L226.361 129.727L227.577 117.727H241.077V121.25H231.065L230.395 127.42H230.531C230.963 126.913 231.573 126.492 232.361 126.159C233.149 125.818 234.012 125.648 234.952 125.648C236.361 125.648 237.618 125.981 238.724 126.648C239.83 127.307 240.702 128.216 241.338 129.375C241.974 130.534 242.293 131.86 242.293 133.352C242.293 134.89 241.937 136.261 241.224 137.466C240.52 138.663 239.539 139.606 238.281 140.295C237.031 140.977 235.584 141.318 233.94 141.318ZM254.622 141.318C253.509 141.311 252.421 141.117 251.361 140.739C250.3 140.352 249.346 139.727 248.497 138.864C247.649 137.992 246.974 136.837 246.474 135.398C245.974 133.951 245.728 132.159 245.736 130.023C245.736 128.03 245.948 126.254 246.372 124.693C246.796 123.133 247.406 121.814 248.202 120.739C248.997 119.655 249.955 118.83 251.077 118.261C252.205 117.693 253.467 117.409 254.861 117.409C256.323 117.409 257.618 117.697 258.747 118.273C259.884 118.848 260.8 119.636 261.497 120.636C262.194 121.629 262.626 122.75 262.793 124H258.645C258.433 123.106 257.997 122.394 257.338 121.864C256.687 121.326 255.861 121.057 254.861 121.057C253.247 121.057 252.005 121.758 251.134 123.159C250.27 124.561 249.834 126.485 249.827 128.932H249.986C250.357 128.265 250.838 127.693 251.429 127.216C252.02 126.739 252.687 126.371 253.429 126.114C254.179 125.848 254.971 125.716 255.804 125.716C257.168 125.716 258.391 126.042 259.474 126.693C260.565 127.345 261.429 128.242 262.065 129.386C262.702 130.523 263.016 131.826 263.009 133.295C263.016 134.826 262.668 136.201 261.963 137.42C261.259 138.633 260.277 139.587 259.02 140.284C257.762 140.981 256.296 141.326 254.622 141.318ZM254.599 137.909C255.425 137.909 256.164 137.708 256.815 137.307C257.467 136.905 257.982 136.364 258.361 135.682C258.74 135 258.925 134.235 258.918 133.386C258.925 132.553 258.743 131.799 258.372 131.125C258.009 130.451 257.505 129.917 256.861 129.523C256.217 129.129 255.482 128.932 254.656 128.932C254.043 128.932 253.471 129.049 252.94 129.284C252.41 129.519 251.948 129.845 251.554 130.261C251.16 130.67 250.849 131.148 250.622 131.693C250.402 132.231 250.289 132.807 250.281 133.42C250.289 134.231 250.478 134.977 250.849 135.659C251.221 136.341 251.732 136.886 252.384 137.295C253.035 137.705 253.774 137.909 254.599 137.909ZM277.474 129.614V133H266.997V129.614H277.474ZM295.79 117.091L297.222 119.75C296.714 120.189 296.146 120.508 295.517 120.705C294.888 120.902 294.15 121.03 293.301 121.091C292.46 121.144 291.46 121.182 290.301 121.205C288.998 121.235 287.934 121.481 287.108 121.943C286.282 122.405 285.65 123.106 285.21 124.045C284.771 124.977 284.483 126.167 284.347 127.614H284.54C285.085 126.545 285.85 125.731 286.835 125.17C287.82 124.61 288.975 124.33 290.301 124.33C291.748 124.33 293.025 124.655 294.131 125.307C295.244 125.951 296.112 126.886 296.733 128.114C297.362 129.341 297.676 130.826 297.676 132.568C297.676 134.364 297.339 135.92 296.665 137.239C295.991 138.549 295.032 139.561 293.79 140.273C292.555 140.985 291.089 141.341 289.392 141.341C287.703 141.341 286.233 140.973 284.983 140.239C283.741 139.496 282.778 138.402 282.097 136.955C281.422 135.5 281.085 133.708 281.085 131.58V130.011C281.085 125.905 281.85 122.841 283.381 120.818C284.911 118.795 287.18 117.765 290.188 117.727C291.081 117.712 291.881 117.708 292.585 117.716C293.297 117.723 293.919 117.689 294.449 117.614C294.979 117.538 295.426 117.364 295.79 117.091ZM289.415 138.045C290.256 138.045 290.983 137.83 291.597 137.398C292.21 136.958 292.68 136.337 293.006 135.534C293.339 134.731 293.506 133.78 293.506 132.682C293.506 131.598 293.339 130.678 293.006 129.92C292.672 129.155 292.199 128.572 291.585 128.17C290.972 127.769 290.241 127.568 289.392 127.568C288.756 127.568 288.184 127.682 287.676 127.909C287.169 128.136 286.737 128.47 286.381 128.909C286.025 129.348 285.752 129.883 285.562 130.511C285.373 131.14 285.271 131.864 285.256 132.682C285.256 134.326 285.627 135.633 286.369 136.602C287.112 137.564 288.127 138.045 289.415 138.045ZM305.142 135.432L312.131 123.545H316.358V141H312.381V129.102L305.415 141H301.176V123.545H305.142V135.432ZM318.628 126.92V123.545H333.901V126.92H328.253V141H324.276V126.92H318.628ZM349.165 130.568V133.943H339.869V130.568H349.165ZM341.142 123.545V141H337.176V123.545H341.142ZM351.858 123.545V141H347.903V123.545H351.858ZM363.634 141.341C361.929 141.341 360.452 140.966 359.202 140.216C357.952 139.466 356.982 138.417 356.293 137.068C355.611 135.72 355.27 134.144 355.27 132.341C355.27 130.538 355.611 128.958 356.293 127.602C356.982 126.246 357.952 125.193 359.202 124.443C360.452 123.693 361.929 123.318 363.634 123.318C365.338 123.318 366.815 123.693 368.065 124.443C369.315 125.193 370.281 126.246 370.963 127.602C371.652 128.958 371.997 130.538 371.997 132.341C371.997 134.144 371.652 135.72 370.963 137.068C370.281 138.417 369.315 139.466 368.065 140.216C366.815 140.966 365.338 141.341 363.634 141.341ZM363.656 138.045C364.58 138.045 365.353 137.792 365.974 137.284C366.596 136.769 367.058 136.08 367.361 135.216C367.671 134.352 367.827 133.39 367.827 132.33C367.827 131.261 367.671 130.295 367.361 129.432C367.058 128.561 366.596 127.867 365.974 127.352C365.353 126.837 364.58 126.58 363.656 126.58C362.709 126.58 361.921 126.837 361.293 127.352C360.671 127.867 360.205 128.561 359.895 129.432C359.592 130.295 359.44 131.261 359.44 132.33C359.44 133.39 359.592 134.352 359.895 135.216C360.205 136.08 360.671 136.769 361.293 137.284C361.921 137.792 362.709 138.045 363.656 138.045ZM383.216 141.341C381.466 141.341 379.955 140.977 378.682 140.25C377.417 139.515 376.443 138.477 375.761 137.136C375.08 135.788 374.739 134.201 374.739 132.375C374.739 130.58 375.08 129.004 375.761 127.648C376.451 126.284 377.413 125.223 378.648 124.466C379.883 123.701 381.333 123.318 383 123.318C384.076 123.318 385.091 123.492 386.045 123.841C387.008 124.182 387.856 124.712 388.591 125.432C389.333 126.152 389.917 127.068 390.341 128.182C390.765 129.288 390.977 130.606 390.977 132.136V133.398H376.67V130.625H387.034C387.027 129.837 386.856 129.136 386.523 128.523C386.189 127.902 385.723 127.413 385.125 127.057C384.534 126.701 383.845 126.523 383.057 126.523C382.216 126.523 381.477 126.727 380.841 127.136C380.205 127.538 379.708 128.068 379.352 128.727C379.004 129.379 378.826 130.095 378.818 130.875V133.295C378.818 134.311 379.004 135.182 379.375 135.909C379.746 136.629 380.265 137.182 380.932 137.568C381.598 137.947 382.379 138.136 383.273 138.136C383.871 138.136 384.413 138.053 384.898 137.886C385.383 137.712 385.803 137.458 386.159 137.125C386.515 136.792 386.784 136.379 386.966 135.886L390.807 136.318C390.564 137.333 390.102 138.22 389.42 138.977C388.746 139.727 387.883 140.311 386.83 140.727C385.777 141.136 384.572 141.341 383.216 141.341ZM14.9432 162.125C14.8371 161.133 14.3902 160.36 13.6023 159.807C12.822 159.254 11.8068 158.977 10.5568 158.977C9.67803 158.977 8.92424 159.11 8.29545 159.375C7.66667 159.64 7.18561 160 6.85227 160.455C6.51894 160.909 6.34849 161.428 6.34091 162.011C6.34091 162.496 6.45076 162.917 6.67045 163.273C6.89773 163.629 7.20455 163.932 7.59091 164.182C7.97727 164.424 8.4053 164.629 8.875 164.795C9.3447 164.962 9.81818 165.102 10.2955 165.216L12.4773 165.761C13.3561 165.966 14.2008 166.242 15.0114 166.591C15.8295 166.939 16.5606 167.379 17.2045 167.909C17.8561 168.439 18.3712 169.08 18.75 169.83C19.1288 170.58 19.3182 171.458 19.3182 172.466C19.3182 173.83 18.9697 175.03 18.2727 176.068C17.5758 177.098 16.5682 177.905 15.25 178.489C13.9394 179.064 12.3523 179.352 10.4886 179.352C8.67803 179.352 7.10606 179.072 5.77273 178.511C4.44697 177.951 3.40909 177.133 2.65909 176.057C1.91667 174.981 1.51515 173.67 1.45455 172.125H5.60227C5.66288 172.936 5.91288 173.61 6.35227 174.148C6.79167 174.686 7.36364 175.087 8.06818 175.352C8.7803 175.617 9.57576 175.75 10.4545 175.75C11.3712 175.75 12.1742 175.614 12.8636 175.341C13.5606 175.061 14.1061 174.674 14.5 174.182C14.8939 173.682 15.0947 173.098 15.1023 172.432C15.0947 171.826 14.9167 171.326 14.5682 170.932C14.2197 170.53 13.7311 170.197 13.1023 169.932C12.4811 169.659 11.7538 169.417 10.9205 169.205L8.27273 168.523C6.35606 168.03 4.84091 167.284 3.72727 166.284C2.62121 165.277 2.06818 163.939 2.06818 162.273C2.06818 160.902 2.43939 159.701 3.18182 158.67C3.93182 157.64 4.95076 156.841 6.23864 156.273C7.52652 155.697 8.98485 155.409 10.6136 155.409C12.2652 155.409 13.7121 155.697 14.9545 156.273C16.2045 156.841 17.1856 157.633 17.8977 158.648C18.6098 159.655 18.9773 160.814 19 162.125H14.9432ZM35.7244 162.125C35.6184 161.133 35.1714 160.36 34.3835 159.807C33.6032 159.254 32.5881 158.977 31.3381 158.977C30.4593 158.977 29.7055 159.11 29.0767 159.375C28.4479 159.64 27.9669 160 27.6335 160.455C27.3002 160.909 27.1297 161.428 27.1222 162.011C27.1222 162.496 27.232 162.917 27.4517 163.273C27.679 163.629 27.9858 163.932 28.3722 164.182C28.7585 164.424 29.1866 164.629 29.6562 164.795C30.1259 164.962 30.5994 165.102 31.0767 165.216L33.2585 165.761C34.1373 165.966 34.982 166.242 35.7926 166.591C36.6108 166.939 37.3419 167.379 37.9858 167.909C38.6373 168.439 39.1525 169.08 39.5312 169.83C39.91 170.58 40.0994 171.458 40.0994 172.466C40.0994 173.83 39.7509 175.03 39.054 176.068C38.357 177.098 37.3494 177.905 36.0312 178.489C34.7206 179.064 33.1335 179.352 31.2699 179.352C29.4593 179.352 27.8873 179.072 26.554 178.511C25.2282 177.951 24.1903 177.133 23.4403 176.057C22.6979 174.981 22.2964 173.67 22.2358 172.125H26.3835C26.4441 172.936 26.6941 173.61 27.1335 174.148C27.5729 174.686 28.1449 175.087 28.8494 175.352C29.5616 175.617 30.357 175.75 31.2358 175.75C32.1525 175.75 32.9555 175.614 33.6449 175.341C34.3419 175.061 34.8873 174.674 35.2812 174.182C35.6752 173.682 35.8759 173.098 35.8835 172.432C35.8759 171.826 35.6979 171.326 35.3494 170.932C35.0009 170.53 34.5123 170.197 33.8835 169.932C33.2623 169.659 32.535 169.417 31.7017 169.205L29.054 168.523C27.1373 168.03 25.6222 167.284 24.5085 166.284C23.4025 165.277 22.8494 163.939 22.8494 162.273C22.8494 160.902 23.2206 159.701 23.9631 158.67C24.7131 157.64 25.732 156.841 27.0199 156.273C28.3078 155.697 29.7661 155.409 31.3949 155.409C33.0464 155.409 34.4934 155.697 35.7358 156.273C36.9858 156.841 37.9669 157.633 38.679 158.648C39.3911 159.655 39.7585 160.814 39.7812 162.125H35.7244ZM43.858 179V155.727H48.0739V175.466H58.3239V179H43.858ZM70.7557 167.614V171H60.2784V167.614H70.7557ZM75.0824 161.545H79.0483V175.614H84.5369V161.545H88.5028V175.614H93.9915V161.545H97.9574V179H75.0824V161.545ZM106.08 173.432L113.068 161.545H117.295V179H113.318V167.102L106.352 179H102.114V161.545H106.08V173.432ZM129.44 184.932V155.727H133.565V184.932H129.44ZM129.44 179.341C128.16 179.341 126.99 179.125 125.929 178.693C124.868 178.261 123.952 177.648 123.179 176.852C122.414 176.057 121.819 175.11 121.395 174.011C120.978 172.905 120.77 171.682 120.77 170.341C120.77 169 120.978 167.777 121.395 166.67C121.819 165.564 122.414 164.614 123.179 163.818C123.952 163.015 124.868 162.398 125.929 161.966C126.99 161.534 128.16 161.318 129.44 161.318H130.315V179.341H129.44ZM129.44 176.023H129.952V164.636H129.44C128.713 164.636 128.069 164.788 127.509 165.091C126.955 165.386 126.49 165.799 126.111 166.33C125.74 166.852 125.455 167.458 125.259 168.148C125.069 168.83 124.974 169.561 124.974 170.341C124.974 171.379 125.145 172.33 125.486 173.193C125.827 174.049 126.327 174.735 126.986 175.25C127.652 175.765 128.471 176.023 129.44 176.023ZM133.565 179.341H132.69V161.318H133.565C134.846 161.318 136.016 161.534 137.077 161.966C138.137 162.398 139.05 163.015 139.815 163.818C140.588 164.614 141.183 165.564 141.599 166.67C142.024 167.777 142.236 169 142.236 170.341C142.236 171.682 142.024 172.905 141.599 174.011C141.183 175.11 140.588 176.057 139.815 176.852C139.05 177.648 138.137 178.261 137.077 178.693C136.016 179.125 134.846 179.341 133.565 179.341ZM133.565 176.023C134.3 176.023 134.944 175.875 135.497 175.58C136.05 175.284 136.512 174.875 136.884 174.352C137.262 173.83 137.546 173.227 137.736 172.545C137.925 171.856 138.02 171.121 138.02 170.341C138.02 169.303 137.853 168.352 137.52 167.489C137.187 166.625 136.687 165.936 136.02 165.42C135.361 164.898 134.543 164.636 133.565 164.636H133.054V176.023H133.565ZM145.707 185.545V161.545H149.753V164.432H149.991C150.204 164.008 150.503 163.557 150.889 163.08C151.276 162.595 151.798 162.182 152.457 161.841C153.116 161.492 153.957 161.318 154.98 161.318C156.329 161.318 157.545 161.663 158.628 162.352C159.719 163.034 160.582 164.045 161.219 165.386C161.863 166.72 162.185 168.356 162.185 170.295C162.185 172.212 161.87 173.841 161.241 175.182C160.613 176.523 159.757 177.545 158.673 178.25C157.59 178.955 156.363 179.307 154.991 179.307C153.991 179.307 153.162 179.14 152.503 178.807C151.844 178.473 151.313 178.072 150.912 177.602C150.518 177.125 150.211 176.674 149.991 176.25H149.821V185.545H145.707ZM149.741 170.273C149.741 171.402 149.901 172.39 150.219 173.239C150.545 174.087 151.01 174.75 151.616 175.227C152.23 175.697 152.973 175.932 153.844 175.932C154.753 175.932 155.514 175.689 156.128 175.205C156.741 174.712 157.204 174.042 157.514 173.193C157.832 172.337 157.991 171.364 157.991 170.273C157.991 169.189 157.836 168.227 157.526 167.386C157.215 166.545 156.753 165.886 156.139 165.409C155.526 164.932 154.76 164.693 153.844 164.693C152.965 164.693 152.219 164.924 151.605 165.386C150.991 165.848 150.526 166.496 150.207 167.33C149.897 168.163 149.741 169.144 149.741 170.273ZM173.321 179.341C171.616 179.341 170.139 178.966 168.889 178.216C167.639 177.466 166.67 176.417 165.98 175.068C165.298 173.72 164.957 172.144 164.957 170.341C164.957 168.538 165.298 166.958 165.98 165.602C166.67 164.246 167.639 163.193 168.889 162.443C170.139 161.693 171.616 161.318 173.321 161.318C175.026 161.318 176.503 161.693 177.753 162.443C179.003 163.193 179.969 164.246 180.651 165.602C181.34 166.958 181.685 168.538 181.685 170.341C181.685 172.144 181.34 173.72 180.651 175.068C179.969 176.417 179.003 177.466 177.753 178.216C176.503 178.966 175.026 179.341 173.321 179.341ZM173.344 176.045C174.268 176.045 175.041 175.792 175.662 175.284C176.283 174.769 176.745 174.08 177.048 173.216C177.359 172.352 177.514 171.39 177.514 170.33C177.514 169.261 177.359 168.295 177.048 167.432C176.745 166.561 176.283 165.867 175.662 165.352C175.041 164.837 174.268 164.58 173.344 164.58C172.397 164.58 171.609 164.837 170.98 165.352C170.359 165.867 169.893 166.561 169.582 167.432C169.279 168.295 169.128 169.261 169.128 170.33C169.128 171.39 169.279 172.352 169.582 173.216C169.893 174.08 170.359 174.769 170.98 175.284C171.609 175.792 172.397 176.045 173.344 176.045ZM185.176 179V161.545H192.506C194.574 161.545 196.206 161.958 197.403 162.784C198.608 163.61 199.21 164.761 199.21 166.239C199.21 167.216 198.869 168.015 198.188 168.636C197.513 169.25 196.593 169.663 195.426 169.875C196.343 169.951 197.146 170.182 197.835 170.568C198.532 170.955 199.078 171.462 199.472 172.091C199.866 172.72 200.062 173.443 200.062 174.261C200.062 175.223 199.809 176.061 199.301 176.773C198.801 177.477 198.07 178.027 197.108 178.42C196.153 178.807 194.994 179 193.631 179H185.176ZM189.028 175.761H193.631C194.388 175.761 194.983 175.583 195.415 175.227C195.847 174.864 196.062 174.371 196.062 173.75C196.062 173.03 195.847 172.466 195.415 172.057C194.983 171.64 194.388 171.432 193.631 171.432H189.028V175.761ZM189.028 168.773H192.585C193.146 168.773 193.627 168.693 194.028 168.534C194.43 168.367 194.737 168.136 194.949 167.841C195.161 167.538 195.267 167.178 195.267 166.761C195.267 166.163 195.021 165.693 194.528 165.352C194.044 165.011 193.369 164.841 192.506 164.841H189.028V168.773ZM208.48 179.352C207.374 179.352 206.378 179.155 205.491 178.761C204.613 178.36 203.916 177.769 203.401 176.989C202.893 176.208 202.639 175.246 202.639 174.102C202.639 173.117 202.821 172.303 203.185 171.659C203.548 171.015 204.045 170.5 204.673 170.114C205.302 169.727 206.01 169.436 206.798 169.239C207.594 169.034 208.416 168.886 209.264 168.795C210.287 168.689 211.116 168.595 211.753 168.511C212.389 168.42 212.851 168.284 213.139 168.102C213.435 167.913 213.582 167.621 213.582 167.227V167.159C213.582 166.303 213.329 165.64 212.821 165.17C212.313 164.701 211.582 164.466 210.628 164.466C209.62 164.466 208.821 164.686 208.23 165.125C207.647 165.564 207.253 166.083 207.048 166.682L203.207 166.136C203.51 165.076 204.01 164.189 204.707 163.477C205.404 162.758 206.257 162.22 207.264 161.864C208.272 161.5 209.385 161.318 210.605 161.318C211.446 161.318 212.283 161.417 213.116 161.614C213.95 161.811 214.711 162.136 215.401 162.591C216.09 163.038 216.643 163.648 217.06 164.42C217.484 165.193 217.696 166.159 217.696 167.318V179H213.741V176.602H213.605C213.355 177.087 213.003 177.542 212.548 177.966C212.101 178.383 211.537 178.72 210.855 178.977C210.181 179.227 209.389 179.352 208.48 179.352ZM209.548 176.33C210.374 176.33 211.09 176.167 211.696 175.841C212.302 175.508 212.768 175.068 213.094 174.523C213.427 173.977 213.594 173.383 213.594 172.739V170.682C213.465 170.788 213.245 170.886 212.935 170.977C212.632 171.068 212.291 171.148 211.912 171.216C211.533 171.284 211.158 171.345 210.787 171.398C210.416 171.451 210.094 171.496 209.821 171.534C209.207 171.617 208.658 171.754 208.173 171.943C207.688 172.133 207.306 172.398 207.026 172.739C206.745 173.072 206.605 173.504 206.605 174.034C206.605 174.792 206.882 175.364 207.435 175.75C207.988 176.136 208.692 176.33 209.548 176.33ZM233.821 168.568V171.943H224.526V168.568H233.821ZM225.798 161.545V179H221.832V161.545H225.798ZM236.514 161.545V179H232.56V161.545H236.514ZM244.642 173.432L251.631 161.545H255.858V179H251.881V167.102L244.915 179H240.676V161.545H244.642V173.432ZM267.81 179.341C266.06 179.341 264.548 178.977 263.276 178.25C262.01 177.515 261.037 176.477 260.355 175.136C259.673 173.788 259.332 172.201 259.332 170.375C259.332 168.58 259.673 167.004 260.355 165.648C261.045 164.284 262.007 163.223 263.241 162.466C264.476 161.701 265.927 161.318 267.594 161.318C268.67 161.318 269.685 161.492 270.639 161.841C271.601 162.182 272.45 162.712 273.185 163.432C273.927 164.152 274.51 165.068 274.935 166.182C275.359 167.288 275.571 168.606 275.571 170.136V171.398H261.264V168.625H271.628C271.62 167.837 271.45 167.136 271.116 166.523C270.783 165.902 270.317 165.413 269.719 165.057C269.128 164.701 268.438 164.523 267.651 164.523C266.81 164.523 266.071 164.727 265.435 165.136C264.798 165.538 264.302 166.068 263.946 166.727C263.598 167.379 263.42 168.095 263.412 168.875V171.295C263.412 172.311 263.598 173.182 263.969 173.909C264.34 174.629 264.859 175.182 265.526 175.568C266.192 175.947 266.973 176.136 267.866 176.136C268.465 176.136 269.007 176.053 269.491 175.886C269.976 175.712 270.397 175.458 270.753 175.125C271.109 174.792 271.378 174.379 271.56 173.886L275.401 174.318C275.158 175.333 274.696 176.22 274.014 176.977C273.34 177.727 272.476 178.311 271.423 178.727C270.37 179.136 269.166 179.341 267.81 179.341Z" fill="black"/>
<path d="M1.35831 226V213.636H5.88601C6.76338 213.636 7.48982 213.781 8.06534 214.071C8.64086 214.357 9.0715 214.745 9.35724 215.236C9.64299 215.723 9.78587 216.272 9.78587 216.884C9.78587 217.399 9.69129 217.834 9.50213 218.188C9.31297 218.538 9.05942 218.82 8.74148 219.033C8.42756 219.243 8.08144 219.396 7.70312 219.492V219.613C8.11364 219.633 8.51409 219.766 8.90447 220.011C9.29889 220.253 9.62488 220.597 9.88246 221.044C10.14 221.49 10.2688 222.034 10.2688 222.674C10.2688 223.306 10.1199 223.873 9.82209 224.376C9.52829 224.875 9.07351 225.272 8.45774 225.565C7.84197 225.855 7.05516 226 6.0973 226H1.35831ZM3.22372 224.4H5.91619C6.80966 224.4 7.44957 224.227 7.83594 223.881C8.2223 223.535 8.41548 223.102 8.41548 222.583C8.41548 222.193 8.31688 221.835 8.11967 221.509C7.92247 221.183 7.64074 220.923 7.2745 220.73C6.91229 220.537 6.48165 220.44 5.9826 220.44H3.22372V224.4ZM3.22372 218.985H5.72301C6.14157 218.985 6.51787 218.905 6.85192 218.744C7.18999 218.583 7.45762 218.357 7.65483 218.067C7.85606 217.774 7.95668 217.428 7.95668 217.029C7.95668 216.518 7.77758 216.089 7.41939 215.743C7.0612 215.397 6.51184 215.224 5.77131 215.224H3.22372V218.985ZM15.035 226.205C14.4474 226.205 13.9161 226.097 13.4412 225.879C12.9663 225.658 12.59 225.338 12.3123 224.919C12.0386 224.501 11.9018 223.988 11.9018 223.38C11.9018 222.857 12.0024 222.426 12.2037 222.088C12.4049 221.75 12.6766 221.482 13.0186 221.285C13.3607 221.088 13.7431 220.939 14.1657 220.838C14.5882 220.738 15.0189 220.661 15.4576 220.609C16.013 220.545 16.4637 220.492 16.8098 220.452C17.156 220.408 17.4075 220.337 17.5645 220.241C17.7214 220.144 17.7999 219.987 17.7999 219.77V219.728C17.7999 219.2 17.651 218.792 17.3532 218.502C17.0594 218.212 16.6207 218.067 16.0371 218.067C15.4294 218.067 14.9505 218.202 14.6003 218.472C14.2542 218.738 14.0147 219.033 13.8819 219.359L12.1855 218.973C12.3868 218.41 12.6806 217.955 13.0669 217.609C13.4573 217.259 13.9061 217.005 14.4132 216.848C14.9203 216.687 15.4535 216.607 16.013 216.607C16.3832 216.607 16.7756 216.651 17.1902 216.739C17.6087 216.824 17.9991 216.981 18.3613 217.21C18.7276 217.44 19.0274 217.768 19.2608 218.194C19.4943 218.617 19.611 219.166 19.611 219.842V226H17.8482V224.732H17.7757C17.659 224.966 17.484 225.195 17.2505 225.42C17.0171 225.646 16.7173 225.833 16.351 225.982C15.9848 226.131 15.5461 226.205 15.035 226.205ZM15.4274 224.756C15.9264 224.756 16.353 224.658 16.7072 224.461C17.0654 224.263 17.3371 224.006 17.5222 223.688C17.7114 223.366 17.8059 223.022 17.8059 222.656V221.46C17.7415 221.525 17.6168 221.585 17.4316 221.641C17.2505 221.694 17.0433 221.74 16.8098 221.78C16.5764 221.816 16.349 221.851 16.1277 221.883C15.9063 221.911 15.7212 221.935 15.5723 221.955C15.2221 222 14.9022 222.074 14.6124 222.179C14.3266 222.283 14.0972 222.434 13.9242 222.631C13.7551 222.825 13.6706 223.082 13.6706 223.404C13.6706 223.851 13.8356 224.189 14.1657 224.418C14.4957 224.644 14.9163 224.756 15.4274 224.756ZM22.0152 216.727H23.784V224.436H26.9896V216.727H28.7584V224.436H31.964V216.727H33.7329V226H22.0152V216.727ZM37.9119 223.471L41.9989 216.727H43.9428V226H42.174V219.251L38.1051 226H36.1431V216.727H37.9119V223.471ZM49.9632 228.674V224.436H50.7178C50.911 224.259 51.074 224.048 51.2068 223.803C51.3436 223.557 51.4583 223.265 51.5509 222.927C51.6475 222.589 51.728 222.195 51.7923 221.744C51.8567 221.289 51.9131 220.77 51.9614 220.186L52.2512 216.727H58.5537V224.436H59.9784V228.674H58.2156V226H51.7501V228.674H49.9632ZM52.6496 224.436H56.7909V218.273H53.8691L53.6759 220.186C53.5833 221.16 53.4666 222.006 53.3257 222.722C53.1849 223.434 52.9595 224.006 52.6496 224.436ZM64.4412 226.205C63.8536 226.205 63.3224 226.097 62.8475 225.879C62.3726 225.658 61.9963 225.338 61.7186 224.919C61.4449 224.501 61.3081 223.988 61.3081 223.38C61.3081 222.857 61.4087 222.426 61.6099 222.088C61.8111 221.75 62.0828 221.482 62.4249 221.285C62.767 221.088 63.1493 220.939 63.5719 220.838C63.9945 220.738 64.4251 220.661 64.8638 220.609C65.4192 220.545 65.87 220.492 66.2161 220.452C66.5622 220.408 66.8137 220.337 66.9707 220.241C67.1277 220.144 67.2061 219.987 67.2061 219.77V219.728C67.2061 219.2 67.0572 218.792 66.7594 218.502C66.4656 218.212 66.0269 218.067 65.4434 218.067C64.8356 218.067 64.3567 218.202 64.0066 218.472C63.6605 218.738 63.421 219.033 63.2882 219.359L61.5918 218.973C61.793 218.41 62.0868 217.955 62.4732 217.609C62.8636 217.259 63.3123 217.005 63.8194 216.848C64.3265 216.687 64.8598 216.607 65.4192 216.607C65.7895 216.607 66.1819 216.651 66.5964 216.739C67.015 216.824 67.4054 216.981 67.7676 217.21C68.1338 217.44 68.4337 217.768 68.6671 218.194C68.9005 218.617 69.0172 219.166 69.0172 219.842V226H67.2544V224.732H67.182C67.0653 224.966 66.8902 225.195 66.6568 225.42C66.4234 225.646 66.1235 225.833 65.7573 225.982C65.391 226.131 64.9524 226.205 64.4412 226.205ZM64.8336 224.756C65.3327 224.756 65.7593 224.658 66.1135 224.461C66.4717 224.263 66.7433 224.006 66.9284 223.688C67.1176 223.366 67.2122 223.022 67.2122 222.656V221.46C67.1478 221.525 67.023 221.585 66.8379 221.641C66.6568 221.694 66.4495 221.74 66.2161 221.78C65.9827 221.816 65.7553 221.851 65.5339 221.883C65.3126 221.911 65.1274 221.935 64.9785 221.955C64.6284 222 64.3084 222.074 64.0186 222.179C63.7329 222.283 63.5035 222.434 63.3304 222.631C63.1614 222.825 63.0769 223.082 63.0769 223.404C63.0769 223.851 63.2419 224.189 63.5719 224.418C63.9019 224.644 64.3225 224.756 64.8336 224.756ZM77.7059 220.585V222.148H72.6831V220.585H77.7059ZM73.1903 216.727V226H71.4214V216.727H73.1903ZM78.9676 216.727V226H77.2048V216.727H78.9676ZM87.6668 220.585V222.148H82.6441V220.585H87.6668ZM83.1512 216.727V226H81.3824V216.727H83.1512ZM88.9285 216.727V226H87.1657V216.727H88.9285ZM92.7016 219.915H95.3941C96.529 219.915 97.4024 220.196 98.0141 220.76C98.6259 221.323 98.9317 222.05 98.9317 222.939C98.9317 223.519 98.7949 224.04 98.5212 224.503C98.2475 224.966 97.8471 225.332 97.3199 225.602C96.7926 225.867 96.1507 226 95.3941 226H91.3433V216.727H93.1121V224.442H95.3941C95.9133 224.442 96.3399 224.308 96.6739 224.038C97.008 223.764 97.175 223.416 97.175 222.994C97.175 222.547 97.008 222.183 96.6739 221.901C96.3399 221.615 95.9133 221.472 95.3941 221.472H92.7016V219.915ZM100.248 226V216.727H102.053V226H100.248ZM108.472 226.187C107.558 226.187 106.771 225.992 106.111 225.602C105.455 225.207 104.948 224.654 104.59 223.941C104.236 223.225 104.059 222.386 104.059 221.424C104.059 220.474 104.236 219.637 104.59 218.913C104.948 218.188 105.447 217.623 106.087 217.216C106.731 216.81 107.484 216.607 108.345 216.607C108.868 216.607 109.375 216.693 109.866 216.866C110.357 217.039 110.798 217.311 111.188 217.681C111.579 218.051 111.886 218.532 112.112 219.124C112.337 219.712 112.45 220.426 112.45 221.267V221.907H105.079V220.555H110.681C110.681 220.08 110.585 219.659 110.391 219.293C110.198 218.923 109.926 218.631 109.576 218.418C109.23 218.204 108.824 218.098 108.357 218.098C107.85 218.098 107.407 218.222 107.029 218.472C106.654 218.717 106.365 219.039 106.159 219.438C105.958 219.832 105.858 220.261 105.858 220.724V221.78C105.858 222.4 105.966 222.927 106.184 223.362C106.405 223.797 106.713 224.129 107.107 224.358C107.502 224.583 107.962 224.696 108.49 224.696C108.832 224.696 109.144 224.648 109.425 224.551C109.707 224.451 109.951 224.302 110.156 224.104C110.361 223.907 110.518 223.664 110.627 223.374L112.335 223.682C112.198 224.185 111.953 224.626 111.599 225.004C111.249 225.378 110.808 225.67 110.277 225.879C109.749 226.085 109.148 226.187 108.472 226.187ZM125.236 220.585V222.148H120.213V220.585H125.236ZM120.721 216.727V226H118.952V216.727H120.721ZM126.498 216.727V226H124.735V216.727H126.498ZM132.909 226.187C131.996 226.187 131.209 225.992 130.549 225.602C129.893 225.207 129.386 224.654 129.027 223.941C128.673 223.225 128.496 222.386 128.496 221.424C128.496 220.474 128.673 219.637 129.027 218.913C129.386 218.188 129.885 217.623 130.525 217.216C131.168 216.81 131.921 216.607 132.782 216.607C133.306 216.607 133.813 216.693 134.304 216.866C134.795 217.039 135.235 217.311 135.626 217.681C136.016 218.051 136.324 218.532 136.549 219.124C136.775 219.712 136.887 220.426 136.887 221.267V221.907H129.516V220.555H135.119C135.119 220.08 135.022 219.659 134.829 219.293C134.636 218.923 134.364 218.631 134.014 218.418C133.668 218.204 133.261 218.098 132.794 218.098C132.287 218.098 131.845 218.222 131.466 218.472C131.092 218.717 130.802 219.039 130.597 219.438C130.396 219.832 130.295 220.261 130.295 220.724V221.78C130.295 222.4 130.404 222.927 130.621 223.362C130.842 223.797 131.15 224.129 131.545 224.358C131.939 224.583 132.4 224.696 132.927 224.696C133.269 224.696 133.581 224.648 133.863 224.551C134.145 224.451 134.388 224.302 134.593 224.104C134.799 223.907 134.956 223.664 135.064 223.374L136.773 223.682C136.636 224.185 136.39 224.626 136.036 225.004C135.686 225.378 135.245 225.67 134.714 225.879C134.187 226.085 133.585 226.187 132.909 226.187ZM148.593 223.766L151.587 216.727H153.145L149.263 226H147.923L144.12 216.727H145.659L148.593 223.766ZM145.158 216.727V226H143.389V216.727H145.158ZM152.076 226V216.727H153.833V226H152.076ZM160.145 226.187C159.275 226.187 158.517 225.988 157.869 225.589C157.221 225.191 156.718 224.634 156.36 223.917C156.001 223.201 155.822 222.364 155.822 221.406C155.822 220.444 156.001 219.603 156.36 218.882C156.718 218.162 157.221 217.603 157.869 217.204C158.517 216.806 159.275 216.607 160.145 216.607C161.014 216.607 161.773 216.806 162.421 217.204C163.069 217.603 163.572 218.162 163.93 218.882C164.288 219.603 164.467 220.444 164.467 221.406C164.467 222.364 164.288 223.201 163.93 223.917C163.572 224.634 163.069 225.191 162.421 225.589C161.773 225.988 161.014 226.187 160.145 226.187ZM160.151 224.672C160.714 224.672 161.181 224.523 161.551 224.225C161.922 223.927 162.195 223.531 162.372 223.036C162.553 222.541 162.644 221.996 162.644 221.4C162.644 220.808 162.553 220.265 162.372 219.77C162.195 219.271 161.922 218.87 161.551 218.569C161.181 218.267 160.714 218.116 160.151 218.116C159.583 218.116 159.112 218.267 158.738 218.569C158.368 218.87 158.092 219.271 157.911 219.77C157.734 220.265 157.645 220.808 157.645 221.4C157.645 221.996 157.734 222.541 157.911 223.036C158.092 223.531 158.368 223.927 158.738 224.225C159.112 224.523 159.583 224.672 160.151 224.672ZM172.41 216.727V218.285H168.263V226H166.482V216.727H172.41ZM175.459 229.477C175.189 229.477 174.944 229.455 174.722 229.411C174.501 229.371 174.336 229.326 174.227 229.278L174.662 227.799C174.992 227.888 175.286 227.926 175.543 227.914C175.801 227.902 176.028 227.805 176.226 227.624C176.427 227.443 176.604 227.147 176.757 226.737L176.98 226.121L173.587 216.727H175.519L177.868 223.923H177.964L180.313 216.727H182.25L178.429 227.238C178.252 227.721 178.027 228.129 177.753 228.463C177.479 228.801 177.153 229.055 176.775 229.224C176.397 229.393 175.958 229.477 175.459 229.477ZM183.428 218.285V216.727H191.252V218.285H188.227V226H186.464V218.285H183.428ZM204.813 213.274L205.562 214.415C205.284 214.669 204.968 214.85 204.614 214.958C204.264 215.063 203.86 215.129 203.401 215.158C202.942 215.182 202.417 215.204 201.825 215.224C201.157 215.244 200.608 215.389 200.177 215.659C199.746 215.924 199.414 216.319 199.181 216.842C198.952 217.361 198.803 218.013 198.734 218.798H198.849C199.151 218.222 199.569 217.792 200.105 217.506C200.644 217.22 201.25 217.077 201.922 217.077C202.67 217.077 203.336 217.248 203.92 217.591C204.504 217.933 204.962 218.434 205.296 219.094C205.634 219.75 205.804 220.553 205.804 221.502C205.804 222.464 205.626 223.295 205.272 223.996C204.922 224.696 204.427 225.237 203.787 225.62C203.151 225.998 202.401 226.187 201.535 226.187C200.67 226.187 199.916 225.992 199.272 225.602C198.632 225.207 198.135 224.624 197.78 223.851C197.43 223.078 197.255 222.124 197.255 220.989V220.072C197.255 217.951 197.634 216.355 198.39 215.284C199.147 214.214 200.278 213.665 201.783 213.636C202.27 213.624 202.705 213.622 203.087 213.63C203.469 213.634 203.803 213.616 204.089 213.576C204.379 213.532 204.62 213.431 204.813 213.274ZM201.541 224.672C202.045 224.672 202.477 224.545 202.839 224.292C203.206 224.034 203.487 223.67 203.685 223.199C203.882 222.728 203.98 222.173 203.98 221.533C203.98 220.905 203.882 220.372 203.685 219.933C203.487 219.494 203.206 219.16 202.839 218.931C202.473 218.697 202.034 218.581 201.523 218.581C201.145 218.581 200.807 218.647 200.509 218.78C200.211 218.909 199.956 219.1 199.742 219.353C199.533 219.607 199.37 219.917 199.253 220.283C199.141 220.645 199.08 221.062 199.072 221.533C199.072 222.491 199.292 223.253 199.73 223.821C200.173 224.388 200.777 224.672 201.541 224.672ZM209.178 219.915H211.871C213.006 219.915 213.879 220.196 214.491 220.76C215.102 221.323 215.408 222.05 215.408 222.939C215.408 223.519 215.271 224.04 214.998 224.503C214.724 224.966 214.324 225.332 213.796 225.602C213.269 225.867 212.627 226 211.871 226H207.82V216.727H209.589V224.442H211.871C212.39 224.442 212.816 224.308 213.15 224.038C213.485 223.764 213.652 223.416 213.652 222.994C213.652 222.547 213.485 222.183 213.15 221.901C212.816 221.615 212.39 221.472 211.871 221.472H209.178V219.915ZM216.724 226V216.727H218.529V226H216.724ZM220.433 218.285V216.727H228.256V218.285H225.232V226H223.469V218.285H220.433ZM231.524 219.915H234.216C235.351 219.915 236.225 220.196 236.836 220.76C237.448 221.323 237.754 222.05 237.754 222.939C237.754 223.519 237.617 224.04 237.343 224.503C237.07 224.966 236.669 225.332 236.142 225.602C235.615 225.867 234.973 226 234.216 226H230.166V216.727H231.934V224.442H234.216C234.736 224.442 235.162 224.308 235.496 224.038C235.83 223.764 235.997 223.416 235.997 222.994C235.997 222.547 235.83 222.183 235.496 221.901C235.162 221.615 234.736 221.472 234.216 221.472H231.524V219.915ZM244.277 226V216.727H251.841V226H250.072V218.285H246.034V226H244.277ZM258.251 226.187C257.337 226.187 256.55 225.992 255.89 225.602C255.234 225.207 254.727 224.654 254.369 223.941C254.015 223.225 253.838 222.386 253.838 221.424C253.838 220.474 254.015 219.637 254.369 218.913C254.727 218.188 255.226 217.623 255.866 217.216C256.51 216.81 257.263 216.607 258.124 216.607C258.647 216.607 259.154 216.693 259.645 216.866C260.136 217.039 260.577 217.311 260.968 217.681C261.358 218.051 261.666 218.532 261.891 219.124C262.117 219.712 262.229 220.426 262.229 221.267V221.907H254.858V220.555H260.46C260.46 220.08 260.364 219.659 260.171 219.293C259.977 218.923 259.706 218.631 259.356 218.418C259.01 218.204 258.603 218.098 258.136 218.098C257.629 218.098 257.186 218.222 256.808 218.472C256.434 218.717 256.144 219.039 255.939 219.438C255.738 219.832 255.637 220.261 255.637 220.724V221.78C255.637 222.4 255.746 222.927 255.963 223.362C256.184 223.797 256.492 224.129 256.887 224.358C257.281 224.583 257.742 224.696 258.269 224.696C258.611 224.696 258.923 224.648 259.205 224.551C259.486 224.451 259.73 224.302 259.935 224.104C260.14 223.907 260.297 223.664 260.406 223.374L262.115 223.682C261.978 224.185 261.732 224.626 261.378 225.004C261.028 225.378 260.587 225.67 260.056 225.879C259.529 226.085 258.927 226.187 258.251 226.187ZM264.232 229.477V216.727H265.995V218.23H266.146C266.25 218.037 266.401 217.814 266.598 217.56C266.796 217.307 267.069 217.085 267.419 216.896C267.77 216.703 268.232 216.607 268.808 216.607C269.557 216.607 270.225 216.796 270.812 217.174C271.4 217.552 271.861 218.098 272.195 218.81C272.533 219.522 272.702 220.38 272.702 221.382C272.702 222.384 272.535 223.243 272.201 223.96C271.867 224.672 271.408 225.221 270.824 225.608C270.241 225.99 269.575 226.181 268.826 226.181C268.263 226.181 267.802 226.087 267.444 225.897C267.089 225.708 266.812 225.487 266.611 225.233C266.409 224.98 266.254 224.754 266.146 224.557H266.037V229.477H264.232ZM266.001 221.364C266.001 222.016 266.095 222.587 266.285 223.078C266.474 223.569 266.747 223.953 267.106 224.231C267.464 224.505 267.902 224.642 268.422 224.642C268.961 224.642 269.412 224.499 269.774 224.213C270.136 223.923 270.41 223.531 270.595 223.036C270.784 222.541 270.879 221.983 270.879 221.364C270.879 220.752 270.786 220.203 270.601 219.716C270.42 219.229 270.146 218.844 269.78 218.562C269.418 218.281 268.965 218.14 268.422 218.14C267.898 218.14 267.456 218.275 267.093 218.544C266.735 218.814 266.464 219.19 266.278 219.673C266.093 220.156 266.001 220.72 266.001 221.364ZM278.721 226.187C277.807 226.187 277.02 225.992 276.36 225.602C275.704 225.207 275.197 224.654 274.839 223.941C274.485 223.225 274.308 222.386 274.308 221.424C274.308 220.474 274.485 219.637 274.839 218.913C275.197 218.188 275.696 217.623 276.336 217.216C276.98 216.81 277.733 216.607 278.594 216.607C279.117 216.607 279.624 216.693 280.115 216.866C280.606 217.039 281.047 217.311 281.437 217.681C281.828 218.051 282.136 218.532 282.361 219.124C282.586 219.712 282.699 220.426 282.699 221.267V221.907H275.328V220.555H280.93C280.93 220.08 280.834 219.659 280.64 219.293C280.447 218.923 280.176 218.631 279.825 218.418C279.479 218.204 279.073 218.098 278.606 218.098C278.099 218.098 277.656 218.222 277.278 218.472C276.903 218.717 276.614 219.039 276.408 219.438C276.207 219.832 276.107 220.261 276.107 220.724V221.78C276.107 222.4 276.215 222.927 276.433 223.362C276.654 223.797 276.962 224.129 277.356 224.358C277.751 224.583 278.211 224.696 278.739 224.696C279.081 224.696 279.393 224.648 279.674 224.551C279.956 224.451 280.2 224.302 280.405 224.104C280.61 223.907 280.767 223.664 280.876 223.374L282.584 223.682C282.447 224.185 282.202 224.626 281.848 225.004C281.498 225.378 281.057 225.67 280.526 225.879C279.998 226.085 279.397 226.187 278.721 226.187ZM285.911 216.727L287.957 220.337L290.022 216.727H291.996L289.104 221.364L292.02 226H290.046L287.957 222.535L285.874 226H283.894L286.78 221.364L283.93 216.727H285.911ZM293.849 226V216.727H297.695C298.741 216.727 299.57 216.951 300.182 217.397C300.794 217.84 301.1 218.442 301.1 219.202C301.1 219.746 300.926 220.176 300.58 220.494C300.234 220.812 299.775 221.026 299.204 221.134C299.618 221.183 299.999 221.307 300.345 221.509C300.691 221.706 300.969 221.971 301.178 222.305C301.391 222.639 301.498 223.038 301.498 223.501C301.498 223.992 301.371 224.426 301.118 224.805C300.864 225.179 300.496 225.473 300.013 225.686C299.534 225.895 298.956 226 298.28 226H293.849ZM295.546 224.491H298.28C298.727 224.491 299.077 224.384 299.331 224.171C299.584 223.958 299.711 223.668 299.711 223.301C299.711 222.871 299.584 222.533 299.331 222.287C299.077 222.038 298.727 221.913 298.28 221.913H295.546V224.491ZM295.546 220.591H297.713C298.051 220.591 298.341 220.543 298.582 220.446C298.828 220.349 299.015 220.213 299.144 220.036C299.276 219.854 299.343 219.641 299.343 219.396C299.343 219.037 299.196 218.758 298.902 218.556C298.608 218.355 298.206 218.255 297.695 218.255H295.546V220.591ZM306.177 226.205C305.589 226.205 305.058 226.097 304.583 225.879C304.108 225.658 303.732 225.338 303.454 224.919C303.18 224.501 303.043 223.988 303.043 223.38C303.043 222.857 303.144 222.426 303.345 222.088C303.546 221.75 303.818 221.482 304.16 221.285C304.502 221.088 304.885 220.939 305.307 220.838C305.73 220.738 306.16 220.661 306.599 220.609C307.155 220.545 307.605 220.492 307.951 220.452C308.298 220.408 308.549 220.337 308.706 220.241C308.863 220.144 308.941 219.987 308.941 219.77V219.728C308.941 219.2 308.793 218.792 308.495 218.502C308.201 218.212 307.762 218.067 307.179 218.067C306.571 218.067 306.092 218.202 305.742 218.472C305.396 218.738 305.156 219.033 305.024 219.359L303.327 218.973C303.528 218.41 303.822 217.955 304.209 217.609C304.599 217.259 305.048 217.005 305.555 216.848C306.062 216.687 306.595 216.607 307.155 216.607C307.525 216.607 307.917 216.651 308.332 216.739C308.75 216.824 309.141 216.981 309.503 217.21C309.869 217.44 310.169 217.768 310.402 218.194C310.636 218.617 310.753 219.166 310.753 219.842V226H308.99V224.732H308.917C308.801 224.966 308.626 225.195 308.392 225.42C308.159 225.646 307.859 225.833 307.493 225.982C307.126 226.131 306.688 226.205 306.177 226.205ZM306.569 224.756C307.068 224.756 307.495 224.658 307.849 224.461C308.207 224.263 308.479 224.006 308.664 223.688C308.853 223.366 308.948 223.022 308.948 222.656V221.46C308.883 221.525 308.758 221.585 308.573 221.641C308.392 221.694 308.185 221.74 307.951 221.78C307.718 221.816 307.491 221.851 307.269 221.883C307.048 221.911 306.863 221.935 306.714 221.955C306.364 222 306.044 222.074 305.754 222.179C305.468 222.283 305.239 222.434 305.066 222.631C304.897 222.825 304.812 223.082 304.812 223.404C304.812 223.851 304.977 224.189 305.307 224.418C305.637 224.644 306.058 224.756 306.569 224.756ZM320.6 216.727V226H318.838V216.727H320.6ZM319.834 221.032V222.589C319.556 222.702 319.262 222.802 318.952 222.891C318.642 222.975 318.316 223.042 317.974 223.09C317.632 223.138 317.276 223.163 316.906 223.163C315.759 223.163 314.847 222.883 314.171 222.324C313.495 221.76 313.157 220.899 313.157 219.74V216.709H314.914V219.74C314.914 220.178 314.994 220.535 315.155 220.808C315.316 221.082 315.545 221.283 315.843 221.412C316.141 221.541 316.495 221.605 316.906 221.605C317.449 221.605 317.95 221.555 318.409 221.454C318.872 221.35 319.347 221.209 319.834 221.032ZM326.998 226.187C326.084 226.187 325.298 225.992 324.638 225.602C323.982 225.207 323.474 224.654 323.116 223.941C322.762 223.225 322.585 222.386 322.585 221.424C322.585 220.474 322.762 219.637 323.116 218.913C323.474 218.188 323.973 217.623 324.613 217.216C325.257 216.81 326.01 216.607 326.871 216.607C327.394 216.607 327.901 216.693 328.392 216.866C328.883 217.039 329.324 217.311 329.715 217.681C330.105 218.051 330.413 218.532 330.638 219.124C330.864 219.712 330.976 220.426 330.976 221.267V221.907H323.605V220.555H329.207C329.207 220.08 329.111 219.659 328.918 219.293C328.725 218.923 328.453 218.631 328.103 218.418C327.757 218.204 327.35 218.098 326.883 218.098C326.376 218.098 325.933 218.222 325.555 218.472C325.181 218.717 324.891 219.039 324.686 219.438C324.485 219.832 324.384 220.261 324.384 220.724V221.78C324.384 222.4 324.493 222.927 324.71 223.362C324.931 223.797 325.239 224.129 325.634 224.358C326.028 224.583 326.489 224.696 327.016 224.696C327.358 224.696 327.67 224.648 327.952 224.551C328.234 224.451 328.477 224.302 328.682 224.104C328.888 223.907 329.044 223.664 329.153 223.374L330.862 223.682C330.725 224.185 330.479 224.626 330.125 225.004C329.775 225.378 329.334 225.67 328.803 225.879C328.276 226.085 327.674 226.187 326.998 226.187ZM339.263 220.585V222.148H334.241V220.585H339.263ZM334.748 216.727V226H332.979V216.727H334.748ZM340.525 216.727V226H338.762V216.727H340.525ZM344.298 219.915H346.991C348.126 219.915 348.999 220.196 349.611 220.76C350.223 221.323 350.528 222.05 350.528 222.939C350.528 223.519 350.392 224.04 350.118 224.503C349.844 224.966 349.444 225.332 348.917 225.602C348.389 225.867 347.747 226 346.991 226H342.94V216.727H344.709V224.442H346.991C347.51 224.442 347.937 224.308 348.271 224.038C348.605 223.764 348.772 223.416 348.772 222.994C348.772 222.547 348.605 222.183 348.271 221.901C347.937 221.615 347.51 221.472 346.991 221.472H344.298V219.915ZM351.844 226V216.727H353.65V226H351.844ZM358.42 224.31L358.33 224.968C358.269 225.451 358.167 225.954 358.022 226.477C357.881 227.004 357.734 227.493 357.581 227.944C357.432 228.395 357.309 228.753 357.213 229.018H355.933C355.985 228.769 356.058 228.431 356.15 228.004C356.243 227.582 356.333 227.109 356.422 226.586C356.511 226.062 356.577 225.529 356.621 224.986L356.682 224.31H358.42ZM0.307884 252.674V248.436H1.0625C1.25568 248.259 1.41868 248.048 1.55149 247.803C1.68833 247.557 1.80303 247.265 1.8956 246.927C1.99219 246.589 2.07268 246.195 2.13707 245.744C2.20147 245.289 2.25781 244.77 2.30611 244.186L2.59588 240.727H8.89844V248.436H10.3232V252.674H8.56037V250H2.09482V252.674H0.307884ZM2.99432 248.436H7.13565V242.273H4.21378L4.0206 244.186C3.92803 245.16 3.81132 246.006 3.67045 246.722C3.52959 247.434 3.30421 248.006 2.99432 248.436ZM14.786 250.205C14.1984 250.205 13.6671 250.097 13.1922 249.879C12.7173 249.658 12.341 249.338 12.0633 248.919C11.7896 248.501 11.6528 247.988 11.6528 247.38C11.6528 246.857 11.7534 246.426 11.9546 246.088C12.1559 245.75 12.4275 245.482 12.7696 245.285C13.1117 245.088 13.4941 244.939 13.9166 244.838C14.3392 244.738 14.7699 244.661 15.2085 244.609C15.7639 244.545 16.2147 244.492 16.5608 244.452C16.9069 244.408 17.1585 244.337 17.3154 244.241C17.4724 244.144 17.5509 243.987 17.5509 243.77V243.728C17.5509 243.2 17.402 242.792 17.1041 242.502C16.8103 242.212 16.3717 242.067 15.7881 242.067C15.1804 242.067 14.7014 242.202 14.3513 242.472C14.0052 242.738 13.7657 243.033 13.6329 243.359L11.9365 242.973C12.1378 242.41 12.4316 241.955 12.8179 241.609C13.2083 241.259 13.657 241.005 14.1642 240.848C14.6713 240.687 15.2045 240.607 15.7639 240.607C16.1342 240.607 16.5266 240.651 16.9411 240.739C17.3597 240.824 17.7501 240.981 18.1123 241.21C18.4785 241.44 18.7784 241.768 19.0118 242.194C19.2452 242.617 19.3619 243.166 19.3619 243.842V250H17.5992V248.732H17.5267C17.41 248.966 17.2349 249.195 17.0015 249.42C16.7681 249.646 16.4682 249.833 16.102 249.982C15.7358 250.131 15.2971 250.205 14.786 250.205ZM15.1784 248.756C15.6774 248.756 16.104 248.658 16.4582 248.461C16.8164 248.263 17.088 248.006 17.2732 247.688C17.4623 247.366 17.5569 247.022 17.5569 246.656V245.46C17.4925 245.525 17.3678 245.585 17.1826 245.641C17.0015 245.694 16.7942 245.74 16.5608 245.78C16.3274 245.816 16.1 245.851 15.8786 245.883C15.6573 245.911 15.4722 245.935 15.3232 245.955C14.9731 246 14.6531 246.074 14.3634 246.179C14.0776 246.283 13.8482 246.434 13.6752 246.631C13.5061 246.825 13.4216 247.082 13.4216 247.404C13.4216 247.851 13.5866 248.189 13.9166 248.418C14.2467 248.644 14.6672 248.756 15.1784 248.756ZM21.1745 250L24.7665 245.255L21.2168 240.727H23.3176L26.1852 244.579H26.8311V240.727H28.6362V244.579H29.264L32.1316 240.727H34.2324L30.7008 245.255L34.2747 250H32.1316L29.2399 246.136H28.6362V250H26.8311V246.136H26.2275L23.3176 250H21.1745ZM39.7411 250.187C38.8275 250.187 38.0407 249.992 37.3807 249.602C36.7247 249.207 36.2176 248.654 35.8594 247.941C35.5052 247.225 35.3281 246.386 35.3281 245.424C35.3281 244.474 35.5052 243.637 35.8594 242.913C36.2176 242.188 36.7166 241.623 37.3565 241.216C38.0005 240.81 38.7531 240.607 39.6143 240.607C40.1375 240.607 40.6446 240.693 41.1357 240.866C41.6267 241.039 42.0674 241.311 42.4577 241.681C42.8481 242.051 43.156 242.532 43.3814 243.124C43.6068 243.712 43.7195 244.426 43.7195 245.267V245.907H36.3484V244.555H41.9506C41.9506 244.08 41.854 243.659 41.6609 243.293C41.4677 242.923 41.196 242.631 40.8459 242.418C40.4998 242.204 40.0933 242.098 39.6264 242.098C39.1193 242.098 38.6766 242.222 38.2983 242.472C37.924 242.717 37.6342 243.039 37.429 243.438C37.2277 243.832 37.1271 244.261 37.1271 244.724V245.78C37.1271 246.4 37.2358 246.927 37.4531 247.362C37.6745 247.797 37.9824 248.129 38.3768 248.358C38.7712 248.583 39.232 248.696 39.7592 248.696C40.1013 248.696 40.4132 248.648 40.695 248.551C40.9767 248.451 41.2202 248.302 41.4254 248.104C41.6307 247.907 41.7876 247.664 41.8963 247.374L43.6048 247.682C43.4679 248.185 43.2224 248.626 42.8683 249.004C42.5181 249.378 42.0774 249.67 41.5462 249.879C41.0189 250.085 40.4173 250.187 39.7411 250.187ZM50.2212 250V240.727H57.7855V250H56.0167V242.285H51.978V250H50.2212ZM60.1988 253.477V240.727H61.9616V242.23H62.1125C62.2171 242.037 62.368 241.814 62.5653 241.56C62.7625 241.307 63.0361 241.085 63.3863 240.896C63.7364 240.703 64.1992 240.607 64.7748 240.607C65.5233 240.607 66.1914 240.796 66.779 241.174C67.3666 241.552 67.8274 242.098 68.1615 242.81C68.4996 243.522 68.6686 244.38 68.6686 245.382C68.6686 246.384 68.5016 247.243 68.1675 247.96C67.8335 248.672 67.3747 249.221 66.7911 249.608C66.2075 249.99 65.5415 250.181 64.7929 250.181C64.2294 250.181 63.7686 250.087 63.4104 249.897C63.0563 249.708 62.7786 249.487 62.5773 249.233C62.3761 248.98 62.2211 248.754 62.1125 248.557H62.0038V253.477H60.1988ZM61.9676 245.364C61.9676 246.016 62.0622 246.587 62.2513 247.078C62.4405 247.569 62.7142 247.953 63.0724 248.231C63.4305 248.505 63.8692 248.642 64.3884 248.642C64.9277 248.642 65.3785 248.499 65.7407 248.213C66.1029 247.923 66.3766 247.531 66.5617 247.036C66.7509 246.541 66.8454 245.983 66.8454 245.364C66.8454 244.752 66.7529 244.203 66.5677 243.716C66.3866 243.229 66.113 242.844 65.7467 242.562C65.3845 242.281 64.9317 242.14 64.3884 242.14C63.8652 242.14 63.4225 242.275 63.0603 242.544C62.7021 242.814 62.4304 243.19 62.2453 243.673C62.0602 244.156 61.9676 244.72 61.9676 245.364ZM72.4598 247.471L76.5468 240.727H78.4907V250H76.7219V243.251L72.653 250H70.691V240.727H72.4598V247.471ZM87.1854 247.471L91.2724 240.727H93.2163V250H91.4474V243.251L87.3786 250H85.4165V240.727H87.1854V247.471ZM99.549 250.187C98.6515 250.187 97.8788 249.984 97.2308 249.577C96.5869 249.167 96.0919 248.601 95.7457 247.881C95.3996 247.161 95.2266 246.336 95.2266 245.406C95.2266 244.464 95.4036 243.633 95.7578 242.913C96.112 242.188 96.611 241.623 97.255 241.216C97.8989 240.81 98.6576 240.607 99.5309 240.607C100.235 240.607 100.863 240.737 101.414 240.999C101.966 241.257 102.411 241.619 102.749 242.086C103.091 242.552 103.294 243.098 103.358 243.722H101.602C101.505 243.287 101.284 242.913 100.938 242.599C100.595 242.285 100.137 242.128 99.5611 242.128C99.058 242.128 98.6173 242.261 98.239 242.526C97.8647 242.788 97.5729 243.162 97.3636 243.649C97.1544 244.132 97.0497 244.704 97.0497 245.364C97.0497 246.04 97.1523 246.623 97.3576 247.114C97.5629 247.605 97.8526 247.986 98.2269 248.255C98.6052 248.525 99.05 248.66 99.5611 248.66C99.9032 248.66 100.213 248.597 100.491 248.473C100.772 248.344 101.008 248.161 101.197 247.923C101.39 247.686 101.525 247.4 101.602 247.066H103.358C103.294 247.666 103.099 248.201 102.773 248.672C102.447 249.143 102.01 249.513 101.463 249.783C100.919 250.052 100.281 250.187 99.549 250.187ZM105.289 250V240.727H112.853V250H111.084V242.285H107.045V250H105.289ZM119.172 250.187C118.303 250.187 117.544 249.988 116.896 249.589C116.248 249.191 115.745 248.634 115.387 247.917C115.029 247.201 114.85 246.364 114.85 245.406C114.85 244.444 115.029 243.603 115.387 242.882C115.745 242.162 116.248 241.603 116.896 241.204C117.544 240.806 118.303 240.607 119.172 240.607C120.041 240.607 120.8 240.806 121.448 241.204C122.096 241.603 122.599 242.162 122.957 242.882C123.315 243.603 123.494 244.444 123.494 245.406C123.494 246.364 123.315 247.201 122.957 247.917C122.599 248.634 122.096 249.191 121.448 249.589C120.8 249.988 120.041 250.187 119.172 250.187ZM119.178 248.672C119.742 248.672 120.208 248.523 120.579 248.225C120.949 247.927 121.223 247.531 121.4 247.036C121.581 246.541 121.671 245.996 121.671 245.4C121.671 244.808 121.581 244.265 121.4 243.77C121.223 243.271 120.949 242.87 120.579 242.569C120.208 242.267 119.742 242.116 119.178 242.116C118.611 242.116 118.14 242.267 117.765 242.569C117.395 242.87 117.119 243.271 116.938 243.77C116.761 244.265 116.673 244.808 116.673 245.4C116.673 245.996 116.761 246.541 116.938 247.036C117.119 247.531 117.395 247.927 117.765 248.225C118.14 248.523 118.611 248.672 119.178 248.672ZM124.779 250L124.773 248.436H125.105C125.362 248.436 125.578 248.382 125.751 248.273C125.928 248.161 126.073 247.972 126.185 247.706C126.298 247.44 126.385 247.074 126.445 246.607C126.505 246.136 126.55 245.545 126.578 244.832L126.741 240.727H133.212V250H131.444V242.285H128.413L128.268 245.436C128.232 246.201 128.153 246.869 128.033 247.44C127.916 248.012 127.745 248.489 127.52 248.871C127.294 249.249 127.004 249.533 126.65 249.722C126.296 249.907 125.866 250 125.358 250H124.779ZM136.978 243.915H139.67C140.805 243.915 141.679 244.196 142.29 244.76C142.902 245.323 143.208 246.05 143.208 246.939C143.208 247.519 143.071 248.04 142.798 248.503C142.524 248.966 142.123 249.332 141.596 249.602C141.069 249.867 140.427 250 139.67 250H135.62V240.727H137.388V248.442H139.67C140.19 248.442 140.616 248.308 140.95 248.038C141.284 247.764 141.451 247.416 141.451 246.994C141.451 246.547 141.284 246.183 140.95 245.901C140.616 245.615 140.19 245.472 139.67 245.472H136.978V243.915ZM144.683 247.549H146.53C146.554 247.927 146.725 248.219 147.043 248.424C147.365 248.63 147.782 248.732 148.293 248.732C148.812 248.732 149.255 248.622 149.621 248.4C149.987 248.175 150.17 247.827 150.17 247.356C150.17 247.074 150.1 246.829 149.959 246.619C149.822 246.406 149.627 246.241 149.373 246.124C149.124 246.008 148.828 245.949 148.486 245.949H146.977V244.531H148.486C148.997 244.531 149.379 244.414 149.633 244.18C149.886 243.947 150.013 243.655 150.013 243.305C150.013 242.927 149.876 242.623 149.603 242.393C149.333 242.16 148.957 242.043 148.474 242.043C147.983 242.043 147.574 242.154 147.248 242.375C146.922 242.593 146.751 242.874 146.735 243.221H144.912C144.924 242.701 145.081 242.247 145.383 241.856C145.689 241.462 146.099 241.156 146.614 240.939C147.134 240.717 147.723 240.607 148.383 240.607C149.071 240.607 149.667 240.717 150.17 240.939C150.673 241.16 151.062 241.466 151.335 241.856C151.613 242.247 151.752 242.695 151.752 243.202C151.752 243.714 151.599 244.132 151.293 244.458C150.991 244.78 150.597 245.011 150.11 245.152V245.249C150.468 245.273 150.786 245.382 151.064 245.575C151.341 245.768 151.559 246.024 151.716 246.342C151.873 246.66 151.951 247.02 151.951 247.422C151.951 247.99 151.794 248.481 151.48 248.895C151.17 249.31 150.74 249.63 150.188 249.855C149.641 250.076 149.015 250.187 148.311 250.187C147.627 250.187 147.013 250.08 146.47 249.867C145.93 249.65 145.502 249.344 145.184 248.95C144.87 248.555 144.703 248.088 144.683 247.549ZM157.721 250.187C156.852 250.187 156.093 249.988 155.445 249.589C154.797 249.191 154.294 248.634 153.936 247.917C153.578 247.201 153.398 246.364 153.398 245.406C153.398 244.444 153.578 243.603 153.936 242.882C154.294 242.162 154.797 241.603 155.445 241.204C156.093 240.806 156.852 240.607 157.721 240.607C158.59 240.607 159.349 240.806 159.997 241.204C160.645 241.603 161.148 242.162 161.506 242.882C161.864 243.603 162.043 244.444 162.043 245.406C162.043 246.364 161.864 247.201 161.506 247.917C161.148 248.634 160.645 249.191 159.997 249.589C159.349 249.988 158.59 250.187 157.721 250.187ZM157.727 248.672C158.29 248.672 158.757 248.523 159.127 248.225C159.498 247.927 159.771 247.531 159.949 247.036C160.13 246.541 160.22 245.996 160.22 245.4C160.22 244.808 160.13 244.265 159.949 243.77C159.771 243.271 159.498 242.87 159.127 242.569C158.757 242.267 158.29 242.116 157.727 242.116C157.159 242.116 156.689 242.267 156.314 242.569C155.944 242.87 155.668 243.271 155.487 243.77C155.31 244.265 155.222 244.808 155.222 245.4C155.222 245.996 155.31 246.541 155.487 247.036C155.668 247.531 155.944 247.927 156.314 248.225C156.689 248.523 157.159 248.672 157.727 248.672ZM164.058 250V240.727H167.904C168.95 240.727 169.779 240.951 170.391 241.397C171.003 241.84 171.309 242.442 171.309 243.202C171.309 243.746 171.135 244.176 170.789 244.494C170.443 244.812 169.984 245.026 169.413 245.134C169.827 245.183 170.208 245.307 170.554 245.509C170.9 245.706 171.178 245.971 171.387 246.305C171.6 246.639 171.707 247.038 171.707 247.501C171.707 247.992 171.58 248.426 171.327 248.805C171.073 249.179 170.705 249.473 170.222 249.686C169.743 249.895 169.165 250 168.489 250H164.058ZM165.755 248.491H168.489C168.936 248.491 169.286 248.384 169.54 248.171C169.793 247.958 169.92 247.668 169.92 247.301C169.92 246.871 169.793 246.533 169.54 246.287C169.286 246.038 168.936 245.913 168.489 245.913H165.755V248.491ZM165.755 244.591H167.922C168.26 244.591 168.55 244.543 168.791 244.446C169.037 244.349 169.224 244.213 169.353 244.036C169.485 243.854 169.552 243.641 169.552 243.396C169.552 243.037 169.405 242.758 169.111 242.556C168.817 242.355 168.415 242.255 167.904 242.255H165.755V244.591ZM176.386 250.205C175.798 250.205 175.267 250.097 174.792 249.879C174.317 249.658 173.941 249.338 173.663 248.919C173.389 248.501 173.252 247.988 173.252 247.38C173.252 246.857 173.353 246.426 173.554 246.088C173.755 245.75 174.027 245.482 174.369 245.285C174.711 245.088 175.094 244.939 175.516 244.838C175.939 244.738 176.369 244.661 176.808 244.609C177.364 244.545 177.814 244.492 178.16 244.452C178.507 244.408 178.758 244.337 178.915 244.241C179.072 244.144 179.15 243.987 179.15 243.77V243.728C179.15 243.2 179.002 242.792 178.704 242.502C178.41 242.212 177.971 242.067 177.388 242.067C176.78 242.067 176.301 242.202 175.951 242.472C175.605 242.738 175.365 243.033 175.233 243.359L173.536 242.973C173.737 242.41 174.031 241.955 174.418 241.609C174.808 241.259 175.257 241.005 175.764 240.848C176.271 240.687 176.804 240.607 177.364 240.607C177.734 240.607 178.126 240.651 178.541 240.739C178.959 240.824 179.35 240.981 179.712 241.21C180.078 241.44 180.378 241.768 180.611 242.194C180.845 242.617 180.962 243.166 180.962 243.842V250H179.199V248.732H179.126C179.01 248.966 178.835 249.195 178.601 249.42C178.368 249.646 178.068 249.833 177.702 249.982C177.335 250.131 176.897 250.205 176.386 250.205ZM176.778 248.756C177.277 248.756 177.704 248.658 178.058 248.461C178.416 248.263 178.688 248.006 178.873 247.688C179.062 247.366 179.157 247.022 179.157 246.656V245.46C179.092 245.525 178.967 245.585 178.782 245.641C178.601 245.694 178.394 245.74 178.16 245.78C177.927 245.816 177.7 245.851 177.478 245.883C177.257 245.911 177.072 245.935 176.923 245.955C176.573 246 176.253 246.074 175.963 246.179C175.677 246.283 175.448 246.434 175.275 246.631C175.106 246.825 175.021 247.082 175.021 247.404C175.021 247.851 175.186 248.189 175.516 248.418C175.846 248.644 176.267 248.756 176.778 248.756ZM189.65 244.585V246.148H184.627V244.585H189.65ZM185.135 240.727V250H183.366V240.727H185.135ZM190.912 240.727V250H189.149V240.727H190.912ZM195.096 247.471L199.183 240.727H201.126V250H199.358V243.251L195.289 250H193.327V240.727H195.096V247.471ZM205.322 247.471L209.409 240.727H211.353V250H209.584V243.251L205.515 250H203.553V240.727H205.322V247.471ZM222.185 250.187C221.315 250.187 220.557 249.988 219.909 249.589C219.261 249.191 218.758 248.634 218.4 247.917C218.041 247.201 217.862 246.364 217.862 245.406C217.862 244.444 218.041 243.603 218.4 242.882C218.758 242.162 219.261 241.603 219.909 241.204C220.557 240.806 221.315 240.607 222.185 240.607C223.054 240.607 223.813 240.806 224.461 241.204C225.109 241.603 225.612 242.162 225.97 242.882C226.328 243.603 226.507 244.444 226.507 245.406C226.507 246.364 226.328 247.201 225.97 247.917C225.612 248.634 225.109 249.191 224.461 249.589C223.813 249.988 223.054 250.187 222.185 250.187ZM222.191 248.672C222.754 248.672 223.221 248.523 223.591 248.225C223.962 247.927 224.235 247.531 224.412 247.036C224.593 246.541 224.684 245.996 224.684 245.4C224.684 244.808 224.593 244.265 224.412 243.77C224.235 243.271 223.962 242.87 223.591 242.569C223.221 242.267 222.754 242.116 222.191 242.116C221.623 242.116 221.152 242.267 220.778 242.569C220.408 242.87 220.132 243.271 219.951 243.77C219.774 244.265 219.685 244.808 219.685 245.4C219.685 245.996 219.774 246.541 219.951 247.036C220.132 247.531 220.408 247.927 220.778 248.225C221.152 248.523 221.623 248.672 222.191 248.672ZM227.405 242.285V240.727H235.229V242.285H232.205V250H230.442V242.285H227.405ZM237.138 250V240.727H238.943V244.615H239.813L242.873 240.727H245.107L241.515 245.237L245.149 250H242.91L240.114 246.293H238.943V250H237.138ZM246.551 253.477V240.727H248.314V242.23H248.465C248.57 242.037 248.721 241.814 248.918 241.56C249.115 241.307 249.389 241.085 249.739 240.896C250.089 240.703 250.552 240.607 251.127 240.607C251.876 240.607 252.544 240.796 253.132 241.174C253.719 241.552 254.18 242.098 254.514 242.81C254.852 243.522 255.021 244.38 255.021 245.382C255.021 246.384 254.854 247.243 254.52 247.96C254.186 248.672 253.727 249.221 253.144 249.608C252.56 249.99 251.894 250.181 251.145 250.181C250.582 250.181 250.121 250.087 249.763 249.897C249.409 249.708 249.131 249.487 248.93 249.233C248.729 248.98 248.574 248.754 248.465 248.557H248.356V253.477H246.551ZM248.32 245.364C248.32 246.016 248.415 246.587 248.604 247.078C248.793 247.569 249.067 247.953 249.425 248.231C249.783 248.505 250.222 248.642 250.741 248.642C251.28 248.642 251.731 248.499 252.093 248.213C252.455 247.923 252.729 247.531 252.914 247.036C253.103 246.541 253.198 245.983 253.198 245.364C253.198 244.752 253.105 244.203 252.92 243.716C252.739 243.229 252.465 242.844 252.099 242.562C251.737 242.281 251.284 242.14 250.741 242.14C250.218 242.14 249.775 242.275 249.413 242.544C249.055 242.814 248.783 243.19 248.598 243.673C248.413 244.156 248.32 244.72 248.32 245.364ZM258.402 243.915H261.094C262.229 243.915 263.103 244.196 263.714 244.76C264.326 245.323 264.632 246.05 264.632 246.939C264.632 247.519 264.495 248.04 264.221 248.503C263.948 248.966 263.547 249.332 263.02 249.602C262.493 249.867 261.851 250 261.094 250H257.044V240.727H258.812V248.442H261.094C261.613 248.442 262.04 248.308 262.374 248.038C262.708 247.764 262.875 247.416 262.875 246.994C262.875 246.547 262.708 246.183 262.374 245.901C262.04 245.615 261.613 245.472 261.094 245.472H258.402V243.915ZM265.948 250V240.727H267.753V250H265.948ZM269.656 242.285V240.727H277.48V242.285H274.456V250H272.693V242.285H269.656ZM280.748 243.915H283.44C284.575 243.915 285.448 244.196 286.06 244.76C286.672 245.323 286.978 246.05 286.978 246.939C286.978 247.519 286.841 248.04 286.567 248.503C286.293 248.966 285.893 249.332 285.366 249.602C284.839 249.867 284.197 250 283.44 250H279.389V240.727H281.158V248.442H283.44C283.959 248.442 284.386 248.308 284.72 248.038C285.054 247.764 285.221 247.416 285.221 246.994C285.221 246.547 285.054 246.183 284.72 245.901C284.386 245.615 283.959 245.472 283.44 245.472H280.748V243.915ZM288.294 250V240.727H290.099V250H288.294ZM293.946 240.727L295.992 244.337L298.057 240.727H300.031L297.139 245.364L300.055 250H298.081L295.992 246.535L293.91 250H291.929L294.815 245.364L291.966 240.727H293.946ZM308.949 250L305.52 237.636H307.482L309.891 247.211H310.006L312.511 237.636H314.455L316.96 247.217H317.075L319.477 237.636H321.445L318.01 250H316.133L313.531 240.739H313.434L310.833 250H308.949ZM323.002 250V240.727H324.807V250H323.002ZM323.913 239.297C323.599 239.297 323.33 239.192 323.104 238.983C322.883 238.769 322.772 238.516 322.772 238.222C322.772 237.924 322.883 237.671 323.104 237.461C323.33 237.248 323.599 237.141 323.913 237.141C324.227 237.141 324.495 237.248 324.716 237.461C324.941 237.671 325.054 237.924 325.054 238.222C325.054 238.516 324.941 238.769 324.716 238.983C324.495 239.192 324.227 239.297 323.913 239.297ZM332.698 243.993V245.557H327.217V243.993H332.698ZM335.249 250V237.636H342.916V239.242H337.114V243.009H342.366V244.609H337.114V250H335.249ZM345.065 250V240.727H346.87V250H345.065ZM345.977 239.297C345.663 239.297 345.393 239.192 345.168 238.983C344.946 238.769 344.836 238.516 344.836 238.222C344.836 237.924 344.946 237.671 345.168 237.461C345.393 237.248 345.663 237.141 345.977 237.141C346.29 237.141 346.558 237.248 346.779 237.461C347.005 237.671 347.118 237.924 347.118 238.222C347.118 238.516 347.005 238.769 346.779 238.983C346.558 239.192 346.29 239.297 345.977 239.297ZM5.11932 274.187C4.22183 274.187 3.4491 273.984 2.80114 273.577C2.1572 273.167 1.66217 272.601 1.31605 271.881C0.969934 271.161 0.796875 270.336 0.796875 269.406C0.796875 268.464 0.973958 267.633 1.32812 266.913C1.68229 266.188 2.18134 265.623 2.82528 265.216C3.46922 264.81 4.22786 264.607 5.10121 264.607C5.80552 264.607 6.43336 264.737 6.98473 264.999C7.5361 265.257 7.98082 265.619 8.31889 266.086C8.66098 266.552 8.86423 267.098 8.92862 267.722H7.17188C7.07528 267.287 6.85393 266.913 6.50781 266.599C6.16572 266.285 5.70691 266.128 5.13139 266.128C4.62831 266.128 4.18762 266.261 3.8093 266.526C3.43501 266.788 3.14323 267.162 2.93395 267.649C2.72467 268.132 2.62003 268.704 2.62003 269.364C2.62003 270.04 2.72266 270.623 2.92791 271.114C3.13317 271.605 3.42294 271.986 3.79723 272.255C4.17554 272.525 4.62027 272.66 5.13139 272.66C5.47348 272.66 5.78338 272.597 6.06108 272.473C6.3428 272.344 6.57824 272.161 6.7674 271.923C6.96058 271.686 7.09541 271.4 7.17188 271.066H8.92862C8.86423 271.666 8.66903 272.201 8.34304 272.672C8.01705 273.143 7.58037 273.513 7.03303 273.783C6.4897 274.052 5.8518 274.187 5.11932 274.187ZM14.8554 274.187C13.9418 274.187 13.155 273.992 12.4949 273.602C11.8389 273.207 11.3318 272.654 10.9736 271.941C10.6195 271.225 10.4424 270.386 10.4424 269.424C10.4424 268.474 10.6195 267.637 10.9736 266.913C11.3318 266.188 11.8309 265.623 12.4708 265.216C13.1147 264.81 13.8673 264.607 14.7286 264.607C15.2518 264.607 15.7589 264.693 16.2499 264.866C16.7409 265.039 17.1816 265.311 17.572 265.681C17.9624 266.051 18.2703 266.532 18.4957 267.124C18.721 267.712 18.8337 268.426 18.8337 269.267V269.907H11.4626V268.555H17.0649C17.0649 268.08 16.9683 267.659 16.7751 267.293C16.5819 266.923 16.3103 266.631 15.9601 266.418C15.614 266.204 15.2075 266.098 14.7407 266.098C14.2336 266.098 13.7909 266.222 13.4126 266.472C13.0383 266.717 12.7485 267.039 12.5432 267.438C12.342 267.832 12.2414 268.261 12.2414 268.724V269.78C12.2414 270.4 12.3501 270.927 12.5674 271.362C12.7887 271.797 13.0966 272.129 13.491 272.358C13.8854 272.583 14.3463 272.696 14.8735 272.696C15.2156 272.696 15.5275 272.648 15.8092 272.551C16.0909 272.451 16.3344 272.302 16.5397 272.104C16.7449 271.907 16.9019 271.664 17.0106 271.374L18.719 271.682C18.5822 272.185 18.3367 272.626 17.9825 273.004C17.6324 273.378 17.1917 273.67 16.6604 273.879C16.1332 274.085 15.5315 274.187 14.8554 274.187ZM20.0185 266.285V264.727H27.8423V266.285H24.8178V274H23.055V266.285H20.0185ZM33.3163 274.187C32.4027 274.187 31.6159 273.992 30.9559 273.602C30.2999 273.207 29.7928 272.654 29.4346 271.941C29.0804 271.225 28.9033 270.386 28.9033 269.424C28.9033 268.474 29.0804 267.637 29.4346 266.913C29.7928 266.188 30.2918 265.623 30.9317 265.216C31.5757 264.81 32.3283 264.607 33.1895 264.607C33.7127 264.607 34.2198 264.693 34.7108 264.866C35.2019 265.039 35.6425 265.311 36.0329 265.681C36.4233 266.051 36.7312 266.532 36.9566 267.124C37.182 267.712 37.2947 268.426 37.2947 269.267V269.907H29.9236V268.555H35.5258C35.5258 268.08 35.4292 267.659 35.2361 267.293C35.0429 266.923 34.7712 266.631 34.4211 266.418C34.075 266.204 33.6685 266.098 33.2016 266.098C32.6945 266.098 32.2518 266.222 31.8735 266.472C31.4992 266.717 31.2094 267.039 31.0042 267.438C30.8029 267.832 30.7023 268.261 30.7023 268.724V269.78C30.7023 270.4 30.811 270.927 31.0283 271.362C31.2497 271.797 31.5576 272.129 31.952 272.358C32.3464 272.583 32.8072 272.696 33.3344 272.696C33.6765 272.696 33.9884 272.648 34.2702 272.551C34.5519 272.451 34.7954 272.302 35.0006 272.104C35.2059 271.907 35.3628 271.664 35.4715 271.374L37.18 271.682C37.0431 272.185 36.7976 272.626 36.4434 273.004C36.0933 273.378 35.6526 273.67 35.1214 273.879C34.5941 274.085 33.9925 274.187 33.3163 274.187ZM41.0662 271.471L45.1532 264.727H47.0971V274H45.3283V267.251L41.2594 274H39.2974V264.727H41.0662V271.471ZM44.3805 261.588H45.8656C45.8656 262.268 45.6241 262.822 45.1412 263.248C44.6622 263.671 44.0143 263.882 43.1973 263.882C42.3843 263.882 41.7383 263.671 41.2594 263.248C40.7805 262.822 40.541 262.268 40.541 261.588H42.0201C42.0201 261.89 42.1086 262.158 42.2857 262.391C42.4628 262.62 42.7666 262.735 43.1973 262.735C43.6199 262.735 43.9217 262.62 44.1028 262.391C44.2879 262.162 44.3805 261.894 44.3805 261.588Z" fill="#4E5D7C" fill-opacity="0.5"/>
<g clip-path="url(#clip0_3725_1209)">
<path d="M3.01879 25.4478C3.01879 24.3272 3.00717 23.2089 3.01879 22.0883C3.05832 18.991 5.06715 16.6255 8.16178 16.2021C20.2892 14.5362 30.7193 9.36337 39.78 1.32345C41.8005 -0.469077 44.279 -0.441464 46.3529 1.41089C52.9932 7.33844 60.524 11.7519 69.1058 14.2808C71.8981 15.1045 74.7858 15.6522 77.6642 16.14C80.7542 16.6647 82.9793 18.8323 82.9955 21.8789C83.0606 33.6925 81.3889 45.2209 76.9063 56.2407C73.8884 63.657 69.6173 70.2565 63.5722 75.6456C57.8549 80.7424 51.1913 84.0721 43.7582 85.9221C43.2281 86.0533 42.598 86.005 42.0609 85.8669C27.5154 82.1185 17.3131 73.2156 10.8007 59.9684C7.5689 53.3919 5.50891 46.4404 4.41149 39.2312C3.71398 34.6705 3.53728 30.0361 3.01879 25.4478C3.08389 25.4386 2.95369 25.457 3.01879 25.4478ZM78.8361 25.5399C78.8361 24.4192 78.85 23.3009 78.8314 22.1803C78.8128 21.0091 78.3036 20.4706 77.1364 20.2796C75.6507 20.0357 74.1581 19.8194 72.6886 19.4996C61.7726 17.1295 52.2353 12.1016 43.9116 4.77045C43.2304 4.17217 42.8444 4.13535 42.1423 4.75204C32.6747 13.0704 21.7633 18.4043 9.18248 20.2497C7.54565 20.489 7.19689 20.917 7.19689 22.5807C7.19224 27.6983 7.5689 32.7882 8.38034 37.8437C9.54286 45.0759 11.5005 52.0734 14.8254 58.6453C20.6775 70.215 29.6196 78.1813 42.3724 81.6628C42.7212 81.7572 43.1327 81.8262 43.4675 81.7342C50.152 79.9324 56.1227 76.8191 61.2076 72.1272C67.7805 66.0593 71.933 58.521 74.6928 50.159C77.3317 42.1628 78.5338 33.9249 78.8361 25.5376V25.5399Z" fill="#357EFE"/>
<path d="M42.5866 53.341C40.9475 53.2467 39.3967 52.9452 37.9621 52.179C36.9972 51.6635 36.4811 49.5166 37.1623 48.6859C37.2925 48.5272 37.8575 48.5433 38.1086 48.6813C39.3897 49.3832 40.701 50.0022 42.1937 49.9906C42.9051 49.9837 43.6631 49.9193 44.3141 49.6662C45.9696 49.0219 46.2718 47.0269 44.9117 45.8948C44.4327 45.4944 43.8491 45.2067 43.2841 44.9191C42.3843 44.4612 41.438 44.0884 40.5499 43.6075C37.9365 42.1969 36.86 40.0293 37.3902 37.3417C37.8807 34.8634 39.8175 33.2182 42.6912 32.9006C44.3234 32.7212 45.9207 32.8868 47.4739 33.4805C48.4108 33.8395 48.8177 34.4055 48.7991 35.4249C48.7643 37.4636 48.7689 37.4291 46.9205 36.6974C45.8742 36.2832 44.7024 36.0899 43.5701 36.0094C42.5378 35.9357 41.7357 36.6077 41.4892 37.4061C41.1962 38.3565 41.4985 39.2424 42.4611 39.8614C43.1609 40.3101 43.9398 40.6391 44.6885 41.0119C45.386 41.3594 46.1044 41.6677 46.7926 42.0336C49.0665 43.2416 50.1895 45.1032 49.9268 47.6781C49.6664 50.2208 48.0249 52.1398 45.4813 52.8371C44.542 53.0948 43.5515 53.1799 42.5866 53.341Z" fill="#357EFE"/>
<path d="M26.2136 53.297C24.6442 53.2441 23.1516 52.945 21.7589 52.2362C20.7103 51.7024 20.1732 49.6637 20.8079 48.6903C21.1427 48.1772 21.5171 48.4947 21.8542 48.6903C23.0934 49.4082 24.3885 50.0042 25.8509 49.9812C26.6159 49.9697 27.4366 49.8869 28.1271 49.5946C29.6361 48.9549 29.9291 47.0243 28.6782 45.9796C28.0039 45.4182 27.1623 45.0454 26.3764 44.6266C25.4603 44.1388 24.4745 43.7637 23.598 43.2184C21.4892 41.9022 20.6754 39.9624 21.052 37.5393C21.4078 35.2521 22.8075 33.8622 24.9907 33.2018C26.8158 32.6496 28.6549 32.7117 30.4731 33.241C32.2936 33.7725 32.5866 34.212 32.4703 36.0782C32.3866 37.4151 32.2494 37.491 31.0381 36.8674C29.8639 36.2646 28.6456 35.855 27.2925 35.9723C26.1927 36.0667 25.4347 36.589 25.1697 37.4611C24.8884 38.3884 25.2115 39.2536 26.1881 39.8887C26.8135 40.296 27.5087 40.5998 28.1806 40.9288C28.8293 41.2464 29.5059 41.511 30.143 41.8469C32.8772 43.2874 33.9676 45.2456 33.5794 47.9839C33.2167 50.545 31.2799 52.4641 28.4457 53.0209C27.711 53.1659 26.9553 53.2073 26.209 53.297H26.2136Z" fill="#357EFE"/>
<path d="M58.5166 49.5948C60.5068 49.5948 62.3854 49.6248 64.2641 49.581C65.0057 49.5649 65.3498 49.8319 65.3684 50.5475C65.3684 50.6326 65.3871 50.7178 65.394 50.8052C65.5591 52.6783 65.3638 52.8969 63.5131 52.8969C61.0206 52.8969 58.5282 52.9015 56.0357 52.8969C54.7756 52.8946 54.4733 52.6115 54.471 51.3943C54.464 45.6577 54.4756 39.9189 54.457 34.1823C54.457 33.5426 54.6616 33.2044 55.3126 33.1606C55.5149 33.1468 55.7126 33.0939 55.9148 33.0824C58.3585 32.9167 58.5142 33.0594 58.5142 35.4571V48.5387C58.5142 48.8516 58.5142 49.1622 58.5142 49.5994L58.5166 49.5948Z" fill="#357EFE"/>
</g>
<defs>
<clipPath id="clip0_3725_1209">
<rect width="80" height="86" fill="white" transform="translate(3)"/>
</clipPath>
</defs>
</svg>
