<svg width="408" height="64" viewBox="0 0 408 64" fill="none" xmlns="http://www.w3.org/2000/svg">
<path d="M84.5256 26H80.571L86.5966 8.54545H91.3523L97.3693 26H93.4148L89.0426 12.5341H88.9062L84.5256 26ZM84.2784 19.1392H93.6193V22.0199H84.2784V19.1392ZM99.402 26V12.9091H104.984C106.598 12.9091 107.874 13.2159 108.811 13.8295C109.749 14.4432 110.217 15.3153 110.217 16.446C110.217 17.1562 109.953 17.7472 109.425 18.2188C108.896 18.6903 108.163 19.0085 107.226 19.1733C108.01 19.2301 108.678 19.4091 109.229 19.7102C109.786 20.0057 110.209 20.3892 110.499 20.8608C110.794 21.3324 110.942 21.8551 110.942 22.429C110.942 23.1733 110.743 23.8125 110.345 24.3466C109.953 24.8807 109.376 25.2898 108.615 25.5739C107.859 25.858 106.936 26 105.845 26H99.402ZM102.786 23.2812H105.845C106.351 23.2812 106.746 23.1619 107.03 22.9233C107.32 22.679 107.464 22.3466 107.464 21.9261C107.464 21.4602 107.32 21.0937 107.03 20.8267C106.746 20.5597 106.351 20.4261 105.845 20.4261H102.786V23.2812ZM102.786 18.2955H105.061C105.425 18.2955 105.734 18.2443 105.99 18.142C106.251 18.0341 106.45 17.8807 106.587 17.6818C106.729 17.483 106.8 17.2472 106.8 16.9744C106.8 16.571 106.638 16.2557 106.314 16.0284C105.99 15.8011 105.547 15.6875 104.984 15.6875H102.786V18.2955ZM112.548 15.7642V12.9091H124.412V15.7642H120.193V26H116.733V15.7642H112.548ZM132.059 26.2557C130.735 26.2557 129.59 25.9744 128.624 25.4119C127.664 24.8437 126.923 24.054 126.4 23.0426C125.877 22.0256 125.616 20.8466 125.616 19.5057C125.616 18.1534 125.877 16.9716 126.4 15.9602C126.923 14.9432 127.664 14.1534 128.624 13.5909C129.59 13.0227 130.735 12.7386 132.059 12.7386C133.383 12.7386 134.525 13.0227 135.485 13.5909C136.451 14.1534 137.195 14.9432 137.718 15.9602C138.241 16.9716 138.502 18.1534 138.502 19.5057C138.502 20.8466 138.241 22.0256 137.718 23.0426C137.195 24.054 136.451 24.8437 135.485 25.4119C134.525 25.9744 133.383 26.2557 132.059 26.2557ZM132.076 23.4432C132.678 23.4432 133.181 23.2727 133.585 22.9318C133.988 22.5852 134.292 22.1136 134.496 21.517C134.707 20.9205 134.812 20.2415 134.812 19.4801C134.812 18.7188 134.707 18.0398 134.496 17.4432C134.292 16.8466 133.988 16.375 133.585 16.0284C133.181 15.6818 132.678 15.5085 132.076 15.5085C131.468 15.5085 130.957 15.6818 130.542 16.0284C130.133 16.375 129.823 16.8466 129.613 17.4432C129.408 18.0398 129.306 18.7188 129.306 19.4801C129.306 20.2415 129.408 20.9205 129.613 21.517C129.823 22.1136 130.133 22.5852 130.542 22.9318C130.957 23.2727 131.468 23.4432 132.076 23.4432ZM148.602 21.9858L152.147 12.9091H154.908L149.803 26H147.391L142.406 12.9091H145.158L148.602 21.9858ZM144.332 12.9091V26H140.863V12.9091H144.332ZM153.05 26V12.9091H156.477V26H153.05ZM163.018 26.2472C162.183 26.2472 161.438 26.1023 160.785 25.8125C160.131 25.517 159.614 25.0824 159.234 24.5085C158.859 23.929 158.671 23.2074 158.671 22.3438C158.671 21.6165 158.805 21.0057 159.072 20.5114C159.339 20.017 159.702 19.6193 160.163 19.3182C160.623 19.017 161.146 18.7898 161.731 18.6364C162.322 18.483 162.941 18.375 163.589 18.3125C164.35 18.233 164.964 18.1591 165.43 18.0909C165.896 18.017 166.234 17.9091 166.444 17.767C166.654 17.625 166.759 17.4148 166.759 17.1364V17.0852C166.759 16.5455 166.589 16.1278 166.248 15.8324C165.913 15.5369 165.435 15.3892 164.816 15.3892C164.163 15.3892 163.643 15.5341 163.256 15.8239C162.87 16.108 162.614 16.4659 162.489 16.8977L159.131 16.625C159.302 15.8295 159.637 15.142 160.137 14.5625C160.637 13.9773 161.282 13.5284 162.072 13.2159C162.867 12.8977 163.788 12.7386 164.833 12.7386C165.56 12.7386 166.256 12.8239 166.921 12.9943C167.592 13.1648 168.185 13.429 168.702 13.7869C169.225 14.1449 169.637 14.6051 169.938 15.1676C170.239 15.7244 170.39 16.392 170.39 17.1705V26H166.947V24.1847H166.844C166.634 24.5938 166.353 24.9545 166.001 25.267C165.648 25.5739 165.225 25.8153 164.731 25.9915C164.237 26.1619 163.665 26.2472 163.018 26.2472ZM164.058 23.7415C164.592 23.7415 165.063 23.6364 165.472 23.4261C165.881 23.2102 166.202 22.9205 166.435 22.5568C166.668 22.1932 166.785 21.7812 166.785 21.321V19.9318C166.671 20.0057 166.515 20.0739 166.316 20.1364C166.123 20.1932 165.904 20.2472 165.66 20.2983C165.415 20.3437 165.171 20.3864 164.927 20.4261C164.683 20.4602 164.461 20.4915 164.262 20.5199C163.836 20.5824 163.464 20.6818 163.146 20.8182C162.827 20.9545 162.58 21.1392 162.404 21.3722C162.228 21.5994 162.14 21.8835 162.14 22.2244C162.14 22.7188 162.319 23.0966 162.677 23.358C163.04 23.6136 163.501 23.7415 164.058 23.7415ZM171.892 15.7642V12.9091H183.756V15.7642H179.537V26H176.077V15.7642H171.892ZM189.425 21.2102L194.138 12.9091H197.718V26H194.258V17.6733L189.562 26H185.957V12.9091H189.425V21.2102ZM211.989 12.9091V26H208.546V12.9091H211.989ZM210.31 18.6534V21.517C210.032 21.642 209.685 21.7614 209.271 21.875C208.856 21.983 208.421 22.071 207.967 22.1392C207.512 22.2074 207.086 22.2415 206.688 22.2415C204.808 22.2415 203.327 21.8551 202.248 21.0824C201.168 20.304 200.629 19.0625 200.629 17.358V12.892H204.055V17.358C204.055 17.8636 204.14 18.2642 204.31 18.5597C204.487 18.8551 204.765 19.0682 205.146 19.1989C205.532 19.3239 206.046 19.3864 206.688 19.3864C207.285 19.3864 207.87 19.3239 208.444 19.1989C209.018 19.0739 209.64 18.892 210.31 18.6534ZM220.774 26.2557C219.428 26.2557 218.268 25.983 217.297 25.4375C216.331 24.8864 215.587 24.108 215.064 23.1023C214.541 22.0909 214.28 20.8949 214.28 19.5142C214.28 18.1676 214.541 16.9858 215.064 15.9688C215.587 14.9517 216.322 14.1591 217.271 13.5909C218.226 13.0227 219.345 12.7386 220.629 12.7386C221.493 12.7386 222.297 12.8778 223.041 13.1562C223.791 13.429 224.445 13.8409 225.001 14.392C225.564 14.9432 226.001 15.6364 226.314 16.4716C226.626 17.3011 226.783 18.2727 226.783 19.3864V20.3835H215.729V18.1335H223.365C223.365 17.6108 223.251 17.1477 223.024 16.7443C222.797 16.3409 222.482 16.0256 222.078 15.7983C221.68 15.5653 221.217 15.4489 220.689 15.4489C220.138 15.4489 219.649 15.5767 219.223 15.8324C218.803 16.0824 218.473 16.4205 218.234 16.8466C217.996 17.267 217.874 17.7358 217.868 18.2528V20.392C217.868 21.0398 217.987 21.5994 218.226 22.071C218.47 22.5426 218.814 22.9062 219.257 23.1619C219.7 23.4176 220.226 23.5455 220.834 23.5455C221.237 23.5455 221.607 23.4886 221.942 23.375C222.277 23.2614 222.564 23.0909 222.803 22.8636C223.041 22.6364 223.223 22.358 223.348 22.0284L226.706 22.25C226.536 23.0568 226.186 23.7614 225.658 24.3636C225.135 24.9602 224.459 25.4261 223.629 25.7614C222.805 26.0909 221.854 26.2557 220.774 26.2557ZM235.067 26.2557C233.726 26.2557 232.572 25.9716 231.607 25.4034C230.646 24.8295 229.908 24.0341 229.391 23.017C228.879 22 228.624 20.8295 228.624 19.5057C228.624 18.1648 228.882 16.9886 229.399 15.9773C229.922 14.9602 230.663 14.1676 231.624 13.5994C232.584 13.0256 233.726 12.7386 235.05 12.7386C236.192 12.7386 237.192 12.946 238.05 13.3608C238.908 13.7756 239.587 14.358 240.087 15.108C240.587 15.858 240.862 16.7386 240.913 17.75H237.487C237.391 17.0966 237.135 16.571 236.72 16.1733C236.311 15.7699 235.774 15.5682 235.109 15.5682C234.547 15.5682 234.055 15.7216 233.635 16.0284C233.22 16.3295 232.896 16.7699 232.663 17.3494C232.43 17.929 232.314 18.6307 232.314 19.4545C232.314 20.2898 232.428 21 232.655 21.5852C232.888 22.1705 233.214 22.6165 233.635 22.9233C234.055 23.2301 234.547 23.3835 235.109 23.3835C235.524 23.3835 235.896 23.2983 236.226 23.1278C236.561 22.9574 236.837 22.7102 237.053 22.3864C237.274 22.0568 237.419 21.6619 237.487 21.2017H240.913C240.857 22.2017 240.584 23.0824 240.095 23.8438C239.612 24.5994 238.945 25.1903 238.092 25.6165C237.24 26.0426 236.232 26.2557 235.067 26.2557ZM243.238 26V12.9091H246.869V17.9886H247.891L251.454 12.9091H255.715L251.087 19.4034L255.766 26H251.454L248.224 21.3551H246.869V26H243.238ZM260.769 21.2102L265.482 12.9091H269.062V26H265.602V17.6733L260.906 26H257.3V12.9091H260.769V21.2102ZM275.441 21.2102L280.154 12.9091H283.734V26H280.273V17.6733L275.577 26H271.972V12.9091H275.441V21.2102ZM279.532 8.34091H282.063C282.058 9.375 281.674 10.2074 280.913 10.8381C280.157 11.4687 279.134 11.7841 277.844 11.7841C276.549 11.7841 275.523 11.4687 274.768 10.8381C274.012 10.2074 273.634 9.375 273.634 8.34091H276.148C276.143 8.73295 276.268 9.08523 276.523 9.39773C276.785 9.71023 277.225 9.86648 277.844 9.86648C278.447 9.86648 278.879 9.71307 279.14 9.40625C279.401 9.09943 279.532 8.74432 279.532 8.34091ZM294.44 30.9091C293.98 30.9091 293.548 30.8722 293.145 30.7983C292.747 30.7301 292.418 30.642 292.156 30.5341L292.974 27.8239C293.401 27.9545 293.784 28.0256 294.125 28.0369C294.472 28.0483 294.77 27.9688 295.02 27.7983C295.276 27.6278 295.483 27.3381 295.642 26.929L295.855 26.375L291.159 12.9091H294.977L297.688 22.5227H297.824L300.56 12.9091H304.403L299.315 27.4148C299.071 28.1193 298.739 28.733 298.318 29.2557C297.903 29.7841 297.378 30.1903 296.741 30.4744C296.105 30.7642 295.338 30.9091 294.44 30.9091ZM317.271 12.9091V26H313.827V12.9091H317.271ZM315.592 18.6534V21.517C315.313 21.642 314.967 21.7614 314.552 21.875C314.137 21.983 313.702 22.071 313.248 22.1392C312.793 22.2074 312.367 22.2415 311.969 22.2415C310.089 22.2415 308.609 21.8551 307.529 21.0824C306.45 20.304 305.91 19.0625 305.91 17.358V12.892H309.336V17.358C309.336 17.8636 309.421 18.2642 309.592 18.5597C309.768 18.8551 310.046 19.0682 310.427 19.1989C310.813 19.3239 311.327 19.3864 311.969 19.3864C312.566 19.3864 313.151 19.3239 313.725 19.1989C314.299 19.0739 314.921 18.892 315.592 18.6534ZM326.055 26.2557C324.709 26.2557 323.55 25.983 322.578 25.4375C321.612 24.8864 320.868 24.108 320.345 23.1023C319.822 22.0909 319.561 20.8949 319.561 19.5142C319.561 18.1676 319.822 16.9858 320.345 15.9688C320.868 14.9517 321.604 14.1591 322.553 13.5909C323.507 13.0227 324.626 12.7386 325.911 12.7386C326.774 12.7386 327.578 12.8778 328.322 13.1562C329.072 13.429 329.726 13.8409 330.283 14.392C330.845 14.9432 331.283 15.6364 331.595 16.4716C331.908 17.3011 332.064 18.2727 332.064 19.3864V20.3835H321.01V18.1335H328.646C328.646 17.6108 328.533 17.1477 328.305 16.7443C328.078 16.3409 327.763 16.0256 327.359 15.7983C326.962 15.5653 326.499 15.4489 325.97 15.4489C325.419 15.4489 324.93 15.5767 324.504 15.8324C324.084 16.0824 323.754 16.4205 323.516 16.8466C323.277 17.267 323.155 17.7358 323.149 18.2528V20.392C323.149 21.0398 323.268 21.5994 323.507 22.071C323.751 22.5426 324.095 22.9062 324.538 23.1619C324.982 23.4176 325.507 23.5455 326.115 23.5455C326.518 23.5455 326.888 23.4886 327.223 23.375C327.558 23.2614 327.845 23.0909 328.084 22.8636C328.322 22.6364 328.504 22.358 328.629 22.0284L331.987 22.25C331.817 23.0568 331.467 23.7614 330.939 24.3636C330.416 24.9602 329.74 25.4261 328.911 25.7614C328.087 26.0909 327.135 26.2557 326.055 26.2557ZM323.226 11.1193C322.737 11.1193 322.317 10.9489 321.964 10.608C321.612 10.2614 321.436 9.85227 321.436 9.38068C321.436 8.89773 321.612 8.48864 321.964 8.15341C322.317 7.81818 322.737 7.65057 323.226 7.65057C323.72 7.65057 324.138 7.81818 324.479 8.15341C324.825 8.48864 324.999 8.89773 324.999 9.38068C324.999 9.85227 324.825 10.2614 324.479 10.608C324.138 10.9489 323.72 11.1193 323.226 11.1193ZM328.442 11.1193C327.953 11.1193 327.533 10.9489 327.18 10.608C326.828 10.2614 326.652 9.85227 326.652 9.38068C326.652 8.89773 326.828 8.48864 327.18 8.15341C327.533 7.81818 327.953 7.65057 328.442 7.65057C328.936 7.65057 329.354 7.81818 329.695 8.15341C330.041 8.48864 330.214 8.89773 330.214 9.38068C330.214 9.85227 330.041 10.2614 329.695 10.608C329.354 10.9489 328.936 11.1193 328.442 11.1193ZM333.423 15.7642V12.9091H345.287V15.7642H341.068V26H337.608V15.7642H333.423ZM80.4261 58.8352V52.1193H81.4318C81.7216 51.9375 81.9545 51.6477 82.1307 51.25C82.3125 50.8523 82.4602 50.3835 82.5739 49.8438C82.6932 49.304 82.7841 48.7216 82.8466 48.0966C82.9148 47.4659 82.9744 46.8295 83.0256 46.1875L83.3665 41.9091H93.4062V52.1193H95.4347V58.8352H91.9744V55H83.9716V58.8352H80.4261ZM85.0455 52.1193H89.9801V44.7045H86.4517L86.3153 46.1875C86.2188 47.5852 86.0795 48.7727 85.8977 49.75C85.7159 50.7216 85.4318 51.5114 85.0455 52.1193ZM103.465 55.2557C102.141 55.2557 100.996 54.9744 100.031 54.4119C99.0703 53.8437 98.3288 53.054 97.8061 52.0426C97.2834 51.0256 97.022 49.8466 97.022 48.5057C97.022 47.1534 97.2834 45.9716 97.8061 44.9602C98.3288 43.9432 99.0703 43.1534 100.031 42.5909C100.996 42.0227 102.141 41.7386 103.465 41.7386C104.789 41.7386 105.931 42.0227 106.891 42.5909C107.857 43.1534 108.602 43.9432 109.124 44.9602C109.647 45.9716 109.908 47.1534 109.908 48.5057C109.908 49.8466 109.647 51.0256 109.124 52.0426C108.602 53.054 107.857 53.8437 106.891 54.4119C105.931 54.9744 104.789 55.2557 103.465 55.2557ZM103.482 52.4432C104.085 52.4432 104.587 52.2727 104.991 51.9318C105.394 51.5852 105.698 51.1136 105.903 50.517C106.113 49.9205 106.218 49.2415 106.218 48.4801C106.218 47.7188 106.113 47.0398 105.903 46.4432C105.698 45.8466 105.394 45.375 104.991 45.0284C104.587 44.6818 104.085 44.5085 103.482 44.5085C102.874 44.5085 102.363 44.6818 101.948 45.0284C101.539 45.375 101.229 45.8466 101.019 46.4432C100.815 47.0398 100.712 47.7188 100.712 48.4801C100.712 49.2415 100.815 49.9205 101.019 50.517C101.229 51.1136 101.539 51.5852 101.948 51.9318C102.363 52.2727 102.874 52.4432 103.482 52.4432ZM114.835 41.9091L117.238 46.4858L119.701 41.9091H123.425L119.633 48.4545L123.528 55H119.82L117.238 50.4744L114.698 55H110.948L114.835 48.4545L111.085 41.9091H114.835ZM131.028 55.2557C129.704 55.2557 128.559 54.9744 127.593 54.4119C126.633 53.8437 125.891 53.054 125.369 52.0426C124.846 51.0256 124.585 49.8466 124.585 48.5057C124.585 47.1534 124.846 45.9716 125.369 44.9602C125.891 43.9432 126.633 43.1534 127.593 42.5909C128.559 42.0227 129.704 41.7386 131.028 41.7386C132.352 41.7386 133.494 42.0227 134.454 42.5909C135.42 43.1534 136.164 43.9432 136.687 44.9602C137.21 45.9716 137.471 47.1534 137.471 48.5057C137.471 49.8466 137.21 51.0256 136.687 52.0426C136.164 53.054 135.42 53.8437 134.454 54.4119C133.494 54.9744 132.352 55.2557 131.028 55.2557ZM131.045 52.4432C131.647 52.4432 132.15 52.2727 132.553 51.9318C132.957 51.5852 133.261 51.1136 133.465 50.517C133.675 49.9205 133.781 49.2415 133.781 48.4801C133.781 47.7188 133.675 47.0398 133.465 46.4432C133.261 45.8466 132.957 45.375 132.553 45.0284C132.15 44.6818 131.647 44.5085 131.045 44.5085C130.437 44.5085 129.925 44.6818 129.511 45.0284C129.102 45.375 128.792 45.8466 128.582 46.4432C128.377 47.0398 128.275 47.7188 128.275 48.4801C128.275 49.2415 128.377 49.9205 128.582 50.517C128.792 51.1136 129.102 51.5852 129.511 51.9318C129.925 52.2727 130.437 52.4432 131.045 52.4432ZM138.809 58.8352V52.1193H139.815C140.104 51.9375 140.337 51.6477 140.513 51.25C140.695 50.8523 140.843 50.3835 140.957 49.8438C141.076 49.304 141.167 48.7216 141.229 48.0966C141.298 47.4659 141.357 46.8295 141.408 46.1875L141.749 41.9091H151.789V52.1193H153.817V58.8352H150.357V55H142.354V58.8352H138.809ZM143.428 52.1193H148.363V44.7045H144.835L144.698 46.1875C144.602 47.5852 144.462 48.7727 144.281 49.75C144.099 50.7216 143.815 51.5114 143.428 52.1193ZM161.848 55.2557C160.524 55.2557 159.379 54.9744 158.413 54.4119C157.453 53.8437 156.712 53.054 156.189 52.0426C155.666 51.0256 155.405 49.8466 155.405 48.5057C155.405 47.1534 155.666 45.9716 156.189 44.9602C156.712 43.9432 157.453 43.1534 158.413 42.5909C159.379 42.0227 160.524 41.7386 161.848 41.7386C163.172 41.7386 164.314 42.0227 165.274 42.5909C166.24 43.1534 166.984 43.9432 167.507 44.9602C168.03 45.9716 168.291 47.1534 168.291 48.5057C168.291 49.8466 168.03 51.0256 167.507 52.0426C166.984 53.054 166.24 53.8437 165.274 54.4119C164.314 54.9744 163.172 55.2557 161.848 55.2557ZM161.865 52.4432C162.467 52.4432 162.97 52.2727 163.374 51.9318C163.777 51.5852 164.081 51.1136 164.286 50.517C164.496 49.9205 164.601 49.2415 164.601 48.4801C164.601 47.7188 164.496 47.0398 164.286 46.4432C164.081 45.8466 163.777 45.375 163.374 45.0284C162.97 44.6818 162.467 44.5085 161.865 44.5085C161.257 44.5085 160.746 44.6818 160.331 45.0284C159.922 45.375 159.612 45.8466 159.402 46.4432C159.197 47.0398 159.095 47.7188 159.095 48.4801C159.095 49.2415 159.197 49.9205 159.402 50.517C159.612 51.1136 159.922 51.5852 160.331 51.9318C160.746 52.2727 161.257 52.4432 161.865 52.4432ZM170.652 55V41.9091H176.234C177.848 41.9091 179.124 42.2159 180.061 42.8295C180.999 43.4432 181.467 44.3153 181.467 45.446C181.467 46.1562 181.203 46.7472 180.675 47.2188C180.146 47.6903 179.413 48.0085 178.476 48.1733C179.26 48.2301 179.928 48.4091 180.479 48.7102C181.036 49.0057 181.459 49.3892 181.749 49.8608C182.044 50.3324 182.192 50.8551 182.192 51.429C182.192 52.1733 181.993 52.8125 181.595 53.3466C181.203 53.8807 180.626 54.2898 179.865 54.5739C179.109 54.858 178.186 55 177.095 55H170.652ZM174.036 52.2812H177.095C177.601 52.2812 177.996 52.1619 178.28 51.9233C178.57 51.679 178.714 51.3466 178.714 50.9261C178.714 50.4602 178.57 50.0937 178.28 49.8267C177.996 49.5597 177.601 49.4261 177.095 49.4261H174.036V52.2812ZM174.036 47.2955H176.311C176.675 47.2955 176.984 47.2443 177.24 47.142C177.501 47.0341 177.7 46.8807 177.837 46.6818C177.979 46.483 178.05 46.2472 178.05 45.9744C178.05 45.571 177.888 45.2557 177.564 45.0284C177.24 44.8011 176.797 44.6875 176.234 44.6875H174.036V47.2955ZM194.032 55L189.038 37.5455H193.069L195.958 49.6733H196.103L199.29 37.5455H202.742L205.921 49.6989H206.075L208.964 37.5455H212.995L208.001 55H204.404L201.08 43.5881H200.944L197.629 55H194.032ZM214.902 55V41.9091H218.533V55H214.902ZM216.726 40.2216C216.186 40.2216 215.723 40.0426 215.337 39.6847C214.956 39.321 214.766 38.8864 214.766 38.3807C214.766 37.8807 214.956 37.4517 215.337 37.0938C215.723 36.7301 216.186 36.5483 216.726 36.5483C217.266 36.5483 217.726 36.7301 218.107 37.0938C218.493 37.4517 218.686 37.8807 218.686 38.3807C218.686 38.8864 218.493 39.321 218.107 39.6847C217.726 40.0426 217.266 40.2216 216.726 40.2216ZM225.072 37.5455V55H221.441V37.5455H225.072ZM232.804 55.2131C231.81 55.2131 230.909 54.9574 230.102 54.446C229.301 53.929 228.665 53.1705 228.193 52.1705C227.727 51.1648 227.494 49.9318 227.494 48.4716C227.494 46.9716 227.736 45.7244 228.219 44.7301C228.702 43.7301 229.344 42.983 230.145 42.4886C230.952 41.9886 231.835 41.7386 232.795 41.7386C233.528 41.7386 234.139 41.8636 234.628 42.1136C235.122 42.358 235.52 42.6648 235.821 43.0341C236.128 43.3977 236.361 43.7557 236.52 44.108H236.631V37.5455H240.253V55H236.673V52.9034H236.52C236.349 53.267 236.108 53.6278 235.795 53.9858C235.489 54.3381 235.088 54.6307 234.594 54.8636C234.105 55.0966 233.509 55.2131 232.804 55.2131ZM233.955 52.3239C234.54 52.3239 235.034 52.1648 235.438 51.8466C235.847 51.5227 236.159 51.071 236.375 50.4915C236.597 49.9119 236.707 49.233 236.707 48.4545C236.707 47.6761 236.599 47 236.384 46.4261C236.168 45.8523 235.855 45.4091 235.446 45.0966C235.037 44.7841 234.54 44.6278 233.955 44.6278C233.358 44.6278 232.855 44.7898 232.446 45.1136C232.037 45.4375 231.727 45.8864 231.517 46.4602C231.307 47.0341 231.202 47.6989 231.202 48.4545C231.202 49.2159 231.307 49.8892 231.517 50.4744C231.733 51.054 232.043 51.5085 232.446 51.8381C232.855 52.1619 233.358 52.3239 233.955 52.3239ZM243.306 55V37.5455H246.937V44.108H247.048C247.207 43.7557 247.437 43.3977 247.738 43.0341C248.045 42.6648 248.442 42.358 248.931 42.1136C249.425 41.8636 250.039 41.7386 250.772 41.7386C251.727 41.7386 252.607 41.9886 253.414 42.4886C254.221 42.983 254.866 43.7301 255.349 44.7301C255.832 45.7244 256.073 46.9716 256.073 48.4716C256.073 49.9318 255.837 51.1648 255.366 52.1705C254.9 53.1705 254.263 53.929 253.457 54.446C252.656 54.9574 251.758 55.2131 250.763 55.2131C250.059 55.2131 249.46 55.0966 248.965 54.8636C248.477 54.6307 248.076 54.3381 247.763 53.9858C247.451 53.6278 247.212 53.267 247.048 52.9034H246.886V55H243.306ZM246.86 48.4545C246.86 49.233 246.968 49.9119 247.184 50.4915C247.4 51.071 247.712 51.5227 248.121 51.8466C248.531 52.1648 249.028 52.3239 249.613 52.3239C250.204 52.3239 250.704 52.1619 251.113 51.8381C251.522 51.5085 251.832 51.054 252.042 50.4744C252.258 49.8892 252.366 49.2159 252.366 48.4545C252.366 47.6989 252.261 47.0341 252.05 46.4602C251.84 45.8864 251.531 45.4375 251.121 45.1136C250.712 44.7898 250.21 44.6278 249.613 44.6278C249.022 44.6278 248.522 44.7841 248.113 45.0966C247.71 45.4091 247.4 45.8523 247.184 46.4261C246.968 47 246.86 47.6761 246.86 48.4545ZM264.462 55.2557C263.115 55.2557 261.956 54.983 260.984 54.4375C260.018 53.8864 259.274 53.108 258.751 52.1023C258.229 51.0909 257.967 49.8949 257.967 48.5142C257.967 47.1676 258.229 45.9858 258.751 44.9688C259.274 43.9517 260.01 43.1591 260.959 42.5909C261.913 42.0227 263.033 41.7386 264.317 41.7386C265.18 41.7386 265.984 41.8778 266.729 42.1562C267.479 42.429 268.132 42.8409 268.689 43.392C269.251 43.9432 269.689 44.6364 270.001 45.4716C270.314 46.3011 270.47 47.2727 270.47 48.3864V49.3835H259.416V47.1335H267.053C267.053 46.6108 266.939 46.1477 266.712 45.7443C266.484 45.3409 266.169 45.0256 265.766 44.7983C265.368 44.5653 264.905 44.4489 264.376 44.4489C263.825 44.4489 263.337 44.5767 262.911 44.8324C262.49 45.0824 262.161 45.4205 261.922 45.8466C261.683 46.267 261.561 46.7358 261.555 47.2528V49.392C261.555 50.0398 261.675 50.5994 261.913 51.071C262.158 51.5426 262.501 51.9062 262.945 52.1619C263.388 52.4176 263.913 52.5455 264.521 52.5455C264.925 52.5455 265.294 52.4886 265.629 52.375C265.964 52.2614 266.251 52.0909 266.49 51.8636C266.729 51.6364 266.911 51.358 267.036 51.0284L270.393 51.25C270.223 52.0568 269.874 52.7614 269.345 53.3636C268.822 53.9602 268.146 54.4261 267.317 54.7614C266.493 55.0909 265.541 55.2557 264.462 55.2557ZM272.839 55V41.9091H276.359V44.1932H276.496C276.734 43.3807 277.135 42.767 277.697 42.3523C278.26 41.9318 278.908 41.7216 279.641 41.7216C279.822 41.7216 280.018 41.733 280.229 41.7557C280.439 41.7784 280.624 41.8097 280.783 41.8494V45.071C280.612 45.0199 280.376 44.9744 280.075 44.9347C279.774 44.8949 279.499 44.875 279.249 44.875C278.714 44.875 278.237 44.9915 277.817 45.2244C277.402 45.4517 277.072 45.7699 276.828 46.179C276.589 46.5881 276.47 47.0597 276.47 47.5938V55H272.839ZM282.66 55V41.9091H286.18V44.1932H286.316C286.555 43.3807 286.955 42.767 287.518 42.3523C288.08 41.9318 288.728 41.7216 289.461 41.7216C289.643 41.7216 289.839 41.733 290.049 41.7557C290.259 41.7784 290.444 41.8097 290.603 41.8494V45.071C290.433 45.0199 290.197 44.9744 289.896 44.9347C289.594 44.8949 289.319 44.875 289.069 44.875C288.535 44.875 288.058 44.9915 287.637 45.2244C287.222 45.4517 286.893 45.7699 286.648 46.179C286.41 46.5881 286.29 47.0597 286.29 47.5938V55H282.66ZM292.48 55V41.9091H296.111V55H292.48ZM294.304 40.2216C293.764 40.2216 293.301 40.0426 292.915 39.6847C292.534 39.321 292.344 38.8864 292.344 38.3807C292.344 37.8807 292.534 37.4517 292.915 37.0938C293.301 36.7301 293.764 36.5483 294.304 36.5483C294.844 36.5483 295.304 36.7301 295.685 37.0938C296.071 37.4517 296.264 37.8807 296.264 38.3807C296.264 38.8864 296.071 39.321 295.685 39.6847C295.304 40.0426 294.844 40.2216 294.304 40.2216ZM304.985 55.2557C303.638 55.2557 302.479 54.983 301.508 54.4375C300.542 53.8864 299.798 53.108 299.275 52.1023C298.752 51.0909 298.491 49.8949 298.491 48.5142C298.491 47.1676 298.752 45.9858 299.275 44.9688C299.798 43.9517 300.533 43.1591 301.482 42.5909C302.437 42.0227 303.556 41.7386 304.84 41.7386C305.704 41.7386 306.508 41.8778 307.252 42.1562C308.002 42.429 308.656 42.8409 309.212 43.392C309.775 43.9432 310.212 44.6364 310.525 45.4716C310.837 46.3011 310.994 47.2727 310.994 48.3864V49.3835H299.94V47.1335H307.576C307.576 46.6108 307.462 46.1477 307.235 45.7443C307.008 45.3409 306.692 45.0256 306.289 44.7983C305.891 44.5653 305.428 44.4489 304.9 44.4489C304.349 44.4489 303.86 44.5767 303.434 44.8324C303.013 45.0824 302.684 45.4205 302.445 45.8466C302.207 46.267 302.085 46.7358 302.079 47.2528V49.392C302.079 50.0398 302.198 50.5994 302.437 51.071C302.681 51.5426 303.025 51.9062 303.468 52.1619C303.911 52.4176 304.437 52.5455 305.045 52.5455C305.448 52.5455 305.817 52.4886 306.153 52.375C306.488 52.2614 306.775 52.0909 307.013 51.8636C307.252 51.6364 307.434 51.358 307.559 51.0284L310.917 51.25C310.746 52.0568 310.397 52.7614 309.869 53.3636C309.346 53.9602 308.67 54.4261 307.84 54.7614C307.016 55.0909 306.065 55.2557 304.985 55.2557ZM324.255 45.642L320.931 45.8466C320.874 45.5625 320.752 45.3068 320.565 45.0795C320.377 44.8466 320.13 44.6619 319.823 44.5256C319.522 44.3835 319.161 44.3125 318.741 44.3125C318.178 44.3125 317.704 44.4318 317.317 44.6705C316.931 44.9034 316.738 45.2159 316.738 45.608C316.738 45.9205 316.863 46.1847 317.113 46.4006C317.363 46.6165 317.792 46.7898 318.4 46.9205L320.769 47.3977C322.042 47.6591 322.991 48.0795 323.616 48.6591C324.241 49.2386 324.553 50 324.553 50.9432C324.553 51.8011 324.3 52.554 323.795 53.2017C323.295 53.8494 322.607 54.3551 321.732 54.7188C320.863 55.0767 319.86 55.2557 318.724 55.2557C316.991 55.2557 315.61 54.8949 314.582 54.1733C313.559 53.446 312.96 52.4574 312.783 51.2074L316.354 51.0199C316.462 51.5483 316.724 51.9517 317.138 52.2301C317.553 52.5028 318.085 52.6392 318.732 52.6392C319.369 52.6392 319.88 52.517 320.266 52.2727C320.658 52.0227 320.857 51.7017 320.863 51.3097C320.857 50.9801 320.718 50.7102 320.445 50.5C320.173 50.2841 319.752 50.1193 319.184 50.0057L316.917 49.554C315.638 49.2983 314.687 48.8551 314.062 48.2244C313.442 47.5937 313.133 46.7898 313.133 45.8125C313.133 44.9716 313.36 44.2472 313.815 43.6392C314.275 43.0312 314.92 42.5625 315.749 42.233C316.585 41.9034 317.562 41.7386 318.681 41.7386C320.335 41.7386 321.636 42.0881 322.585 42.7869C323.539 43.4858 324.096 44.4375 324.255 45.642Z" fill="black"/>
<g clip-path="url(#clip0_1_1035)">
<path d="M40.6422 30.961C40.8691 30.864 41.0463 30.724 41.1739 30.54C41.3014 30.3571 41.3658 30.1358 41.3658 29.8762C41.3658 29.5059 41.2348 29.2147 40.9718 29.0024C40.7088 28.7902 40.3554 28.6841 39.9084 28.6841H38.3867V31.1067H39.8655C40.1568 31.1067 40.4164 31.0581 40.6422 30.961Z" fill="#357EFE"/>
<path d="M40.9662 32.9976C40.7212 32.8847 40.4288 32.8271 40.0868 32.8271H38.3878V35.4597H40.0383C40.6174 35.4597 41.0441 35.3502 41.3195 35.1301C41.595 34.9111 41.7327 34.6051 41.7327 34.2134C41.7327 33.9289 41.6661 33.684 41.5329 33.4774C41.3997 33.2708 41.2112 33.1105 40.9662 32.9976Z" fill="#357EFE"/>
<path d="M31.9994 0C14.3267 0 0 14.3267 0 31.9994C0 49.6722 14.3267 63.9989 31.9994 63.9989C49.6722 63.9989 63.9989 49.6722 63.9989 31.9994C63.9989 14.3267 49.6733 0 31.9994 0ZM23.6841 33.8034L25.5885 26.5627H27.9953L29.8997 33.8192H29.9911L31.6642 26.5627H34.6094L31.3989 37.6123H28.825L26.8336 30.9112H26.7467L24.7554 37.6123H22.1871L18.9709 26.5627H21.9219L23.5892 33.8034H23.6807H23.6841ZM36.7069 55.2466C35.7519 55.3674 34.7946 55.4871 33.8373 55.6101C33.6566 55.6327 33.476 55.6643 33.2954 55.6914H30.6109C29.9268 55.6045 29.2404 55.5266 28.5575 55.4284C24.4404 54.838 20.7298 53.2665 17.4594 50.7062C13.1888 47.3625 10.2955 43.067 9.039 37.7816C7.18424 29.9821 8.8279 22.9356 13.9011 16.7098C14.3086 16.2097 14.7602 15.7446 15.2355 15.2129C14.4983 14.4802 13.7611 13.7465 13.0161 13.0059C12.1615 12.157 12.7632 10.6973 13.9677 10.6973H21.1203C21.8665 10.6973 22.4705 11.3013 22.4705 12.0475V19.0534C22.4705 20.2579 21.0131 20.8596 20.1631 20.0061L18.7045 18.5408C13.9948 22.9085 11.281 31.1392 14.4181 39.1001C17.5215 46.9741 26.4532 52.868 36.708 50.363V55.2444L36.7069 55.2466ZM35.7157 37.6134V26.5638H40.3239C41.1513 26.5638 41.8445 26.6812 42.4044 26.9149C42.9632 27.1486 43.3843 27.476 43.6665 27.8971C43.9487 28.3181 44.0898 28.8058 44.0898 29.359C44.0898 29.78 44.0018 30.1548 43.8257 30.4833C43.6496 30.813 43.4068 31.085 43.0975 31.3007C42.7882 31.5163 42.4304 31.6675 42.024 31.7533V31.8617C42.4699 31.8832 42.883 32.004 43.2623 32.223C43.6417 32.442 43.9464 32.7468 44.1767 33.1374C44.407 33.528 44.5222 33.9885 44.5222 34.5214C44.5222 35.1152 44.3709 35.6446 44.0684 36.1108C43.7658 36.5771 43.3289 36.944 42.7577 37.2115C42.1854 37.4791 41.4911 37.6134 40.6749 37.6134H35.7169H35.7157ZM55.3392 36.0228C54.5478 40.6806 52.5203 44.7288 49.312 48.1911C49.1653 48.3491 49.0163 48.506 48.8707 48.6652C48.8515 48.6866 48.8458 48.7205 48.8074 48.8097C49.5175 49.5175 50.231 50.2298 50.9557 50.9512C51.8283 51.8216 51.2131 53.314 49.9804 53.314H42.9192C42.156 53.314 41.5363 52.6953 41.5363 51.9311V44.967C41.5363 43.7353 43.0253 43.119 43.8956 43.9893L45.3327 45.4242C50.3066 40.7302 52.6355 32.4566 49.5581 24.7983C46.4323 17.018 37.5479 11.1252 27.2908 13.6099V8.67211C28.7347 8.54455 30.1864 8.29732 31.6359 8.30748C40.6309 8.3707 47.5499 12.2529 52.3352 19.8504C54.313 22.9909 55.3482 26.4837 55.618 30.1943C55.6282 30.3298 55.6711 30.4641 55.6982 30.5985V33.3767C55.5796 34.2583 55.4882 35.1456 55.3392 36.0228Z" fill="#357EFE"/>
</g>
<defs>
<clipPath id="clip0_1_1035">
<rect width="64" height="64" fill="white"/>
</clipPath>
</defs>
</svg>
