<svg width="729" height="446" viewBox="0 0 729 446" fill="none" xmlns="http://www.w3.org/2000/svg">
<mask id="mask0_3725_968" style="mask-type:alpha" maskUnits="userSpaceOnUse" x="0" y="0" width="729" height="446">
<rect width="729" height="445.5" rx="8.52632" fill="white"/>
</mask>
<g mask="url(#mask0_3725_968)">
<path d="M60.7395 37.0527V23.1006H70.2703V25.8392H64.1118V28.0193H65.9512C67.0866 28.0193 68.0744 28.2032 68.9146 28.5711C69.7594 28.939 70.4111 29.4567 70.8698 30.1243C71.3331 30.792 71.5647 31.5777 71.5647 32.4815C71.5647 33.3853 71.3331 34.1801 70.8698 34.8659C70.4111 35.5517 69.7594 36.0876 68.9146 36.4737C68.0744 36.8597 67.0866 37.0527 65.9512 37.0527H60.7395ZM64.1118 34.3822H65.9512C66.4417 34.3822 66.855 34.2982 67.1911 34.1301C67.5317 33.9576 67.7883 33.7259 67.9609 33.4353C68.138 33.14 68.2266 32.813 68.2266 32.4542C68.2266 31.9365 68.0313 31.505 67.6407 31.1599C67.2501 30.8101 66.6869 30.6353 65.9512 30.6353H64.1118V34.3822ZM76.1291 37.2299C75.4615 37.2299 74.8688 37.1186 74.3511 36.896C73.8379 36.669 73.4314 36.3283 73.1316 35.8742C72.8364 35.4154 72.6888 34.8409 72.6888 34.1506C72.6888 33.5692 72.791 33.0787 72.9954 32.6791C73.1997 32.2794 73.4813 31.9547 73.8401 31.7049C74.1989 31.4551 74.6122 31.2666 75.08 31.1394C75.5478 31.0077 76.0474 30.9191 76.5788 30.8737C77.1737 30.8192 77.6529 30.7625 78.0162 30.7034C78.3796 30.6398 78.643 30.5513 78.8065 30.4377C78.9745 30.3196 79.0586 30.1539 79.0586 29.9404V29.9063C79.0586 29.5566 78.9382 29.2864 78.6975 29.0956C78.4568 28.9049 78.132 28.8095 77.7233 28.8095C77.2827 28.8095 76.9285 28.9049 76.6605 29.0956C76.3926 29.2864 76.2223 29.5498 76.1496 29.8859L73.0771 29.7769C73.1679 29.1411 73.4018 28.5733 73.7788 28.0738C74.1603 27.5696 74.6826 27.1745 75.3457 26.8884C76.0133 26.5977 76.8149 26.4524 77.7505 26.4524C78.4182 26.4524 79.0336 26.5318 79.5967 26.6908C80.1599 26.8452 80.6504 27.0723 81.0683 27.3721C81.4861 27.6673 81.8086 28.0306 82.0357 28.4621C82.2673 28.8935 82.3831 29.3863 82.3831 29.9404V37.0527H79.2493V35.5948H79.1676C78.9813 35.9491 78.7429 36.2489 78.4522 36.4941C78.1661 36.7394 77.8278 36.9233 77.4372 37.0459C77.0511 37.1685 76.6151 37.2299 76.1291 37.2299ZM77.1578 35.0498C77.5166 35.0498 77.8391 34.9772 78.1252 34.8318C78.4159 34.6865 78.6475 34.4867 78.8201 34.2323C78.9927 33.9735 79.079 33.6737 79.079 33.3331V32.3384C78.9836 32.3884 78.8678 32.4338 78.7316 32.4747C78.5998 32.5156 78.4545 32.5542 78.2955 32.5905C78.1366 32.6268 77.9731 32.6586 77.805 32.6859C77.637 32.7131 77.4758 32.7381 77.3213 32.7608C77.008 32.8108 76.74 32.888 76.5175 32.9924C76.2995 33.0969 76.1314 33.2332 76.0133 33.4012C75.8998 33.5647 75.843 33.76 75.843 33.9871C75.843 34.3322 75.9656 34.5957 76.2109 34.7773C76.4607 34.959 76.7763 35.0498 77.1578 35.0498ZM83.9091 37.0527L83.8887 34.4844H84.2225C84.4496 34.4844 84.6471 34.4254 84.8152 34.3073C84.9832 34.1892 85.124 34.0007 85.2376 33.7418C85.3511 33.4784 85.4419 33.14 85.5101 32.7267C85.5782 32.3135 85.6213 31.8116 85.6395 31.2212L85.8098 26.5886H94.0939V37.0527H90.9397V29.1365H88.7733L88.6098 32.1477C88.5689 33.0333 88.4531 33.7895 88.2623 34.4163C88.0761 35.0385 87.8218 35.5426 87.4993 35.9287C87.1814 36.3147 86.8045 36.5986 86.3684 36.7802C85.9324 36.9619 85.4397 37.0527 84.8901 37.0527H83.9091ZM99.079 37.2299C98.4114 37.2299 97.8187 37.1186 97.3009 36.896C96.7877 36.669 96.3812 36.3283 96.0815 35.8742C95.7863 35.4154 95.6387 34.8409 95.6387 34.1506C95.6387 33.5692 95.7408 33.0787 95.9452 32.6791C96.1496 32.2794 96.4312 31.9547 96.79 31.7049C97.1488 31.4551 97.5621 31.2666 98.0299 31.1394C98.4977 31.0077 98.9973 30.9191 99.5286 30.8737C100.124 30.8192 100.603 30.7625 100.966 30.7034C101.329 30.6398 101.593 30.5513 101.756 30.4377C101.924 30.3196 102.008 30.1539 102.008 29.9404V29.9063C102.008 29.5566 101.888 29.2864 101.647 29.0956C101.407 28.9049 101.082 28.8095 100.673 28.8095C100.233 28.8095 99.8784 28.9049 99.6104 29.0956C99.3424 29.2864 99.1721 29.5498 99.0994 29.8859L96.027 29.7769C96.1178 29.1411 96.3517 28.5733 96.7287 28.0738C97.1102 27.5696 97.6325 27.1745 98.2956 26.8884C98.9632 26.5977 99.7648 26.4524 100.7 26.4524C101.368 26.4524 101.983 26.5318 102.547 26.6908C103.11 26.8452 103.6 27.0723 104.018 27.3721C104.436 27.6673 104.758 28.0306 104.986 28.4621C105.217 28.8935 105.333 29.3863 105.333 29.9404V37.0527H102.199V35.5948H102.117C101.931 35.9491 101.693 36.2489 101.402 36.4941C101.116 36.7394 100.778 36.9233 100.387 37.0459C100.001 37.1685 99.565 37.2299 99.079 37.2299ZM100.108 35.0498C100.467 35.0498 100.789 34.9772 101.075 34.8318C101.366 34.6865 101.597 34.4867 101.77 34.2323C101.943 33.9735 102.029 33.6737 102.029 33.3331V32.3384C101.933 32.3884 101.818 32.4338 101.681 32.4747C101.55 32.5156 101.404 32.5542 101.245 32.5905C101.086 32.6268 100.923 32.6586 100.755 32.6859C100.587 32.7131 100.426 32.7381 100.271 32.7608C99.9578 32.8108 99.6899 32.888 99.4673 32.9924C99.2493 33.0969 99.0813 33.2332 98.9632 33.4012C98.8497 33.5647 98.7929 33.76 98.7929 33.9871C98.7929 34.3322 98.9155 34.5957 99.1608 34.7773C99.4106 34.959 99.7262 35.0498 100.108 35.0498ZM114.748 30.5195V33.0606H109.38V30.5195H114.748ZM110.524 26.5886V37.0527H107.37V26.5886H110.524ZM116.758 26.5886V37.0527H113.624V26.5886H116.758ZM123.664 37.2503C122.56 37.2503 121.613 37.0232 120.823 36.569C120.037 36.1149 119.433 35.4836 119.011 34.6751C118.589 33.8622 118.377 32.922 118.377 31.8547C118.377 30.7829 118.589 29.8428 119.011 29.0343C119.438 28.2214 120.044 27.5878 120.83 27.1336C121.62 26.6795 122.563 26.4524 123.657 26.4524C124.624 26.4524 125.467 26.6272 126.185 26.9769C126.907 27.3266 127.47 27.8217 127.874 28.4621C128.283 29.0979 128.499 29.845 128.521 30.7034H125.408C125.344 30.1675 125.163 29.7474 124.863 29.4431C124.568 29.1388 124.182 28.9866 123.705 28.9866C123.319 28.9866 122.98 29.0956 122.69 29.3136C122.399 29.5271 122.172 29.845 122.008 30.2674C121.849 30.6852 121.77 31.203 121.77 31.8207C121.77 32.4384 121.849 32.9606 122.008 33.3876C122.172 33.8099 122.399 34.1301 122.69 34.3481C122.98 34.5616 123.319 34.6683 123.705 34.6683C124.014 34.6683 124.286 34.6025 124.522 34.4708C124.763 34.3391 124.961 34.146 125.115 33.8917C125.269 33.6328 125.367 33.3194 125.408 32.9516H128.521C128.489 33.8145 128.274 34.5684 127.874 35.2133C127.479 35.8583 126.923 36.3601 126.205 36.7189C125.492 37.0732 124.645 37.2503 123.664 37.2503ZM141.726 30.5195V33.0606H136.357V30.5195H141.726ZM137.502 26.5886V37.0527H134.348V26.5886H137.502ZM143.735 26.5886V37.0527H140.602V26.5886H143.735ZM148.707 37.2299C148.039 37.2299 147.447 37.1186 146.929 36.896C146.416 36.669 146.009 36.3283 145.709 35.8742C145.414 35.4154 145.267 34.8409 145.267 34.1506C145.267 33.5692 145.369 33.0787 145.573 32.6791C145.778 32.2794 146.059 31.9547 146.418 31.7049C146.777 31.4551 147.19 31.2666 147.658 31.1394C148.126 31.0077 148.625 30.9191 149.157 30.8737C149.752 30.8192 150.231 30.7625 150.594 30.7034C150.957 30.6398 151.221 30.5513 151.384 30.4377C151.552 30.3196 151.636 30.1539 151.636 29.9404V29.9063C151.636 29.5566 151.516 29.2864 151.275 29.0956C151.035 28.9049 150.71 28.8095 150.301 28.8095C149.861 28.8095 149.506 28.9049 149.238 29.0956C148.97 29.2864 148.8 29.5498 148.727 29.8859L145.655 29.7769C145.746 29.1411 145.98 28.5733 146.357 28.0738C146.738 27.5696 147.26 27.1745 147.923 26.8884C148.591 26.5977 149.393 26.4524 150.328 26.4524C150.996 26.4524 151.611 26.5318 152.175 26.6908C152.738 26.8452 153.228 27.0723 153.646 27.3721C154.064 27.6673 154.386 28.0306 154.613 28.4621C154.845 28.8935 154.961 29.3863 154.961 29.9404V37.0527H151.827V35.5948H151.745C151.559 35.9491 151.321 36.2489 151.03 36.4941C150.744 36.7394 150.406 36.9233 150.015 37.0459C149.629 37.1685 149.193 37.2299 148.707 37.2299ZM149.736 35.0498C150.094 35.0498 150.417 34.9772 150.703 34.8318C150.994 34.6865 151.225 34.4867 151.398 34.2323C151.57 33.9735 151.657 33.6737 151.657 33.3331V32.3384C151.561 32.3884 151.446 32.4338 151.309 32.4747C151.178 32.5156 151.032 32.5542 150.873 32.5905C150.714 32.6268 150.551 32.6586 150.383 32.6859C150.215 32.7131 150.054 32.7381 149.899 32.7608C149.586 32.8108 149.318 32.888 149.095 32.9924C148.877 33.0969 148.709 33.2332 148.591 33.4012C148.478 33.5647 148.421 33.76 148.421 33.9871C148.421 34.3322 148.543 34.5957 148.789 34.7773C149.038 34.959 149.354 35.0498 149.736 35.0498ZM161.119 37.0527V26.5886H164.451V30.4854H165.187L167.728 26.5886H171.584L168.061 31.8275L171.618 37.0527H167.714L165.418 33.5783H164.451V37.0527H161.119ZM177.114 37.2503C176.015 37.2503 175.07 37.0255 174.28 36.5759C173.494 36.1217 172.888 35.4904 172.461 34.682C172.038 33.869 171.827 32.9266 171.827 31.8547C171.827 30.7784 172.038 29.8359 172.461 29.0275C172.888 28.2146 173.494 27.5833 174.28 27.1336C175.07 26.6795 176.015 26.4524 177.114 26.4524C178.213 26.4524 179.155 26.6795 179.941 27.1336C180.731 27.5833 181.337 28.2146 181.76 29.0275C182.187 29.8359 182.4 30.7784 182.4 31.8547C182.4 32.9266 182.187 33.869 181.76 34.682C181.337 35.4904 180.731 36.1217 179.941 36.5759C179.155 37.0255 178.213 37.2503 177.114 37.2503ZM177.134 34.7365C177.534 34.7365 177.872 34.6138 178.149 34.3686C178.426 34.1233 178.637 33.7827 178.783 33.3467C178.933 32.9107 179.008 32.4066 179.008 31.8343C179.008 31.253 178.933 30.7443 178.783 30.3083C178.637 29.8723 178.426 29.5317 178.149 29.2864C177.872 29.0411 177.534 28.9185 177.134 28.9185C176.721 28.9185 176.371 29.0411 176.085 29.2864C175.803 29.5317 175.588 29.8723 175.438 30.3083C175.292 30.7443 175.22 31.253 175.22 31.8343C175.22 32.4066 175.292 32.9107 175.438 33.3467C175.588 33.7827 175.803 34.1233 176.085 34.3686C176.371 34.6138 176.721 34.7365 177.134 34.7365ZM191.485 30.5195V33.0606H186.116V30.5195H191.485ZM187.261 26.5886V37.0527H184.107V26.5886H187.261ZM193.494 26.5886V37.0527H190.361V26.5886H193.494ZM200.408 37.2503C199.313 37.2503 198.368 37.0346 197.574 36.6031C196.783 36.1671 196.175 35.5472 195.748 34.7433C195.325 33.9348 195.114 32.9743 195.114 31.8616C195.114 30.7806 195.328 29.8359 195.755 29.0275C196.181 28.2146 196.783 27.5833 197.56 27.1336C198.337 26.6795 199.252 26.4524 200.305 26.4524C201.05 26.4524 201.731 26.5682 202.349 26.7998C202.967 27.0314 203.5 27.3743 203.95 27.8285C204.4 28.2827 204.749 28.8436 204.999 29.5112C205.249 30.1743 205.374 30.935 205.374 31.7934V32.6246H196.279V30.6898H202.274C202.27 30.3355 202.186 30.0199 202.022 29.7428C201.859 29.4658 201.634 29.2501 201.348 29.0956C201.066 28.9367 200.741 28.8572 200.373 28.8572C200.001 28.8572 199.667 28.9412 199.372 29.1093C199.077 29.2728 198.843 29.4976 198.67 29.7837C198.498 30.0653 198.407 30.3855 198.398 30.7443V32.7131C198.398 33.14 198.482 33.5147 198.65 33.8372C198.818 34.1551 199.056 34.4026 199.365 34.5798C199.674 34.7569 200.042 34.8455 200.469 34.8455C200.764 34.8455 201.032 34.8046 201.273 34.7228C201.513 34.6411 201.72 34.5207 201.893 34.3618C202.065 34.2028 202.195 34.0075 202.281 33.7759L205.34 33.8644C205.213 34.5502 204.933 35.1475 204.502 35.6562C204.075 36.1603 203.514 36.5531 202.819 36.8347C202.124 37.1118 201.32 37.2503 200.408 37.2503ZM216.524 26.5886V34.8795H218.262V40.4113H215.039V37.0527H207.075V26.5886H210.23V34.5048H213.418V26.5886H216.524ZM230.272 33.4966L232.834 26.5886H235.273L231.342 37.0527H229.203L225.374 26.5886H227.806L230.272 33.4966ZM227.091 26.5886V37.0527H223.936V26.5886H227.091ZM233.644 37.0527V26.5886H236.758V37.0527H233.644ZM243.666 37.2503C242.571 37.2503 241.626 37.0346 240.832 36.6031C240.041 36.1671 239.433 35.5472 239.006 34.7433C238.584 33.9348 238.372 32.9743 238.372 31.8616C238.372 30.7806 238.586 29.8359 239.013 29.0275C239.44 28.2146 240.041 27.5833 240.818 27.1336C241.595 26.6795 242.51 26.4524 243.563 26.4524C244.308 26.4524 244.99 26.5682 245.607 26.7998C246.225 27.0314 246.759 27.3743 247.208 27.8285C247.658 28.2827 248.008 28.8436 248.257 29.5112C248.507 30.1743 248.632 30.935 248.632 31.7934V32.6246H239.537V30.6898H245.532C245.528 30.3355 245.444 30.0199 245.28 29.7428C245.117 29.4658 244.892 29.2501 244.606 29.0956C244.324 28.9367 244 28.8572 243.632 28.8572C243.259 28.8572 242.925 28.9412 242.63 29.1093C242.335 29.2728 242.101 29.4976 241.928 29.7837C241.756 30.0653 241.665 30.3855 241.656 30.7443V32.7131C241.656 33.14 241.74 33.5147 241.908 33.8372C242.076 34.1551 242.315 34.4026 242.623 34.5798C242.932 34.7569 243.3 34.8455 243.727 34.8455C244.022 34.8455 244.29 34.8046 244.531 34.7228C244.772 34.6411 244.978 34.5207 245.151 34.3618C245.323 34.2028 245.453 34.0075 245.539 33.7759L248.598 33.8644C248.471 34.5502 248.192 35.1475 247.76 35.6562C247.333 36.1603 246.772 36.5531 246.077 36.8347C245.382 37.1118 244.579 37.2503 243.666 37.2503ZM255.218 37.2503C254.114 37.2503 253.168 37.0232 252.377 36.569C251.592 36.1149 250.987 35.4836 250.565 34.6751C250.143 33.8622 249.932 32.922 249.932 31.8547C249.932 30.7829 250.143 29.8428 250.565 29.0343C250.992 28.2214 251.598 27.5878 252.384 27.1336C253.174 26.6795 254.117 26.4524 255.211 26.4524C256.179 26.4524 257.021 26.6272 257.739 26.9769C258.461 27.3266 259.024 27.8217 259.428 28.4621C259.837 29.0979 260.053 29.845 260.075 30.7034H256.962C256.899 30.1675 256.717 29.7474 256.417 29.4431C256.122 29.1388 255.736 28.9866 255.259 28.9866C254.873 28.9866 254.535 29.0956 254.244 29.3136C253.953 29.5271 253.726 29.845 253.563 30.2674C253.404 30.6852 253.324 31.203 253.324 31.8207C253.324 32.4384 253.404 32.9606 253.563 33.3876C253.726 33.8099 253.953 34.1301 254.244 34.3481C254.535 34.5616 254.873 34.6683 255.259 34.6683C255.568 34.6683 255.84 34.6025 256.076 34.4708C256.317 34.3391 256.515 34.146 256.669 33.8917C256.824 33.6328 256.921 33.3194 256.962 32.9516H260.075C260.044 33.8145 259.828 34.5684 259.428 35.2133C259.033 35.8583 258.477 36.3601 257.759 36.7189C257.046 37.0732 256.199 37.2503 255.218 37.2503ZM267.857 37.0527V29.1297H266.168C265.663 29.1297 265.287 29.2455 265.037 29.4772C264.787 29.7088 264.667 29.9631 264.676 30.2402C264.667 30.5263 264.789 30.7784 265.044 30.9964C265.298 31.2144 265.682 31.3234 266.195 31.3234H269.008V33.4353H266.195C265.237 33.4353 264.405 33.2967 263.701 33.0197C263.002 32.7381 262.462 32.3498 262.08 31.8547C261.703 31.3552 261.517 30.7806 261.521 30.1312C261.517 29.4363 261.703 28.8231 262.08 28.2918C262.457 27.7558 262.993 27.338 263.688 27.0382C264.387 26.7385 265.214 26.5886 266.168 26.5886H270.957V37.0527H267.857ZM261.317 37.0527L264.199 31.5209H267.319L264.437 37.0527H261.317ZM282.433 26.5886V34.8795H284.17V40.4113H280.947V37.0527H272.984V26.5886H276.138V34.5048H279.326V26.5886H282.433ZM288.673 37.2299C288.005 37.2299 287.413 37.1186 286.895 36.896C286.382 36.669 285.975 36.3283 285.675 35.8742C285.38 35.4154 285.233 34.8409 285.233 34.1506C285.233 33.5692 285.335 33.0787 285.539 32.6791C285.744 32.2794 286.025 31.9547 286.384 31.7049C286.743 31.4551 287.156 31.2666 287.624 31.1394C288.092 31.0077 288.591 30.9191 289.123 30.8737C289.718 30.8192 290.197 30.7625 290.56 30.7034C290.923 30.6398 291.187 30.5513 291.35 30.4377C291.518 30.3196 291.602 30.1539 291.602 29.9404V29.9063C291.602 29.5566 291.482 29.2864 291.241 29.0956C291.001 28.9049 290.676 28.8095 290.267 28.8095C289.827 28.8095 289.472 28.9049 289.204 29.0956C288.936 29.2864 288.766 29.5498 288.693 29.8859L285.621 29.7769C285.712 29.1411 285.946 28.5733 286.323 28.0738C286.704 27.5696 287.226 27.1745 287.89 26.8884C288.557 26.5977 289.359 26.4524 290.294 26.4524C290.962 26.4524 291.577 26.5318 292.141 26.6908C292.704 26.8452 293.194 27.0723 293.612 27.3721C294.03 27.6673 294.352 28.0306 294.579 28.4621C294.811 28.8935 294.927 29.3863 294.927 29.9404V37.0527H291.793V35.5948H291.711C291.525 35.9491 291.287 36.2489 290.996 36.4941C290.71 36.7394 290.372 36.9233 289.981 37.0459C289.595 37.1685 289.159 37.2299 288.673 37.2299ZM289.702 35.0498C290.06 35.0498 290.383 34.9772 290.669 34.8318C290.96 34.6865 291.191 34.4867 291.364 34.2323C291.537 33.9735 291.623 33.6737 291.623 33.3331V32.3384C291.527 32.3884 291.412 32.4338 291.275 32.4747C291.144 32.5156 290.998 32.5542 290.839 32.5905C290.68 32.6268 290.517 32.6586 290.349 32.6859C290.181 32.7131 290.02 32.7381 289.865 32.7608C289.552 32.8108 289.284 32.888 289.061 32.9924C288.843 33.0969 288.675 33.2332 288.557 33.4012C288.444 33.5647 288.387 33.76 288.387 33.9871C288.387 34.3322 288.509 34.5957 288.755 34.7773C289.004 34.959 289.32 35.0498 289.702 35.0498Z" fill="#4E5D7C"/>
<path d="M108.711 248.329H1118.01V249.395H108.711V248.329Z" fill="#4E5D7C" fill-opacity="0.32"/>
<path d="M108.711 196.105H1118.01V197.171H108.711V196.105Z" fill="#4E5D7C" fill-opacity="0.08"/>
<path d="M108.711 352.776H1118.01V353.842H108.711V352.776Z" fill="#4E5D7C" fill-opacity="0.08"/>
<path d="M108.711 143.882H1118.01V144.947H108.711V143.882Z" fill="#4E5D7C" fill-opacity="0.08"/>
<path d="M108.711 300.553H1118.01V301.619H108.711V300.553Z" fill="#4E5D7C" fill-opacity="0.08"/>
<path d="M158.864 398.685H157.339V389.912H155.43C154.931 389.912 154.526 389.987 154.214 390.138C153.903 390.286 153.675 390.499 153.53 390.778C153.386 391.057 153.314 391.386 153.314 391.767C153.314 392.144 153.386 392.467 153.53 392.736C153.675 393.005 153.901 393.21 154.209 393.351C154.518 393.492 154.92 393.563 155.415 393.563H157.998V394.871H155.272C154.495 394.871 153.847 394.742 153.329 394.483C152.814 394.224 152.427 393.861 152.168 393.395C151.912 392.926 151.784 392.383 151.784 391.767C151.784 391.147 151.912 390.601 152.168 390.128C152.423 389.653 152.809 389.28 153.324 389.011C153.842 388.743 154.49 388.608 155.267 388.608H158.864V398.685ZM153.89 394.138H155.572L153.127 398.685H151.4L153.89 394.138ZM166.087 394.271V395.545H161.993V394.271H166.087ZM162.406 391.127V398.685H160.965V391.127H162.406ZM167.115 391.127V398.685H165.678V391.127H167.115ZM169.083 398.685V391.127H172.217C173.07 391.127 173.746 391.309 174.244 391.673C174.743 392.034 174.992 392.524 174.992 393.144C174.992 393.587 174.851 393.938 174.569 394.197C174.287 394.456 173.913 394.63 173.447 394.719C173.785 394.758 174.095 394.86 174.377 395.024C174.659 395.185 174.886 395.401 175.056 395.673C175.23 395.946 175.317 396.27 175.317 396.648C175.317 397.048 175.214 397.402 175.007 397.71C174.8 398.015 174.5 398.255 174.107 398.429C173.716 398.599 173.246 398.685 172.695 398.685H169.083ZM170.466 397.455H172.695C173.059 397.455 173.344 397.368 173.551 397.194C173.757 397.02 173.861 396.784 173.861 396.485C173.861 396.134 173.757 395.859 173.551 395.659C173.344 395.455 173.059 395.354 172.695 395.354H170.466V397.455ZM170.466 394.276H172.232C172.508 394.276 172.744 394.237 172.941 394.158C173.141 394.079 173.293 393.968 173.398 393.823C173.506 393.676 173.561 393.502 173.561 393.302C173.561 393.01 173.441 392.782 173.201 392.618C172.962 392.454 172.634 392.372 172.217 392.372H170.466V394.276Z" fill="#4E5D7C" fill-opacity="0.5"/>
<path d="M141.75 146.014C141.75 141.305 145.567 137.487 150.276 137.487H175.855C180.564 137.487 184.382 141.305 184.382 146.014V248.329H141.75V146.014Z" fill="#27AE60"/>
<path d="M95.1235 252.838C94.3461 252.835 93.6819 252.63 93.1309 252.223C92.5798 251.817 92.1583 251.225 91.8664 250.447C91.5744 249.67 91.4285 248.733 91.4285 247.638C91.4285 246.546 91.5744 245.612 91.8664 244.838C92.1616 244.064 92.5847 243.474 93.1358 243.067C93.6901 242.66 94.3527 242.457 95.1235 242.457C95.8944 242.457 96.5553 242.662 97.1064 243.072C97.6574 243.479 98.0789 244.069 98.3709 244.843C98.6661 245.614 98.8137 246.546 98.8137 247.638C98.8137 248.737 98.6677 249.675 98.3758 250.452C98.0839 251.226 97.6624 251.818 97.1113 252.228C96.5602 252.635 95.8976 252.838 95.1235 252.838ZM95.1235 251.525C95.8058 251.525 96.3388 251.192 96.7226 250.526C97.1097 249.86 97.3032 248.897 97.3032 247.638C97.3032 246.801 97.2146 246.094 97.0375 245.517C96.8636 244.937 96.6127 244.497 96.2847 244.199C95.96 243.897 95.5729 243.746 95.1235 243.746C94.4446 243.746 93.9115 244.08 93.5245 244.75C93.1374 245.419 92.9423 246.381 92.939 247.638C92.939 248.477 93.0259 249.188 93.1997 249.768C93.3769 250.346 93.6278 250.783 93.9525 251.082C94.2773 251.377 94.6676 251.525 95.1235 251.525Z" fill="#4E5D7C" fill-opacity="0.5"/>
<path d="M78.3551 199.519C77.7385 199.519 77.1841 199.401 76.6921 199.165C76.2034 198.926 75.813 198.598 75.5211 198.181C75.2292 197.764 75.0734 197.289 75.0537 196.754H76.5298C76.5658 197.187 76.7577 197.543 77.1054 197.822C77.4531 198.101 77.8697 198.24 78.3551 198.24C78.7422 198.24 79.085 198.152 79.3835 197.974C79.6852 197.794 79.9214 197.546 80.092 197.231C80.2658 196.917 80.3527 196.557 80.3527 196.154C80.3527 195.744 80.2642 195.378 80.0871 195.057C79.9099 194.735 79.6656 194.483 79.3539 194.299C79.0456 194.115 78.6914 194.022 78.2912 194.019C77.9861 194.019 77.6794 194.071 77.3711 194.176C77.0628 194.281 76.8135 194.419 76.6232 194.589L75.2308 194.383L75.7966 189.305H81.3368V190.609H77.0611L76.7413 193.428H76.8004C76.9972 193.238 77.2579 193.079 77.5827 192.951C77.9107 192.823 78.2617 192.759 78.6356 192.759C79.249 192.759 79.7951 192.905 80.274 193.197C80.7562 193.489 81.1351 193.887 81.4106 194.393C81.6894 194.894 81.8272 195.472 81.8239 196.124C81.8272 196.777 81.6796 197.359 81.3811 197.871C81.0858 198.383 80.6758 198.786 80.151 199.081C79.6295 199.373 79.0308 199.519 78.3551 199.519ZM87.1291 199.549C86.3517 199.546 85.6875 199.341 85.1364 198.934C84.5853 198.527 84.1638 197.935 83.8719 197.158C83.58 196.38 83.434 195.444 83.434 194.348C83.434 193.256 83.58 192.323 83.8719 191.549C84.1671 190.775 84.5903 190.184 85.1413 189.777C85.6957 189.371 86.3582 189.167 87.1291 189.167C87.8999 189.167 88.5609 189.372 89.1119 189.782C89.663 190.189 90.0845 190.779 90.3764 191.554C90.6716 192.324 90.8192 193.256 90.8192 194.348C90.8192 195.447 90.6733 196.385 90.3813 197.163C90.0894 197.937 89.6679 198.529 89.1168 198.939C88.5658 199.346 87.9032 199.549 87.1291 199.549ZM87.1291 198.235C87.8113 198.235 88.3444 197.902 88.7281 197.236C89.1152 196.571 89.3087 195.608 89.3087 194.348C89.3087 193.512 89.2202 192.805 89.043 192.228C88.8692 191.647 88.6183 191.208 88.2902 190.909C87.9655 190.607 87.5785 190.456 87.1291 190.456C86.4501 190.456 85.9171 190.791 85.53 191.46C85.143 192.129 84.9478 193.092 84.9445 194.348C84.9445 195.188 85.0314 195.898 85.2053 196.479C85.3824 197.056 85.6333 197.494 85.9581 197.792C86.2828 198.088 86.6731 198.235 87.1291 198.235ZM96.0728 199.549C95.2954 199.546 94.6311 199.341 94.0801 198.934C93.529 198.527 93.1075 197.935 92.8156 197.158C92.5237 196.38 92.3777 195.444 92.3777 194.348C92.3777 193.256 92.5237 192.323 92.8156 191.549C93.1108 190.775 93.5339 190.184 94.085 189.777C94.6393 189.371 95.3019 189.167 96.0728 189.167C96.8436 189.167 97.5045 189.372 98.0556 189.782C98.6067 190.189 99.0282 190.779 99.3201 191.554C99.6153 192.324 99.7629 193.256 99.7629 194.348C99.7629 195.447 99.6169 196.385 99.325 197.163C99.0331 197.937 98.6116 198.529 98.0605 198.939C97.5095 199.346 96.8469 199.549 96.0728 199.549ZM96.0728 198.235C96.755 198.235 97.288 197.902 97.6718 197.236C98.0589 196.571 98.2524 195.608 98.2524 194.348C98.2524 193.512 98.1638 192.805 97.9867 192.228C97.8129 191.647 97.5619 191.208 97.2339 190.909C96.9092 190.607 96.5221 190.456 96.0728 190.456C95.3938 190.456 94.8608 190.791 94.4737 191.46C94.0866 192.129 93.8915 193.092 93.8882 194.348C93.8882 195.188 93.9751 195.898 94.149 196.479C94.3261 197.056 94.577 197.494 94.9018 197.792C95.2265 198.088 95.6168 198.235 96.0728 198.235Z" fill="#4E5D7C" fill-opacity="0.5"/>
<path d="M72.6935 300.283V301.562H68.226V300.283H72.6935ZM77.9606 306.098C77.3439 306.098 76.7896 305.98 76.2976 305.744C75.8088 305.505 75.4185 305.176 75.1266 304.76C74.8346 304.343 74.6788 303.868 74.6592 303.333H76.1352C76.1713 303.766 76.3632 304.122 76.7109 304.401C77.0586 304.68 77.4752 304.819 77.9606 304.819C78.3477 304.819 78.6904 304.73 78.9889 304.553C79.2907 304.373 79.5269 304.125 79.6974 303.81C79.8713 303.495 79.9582 303.136 79.9582 302.733C79.9582 302.323 79.8696 301.957 79.6925 301.636C79.5154 301.314 79.271 301.062 78.9594 300.878C78.6511 300.694 78.2968 300.601 77.8966 300.597C77.5916 300.597 77.2849 300.65 76.9766 300.755C76.6682 300.86 76.419 300.998 76.2287 301.168L74.8363 300.962L75.4021 295.884H80.9422V297.188H76.6666L76.3468 300.007H76.4058C76.6026 299.817 76.8634 299.658 77.1881 299.53C77.5162 299.402 77.8671 299.338 78.2411 299.338C78.8544 299.338 79.4006 299.484 79.8795 299.776C80.3617 300.068 80.7405 300.466 81.0161 300.971C81.2949 301.473 81.4326 302.051 81.4293 302.703C81.4326 303.356 81.285 303.938 80.9865 304.45C80.6913 304.962 80.2813 305.365 79.7565 305.66C79.2349 305.952 78.6363 306.098 77.9606 306.098ZM86.7345 306.128C85.9572 306.124 85.2929 305.919 84.7419 305.513C84.1908 305.106 83.7693 304.514 83.4774 303.737C83.1854 302.959 83.0395 302.023 83.0395 300.927C83.0395 299.835 83.1854 298.902 83.4774 298.128C83.7726 297.353 84.1957 296.763 84.7468 296.356C85.3011 295.949 85.9637 295.746 86.7345 295.746C87.5054 295.746 88.1663 295.951 88.7174 296.361C89.2684 296.768 89.6899 297.358 89.9819 298.132C90.2771 298.903 90.4247 299.835 90.4247 300.927C90.4247 302.026 90.2787 302.964 89.9868 303.741C89.6949 304.516 89.2734 305.108 88.7223 305.518C88.1712 305.924 87.5087 306.128 86.7345 306.128ZM86.7345 304.814C87.4168 304.814 87.9498 304.481 88.3336 303.815C88.7207 303.149 88.9142 302.187 88.9142 300.927C88.9142 300.091 88.8256 299.384 88.6485 298.806C88.4747 298.226 88.2237 297.786 87.8957 297.488C87.571 297.186 87.1839 297.035 86.7345 297.035C86.0556 297.035 85.5225 297.37 85.1355 298.039C84.7484 298.708 84.5533 299.671 84.55 300.927C84.55 301.767 84.6369 302.477 84.8107 303.058C84.9879 303.635 85.2388 304.073 85.5635 304.371C85.8883 304.666 86.2786 304.814 86.7345 304.814ZM95.6782 306.128C94.9008 306.124 94.2366 305.919 93.6855 305.513C93.1345 305.106 92.713 304.514 92.4211 303.737C92.1291 302.959 91.9832 302.023 91.9832 300.927C91.9832 299.835 92.1291 298.902 92.4211 298.128C92.7163 297.353 93.1394 296.763 93.6905 296.356C94.2448 295.949 94.9074 295.746 95.6782 295.746C96.4491 295.746 97.11 295.951 97.6611 296.361C98.2121 296.768 98.6336 297.358 98.9256 298.132C99.2208 298.903 99.3684 299.835 99.3684 300.927C99.3684 302.026 99.2224 302.964 98.9305 303.741C98.6385 304.516 98.217 305.108 97.666 305.518C97.1149 305.924 96.4523 306.128 95.6782 306.128ZM95.6782 304.814C96.3605 304.814 96.8935 304.481 97.2773 303.815C97.6643 303.149 97.8579 302.187 97.8579 300.927C97.8579 300.091 97.7693 299.384 97.5922 298.806C97.4183 298.226 97.1674 297.786 96.8394 297.488C96.5147 297.186 96.1276 297.035 95.6782 297.035C94.9992 297.035 94.4662 297.37 94.0792 298.039C93.6921 298.708 93.4969 299.671 93.4937 300.927C93.4937 301.767 93.5806 302.477 93.7544 303.058C93.9316 303.635 94.1825 304.073 94.5072 304.371C94.832 304.666 95.2223 304.814 95.6782 304.814Z" fill="#4E5D7C" fill-opacity="0.5"/>
<path d="M65.332 353.572V354.851H60.8645V353.572H65.332ZM71.096 349.173V359.25H69.5708V350.699H69.5117L67.1008 352.273V350.817L69.6151 349.173H71.096ZM77.3299 359.417C76.5525 359.414 75.8883 359.209 75.3372 358.802C74.7862 358.396 74.3647 357.803 74.0728 357.026C73.7808 356.249 73.6349 355.312 73.6349 354.217C73.6349 353.124 73.7808 352.191 74.0728 351.417C74.368 350.643 74.7911 350.053 75.3422 349.646C75.8965 349.239 76.5591 349.036 77.3299 349.036C78.1008 349.036 78.7617 349.241 79.3128 349.651C79.8638 350.057 80.2853 350.648 80.5773 351.422C80.8725 352.193 81.0201 353.124 81.0201 354.217C81.0201 355.315 80.8741 356.254 80.5822 357.031C80.2902 357.805 79.8687 358.397 79.3177 358.807C78.7666 359.214 78.104 359.417 77.3299 359.417ZM77.3299 358.104C78.0122 358.104 78.5452 357.771 78.929 357.105C79.316 356.439 79.5096 355.476 79.5096 354.217C79.5096 353.38 79.421 352.673 79.2439 352.096C79.07 351.515 78.8191 351.076 78.4911 350.777C78.1664 350.476 77.7793 350.325 77.3299 350.325C76.6509 350.325 76.1179 350.659 75.7309 351.328C75.3438 351.998 75.1486 352.96 75.1454 354.217C75.1454 355.056 75.2323 355.767 75.4061 356.347C75.5833 356.924 75.8342 357.362 76.1589 357.661C76.4837 357.956 76.874 358.104 77.3299 358.104ZM86.2736 359.417C85.4962 359.414 84.832 359.209 84.2809 358.802C83.7299 358.396 83.3084 357.803 83.0164 357.026C82.7245 356.249 82.5785 355.312 82.5785 354.217C82.5785 353.124 82.7245 352.191 83.0164 351.417C83.3117 350.643 83.7348 350.053 84.2859 349.646C84.8402 349.239 85.5028 349.036 86.2736 349.036C87.0444 349.036 87.7054 349.241 88.2564 349.651C88.8075 350.057 89.229 350.648 89.5209 351.422C89.8161 352.193 89.9638 353.124 89.9638 354.217C89.9638 355.315 89.8178 356.254 89.5259 357.031C89.2339 357.805 88.8124 358.397 88.2614 358.807C87.7103 359.214 87.0477 359.417 86.2736 359.417ZM86.2736 358.104C86.9559 358.104 87.4889 357.771 87.8727 357.105C88.2597 356.439 88.4533 355.476 88.4533 354.217C88.4533 353.38 88.3647 352.673 88.1876 352.096C88.0137 351.515 87.7628 351.076 87.4348 350.777C87.11 350.476 86.723 350.325 86.2736 350.325C85.5946 350.325 85.0616 350.659 84.6745 351.328C84.2875 351.998 84.0923 352.96 84.089 354.217C84.089 355.056 84.176 355.767 84.3498 356.347C84.5269 356.924 84.7779 357.362 85.1026 357.661C85.4273 357.956 85.8177 358.104 86.2736 358.104ZM95.2173 359.417C94.4399 359.414 93.7757 359.209 93.2246 358.802C92.6735 358.396 92.2521 357.803 91.9601 357.026C91.6682 356.249 91.5222 355.312 91.5222 354.217C91.5222 353.124 91.6682 352.191 91.9601 351.417C92.2553 350.643 92.6785 350.053 93.2295 349.646C93.7839 349.239 94.4465 349.036 95.2173 349.036C95.9881 349.036 96.6491 349.241 97.2001 349.651C97.7512 350.057 98.1727 350.648 98.4646 351.422C98.7598 352.193 98.9074 353.124 98.9074 354.217C98.9074 355.315 98.7615 356.254 98.4695 357.031C98.1776 357.805 97.7561 358.397 97.205 358.807C96.654 359.214 95.9914 359.417 95.2173 359.417ZM95.2173 358.104C95.8996 358.104 96.4326 357.771 96.8164 357.105C97.2034 356.439 97.3969 355.476 97.3969 354.217C97.3969 353.38 97.3084 352.673 97.1312 352.096C96.9574 351.515 96.7065 351.076 96.3785 350.777C96.0537 350.476 95.6667 350.325 95.2173 350.325C94.5383 350.325 94.0053 350.659 93.6182 351.328C93.2312 351.998 93.036 352.96 93.0327 354.217C93.0327 355.056 93.1196 355.767 93.2935 356.347C93.4706 356.924 93.7216 357.362 94.0463 357.661C94.371 357.956 94.7614 358.104 95.2173 358.104Z" fill="#4E5D7C" fill-opacity="0.5"/>
<path d="M71.4906 136.015V146.092H69.9653V137.541H69.9063L67.4954 139.115V137.659L70.0096 136.015H71.4906ZM77.7245 146.259C76.9471 146.256 76.2828 146.051 75.7318 145.644C75.1807 145.238 74.7592 144.646 74.4673 143.868C74.1754 143.091 74.0294 142.154 74.0294 141.059C74.0294 139.966 74.1754 139.033 74.4673 138.259C74.7625 137.485 75.1856 136.895 75.7367 136.488C76.291 136.081 76.9536 135.878 77.7245 135.878C78.4953 135.878 79.1562 136.083 79.7073 136.493C80.2584 136.899 80.6799 137.49 80.9718 138.264C81.267 139.035 81.4146 139.966 81.4146 141.059C81.4146 142.158 81.2686 143.096 80.9767 143.873C80.6848 144.647 80.2633 145.239 79.7122 145.649C79.1612 146.056 78.4986 146.259 77.7245 146.259ZM77.7245 144.946C78.4067 144.946 78.9397 144.613 79.3235 143.947C79.7106 143.281 79.9041 142.318 79.9041 141.059C79.9041 140.222 79.8155 139.515 79.6384 138.938C79.4646 138.357 79.2136 137.918 78.8856 137.619C78.5609 137.318 78.1738 137.167 77.7245 137.167C77.0455 137.167 76.5125 137.501 76.1254 138.171C75.7383 138.84 75.5432 139.802 75.5399 141.059C75.5399 141.898 75.6268 142.609 75.8007 143.189C75.9778 143.766 76.2287 144.204 76.5535 144.503C76.8782 144.798 77.2685 144.946 77.7245 144.946ZM86.6681 146.259C85.8908 146.256 85.2265 146.051 84.6755 145.644C84.1244 145.238 83.7029 144.646 83.411 143.868C83.119 143.091 82.9731 142.154 82.9731 141.059C82.9731 139.966 83.119 139.033 83.411 138.259C83.7062 137.485 84.1293 136.895 84.6804 136.488C85.2347 136.081 85.8973 135.878 86.6681 135.878C87.439 135.878 88.0999 136.083 88.651 136.493C89.202 136.899 89.6235 137.49 89.9155 138.264C90.2107 139.035 90.3583 139.966 90.3583 141.059C90.3583 142.158 90.2123 143.096 89.9204 143.873C89.6285 144.647 89.207 145.239 88.6559 145.649C88.1048 146.056 87.4423 146.259 86.6681 146.259ZM86.6681 144.946C87.3504 144.946 87.8834 144.613 88.2672 143.947C88.6543 143.281 88.8478 142.318 88.8478 141.059C88.8478 140.222 88.7592 139.515 88.5821 138.938C88.4082 138.357 88.1573 137.918 87.8293 137.619C87.5046 137.318 87.1175 137.167 86.6681 137.167C85.9892 137.167 85.4561 137.501 85.0691 138.171C84.682 138.84 84.4869 139.802 84.4836 141.059C84.4836 141.898 84.5705 142.609 84.7443 143.189C84.9215 143.766 85.1724 144.204 85.4971 144.503C85.8219 144.798 86.2122 144.946 86.6681 144.946ZM95.6118 146.259C94.8344 146.256 94.1702 146.051 93.6191 145.644C93.0681 145.238 92.6466 144.646 92.3547 143.868C92.0627 143.091 91.9168 142.154 91.9168 141.059C91.9168 139.966 92.0627 139.033 92.3547 138.259C92.6499 137.485 93.073 136.895 93.6241 136.488C94.1784 136.081 94.841 135.878 95.6118 135.878C96.3827 135.878 97.0436 136.083 97.5947 136.493C98.1457 136.899 98.5672 137.49 98.8591 138.264C99.1544 139.035 99.302 139.966 99.302 141.059C99.302 142.158 99.156 143.096 98.8641 143.873C98.5721 144.647 98.1506 145.239 97.5996 145.649C97.0485 146.056 96.3859 146.259 95.6118 146.259ZM95.6118 144.946C96.2941 144.946 96.8271 144.613 97.2109 143.947C97.5979 143.281 97.7915 142.318 97.7915 141.059C97.7915 140.222 97.7029 139.515 97.5258 138.938C97.3519 138.357 97.101 137.918 96.773 137.619C96.4483 137.318 96.0612 137.167 95.6118 137.167C94.9328 137.167 94.3998 137.501 94.0128 138.171C93.6257 138.84 93.4305 139.802 93.4273 141.059C93.4273 141.898 93.5142 142.609 93.688 143.189C93.8652 143.766 94.1161 144.204 94.4408 144.503C94.7655 144.798 95.1559 144.946 95.6118 144.946Z" fill="#4E5D7C" fill-opacity="0.5"/>
<path d="M60.5194 86.5147V85.2453H66.896V86.5147H64.4309V92.8027H62.9942V86.5147H60.5194ZM69.559 87.8432H71.7534C72.6784 87.8432 73.3902 88.0728 73.8888 88.532C74.3874 88.9912 74.6366 89.5833 74.6366 90.3082C74.6366 90.7805 74.5251 91.2053 74.3021 91.5825C74.079 91.9597 73.7527 92.2582 73.323 92.478C72.8933 92.6945 72.3701 92.8027 71.7534 92.8027H68.452V85.2453H69.8936V91.5333H71.7534C72.1766 91.5333 72.5242 91.4234 72.7965 91.2037C73.0687 90.9806 73.2049 90.6969 73.2049 90.3525C73.2049 89.9884 73.0687 89.6915 72.7965 89.4619C72.5242 89.229 72.1766 89.1126 71.7534 89.1126H69.559V87.8432ZM75.7092 92.8027V85.2453H77.1804V92.8027H75.7092ZM82.338 92.9553C81.6065 92.9553 80.9767 92.7896 80.4486 92.4583C79.9238 92.1237 79.5203 91.6629 79.2383 91.0757C78.9562 90.4886 78.8151 89.8162 78.8151 89.0585C78.8151 88.2909 78.9594 87.6136 79.2481 87.0264C79.5367 86.436 79.9435 85.9751 80.4683 85.6439C80.9931 85.3126 81.6114 85.1469 82.3232 85.1469C82.8972 85.1469 83.4089 85.2535 83.8583 85.4667C84.3077 85.6767 84.6702 85.9719 84.9457 86.3524C85.2245 86.7329 85.3901 87.1773 85.4426 87.6857H84.0108C83.9321 87.3315 83.7517 87.0264 83.4696 86.7706C83.1908 86.5147 82.8169 86.3868 82.3478 86.3868C81.9378 86.3868 81.5786 86.495 81.2703 86.7115C80.9652 86.9247 80.7274 87.2298 80.5569 87.6267C80.3863 88.0203 80.301 88.4861 80.301 89.024C80.301 89.5751 80.3847 90.0507 80.5519 90.4509C80.7192 90.8511 80.9554 91.161 81.2605 91.3808C81.5688 91.6006 81.9312 91.7105 82.3478 91.7105C82.6266 91.7105 82.8792 91.6596 83.1055 91.5579C83.3351 91.453 83.527 91.3037 83.6812 91.1102C83.8386 90.9167 83.9485 90.6838 84.0108 90.4115H85.4426C85.3901 90.9003 85.2311 91.3365 84.9654 91.7203C84.6997 92.1041 84.3438 92.4058 83.8977 92.6256C83.4549 92.8454 82.935 92.9553 82.338 92.9553ZM88.9298 91.4251L88.856 91.9614C88.8068 92.355 88.7232 92.765 88.6051 93.1914C88.4903 93.6211 88.3705 94.0197 88.2459 94.387C88.1245 94.7544 88.0245 95.0463 87.9458 95.2628H86.9027C86.9453 95.0595 87.0044 94.7839 87.0798 94.4362C87.1553 94.0918 87.2291 93.7064 87.3012 93.28C87.3734 92.8536 87.4275 92.419 87.4636 91.9761L87.5128 91.4251H88.9298ZM99.2794 88.8567H94.0788V87.5676H99.2597C99.7058 87.5676 100.075 87.4938 100.367 87.3462C100.659 87.1954 100.875 86.9887 101.016 86.7263C101.157 86.4606 101.228 86.1556 101.228 85.8111C101.228 85.47 101.157 85.165 101.016 84.896C100.875 84.627 100.66 84.4154 100.372 84.2613C100.083 84.1038 99.719 84.0251 99.2794 84.0251H97.1342V92.8027H95.6188V82.7262H99.2794C100.044 82.7262 100.682 82.8639 101.193 83.1395C101.708 83.415 102.094 83.7857 102.35 84.2514C102.609 84.7172 102.738 85.2355 102.738 85.8062C102.738 86.3835 102.607 86.9034 102.345 87.3659C102.086 87.8251 101.699 88.1892 101.184 88.4582C100.672 88.7239 100.037 88.8567 99.2794 88.8567ZM99.3532 89.703V90.997H94.0788V89.703H99.3532Z" fill="#4E5D7C" fill-opacity="0.5"/>
<path d="M459.489 398.684H457.875L461.501 388.607H463.257L466.884 398.684H465.27L462.421 390.438H462.342L459.489 398.684ZM459.759 394.738H464.994V396.017H459.759V394.738ZM468.221 398.684V391.126H474.386V398.684H472.944V392.396H469.653V398.684H468.221ZM476.353 401.518V391.126H477.789V392.352H477.912C477.998 392.194 478.121 392.012 478.281 391.805C478.442 391.599 478.665 391.418 478.95 391.264C479.236 391.107 479.613 391.028 480.082 391.028C480.692 391.028 481.237 391.182 481.716 391.491C482.194 391.799 482.57 392.243 482.842 392.824C483.118 393.404 483.256 394.103 483.256 394.92C483.256 395.737 483.119 396.437 482.847 397.021C482.575 397.601 482.201 398.049 481.725 398.364C481.25 398.676 480.707 398.831 480.097 398.831C479.638 398.831 479.262 398.754 478.97 398.6C478.681 398.446 478.455 398.266 478.291 398.059C478.127 397.852 478.001 397.669 477.912 397.508H477.824V401.518H476.353ZM477.794 394.905C477.794 395.437 477.871 395.902 478.025 396.302C478.18 396.703 478.403 397.016 478.695 397.242C478.987 397.465 479.344 397.577 479.767 397.577C480.207 397.577 480.574 397.46 480.869 397.227C481.165 396.991 481.388 396.671 481.538 396.268C481.693 395.865 481.77 395.41 481.77 394.905C481.77 394.407 481.694 393.959 481.543 393.562C481.396 393.165 481.173 392.852 480.874 392.622C480.579 392.393 480.21 392.278 479.767 392.278C479.341 392.278 478.98 392.388 478.685 392.607C478.393 392.827 478.171 393.134 478.021 393.527C477.87 393.921 477.794 394.38 477.794 394.905Z" fill="#4E5D7C" fill-opacity="0.5"/>
<path d="M543.551 249.395H586.182V326.132C586.182 330.841 582.365 334.658 577.656 334.658H552.077C547.368 334.658 543.551 330.841 543.551 326.132V249.395Z" fill="#E74C3C"/>
<path d="M256.632 389.768H258.447C259.215 389.768 259.895 389.937 260.489 390.275C261.086 390.61 261.553 391.08 261.891 391.687C262.232 392.291 262.403 392.993 262.403 393.793C262.403 394.587 262.232 395.284 261.891 395.884C261.553 396.485 261.086 396.954 260.489 397.291C259.895 397.626 259.215 397.793 258.447 397.793H256.632C255.864 397.793 255.182 397.628 254.585 397.296C253.988 396.962 253.519 396.496 253.178 395.899C252.84 395.302 252.671 394.605 252.671 393.808C252.671 393.004 252.841 392.299 253.183 391.692C253.524 391.085 253.991 390.613 254.585 390.275C255.182 389.937 255.864 389.768 256.632 389.768ZM256.632 391.082C256.107 391.082 255.659 391.192 255.288 391.412C254.918 391.628 254.634 391.94 254.437 392.347C254.24 392.753 254.142 393.24 254.142 393.808C254.142 394.362 254.24 394.84 254.437 395.24C254.637 395.637 254.923 395.943 255.293 396.16C255.664 396.373 256.11 396.48 256.632 396.48H258.452C258.974 396.48 259.418 396.373 259.785 396.16C260.156 395.943 260.438 395.635 260.632 395.235C260.829 394.831 260.927 394.351 260.927 393.793C260.927 393.232 260.829 392.75 260.632 392.347C260.438 391.94 260.156 391.628 259.785 391.412C259.418 391.192 258.974 391.082 258.452 391.082H256.632ZM258.29 388.43V399.097H256.799V388.43H258.29ZM267.433 398.836C266.688 398.836 266.047 398.677 265.509 398.359C264.974 398.038 264.561 397.587 264.269 397.006C263.98 396.422 263.836 395.738 263.836 394.954C263.836 394.18 263.98 393.498 264.269 392.908C264.561 392.317 264.968 391.856 265.489 391.525C266.014 391.194 266.627 391.028 267.329 391.028C267.756 391.028 268.169 391.099 268.569 391.24C268.969 391.381 269.329 391.602 269.647 391.904C269.965 392.206 270.216 392.598 270.4 393.08C270.583 393.559 270.675 394.141 270.675 394.826V395.348H264.668V394.246H269.233C269.233 393.859 269.155 393.516 268.997 393.218C268.84 392.916 268.618 392.678 268.333 392.504C268.051 392.33 267.72 392.243 267.339 392.243C266.926 392.243 266.565 392.345 266.257 392.548C265.952 392.748 265.716 393.011 265.548 393.336C265.384 393.657 265.302 394.006 265.302 394.384V395.245C265.302 395.75 265.391 396.179 265.568 396.534C265.748 396.888 265.999 397.159 266.321 397.346C266.642 397.529 267.018 397.621 267.447 397.621C267.726 397.621 267.98 397.582 268.21 397.503C268.44 397.421 268.638 397.3 268.805 397.139C268.973 396.978 269.101 396.78 269.189 396.544L270.582 396.794C270.47 397.204 270.27 397.564 269.981 397.872C269.696 398.177 269.337 398.415 268.904 398.585C268.474 398.753 267.984 398.836 267.433 398.836ZM272.307 398.684V391.126H275.442C276.294 391.126 276.97 391.308 277.469 391.673C277.967 392.033 278.217 392.524 278.217 393.144C278.217 393.587 278.075 393.937 277.793 394.197C277.511 394.456 277.137 394.63 276.672 394.718C277.009 394.758 277.319 394.859 277.601 395.023C277.884 395.184 278.11 395.4 278.28 395.673C278.454 395.945 278.541 396.27 278.541 396.647C278.541 397.047 278.438 397.401 278.231 397.71C278.025 398.015 277.724 398.254 277.331 398.428C276.941 398.599 276.47 398.684 275.919 398.684H272.307ZM273.69 397.454H275.919C276.283 397.454 276.568 397.367 276.775 397.193C276.982 397.019 277.085 396.783 277.085 396.485C277.085 396.134 276.982 395.858 276.775 395.658C276.568 395.455 276.283 395.353 275.919 395.353H273.69V397.454ZM273.69 394.275H275.456C275.732 394.275 275.968 394.236 276.165 394.157C276.365 394.079 276.517 393.967 276.622 393.823C276.731 393.675 276.785 393.501 276.785 393.301C276.785 393.009 276.665 392.781 276.426 392.617C276.186 392.453 275.858 392.371 275.442 392.371H273.69V394.275Z" fill="#4E5D7C" fill-opacity="0.5"/>
<path d="M244.066 195.039C244.066 190.33 247.884 186.513 252.593 186.513H278.172C282.881 186.513 286.698 190.33 286.698 195.039V248.328H244.066V195.039Z" fill="#27AE60"/>
<path d="M559.751 388.607H561.596L564.804 396.44H564.922L568.13 388.607H569.975V398.684H568.528V391.392H568.435L565.463 398.669H564.263L561.291 391.387H561.197V398.684H559.751V388.607ZM574.267 398.851C573.788 398.851 573.355 398.763 572.968 398.585C572.581 398.405 572.274 398.144 572.048 397.803C571.825 397.462 571.713 397.044 571.713 396.548C571.713 396.122 571.795 395.771 571.959 395.496C572.123 395.22 572.345 395.002 572.623 394.841C572.902 394.68 573.214 394.559 573.558 394.477C573.903 394.395 574.254 394.333 574.611 394.29C575.064 394.238 575.431 394.195 575.713 394.162C575.995 394.126 576.2 394.069 576.328 393.99C576.456 393.911 576.52 393.783 576.52 393.606V393.572C576.52 393.142 576.399 392.809 576.156 392.573C575.917 392.337 575.559 392.219 575.083 392.219C574.588 392.219 574.198 392.329 573.912 392.548C573.63 392.765 573.435 393.006 573.327 393.272L571.944 392.957C572.108 392.498 572.348 392.127 572.663 391.845C572.981 391.559 573.347 391.353 573.76 391.225C574.173 391.094 574.608 391.028 575.064 391.028C575.366 391.028 575.685 391.064 576.023 391.136C576.364 391.205 576.682 391.333 576.978 391.52C577.276 391.707 577.521 391.974 577.711 392.322C577.901 392.666 577.996 393.114 577.996 393.665V398.684H576.559V397.651H576.5C576.405 397.841 576.263 398.028 576.072 398.211C575.882 398.395 575.638 398.548 575.339 398.669C575.041 398.79 574.683 398.851 574.267 398.851ZM574.586 397.67C574.993 397.67 575.341 397.59 575.63 397.429C575.921 397.268 576.143 397.059 576.294 396.799C576.448 396.537 576.525 396.257 576.525 395.958V394.984C576.473 395.036 576.371 395.086 576.22 395.131C576.072 395.174 575.903 395.212 575.713 395.245C575.523 395.274 575.338 395.302 575.157 395.328C574.977 395.351 574.826 395.371 574.705 395.387C574.419 395.423 574.158 395.484 573.922 395.569C573.689 395.655 573.502 395.778 573.361 395.938C573.224 396.096 573.155 396.306 573.155 396.568C573.155 396.932 573.289 397.208 573.558 397.395C573.827 397.578 574.17 397.67 574.586 397.67ZM581.397 396.622L584.728 391.126H586.313V398.684H584.871V393.183L581.555 398.684H579.956V391.126H581.397V396.622ZM584.098 388.568H585.309C585.309 389.122 585.112 389.573 584.718 389.921C584.328 390.265 583.8 390.438 583.134 390.438C582.471 390.438 581.945 390.265 581.555 389.921C581.164 389.573 580.969 389.122 580.969 388.568H582.175C582.175 388.814 582.247 389.032 582.391 389.222C582.535 389.409 582.783 389.503 583.134 389.503C583.478 389.503 583.725 389.409 583.872 389.222C584.023 389.035 584.098 388.817 584.098 388.568Z" fill="#4E5D7C" fill-opacity="0.5"/>
<path d="M640.539 249.395H683.171V302.684C683.171 307.393 679.353 311.211 674.644 311.211H649.065C644.356 311.211 640.539 307.393 640.539 302.684V249.395Z" fill="#E74C3C"/>
<path d="M350.689 388.608H352.534L355.742 396.441H355.86L359.068 388.608H360.913V398.685H359.467V391.393H359.373L356.401 398.67H355.201L352.229 391.388H352.136V398.685H350.689V388.608ZM365.205 398.852C364.726 398.852 364.293 398.763 363.906 398.586C363.519 398.406 363.212 398.145 362.986 397.804C362.763 397.463 362.651 397.045 362.651 396.549C362.651 396.123 362.733 395.772 362.897 395.496C363.061 395.221 363.283 395.003 363.562 394.842C363.84 394.681 364.152 394.56 364.496 394.478C364.841 394.396 365.192 394.333 365.549 394.291C366.002 394.238 366.369 394.196 366.651 394.163C366.934 394.127 367.139 394.069 367.266 393.991C367.394 393.912 367.458 393.784 367.458 393.607V393.572C367.458 393.143 367.337 392.81 367.094 392.574C366.855 392.338 366.497 392.219 366.022 392.219C365.526 392.219 365.136 392.329 364.851 392.549C364.569 392.766 364.373 393.007 364.265 393.272L362.883 392.957C363.047 392.498 363.286 392.128 363.601 391.846C363.919 391.56 364.285 391.353 364.698 391.226C365.111 391.094 365.546 391.029 366.002 391.029C366.304 391.029 366.624 391.065 366.961 391.137C367.303 391.206 367.621 391.334 367.916 391.521C368.214 391.708 368.459 391.975 368.649 392.323C368.839 392.667 368.934 393.115 368.934 393.666V398.685H367.498V397.651H367.439C367.344 397.842 367.201 398.029 367.011 398.212C366.82 398.396 366.576 398.548 366.277 398.67C365.979 398.791 365.621 398.852 365.205 398.852ZM365.525 397.671C365.931 397.671 366.279 397.591 366.568 397.43C366.86 397.269 367.081 397.059 367.232 396.8C367.386 396.538 367.463 396.257 367.463 395.959V394.985C367.411 395.037 367.309 395.086 367.158 395.132C367.011 395.175 366.842 395.213 366.651 395.245C366.461 395.275 366.276 395.303 366.095 395.329C365.915 395.352 365.764 395.372 365.643 395.388C365.357 395.424 365.097 395.485 364.86 395.57C364.628 395.655 364.441 395.778 364.3 395.939C364.162 396.097 364.093 396.306 364.093 396.569C364.093 396.933 364.227 397.209 364.496 397.395C364.765 397.579 365.108 397.671 365.525 397.671ZM370.894 401.519V391.127H372.331V392.352H372.454C372.539 392.195 372.662 392.013 372.823 391.806C372.983 391.599 373.206 391.419 373.492 391.265C373.777 391.107 374.154 391.029 374.623 391.029C375.233 391.029 375.778 391.183 376.257 391.491C376.736 391.8 377.111 392.244 377.384 392.825C377.659 393.405 377.797 394.104 377.797 394.921C377.797 395.737 377.661 396.438 377.389 397.022C377.116 397.602 376.742 398.05 376.267 398.365C375.791 398.676 375.248 398.832 374.638 398.832C374.179 398.832 373.803 398.755 373.511 398.601C373.223 398.447 372.996 398.266 372.832 398.06C372.668 397.853 372.542 397.669 372.454 397.509H372.365V401.519H370.894ZM372.335 394.906C372.335 395.437 372.413 395.903 372.567 396.303C372.721 396.703 372.944 397.017 373.236 397.243C373.528 397.466 373.885 397.578 374.308 397.578C374.748 397.578 375.115 397.461 375.411 397.228C375.706 396.992 375.929 396.672 376.08 396.269C376.234 395.865 376.311 395.411 376.311 394.906C376.311 394.407 376.236 393.96 376.085 393.563C375.937 393.166 375.714 392.853 375.416 392.623C375.12 392.393 374.751 392.278 374.308 392.278C373.882 392.278 373.521 392.388 373.226 392.608C372.934 392.828 372.713 393.135 372.562 393.528C372.411 393.922 372.335 394.381 372.335 394.906Z" fill="#4E5D7C" fill-opacity="0.5"/>
<path d="M346.383 139.619C346.383 134.91 350.2 131.093 354.909 131.093H380.488C385.197 131.093 389.014 134.91 389.014 139.619V248.329H346.383V139.619Z" fill="#27AE60"/>
<path d="M657.63 388.608H659.136V396.008H659.23L664.356 388.608H665.764V398.685H664.243V391.294H664.15L659.033 398.685H657.63V388.608ZM671.667 394.325V395.605H667.637V394.325H671.667ZM668.833 391.127V398.685H667.361V391.127H668.833ZM673.969 398.837C673.267 398.837 672.654 398.673 672.129 398.345C671.604 398.017 671.198 397.561 670.909 396.977C670.62 396.39 670.476 395.709 670.476 394.935C670.476 394.155 670.62 393.472 670.909 392.889C671.198 392.301 671.604 391.846 672.129 391.521C672.654 391.193 673.267 391.029 673.969 391.029C674.674 391.029 675.288 391.193 675.809 391.521C676.334 391.846 676.741 392.301 677.03 392.889C677.322 393.472 677.467 394.155 677.467 394.935C677.467 395.709 677.322 396.39 677.03 396.977C676.741 397.561 676.334 398.017 675.809 398.345C675.288 398.673 674.674 398.837 673.969 398.837ZM673.969 397.578C674.445 397.578 674.834 397.458 675.135 397.218C675.44 396.976 675.665 396.654 675.809 396.254C675.954 395.854 676.026 395.414 676.026 394.935C676.026 394.453 675.954 394.012 675.809 393.612C675.665 393.208 675.44 392.885 675.135 392.643C674.834 392.4 674.445 392.278 673.969 392.278C673.497 392.278 673.108 392.4 672.803 392.643C672.498 392.885 672.273 393.208 672.129 393.612C671.985 394.012 671.913 394.453 671.913 394.935C671.913 395.414 671.985 395.854 672.129 396.254C672.273 396.654 672.498 396.976 672.803 397.218C673.108 397.458 673.497 397.578 673.969 397.578ZM684.324 394.271V395.545H680.23V394.271H684.324ZM680.643 391.127V398.685H679.202V391.127H680.643ZM685.352 391.127V398.685H683.915V391.127H685.352ZM688.427 393.725H690.622C691.547 393.725 692.258 393.955 692.757 394.414C693.256 394.873 693.505 395.465 693.505 396.19C693.505 396.662 693.393 397.087 693.17 397.464C692.947 397.842 692.621 398.14 692.191 398.36C691.761 398.576 691.238 398.685 690.622 398.685H687.32V391.127H688.762V397.415H690.622C691.045 397.415 691.392 397.305 691.665 397.086C691.937 396.862 692.073 396.579 692.073 396.234C692.073 395.87 691.937 395.573 691.665 395.344C691.392 395.111 691.045 394.994 690.622 394.994H688.427V393.725Z" fill="#4E5D7C" fill-opacity="0.5"/>
<path d="M448.695 249.395H491.327V358.105C491.327 362.814 487.51 366.632 482.801 366.632H457.222C452.513 366.632 448.695 362.814 448.695 358.105V249.395Z" fill="#E74C3C"/>
</g>
</svg>
